<?xml version="1.0" encoding="UTF-8" standalone="no"?>
<!-- Created with Inkscape (http://www.inkscape.org/) -->

<svg
   width="128"
   height="128"
   viewBox="0 0 128 128"
   version="1.1"
   id="svg1"
   inkscape:version="1.4 (86a8ad7, 2024-10-11)"
   sodipodi:docname="mand_3.svg"
   xmlns:inkscape="http://www.inkscape.org/namespaces/inkscape"
   xmlns:sodipodi="http://sodipodi.sourceforge.net/DTD/sodipodi-0.dtd"
   xmlns="http://www.w3.org/2000/svg"
   xmlns:svg="http://www.w3.org/2000/svg">
  <sodipodi:namedview
     id="namedview1"
     pagecolor="#ffffff"
     bordercolor="#000000"
     borderopacity="0.25"
     inkscape:showpageshadow="2"
     inkscape:pageopacity="0.0"
     inkscape:pagecheckerboard="0"
     inkscape:deskcolor="#d1d1d1"
     inkscape:document-units="px"
     inkscape:zoom="3.2234126"
     inkscape:cx="54.290289"
     inkscape:cy="69.18134"
     inkscape:window-width="1147"
     inkscape:window-height="1360"
     inkscape:window-x="1140"
     inkscape:window-y="0"
     inkscape:window-maximized="0"
     inkscape:current-layer="layer1" />
  <defs
     id="defs1" />
  <g
     inkscape:label="Layer 1"
     inkscape:groupmode="layer"
     id="layer1">
    <path
       id="path1"
       d="M 64.085938 7.9667969 L 59.818359 12.535156 C 57.566722 13.759475 55.662178 15.934389 54.134766 18.619141 L 47.996094 25.189453 L 39.314453 24.869141 C 36.168813 23.955651 33.116039 23.729186 30.544922 24.544922 L 24.441406 24.318359 L 24.667969 30.974609 C 24.174339 33.085947 24.319127 35.481975 24.904297 37.962891 L 25.240234 47.875 L 18.289062 54.328125 C 15.88438 55.747321 13.919175 57.478454 12.722656 59.498047 L 7.9667969 63.914062 L 12.537109 68.183594 C 13.761017 70.43317 15.933005 72.336778 18.615234 73.863281 L 25.189453 80.005859 L 24.867188 88.6875 C 23.954638 91.830714 23.728921 94.881602 24.542969 97.451172 L 24.316406 103.56055 L 30.980469 103.33398 C 33.089103 103.82572 35.481878 103.68151 37.958984 103.09766 L 47.875 102.75977 L 54.330078 109.71289 C 55.748136 112.11501 57.476814 114.07905 59.494141 115.27539 L 63.912109 120.0332 L 68.179688 115.4668 C 70.432975 114.24244 72.339055 112.06576 73.867188 109.37891 L 80.003906 102.81055 L 88.685547 103.13086 C 91.831274 104.04447 94.88401 104.27087 97.455078 103.45508 L 103.56055 103.68164 L 103.33398 97.019531 C 103.82572 94.910897 103.68151 92.518122 103.09766 90.041016 L 102.75977 80.126953 L 109.7168 73.667969 C 112.11675 72.250503 114.07762 70.521764 115.27344 68.505859 L 120.0332 64.087891 L 115.4668 59.820312 C 114.24237 57.567027 112.06562 55.660968 109.37891 54.132812 L 102.81055 47.996094 L 103.13281 39.3125 C 104.04524 36.169374 104.27102 33.118447 103.45703 30.548828 L 103.68359 24.439453 L 97.019531 24.666016 C 94.910846 24.174318 92.518081 24.318569 90.041016 24.902344 L 80.125 25.240234 L 73.671875 18.289062 C 72.252654 15.884483 70.521551 13.919242 68.501953 12.722656 L 64.085938 7.9667969 z M 64.068359 19.263672 L 72.990234 28.873047 C 73.35445 30.461602 73.668484 32.122906 73.871094 33.892578 C 72.90359 34.727948 71.941474 35.594094 71 36.525391 L 71 36.527344 C 68.343368 39.15885 66.006916 41.936333 64.103516 44.746094 C 62.230693 41.91586 59.926783 39.113269 57.298828 36.453125 L 57.296875 36.451172 C 56.273373 35.41654 55.227427 34.455958 54.171875 33.537109 C 54.366571 31.940803 54.653468 30.438835 54.980469 28.992188 L 64.068359 19.263672 z M 32.416016 32.316406 L 45.867188 32.816406 C 47.092949 33.603176 48.328252 34.453315 49.564453 35.431641 C 49.460239 36.827102 49.390645 38.24594 49.390625 39.701172 L 49.390625 39.703125 C 49.393325 43.441068 49.72823 47.052678 50.386719 50.380859 C 47.056248 49.72389 43.442289 49.391112 39.703125 49.390625 C 38.378304 49.390596 37.08446 49.450545 35.808594 49.537109 C 34.688161 48.111105 33.724703 46.685187 32.855469 45.275391 L 32.416016 32.316406 z M 95.681641 32.416016 L 95.183594 45.865234 C 94.396295 47.091427 93.545191 48.327711 92.566406 49.564453 C 91.171561 49.460334 89.753386 49.390645 88.298828 49.390625 L 88.296875 49.390625 C 84.557555 49.393125 80.944419 49.725815 77.615234 50.384766 C 78.274188 47.055581 78.606885 43.442444 78.609375 39.703125 L 78.609375 39.701172 C 78.609357 38.37671 78.549435 37.084089 78.462891 35.808594 C 79.888984 34.688046 81.314853 33.72468 82.724609 32.855469 L 95.681641 32.416016 z M 53.800781 39.189453 C 53.923062 39.310651 54.048243 39.42192 54.169922 39.544922 C 57.205109 42.617535 59.676465 45.95804 61.494141 49.160156 C 60.753765 50.622702 60.151808 52.076312 59.689453 53.507812 C 58.3499 52.814161 56.905567 52.194909 55.345703 51.675781 C 54.386866 48.123389 53.792224 44.015238 53.789062 39.699219 C 53.789073 39.527074 53.799092 39.360748 53.800781 39.189453 z M 74.207031 39.544922 C 74.20719 39.597612 74.210938 39.648398 74.210938 39.701172 C 74.207837 44.020119 73.613987 48.132716 72.654297 51.6875 C 71.127726 52.197128 69.715803 52.805605 68.400391 53.482422 C 67.956264 52.069461 67.380185 50.633111 66.667969 49.1875 C 68.520256 46.00528 71.025434 42.691874 74.09375 39.652344 C 74.13121 39.615284 74.16951 39.581814 74.207031 39.544922 z M 39.703125 53.789062 C 44.01972 53.789606 48.129851 54.381106 51.685547 55.337891 C 52.193916 56.861996 52.799798 58.272406 53.474609 59.585938 C 52.061456 60.031751 50.625118 60.610414 49.179688 61.324219 C 45.999755 59.473033 42.687936 56.970459 39.650391 53.904297 C 39.613981 53.867477 39.581171 53.829837 39.544922 53.792969 C 39.598272 53.792807 39.649689 53.789062 39.703125 53.789062 z M 88.298828 53.789062 C 88.472312 53.789065 88.639879 53.799071 88.8125 53.800781 C 88.691321 53.923052 88.580013 54.048253 88.457031 54.169922 C 85.386422 57.202973 82.047471 59.669727 78.847656 61.486328 C 77.380085 60.74169 75.921002 60.136558 74.484375 59.671875 C 75.176175 58.337383 75.793852 56.899287 76.3125 55.345703 C 79.867284 54.386014 83.979881 53.792122 88.298828 53.789062 z M 33.890625 54.128906 C 34.72624 55.096738 35.593785 56.058213 36.525391 57 L 36.527344 57 C 39.158039 59.655498 41.935415 61.987614 44.744141 63.890625 C 41.914388 65.765764 39.11175 68.071902 36.453125 70.701172 C 35.417919 71.725169 34.456429 72.771999 33.537109 73.828125 C 31.940743 73.633423 30.43882 73.346539 28.992188 73.019531 L 19.263672 63.931641 L 28.873047 55.007812 C 30.460947 54.643701 32.121652 54.331505 33.890625 54.128906 z M 94.462891 54.173828 C 96.060723 54.368709 97.56385 54.657271 99.011719 54.984375 L 108.73633 64.070312 L 99.130859 72.990234 C 97.541233 73.35485 95.878475 73.668326 94.107422 73.871094 C 93.2717 72.903174 92.404366 71.941825 91.472656 71 C 88.842694 68.34206 86.065115 66.005317 83.255859 64.099609 C 86.085052 62.227161 88.887534 59.925639 91.546875 57.298828 L 91.548828 57.296875 C 92.583105 56.273724 93.54432 55.229004 94.462891 54.173828 z M 64.050781 54.742188 C 64.20603 55.199404 64.330313 55.638096 64.449219 56.074219 C 64.310264 56.191068 64.149385 56.294164 64.015625 56.414062 C 63.895113 56.306036 63.749731 56.212979 63.625 56.107422 C 63.751064 55.660869 63.886014 55.210689 64.050781 54.742188 z M 57.449219 57.4375 C 57.898738 57.655232 58.314393 57.881923 58.720703 58.111328 C 58.706423 58.272681 58.685401 58.435539 58.675781 58.595703 C 58.482616 58.605203 58.286759 58.628291 58.091797 58.644531 C 57.873733 58.256598 57.656649 57.86449 57.449219 57.4375 z M 70.546875 57.453125 C 70.332269 57.894415 70.108769 58.301793 69.882812 58.701172 C 69.716257 58.686282 69.5481 58.664217 69.382812 58.654297 C 69.373812 58.470414 69.351097 58.283165 69.335938 58.097656 C 69.724722 57.878705 70.118675 57.661365 70.546875 57.453125 z M 63.208984 62.042969 L 64.015625 63.041016 L 64.810547 62.056641 L 64.669922 63.314453 L 65.947266 63.185547 L 64.958984 63.984375 L 65.978516 64.808594 L 64.652344 64.65625 L 64.779297 65.894531 L 64.001953 64.925781 L 63.193359 65.931641 L 63.339844 64.650391 L 62.105469 64.777344 L 63.074219 63.998047 L 62.035156 63.162109 L 63.335938 63.306641 L 63.208984 62.042969 z M 56.066406 63.539062 C 56.190245 63.686492 56.300461 63.856459 56.427734 63.998047 C 56.322593 64.115015 56.231716 64.255986 56.128906 64.376953 C 55.671759 64.248433 55.208695 64.110507 54.728516 63.941406 C 55.187351 63.7848 55.628727 63.659236 56.066406 63.539062 z M 71.882812 63.607422 C 72.336472 63.735942 72.795211 63.87267 73.271484 64.041016 C 72.815899 64.195925 72.378074 64.320544 71.943359 64.439453 C 71.820836 64.293308 71.711813 64.124799 71.585938 63.984375 C 71.690365 63.867875 71.780698 63.727868 71.882812 63.607422 z M 49.154297 66.501953 C 50.6238 67.246325 52.083664 67.8509 53.521484 68.314453 C 52.826821 69.652144 52.205659 71.094085 51.685547 72.652344 C 48.131803 73.612118 44.021482 74.207746 39.703125 74.210938 C 39.528973 74.210942 39.360784 74.200939 39.1875 74.199219 C 39.309353 74.076273 39.421247 73.950461 39.544922 73.828125 C 42.6141 70.79281 45.953576 68.322335 49.154297 66.501953 z M 78.818359 66.662109 C 81.999153 68.517089 85.309601 71.023398 88.345703 74.091797 C 88.383413 74.129917 88.417533 74.168847 88.455078 74.207031 C 88.403048 74.207188 88.352889 74.210938 88.300781 74.210938 C 83.984762 74.207737 79.876611 73.613134 76.324219 72.654297 C 75.815648 71.126155 75.209278 69.711678 74.533203 68.394531 C 75.943115 67.950337 77.375708 67.373334 78.818359 66.662109 z M 58.130859 69.279297 C 58.292069 69.293347 58.455211 69.314829 58.615234 69.324219 C 58.624334 69.514565 58.646459 69.708286 58.662109 69.900391 C 58.274724 70.118527 57.883504 70.335427 57.457031 70.542969 C 57.674664 70.095759 57.901618 69.683442 58.130859 69.279297 z M 69.916016 69.333984 C 70.135235 69.724863 70.354018 70.120356 70.5625 70.550781 C 70.10932 70.330628 69.690327 70.101218 69.28125 69.869141 C 69.29539 69.707071 69.316732 69.54367 69.326172 69.382812 C 69.520825 69.373513 69.719543 69.350154 69.916016 69.333984 z M 64.001953 71.572266 C 64.118254 71.67681 64.258656 71.766914 64.378906 71.869141 C 64.2518 72.321261 64.116019 72.779215 63.949219 73.253906 C 63.794736 72.798548 63.671213 72.360212 63.552734 71.925781 C 63.696896 71.804504 63.863394 71.696815 64.001953 71.572266 z M 68.316406 74.478516 C 69.655884 75.173719 71.101235 75.793821 72.662109 76.314453 C 73.618891 79.870149 74.210375 83.98028 74.210938 88.296875 C 74.210941 88.470368 74.200919 88.637916 74.199219 88.810547 C 74.076944 88.689356 73.951749 88.578071 73.830078 88.455078 L 73.828125 88.455078 C 70.793467 85.382771 68.326654 82.041278 66.509766 78.839844 C 67.252561 77.372716 67.853763 75.91454 68.316406 74.478516 z M 59.599609 74.521484 C 60.043324 75.933082 60.618568 77.366572 61.330078 78.810547 C 59.47859 81.992095 56.976006 85.306492 53.908203 88.345703 C 53.870073 88.383423 53.831153 88.417533 53.792969 88.455078 C 53.792809 88.402388 53.789062 88.351598 53.789062 88.298828 L 53.789062 88.296875 C 53.792262 83.978517 54.387885 79.868197 55.347656 76.314453 C 56.87331 75.805223 58.284929 75.198045 59.599609 74.521484 z M 77.619141 77.613281 C 80.947322 78.271769 84.558932 78.606636 88.296875 78.609375 L 88.298828 78.609375 C 89.623298 78.609357 90.915909 78.549436 92.191406 78.462891 C 93.312777 79.890122 94.276726 81.317516 95.146484 82.728516 L 95.585938 95.681641 L 82.134766 95.183594 C 80.908389 94.396217 79.672451 93.545292 78.435547 92.566406 C 78.539701 91.171094 78.609407 89.751884 78.609375 88.296875 C 78.608841 84.557704 78.27611 80.943751 77.619141 77.613281 z M 50.384766 77.615234 C 49.726056 80.944206 49.39323 84.556032 49.390625 88.294922 L 49.390625 88.296875 C 49.390596 89.621688 49.450545 90.915542 49.537109 92.191406 C 48.11112 93.311801 46.685202 94.275301 45.275391 95.144531 L 32.318359 95.583984 L 32.816406 82.132812 C 33.603458 80.907098 34.455074 79.671921 35.433594 78.435547 C 36.828906 78.539701 38.248116 78.609407 39.703125 78.609375 L 39.705078 78.609375 C 43.443968 78.606775 47.055794 78.273944 50.384766 77.615234 z M 63.896484 83.253906 C 65.76933 86.083817 68.071647 88.886955 70.699219 91.546875 L 70.701172 91.546875 C 71.725163 92.582075 72.772001 93.543573 73.828125 94.462891 C 73.633507 96.058569 73.346345 97.559776 73.019531 99.005859 L 63.929688 108.73438 L 55.009766 99.128906 C 54.645336 97.539812 54.331611 95.877774 54.128906 94.107422 C 55.096826 93.271699 56.058175 92.404366 57 91.472656 L 57.001953 91.472656 C 59.658208 88.841379 61.993065 86.063345 63.896484 83.253906 z "
       style="fill:#0000ff" />
  </g>
</svg>
