<?xml version="1.0" encoding="UTF-8" standalone="no"?>
<!-- Created with Inkscape (http://www.inkscape.org/) -->

<svg
   width="120"
   height="120"
   viewBox="0 0 120 120"
   version="1.1"
   id="svg1"
   inkscape:version="1.4 (86a8ad7, 2024-10-11)"
   sodipodi:docname="border_6.svg"
   xmlns:inkscape="http://www.inkscape.org/namespaces/inkscape"
   xmlns:sodipodi="http://sodipodi.sourceforge.net/DTD/sodipodi-0.dtd"
   xmlns="http://www.w3.org/2000/svg"
   xmlns:svg="http://www.w3.org/2000/svg">
  <sodipodi:namedview
     id="namedview1"
     pagecolor="#ffffff"
     bordercolor="#000000"
     borderopacity="0.25"
     inkscape:showpageshadow="2"
     inkscape:pageopacity="0.0"
     inkscape:pagecheckerboard="0"
     inkscape:deskcolor="#d1d1d1"
     inkscape:document-units="px"
     inkscape:zoom="6.8766134"
     inkscape:cx="59.913212"
     inkscape:cy="42.390052"
     inkscape:window-width="3440"
     inkscape:window-height="1369"
     inkscape:window-x="-8"
     inkscape:window-y="-8"
     inkscape:window-maximized="1"
     inkscape:current-layer="layer1" />
  <defs
     id="defs1" />
  <g
     inkscape:label="Layer 1"
     inkscape:groupmode="layer"
     id="layer1">
    <path
       style="fill:none;stroke-width:0.904"
       id="path1"
       d="m 27.30689,4.54599 c 0.531768,0.6837772 1.155074,1.2957115 1.840288,1.8259436 0.343296,0.2656485 0.688919,0.5322883 1.063928,0.7508955 12.911854,7.5268179 8.491224,5.7585889 14.557333,8.0696369 1.576736,0.559287 3.192148,0.997349 4.829422,1.338136 0.528577,0.110019 1.057702,0.220511 1.591841,0.299216 1.053025,0.155164 1.891826,0.1826 2.945851,0.244465 1.385519,-0.01182 2.777354,-0.07705 3.927813,-0.948052 0.545788,-0.413212 0.697872,-0.683313 1.107637,-1.215716 0.605412,-1.072986 1.077072,-2.215519 1.450492,-3.387993 0.174824,-0.5972 0.192906,-1.13612 -0.04238,-1.7201706 C 60.54386,9.7148389 60.49123,9.6353738 60.447287,9.551885 60.194112,9.1579329 60.416071,9.4794467 60.147235,9.1470425 60.097895,9.086035 60.062179,9.0134016 60.005619,8.9590197 59.957596,8.9128461 59.891536,8.8897875 59.838183,8.8498916 59.788818,8.8129773 59.751408,8.7601538 59.698156,8.7291063 55.395384,6.2204211 51.081278,3.7312245 46.772839,1.2322836 46.688219,1.2222706 46.51176,1.1931206 46.42427,1.2147976 c -0.400975,0.099351 -0.713446,0.589635 -0.930498,0.906359 -0.305563,0.4889715 -0.455963,1.0505507 -0.474936,1.6255703 -0.0047,0.1416527 0.0073,0.2833668 0.01088,0.4250502 0.09261,0.9890537 0.558374,1.8309246 1.190881,2.5817657 0.163611,0.1942209 0.345147,0.3726058 0.51772,0.5589087 4.613788,3.7939295 1.20481,1.0608409 13.812641,8.2194535 0.423763,0.240609 1.733431,0.63265 2.171833,0.740188 1.049836,0.257521 1.614867,0.302176 2.696966,0.446998 1.343708,0.09428 1.78279,0.16456 3.149879,0.09529 1.186859,-0.06014 2.241552,-0.224734 3.413291,-0.417458 1.696703,-0.279069 1.66099,-0.293318 3.318753,-0.654613 1.822289,-0.468105 3.625609,-1.077443 5.29019,-1.965049 0.780919,-0.416411 1.0597,-0.624031 1.778919,-1.100314 1.022881,-0.678613 1.88426,-1.541337 2.6047,-2.52931 0.31006,-0.5123984 0.50775,-1.0949888 0.35963,-1.6947997 -0.023,-0.093044 -0.0638,-0.1807438 -0.0957,-0.2711157 -0.102,-0.1249918 -0.1547,-0.2830789 -0.25211,-0.4108702 -0.0411,-0.053891 -0.0849,-0.1099086 -0.14336,-0.1441357 -4.29972,-2.5163922 -8.60483,-5.023728 -12.925335,-7.50426219 -0.0525,-0.03014128 -0.311265,-0.02695324 -0.369621,-0.02782222 -0.42921,0.01215201 -0.504921,0.09710596 -0.80322,0.43410714 -0.200244,0.22622504 -0.208845,0.25608127 -0.369264,0.49725507 -0.287822,0.4959909 -0.431758,1.0547052 -0.540194,1.6128059 0.02962,5.4200768 -0.118593,0.625472 13.047734,7.8580326 0.10836,0.05953 0.24182,-0.05298 0.3644,-0.06909 0.48979,-0.06437 0.99412,-0.05806 1.48675,-0.07165 1.40333,-0.1124 2.79388,-0.318927 4.18121,-0.5521905 0.78159,-0.1773188 1.577861,-0.2797412 2.363331,-0.4362659 0.22918,-0.04567 0.454989,-0.1068921 0.68249,-0.1603136 0.2686,-0.017708 0.48678,-0.1739133 0.73088,-0.2645066 0,0 -12.45854,-8.32321499 -12.45854,-8.32321499 v 0 C 80.05559,0.70235021 79.86283,0.73124151 79.68565,0.82072737 78.85035,1.1420163 77.97268,1.3470791 77.09134,1.4939653 75.728809,1.6974231 74.345334,1.8542294 72.966571,1.755136 72.480442,1.71585 71.877214,1.709424 71.417813,1.520897 71.312802,1.477803 71.031166,1.2829924 71.129504,1.3396854 c 12.712945,7.3291808 16.226265,4.0519365 12.354415,7.5062823 -0.12617,0.1043975 -0.23528,0.2255335 -0.28367,0.1670125 -0.0121,-0.014645 0.008,-0.2526491 0.0336,-0.2832231 0.0465,0.084268 -0.0645,0.275122 -0.071,0.3388087 -0.0125,0.1220787 0.1371,0.1690268 0.196,0.2485658 3.48907,3.7186714 1.467,0.9849464 -12.426698,-7.1264376 -0.05605,-0.032725 0.118965,0.053215 0.181568,0.070359 0.06584,0.018031 0.136946,0.013467 0.201845,0.03464 0.06241,0.02036 0.11725,0.059061 0.175875,0.088591 0.137582,0.034812 0.212327,0.058017 0.350961,0.077265 0.0373,0.00518 0.219396,0.01313 0.262833,0.033106 0.03102,0.014267 0.06847,0.035635 0.07572,0.069005 0.01228,0.056536 -0.0156,0.1146512 -0.02339,0.1719768 -0.10512,0.2548358 -0.124595,0.3284291 -0.281111,0.5787867 C 71.478209,3.9514209 70.88862,4.519858 70.340778,5.024774 69.739909,5.4868504 69.523341,5.6792455 68.856006,6.0796113 67.386204,6.9614151 65.774569,7.5699996 64.114267,7.9815602 63.60804,8.0959696 63.105117,8.2261293 62.595586,8.3247885 59.896166,8.8474712 57.130732,8.9695639 54.424143,8.4215268 53.950665,8.311462 53.472192,8.221022 53.003709,8.0913322 52.14085,7.8524673 51.365491,7.5630486 50.561169,7.1739566 50.211348,7.0047305 49.201203,6.4215162 49.536363,6.6181879 c 9.939683,5.8326071 15.163527,8.7361641 10.581763,6.1843541 -0.169059,-0.13335 -0.344369,-0.259135 -0.507175,-0.40005 -0.381556,-0.330253 -0.715239,-0.710133 -1.013837,-1.115617 -0.06603,-0.08966 -0.138769,-0.175753 -0.190817,-0.274192 -0.04639,-0.08774 -0.06803,-0.186472 -0.102045,-0.279708 -0.0723,-0.242665 -0.113541,-0.367483 -0.07983,-0.61917 0.0074,-0.05502 0.0087,-0.1782957 0.06525,-0.2173868 0.0058,0.3605228 -0.205626,0.4353728 0.120884,0.7408808 C 54.198459,8.1927192 49.98361,5.7528743 45.774265,3.3035593 c -0.05528,-0.032167 0.118702,0.04896 0.173498,0.081946 0.05999,0.036115 0.105733,0.094984 0.16928,0.1243997 0.06542,0.030285 0.143457,0.023796 0.210127,0.05123 0.139685,0.057479 0.24705,0.1801907 0.399279,0.2142891 0.0656,0.039503 0.128881,0.083132 0.196794,0.1185078 0.06488,0.033797 0.139279,0.049 0.200795,0.088595 0.05709,0.036744 0.09479,0.098366 0.150332,0.1374083 0.04751,0.033395 0.111995,0.039773 0.155854,0.07783 0.128118,0.1111691 0.107843,0.2201358 0.130584,0.3794281 C 47.534598,5.6017058 47.32877,6.62323 46.742416,7.4837323 46.436749,7.8466325 46.365822,7.9896151 45.957976,8.2429501 45.067627,8.7959943 43.95894,8.8245098 42.949092,8.8523205 42.538908,8.8313725 42.127308,8.8294605 41.718541,8.7894755 39.077519,8.5311379 36.506557,7.7487803 34.069328,6.7251207 28.921806,4.2040274 31.934049,5.6353248 43.258267,12.21656 c 0.311121,0.180813 -0.624869,-0.357876 -0.926256,-0.554485 -0.465721,-0.303813 -0.760102,-0.533533 -1.139378,-0.913217 -0.0858,-0.08589 -0.159105,-0.183405 -0.238659,-0.275107 z" />
    <path
       id="path4"
       style="fill:#000000;stroke:none;stroke-width:0.550762"
       d="m 59.847675,0.97751622 a 1.8167867,5.4503601 0 0 0 -1.404297,2.02343798 5.4503601,1.8167867 45.310711 0 0 -2.429687,-0.449219 5.4503601,1.8167867 45.310711 0 0 0.441406,2.460938 5.4503601,1.8167867 0 0 0 -2.058594,1.414062 5.4503601,1.8167867 0 0 0 2.025391,1.40625 1.8167867,5.4503601 45.310711 0 0 -0.451172,2.4257808 1.8167867,5.4503601 45.310711 0 0 2.462891,-0.4394528 1.8167867,5.4503601 0 0 0 1.414062,2.0566408 1.8167867,5.4503601 0 0 0 1.404297,-2.0253908 5.4503601,1.8167867 45.310711 0 0 2.427734,0.4511718 5.4503601,1.8167867 45.310711 0 0 -0.439453,-2.4609378 5.4503601,1.8167867 0 0 0 2.058594,-1.414062 5.4503601,1.8167867 0 0 0 -2.025391,-1.40625 1.8167867,5.4503601 45.310711 0 0 0.449219,-2.425781 1.8167867,5.4503601 45.310711 0 0 -2.460937,0.4375 1.8167867,5.4503601 0 0 0 -1.414063,-2.05468798 z M 9.3633004,1.3466572 c -0.26408,0.024419 -0.4982531,0.11601 -0.7519531,0.1875 -0.1,0.02818 -0.2026244,0.046429 -0.3027344,0.074219 -0.10483,0.0291 -0.2065768,0.065636 -0.3105468,0.097656 -1.6500401,0.497053 -3.5095507,1.02257 -4.5878907,2.476562 -0.0108,0.076859 -0.029203,0.152939 -0.033203,0.230469 -0.01273,0.279494 0.1794812,0.54633 0.3007812,0.779297 0.3287,0.536348 0.7463626,1.004487 1.1640626,1.472656 0.0546,0.05034 0.4603062,0.426061 0.5039062,0.462891 0.47581,0.402091 0.9887525,0.766813 1.5078125,1.109375 0.95914,0.617766 1.96492,1.163712 3.09375,1.396484 0.6972701,0.167809 1.0996651,0.275534 1.8222651,0.4023438 1.31598,0.23095 2.651458,0.305244 3.986328,0.277344 0.76974,-0.01717 1.546361,-0.02121 2.306641,-0.16211 0.60334,-0.111815 1.192092,-0.3130108 1.755859,-0.5507808 0.875082,-0.50127 1.772075,-0.971283 2.646485,-1.474609 0.312594,0.227135 0.638879,0.440099 0.982422,0.615234 0.158072,0.064704 0.313454,0.138723 0.474609,0.195313 0.161333,0.056651 0.328727,0.094341 0.492187,0.144531 0.879272,0.269981 1.762604,0.522674 2.658204,0.734375 0.228886,0.048578 0.457385,0.102141 0.6875,0.144531 1.391398,0.2563008 2.805711,0.3260188 4.216796,0.2304688 0.380608,-0.02625 0.762552,-0.0445 1.142578,-0.07813 2.580613,-0.2283748 5.139075,-0.6717228 7.677735,-1.1777348 0.908634,-0.191938 1.820456,-0.391597 2.71875,-0.634765 -0.01438,0.18867 -0.0219,0.377549 -0.01953,0.566406 0.029,0.464521 0.122898,0.901689 0.386718,1.2949218 0.12667,0.154068 0.235815,0.334374 0.390625,0.462891 0.29345,0.243617 0.670868,0.320538 1.023438,0.439453 1.80555,0.341932 3.642165,0.454569 5.478515,0.443359 l 3.021485,-2.1953118 c -1.82527,0.059452 -3.652016,-0.042348 -5.447266,-0.38086 -0.30568,-0.097017 -0.643312,-0.156395 -0.914062,-0.341797 -0.13014,-0.089117 -0.225066,-0.241135 -0.322266,-0.361328 -0.2273,-0.328786 -0.265484,-0.694256 -0.271484,-1.082031 -0.0038,-0.09705 0.0045,-0.192815 0.01367,-0.289062 0.671011,-0.377781 1.343286,-0.754398 2.011718,-1.136719 0.47483,-0.271587 0.841571,-0.671046 1.150391,-1.117188 0.29053,-0.41713 0.606885,-0.811774 0.421875,-1.339843 -0.062,-0.104811 -0.103009,-0.24003 -0.230469,-0.28711 -0.15414,-0.056931 -0.443532,0.151126 -0.576172,0.191406 -1.81223,0.572909 -3.515423,1.476886 -5.027343,2.648438 -0.259445,0.252003 -0.480795,0.534296 -0.65625,0.845703 -0.0762,0.017153 -0.152431,0.035565 -0.228516,0.052734 -2.528,0.546706 -5.085885,0.989546 -7.664063,1.216797 -0.372855,0.03286 -0.745756,0.051945 -1.11914,0.078125 -1.144738,0.067437 -2.290934,0.062885 -3.429688,-0.080078 -0.632885,-0.079455 -0.764269,-0.116928 -1.382812,-0.238281 -1.208949,-0.277758 -2.411394,-0.596877 -3.574219,-1.03125 -0.403666,-0.171104 -0.756483,-0.420844 -1.097656,-0.6875 0.216916,-0.209469 0.428314,-0.423021 0.628906,-0.648438 0.496451,-0.574061 1.087925,-1.192358 1.078125,-2.001953 -0.108947,-0.453102 -0.239317,-0.511112 -0.683594,-0.507812 -0.361576,-0.01711 -0.730677,-0.066007 -1.085937,0.027343 -0.171335,0.058958 -0.346793,0.107439 -0.517578,0.167969 -1.300215,0.46084 -3.64568,2.038205 -3.875,2.175781 -0.0941,0.056456 -0.171405,0.13914 -0.240235,0.22461 -0.05955,0.073945 -0.09386,0.165427 -0.140625,0.248047 -0.09525,0.40127 -0.091,0.738393 0.150391,1.089843 0.06692,0.076626 0.165664,0.1945 0.246094,0.25586 0.04108,0.03134 0.09098,0.048732 0.134765,0.076172 0.177454,0.111218 0.323424,0.261308 0.490235,0.386718 0.05192,0.040321 0.101664,0.083045 0.152344,0.125 -0.04384,0.037658 -0.09033,0.072414 -0.134766,0.109376 -0.428908,0.140797 -0.868367,0.247033 -1.316406,0.310546 -0.602483,0.085408 -0.980383,0.087085 -1.595704,0.115235 -1.32566,0.040408 -2.653603,-0.00263 -3.964843,-0.212891 -0.73454,-0.117787 -1.081856,-0.215396 -1.785157,-0.384766 -1.08486,-0.233774 -2.066942,-0.731239 -3.0019522,-1.3125 -0.5126497,-0.321216 -0.9954824,-0.684199 -1.4550782,-1.076171 0.8131858,-0.468625 1.5680804,-0.998815 2.0644524,-1.285157 0.07337,-0.042323 0.292763,-0.224339 0.351563,-0.287109 0.04725,-0.050453 0.0829,-0.109243 0.125,-0.164063 0.0298,-0.060028 0.06784,-0.116387 0.08984,-0.179687 0.116,-0.333533 0.02514,-0.682479 -0.113282,-0.992187 -0.04063,-0.071905 -0.07519,-0.148147 -0.121093,-0.216797 -0.11793,-0.176413 -0.45937,-0.551157 -0.65625,-0.628907 -0.04221,-0.01672 -0.09132,-0.0016 -0.136719,-0.00195 -0.2599597,-0.00532 -0.5181235,-0.019709 -0.7773435,-0.037109 z m 101.2753796,0 c -0.25922,0.0174 -0.51933,0.031789 -0.77929,0.037109 -0.0454,3.54e-4 -0.0926,-0.014767 -0.13477,0.00195 -0.19688,0.07775 -0.53832,0.452494 -0.65625,0.628907 -0.0459,0.06865 -0.0824,0.144892 -0.12305,0.216797 -0.13842,0.309708 -0.22928,0.658653 -0.11328,0.992187 0.022,0.0633 0.0601,0.119658 0.0898,0.179687 0.0421,0.05482 0.0797,0.113609 0.12695,0.164063 0.0588,0.06277 0.27624,0.244786 0.34961,0.287109 0.49626,0.286275 1.25148,0.816612 2.06445,1.285157 -0.45925,0.391598 -0.94285,0.755222 -1.45508,1.076171 -0.93501,0.581261 -1.91709,1.078726 -3.00195,1.3125 -0.7033,0.169368 -1.05061,0.266978 -1.78515,0.384766 -1.31124,0.210264 -2.63919,0.253299 -3.96485,0.212891 -0.61532,-0.02815 -0.99126,-0.029827 -1.593742,-0.115235 -0.448039,-0.063513 -0.887498,-0.16975 -1.316406,-0.310546 -0.04444,-0.036962 -0.09093,-0.071718 -0.134766,-0.109376 0.05059,-0.041881 0.100517,-0.084749 0.152344,-0.125 0.166811,-0.12541 0.31278,-0.2755 0.490235,-0.386718 0.04378,-0.02744 0.09369,-0.044832 0.134765,-0.076172 0.08043,-0.06136 0.177225,-0.179234 0.244141,-0.25586 0.241389,-0.35145 0.245637,-0.688572 0.15039,-1.089843 -0.04677,-0.08262 -0.08107,-0.174102 -0.140625,-0.248047 -0.06883,-0.08547 -0.146132,-0.168155 -0.240234,-0.22461 -0.22932,-0.137577 -2.574785,-1.71494 -3.875,-2.175781 -0.170785,-0.06053 -0.34429,-0.109011 -0.515625,-0.167969 -0.35526,-0.09335 -0.724361,-0.044453 -1.085938,-0.027343 -0.444276,-0.0033 -0.576599,0.054711 -0.685546,0.507812 -0.0098,0.809596 0.581674,1.427892 1.078125,2.001953 0.200592,0.225416 0.413943,0.438969 0.630859,0.648438 -0.341258,0.266742 -0.69388,0.51635 -1.097656,0.6875 -1.162825,0.434373 -2.36527,0.753492 -3.574219,1.03125 -0.618543,0.121353 -0.749928,0.158826 -1.382813,0.238281 -1.138754,0.142963 -2.284949,0.147515 -3.429687,0.080078 -0.373384,-0.02618 -0.748239,-0.045265 -1.121094,-0.078125 -2.578182,-0.227252 -5.134118,-0.670091 -7.662109,-1.216797 -0.07596,-0.017142 -0.152439,-0.035609 -0.228516,-0.052734 -0.175484,-0.311555 -0.398651,-0.5936 -0.658203,-0.845703 -1.511916,-1.171552 -3.213159,-2.075529 -5.025391,-2.648438 -0.132641,-0.04028 -0.42203,-0.248337 -0.576171,-0.191406 -0.12746,0.04708 -0.170427,0.182299 -0.232422,0.28711 -0.185008,0.528069 0.131344,0.922713 0.421875,1.339843 0.308821,0.446141 0.677515,0.8456 1.152344,1.117188 0.668216,0.382199 1.338967,0.759059 2.009765,1.136719 0.0091,0.096255 0.01943,0.192004 0.01563,0.289062 -0.0058,0.387775 -0.04612,0.753245 -0.273437,1.082031 -0.0972,0.120193 -0.190175,0.272212 -0.320313,0.361328 -0.270745,0.185403 -0.608382,0.24478 -0.914062,0.341797 -1.795252,0.338512 -3.621993,0.440312 -5.447266,0.38086 l 3.021484,2.1953118 c 1.836348,0.01121 3.672966,-0.101427 5.478516,-0.443359 0.352569,-0.118915 0.729986,-0.195836 1.023438,-0.439453 0.154804,-0.128517 0.261998,-0.308823 0.388671,-0.462891 0.26382,-0.3932328 0.359666,-0.8304008 0.388672,-1.2949218 0.0023,-0.188892 -0.0071,-0.3777 -0.02148,-0.566406 0.898881,0.243399 1.809505,0.442698 2.71875,0.634765 2.538665,0.506012 5.099074,0.94936 7.679687,1.1777348 0.380027,0.03363 0.760017,0.05187 1.140625,0.07813 1.411085,0.09555 2.827352,0.02583 4.21875,-0.2304688 0.230114,-0.04239 0.456661,-0.095953 0.685547,-0.144531 0.895599,-0.211701 1.780884,-0.464394 2.660156,-0.734375 0.163461,-0.05019 0.330855,-0.08788 0.492188,-0.144531 0.161155,-0.05659 0.316537,-0.130609 0.474609,-0.195313 0.343542,-0.175135 0.667875,-0.388099 0.980469,-0.615234 0.874612,0.503467 1.771189,0.973216 2.646486,1.474609 0.56376,0.23777 1.15446,0.4389658 1.7578,0.5507808 0.76028,0.140901 1.53691,0.144939 2.30665,0.16211 1.33487,0.0279 2.66839,-0.04639 3.98437,-0.277344 0.7226,-0.1268098 1.12695,-0.2345348 1.82422,-0.4023438 1.12883,-0.232772 2.13266,-0.778718 3.0918,-1.396484 0.51906,-0.342563 1.032,-0.707284 1.50781,-1.109375 0.0436,-0.03683 0.44931,-0.412552 0.50391,-0.462891 0.41769,-0.46817 0.83731,-0.936308 1.16601,-1.472656 0.1213,-0.232967 0.31156,-0.499803 0.29883,-0.779297 -0.004,-0.07753 -0.0204,-0.153611 -0.0312,-0.230469 -1.07834,-1.453992 -2.93785,-1.979509 -4.58789,-2.476562 -0.10397,-0.03202 -0.20767,-0.068556 -0.3125,-0.097656 -0.10011,-0.02779 -0.20274,-0.046039 -0.30274,-0.074219 -0.2537,-0.07149 -0.48592,-0.163081 -0.75,-0.1875 z M 7.3730661,2.4736102 c 0.032896,-0.00551 -0.2368131,0.139243 -0.640625,0.361328 -0.00263,-0.022378 -0.00816,-0.043396 -0.00781,-0.066406 0,-0.02717 -0.015587,-0.068281 0.00781,-0.082031 0.03908,-0.02289 0.091519,-9.54e-4 0.1367187,-0.00195 0.31265,-0.134561 0.4779548,-0.206593 0.5039063,-0.210937 z m 105.2538939,0 c 0.026,0.00434 0.19321,0.076376 0.50586,0.210937 0.0452,10e-4 0.0957,-0.020936 0.13477,0.00195 0.0234,0.01375 0.008,0.054861 0.008,0.082031 3.5e-4,0.02301 -0.005,0.044028 -0.008,0.066406 -0.40381,-0.222085 -0.67352,-0.366834 -0.64063,-0.361328 z M 10.777363,3.0966572 c 0.09507,-0.044783 -0.114901,0.071712 -0.408204,0.222656 0.118102,-0.06377 0.373463,-0.206291 0.408204,-0.222656 z m 98.445307,0 c 0.0339,0.015964 0.28541,0.155851 0.39844,0.216797 -0.28735,-0.148243 -0.4924,-0.261055 -0.39844,-0.216797 z M 7.3164254,3.5947042 c 0.1600323,0.055488 0.27595,0.20513 0.3730469,0.355469 L 7.5000192,4.0888442 C 7.3691259,3.9323132 7.2438546,3.7714972 7.1269723,3.6044692 c 0.061756,0.00724 0.1303411,-0.030249 0.1894531,-0.00977 z m 105.3671846,0 c 0.059,-0.02044 0.1278,0.016776 0.18945,0.00977 -0.11687,0.167 -0.24217,0.327867 -0.37305,0.484375 l -0.18945,-0.138671 c 0.0971,-0.150339 0.21301,-0.299981 0.37305,-0.355469 z m -88.193357,0.21289 c -0.144431,0.086002 -0.290619,0.168745 -0.435547,0.253907 0.05422,-0.040909 0.107572,-0.084666 0.166016,-0.119141 0.0869,-0.051254 0.356221,-0.186386 0.269531,-0.134766 z m 71.019532,0 c -0.08669,-0.05162 0.184585,0.083512 0.271484,0.134766 0.06124,0.036122 0.116785,0.082494 0.173828,0.125 -0.148211,-0.08707 -0.297619,-0.171822 -0.445312,-0.259766 z m -36.300782,0.236329 0.638672,0.4375 0.638672,-0.4375 0.333984,0.697265 0.773438,-0.060547 -0.0625,0.773438 0.699219,0.333984 -0.4375,0.638672 0.4375,0.638672 -0.699219,0.333984 0.0625,0.773438 -0.773438,-0.060547 -0.333984,0.697265 -0.638672,-0.4375 -0.638672,0.4375 -0.333984,-0.697265 -0.773438,0.060547 0.06055,-0.773438 -0.699219,-0.333984 0.439454,-0.638672 -0.439454,-0.638672 0.699219,-0.333984 -0.06055,-0.773438 0.773438,0.060547 z m -10.691406,0.132812 c -0.03159,0.018598 -0.218971,0.126653 -0.511719,0.294922 0.0295,-0.017914 0.05701,-0.037888 0.08594,-0.056641 0.332032,-0.186408 0.457367,-0.256879 0.425781,-0.238281 z m 22.966797,0 c -0.03159,-0.018598 0.0918,0.051873 0.423828,0.238281 0.02919,0.018939 0.05809,0.038547 0.08789,0.056641 -0.292748,-0.168269 -0.480133,-0.276324 -0.511718,-0.294922 z" />
    <path
       id="path6"
       style="fill:#000000;stroke:none;stroke-width:0.550762"
       d="m 59.847674,118.61454 a 1.8167867,5.4503601 0 0 1 -1.404297,-2.02344 1.8167867,5.4503601 44.689289 0 1 -2.429687,0.44922 1.8167867,5.4503601 44.689289 0 1 0.441406,-2.46094 5.4503601,1.8167867 0 0 1 -2.058594,-1.41406 5.4503601,1.8167867 0 0 1 2.025391,-1.40625 5.4503601,1.8167867 44.689289 0 1 -0.451172,-2.42578 5.4503601,1.8167867 44.689289 0 1 2.462891,0.43945 1.8167867,5.4503601 0 0 1 1.414062,-2.05664 1.8167867,5.4503601 0 0 1 1.404297,2.02539 1.8167867,5.4503601 44.689289 0 1 2.427734,-0.45117 1.8167867,5.4503601 44.689289 0 1 -0.439453,2.46094 5.4503601,1.8167867 0 0 1 2.058594,1.41406 5.4503601,1.8167867 0 0 1 -2.025391,1.40625 5.4503601,1.8167867 44.689289 0 1 0.449219,2.42578 5.4503601,1.8167867 44.689289 0 1 -2.460937,-0.4375 1.8167867,5.4503601 0 0 1 -1.414063,2.05469 z M 9.3632999,118.2454 c -0.26408,-0.0244 -0.4982531,-0.11601 -0.7519531,-0.1875 -0.1,-0.0282 -0.2026244,-0.0464 -0.3027344,-0.0742 -0.10483,-0.0291 -0.2065768,-0.0656 -0.3105468,-0.0977 -1.6500401,-0.49705 -3.5095507,-1.02257 -4.5878907,-2.47656 -0.0108,-0.0769 -0.029203,-0.15294 -0.033203,-0.23047 -0.01273,-0.27949 0.1794812,-0.54633 0.3007812,-0.7793 0.3287,-0.53634 0.7463626,-1.00448 1.1640626,-1.47265 0.0546,-0.0503 0.4603062,-0.42606 0.5039062,-0.46289 0.47581,-0.40209 0.9887525,-0.76682 1.5078125,-1.10938 0.95914,-0.61776 1.96492,-1.16371 3.09375,-1.39648 0.6972696,-0.16781 1.0996646,-0.27554 1.8222646,-0.40235 1.31598,-0.23095 2.651458,-0.30524 3.986328,-0.27734 0.76974,0.0172 1.546361,0.0212 2.306641,0.16211 0.60334,0.11181 1.192092,0.31301 1.755859,0.55078 0.875082,0.50127 1.772075,0.97128 2.646485,1.47461 0.312594,-0.22714 0.638879,-0.4401 0.982422,-0.61523 0.158072,-0.0647 0.313454,-0.13873 0.474609,-0.19532 0.161333,-0.0567 0.328727,-0.0943 0.492187,-0.14453 0.879272,-0.26998 1.762604,-0.52267 2.658204,-0.73437 0.228886,-0.0486 0.457385,-0.10214 0.6875,-0.14453 1.391398,-0.25631 2.805711,-0.32602 4.216796,-0.23047 0.380608,0.0263 0.762552,0.0445 1.142578,0.0781 2.580613,0.22837 5.139075,0.67172 7.677735,1.17773 0.908634,0.19194 1.820456,0.3916 2.71875,0.63477 -0.01438,-0.18867 -0.0219,-0.37755 -0.01953,-0.56641 0.029,-0.46452 0.122898,-0.90169 0.386718,-1.29492 0.12667,-0.15407 0.235815,-0.33438 0.390625,-0.46289 0.29345,-0.24362 0.670868,-0.32054 1.023438,-0.43946 1.80555,-0.34193 3.642165,-0.45456 5.478515,-0.44335 l 3.021485,2.19531 c -1.82527,-0.0595 -3.652016,0.0423 -5.447266,0.38086 -0.30568,0.097 -0.643312,0.15639 -0.914062,0.34179 -0.13014,0.0891 -0.225066,0.24114 -0.322266,0.36133 -0.2273,0.32879 -0.265484,0.69426 -0.271484,1.08203 -0.0038,0.097 0.0045,0.19282 0.01367,0.28907 0.671011,0.37778 1.343286,0.75439 2.011718,1.13671 0.47483,0.27159 0.841571,0.67105 1.150391,1.11719 0.29053,0.41713 0.606885,0.81178 0.421875,1.33985 -0.062,0.10481 -0.103009,0.24003 -0.230469,0.28711 -0.15414,0.0569 -0.443532,-0.15113 -0.576172,-0.19141 -1.81223,-0.57291 -3.515423,-1.47689 -5.027343,-2.64844 -0.259445,-0.252 -0.480795,-0.53429 -0.65625,-0.8457 -0.0762,-0.0171 -0.152431,-0.0356 -0.228516,-0.0527 -2.528,-0.5467 -5.085885,-0.98954 -7.664063,-1.21679 -0.372855,-0.0329 -0.745756,-0.052 -1.11914,-0.0781 -1.144738,-0.0674 -2.290934,-0.0629 -3.429688,0.0801 -0.632885,0.0795 -0.764269,0.11693 -1.382812,0.23828 -1.208949,0.27776 -2.411394,0.59688 -3.574219,1.03125 -0.403666,0.17111 -0.756483,0.42085 -1.097656,0.6875 0.216916,0.20947 0.428314,0.42302 0.628906,0.64844 0.496451,0.57406 1.087925,1.19236 1.078125,2.00195 -0.108947,0.4531 -0.239317,0.51111 -0.683594,0.50781 -0.361576,0.0171 -0.730677,0.066 -1.085937,-0.0273 -0.171335,-0.059 -0.346793,-0.10744 -0.517578,-0.16797 -1.300215,-0.46084 -3.64568,-2.0382 -3.875,-2.17578 -0.0941,-0.0564 -0.171405,-0.13914 -0.240235,-0.22461 -0.05955,-0.0739 -0.09386,-0.16543 -0.140625,-0.24805 -0.09525,-0.40127 -0.091,-0.73839 0.150391,-1.08984 0.06692,-0.0766 0.165664,-0.1945 0.246094,-0.25586 0.04108,-0.0313 0.09098,-0.0487 0.134765,-0.0762 0.177454,-0.11122 0.323424,-0.26131 0.490235,-0.38672 0.05192,-0.0403 0.101664,-0.083 0.152344,-0.125 -0.04384,-0.0377 -0.09033,-0.0724 -0.134766,-0.10937 -0.428908,-0.1408 -0.868367,-0.24704 -1.316406,-0.31055 -0.602483,-0.0854 -0.980383,-0.0871 -1.595704,-0.11524 -1.32566,-0.0404 -2.653603,0.003 -3.964843,0.2129 -0.73454,0.11778 -1.081856,0.21539 -1.785157,0.38476 -1.08486,0.23378 -2.066942,0.73124 -3.0019517,1.3125 -0.5126497,0.32122 -0.9954824,0.6842 -1.4550782,1.07617 0.8131858,0.46863 1.5680799,0.99882 2.0644519,1.28516 0.07337,0.0423 0.292763,0.22434 0.351563,0.28711 0.04725,0.0505 0.0829,0.10924 0.125,0.16406 0.0298,0.06 0.06784,0.11639 0.08984,0.17969 0.116,0.33353 0.02514,0.68248 -0.113282,0.99219 -0.04063,0.0719 -0.07519,0.14814 -0.121093,0.21679 -0.11793,0.17642 -0.459369,0.55116 -0.65625,0.62891 -0.04221,0.0167 -0.09132,0.002 -0.136718,0.002 -0.2599602,0.005 -0.518124,0.0197 -0.777344,0.0371 z m 101.2753801,0 c -0.25922,-0.0174 -0.51933,-0.0318 -0.77929,-0.0371 -0.0454,-3.6e-4 -0.0926,0.0148 -0.13477,-0.002 -0.19688,-0.0777 -0.53832,-0.4525 -0.65625,-0.62891 -0.0459,-0.0687 -0.0824,-0.14489 -0.12305,-0.2168 -0.13842,-0.3097 -0.22928,-0.65865 -0.11328,-0.99218 0.022,-0.0633 0.0601,-0.11966 0.0898,-0.17969 0.0421,-0.0548 0.0797,-0.11361 0.12695,-0.16406 0.0588,-0.0628 0.27624,-0.24479 0.34961,-0.28711 0.49626,-0.28628 1.25148,-0.81661 2.06445,-1.28516 -0.45925,-0.3916 -0.94285,-0.75522 -1.45508,-1.07617 -0.93501,-0.58126 -1.91709,-1.07873 -3.00195,-1.3125 -0.7033,-0.16937 -1.05061,-0.26698 -1.78515,-0.38477 -1.31124,-0.21026 -2.63919,-0.2533 -3.96485,-0.21289 -0.61532,0.0282 -0.99126,0.0298 -1.593743,0.11524 -0.448039,0.0635 -0.887498,0.16975 -1.316406,0.31054 -0.04444,0.037 -0.09093,0.0717 -0.134766,0.10938 0.05059,0.0419 0.100517,0.0847 0.152344,0.125 0.166811,0.12541 0.31278,0.2755 0.490235,0.38672 0.04378,0.0274 0.09369,0.0448 0.134765,0.0762 0.08043,0.0614 0.177225,0.17923 0.244141,0.25586 0.241389,0.35145 0.245637,0.68857 0.15039,1.08984 -0.04677,0.0826 -0.08107,0.1741 -0.140625,0.24805 -0.06883,0.0855 -0.146132,0.16815 -0.240234,0.22461 -0.22932,0.13758 -2.574785,1.71494 -3.875,2.17578 -0.170785,0.0605 -0.34429,0.10901 -0.515625,0.16797 -0.35526,0.0934 -0.724361,0.0444 -1.085938,0.0273 -0.444276,0.003 -0.576599,-0.0547 -0.685546,-0.50781 -0.0098,-0.8096 0.581674,-1.42789 1.078125,-2.00195 0.200592,-0.22542 0.413943,-0.43897 0.630859,-0.64844 -0.341258,-0.26674 -0.69388,-0.51635 -1.097656,-0.6875 -1.162825,-0.43437 -2.36527,-0.75349 -3.574219,-1.03125 -0.618543,-0.12135 -0.749928,-0.15883 -1.382813,-0.23828 -1.138754,-0.14296 -2.284949,-0.14752 -3.429687,-0.0801 -0.373384,0.0262 -0.748239,0.0453 -1.121094,0.0781 -2.578182,0.22725 -5.134118,0.67009 -7.662109,1.21679 -0.07596,0.0171 -0.152439,0.0356 -0.228516,0.0527 -0.175484,0.31155 -0.398651,0.5936 -0.658203,0.8457 -1.511916,1.17155 -3.213159,2.07553 -5.025391,2.64844 -0.132641,0.0403 -0.42203,0.24833 -0.576171,0.1914 -0.12746,-0.0471 -0.170427,-0.1823 -0.232422,-0.28711 -0.185008,-0.52807 0.131344,-0.92271 0.421875,-1.33984 0.308821,-0.44614 0.677515,-0.8456 1.152344,-1.11719 0.668216,-0.3822 1.338967,-0.75906 2.009765,-1.13672 0.0091,-0.0962 0.01943,-0.192 0.01563,-0.28906 -0.0058,-0.38777 -0.04612,-0.75324 -0.273437,-1.08203 -0.0972,-0.12019 -0.190175,-0.27221 -0.320313,-0.36133 -0.270745,-0.1854 -0.608382,-0.24478 -0.914062,-0.34179 -1.795252,-0.33852 -3.621993,-0.44032 -5.447266,-0.38086 l 3.021484,-2.19532 c 1.836348,-0.0112 3.672966,0.10143 5.478516,0.44336 0.352569,0.11892 0.729986,0.19584 1.023438,0.43946 0.154804,0.12851 0.261998,0.30882 0.388671,0.46289 0.26382,0.39323 0.359666,0.8304 0.388672,1.29492 0.0023,0.18889 -0.0071,0.3777 -0.02148,0.5664 0.898881,-0.24339 1.809505,-0.44269 2.71875,-0.63476 2.538665,-0.50601 5.099074,-0.94936 7.679687,-1.17774 0.380027,-0.0336 0.760017,-0.0519 1.140625,-0.0781 1.411085,-0.0956 2.827352,-0.0258 4.21875,0.23047 0.230114,0.0424 0.456661,0.096 0.685547,0.14453 0.895599,0.21171 1.780884,0.4644 2.660156,0.73438 0.163461,0.0502 0.330855,0.0879 0.492188,0.14453 0.161155,0.0566 0.316537,0.13061 0.474609,0.19531 0.343542,0.17514 0.667875,0.3881 0.980469,0.61524 0.874612,-0.50347 1.771189,-0.97322 2.646487,-1.47461 0.56376,-0.23777 1.15446,-0.43897 1.7578,-0.55078 0.76028,-0.1409 1.53691,-0.14494 2.30665,-0.16211 1.33487,-0.0279 2.66839,0.0464 3.98437,0.27734 0.7226,0.12681 1.12695,0.23454 1.82422,0.40235 1.12883,0.23277 2.13266,0.77871 3.0918,1.39648 0.51906,0.34256 1.032,0.70728 1.50781,1.10937 0.0436,0.0368 0.44931,0.41256 0.50391,0.4629 0.41769,0.46817 0.83731,0.9363 1.16601,1.47265 0.1213,0.23297 0.31156,0.4998 0.29883,0.7793 -0.004,0.0775 -0.0204,0.15361 -0.0312,0.23047 -1.07834,1.45399 -2.93785,1.97951 -4.58789,2.47656 -0.10397,0.032 -0.20767,0.0686 -0.3125,0.0977 -0.10011,0.0278 -0.20274,0.046 -0.30274,0.0742 -0.2537,0.0715 -0.48592,0.16309 -0.75,0.1875 z M 7.3730656,117.11844 c 0.032896,0.006 -0.2368131,-0.13924 -0.640625,-0.36132 -0.00263,0.0224 -0.00816,0.0434 -0.00781,0.0664 0,0.0272 -0.015587,0.0683 0.00781,0.082 0.03908,0.0229 0.091519,9.6e-4 0.1367187,0.002 0.31265,0.13456 0.4779548,0.2066 0.5039063,0.21094 z m 105.2538944,0 c 0.026,-0.004 0.19321,-0.0764 0.50586,-0.21093 0.0452,-0.001 0.0957,0.0209 0.13477,-0.002 0.0234,-0.0138 0.008,-0.0549 0.008,-0.082 3.5e-4,-0.023 -0.005,-0.044 -0.008,-0.0664 -0.40381,0.22208 -0.67352,0.36683 -0.64063,0.36133 z M 10.777362,116.4954 c 0.09507,0.0448 -0.114901,-0.0717 -0.408203,-0.22266 0.118102,0.0638 0.373462,0.20629 0.408203,0.22266 z m 98.445308,0 c 0.0339,-0.016 0.28541,-0.15585 0.39844,-0.2168 -0.28735,0.14824 -0.4924,0.26105 -0.39844,0.2168 z M 7.3164249,115.99735 c 0.1600323,-0.0555 0.27595,-0.20513 0.3730469,-0.35547 l -0.1894531,-0.13867 c -0.1308933,0.15653 -0.2561646,0.31735 -0.3730469,0.48437 0.061756,-0.007 0.1303411,0.0302 0.1894531,0.01 z m 105.3671851,0 c 0.059,0.0204 0.1278,-0.0168 0.18945,-0.01 -0.11687,-0.167 -0.24217,-0.32787 -0.37305,-0.48438 l -0.18945,0.13868 c 0.0971,0.15033 0.21301,0.29998 0.37305,0.35546 z m -88.193358,-0.21289 c -0.144431,-0.086 -0.290619,-0.16875 -0.435547,-0.25391 0.05422,0.0409 0.107572,0.0847 0.166016,0.11914 0.0869,0.0513 0.356221,0.18639 0.269531,0.13477 z m 71.019532,0 c -0.08669,0.0516 0.184585,-0.0835 0.271484,-0.13477 0.06124,-0.0361 0.116785,-0.0825 0.173828,-0.125 -0.148211,0.0871 -0.297619,0.17183 -0.445312,0.25977 z m -36.300782,-0.23633 0.638672,-0.4375 0.638672,0.4375 0.333984,-0.69726 0.773438,0.0605 -0.0625,-0.77344 0.699219,-0.33398 -0.4375,-0.63867 0.4375,-0.63867 -0.699219,-0.33399 0.0625,-0.77344 -0.773438,0.0606 -0.333984,-0.69726 -0.638672,0.4375 -0.638672,-0.4375 -0.333984,0.69726 -0.773438,-0.0606 0.06055,0.77344 -0.699219,0.33399 0.439454,0.63867 -0.439454,0.63867 0.699219,0.33398 -0.06055,0.77344 0.773438,-0.0605 z m -10.691406,-0.13281 c -0.03159,-0.0186 -0.218971,-0.12665 -0.511719,-0.29492 0.0295,0.0179 0.05701,0.0379 0.08594,0.0566 0.332032,0.18641 0.457367,0.25688 0.425781,0.23828 z m 22.966797,0 c -0.03159,0.0186 0.0918,-0.0519 0.423828,-0.23828 0.02919,-0.0189 0.05809,-0.0386 0.08789,-0.0566 -0.292748,0.16827 -0.480133,0.27632 -0.511718,0.29492 z" />
  </g>
</svg>
