<?xml version="1.0" encoding="UTF-8" standalone="no"?>
<!-- Created with Inkscape (http://www.inkscape.org/) -->

<svg
   width="120"
   height="120"
   viewBox="0 0 120 120"
   version="1.1"
   id="svg1"
   inkscape:version="1.4 (86a8ad7, 2024-10-11)"
   sodipodi:docname="border_23.svg"
   xmlns:inkscape="http://www.inkscape.org/namespaces/inkscape"
   xmlns:sodipodi="http://sodipodi.sourceforge.net/DTD/sodipodi-0.dtd"
   xmlns="http://www.w3.org/2000/svg"
   xmlns:svg="http://www.w3.org/2000/svg">
  <sodipodi:namedview
     id="namedview1"
     pagecolor="#ffffff"
     bordercolor="#000000"
     borderopacity="0.25"
     inkscape:showpageshadow="2"
     inkscape:pageopacity="0.0"
     inkscape:pagecheckerboard="0"
     inkscape:deskcolor="#d1d1d1"
     inkscape:document-units="px"
     inkscape:zoom="4.331029"
     inkscape:cx="61.070937"
     inkscape:cy="59.916477"
     inkscape:window-width="1920"
     inkscape:window-height="974"
     inkscape:window-x="-11"
     inkscape:window-y="-11"
     inkscape:window-maximized="1"
     inkscape:current-layer="layer1" />
  <defs
     id="defs1" />
  <g
     inkscape:label="Layer 1"
     inkscape:groupmode="layer"
     id="layer1">
    <path
       id="path1"
       style="fill:#0000ff"
       d="M 18.097658,4.9394579 V 7.7968798 H 16.73633 c -1.06202,0 -2.075575,0.1933456 -3.019531,0.5312501 C 12.506321,7.2176959 11.226169,6.3300724 9.9941431,5.7480517 8.4429285,5.0152435 6.972284,4.7459888 5.8281275,5.0839892 l -0.052734,0.015625 -0.017578,0.050781 C 5.3597148,6.2749179 5.5518878,7.7579828 6.2011744,9.3457079 6.7114691,10.59355 7.514793,11.90452 8.5429713,13.16016 8.0658623,14.255134 7.7968775,15.463064 7.7968775,16.736332 v 1.363281 h -2.859375 v 41.900391 41.900386 h 2.859375 v 1.36328 c 0,1.27327 0.2689848,2.4812 0.7460938,3.57617 -1.0281783,1.25565 -1.8315022,2.56661 -2.3417969,3.81446 -0.6492866,1.58772 -0.8414591,3.07079 -0.4433594,4.19531 l 0.017578,0.0508 0.052734,0.0156 c 1.1441577,0.33799 2.6148011,0.0687 4.1660156,-0.66407 1.2320264,-0.58202 2.5121784,-1.46964 3.7226564,-2.58007 0.943956,0.3379 1.957511,0.53124 3.01953,0.53124 h 1.361328 v 2.85743 h 41.902345 41.902338 v -2.85743 h 1.36133 c 1.06202,0 2.07558,-0.19335 3.01953,-0.53124 1.21049,1.11042 2.49064,1.99805 3.72267,2.58007 1.5512,0.73281 3.02186,1.00206 4.16602,0.66407 l 0.0527,-0.0156 0.0176,-0.0508 c 0.3981,-1.12452 0.20592,-2.60759 -0.44336,-4.19531 -0.5103,-1.24785 -1.31362,-2.55881 -2.3418,-3.81446 0.4771,-1.09497 0.74608,-2.3029 0.74608,-3.57617 v -1.36328 h 2.85939 V 60.000004 18.099613 h -2.85939 v -1.363281 c 0,-1.273268 -0.26898,-2.481198 -0.74608,-3.576172 1.02818,-1.25564 1.8315,-2.56661 2.3418,-3.8144521 0.64928,-1.5877251 0.84146,-3.0707904 0.44336,-4.1953125 l -0.0176,-0.050781 -0.0527,-0.015625 c -1.14416,-0.3380001 -2.61482,-0.068746 -4.16602,0.6640625 -1.23203,0.5820207 -2.51218,1.4696443 -3.72267,2.5800782 C 105.33925,7.9902256 104.32569,7.79688 103.26367,7.79688 h -1.36133 V 4.9394579 H 60.000002 Z m 0.21875,0.21875 H 60.000002 101.68359 V 7.7968798 H 18.316408 Z M 6.8085963,5.1699267 C 7.7172008,5.1482687 8.7811657,5.4156613 9.9023463,5.9453173 11.084229,6.5036496 12.32116,7.3478 13.494143,8.410161 11.349191,9.2432315 9.6138469,10.875151 8.6445337,12.94727 7.6596284,11.729693 6.892537,10.462359 6.4023463,9.2636768 5.7766705,7.7336878 5.6100494,6.3302895 5.9550806,5.2890673 6.2196227,5.2166926 6.5057281,5.177146 6.8085963,5.1699267 Z m 106.3828137,0 c 0.30286,0.00722 0.58897,0.046766 0.85351,0.1191406 0.34503,1.041222 0.17841,2.4446205 -0.44726,3.9746095 -0.4902,1.1986822 -1.25729,2.4660162 -2.24218,3.6835932 -0.96932,-2.072119 -2.70467,-3.7040383 -4.84961,-4.537109 1.17297,-1.0623609 2.4099,-1.9065114 3.5918,-2.4648437 1.12117,-0.529656 2.18514,-0.7970486 3.09374,-0.7753906 z M 16.73633,8.3691454 h 1.361328 V 14.914066 C 17.527224,13.048287 16.340693,11.01845 14.644533,9.2265674 14.49102,9.0647064 14.328795,8.9236932 14.171877,8.769536 14.979407,8.5119307 15.840492,8.3691454 16.73633,8.3691454 Z m 1.580078,0 h 83.367182 v 7.0761706 l 0.21485,0.02539 c 0.47188,-1.93958 1.78863,-4.16808 3.61329,-6.0957021 0.17606,-0.185642 0.36047,-0.3501236 0.54101,-0.5253906 2.20422,0.7737338 3.97984,2.4332297 4.89649,4.5644517 -0.17681,0.203959 -0.34217,0.411867 -0.53125,0.611329 -2.02264,2.128793 -4.43463,3.643576 -6.46485,4.078125 l 0.0234,0.214843 h 7.65431 v 83.363278 h -7.65431 l -0.0234,0.21484 c 2.0302,0.43455 4.44221,1.94933 6.46485,4.07813 0.18908,0.19946 0.35444,0.40737 0.53125,0.61133 -0.91665,2.13122 -2.69227,3.79072 -4.89649,4.56445 -0.18054,-0.17527 -0.36495,-0.33975 -0.54101,-0.52539 -1.82466,-1.92762 -3.14141,-4.15612 -3.61329,-6.0957 l -0.21485,0.0254 v 7.07617 H 18.316408 v -7.07617 l -0.214844,-0.0254 c -0.471879,1.93958 -1.788633,4.16808 -3.613281,6.0957 -0.176068,0.18564 -0.360476,0.35012 -0.541015,0.52539 -2.204218,-0.77373 -3.9798454,-2.43323 -4.8964843,-4.56445 0.176802,-0.20396 0.342173,-0.41187 0.53125,-0.61133 2.0226353,-2.1288 4.4346283,-3.64358 6.4648433,-4.07813 l -0.02344,-0.21484 H 8.3691431 V 18.318363 H 16.02344 l 0.02344,-0.214843 c -2.030216,-0.434548 -4.442207,-1.949331 -6.4648433,-4.078125 -0.1890769,-0.199462 -0.354448,-0.40737 -0.53125,-0.611329 0.916639,-2.131223 2.6922663,-3.7907179 4.8964843,-4.5644517 0.180539,0.175267 0.364947,0.3397486 0.541015,0.5253906 1.824648,1.9276211 3.141402,4.1561211 3.613281,6.0957021 l 0.214844,-0.02539 z m 83.585932,0 h 1.36133 c 0.89585,0 1.75693,0.1427852 2.56445,0.4003906 -0.1569,0.1541572 -0.31914,0.2951704 -0.47265,0.4570314 -1.69616,1.7918836 -2.88269,3.8217216 -3.45313,5.6874986 z M 8.96094,13.640629 c 0.1558701,0.177515 0.2998274,0.359123 0.4648437,0.533203 1.8928903,1.992239 4.0960733,3.361964 6.0781243,3.925781 H 8.3691431 v -1.363281 c 0,-1.095873 0.2130717,-2.138746 0.5917969,-3.095703 z m 102.07813,0 c 0.37873,0.956957 0.5918,1.99983 0.5918,3.095703 v 1.363281 h -7.13477 c 1.98205,-0.563818 4.18524,-1.933543 6.07813,-3.925781 0.16501,-0.17408 0.30897,-0.355688 0.46484,-0.533203 z M 5.1562525,18.318363 h 2.640625 V 101.68164 H 5.1562525 V 60.000004 Z m 107.0468775,0 h 2.64063 v 41.681641 41.681636 h -2.64063 z M 8.3691431,101.90039 h 7.1347649 c -1.982052,0.56382 -4.185235,1.93354 -6.0781243,3.92578 -0.1650163,0.17408 -0.3089736,0.35568 -0.4648437,0.53321 -0.3787252,-0.95696 -0.5917969,-1.99983 -0.5917969,-3.09571 z m 96.1269469,0 h 7.13478 v 1.36328 c 0,1.09588 -0.21308,2.13875 -0.59181,3.09571 -0.15586,-0.17753 -0.29983,-0.35913 -0.46483,-0.53321 -1.89289,-1.99224 -4.09607,-3.36196 -6.07814,-3.92578 z m -86.398432,3.18555 v 6.54492 H 16.73633 c -0.895838,0 -1.756923,-0.14279 -2.564453,-0.40039 0.156918,-0.15416 0.319143,-0.29517 0.472656,-0.45703 1.69616,-1.79189 2.88269,-3.82172 3.453125,-5.6875 z m 83.804682,0 c 0.57045,1.86578 1.75697,3.89561 3.45314,5.6875 0.1535,0.16186 0.31574,0.30287 0.47265,0.45703 -0.80752,0.2576 -1.66861,0.40039 -2.56445,0.40039 h -1.36133 z m -93.2578063,1.96679 c 0.9693132,2.07212 2.7046573,3.70404 4.8496093,4.53711 -1.172983,1.06237 -2.409914,1.90651 -3.5917967,2.46485 -1.4949074,0.70621 -2.8890963,0.94574 -3.9472657,0.65625 -0.3450312,-1.04122 -0.17841,-2.44462 0.4472657,-3.97461 0.4901908,-1.19869 1.2572822,-2.46602 2.2421874,-3.6836 z m 102.7109363,0 c 0.9849,1.21758 1.75199,2.48491 2.24219,3.6836 0.62567,1.52999 0.79229,2.93339 0.44726,3.97461 -1.05817,0.28949 -2.45236,0.05 -3.94726,-0.65625 -1.18189,-0.55834 -2.41882,-1.40248 -3.5918,-2.46485 2.14495,-0.83307 3.88029,-2.46499 4.84961,-4.53711 z m -93.039062,5.15039 h 83.367182 v 2.63868 H 60.000002 18.316408 Z" />
    <path
       id="rect3"
       style="fill:none;stroke:#0000ff;stroke-width:0.565739"
       d="M 13.737026,13.737026 H 106.26297 V 106.26297 H 13.737026 Z" />
  </g>
</svg>
