<?xml version="1.0" encoding="UTF-8" standalone="no"?>
<!-- Created with Inkscape (http://www.inkscape.org/) -->

<svg
   width="120"
   height="120"
   viewBox="0 0 120 120"
   version="1.1"
   id="svg1"
   inkscape:version="1.4 (86a8ad7, 2024-10-11)"
   sodipodi:docname="border_19.svg"
   xmlns:inkscape="http://www.inkscape.org/namespaces/inkscape"
   xmlns:sodipodi="http://sodipodi.sourceforge.net/DTD/sodipodi-0.dtd"
   xmlns="http://www.w3.org/2000/svg"
   xmlns:svg="http://www.w3.org/2000/svg">
  <sodipodi:namedview
     id="namedview1"
     pagecolor="#ffffff"
     bordercolor="#000000"
     borderopacity="0.25"
     inkscape:showpageshadow="2"
     inkscape:pageopacity="0.0"
     inkscape:pagecheckerboard="0"
     inkscape:deskcolor="#d1d1d1"
     inkscape:document-units="px"
     inkscape:zoom="9.725"
     inkscape:cx="60"
     inkscape:cy="60"
     inkscape:window-width="3440"
     inkscape:window-height="1369"
     inkscape:window-x="-8"
     inkscape:window-y="-8"
     inkscape:window-maximized="1"
     inkscape:current-layer="layer1" />
  <defs
     id="defs1" />
  <g
     inkscape:label="Layer 1"
     inkscape:groupmode="layer"
     id="layer1">
    <path
       id="rect2"
       style="fill:none;stroke:#0000ff;stroke-width:0.926587"
       d="M 4.9259178,0.45175 C 2.2895901,0.45175 0.16741,2.5718291 0.16741,5.208167 v 4.2839119 c 0,2.6363351 2.1221801,4.7585081 4.7585078,4.7585081 h 2.143001 V 60 105.74942 h -2.143001 c -2.6363277,0 -4.7585078,2.12216 -4.7585078,4.75851 v 4.2839 c 0,2.63635 2.1221801,4.75642 4.7585078,4.75642 h 4.2839114 c 2.6363488,0 4.7564168,-2.12007 4.7564168,-4.75642 v -1.85656 h 46.033755 46.033749 v 1.85656 c 0,2.63635 2.12216,4.75642 4.7585,4.75642 h 4.28392 c 2.63634,0 4.75642,-2.12007 4.75642,-4.75642 v -4.2839 c 0,-2.63635 -2.12008,-4.75851 -4.75642,-4.75851 h -2.14509 V 60 14.250587 h 2.14509 c 2.63634,0 4.75642,-2.122173 4.75642,-4.7585081 V 5.208167 c 0,-2.6363379 -2.12008,-4.756417 -4.75642,-4.756417 h -4.28392 c -2.63634,0 -4.7585,2.1200791 -4.7585,4.756417 V 7.0647372 H 60.000001 13.966246 V 5.208167 c 0,-2.6363379 -2.120068,-4.756417 -4.7564168,-4.756417 z" />
  </g>
</svg>
