<?xml version="1.0" encoding="UTF-8" standalone="no"?>
<!-- Created with Inkscape (http://www.inkscape.org/) -->

<svg
   width="120"
   height="120"
   viewBox="0 0 120 120"
   version="1.1"
   id="svg1"
   inkscape:version="1.4 (86a8ad7, 2024-10-11)"
   sodipodi:docname="border_24.svg"
   xmlns:inkscape="http://www.inkscape.org/namespaces/inkscape"
   xmlns:sodipodi="http://sodipodi.sourceforge.net/DTD/sodipodi-0.dtd"
   xmlns="http://www.w3.org/2000/svg"
   xmlns:svg="http://www.w3.org/2000/svg">
  <sodipodi:namedview
     id="namedview1"
     pagecolor="#ffffff"
     bordercolor="#000000"
     borderopacity="0.25"
     inkscape:showpageshadow="2"
     inkscape:pageopacity="0.0"
     inkscape:pagecheckerboard="0"
     inkscape:deskcolor="#d1d1d1"
     inkscape:document-units="px"
     inkscape:zoom="9.725"
     inkscape:cx="60"
     inkscape:cy="60"
     inkscape:window-width="3440"
     inkscape:window-height="1369"
     inkscape:window-x="-8"
     inkscape:window-y="-8"
     inkscape:window-maximized="1"
     inkscape:current-layer="layer1" />
  <defs
     id="defs1" />
  <g
     inkscape:label="Layer 1"
     inkscape:groupmode="layer"
     id="layer1">
    <path
       id="rect1"
       d="M 11.921875 5.0800781 L 11.861328 5.265625 C 11.395418 6.6967684 10.613083 7.9727919 9.6132812 9.0410156 L 9.5058594 9.0410156 L 9.5058594 6.4023438 L 6.4023438 6.4023438 L 6.4023438 9.5039062 L 9.0429688 9.5039062 L 9.0429688 9.6035156 C 7.9691179 10.582563 6.6935676 11.344667 5.2675781 11.792969 L 5.0800781 11.851562 L 5.0800781 60 L 5.0800781 108.14844 L 5.2675781 108.20703 C 6.6935687 108.65533 7.9691177 109.41744 9.0429688 110.39648 L 9.0429688 110.49609 L 6.4023438 110.49609 L 6.4023438 113.59766 L 9.5058594 113.59766 L 9.5058594 110.95898 L 9.6132812 110.95898 C 10.613083 112.02721 11.39542 113.30322 11.861328 114.73438 L 11.921875 114.91992 L 60 114.91992 L 108.07812 114.91992 L 108.13867 114.73438 C 108.60463 113.30308 109.38678 112.02727 110.38672 110.95898 L 110.49414 110.95898 L 110.49414 113.59766 L 113.59766 113.59766 L 113.59766 110.49609 L 110.95703 110.49609 L 110.95703 110.39648 C 112.03088 109.41744 113.30643 108.65533 114.73242 108.20703 L 114.91992 108.14844 L 114.91992 60 L 114.91992 11.851562 L 114.73242 11.792969 C 113.30643 11.344667 112.03088 10.582563 110.95703 9.6035156 L 110.95703 9.5039062 L 113.59766 9.5039062 L 113.59766 6.4023438 L 110.49414 6.4023438 L 110.49414 9.0410156 L 110.38672 9.0410156 C 109.38678 7.972731 108.60463 6.6969064 108.13867 5.265625 L 108.07812 5.0800781 L 60 5.0800781 L 11.921875 5.0800781 z M 12.283203 5.6132812 L 60 5.6132812 L 107.7168 5.6132812 C 108.1596 6.8896171 108.84212 8.0417398 109.69727 9.0410156 L 60 9.0410156 L 10.302734 9.0410156 C 11.157878 8.0417398 11.840397 6.889617 12.283203 5.6132812 z M 6.8652344 6.8632812 L 9.0429688 6.8632812 L 9.0429688 9.0410156 L 6.8652344 9.0410156 L 6.8652344 6.8632812 z M 110.95703 6.8632812 L 113.13477 6.8632812 L 113.13477 9.0410156 L 110.95703 9.0410156 L 110.95703 6.8632812 z M 9.8867188 9.5039062 L 60 9.5039062 L 110.11328 9.5039062 C 110.23699 9.6324083 110.36413 9.7567901 110.49414 9.8789062 L 110.49414 60 L 110.49414 110.12109 C 110.36413 110.24321 110.23699 110.36759 110.11328 110.49609 L 60 110.49609 L 9.8867188 110.49609 C 9.7630137 110.36759 9.6358732 110.24321 9.5058594 110.12109 L 9.5058594 60 L 9.5058594 9.8789062 C 9.6358732 9.7567901 9.7630138 9.6324083 9.8867188 9.5039062 z M 9.0429688 10.287109 L 9.0429688 60 L 9.0429688 109.71289 C 8.0396924 108.87462 6.8863407 108.20866 5.6132812 107.78125 L 5.6132812 60 L 5.6132812 12.21875 C 6.8863397 11.791346 8.0396927 11.12538 9.0429688 10.287109 z M 110.95703 10.287109 C 111.96031 11.12538 113.11366 11.791346 114.38672 12.21875 L 114.38672 60 L 114.38672 107.78125 C 113.11366 108.20866 111.96031 108.87462 110.95703 109.71289 L 110.95703 60 L 110.95703 10.287109 z M 6.8652344 110.95898 L 9.0429688 110.95898 L 9.0429688 113.13672 L 6.8652344 113.13672 L 6.8652344 110.95898 z M 10.302734 110.95898 L 60 110.95898 L 109.69727 110.95898 C 108.84212 111.95826 108.1596 113.11038 107.7168 114.38672 L 60 114.38672 L 12.283203 114.38672 C 11.840398 113.11038 11.157878 111.95826 10.302734 110.95898 z M 110.95703 110.95898 L 113.13477 110.95898 L 113.13477 113.13672 L 110.95703 113.13672 L 110.95703 110.95898 z "
       style="fill:#0000ff" />
  </g>
</svg>
