<?xml version="1.0" encoding="UTF-8" standalone="no"?>
<!-- Created with Inkscape (http://www.inkscape.org/) -->

<svg
   width="120"
   height="120"
   viewBox="0 0 120 120"
   version="1.1"
   id="svg1"
   inkscape:version="1.4 (86a8ad7, 2024-10-11)"
   sodipodi:docname="border_20.svg"
   xmlns:inkscape="http://www.inkscape.org/namespaces/inkscape"
   xmlns:sodipodi="http://sodipodi.sourceforge.net/DTD/sodipodi-0.dtd"
   xmlns="http://www.w3.org/2000/svg"
   xmlns:svg="http://www.w3.org/2000/svg">
  <sodipodi:namedview
     id="namedview1"
     pagecolor="#ffffff"
     bordercolor="#000000"
     borderopacity="0.25"
     inkscape:showpageshadow="2"
     inkscape:pageopacity="0.0"
     inkscape:pagecheckerboard="0"
     inkscape:deskcolor="#d1d1d1"
     inkscape:document-units="px"
     inkscape:zoom="9.725"
     inkscape:cx="60"
     inkscape:cy="60"
     inkscape:window-width="3440"
     inkscape:window-height="1369"
     inkscape:window-x="-8"
     inkscape:window-y="-8"
     inkscape:window-maximized="1"
     inkscape:current-layer="layer1" />
  <defs
     id="defs1" />
  <g
     inkscape:label="Layer 1"
     inkscape:groupmode="layer"
     id="layer1">
    <path
       id="rect1"
       d="M 14.554688 2.4394531 L 14.673828 2.7539062 C 15.049474 3.744423 15.246078 4.7941894 15.253906 5.8535156 C 15.253861 6.2242106 15.223558 6.5865156 15.179688 6.9453125 L 11.517578 6.9453125 C 8.9897331 6.9453125 6.9453125 8.9897331 6.9453125 11.517578 L 6.9453125 14.748047 C 6.7403304 14.762117 6.5366957 14.779277 6.328125 14.779297 C 5.1018178 14.775397 3.8903368 14.518608 2.7675781 14.025391 L 2.4414062 13.882812 L 2.4414062 60 L 2.4414062 106.11719 L 2.7675781 105.97461 C 3.8903365 105.48139 5.1018156 105.22465 6.328125 105.2207 C 6.5362795 105.22072 6.740732 105.23795 6.9453125 105.25195 L 6.9453125 108.48242 C 6.9453125 111.01027 8.9897331 113.05469 11.517578 113.05469 L 15.179688 113.05469 C 15.223517 113.41368 15.253936 113.77754 15.253906 114.14844 C 15.245806 115.20711 15.049246 116.25618 14.673828 117.24609 L 14.554688 117.56055 L 60 117.56055 L 105.44531 117.56055 L 105.32617 117.24609 C 104.95053 116.25558 104.75392 115.20581 104.74609 114.14648 C 104.74614 113.77579 104.77651 113.41348 104.82031 113.05469 L 108.48242 113.05469 C 111.01027 113.05469 113.05469 111.01027 113.05469 108.48242 L 113.05469 105.25195 C 113.25967 105.23785 113.4633 105.2207 113.67188 105.2207 C 114.89817 105.2247 116.10966 105.48139 117.23242 105.97461 L 117.55859 106.11719 L 117.55859 60 L 117.55859 13.882812 L 117.23242 14.025391 C 116.10966 14.518609 114.89817 14.775351 113.67188 14.779297 C 113.4633 14.779276 113.25967 14.762117 113.05469 14.748047 L 113.05469 11.517578 C 113.05469 8.9897331 111.01027 6.9453125 108.48242 6.9453125 L 104.82031 6.9453125 C 104.77641 6.5865159 104.74609 6.2242103 104.74609 5.8535156 L 104.74609 5.8515625 C 104.75409 4.7928933 104.95076 3.7438203 105.32617 2.7539062 L 105.44531 2.4394531 L 60 2.4394531 L 14.554688 2.4394531 z M 15.167969 2.9042969 L 60 2.9042969 L 104.83203 2.9042969 C 104.5079 3.8562917 104.28869 4.842581 104.28125 5.8496094 L 104.28125 5.8515625 C 104.28121 6.222382 104.30976 6.5856638 104.35156 6.9453125 L 15.648438 6.9453125 C 15.690278 6.5856635 15.71879 6.2223823 15.71875 5.8515625 L 15.71875 5.8496094 C 15.71131 4.8425778 15.492104 3.8562916 15.167969 2.9042969 z M 11.517578 7.4492188 L 15.103516 7.4492188 C 14.923649 8.4444687 14.571605 9.3761622 14.091797 10.226562 L 10.226562 10.226562 L 10.226562 13.873047 C 9.368382 14.290691 8.4352431 14.577316 7.4492188 14.701172 L 7.4492188 11.517578 C 7.4492188 9.2602313 9.2602311 7.4492187 11.517578 7.4492188 z M 15.572266 7.4492188 L 104.42773 7.4492188 C 104.59759 8.4375422 104.92632 9.3697058 105.37891 10.226562 L 14.621094 10.226562 C 15.073678 9.3697054 15.402411 8.4375429 15.572266 7.4492188 z M 104.89648 7.4492188 L 108.48242 7.4492188 C 110.73977 7.4492188 112.55078 9.2602313 112.55078 11.517578 L 112.55078 14.701172 C 111.56473 14.577313 110.63163 14.290707 109.77344 13.873047 L 109.77344 10.226562 L 105.9082 10.226562 C 105.42839 9.3761625 105.07635 8.4444682 104.89648 7.4492188 z M 10.677734 10.677734 L 13.798828 10.677734 C 13.012048 11.894078 11.944699 12.899731 10.677734 13.611328 L 10.677734 10.677734 z M 14.345703 10.677734 L 105.6543 10.677734 C 106.53798 12.143612 107.80307 13.342708 109.32227 14.142578 L 109.32227 105.85742 C 107.80307 106.65729 106.53798 107.85639 105.6543 109.32227 L 14.345703 109.32227 C 13.462021 107.85639 12.196927 106.65729 10.677734 105.85742 L 10.677734 14.142578 C 12.196927 13.342709 13.462021 12.143612 14.345703 10.677734 z M 106.20117 10.677734 L 109.32227 10.677734 L 109.32227 13.611328 C 108.05556 12.899748 106.98783 11.893884 106.20117 10.677734 z M 10.226562 14.376953 L 10.226562 105.62305 C 9.3620269 105.2266 8.4313952 104.94748 7.4492188 104.83008 L 7.4492188 15.169922 C 8.4313947 15.05252 9.3620271 14.773399 10.226562 14.376953 z M 109.77344 14.376953 C 110.63797 14.7734 111.5686 15.05252 112.55078 15.169922 L 112.55078 104.83008 C 111.5686 104.94748 110.63797 105.2266 109.77344 105.62305 L 109.77344 14.376953 z M 2.90625 14.519531 C 3.9991806 14.953646 5.1501483 15.240349 6.328125 15.244141 C 6.5366452 15.24412 6.7401639 15.226311 6.9453125 15.212891 L 6.9453125 104.78711 C 6.7401638 104.77371 6.5366453 104.75586 6.328125 104.75586 C 5.1501482 104.75986 3.9991805 105.04635 2.90625 105.48047 L 2.90625 60 L 2.90625 14.519531 z M 117.09375 14.519531 L 117.09375 60 L 117.09375 105.48047 C 116.00082 105.04635 114.84985 104.75965 113.67188 104.75586 C 113.46335 104.75588 113.25984 104.77371 113.05469 104.78711 L 113.05469 15.212891 C 113.25984 15.226311 113.46334 15.244121 113.67188 15.244141 C 114.84985 15.240341 116.00082 14.953647 117.09375 14.519531 z M 7.4492188 105.29883 C 8.4354208 105.42256 9.3683503 105.70937 10.226562 106.12695 L 10.226562 109.77344 L 14.091797 109.77344 C 14.571547 110.6239 14.923651 111.55539 15.103516 112.55078 L 11.517578 112.55078 C 9.2602311 112.55078 7.4492188 110.73977 7.4492188 108.48242 L 7.4492188 105.29883 z M 112.55078 105.29883 L 112.55078 108.48242 C 112.55078 110.73977 110.73977 112.55078 108.48242 112.55078 L 104.89648 112.55078 C 105.07636 111.55548 105.42836 110.62387 105.9082 109.77344 L 109.77344 109.77344 L 109.77344 106.12695 C 110.63163 105.70929 111.56473 105.42269 112.55078 105.29883 z M 10.677734 106.38867 C 11.944718 107.10019 13.012138 108.10585 13.798828 109.32227 L 10.677734 109.32227 L 10.677734 106.38867 z M 109.32227 106.38867 L 109.32227 109.32227 L 106.20312 109.32227 C 106.98969 108.10681 108.0561 107.09995 109.32227 106.38867 z M 14.621094 109.77344 L 105.37891 109.77344 C 104.92632 110.63029 104.59759 111.56246 104.42773 112.55078 L 15.572266 112.55078 C 15.402412 111.56246 15.073678 110.6303 14.621094 109.77344 z M 15.648438 113.05469 L 104.35156 113.05469 C 104.30976 113.41434 104.28115 113.77762 104.28125 114.14844 L 104.28125 114.15039 C 104.28825 115.15742 104.5079 116.14371 104.83203 117.0957 L 60 117.0957 L 15.167969 117.0957 C 15.492105 116.14371 15.711309 115.15742 15.71875 114.15039 L 15.71875 114.14844 C 15.718786 113.77762 15.690278 113.41434 15.648438 113.05469 z "
       style="fill:#0000ff" />
  </g>
</svg>
