<?xml version="1.0" encoding="UTF-8" standalone="no"?>
<!-- Created with Inkscape (http://www.inkscape.org/) -->

<svg
   width="120"
   height="120"
   viewBox="0 0 120 120"
   version="1.1"
   id="svg1"
   inkscape:version="1.4 (86a8ad7, 2024-10-11)"
   sodipodi:docname="border_7.svg"
   xmlns:inkscape="http://www.inkscape.org/namespaces/inkscape"
   xmlns:sodipodi="http://sodipodi.sourceforge.net/DTD/sodipodi-0.dtd"
   xmlns="http://www.w3.org/2000/svg"
   xmlns:svg="http://www.w3.org/2000/svg">
  <sodipodi:namedview
     id="namedview1"
     pagecolor="#ffffff"
     bordercolor="#000000"
     borderopacity="0.25"
     inkscape:showpageshadow="2"
     inkscape:pageopacity="0.0"
     inkscape:pagecheckerboard="0"
     inkscape:deskcolor="#d1d1d1"
     inkscape:document-units="px"
     inkscape:zoom="3.0625"
     inkscape:cx="59.918367"
     inkscape:cy="59.918367"
     inkscape:window-width="1920"
     inkscape:window-height="974"
     inkscape:window-x="-11"
     inkscape:window-y="-11"
     inkscape:window-maximized="1"
     inkscape:current-layer="layer1" />
  <defs
     id="defs1" />
  <g
     inkscape:label="Layer 1"
     inkscape:groupmode="layer"
     id="layer1">
    <path
       id="rect1"
       style="fill:#0000ff"
       d="M 7.3144531 6.2226562 L 7.3632812 6.8203125 C 7.3643012 6.8328005 7.3662675 6.8449259 7.3671875 6.8574219 C 7.3658667 7.2627747 7.2920398 7.6479501 7.1855469 8.0195312 L 4.7539062 8.0195312 L 4.7539062 10.765625 C 4.3087225 10.952604 3.8301283 11.07765 3.3203125 11.103516 L 2.7949219 11.128906 L 2.7949219 60 L 2.7949219 108.87109 L 3.3203125 108.89648 C 3.8301277 108.92235 4.308723 109.04739 4.7539062 109.23438 L 4.7539062 111.98047 L 7.1855469 111.98047 C 7.2920403 112.35205 7.3658657 112.73723 7.3671875 113.14258 C 7.3662728 113.15508 7.3643113 113.16719 7.3632812 113.17969 L 7.3144531 113.77734 L 60 113.77734 L 112.68555 113.77734 L 112.63672 113.17969 C 112.63572 113.16749 112.63381 113.15478 112.63281 113.14258 C 112.63406 112.73722 112.70799 112.35206 112.81445 111.98047 L 115.24609 111.98047 L 115.24609 109.23438 C 115.69131 109.0474 116.16986 108.92234 116.67969 108.89648 L 117.20508 108.87109 L 117.20508 60 L 117.20508 11.128906 L 116.67969 11.103516 C 116.16987 11.077649 115.69128 10.952604 115.24609 10.765625 L 115.24609 8.0195312 L 112.81445 8.0195312 C 112.70796 7.6479503 112.63413 7.2627743 112.63281 6.8574219 C 112.63372 6.8452619 112.63572 6.8324645 112.63672 6.8203125 L 112.68555 6.2226562 L 60 6.2226562 L 7.3144531 6.2226562 z M 8.3789062 7.328125 L 60 7.328125 L 111.62109 7.328125 C 111.64345 7.5653832 111.69436 7.7928398 111.74609 8.0195312 L 8.2539062 8.0195312 C 8.3056442 7.7928396 8.3565514 7.5653834 8.3789062 7.328125 z M 5.8574219 9.1230469 L 6.7050781 9.1230469 C 6.4753824 9.4863562 6.1835907 9.8021632 5.8574219 10.080078 L 5.8574219 9.1230469 z M 7.8789062 9.1230469 L 112.12109 9.1230469 C 112.56296 10.049952 113.26829 10.813997 114.14258 11.345703 L 114.14258 108.6543 C 113.26826 109.18597 112.56292 109.95002 112.12109 110.87695 L 7.8789062 110.87695 C 7.4370769 109.95004 6.7317387 109.18597 5.8574219 108.6543 L 5.8574219 11.345703 C 6.7317065 10.813997 7.4370433 10.049952 7.8789062 9.1230469 z M 113.29492 9.1230469 L 114.14258 9.1230469 L 114.14258 10.080078 C 113.81641 9.8021632 113.52462 9.486356 113.29492 9.1230469 z M 4.7539062 11.869141 L 4.7539062 108.13086 C 4.4790626 108.04107 4.1943535 107.97138 3.9003906 107.92578 L 3.9003906 60 L 3.9003906 12.074219 C 4.1943356 12.028621 4.4790771 11.958936 4.7539062 11.869141 z M 115.24609 11.869141 C 115.52092 11.958936 115.80567 12.028621 116.09961 12.074219 L 116.09961 60 L 116.09961 107.92578 C 115.80564 107.97138 115.52094 108.04107 115.24609 108.13086 L 115.24609 11.869141 z M 5.8574219 109.91992 C 6.1835905 110.19784 6.4753823 110.51364 6.7050781 110.87695 L 5.8574219 110.87695 L 5.8574219 109.91992 z M 114.14258 109.91992 L 114.14258 110.87695 L 113.29492 110.87695 C 113.52462 110.51364 113.81639 110.19784 114.14258 109.91992 z M 8.2539062 111.98047 L 111.74609 111.98047 C 111.69437 112.20718 111.64343 112.43459 111.62109 112.67188 L 60 112.67188 L 8.3789062 112.67188 C 8.3565695 112.4346 8.3056302 112.20717 8.2539062 111.98047 z " />
  </g>
</svg>
