<?xml version="1.0" encoding="UTF-8" standalone="no"?>
<!-- Created with Inkscape (http://www.inkscape.org/) -->

<svg
   width="120"
   height="120"
   viewBox="0 0 120 120"
   version="1.1"
   id="svg1"
   inkscape:version="1.4 (86a8ad7, 2024-10-11)"
   sodipodi:docname="border_3.svg"
   xmlns:inkscape="http://www.inkscape.org/namespaces/inkscape"
   xmlns:sodipodi="http://sodipodi.sourceforge.net/DTD/sodipodi-0.dtd"
   xmlns="http://www.w3.org/2000/svg"
   xmlns:svg="http://www.w3.org/2000/svg">
  <sodipodi:namedview
     id="namedview1"
     pagecolor="#ffffff"
     bordercolor="#000000"
     borderopacity="0.25"
     inkscape:showpageshadow="2"
     inkscape:pageopacity="0.0"
     inkscape:pagecheckerboard="0"
     inkscape:deskcolor="#d1d1d1"
     inkscape:document-units="px"
     inkscape:zoom="6.8766134"
     inkscape:cx="59.985922"
     inkscape:cy="66.675262"
     inkscape:window-width="3440"
     inkscape:window-height="1369"
     inkscape:window-x="-8"
     inkscape:window-y="-8"
     inkscape:window-maximized="1"
     inkscape:current-layer="layer1" />
  <defs
     id="defs1" />
  <g
     inkscape:label="Layer 1"
     inkscape:groupmode="layer"
     id="layer1">
    <path
       id="path1"
       style="fill:#0000ff;stroke-width:0.13959"
       d="M 9.2363281 0.4609375 L 7.0507812 2.5800781 L 4.0078125 2.6269531 L 3.9863281 3.9863281 L 2.6289062 4.0078125 L 2.5820312 7.0507812 L 0.46289062 9.2363281 L 2.5820312 11.419922 L 2.6289062 14.462891 L 5.671875 14.509766 L 7.7109375 16.488281 L 7.7109375 7.7089844 L 16.488281 7.7089844 L 14.509766 5.6699219 L 14.462891 2.6269531 L 11.419922 2.5800781 L 9.2363281 0.4609375 z M 16.488281 7.7089844 L 30.992188 7.7089844 L 29.013672 5.6699219 L 28.966797 2.6269531 L 25.923828 2.5800781 L 23.740234 0.4609375 L 21.554688 2.5800781 L 18.511719 2.6269531 L 18.464844 5.6699219 L 16.488281 7.7089844 z M 30.992188 7.7089844 L 45.496094 7.7089844 L 43.517578 5.6699219 L 43.470703 2.6269531 L 40.427734 2.5800781 L 38.244141 0.4609375 L 36.058594 2.5800781 L 33.015625 2.6269531 L 32.96875 5.6699219 L 30.992188 7.7089844 z M 45.496094 7.7089844 L 60 7.7089844 L 58.021484 5.6699219 L 57.974609 2.6269531 L 54.931641 2.5800781 L 52.748047 0.4609375 L 50.5625 2.5800781 L 47.519531 2.6269531 L 47.472656 5.6699219 L 45.496094 7.7089844 z M 60 7.7089844 L 74.503906 7.7089844 L 72.525391 5.6699219 L 72.478516 2.6269531 L 69.435547 2.5800781 L 67.251953 0.4609375 L 65.066406 2.5800781 L 62.023438 2.6269531 L 61.976562 5.6699219 L 60 7.7089844 z M 74.503906 7.7089844 L 89.007812 7.7089844 L 87.029297 5.6699219 L 86.982422 2.6269531 L 83.939453 2.5800781 L 81.755859 0.4609375 L 79.570312 2.5800781 L 76.527344 2.6269531 L 76.480469 5.6699219 L 74.503906 7.7089844 z M 89.007812 7.7089844 L 103.51172 7.7089844 L 101.5332 5.6699219 L 101.48633 2.6269531 L 98.443359 2.5800781 L 96.259766 0.4609375 L 94.074219 2.5800781 L 91.03125 2.6269531 L 90.984375 5.6699219 L 89.007812 7.7089844 z M 103.51172 7.7089844 L 112.29102 7.7089844 L 112.29102 16.488281 L 114.33008 14.509766 L 117.37305 14.462891 L 117.41992 11.419922 L 119.53906 9.2363281 L 117.41992 7.0507812 L 117.37305 4.0078125 L 116.01172 3.9863281 L 115.99023 2.6269531 L 112.94727 2.5800781 L 110.76367 0.4609375 L 108.57812 2.5800781 L 105.53516 2.6269531 L 105.48828 5.6699219 L 103.51172 7.7089844 z M 112.29102 16.488281 L 112.29102 30.992188 L 114.33008 29.013672 L 117.37305 28.966797 L 117.41992 25.923828 L 119.53906 23.740234 L 117.41992 21.554688 L 117.37305 18.511719 L 114.33008 18.464844 L 112.29102 16.488281 z M 112.29102 30.992188 L 112.29102 45.496094 L 114.33008 43.517578 L 117.37305 43.470703 L 117.41992 40.427734 L 119.53906 38.244141 L 117.41992 36.058594 L 117.37305 33.015625 L 114.33008 32.96875 L 112.29102 30.992188 z M 112.29102 45.496094 L 112.29102 60 L 114.33008 58.021484 L 117.37305 57.974609 L 117.41992 54.931641 L 119.53906 52.748047 L 117.41992 50.5625 L 117.37305 47.519531 L 114.33008 47.472656 L 112.29102 45.496094 z M 112.29102 60 L 112.29102 74.503906 L 114.33008 72.525391 L 117.37305 72.478516 L 117.41992 69.435547 L 119.53906 67.251953 L 117.41992 65.066406 L 117.37305 62.023438 L 114.33008 61.976562 L 112.29102 60 z M 112.29102 74.503906 L 112.29102 89.007812 L 114.33008 87.029297 L 117.37305 86.982422 L 117.41992 83.939453 L 119.53906 81.755859 L 117.41992 79.570312 L 117.37305 76.527344 L 114.33008 76.480469 L 112.29102 74.503906 z M 112.29102 89.007812 L 112.29102 103.51172 L 114.33008 101.5332 L 117.37305 101.48633 L 117.41992 98.443359 L 119.53906 96.259766 L 117.41992 94.074219 L 117.37305 91.03125 L 114.33008 90.984375 L 112.29102 89.007812 z M 112.29102 103.51172 L 112.29102 112.28906 L 103.51172 112.28906 L 105.48828 114.32812 L 105.53516 117.37109 L 108.57812 117.41992 L 110.76367 119.53906 L 112.94727 117.41992 L 115.99023 117.37109 L 116.01172 116.01172 L 117.37305 115.99023 L 117.41992 112.94727 L 119.53906 110.76367 L 117.41992 108.57812 L 117.37305 105.53516 L 114.33008 105.48828 L 112.29102 103.51172 z M 103.51172 112.28906 L 89.007812 112.28906 L 90.984375 114.32812 L 91.03125 117.37109 L 94.074219 117.41992 L 96.259766 119.53906 L 98.443359 117.41992 L 101.48633 117.37109 L 101.5332 114.32812 L 103.51172 112.28906 z M 89.007812 112.28906 L 74.503906 112.28906 L 76.480469 114.32812 L 76.527344 117.37109 L 79.570312 117.41992 L 81.755859 119.53906 L 83.939453 117.41992 L 86.982422 117.37109 L 87.029297 114.32812 L 89.007812 112.28906 z M 74.503906 112.28906 L 60 112.28906 L 61.976562 114.32812 L 62.023438 117.37109 L 65.066406 117.41992 L 67.251953 119.53906 L 69.435547 117.41992 L 72.478516 117.37109 L 72.525391 114.32812 L 74.503906 112.28906 z M 60 112.28906 L 45.496094 112.28906 L 47.472656 114.32812 L 47.519531 117.37109 L 50.5625 117.41992 L 52.748047 119.53906 L 54.931641 117.41992 L 57.974609 117.37109 L 58.021484 114.32812 L 60 112.28906 z M 45.496094 112.28906 L 30.992188 112.28906 L 32.96875 114.32812 L 33.015625 117.37109 L 36.058594 117.41992 L 38.244141 119.53906 L 40.427734 117.41992 L 43.470703 117.37109 L 43.517578 114.32812 L 45.496094 112.28906 z M 30.992188 112.28906 L 16.488281 112.28906 L 18.464844 114.32812 L 18.511719 117.37109 L 21.554688 117.41992 L 23.740234 119.53906 L 25.923828 117.41992 L 28.966797 117.37109 L 29.013672 114.32812 L 30.992188 112.28906 z M 16.488281 112.28906 L 7.7109375 112.28906 L 7.7109375 103.51172 L 5.671875 105.48828 L 2.6289062 105.53516 L 2.5820312 108.57812 L 0.46289062 110.76367 L 2.5820312 112.94727 L 2.6289062 115.99023 L 3.9863281 116.01172 L 4.0078125 117.37109 L 7.0507812 117.41992 L 9.2363281 119.53906 L 11.419922 117.41992 L 14.462891 117.37109 L 14.509766 114.32812 L 16.488281 112.28906 z M 7.7109375 103.51172 L 7.7109375 89.007812 L 5.671875 90.984375 L 2.6289062 91.03125 L 2.5820312 94.074219 L 0.46289062 96.259766 L 2.5820312 98.443359 L 2.6289062 101.48633 L 5.671875 101.5332 L 7.7109375 103.51172 z M 7.7109375 89.007812 L 7.7109375 74.503906 L 5.671875 76.480469 L 2.6289062 76.527344 L 2.5820312 79.570312 L 0.46289062 81.755859 L 2.5820312 83.939453 L 2.6289062 86.982422 L 5.671875 87.029297 L 7.7109375 89.007812 z M 7.7109375 74.503906 L 7.7109375 60 L 5.671875 61.976562 L 2.6289062 62.023438 L 2.5820312 65.066406 L 0.46289062 67.251953 L 2.5820312 69.435547 L 2.6289062 72.478516 L 5.671875 72.525391 L 7.7109375 74.503906 z M 7.7109375 60 L 7.7109375 45.496094 L 5.671875 47.472656 L 2.6289062 47.519531 L 2.5820312 50.5625 L 0.46289062 52.748047 L 2.5820312 54.931641 L 2.6289062 57.974609 L 5.671875 58.021484 L 7.7109375 60 z M 7.7109375 45.496094 L 7.7109375 30.992188 L 5.671875 32.96875 L 2.6289062 33.015625 L 2.5820312 36.058594 L 0.46289062 38.244141 L 2.5820312 40.427734 L 2.6289062 43.470703 L 5.671875 43.517578 L 7.7109375 45.496094 z M 7.7109375 30.992188 L 7.7109375 16.488281 L 5.671875 18.464844 L 2.6289062 18.511719 L 2.5820312 21.554688 L 0.46289062 23.740234 L 2.5820312 25.923828 L 2.6289062 28.966797 L 5.671875 29.013672 L 7.7109375 30.992188 z " />
  </g>
</svg>
