<?xml version="1.0" encoding="UTF-8" standalone="no"?>
<!-- Created with Inkscape (http://www.inkscape.org/) -->

<svg
   width="120"
   height="120"
   viewBox="0 0 120 120"
   version="1.1"
   id="svg1"
   inkscape:version="1.4 (86a8ad7, 2024-10-11)"
   sodipodi:docname="border_4.svg"
   xmlns:inkscape="http://www.inkscape.org/namespaces/inkscape"
   xmlns:sodipodi="http://sodipodi.sourceforge.net/DTD/sodipodi-0.dtd"
   xmlns="http://www.w3.org/2000/svg"
   xmlns:svg="http://www.w3.org/2000/svg">
  <sodipodi:namedview
     id="namedview1"
     pagecolor="#ffffff"
     bordercolor="#000000"
     borderopacity="0.25"
     inkscape:showpageshadow="2"
     inkscape:pageopacity="0.0"
     inkscape:pagecheckerboard="0"
     inkscape:deskcolor="#d1d1d1"
     inkscape:document-units="px"
     inkscape:zoom="4.8625"
     inkscape:cx="60.051414"
     inkscape:cy="86.272494"
     inkscape:window-width="3440"
     inkscape:window-height="1369"
     inkscape:window-x="-8"
     inkscape:window-y="-8"
     inkscape:window-maximized="1"
     inkscape:current-layer="layer1" />
  <defs
     id="defs1" />
  <g
     inkscape:label="Layer 1"
     inkscape:groupmode="layer"
     id="layer1">
    <path
       id="path1"
       style="fill:#0000ff;stroke:none;stroke-width:1.38956;stroke-dasharray:2.77911, 1.38956, 0.694779, 1.38956"
       d="M 3.0019531 1.0566406 A 5.8465935 2.9232967 43.240617 0 0 1.9648438 1.5585938 A 5.8465935 2.9232967 43.240617 0 0 1.8554688 1.8671875 A 5.8465935 2.9232967 46.759383 0 0 1.609375 1.9648438 A 5.8465935 2.9232967 46.759383 0 0 1.9902344 6.2226562 A 2.9232967 5.8465935 43.240617 0 0 1.609375 10.482422 A 2.9232967 5.8465935 43.240617 0 0 1.9628906 10.632812 A 5.8465935 2.9232967 43.240617 0 0 2.4609375 14.632812 A 2.9232967 5.8465935 46.759383 0 0 1.5214844 17.519531 A 2.9232967 5.8465935 46.759383 0 0 1.9648438 18.638672 A 2.9232967 5.8465935 46.759383 0 0 6.2226562 18.257812 A 5.8465935 2.9232967 43.240617 0 0 9.0566406 19.164062 A 2.9232967 5.8465935 46.759383 0 0 6.2226562 20.070312 A 5.8465935 2.9232967 43.240617 0 0 1.9648438 19.695312 A 5.8465935 2.9232967 43.240617 0 0 1.5195312 20.958984 A 5.8465935 2.9232967 43.240617 0 0 2.4609375 23.701172 A 2.9232967 5.8465935 46.759383 0 0 1.5214844 26.585938 A 2.9232967 5.8465935 46.759383 0 0 1.9648438 27.707031 A 2.9232967 5.8465935 46.759383 0 0 6.2226562 27.326172 A 5.8465935 2.9232967 43.240617 0 0 9.0566406 28.234375 A 5.8465935 2.9232967 43.240617 0 0 10.482422 27.707031 A 5.8465935 2.9232967 43.240617 0 0 9.984375 23.701172 A 2.9232967 5.8465935 46.759383 0 0 10.482422 19.695312 A 2.9232967 5.8465935 46.759383 0 0 9.0585938 19.164062 A 5.8465935 2.9232967 43.240617 0 0 10.482422 18.638672 A 5.8465935 2.9232967 43.240617 0 0 9.984375 14.632812 A 2.9232967 5.8465935 46.759383 0 0 10.482422 10.628906 A 2.9232967 5.8465935 46.759383 0 0 9.7265625 10.263672 A 5.8465935 2.9232967 46.759383 0 0 9.9355469 9.8339844 A 5.8465935 2.9232967 43.240617 0 0 10.285156 9.6660156 A 2.9232967 5.8465935 43.240617 0 0 10.677734 10.482422 A 2.9232967 5.8465935 43.240617 0 0 14.683594 9.984375 A 5.8465935 2.9232967 46.759383 0 0 18.6875 10.482422 A 5.8465935 2.9232967 46.759383 0 0 19.21875 9.0566406 A 5.8465935 2.9232967 46.759383 0 0 18.314453 6.2226562 A 2.9232967 5.8465935 43.240617 0 0 18.6875 1.9648438 A 2.9232967 5.8465935 43.240617 0 0 14.683594 2.4609375 A 5.8465935 2.9232967 46.759383 0 0 11.796875 1.5214844 A 5.8465935 2.9232967 46.759383 0 0 10.677734 1.9648438 A 5.8465935 2.9232967 46.759383 0 0 10.666016 1.9902344 A 2.9232967 5.8465935 46.759383 0 0 10.482422 1.5585938 A 2.9232967 5.8465935 46.759383 0 0 6.2226562 1.9335938 A 5.8465935 2.9232967 43.240617 0 0 3.0019531 1.0566406 z M 19.21875 9.0566406 A 2.9232967 5.8465935 43.240617 0 0 19.746094 10.482422 A 2.9232967 5.8465935 43.240617 0 0 23.751953 9.984375 A 5.8465935 2.9232967 46.759383 0 0 27.757812 10.482422 A 5.8465935 2.9232967 46.759383 0 0 28.289062 9.0585938 A 2.9232967 5.8465935 43.240617 0 0 28.814453 10.482422 A 2.9232967 5.8465935 43.240617 0 0 32.820312 9.984375 A 5.8465935 2.9232967 46.759383 0 0 36.824219 10.482422 A 5.8465935 2.9232967 46.759383 0 0 36.451172 6.2226562 A 2.9232967 5.8465935 43.240617 0 0 36.824219 1.9648438 A 2.9232967 5.8465935 43.240617 0 0 32.820312 2.4609375 A 5.8465935 2.9232967 46.759383 0 0 29.933594 1.5214844 A 5.8465935 2.9232967 46.759383 0 0 28.814453 1.9648438 A 5.8465935 2.9232967 46.759383 0 0 29.195312 6.2226562 A 2.9232967 5.8465935 43.240617 0 0 28.289062 9.0566406 A 5.8465935 2.9232967 46.759383 0 0 27.382812 6.2226562 A 2.9232967 5.8465935 43.240617 0 0 27.757812 1.9648438 A 2.9232967 5.8465935 43.240617 0 0 26.494141 1.5195312 A 2.9232967 5.8465935 43.240617 0 0 23.751953 2.4609375 A 5.8465935 2.9232967 46.759383 0 0 20.867188 1.5214844 A 5.8465935 2.9232967 46.759383 0 0 19.746094 1.9648438 A 5.8465935 2.9232967 46.759383 0 0 20.126953 6.2226562 A 2.9232967 5.8465935 43.240617 0 0 19.21875 9.0566406 z M 9.0566406 28.234375 A 2.9232967 5.8465935 46.759383 0 0 6.2226562 29.138672 A 5.8465935 2.9232967 43.240617 0 0 1.9648438 28.765625 A 5.8465935 2.9232967 43.240617 0 0 2.4609375 32.769531 A 2.9232967 5.8465935 46.759383 0 0 1.5214844 35.65625 A 2.9232967 5.8465935 46.759383 0 0 1.9648438 36.775391 A 2.9232967 5.8465935 46.759383 0 0 6.2226562 36.394531 A 5.8465935 2.9232967 43.240617 0 0 10.482422 36.775391 A 5.8465935 2.9232967 43.240617 0 0 9.984375 32.769531 A 2.9232967 5.8465935 46.759383 0 0 10.482422 28.765625 A 2.9232967 5.8465935 46.759383 0 0 9.0566406 28.234375 z M 110.55469 1.0566406 A 5.8465935 2.9232967 43.240617 0 0 109.51758 1.5585938 A 5.8465935 2.9232967 43.240617 0 0 109.34961 1.9550781 A 2.9232967 5.8465935 43.240617 0 0 105.36719 2.4609375 A 5.8465935 2.9232967 46.759383 0 0 102.48047 1.5214844 A 5.8465935 2.9232967 46.759383 0 0 101.36133 1.9648438 A 5.8465935 2.9232967 46.759383 0 0 101.74219 6.2226562 A 2.9232967 5.8465935 43.240617 0 0 100.83594 9.0566406 A 5.8465935 2.9232967 46.759383 0 0 99.929688 6.2226562 A 2.9232967 5.8465935 43.240617 0 0 100.30469 1.9648438 A 2.9232967 5.8465935 43.240617 0 0 99.041016 1.5195312 A 2.9232967 5.8465935 43.240617 0 0 96.298828 2.4609375 A 5.8465935 2.9232967 46.759383 0 0 93.414062 1.5214844 A 5.8465935 2.9232967 46.759383 0 0 92.292969 1.9648438 A 5.8465935 2.9232967 46.759383 0 0 92.673828 6.2226562 A 2.9232967 5.8465935 43.240617 0 0 91.765625 9.0566406 A 2.9232967 5.8465935 43.240617 0 0 92.292969 10.482422 A 2.9232967 5.8465935 43.240617 0 0 96.298828 9.984375 A 5.8465935 2.9232967 46.759383 0 0 100.30469 10.482422 A 5.8465935 2.9232967 46.759383 0 0 100.83594 9.0585938 A 2.9232967 5.8465935 43.240617 0 0 101.36133 10.482422 A 2.9232967 5.8465935 43.240617 0 0 105.36719 9.984375 A 5.8465935 2.9232967 46.759383 0 0 109.37109 10.482422 A 5.8465935 2.9232967 46.759383 0 0 109.81641 9.7148438 A 2.9232967 5.8465935 46.759383 0 0 110.13281 9.8671875 A 2.9232967 5.8465935 43.240617 0 0 110.31445 10.244141 A 5.8465935 2.9232967 43.240617 0 0 109.51758 10.628906 A 5.8465935 2.9232967 43.240617 0 0 110.01562 14.632812 A 2.9232967 5.8465935 46.759383 0 0 109.51758 18.638672 A 2.9232967 5.8465935 46.759383 0 0 110.94141 19.164062 A 5.8465935 2.9232967 43.240617 0 0 109.51758 19.695312 A 5.8465935 2.9232967 43.240617 0 0 110.01562 23.701172 A 2.9232967 5.8465935 46.759383 0 0 109.51758 27.707031 A 2.9232967 5.8465935 46.759383 0 0 110.94336 28.234375 A 2.9232967 5.8465935 46.759383 0 0 113.77734 27.326172 A 5.8465935 2.9232967 43.240617 0 0 118.03516 27.707031 A 5.8465935 2.9232967 43.240617 0 0 118.47852 26.585938 A 5.8465935 2.9232967 43.240617 0 0 117.53906 23.701172 A 2.9232967 5.8465935 46.759383 0 0 118.48047 20.958984 A 2.9232967 5.8465935 46.759383 0 0 118.03516 19.695312 A 2.9232967 5.8465935 46.759383 0 0 113.77734 20.070312 A 5.8465935 2.9232967 43.240617 0 0 110.94336 19.164062 A 2.9232967 5.8465935 46.759383 0 0 113.77734 18.257812 A 5.8465935 2.9232967 43.240617 0 0 118.03516 18.638672 A 5.8465935 2.9232967 43.240617 0 0 118.47852 17.519531 A 5.8465935 2.9232967 43.240617 0 0 117.53906 14.632812 A 2.9232967 5.8465935 46.759383 0 0 118.04492 10.650391 A 5.8465935 2.9232967 46.759383 0 0 118.44141 10.482422 A 5.8465935 2.9232967 46.759383 0 0 118.06641 6.2226562 A 2.9232967 5.8465935 43.240617 0 0 118.44141 1.9648438 A 2.9232967 5.8465935 43.240617 0 0 118.14062 1.859375 A 2.9232967 5.8465935 46.759383 0 0 118.03516 1.5585938 A 2.9232967 5.8465935 46.759383 0 0 113.77734 1.9335938 A 5.8465935 2.9232967 43.240617 0 0 110.55469 1.0566406 z M 110.94336 28.234375 A 5.8465935 2.9232967 43.240617 0 0 109.51758 28.765625 A 5.8465935 2.9232967 43.240617 0 0 110.01562 32.769531 A 2.9232967 5.8465935 46.759383 0 0 109.08789 35.765625 A 2.9232967 5.8465935 46.759383 0 0 109.51758 36.775391 A 2.9232967 5.8465935 46.759383 0 0 113.77734 36.394531 A 5.8465935 2.9232967 43.240617 0 0 118.03516 36.775391 A 5.8465935 2.9232967 43.240617 0 0 118.47852 35.65625 A 5.8465935 2.9232967 43.240617 0 0 117.53906 32.769531 A 2.9232967 5.8465935 46.759383 0 0 118.03516 28.765625 A 2.9232967 5.8465935 46.759383 0 0 113.77734 29.138672 A 5.8465935 2.9232967 43.240617 0 0 110.94336 28.234375 z M 91.765625 9.0566406 A 5.8465935 2.9232967 46.759383 0 0 90.861328 6.2226562 A 2.9232967 5.8465935 43.240617 0 0 91.234375 1.9648438 A 2.9232967 5.8465935 43.240617 0 0 87.230469 2.4609375 A 5.8465935 2.9232967 46.759383 0 0 84.34375 1.5214844 A 5.8465935 2.9232967 46.759383 0 0 83.224609 1.9648438 A 5.8465935 2.9232967 46.759383 0 0 83.605469 6.2226562 A 2.9232967 5.8465935 43.240617 0 0 83.224609 10.482422 A 2.9232967 5.8465935 43.240617 0 0 87.230469 9.984375 A 5.8465935 2.9232967 46.759383 0 0 91.234375 10.482422 A 5.8465935 2.9232967 46.759383 0 0 91.765625 9.0566406 z M 44.630859 1.5195312 A 2.9232967 5.8465935 43.240617 0 0 41.888672 2.4609375 A 5.8465935 2.9232967 46.759383 0 0 39.003906 1.5214844 A 5.8465935 2.9232967 46.759383 0 0 37.882812 1.9648438 A 5.8465935 2.9232967 46.759383 0 0 38.263672 6.2226562 A 2.9232967 5.8465935 43.240617 0 0 37.882812 10.482422 A 2.9232967 5.8465935 43.240617 0 0 41.888672 9.984375 A 5.8465935 2.9232967 46.759383 0 0 45.894531 10.482422 A 5.8465935 2.9232967 46.759383 0 0 45.519531 6.2226562 A 2.9232967 5.8465935 43.240617 0 0 45.894531 1.9648438 A 2.9232967 5.8465935 43.240617 0 0 44.630859 1.5195312 z M 62.767578 1.5195312 A 2.9232967 5.8465935 43.240617 0 0 60.025391 2.4609375 A 5.8465935 2.9232967 46.759383 0 0 57.140625 1.5214844 A 5.8465935 2.9232967 46.759383 0 0 56.019531 1.9648438 A 5.8465935 2.9232967 46.759383 0 0 56.400391 6.2226562 A 2.9232967 5.8465935 43.240617 0 0 55.492188 9.0566406 A 2.9232967 5.8465935 43.240617 0 0 56.019531 10.482422 A 2.9232967 5.8465935 43.240617 0 0 60.025391 9.984375 A 5.8465935 2.9232967 46.759383 0 0 64.03125 10.482422 A 5.8465935 2.9232967 46.759383 0 0 64.5625 9.0585938 A 2.9232967 5.8465935 43.240617 0 0 65.087891 10.482422 A 2.9232967 5.8465935 43.240617 0 0 69.09375 9.984375 A 5.8465935 2.9232967 46.759383 0 0 73.097656 10.482422 A 5.8465935 2.9232967 46.759383 0 0 72.724609 6.2226562 A 2.9232967 5.8465935 43.240617 0 0 73.097656 1.9648438 A 2.9232967 5.8465935 43.240617 0 0 69.09375 2.4609375 A 5.8465935 2.9232967 46.759383 0 0 66.207031 1.5214844 A 5.8465935 2.9232967 46.759383 0 0 65.087891 1.9648438 A 5.8465935 2.9232967 46.759383 0 0 65.46875 6.2226562 A 2.9232967 5.8465935 43.240617 0 0 64.5625 9.0566406 A 5.8465935 2.9232967 46.759383 0 0 63.65625 6.2226562 A 2.9232967 5.8465935 43.240617 0 0 64.03125 1.9648438 A 2.9232967 5.8465935 43.240617 0 0 62.767578 1.5195312 z M 55.492188 9.0566406 A 5.8465935 2.9232967 46.759383 0 0 54.587891 6.2226562 A 2.9232967 5.8465935 43.240617 0 0 54.960938 1.9648438 A 2.9232967 5.8465935 43.240617 0 0 50.957031 2.4609375 A 5.8465935 2.9232967 46.759383 0 0 48.070312 1.5214844 A 5.8465935 2.9232967 46.759383 0 0 46.951172 1.9648438 A 5.8465935 2.9232967 46.759383 0 0 47.332031 6.2226562 A 2.9232967 5.8465935 43.240617 0 0 46.951172 10.482422 A 2.9232967 5.8465935 43.240617 0 0 50.957031 9.984375 A 5.8465935 2.9232967 46.759383 0 0 54.960938 10.482422 A 5.8465935 2.9232967 46.759383 0 0 55.492188 9.0566406 z M 80.904297 1.5195312 A 2.9232967 5.8465935 43.240617 0 0 78.162109 2.4609375 A 5.8465935 2.9232967 46.759383 0 0 75.277344 1.5214844 A 5.8465935 2.9232967 46.759383 0 0 74.15625 1.9648438 A 5.8465935 2.9232967 46.759383 0 0 74.537109 6.2226562 A 2.9232967 5.8465935 43.240617 0 0 74.15625 10.482422 A 2.9232967 5.8465935 43.240617 0 0 78.162109 9.984375 A 5.8465935 2.9232967 46.759383 0 0 82.167969 10.482422 A 5.8465935 2.9232967 46.759383 0 0 81.792969 6.2226562 A 2.9232967 5.8465935 43.240617 0 0 82.167969 1.9648438 A 2.9232967 5.8465935 43.240617 0 0 80.904297 1.5195312 z M 1.0292969 3.2207031 L 1.0292969 3.8710938 A 2.9232967 5.8465935 43.240617 0 0 1.0292969 3.2207031 z M 5.6171875 3.296875 L 7.6855469 4.1523438 L 8.5410156 6.2207031 L 7.8886719 7.796875 L 6.2207031 8.4863281 L 4.1523438 7.6308594 L 3.296875 5.5625 L 3.9492188 3.9863281 L 5.6171875 3.296875 z M 14.685547 3.296875 L 16.751953 4.1523438 L 17.609375 6.2207031 L 16.751953 8.2890625 L 14.685547 9.1445312 L 12.617188 8.2890625 L 11.761719 6.2207031 L 12.617188 4.1523438 L 14.685547 3.296875 z M 23.753906 3.296875 L 25.822266 4.1523438 L 26.677734 6.2207031 L 25.822266 8.2890625 L 23.753906 9.1445312 L 21.685547 8.2890625 L 20.830078 6.2207031 L 21.685547 4.1523438 L 23.753906 3.296875 z M 32.822266 3.296875 L 34.888672 4.1523438 L 35.746094 6.2207031 L 34.888672 8.2890625 L 32.822266 9.1445312 L 30.753906 8.2890625 L 29.898438 6.2207031 L 30.753906 4.1523438 L 32.822266 3.296875 z M 41.890625 3.296875 L 43.958984 4.1523438 L 44.814453 6.2207031 L 43.958984 8.2890625 L 41.890625 9.1445312 L 39.822266 8.2890625 L 38.966797 6.2207031 L 39.822266 4.1523438 L 41.890625 3.296875 z M 50.958984 3.296875 L 53.025391 4.1523438 L 53.882812 6.2207031 L 53.025391 8.2890625 L 50.958984 9.1445312 L 48.890625 8.2890625 L 48.035156 6.2207031 L 48.890625 4.1523438 L 50.958984 3.296875 z M 60.027344 3.296875 L 62.095703 4.1523438 L 62.951172 6.2207031 L 62.095703 8.2890625 L 60.027344 9.1445312 L 57.958984 8.2890625 L 57.103516 6.2207031 L 57.958984 4.1523438 L 60.027344 3.296875 z M 69.095703 3.296875 L 71.162109 4.1523438 L 72.019531 6.2207031 L 71.162109 8.2890625 L 69.095703 9.1445312 L 67.027344 8.2890625 L 66.171875 6.2207031 L 67.027344 4.1523438 L 69.095703 3.296875 z M 78.164062 3.296875 L 80.232422 4.1523438 L 81.087891 6.2207031 L 80.232422 8.2890625 L 78.164062 9.1445312 L 76.095703 8.2890625 L 75.240234 6.2207031 L 76.095703 4.1523438 L 78.164062 3.296875 z M 87.232422 3.296875 L 89.298828 4.1523438 L 90.15625 6.2207031 L 89.298828 8.2890625 L 87.232422 9.1445312 L 85.164062 8.2890625 L 84.308594 6.2207031 L 85.164062 4.1523438 L 87.232422 3.296875 z M 96.300781 3.296875 L 98.369141 4.1523438 L 99.224609 6.2207031 L 98.369141 8.2890625 L 96.300781 9.1445312 L 94.232422 8.2890625 L 93.376953 6.2207031 L 94.232422 4.1523438 L 96.300781 3.296875 z M 105.36914 3.296875 L 107.43555 4.1523438 L 108.29297 6.2207031 L 107.43555 8.2890625 L 105.36914 9.1445312 L 103.30078 8.2890625 L 102.44531 6.2207031 L 103.30078 4.1523438 L 105.36914 3.296875 z M 114.4375 3.296875 L 116.04102 3.9589844 L 116.70312 5.5625 L 115.84766 7.6308594 L 113.7793 8.4863281 L 112.17578 7.8242188 L 111.51367 6.2207031 L 112.36914 4.1523438 L 114.4375 3.296875 z M 10.396484 4.6894531 A 5.8465935 2.9232967 46.759383 0 0 11.058594 6.2226562 A 2.9232967 5.8465935 43.240617 0 0 10.693359 7.0703125 A 5.8465935 2.9232967 43.240617 0 0 9.984375 5.5644531 A 2.9232967 5.8465935 46.759383 0 0 10.396484 4.6894531 z M 109.63281 4.75 A 5.8465935 2.9232967 43.240617 0 0 110.01562 5.5644531 A 2.9232967 5.8465935 46.759383 0 0 109.36719 6.9433594 A 5.8465935 2.9232967 46.759383 0 0 108.99805 6.2226562 A 2.9232967 5.8465935 43.240617 0 0 109.63281 4.75 z M 1.0292969 8.4492188 L 1.0292969 9.5839844 A 5.8465935 2.9232967 46.759383 0 0 1.0292969 8.4492188 z M 5.6152344 9.984375 A 5.8465935 2.9232967 46.759383 0 0 7.0332031 10.652344 A 2.9232967 5.8465935 46.759383 0 0 6.2226562 11.001953 A 5.8465935 2.9232967 43.240617 0 0 4.7753906 10.380859 A 2.9232967 5.8465935 43.240617 0 0 5.6152344 9.984375 z M 114.43555 9.984375 A 5.8465935 2.9232967 46.759383 0 0 115.25195 10.369141 A 2.9232967 5.8465935 46.759383 0 0 113.77734 11.001953 A 5.8465935 2.9232967 43.240617 0 0 112.99219 10.664062 A 2.9232967 5.8465935 43.240617 0 0 114.43555 9.984375 z M 11.322266 11.322266 L 11.322266 108.67773 L 108.67773 108.67773 L 108.67773 11.322266 L 11.322266 11.322266 z M 6.2207031 11.707031 L 8.2890625 12.564453 L 9.1445312 14.630859 L 8.2890625 16.699219 L 6.2207031 17.554688 L 4.1523438 16.699219 L 3.296875 14.630859 L 4.1523438 12.564453 L 6.2207031 11.707031 z M 113.7793 11.707031 L 115.84766 12.564453 L 116.70312 14.630859 L 115.84766 16.699219 L 113.7793 17.554688 L 111.71094 16.699219 L 110.85547 14.630859 L 111.71094 12.564453 L 113.7793 11.707031 z M 12.226562 12.226562 L 107.77344 12.226562 L 107.77344 107.77344 L 12.226562 107.77344 L 12.226562 12.226562 z M 6.2207031 20.775391 L 8.2890625 21.630859 L 9.1445312 23.699219 L 8.2890625 25.767578 L 6.2207031 26.623047 L 4.1523438 25.767578 L 3.296875 23.699219 L 4.1523438 21.630859 L 6.2207031 20.775391 z M 113.7793 20.775391 L 115.84766 21.630859 L 116.70312 23.699219 L 115.84766 25.767578 L 113.7793 26.623047 L 111.71094 25.767578 L 110.85547 23.699219 L 111.71094 21.630859 L 113.7793 20.775391 z M 6.2207031 29.84375 L 8.2890625 30.701172 L 9.1445312 32.767578 L 8.2890625 34.835938 L 6.2207031 35.691406 L 4.1523438 34.835938 L 3.296875 32.767578 L 4.1523438 30.701172 L 6.2207031 29.84375 z M 113.7793 29.84375 L 115.84766 30.701172 L 116.70312 32.767578 L 115.84766 34.835938 L 113.7793 35.691406 L 111.71094 34.835938 L 110.85547 32.767578 L 111.71094 30.701172 L 113.7793 29.84375 z M 3.0019531 37.330078 A 5.8465935 2.9232967 43.240617 0 0 1.9648438 37.832031 A 5.8465935 2.9232967 43.240617 0 0 1.5195312 39.095703 A 5.8465935 2.9232967 43.240617 0 0 2.4609375 41.837891 A 2.9232967 5.8465935 46.759383 0 0 1.5214844 44.722656 A 2.9232967 5.8465935 46.759383 0 0 1.9648438 45.84375 A 2.9232967 5.8465935 46.759383 0 0 6.2226562 45.462891 A 5.8465935 2.9232967 43.240617 0 0 10.482422 45.84375 A 5.8465935 2.9232967 43.240617 0 0 9.984375 41.837891 A 2.9232967 5.8465935 46.759383 0 0 10.482422 37.832031 A 2.9232967 5.8465935 46.759383 0 0 6.2226562 38.207031 A 5.8465935 2.9232967 43.240617 0 0 3.0019531 37.330078 z M 110.55469 37.330078 A 5.8465935 2.9232967 43.240617 0 0 109.51758 37.832031 A 5.8465935 2.9232967 43.240617 0 0 110.01562 41.837891 A 2.9232967 5.8465935 46.759383 0 0 109.08789 44.833984 A 2.9232967 5.8465935 46.759383 0 0 109.51758 45.84375 A 2.9232967 5.8465935 46.759383 0 0 113.77734 45.462891 A 5.8465935 2.9232967 43.240617 0 0 118.03516 45.84375 A 5.8465935 2.9232967 43.240617 0 0 118.47852 44.722656 A 5.8465935 2.9232967 43.240617 0 0 117.53906 41.837891 A 2.9232967 5.8465935 46.759383 0 0 118.48047 39.095703 A 2.9232967 5.8465935 46.759383 0 0 118.03516 37.832031 A 2.9232967 5.8465935 46.759383 0 0 113.77734 38.207031 A 5.8465935 2.9232967 43.240617 0 0 110.55469 37.330078 z M 6.2207031 38.912109 L 8.2890625 39.767578 L 9.1445312 41.835938 L 8.2890625 43.904297 L 6.2207031 44.759766 L 4.1523438 43.904297 L 3.296875 41.835938 L 4.1523438 39.767578 L 6.2207031 38.912109 z M 113.7793 38.912109 L 115.84766 39.767578 L 116.70312 41.835938 L 115.84766 43.904297 L 113.7793 44.759766 L 111.71094 43.904297 L 110.85547 41.835938 L 111.71094 39.767578 L 113.7793 38.912109 z M 3.0019531 46.400391 A 5.8465935 2.9232967 43.240617 0 0 1.9648438 46.902344 A 5.8465935 2.9232967 43.240617 0 0 2.4609375 50.90625 A 2.9232967 5.8465935 46.759383 0 0 1.5214844 53.792969 A 2.9232967 5.8465935 46.759383 0 0 1.9648438 54.912109 A 2.9232967 5.8465935 46.759383 0 0 6.2226562 54.53125 A 5.8465935 2.9232967 43.240617 0 0 9.0566406 55.4375 A 2.9232967 5.8465935 46.759383 0 0 6.2226562 56.34375 A 5.8465935 2.9232967 43.240617 0 0 1.9648438 55.96875 A 5.8465935 2.9232967 43.240617 0 0 1.5195312 57.232422 A 5.8465935 2.9232967 43.240617 0 0 2.4609375 59.974609 A 2.9232967 5.8465935 46.759383 0 0 1.5214844 62.859375 A 2.9232967 5.8465935 46.759383 0 0 1.9648438 63.980469 A 2.9232967 5.8465935 46.759383 0 0 6.2226562 63.599609 A 5.8465935 2.9232967 43.240617 0 0 9.0566406 64.507812 A 5.8465935 2.9232967 43.240617 0 0 10.482422 63.980469 A 5.8465935 2.9232967 43.240617 0 0 9.984375 59.974609 A 2.9232967 5.8465935 46.759383 0 0 10.482422 55.96875 A 2.9232967 5.8465935 46.759383 0 0 9.0585938 55.4375 A 5.8465935 2.9232967 43.240617 0 0 10.482422 54.912109 A 5.8465935 2.9232967 43.240617 0 0 9.984375 50.90625 A 2.9232967 5.8465935 46.759383 0 0 10.482422 46.902344 A 2.9232967 5.8465935 46.759383 0 0 6.2226562 47.275391 A 5.8465935 2.9232967 43.240617 0 0 3.0019531 46.400391 z M 9.0566406 64.507812 A 2.9232967 5.8465935 46.759383 0 0 6.2226562 65.412109 A 5.8465935 2.9232967 43.240617 0 0 1.9648438 65.039062 A 5.8465935 2.9232967 43.240617 0 0 2.4609375 69.042969 A 2.9232967 5.8465935 46.759383 0 0 1.5214844 71.929688 A 2.9232967 5.8465935 46.759383 0 0 1.9648438 73.048828 A 2.9232967 5.8465935 46.759383 0 0 6.2226562 72.667969 A 5.8465935 2.9232967 43.240617 0 0 10.482422 73.048828 A 5.8465935 2.9232967 43.240617 0 0 9.984375 69.042969 A 2.9232967 5.8465935 46.759383 0 0 10.482422 65.039062 A 2.9232967 5.8465935 46.759383 0 0 9.0566406 64.507812 z M 110.55469 46.400391 A 5.8465935 2.9232967 43.240617 0 0 109.51758 46.902344 A 5.8465935 2.9232967 43.240617 0 0 110.01562 50.90625 A 2.9232967 5.8465935 46.759383 0 0 109.51758 54.912109 A 2.9232967 5.8465935 46.759383 0 0 110.94141 55.4375 A 5.8465935 2.9232967 43.240617 0 0 109.51758 55.96875 A 5.8465935 2.9232967 43.240617 0 0 110.01562 59.974609 A 2.9232967 5.8465935 46.759383 0 0 109.51758 63.980469 A 2.9232967 5.8465935 46.759383 0 0 110.94336 64.507812 A 2.9232967 5.8465935 46.759383 0 0 113.77734 63.599609 A 5.8465935 2.9232967 43.240617 0 0 118.03516 63.980469 A 5.8465935 2.9232967 43.240617 0 0 118.47852 62.859375 A 5.8465935 2.9232967 43.240617 0 0 117.53906 59.974609 A 2.9232967 5.8465935 46.759383 0 0 118.48047 57.232422 A 2.9232967 5.8465935 46.759383 0 0 118.03516 55.96875 A 2.9232967 5.8465935 46.759383 0 0 113.77734 56.34375 A 5.8465935 2.9232967 43.240617 0 0 110.94336 55.4375 A 2.9232967 5.8465935 46.759383 0 0 113.77734 54.53125 A 5.8465935 2.9232967 43.240617 0 0 118.03516 54.912109 A 5.8465935 2.9232967 43.240617 0 0 118.47852 53.792969 A 5.8465935 2.9232967 43.240617 0 0 117.53906 50.90625 A 2.9232967 5.8465935 46.759383 0 0 118.03516 46.902344 A 2.9232967 5.8465935 46.759383 0 0 113.77734 47.275391 A 5.8465935 2.9232967 43.240617 0 0 110.55469 46.400391 z M 110.94336 64.507812 A 5.8465935 2.9232967 43.240617 0 0 109.51758 65.039062 A 5.8465935 2.9232967 43.240617 0 0 110.01562 69.042969 A 2.9232967 5.8465935 46.759383 0 0 109.08789 72.039062 A 2.9232967 5.8465935 46.759383 0 0 109.51758 73.048828 A 2.9232967 5.8465935 46.759383 0 0 113.77734 72.667969 A 5.8465935 2.9232967 43.240617 0 0 118.03516 73.048828 A 5.8465935 2.9232967 43.240617 0 0 118.47852 71.929688 A 5.8465935 2.9232967 43.240617 0 0 117.53906 69.042969 A 2.9232967 5.8465935 46.759383 0 0 118.03516 65.039062 A 2.9232967 5.8465935 46.759383 0 0 113.77734 65.412109 A 5.8465935 2.9232967 43.240617 0 0 110.94336 64.507812 z M 6.2207031 47.980469 L 8.2890625 48.837891 L 9.1445312 50.904297 L 8.2890625 52.972656 L 6.2207031 53.828125 L 4.1523438 52.972656 L 3.296875 50.904297 L 4.1523438 48.837891 L 6.2207031 47.980469 z M 113.7793 47.980469 L 115.84766 48.837891 L 116.70312 50.904297 L 115.84766 52.972656 L 113.7793 53.828125 L 111.71094 52.972656 L 110.85547 50.904297 L 111.71094 48.837891 L 113.7793 47.980469 z M 6.2207031 57.048828 L 8.2890625 57.904297 L 9.1445312 59.972656 L 8.2890625 62.041016 L 6.2207031 62.896484 L 4.1523438 62.041016 L 3.296875 59.972656 L 4.1523438 57.904297 L 6.2207031 57.048828 z M 113.7793 57.048828 L 115.84766 57.904297 L 116.70312 59.972656 L 115.84766 62.041016 L 113.7793 62.896484 L 111.71094 62.041016 L 110.85547 59.972656 L 111.71094 57.904297 L 113.7793 57.048828 z M 6.2207031 66.117188 L 8.2890625 66.974609 L 9.1445312 69.041016 L 8.2890625 71.109375 L 6.2207031 71.964844 L 4.1523438 71.109375 L 3.296875 69.041016 L 4.1523438 66.974609 L 6.2207031 66.117188 z M 113.7793 66.117188 L 115.84766 66.974609 L 116.70312 69.041016 L 115.84766 71.109375 L 113.7793 71.964844 L 111.71094 71.109375 L 110.85547 69.041016 L 111.71094 66.974609 L 113.7793 66.117188 z M 3.0019531 73.603516 A 5.8465935 2.9232967 43.240617 0 0 1.9648438 74.105469 A 5.8465935 2.9232967 43.240617 0 0 1.5195312 75.369141 A 5.8465935 2.9232967 43.240617 0 0 2.4609375 78.111328 A 2.9232967 5.8465935 46.759383 0 0 1.5214844 80.996094 A 2.9232967 5.8465935 46.759383 0 0 1.9648438 82.117188 A 2.9232967 5.8465935 46.759383 0 0 6.2226562 81.736328 A 5.8465935 2.9232967 43.240617 0 0 10.482422 82.117188 A 5.8465935 2.9232967 43.240617 0 0 9.984375 78.111328 A 2.9232967 5.8465935 46.759383 0 0 10.482422 74.105469 A 2.9232967 5.8465935 46.759383 0 0 6.2226562 74.480469 A 5.8465935 2.9232967 43.240617 0 0 3.0019531 73.603516 z M 110.55469 73.603516 A 5.8465935 2.9232967 43.240617 0 0 109.51758 74.105469 A 5.8465935 2.9232967 43.240617 0 0 110.01562 78.111328 A 2.9232967 5.8465935 46.759383 0 0 109.08789 81.107422 A 2.9232967 5.8465935 46.759383 0 0 109.51758 82.117188 A 2.9232967 5.8465935 46.759383 0 0 113.77734 81.736328 A 5.8465935 2.9232967 43.240617 0 0 118.03516 82.117188 A 5.8465935 2.9232967 43.240617 0 0 118.47852 80.996094 A 5.8465935 2.9232967 43.240617 0 0 117.53906 78.111328 A 2.9232967 5.8465935 46.759383 0 0 118.48047 75.369141 A 2.9232967 5.8465935 46.759383 0 0 118.03516 74.105469 A 2.9232967 5.8465935 46.759383 0 0 113.77734 74.480469 A 5.8465935 2.9232967 43.240617 0 0 110.55469 73.603516 z M 6.2207031 75.185547 L 8.2890625 76.041016 L 9.1445312 78.109375 L 8.2890625 80.177734 L 6.2207031 81.033203 L 4.1523438 80.177734 L 3.296875 78.109375 L 4.1523438 76.041016 L 6.2207031 75.185547 z M 113.7793 75.185547 L 115.84766 76.041016 L 116.70312 78.109375 L 115.84766 80.177734 L 113.7793 81.033203 L 111.71094 80.177734 L 110.85547 78.109375 L 111.71094 76.041016 L 113.7793 75.185547 z M 3.0019531 82.673828 A 5.8465935 2.9232967 43.240617 0 0 1.9648438 83.175781 A 5.8465935 2.9232967 43.240617 0 0 2.4609375 87.179688 A 2.9232967 5.8465935 46.759383 0 0 1.5214844 90.066406 A 2.9232967 5.8465935 46.759383 0 0 1.9648438 91.185547 A 2.9232967 5.8465935 46.759383 0 0 6.2226562 90.804688 A 5.8465935 2.9232967 43.240617 0 0 9.0566406 91.710938 A 2.9232967 5.8465935 46.759383 0 0 6.2226562 92.617188 A 5.8465935 2.9232967 43.240617 0 0 1.9648438 92.242188 A 5.8465935 2.9232967 43.240617 0 0 1.5195312 93.505859 A 5.8465935 2.9232967 43.240617 0 0 2.4609375 96.248047 A 2.9232967 5.8465935 46.759383 0 0 1.5214844 99.132812 A 2.9232967 5.8465935 46.759383 0 0 1.9648438 100.25391 A 2.9232967 5.8465935 46.759383 0 0 6.2226562 99.873047 A 5.8465935 2.9232967 43.240617 0 0 9.0566406 100.78125 A 5.8465935 2.9232967 43.240617 0 0 10.482422 100.25391 A 5.8465935 2.9232967 43.240617 0 0 9.984375 96.248047 A 2.9232967 5.8465935 46.759383 0 0 10.482422 92.242188 A 2.9232967 5.8465935 46.759383 0 0 9.0585938 91.710938 A 5.8465935 2.9232967 43.240617 0 0 10.482422 91.185547 A 5.8465935 2.9232967 43.240617 0 0 9.984375 87.179688 A 2.9232967 5.8465935 46.759383 0 0 10.482422 83.175781 A 2.9232967 5.8465935 46.759383 0 0 6.2226562 83.548828 A 5.8465935 2.9232967 43.240617 0 0 3.0019531 82.673828 z M 9.0566406 100.78125 A 2.9232967 5.8465935 46.759383 0 0 6.2226562 101.68555 A 5.8465935 2.9232967 43.240617 0 0 1.9648438 101.3125 A 5.8465935 2.9232967 43.240617 0 0 2.4609375 105.31641 A 2.9232967 5.8465935 46.759383 0 0 1.5214844 108.20312 A 2.9232967 5.8465935 46.759383 0 0 1.9648438 109.32227 A 2.9232967 5.8465935 46.759383 0 0 2.0136719 109.3457 A 5.8465935 2.9232967 46.759383 0 0 1.609375 109.51758 A 5.8465935 2.9232967 46.759383 0 0 1.9902344 113.77734 A 2.9232967 5.8465935 43.240617 0 0 1.609375 118.03516 A 2.9232967 5.8465935 43.240617 0 0 1.8632812 118.13672 A 2.9232967 5.8465935 46.759383 0 0 1.9648438 118.39062 A 2.9232967 5.8465935 46.759383 0 0 6.2226562 118.00977 A 5.8465935 2.9232967 43.240617 0 0 10.482422 118.39062 A 5.8465935 2.9232967 43.240617 0 0 10.654297 117.98633 A 2.9232967 5.8465935 43.240617 0 0 10.677734 118.03516 A 2.9232967 5.8465935 43.240617 0 0 11.796875 118.47852 A 2.9232967 5.8465935 43.240617 0 0 14.683594 117.53906 A 5.8465935 2.9232967 46.759383 0 0 18.6875 118.03516 A 5.8465935 2.9232967 46.759383 0 0 18.314453 113.77734 A 2.9232967 5.8465935 43.240617 0 0 19.21875 110.94336 A 2.9232967 5.8465935 43.240617 0 0 18.6875 109.51758 A 2.9232967 5.8465935 43.240617 0 0 14.683594 110.01562 A 5.8465935 2.9232967 46.759383 0 0 11.6875 109.08789 A 5.8465935 2.9232967 46.759383 0 0 10.677734 109.51758 A 5.8465935 2.9232967 46.759383 0 0 10.304688 110.29297 A 2.9232967 5.8465935 46.759383 0 0 9.9023438 110.09766 A 2.9232967 5.8465935 43.240617 0 0 9.7070312 109.69531 A 5.8465935 2.9232967 43.240617 0 0 10.482422 109.32227 A 5.8465935 2.9232967 43.240617 0 0 9.984375 105.31641 A 2.9232967 5.8465935 46.759383 0 0 10.482422 101.3125 A 2.9232967 5.8465935 46.759383 0 0 9.0566406 100.78125 z M 19.21875 110.94336 A 5.8465935 2.9232967 46.759383 0 0 20.126953 113.77734 A 2.9232967 5.8465935 43.240617 0 0 19.746094 118.03516 A 2.9232967 5.8465935 43.240617 0 0 20.867188 118.47852 A 2.9232967 5.8465935 43.240617 0 0 23.751953 117.53906 A 5.8465935 2.9232967 46.759383 0 0 26.494141 118.48047 A 5.8465935 2.9232967 46.759383 0 0 27.757812 118.03516 A 5.8465935 2.9232967 46.759383 0 0 27.382812 113.77734 A 2.9232967 5.8465935 43.240617 0 0 28.289062 110.94336 A 5.8465935 2.9232967 46.759383 0 0 29.195312 113.77734 A 2.9232967 5.8465935 43.240617 0 0 28.814453 118.03516 A 2.9232967 5.8465935 43.240617 0 0 29.933594 118.47852 A 2.9232967 5.8465935 43.240617 0 0 32.820312 117.53906 A 5.8465935 2.9232967 46.759383 0 0 36.824219 118.03516 A 5.8465935 2.9232967 46.759383 0 0 36.451172 113.77734 A 2.9232967 5.8465935 43.240617 0 0 36.824219 109.51758 A 2.9232967 5.8465935 43.240617 0 0 32.820312 110.01562 A 5.8465935 2.9232967 46.759383 0 0 28.814453 109.51758 A 5.8465935 2.9232967 46.759383 0 0 28.289062 110.94141 A 2.9232967 5.8465935 43.240617 0 0 27.757812 109.51758 A 2.9232967 5.8465935 43.240617 0 0 23.751953 110.01562 A 5.8465935 2.9232967 46.759383 0 0 19.746094 109.51758 A 5.8465935 2.9232967 46.759383 0 0 19.21875 110.94336 z M 110.55469 82.673828 A 5.8465935 2.9232967 43.240617 0 0 109.51758 83.175781 A 5.8465935 2.9232967 43.240617 0 0 110.01562 87.179688 A 2.9232967 5.8465935 46.759383 0 0 109.51758 91.185547 A 2.9232967 5.8465935 46.759383 0 0 110.94141 91.710938 A 5.8465935 2.9232967 43.240617 0 0 109.51758 92.242188 A 5.8465935 2.9232967 43.240617 0 0 110.01562 96.248047 A 2.9232967 5.8465935 46.759383 0 0 109.51758 100.25391 A 2.9232967 5.8465935 46.759383 0 0 110.94336 100.78125 A 2.9232967 5.8465935 46.759383 0 0 113.77734 99.873047 A 5.8465935 2.9232967 43.240617 0 0 118.03516 100.25391 A 5.8465935 2.9232967 43.240617 0 0 118.47852 99.132812 A 5.8465935 2.9232967 43.240617 0 0 117.53906 96.248047 A 2.9232967 5.8465935 46.759383 0 0 118.48047 93.505859 A 2.9232967 5.8465935 46.759383 0 0 118.03516 92.242188 A 2.9232967 5.8465935 46.759383 0 0 113.77734 92.617188 A 5.8465935 2.9232967 43.240617 0 0 110.94336 91.710938 A 2.9232967 5.8465935 46.759383 0 0 113.77734 90.804688 A 5.8465935 2.9232967 43.240617 0 0 118.03516 91.185547 A 5.8465935 2.9232967 43.240617 0 0 118.47852 90.066406 A 5.8465935 2.9232967 43.240617 0 0 117.53906 87.179688 A 2.9232967 5.8465935 46.759383 0 0 118.03516 83.175781 A 2.9232967 5.8465935 46.759383 0 0 113.77734 83.548828 A 5.8465935 2.9232967 43.240617 0 0 110.55469 82.673828 z M 110.94336 100.78125 A 5.8465935 2.9232967 43.240617 0 0 109.51758 101.3125 A 5.8465935 2.9232967 43.240617 0 0 110.01562 105.31641 A 2.9232967 5.8465935 46.759383 0 0 109.08789 108.3125 A 2.9232967 5.8465935 46.759383 0 0 109.51758 109.32227 A 2.9232967 5.8465935 46.759383 0 0 110.33398 109.71484 A 5.8465935 2.9232967 46.759383 0 0 110.16602 110.06445 A 5.8465935 2.9232967 43.240617 0 0 109.73828 110.27148 A 2.9232967 5.8465935 43.240617 0 0 109.37109 109.51758 A 2.9232967 5.8465935 43.240617 0 0 105.36719 110.01562 A 5.8465935 2.9232967 46.759383 0 0 101.36133 109.51758 A 5.8465935 2.9232967 46.759383 0 0 100.83594 110.94141 A 2.9232967 5.8465935 43.240617 0 0 100.30469 109.51758 A 2.9232967 5.8465935 43.240617 0 0 96.298828 110.01562 A 5.8465935 2.9232967 46.759383 0 0 92.292969 109.51758 A 5.8465935 2.9232967 46.759383 0 0 91.765625 110.94336 A 5.8465935 2.9232967 46.759383 0 0 92.673828 113.77734 A 2.9232967 5.8465935 43.240617 0 0 92.292969 118.03516 A 2.9232967 5.8465935 43.240617 0 0 93.414062 118.47852 A 2.9232967 5.8465935 43.240617 0 0 96.298828 117.53906 A 5.8465935 2.9232967 46.759383 0 0 99.041016 118.48047 A 5.8465935 2.9232967 46.759383 0 0 100.30469 118.03516 A 5.8465935 2.9232967 46.759383 0 0 99.929688 113.77734 A 2.9232967 5.8465935 43.240617 0 0 100.83594 110.94336 A 5.8465935 2.9232967 46.759383 0 0 101.74219 113.77734 A 2.9232967 5.8465935 43.240617 0 0 101.36133 118.03516 A 2.9232967 5.8465935 43.240617 0 0 102.48047 118.47852 A 2.9232967 5.8465935 43.240617 0 0 105.36719 117.53906 A 5.8465935 2.9232967 46.759383 0 0 109.36719 118.03711 A 2.9232967 5.8465935 46.759383 0 0 109.51758 118.39062 A 2.9232967 5.8465935 46.759383 0 0 113.77734 118.00977 A 5.8465935 2.9232967 43.240617 0 0 118.03516 118.39062 A 5.8465935 2.9232967 43.240617 0 0 118.24805 118.10352 A 5.8465935 2.9232967 46.759383 0 0 118.44141 118.03516 A 5.8465935 2.9232967 46.759383 0 0 118.06641 113.77734 A 2.9232967 5.8465935 43.240617 0 0 118.44141 109.51758 A 2.9232967 5.8465935 43.240617 0 0 118.00977 109.33398 A 5.8465935 2.9232967 43.240617 0 0 118.03516 109.32227 A 5.8465935 2.9232967 43.240617 0 0 118.47852 108.20312 A 5.8465935 2.9232967 43.240617 0 0 117.53906 105.31641 A 2.9232967 5.8465935 46.759383 0 0 118.03516 101.3125 A 2.9232967 5.8465935 46.759383 0 0 113.77734 101.68555 A 5.8465935 2.9232967 43.240617 0 0 110.94336 100.78125 z M 91.765625 110.94336 A 2.9232967 5.8465935 43.240617 0 0 91.234375 109.51758 A 2.9232967 5.8465935 43.240617 0 0 87.230469 110.01562 A 5.8465935 2.9232967 46.759383 0 0 84.234375 109.08789 A 5.8465935 2.9232967 46.759383 0 0 83.224609 109.51758 A 5.8465935 2.9232967 46.759383 0 0 83.605469 113.77734 A 2.9232967 5.8465935 43.240617 0 0 83.224609 118.03516 A 2.9232967 5.8465935 43.240617 0 0 84.34375 118.47852 A 2.9232967 5.8465935 43.240617 0 0 87.230469 117.53906 A 5.8465935 2.9232967 46.759383 0 0 91.234375 118.03516 A 5.8465935 2.9232967 46.759383 0 0 90.861328 113.77734 A 2.9232967 5.8465935 43.240617 0 0 91.765625 110.94336 z M 6.2207031 84.253906 L 8.2890625 85.111328 L 9.1445312 87.177734 L 8.2890625 89.246094 L 6.2207031 90.101562 L 4.1523438 89.246094 L 3.296875 87.177734 L 4.1523438 85.111328 L 6.2207031 84.253906 z M 113.7793 84.253906 L 115.84766 85.111328 L 116.70312 87.177734 L 115.84766 89.246094 L 113.7793 90.101562 L 111.71094 89.246094 L 110.85547 87.177734 L 111.71094 85.111328 L 113.7793 84.253906 z M 6.2207031 93.322266 L 8.2890625 94.177734 L 9.1445312 96.246094 L 8.2890625 98.314453 L 6.2207031 99.169922 L 4.1523438 98.314453 L 3.296875 96.246094 L 4.1523438 94.177734 L 6.2207031 93.322266 z M 113.7793 93.322266 L 115.84766 94.177734 L 116.70312 96.246094 L 115.84766 98.314453 L 113.7793 99.169922 L 111.71094 98.314453 L 110.85547 96.246094 L 111.71094 94.177734 L 113.7793 93.322266 z M 6.2207031 102.39062 L 8.2890625 103.24805 L 9.1445312 105.31445 L 8.2890625 107.38281 L 6.2207031 108.23828 L 4.1523438 107.38281 L 3.296875 105.31445 L 4.1523438 103.24805 L 6.2207031 102.39062 z M 113.7793 102.39062 L 115.84766 103.24805 L 116.70312 105.31445 L 115.84766 107.38281 L 113.7793 108.23828 L 111.71094 107.38281 L 110.85547 105.31445 L 111.71094 103.24805 L 113.7793 102.39062 z M 6.2226562 108.94141 A 5.8465935 2.9232967 43.240617 0 0 7.0957031 109.31836 A 2.9232967 5.8465935 43.240617 0 0 5.6152344 110.01562 A 5.8465935 2.9232967 46.759383 0 0 4.7148438 109.5918 A 2.9232967 5.8465935 46.759383 0 0 6.2226562 108.94141 z M 113.77734 108.94141 A 5.8465935 2.9232967 43.240617 0 0 115.31055 109.60352 A 2.9232967 5.8465935 43.240617 0 0 114.43555 110.01562 A 5.8465935 2.9232967 46.759383 0 0 112.93164 109.30664 A 2.9232967 5.8465935 46.759383 0 0 113.77734 108.94141 z M 38.892578 109.08789 A 5.8465935 2.9232967 46.759383 0 0 37.882812 109.51758 A 5.8465935 2.9232967 46.759383 0 0 38.263672 113.77734 A 2.9232967 5.8465935 43.240617 0 0 37.882812 118.03516 A 2.9232967 5.8465935 43.240617 0 0 39.003906 118.47852 A 2.9232967 5.8465935 43.240617 0 0 41.888672 117.53906 A 5.8465935 2.9232967 46.759383 0 0 44.630859 118.48047 A 5.8465935 2.9232967 46.759383 0 0 45.894531 118.03516 A 5.8465935 2.9232967 46.759383 0 0 45.519531 113.77734 A 2.9232967 5.8465935 43.240617 0 0 45.894531 109.51758 A 2.9232967 5.8465935 43.240617 0 0 41.888672 110.01562 A 5.8465935 2.9232967 46.759383 0 0 38.892578 109.08789 z M 47.960938 109.08789 A 5.8465935 2.9232967 46.759383 0 0 46.951172 109.51758 A 5.8465935 2.9232967 46.759383 0 0 47.332031 113.77734 A 2.9232967 5.8465935 43.240617 0 0 46.951172 118.03516 A 2.9232967 5.8465935 43.240617 0 0 48.070312 118.47852 A 2.9232967 5.8465935 43.240617 0 0 50.957031 117.53906 A 5.8465935 2.9232967 46.759383 0 0 54.960938 118.03516 A 5.8465935 2.9232967 46.759383 0 0 54.587891 113.77734 A 2.9232967 5.8465935 43.240617 0 0 55.492188 110.94336 A 2.9232967 5.8465935 43.240617 0 0 54.960938 109.51758 A 2.9232967 5.8465935 43.240617 0 0 50.957031 110.01562 A 5.8465935 2.9232967 46.759383 0 0 47.960938 109.08789 z M 55.492188 110.94336 A 5.8465935 2.9232967 46.759383 0 0 56.400391 113.77734 A 2.9232967 5.8465935 43.240617 0 0 56.019531 118.03516 A 2.9232967 5.8465935 43.240617 0 0 57.140625 118.47852 A 2.9232967 5.8465935 43.240617 0 0 60.025391 117.53906 A 5.8465935 2.9232967 46.759383 0 0 62.767578 118.48047 A 5.8465935 2.9232967 46.759383 0 0 64.03125 118.03516 A 5.8465935 2.9232967 46.759383 0 0 63.65625 113.77734 A 2.9232967 5.8465935 43.240617 0 0 64.5625 110.94336 A 5.8465935 2.9232967 46.759383 0 0 65.46875 113.77734 A 2.9232967 5.8465935 43.240617 0 0 65.087891 118.03516 A 2.9232967 5.8465935 43.240617 0 0 66.207031 118.47852 A 2.9232967 5.8465935 43.240617 0 0 69.09375 117.53906 A 5.8465935 2.9232967 46.759383 0 0 73.097656 118.03516 A 5.8465935 2.9232967 46.759383 0 0 72.724609 113.77734 A 2.9232967 5.8465935 43.240617 0 0 73.097656 109.51758 A 2.9232967 5.8465935 43.240617 0 0 69.09375 110.01562 A 5.8465935 2.9232967 46.759383 0 0 65.087891 109.51758 A 5.8465935 2.9232967 46.759383 0 0 64.5625 110.94141 A 2.9232967 5.8465935 43.240617 0 0 64.03125 109.51758 A 2.9232967 5.8465935 43.240617 0 0 60.025391 110.01562 A 5.8465935 2.9232967 46.759383 0 0 56.019531 109.51758 A 5.8465935 2.9232967 46.759383 0 0 55.492188 110.94336 z M 75.166016 109.08789 A 5.8465935 2.9232967 46.759383 0 0 74.15625 109.51758 A 5.8465935 2.9232967 46.759383 0 0 74.537109 113.77734 A 2.9232967 5.8465935 43.240617 0 0 74.15625 118.03516 A 2.9232967 5.8465935 43.240617 0 0 75.277344 118.47852 A 2.9232967 5.8465935 43.240617 0 0 78.162109 117.53906 A 5.8465935 2.9232967 46.759383 0 0 80.904297 118.48047 A 5.8465935 2.9232967 46.759383 0 0 82.167969 118.03516 A 5.8465935 2.9232967 46.759383 0 0 81.792969 113.77734 A 2.9232967 5.8465935 43.240617 0 0 82.167969 109.51758 A 2.9232967 5.8465935 43.240617 0 0 78.162109 110.01562 A 5.8465935 2.9232967 46.759383 0 0 75.166016 109.08789 z M 1.0292969 110.41602 A 2.9232967 5.8465935 43.240617 0 1 1.0292969 111.55078 L 1.0292969 110.41602 z M 14.685547 110.85547 L 16.751953 111.71094 L 17.609375 113.7793 L 16.751953 115.84766 L 14.685547 116.70312 L 12.617188 115.84766 L 11.761719 113.7793 L 12.617188 111.71094 L 14.685547 110.85547 z M 23.753906 110.85547 L 25.822266 111.71094 L 26.677734 113.7793 L 25.822266 115.84766 L 23.753906 116.70312 L 21.685547 115.84766 L 20.830078 113.7793 L 21.685547 111.71094 L 23.753906 110.85547 z M 32.822266 110.85547 L 34.888672 111.71094 L 35.746094 113.7793 L 34.888672 115.84766 L 32.822266 116.70312 L 30.753906 115.84766 L 29.898438 113.7793 L 30.753906 111.71094 L 32.822266 110.85547 z M 41.890625 110.85547 L 43.958984 111.71094 L 44.814453 113.7793 L 43.958984 115.84766 L 41.890625 116.70312 L 39.822266 115.84766 L 38.966797 113.7793 L 39.822266 111.71094 L 41.890625 110.85547 z M 50.958984 110.85547 L 53.025391 111.71094 L 53.882812 113.7793 L 53.025391 115.84766 L 50.958984 116.70312 L 48.890625 115.84766 L 48.035156 113.7793 L 48.890625 111.71094 L 50.958984 110.85547 z M 60.027344 110.85547 L 62.095703 111.71094 L 62.951172 113.7793 L 62.095703 115.84766 L 60.027344 116.70312 L 57.958984 115.84766 L 57.103516 113.7793 L 57.958984 111.71094 L 60.027344 110.85547 z M 69.095703 110.85547 L 71.162109 111.71094 L 72.019531 113.7793 L 71.162109 115.84766 L 69.095703 116.70312 L 67.027344 115.84766 L 66.171875 113.7793 L 67.027344 111.71094 L 69.095703 110.85547 z M 78.164062 110.85547 L 80.232422 111.71094 L 81.087891 113.7793 L 80.232422 115.84766 L 78.164062 116.70312 L 76.095703 115.84766 L 75.240234 113.7793 L 76.095703 111.71094 L 78.164062 110.85547 z M 87.232422 110.85547 L 89.298828 111.71094 L 90.15625 113.7793 L 89.298828 115.84766 L 87.232422 116.70312 L 85.164062 115.84766 L 84.308594 113.7793 L 85.164062 111.71094 L 87.232422 110.85547 z M 96.300781 110.85547 L 98.369141 111.71094 L 99.224609 113.7793 L 98.369141 115.84766 L 96.300781 116.70312 L 94.232422 115.84766 L 93.376953 113.7793 L 94.232422 111.71094 L 96.300781 110.85547 z M 105.36914 110.85547 L 107.43555 111.71094 L 108.29297 113.7793 L 107.43555 115.84766 L 105.36914 116.70312 L 103.30078 115.84766 L 102.44531 113.7793 L 103.30078 111.71094 L 105.36914 110.85547 z M 6.2207031 111.45898 L 7.8613281 112.13867 L 8.5410156 113.7793 L 7.6855469 115.84766 L 5.6171875 116.70312 L 3.9765625 116.02344 L 3.296875 114.38281 L 4.1523438 112.31445 L 6.2207031 111.45898 z M 113.7793 111.45898 L 115.84766 112.31445 L 116.70312 114.38281 L 116.01367 116.05078 L 114.4375 116.70312 L 112.36914 115.84766 L 111.51367 113.7793 L 112.20312 112.11133 L 113.7793 111.45898 z M 10.681641 112.9043 A 5.8465935 2.9232967 46.759383 0 0 11.058594 113.77734 A 2.9232967 5.8465935 43.240617 0 0 10.408203 115.28516 A 5.8465935 2.9232967 43.240617 0 0 9.984375 114.38477 A 2.9232967 5.8465935 46.759383 0 0 10.681641 112.9043 z M 109.34766 112.9668 A 5.8465935 2.9232967 43.240617 0 0 110.01562 114.38477 A 2.9232967 5.8465935 46.759383 0 0 109.64258 115.17969 A 5.8465935 2.9232967 46.759383 0 0 108.99805 113.77734 A 2.9232967 5.8465935 43.240617 0 0 109.34766 112.9668 z M 1.0292969 116.12891 A 5.8465935 2.9232967 46.759383 0 1 1.0292969 116.7793 L 1.0292969 116.12891 z M 3.2207031 118.9707 L 3.8710938 118.9707 A 5.8465935 2.9232967 43.240617 0 0 3.2207031 118.9707 z M 8.4492188 118.9707 L 9.5839844 118.9707 A 2.9232967 5.8465935 46.759383 0 0 8.4492188 118.9707 z M 110.41602 118.9707 A 5.8465935 2.9232967 43.240617 0 1 111.55078 118.9707 L 110.41602 118.9707 z M 116.12891 118.9707 A 2.9232967 5.8465935 46.759383 0 1 116.7793 118.9707 L 116.12891 118.9707 z " />
  </g>
</svg>
