<?xml version="1.0" encoding="UTF-8" standalone="no"?>
<!-- Created with Inkscape (http://www.inkscape.org/) -->

<svg
   width="120"
   height="120"
   viewBox="0 0 120 120"
   version="1.1"
   id="svg1"
   inkscape:version="1.4 (86a8ad7, 2024-10-11)"
   sodipodi:docname="border_10.svg"
   xmlns:inkscape="http://www.inkscape.org/namespaces/inkscape"
   xmlns:sodipodi="http://sodipodi.sourceforge.net/DTD/sodipodi-0.dtd"
   xmlns="http://www.w3.org/2000/svg"
   xmlns:svg="http://www.w3.org/2000/svg">
  <sodipodi:namedview
     id="namedview1"
     pagecolor="#ffffff"
     bordercolor="#000000"
     borderopacity="0.25"
     inkscape:showpageshadow="2"
     inkscape:pageopacity="0.0"
     inkscape:pagecheckerboard="0"
     inkscape:deskcolor="#d1d1d1"
     inkscape:document-units="px"
     inkscape:zoom="4.331029"
     inkscape:cx="73.077321"
     inkscape:cy="56.91488"
     inkscape:window-width="1920"
     inkscape:window-height="974"
     inkscape:window-x="-11"
     inkscape:window-y="-11"
     inkscape:window-maximized="1"
     inkscape:current-layer="layer1" />
  <defs
     id="defs1" />
  <g
     inkscape:label="Layer 1"
     inkscape:groupmode="layer"
     id="layer1">
    <path
       id="rect1"
       style="fill:#0000ff;stroke:none;stroke-width:1.204"
       d="M 0.1015625 -0.1015625 L 0.1015625 -0.07421875 L 0 -0.07421875 L 0 3.6621094 L 0.1015625 3.5527344 L 0.1015625 3.6425781 L 1.1367188 2.5351562 A 3.1428568 3.1428568 0 0 0 0.734375 3.9667969 A 3.1428568 3.1428568 0 0 0 0.86132812 4.6347656 L 0.1015625 3.7578125 L 0.1015625 4.2617188 L 0 4.1445312 L 0 8.0078125 L 0.12890625 8.0078125 L 0.12890625 11.722656 L 1.2089844 10.566406 L 1.328125 8.9082031 L 2.9863281 8.8535156 L 3.9609375 8.0078125 L 4.5039062 8.0078125 L 5.4589844 8.9003906 L 7.1152344 9.015625 L 7.171875 10.677734 L 8.2109375 11.871094 L 8.2109375 7.9804688 L 11.824219 7.9804688 L 10.667969 6.9003906 L 9.0097656 6.78125 L 8.9550781 5.1230469 L 8.1835938 4.234375 L 8.1835938 3.90625 L 8.0371094 4.0644531 L 7.9179688 3.9277344 L 7.9179688 3.8105469 L 8.0644531 3.6523438 L 8.1835938 3.7890625 L 8.1835938 3.5253906 L 9.0019531 2.6503906 L 9.1171875 0.99414062 L 10.779297 0.9375 L 11.972656 -0.1015625 L 8.1835938 -0.1015625 L 7.9179688 -0.1015625 L 4.4472656 -0.1015625 L 4.4765625 -0.07421875 L 4.0078125 -0.07421875 L 4.921875 0.77929688 A 3.1428568 3.1428568 0 0 0 4.1425781 0.6328125 A 3.1428568 3.1428568 0 0 0 2.0410156 1.4492188 L 2.0839844 1.4492188 A 3.1428568 3.1428568 0 0 0 1.7753906 1.640625 L 5.9785156 1.640625 A 3.1428568 3.1428568 0 0 0 5.6699219 1.4492188 L 6.2441406 1.4492188 A 3.1428568 3.1428568 0 0 0 5.5800781 1.0371094 L 6.8242188 1.1269531 L 6.8632812 2.3105469 A 3.1428568 3.1428568 0 0 0 6.46875 1.6738281 L 6.46875 2.2949219 A 3.1428568 3.1428568 0 0 0 6.203125 1.8652344 L 6.203125 6.0683594 A 3.1428568 3.1428568 0 0 0 6.46875 5.6386719 L 6.46875 5.8769531 A 3.1428568 3.1428568 0 0 0 6.8320312 5.2910156 L 6.7285156 6.7304688 L 5.3222656 6.7773438 L 5.0996094 6.9707031 L 5.0546875 6.9726562 L 4.0820312 7.8144531 L 4.0097656 7.8144531 L 3.0996094 6.9628906 A 3.1428568 3.1428568 0 0 0 3.8769531 7.109375 A 3.1428568 3.1428568 0 0 0 5.9785156 6.2929688 L 5.9355469 6.2929688 A 3.1428568 3.1428568 0 0 0 6.2441406 6.1015625 L 2.0410156 6.1015625 A 3.1428568 3.1428568 0 0 0 2.3496094 6.2929688 L 1.7753906 6.2929688 A 3.1428568 3.1428568 0 0 0 2.4375 6.703125 L 1.1953125 6.6132812 L 1.1542969 5.4257812 A 3.1428568 3.1428568 0 0 0 1.5507812 6.0683594 L 1.5507812 5.4472656 A 3.1428568 3.1428568 0 0 0 1.8164062 5.8769531 L 1.8164062 1.6738281 A 3.1428568 3.1428568 0 0 0 1.5507812 2.1035156 L 1.5507812 1.8652344 A 3.1428568 3.1428568 0 0 0 1.1835938 2.4589844 L 1.2871094 1.0136719 L 2.6972656 0.96484375 L 2.9179688 0.7734375 L 2.9589844 0.77148438 L 3.9648438 -0.1015625 L 0.1015625 -0.1015625 z M 12.089844 -0.1015625 L 13.248047 0.98242188 L 14.90625 1.0996094 L 14.960938 2.7578125 L 15.998047 3.9550781 L 15.998047 3.8378906 L 17.082031 2.6777344 L 17.197266 1.0214844 L 18.859375 0.96484375 L 20.052734 -0.07421875 L 15.998047 -0.07421875 L 15.998047 -0.1015625 L 12.089844 -0.1015625 z M 20.171875 -0.07421875 L 21.330078 1.0078125 L 22.988281 1.1269531 L 23.015625 1.9570312 L 23.015625 3.0234375 A 3.1428568 3.1428568 0 0 0 22.367188 1.8652344 L 22.367188 6.0683594 A 3.1428568 3.1428568 0 0 0 23.015625 4.9082031 L 23.015625 5.2382812 L 23 5.2558594 L 22.880859 6.9140625 L 21.220703 6.9726562 L 20.025391 8.0078125 L 23.015625 8.0078125 L 23.015625 8.0820312 L 26.923828 8.0820312 L 25.767578 7.0019531 L 24.109375 6.8828125 L 24.082031 6.0820312 L 24.082031 4.9863281 A 3.1428568 3.1428568 0 0 0 24.730469 6.1425781 L 24.730469 1.9394531 A 3.1428568 3.1428568 0 0 0 24.082031 3.0957031 L 24.082031 2.7714844 L 24.099609 2.7519531 L 24.214844 1.0957031 L 25.876953 1.0390625 L 27.070312 0 L 24.082031 0 L 24.082031 -0.07421875 L 20.171875 -0.07421875 z M 27.1875 0 L 28.345703 1.0839844 L 30.003906 1.2011719 L 30.060547 2.8613281 L 31.097656 4.0566406 L 31.097656 3.9394531 L 32.181641 2.7792969 L 32.296875 1.1230469 L 33.958984 1.0664062 L 35.152344 0.02734375 L 31.097656 0.02734375 L 31.097656 0 L 27.1875 0 z M 31.097656 4.0566406 L 31.097656 4.1738281 L 30.015625 5.3300781 L 29.896484 6.9882812 L 28.236328 7.046875 L 27.041016 8.0820312 L 31.097656 8.0820312 L 31.097656 8.109375 L 35.005859 8.109375 L 33.849609 7.0292969 L 32.191406 6.9101562 L 32.134766 5.2519531 L 31.097656 4.0566406 z M 39.179688 0 L 39.179688 0.02734375 L 35.269531 0.02734375 L 36.427734 1.1113281 L 38.085938 1.2285156 L 38.142578 2.8886719 L 39.179688 4.0839844 L 39.179688 4.2011719 L 38.097656 5.3574219 L 37.978516 7.015625 L 36.318359 7.0742188 L 35.123047 8.109375 L 39.179688 8.109375 L 39.179688 8.0820312 L 43.087891 8.0820312 L 41.931641 7.0019531 L 40.273438 6.8828125 L 40.216797 5.2246094 L 39.179688 4.0292969 L 39.179688 3.9121094 L 40.263672 2.7519531 L 40.378906 1.0957031 L 42.041016 1.0390625 L 43.234375 0 L 39.179688 0 z M 43.351562 0 L 44.509766 1.0839844 L 46.167969 1.2011719 L 46.224609 2.8613281 L 47.261719 4.0566406 L 47.261719 3.9394531 L 48.345703 2.7792969 L 48.460938 1.1230469 L 50.123047 1.0664062 L 51.316406 0.02734375 L 47.261719 0.02734375 L 47.261719 0 L 43.351562 0 z M 47.261719 4.0566406 L 47.261719 4.1738281 L 46.179688 5.3300781 L 46.060547 6.9882812 L 44.400391 7.046875 L 43.205078 8.0820312 L 47.261719 8.0820312 L 47.261719 8.109375 L 51.169922 8.109375 L 50.013672 7.0292969 L 48.355469 6.9101562 L 48.298828 5.2519531 L 47.261719 4.0566406 z M 55.34375 0 L 55.34375 0.02734375 L 51.433594 0.02734375 L 52.591797 1.1113281 L 54.25 1.2285156 L 54.306641 2.8886719 L 55.34375 4.0839844 L 55.34375 4.2011719 L 54.261719 5.3574219 L 54.142578 7.015625 L 52.482422 7.0742188 L 51.287109 8.109375 L 55.34375 8.109375 L 55.34375 8.0820312 L 59.251953 8.0820312 L 58.095703 7.0019531 L 56.4375 6.8828125 L 56.380859 5.2246094 L 55.34375 4.0292969 L 55.34375 3.9121094 L 56.427734 2.7519531 L 56.542969 1.0957031 L 58.205078 1.0390625 L 59.398438 0 L 55.34375 0 z M 59.515625 0 L 60.673828 1.0839844 L 62.332031 1.2011719 L 62.388672 2.8613281 L 63.425781 4.0566406 L 63.425781 3.9394531 L 64.509766 2.7792969 L 64.625 1.1230469 L 66.287109 1.0664062 L 67.480469 0.02734375 L 63.425781 0.02734375 L 63.425781 0 L 59.515625 0 z M 63.425781 4.0566406 L 63.425781 4.1738281 L 62.34375 5.3300781 L 62.224609 6.9882812 L 60.564453 7.046875 L 59.369141 8.0820312 L 63.425781 8.0820312 L 63.425781 8.109375 L 67.333984 8.109375 L 66.177734 7.0292969 L 64.519531 6.9101562 L 64.462891 5.2519531 L 63.425781 4.0566406 z M 71.507812 0 L 71.507812 0.02734375 L 67.597656 0.02734375 L 68.755859 1.1113281 L 70.414062 1.2285156 L 70.470703 2.8886719 L 71.507812 4.0839844 L 71.507812 4.2011719 L 70.425781 5.3574219 L 70.306641 7.015625 L 68.646484 7.0742188 L 67.451172 8.109375 L 71.507812 8.109375 L 71.507812 8.0820312 L 75.416016 8.0820312 L 74.259766 7.0019531 L 72.601562 6.8828125 L 72.544922 5.2246094 L 71.507812 4.0292969 L 71.507812 3.9121094 L 72.591797 2.7519531 L 72.707031 1.0957031 L 74.369141 1.0390625 L 75.5625 0 L 71.507812 0 z M 75.679688 0 L 76.837891 1.0839844 L 78.496094 1.2011719 L 78.552734 2.8613281 L 79.589844 4.0566406 L 79.589844 3.9394531 L 80.673828 2.7792969 L 80.789062 1.1230469 L 82.451172 1.0664062 L 83.644531 0.02734375 L 79.589844 0.02734375 L 79.589844 0 L 75.679688 0 z M 79.589844 4.0566406 L 79.589844 4.1738281 L 78.507812 5.3300781 L 78.388672 6.9882812 L 76.728516 7.046875 L 75.533203 8.0820312 L 79.589844 8.0820312 L 79.589844 8.109375 L 83.498047 8.109375 L 82.341797 7.0292969 L 80.683594 6.9101562 L 80.626953 5.2519531 L 79.589844 4.0566406 z M 87.671875 0 L 87.671875 0.02734375 L 83.761719 0.02734375 L 84.919922 1.1113281 L 86.578125 1.2285156 L 86.634766 2.8886719 L 87.671875 4.0839844 L 87.671875 4.2011719 L 86.589844 5.3574219 L 86.470703 7.015625 L 84.810547 7.0742188 L 83.615234 8.109375 L 87.671875 8.109375 L 87.671875 8.0820312 L 91.580078 8.0820312 L 90.423828 7.0019531 L 88.765625 6.8828125 L 88.708984 5.2246094 L 87.671875 4.0292969 L 87.671875 3.9121094 L 88.755859 2.7519531 L 88.871094 1.0957031 L 90.533203 1.0390625 L 91.726562 0 L 87.671875 0 z M 91.84375 0 L 93.001953 1.0839844 L 94.660156 1.2011719 L 94.716797 2.8613281 L 95.753906 4.0566406 L 95.753906 3.9394531 L 96.837891 2.7792969 L 96.953125 1.1230469 L 98.615234 1.0664062 L 99.808594 0.02734375 L 95.753906 0.02734375 L 95.753906 0 L 91.84375 0 z M 95.753906 4.0566406 L 95.753906 4.1738281 L 94.671875 5.3300781 L 94.552734 6.9882812 L 92.892578 7.046875 L 91.697266 8.0820312 L 95.753906 8.0820312 L 95.753906 8.109375 L 99.662109 8.109375 L 98.505859 7.0292969 L 96.847656 6.9101562 L 96.791016 5.2519531 L 95.753906 4.0566406 z M 103.83594 0 L 103.83594 0.02734375 L 99.925781 0.02734375 L 101.08398 1.1113281 L 102.74219 1.2285156 L 102.79883 2.8886719 L 103.83594 4.0839844 L 103.83594 4.2011719 L 102.75391 5.3574219 L 102.63477 7.015625 L 100.97461 7.0742188 L 99.779297 8.109375 L 103.83594 8.109375 L 103.83594 8.0820312 L 107.74414 8.0820312 L 106.58789 7.0019531 L 104.92969 6.8828125 L 104.87305 5.2246094 L 103.83594 4.0292969 L 103.83594 3.9121094 L 104.91992 2.7519531 L 105.03516 1.0957031 L 106.69727 1.0390625 L 107.89062 0 L 103.83594 0 z M 108.00781 0 L 109.16602 1.0839844 L 110.82422 1.2011719 L 110.88086 2.8613281 L 111.91797 4.0566406 L 111.91797 4.1738281 L 110.83594 5.3300781 L 110.7168 6.9882812 L 109.05664 7.046875 L 107.86133 8.0820312 L 111.89062 8.0820312 L 111.89062 11.992188 L 112.97461 10.833984 L 113.0918 9.1757812 L 114.75195 9.1191406 L 115.94727 8.0820312 L 115.83008 8.0820312 L 114.66992 6.9980469 L 113.01367 6.8828125 L 112.95703 5.2207031 L 111.91797 4.0273438 L 111.91797 3.9394531 L 113.00195 2.7792969 L 113.11719 1.1230469 L 114.7793 1.0664062 L 115.97266 0.02734375 L 115.94336 0.02734375 L 115.97461 0 L 111.91797 0 L 108.00781 0 z M 115.94727 8.0820312 L 115.97461 8.0820312 L 115.94336 8.109375 L 116.09375 8.109375 L 117.2207 9.1640625 L 118.87891 9.2832031 L 118.9375 10.943359 L 119.97266 12.138672 L 119.97266 8.109375 L 120 8.109375 L 120 8.0820312 L 120 4.2011719 L 120 4.1738281 L 118.91992 5.3300781 L 118.91797 5.3574219 L 118.80078 6.9882812 L 117.14258 7.0449219 L 115.94727 8.0820312 z M 116.0918 0 L 116.12109 0.02734375 L 116.08984 0.02734375 L 117.24805 1.1113281 L 118.90625 1.2285156 L 118.96289 2.8886719 L 120 4.0839844 L 120 4.0566406 L 120 0.02734375 L 120 0 L 116.0918 0 z M 11.958984 0.796875 A 3.1428568 3.1428568 0 0 0 9.8574219 1.6132812 L 14.060547 1.6132812 A 3.1428568 3.1428568 0 0 0 11.958984 0.796875 z M 20.041016 0.82421875 A 3.1428568 3.1428568 0 0 0 17.939453 1.640625 L 22.142578 1.640625 A 3.1428568 3.1428568 0 0 0 20.041016 0.82421875 z M 27.056641 0.8984375 A 3.1428568 3.1428568 0 0 0 24.955078 1.7148438 L 29.158203 1.7148438 A 3.1428568 3.1428568 0 0 0 27.056641 0.8984375 z M 43.220703 0.8984375 A 3.1428568 3.1428568 0 0 0 41.119141 1.7148438 L 45.322266 1.7148438 A 3.1428568 3.1428568 0 0 0 43.220703 0.8984375 z M 59.384766 0.8984375 A 3.1428568 3.1428568 0 0 0 57.283203 1.7148438 L 61.486328 1.7148438 A 3.1428568 3.1428568 0 0 0 59.384766 0.8984375 z M 75.548828 0.8984375 A 3.1428568 3.1428568 0 0 0 73.447266 1.7148438 L 77.650391 1.7148438 A 3.1428568 3.1428568 0 0 0 75.548828 0.8984375 z M 91.712891 0.8984375 A 3.1428568 3.1428568 0 0 0 89.611328 1.7148438 L 93.814453 1.7148438 A 3.1428568 3.1428568 0 0 0 91.712891 0.8984375 z M 107.87695 0.8984375 A 3.1428568 3.1428568 0 0 0 105.77539 1.7148438 L 109.97852 1.7148438 A 3.1428568 3.1428568 0 0 0 107.87695 0.8984375 z M 115.95898 0.8984375 A 3.1428568 3.1428568 0 0 0 113.85742 1.7148438 L 113.90234 1.7148438 A 3.1428568 3.1428568 0 0 0 113.85742 1.7421875 L 118.06055 1.7421875 A 3.1428568 3.1428568 0 0 0 118.01562 1.7148438 L 118.06055 1.7148438 A 3.1428568 3.1428568 0 0 0 115.95898 0.8984375 z M 35.138672 0.92578125 A 3.1428568 3.1428568 0 0 0 33.037109 1.7421875 L 37.240234 1.7421875 A 3.1428568 3.1428568 0 0 0 35.138672 0.92578125 z M 51.302734 0.92578125 A 3.1428568 3.1428568 0 0 0 49.201172 1.7421875 L 53.404297 1.7421875 A 3.1428568 3.1428568 0 0 0 51.302734 0.92578125 z M 67.466797 0.92578125 A 3.1428568 3.1428568 0 0 0 65.365234 1.7421875 L 69.568359 1.7421875 A 3.1428568 3.1428568 0 0 0 67.466797 0.92578125 z M 83.630859 0.92578125 A 3.1428568 3.1428568 0 0 0 81.529297 1.7421875 L 85.732422 1.7421875 A 3.1428568 3.1428568 0 0 0 83.630859 0.92578125 z M 99.794922 0.92578125 A 3.1428568 3.1428568 0 0 0 97.693359 1.7421875 L 101.89648 1.7421875 A 3.1428568 3.1428568 0 0 0 99.794922 0.92578125 z M 9.6328125 1.8378906 A 3.1428568 3.1428568 0 0 0 8.8164062 3.9394531 A 3.1428568 3.1428568 0 0 0 9.6328125 6.0390625 L 9.6328125 1.8378906 z M 14.285156 1.8378906 L 14.285156 6.0390625 A 3.1428568 3.1428568 0 0 0 15.101562 3.9394531 A 3.1428568 3.1428568 0 0 0 14.285156 1.8378906 z M 17.714844 1.8652344 A 3.1428568 3.1428568 0 0 0 16.898438 3.9667969 A 3.1428568 3.1428568 0 0 0 17.714844 6.0683594 L 17.714844 1.8652344 z M 29.382812 1.9394531 L 29.382812 6.1425781 A 3.1428568 3.1428568 0 0 0 30.199219 4.0410156 A 3.1428568 3.1428568 0 0 0 29.382812 1.9394531 z M 40.894531 1.9394531 A 3.1428568 3.1428568 0 0 0 40.078125 4.0410156 A 3.1428568 3.1428568 0 0 0 40.894531 6.1425781 L 40.894531 1.9394531 z M 45.546875 1.9394531 L 45.546875 6.1425781 A 3.1428568 3.1428568 0 0 0 46.363281 4.0410156 A 3.1428568 3.1428568 0 0 0 45.546875 1.9394531 z M 57.058594 1.9394531 A 3.1428568 3.1428568 0 0 0 56.242188 4.0410156 A 3.1428568 3.1428568 0 0 0 57.058594 6.1425781 L 57.058594 1.9394531 z M 61.710938 1.9394531 L 61.710938 6.1425781 A 3.1428568 3.1428568 0 0 0 62.527344 4.0410156 A 3.1428568 3.1428568 0 0 0 61.710938 1.9394531 z M 73.222656 1.9394531 A 3.1428568 3.1428568 0 0 0 72.40625 4.0410156 A 3.1428568 3.1428568 0 0 0 73.222656 6.1425781 L 73.222656 1.9394531 z M 77.875 1.9394531 L 77.875 6.1425781 A 3.1428568 3.1428568 0 0 0 78.691406 4.0410156 A 3.1428568 3.1428568 0 0 0 77.875 1.9394531 z M 89.386719 1.9394531 A 3.1428568 3.1428568 0 0 0 88.570312 4.0410156 A 3.1428568 3.1428568 0 0 0 89.386719 6.1425781 L 89.386719 1.9394531 z M 94.039062 1.9394531 L 94.039062 6.1425781 A 3.1428568 3.1428568 0 0 0 94.855469 4.0410156 A 3.1428568 3.1428568 0 0 0 94.039062 1.9394531 z M 105.55078 1.9394531 A 3.1428568 3.1428568 0 0 0 104.73438 4.0410156 A 3.1428568 3.1428568 0 0 0 105.55078 6.1425781 L 105.55078 1.9394531 z M 110.20312 1.9394531 L 110.20312 6.1425781 A 3.1428568 3.1428568 0 0 0 111.01953 4.0410156 A 3.1428568 3.1428568 0 0 0 110.20312 1.9394531 z M 113.63281 1.9394531 A 3.1428568 3.1428568 0 0 0 112.81641 4.0410156 A 3.1428568 3.1428568 0 0 0 112.81836 4.0546875 A 3.1428568 3.1428568 0 0 0 112.81641 4.0683594 A 3.1428568 3.1428568 0 0 0 113.63281 6.1699219 L 113.63281 6.1425781 L 113.63281 1.9667969 L 113.63281 1.9394531 z M 118.28516 1.9394531 L 118.28516 1.9667969 L 118.28516 6.1425781 L 118.28516 6.1699219 A 3.1428568 3.1428568 0 0 0 119.10156 4.0683594 A 3.1428568 3.1428568 0 0 0 119.09961 4.0546875 A 3.1428568 3.1428568 0 0 0 119.10156 4.0410156 A 3.1428568 3.1428568 0 0 0 118.28516 1.9394531 z M 32.8125 1.9667969 A 3.1428568 3.1428568 0 0 0 31.996094 4.0683594 A 3.1428568 3.1428568 0 0 0 32.8125 6.1699219 L 32.8125 1.9667969 z M 37.464844 1.9667969 L 37.464844 6.1699219 A 3.1428568 3.1428568 0 0 0 38.28125 4.0683594 A 3.1428568 3.1428568 0 0 0 37.464844 1.9667969 z M 48.976562 1.9667969 A 3.1428568 3.1428568 0 0 0 48.160156 4.0683594 A 3.1428568 3.1428568 0 0 0 48.976562 6.1699219 L 48.976562 1.9667969 z M 53.628906 1.9667969 L 53.628906 6.1699219 A 3.1428568 3.1428568 0 0 0 54.445312 4.0683594 A 3.1428568 3.1428568 0 0 0 53.628906 1.9667969 z M 65.140625 1.9667969 A 3.1428568 3.1428568 0 0 0 64.324219 4.0683594 A 3.1428568 3.1428568 0 0 0 65.140625 6.1699219 L 65.140625 1.9667969 z M 69.792969 1.9667969 L 69.792969 6.1699219 A 3.1428568 3.1428568 0 0 0 70.609375 4.0683594 A 3.1428568 3.1428568 0 0 0 69.792969 1.9667969 z M 81.304688 1.9667969 A 3.1428568 3.1428568 0 0 0 80.488281 4.0683594 A 3.1428568 3.1428568 0 0 0 81.304688 6.1699219 L 81.304688 1.9667969 z M 85.957031 1.9667969 L 85.957031 6.1699219 A 3.1428568 3.1428568 0 0 0 86.773438 4.0683594 A 3.1428568 3.1428568 0 0 0 85.957031 1.9667969 z M 97.46875 1.9667969 A 3.1428568 3.1428568 0 0 0 96.652344 4.0683594 A 3.1428568 3.1428568 0 0 0 97.46875 6.1699219 L 97.46875 1.9667969 z M 102.12109 1.9667969 L 102.12109 6.1699219 A 3.1428568 3.1428568 0 0 0 102.9375 4.0683594 A 3.1428568 3.1428568 0 0 0 102.12109 1.9667969 z M 7.1601562 3.1113281 L 7.9160156 3.9824219 L 7.9160156 4.0996094 L 6.890625 5.1953125 A 3.1428568 3.1428568 0 0 0 7.2851562 3.7753906 A 3.1428568 3.1428568 0 0 0 7.1601562 3.1113281 z M 23.537109 3.3554688 L 23.941406 3.8203125 A 3.1428568 3.1428568 0 0 0 23.914062 4.0410156 A 3.1428568 3.1428568 0 0 0 23.941406 4.25 L 23.560547 4.65625 L 23.154297 4.1894531 A 3.1428568 3.1428568 0 0 0 23.183594 3.9667969 A 3.1428568 3.1428568 0 0 0 23.15625 3.7597656 L 23.537109 3.3554688 z M 16 3.9550781 L 16 4.0703125 L 14.917969 5.2265625 L 14.798828 6.8867188 L 13.138672 6.9453125 L 11.943359 7.9804688 L 16 7.9804688 L 16 8.0078125 L 19.908203 8.0078125 L 18.751953 6.9277344 L 17.09375 6.8085938 L 17.037109 5.1503906 L 16 3.9550781 z M 9.8574219 6.265625 A 3.1428568 3.1428568 0 0 0 11.958984 7.0820312 A 3.1428568 3.1428568 0 0 0 14.060547 6.265625 L 9.8574219 6.265625 z M 17.939453 6.2929688 A 3.1428568 3.1428568 0 0 0 20.041016 7.109375 A 3.1428568 3.1428568 0 0 0 22.142578 6.2929688 L 17.939453 6.2929688 z M 24.955078 6.3671875 A 3.1428568 3.1428568 0 0 0 27.056641 7.1835938 A 3.1428568 3.1428568 0 0 0 29.158203 6.3671875 L 24.955078 6.3671875 z M 41.119141 6.3671875 A 3.1428568 3.1428568 0 0 0 43.220703 7.1835938 A 3.1428568 3.1428568 0 0 0 45.322266 6.3671875 L 41.119141 6.3671875 z M 57.283203 6.3671875 A 3.1428568 3.1428568 0 0 0 59.384766 7.1835938 A 3.1428568 3.1428568 0 0 0 61.486328 6.3671875 L 57.283203 6.3671875 z M 73.447266 6.3671875 A 3.1428568 3.1428568 0 0 0 75.548828 7.1835938 A 3.1428568 3.1428568 0 0 0 77.650391 6.3671875 L 73.447266 6.3671875 z M 89.611328 6.3671875 A 3.1428568 3.1428568 0 0 0 91.712891 7.1835938 A 3.1428568 3.1428568 0 0 0 93.814453 6.3671875 L 89.611328 6.3671875 z M 105.77539 6.3671875 A 3.1428568 3.1428568 0 0 0 107.87695 7.1835938 A 3.1428568 3.1428568 0 0 0 109.97852 6.3671875 L 105.77539 6.3671875 z M 113.85742 6.3671875 A 3.1428568 3.1428568 0 0 0 113.90234 6.3945312 L 113.85742 6.3945312 A 3.1428568 3.1428568 0 0 0 115.95898 7.2109375 A 3.1428568 3.1428568 0 0 0 118.06055 6.3945312 L 118.01562 6.3945312 A 3.1428568 3.1428568 0 0 0 118.06055 6.3671875 L 113.85742 6.3671875 z M 33.037109 6.3945312 A 3.1428568 3.1428568 0 0 0 35.138672 7.2109375 A 3.1428568 3.1428568 0 0 0 37.240234 6.3945312 L 33.037109 6.3945312 z M 49.201172 6.3945312 A 3.1428568 3.1428568 0 0 0 51.302734 7.2109375 A 3.1428568 3.1428568 0 0 0 53.404297 6.3945312 L 49.201172 6.3945312 z M 65.365234 6.3945312 A 3.1428568 3.1428568 0 0 0 67.466797 7.2109375 A 3.1428568 3.1428568 0 0 0 69.568359 6.3945312 L 65.365234 6.3945312 z M 81.529297 6.3945312 A 3.1428568 3.1428568 0 0 0 83.630859 7.2109375 A 3.1428568 3.1428568 0 0 0 85.732422 6.3945312 L 81.529297 6.3945312 z M 97.693359 6.3945312 A 3.1428568 3.1428568 0 0 0 99.794922 7.2109375 A 3.1428568 3.1428568 0 0 0 101.89648 6.3945312 L 97.693359 6.3945312 z M 4.1699219 8.7148438 A 3.1428568 3.1428568 0 0 0 2.0703125 9.53125 L 6.2714844 9.53125 A 3.1428568 3.1428568 0 0 0 4.1699219 8.7148438 z M 115.93164 8.9804688 A 3.1428568 3.1428568 0 0 0 113.83008 9.796875 L 118.0332 9.796875 A 3.1428568 3.1428568 0 0 0 115.93164 8.9804688 z M 1.84375 9.7558594 A 3.1428568 3.1428568 0 0 0 1.0273438 11.857422 A 3.1428568 3.1428568 0 0 0 1.84375 13.958984 L 1.84375 9.7558594 z M 6.4960938 9.7558594 L 6.4960938 13.958984 A 3.1428568 3.1428568 0 0 0 7.3125 11.857422 A 3.1428568 3.1428568 0 0 0 6.4960938 9.7558594 z M 113.60547 10.021484 A 3.1428568 3.1428568 0 0 0 112.78906 12.123047 A 3.1428568 3.1428568 0 0 0 113.60547 14.224609 L 113.60547 10.021484 z M 118.25781 10.021484 L 118.25781 14.224609 A 3.1428568 3.1428568 0 0 0 119.07422 12.123047 A 3.1428568 3.1428568 0 0 0 118.25781 10.021484 z M 0.12890625 11.841797 L 0.12890625 15.898438 L 0.1015625 15.898438 L 0.1015625 19.806641 L 1.1816406 18.650391 L 1.3007812 16.992188 L 2.9589844 16.935547 L 4.1542969 15.898438 L 4.0390625 15.898438 L 2.8828125 14.816406 L 1.2226562 14.697266 L 1.1640625 13.037109 L 0.12890625 11.841797 z M 8.2109375 11.988281 L 7.1269531 13.146484 L 7.0097656 14.804688 L 5.3515625 14.859375 L 4.1542969 15.896484 L 4.2714844 15.896484 L 5.4316406 16.980469 L 7.0878906 17.095703 L 7.1445312 18.757812 L 8.1835938 19.951172 L 8.1835938 15.896484 L 8.2109375 15.896484 L 8.2109375 11.988281 z M 111.89062 12.109375 L 111.89062 16.164062 L 111.91797 16.164062 L 111.91797 20.074219 L 113.00195 18.916016 L 113.11914 17.257812 L 114.7793 17.201172 L 115.97461 16.164062 L 116.0918 16.164062 L 117.24805 17.246094 L 118.90625 17.365234 L 118.96484 19.025391 L 120 20.220703 L 120 16.164062 L 119.97266 16.164062 L 119.97266 12.255859 L 118.89258 13.412109 L 118.77344 15.070312 L 117.11523 15.126953 L 115.91992 16.164062 L 115.80273 16.164062 L 114.64258 15.080078 L 112.98633 14.964844 L 112.92969 13.302734 L 111.89062 12.109375 z M 2.0703125 14.183594 A 3.1428568 3.1428568 0 0 0 4.1699219 15 A 3.1428568 3.1428568 0 0 0 6.2714844 14.183594 L 2.0703125 14.183594 z M 113.83008 14.449219 A 3.1428568 3.1428568 0 0 0 115.93164 15.265625 A 3.1428568 3.1428568 0 0 0 118.0332 14.449219 L 113.83008 14.449219 z M 4.1425781 16.796875 A 3.1428568 3.1428568 0 0 0 2.0410156 17.613281 L 6.2441406 17.613281 A 3.1428568 3.1428568 0 0 0 4.1425781 16.796875 z M 115.95898 17.0625 A 3.1428568 3.1428568 0 0 0 113.85742 17.878906 L 118.06055 17.878906 A 3.1428568 3.1428568 0 0 0 115.95898 17.0625 z M 1.8164062 17.837891 A 3.1428568 3.1428568 0 0 0 1 19.939453 A 3.1428568 3.1428568 0 0 0 1.8164062 22.041016 L 1.8164062 17.837891 z M 6.46875 17.837891 L 6.46875 22.041016 A 3.1428568 3.1428568 0 0 0 7.2851562 19.939453 A 3.1428568 3.1428568 0 0 0 6.46875 17.837891 z M 113.63281 18.103516 A 3.1428568 3.1428568 0 0 0 112.81641 20.205078 A 3.1428568 3.1428568 0 0 0 113.63281 22.306641 L 113.63281 18.103516 z M 118.28516 18.103516 L 118.28516 22.306641 A 3.1428568 3.1428568 0 0 0 119.10156 20.205078 A 3.1428568 3.1428568 0 0 0 118.28516 18.103516 z M 0.1015625 19.923828 L 0.1015625 22.914062 L 0.02734375 22.914062 L 0.02734375 26.822266 L 1.1074219 25.666016 L 1.2265625 24.007812 L 2.0273438 23.980469 L 3.1230469 23.980469 A 3.1428568 3.1428568 0 0 0 1.9667969 24.628906 L 6.1699219 24.628906 A 3.1428568 3.1428568 0 0 0 5.0136719 23.980469 L 5.3378906 23.980469 L 5.3574219 23.998047 L 7.0136719 24.113281 L 7.0703125 25.775391 L 8.109375 26.96875 L 8.109375 23.980469 L 8.1835938 23.980469 L 8.1835938 20.070312 L 7.1015625 21.228516 L 6.9824219 22.886719 L 6.1523438 22.914062 L 5.0859375 22.914062 A 3.1428568 3.1428568 0 0 0 6.2441406 22.265625 L 2.0410156 22.265625 A 3.1428568 3.1428568 0 0 0 3.2011719 22.914062 L 2.8710938 22.914062 L 2.8535156 22.898438 L 1.1953125 22.779297 L 1.1367188 21.119141 L 0.1015625 19.923828 z M 111.91797 20.191406 L 111.91797 24.246094 L 111.89062 24.246094 L 111.89062 28.15625 L 112.97461 26.998047 L 113.0918 25.339844 L 114.75195 25.283203 L 115.94727 24.246094 L 115.83008 24.246094 L 114.66992 23.162109 L 113.01367 23.046875 L 112.95703 21.384766 L 111.91797 20.191406 z M 115.94727 24.246094 L 116.06445 24.246094 L 117.2207 25.328125 L 118.87891 25.447266 L 118.9375 27.107422 L 119.97266 28.302734 L 119.97266 24.246094 L 120 24.246094 L 120 20.337891 L 118.91992 21.494141 L 118.80078 23.152344 L 117.14258 23.208984 L 115.94727 24.246094 z M 113.85742 22.53125 A 3.1428568 3.1428568 0 0 0 115.95898 23.347656 A 3.1428568 3.1428568 0 0 0 118.06055 22.53125 L 113.85742 22.53125 z M 3.9199219 23.052734 A 3.1428568 3.1428568 0 0 0 4.1425781 23.082031 A 3.1428568 3.1428568 0 0 0 4.3496094 23.054688 L 4.7539062 23.435547 L 4.2890625 23.839844 A 3.1428568 3.1428568 0 0 0 4.0683594 23.8125 A 3.1428568 3.1428568 0 0 0 3.859375 23.839844 L 3.453125 23.458984 L 3.9199219 23.052734 z M 1.7421875 24.853516 A 3.1428568 3.1428568 0 0 0 0.92578125 26.955078 A 3.1428568 3.1428568 0 0 0 1.7421875 29.056641 L 1.7421875 24.853516 z M 6.3945312 24.853516 L 6.3945312 29.056641 A 3.1428568 3.1428568 0 0 0 7.2109375 26.955078 A 3.1428568 3.1428568 0 0 0 6.3945312 24.853516 z M 115.93164 25.144531 A 3.1428568 3.1428568 0 0 0 113.83008 25.960938 L 118.0332 25.960938 A 3.1428568 3.1428568 0 0 0 115.93164 25.144531 z M 113.60547 26.185547 A 3.1428568 3.1428568 0 0 0 112.78906 28.287109 A 3.1428568 3.1428568 0 0 0 113.60547 30.388672 L 113.60547 26.185547 z M 118.25781 26.185547 L 118.25781 30.388672 A 3.1428568 3.1428568 0 0 0 119.07422 28.287109 A 3.1428568 3.1428568 0 0 0 118.25781 26.185547 z M 0.02734375 26.939453 L 0.02734375 30.996094 L 0 30.996094 L 0 34.904297 L 1.0800781 33.748047 L 1.1992188 32.089844 L 2.8574219 32.033203 L 4.0527344 30.996094 L 3.9355469 30.996094 L 2.7792969 29.914062 L 1.1210938 29.794922 L 1.0625 28.134766 L 0.02734375 26.939453 z M 4.0527344 30.996094 L 4.1699219 30.996094 L 5.3300781 32.080078 L 6.9863281 32.195312 L 7.0429688 33.857422 L 8.0820312 35.050781 L 8.0820312 30.996094 L 8.109375 30.996094 L 8.109375 27.085938 L 7.0253906 28.244141 L 6.9082031 29.902344 L 5.2480469 29.958984 L 4.0527344 30.996094 z M 111.89062 28.273438 L 111.89062 32.328125 L 111.91797 32.328125 L 111.91797 36.238281 L 113.00195 35.080078 L 113.11914 33.421875 L 114.7793 33.365234 L 115.97461 32.328125 L 116.0918 32.328125 L 117.24805 33.410156 L 118.90625 33.529297 L 118.96484 35.189453 L 120 36.384766 L 120 32.328125 L 119.97266 32.328125 L 119.97266 28.419922 L 118.89258 29.576172 L 118.77344 31.234375 L 117.11523 31.291016 L 115.91992 32.328125 L 115.80273 32.328125 L 114.64258 31.244141 L 112.98633 31.128906 L 112.92969 29.466797 L 111.89062 28.273438 z M 1.9667969 29.28125 A 3.1428568 3.1428568 0 0 0 4.0683594 30.097656 A 3.1428568 3.1428568 0 0 0 6.1699219 29.28125 L 1.9667969 29.28125 z M 113.83008 30.613281 A 3.1428568 3.1428568 0 0 0 115.93164 31.429688 A 3.1428568 3.1428568 0 0 0 118.0332 30.613281 L 113.83008 30.613281 z M 4.0410156 31.894531 A 3.1428568 3.1428568 0 0 0 1.9394531 32.710938 L 6.1425781 32.710938 A 3.1428568 3.1428568 0 0 0 4.0410156 31.894531 z M 1.7148438 32.935547 A 3.1428568 3.1428568 0 0 0 0.8984375 35.037109 A 3.1428568 3.1428568 0 0 0 1.7148438 37.138672 L 1.7148438 32.935547 z M 6.3671875 32.935547 L 6.3671875 37.138672 A 3.1428568 3.1428568 0 0 0 7.1835938 35.037109 A 3.1428568 3.1428568 0 0 0 6.3671875 32.935547 z M 115.95898 33.226562 A 3.1428568 3.1428568 0 0 0 113.85742 34.042969 L 118.06055 34.042969 A 3.1428568 3.1428568 0 0 0 115.95898 33.226562 z M 113.63281 34.267578 A 3.1428568 3.1428568 0 0 0 112.81641 36.369141 A 3.1428568 3.1428568 0 0 0 113.63281 38.470703 L 113.63281 34.267578 z M 118.28516 34.267578 L 118.28516 38.470703 A 3.1428568 3.1428568 0 0 0 119.10156 36.369141 A 3.1428568 3.1428568 0 0 0 118.28516 34.267578 z M 0 35.021484 L 0 39.078125 L 0.02734375 39.078125 L 0.02734375 42.986328 L 1.1074219 41.830078 L 1.2265625 40.171875 L 2.8847656 40.115234 L 4.0800781 39.078125 L 4.1972656 39.078125 L 5.3574219 40.162109 L 7.0136719 40.277344 L 7.0703125 41.939453 L 8.109375 43.132812 L 8.109375 39.078125 L 8.0820312 39.078125 L 8.0820312 35.167969 L 6.9980469 36.326172 L 6.8808594 37.984375 L 5.2207031 38.041016 L 4.0253906 39.078125 L 3.9082031 39.078125 L 2.7519531 37.996094 L 1.09375 37.876953 L 1.0351562 36.216797 L 0 35.021484 z M 111.91797 36.355469 L 111.91797 40.410156 L 111.89062 40.410156 L 111.89062 44.320312 L 112.97461 43.162109 L 113.0918 41.503906 L 114.75195 41.447266 L 115.94727 40.410156 L 115.83008 40.410156 L 114.66992 39.326172 L 113.01367 39.210938 L 112.95703 37.548828 L 111.91797 36.355469 z M 115.94727 40.410156 L 116.06445 40.410156 L 117.2207 41.492188 L 118.87891 41.611328 L 118.9375 43.271484 L 119.97266 44.466797 L 119.97266 40.410156 L 120 40.410156 L 120 36.501953 L 118.91992 37.658203 L 118.80078 39.316406 L 117.14258 39.373047 L 115.94727 40.410156 z M 1.9394531 37.363281 A 3.1428568 3.1428568 0 0 0 4.0410156 38.179688 A 3.1428568 3.1428568 0 0 0 6.1425781 37.363281 L 1.9394531 37.363281 z M 113.85742 38.695312 A 3.1428568 3.1428568 0 0 0 115.95898 39.511719 A 3.1428568 3.1428568 0 0 0 118.06055 38.695312 L 113.85742 38.695312 z M 4.0683594 39.976562 A 3.1428568 3.1428568 0 0 0 1.9667969 40.792969 L 6.1699219 40.792969 A 3.1428568 3.1428568 0 0 0 4.0683594 39.976562 z M 1.7421875 41.017578 A 3.1428568 3.1428568 0 0 0 0.92578125 43.119141 A 3.1428568 3.1428568 0 0 0 1.7421875 45.220703 L 1.7421875 41.017578 z M 6.3945312 41.017578 L 6.3945312 45.220703 A 3.1428568 3.1428568 0 0 0 7.2109375 43.119141 A 3.1428568 3.1428568 0 0 0 6.3945312 41.017578 z M 115.93164 41.308594 A 3.1428568 3.1428568 0 0 0 113.83008 42.125 L 118.0332 42.125 A 3.1428568 3.1428568 0 0 0 115.93164 41.308594 z M 113.60547 42.349609 A 3.1428568 3.1428568 0 0 0 112.78906 44.451172 A 3.1428568 3.1428568 0 0 0 113.60547 46.552734 L 113.60547 42.349609 z M 118.25781 42.349609 L 118.25781 46.552734 A 3.1428568 3.1428568 0 0 0 119.07422 44.451172 A 3.1428568 3.1428568 0 0 0 118.25781 42.349609 z M 0.02734375 43.103516 L 0.02734375 47.160156 L 0 47.160156 L 0 51.068359 L 1.0800781 49.912109 L 1.1992188 48.253906 L 2.8574219 48.197266 L 4.0527344 47.160156 L 3.9355469 47.160156 L 2.7792969 46.078125 L 1.1210938 45.958984 L 1.0625 44.298828 L 0.02734375 43.103516 z M 4.0527344 47.160156 L 4.1699219 47.160156 L 5.3300781 48.244141 L 6.9863281 48.359375 L 7.0429688 50.021484 L 8.0820312 51.214844 L 8.0820312 47.160156 L 8.109375 47.160156 L 8.109375 43.25 L 7.0253906 44.408203 L 6.9082031 46.066406 L 5.2480469 46.123047 L 4.0527344 47.160156 z M 111.89062 44.4375 L 111.89062 48.492188 L 111.91797 48.492188 L 111.91797 52.402344 L 113.00195 51.244141 L 113.11914 49.585938 L 114.7793 49.529297 L 115.97461 48.492188 L 116.0918 48.492188 L 117.24805 49.574219 L 118.90625 49.693359 L 118.96484 51.353516 L 120 52.548828 L 120 48.492188 L 119.97266 48.492188 L 119.97266 44.583984 L 118.89258 45.740234 L 118.77344 47.398438 L 117.11523 47.455078 L 115.91992 48.492188 L 115.80273 48.492188 L 114.64258 47.408203 L 112.98633 47.292969 L 112.92969 45.630859 L 111.89062 44.4375 z M 1.9667969 45.445312 A 3.1428568 3.1428568 0 0 0 4.0683594 46.261719 A 3.1428568 3.1428568 0 0 0 6.1699219 45.445312 L 1.9667969 45.445312 z M 113.83008 46.777344 A 3.1428568 3.1428568 0 0 0 115.93164 47.59375 A 3.1428568 3.1428568 0 0 0 118.0332 46.777344 L 113.83008 46.777344 z M 4.0410156 48.058594 A 3.1428568 3.1428568 0 0 0 1.9394531 48.875 L 6.1425781 48.875 A 3.1428568 3.1428568 0 0 0 4.0410156 48.058594 z M 1.7148438 49.099609 A 3.1428568 3.1428568 0 0 0 0.8984375 51.201172 A 3.1428568 3.1428568 0 0 0 1.7148438 53.302734 L 1.7148438 49.099609 z M 6.3671875 49.099609 L 6.3671875 53.302734 A 3.1428568 3.1428568 0 0 0 7.1835938 51.201172 A 3.1428568 3.1428568 0 0 0 6.3671875 49.099609 z M 115.95898 49.390625 A 3.1428568 3.1428568 0 0 0 113.85742 50.207031 L 118.06055 50.207031 A 3.1428568 3.1428568 0 0 0 115.95898 49.390625 z M 113.63281 50.431641 A 3.1428568 3.1428568 0 0 0 112.81641 52.533203 A 3.1428568 3.1428568 0 0 0 113.63281 54.634766 L 113.63281 50.431641 z M 118.28516 50.431641 L 118.28516 54.634766 A 3.1428568 3.1428568 0 0 0 119.10156 52.533203 A 3.1428568 3.1428568 0 0 0 118.28516 50.431641 z M 0 51.185547 L 0 55.242188 L 0.02734375 55.242188 L 0.02734375 59.150391 L 1.1074219 57.994141 L 1.2265625 56.335938 L 2.8847656 56.279297 L 4.0800781 55.242188 L 4.1972656 55.242188 L 5.3574219 56.326172 L 7.0136719 56.441406 L 7.0703125 58.103516 L 8.109375 59.296875 L 8.109375 55.242188 L 8.0820312 55.242188 L 8.0820312 51.332031 L 6.9980469 52.490234 L 6.8808594 54.148438 L 5.2207031 54.205078 L 4.0253906 55.242188 L 3.9082031 55.242188 L 2.7519531 54.160156 L 1.09375 54.041016 L 1.0351562 52.380859 L 0 51.185547 z M 111.91797 52.519531 L 111.91797 56.574219 L 111.89062 56.574219 L 111.89062 60.484375 L 112.97461 59.326172 L 113.0918 57.667969 L 114.75195 57.611328 L 115.94727 56.574219 L 115.83008 56.574219 L 114.66992 55.490234 L 113.01367 55.375 L 112.95703 53.712891 L 111.91797 52.519531 z M 115.94727 56.574219 L 116.06445 56.574219 L 117.2207 57.65625 L 118.87891 57.775391 L 118.9375 59.435547 L 119.97266 60.630859 L 119.97266 56.574219 L 120 56.574219 L 120 52.666016 L 118.91992 53.822266 L 118.80078 55.480469 L 117.14258 55.537109 L 115.94727 56.574219 z M 1.9394531 53.527344 A 3.1428568 3.1428568 0 0 0 4.0410156 54.34375 A 3.1428568 3.1428568 0 0 0 6.1425781 53.527344 L 1.9394531 53.527344 z M 113.85742 54.859375 A 3.1428568 3.1428568 0 0 0 115.95898 55.675781 A 3.1428568 3.1428568 0 0 0 118.06055 54.859375 L 113.85742 54.859375 z M 4.0683594 56.140625 A 3.1428568 3.1428568 0 0 0 1.9667969 56.957031 L 6.1699219 56.957031 A 3.1428568 3.1428568 0 0 0 4.0683594 56.140625 z M 1.7421875 57.181641 A 3.1428568 3.1428568 0 0 0 0.92578125 59.283203 A 3.1428568 3.1428568 0 0 0 1.7421875 61.384766 L 1.7421875 57.181641 z M 6.3945312 57.181641 L 6.3945312 61.384766 A 3.1428568 3.1428568 0 0 0 7.2109375 59.283203 A 3.1428568 3.1428568 0 0 0 6.3945312 57.181641 z M 115.93164 57.472656 A 3.1428568 3.1428568 0 0 0 113.83008 58.289062 L 118.0332 58.289062 A 3.1428568 3.1428568 0 0 0 115.93164 57.472656 z M 113.60547 58.513672 A 3.1428568 3.1428568 0 0 0 112.78906 60.615234 A 3.1428568 3.1428568 0 0 0 113.60547 62.716797 L 113.60547 58.513672 z M 118.25781 58.513672 L 118.25781 62.716797 A 3.1428568 3.1428568 0 0 0 119.07422 60.615234 A 3.1428568 3.1428568 0 0 0 118.25781 58.513672 z M 0.02734375 59.267578 L 0.02734375 63.324219 L 0 63.324219 L 0 67.232422 L 1.0800781 66.076172 L 1.1992188 64.417969 L 2.8574219 64.361328 L 4.0527344 63.324219 L 3.9355469 63.324219 L 2.7792969 62.242188 L 1.1210938 62.123047 L 1.0625 60.462891 L 0.02734375 59.267578 z M 4.0527344 63.324219 L 4.1699219 63.324219 L 5.3300781 64.408203 L 6.9863281 64.523438 L 7.0429688 66.185547 L 8.0820312 67.378906 L 8.0820312 63.324219 L 8.109375 63.324219 L 8.109375 59.414062 L 7.0253906 60.572266 L 6.9082031 62.230469 L 5.2480469 62.287109 L 4.0527344 63.324219 z M 111.89062 60.601562 L 111.89062 64.65625 L 111.91797 64.65625 L 111.91797 68.566406 L 113.00195 67.408203 L 113.11914 65.75 L 114.7793 65.693359 L 115.97461 64.65625 L 116.0918 64.65625 L 117.24805 65.738281 L 118.90625 65.857422 L 118.96484 67.517578 L 120 68.712891 L 120 64.65625 L 119.97266 64.65625 L 119.97266 60.748047 L 118.89258 61.904297 L 118.77344 63.5625 L 117.11523 63.619141 L 115.91992 64.65625 L 115.80273 64.65625 L 114.64258 63.572266 L 112.98633 63.457031 L 112.92969 61.794922 L 111.89062 60.601562 z M 1.9667969 61.609375 A 3.1428568 3.1428568 0 0 0 4.0683594 62.425781 A 3.1428568 3.1428568 0 0 0 6.1699219 61.609375 L 1.9667969 61.609375 z M 113.83008 62.941406 A 3.1428568 3.1428568 0 0 0 115.93164 63.757812 A 3.1428568 3.1428568 0 0 0 118.0332 62.941406 L 113.83008 62.941406 z M 4.0410156 64.222656 A 3.1428568 3.1428568 0 0 0 1.9394531 65.039062 L 6.1425781 65.039062 A 3.1428568 3.1428568 0 0 0 4.0410156 64.222656 z M 1.7148438 65.263672 A 3.1428568 3.1428568 0 0 0 0.8984375 67.365234 A 3.1428568 3.1428568 0 0 0 1.7148438 69.466797 L 1.7148438 65.263672 z M 6.3671875 65.263672 L 6.3671875 69.466797 A 3.1428568 3.1428568 0 0 0 7.1835938 67.365234 A 3.1428568 3.1428568 0 0 0 6.3671875 65.263672 z M 115.95898 65.554688 A 3.1428568 3.1428568 0 0 0 113.85742 66.371094 L 118.06055 66.371094 A 3.1428568 3.1428568 0 0 0 115.95898 65.554688 z M 113.63281 66.595703 A 3.1428568 3.1428568 0 0 0 112.81641 68.697266 A 3.1428568 3.1428568 0 0 0 113.63281 70.798828 L 113.63281 66.595703 z M 118.28516 66.595703 L 118.28516 70.798828 A 3.1428568 3.1428568 0 0 0 119.10156 68.697266 A 3.1428568 3.1428568 0 0 0 118.28516 66.595703 z M 0 67.349609 L 0 71.40625 L 0.02734375 71.40625 L 0.02734375 75.314453 L 1.1074219 74.158203 L 1.2265625 72.5 L 2.8847656 72.443359 L 4.0800781 71.40625 L 4.1972656 71.40625 L 5.3574219 72.490234 L 7.0136719 72.605469 L 7.0703125 74.267578 L 8.109375 75.460938 L 8.109375 71.40625 L 8.0820312 71.40625 L 8.0820312 67.496094 L 6.9980469 68.654297 L 6.8808594 70.3125 L 5.2207031 70.369141 L 4.0253906 71.40625 L 3.9082031 71.40625 L 2.7519531 70.324219 L 1.09375 70.205078 L 1.0351562 68.544922 L 0 67.349609 z M 111.91797 68.683594 L 111.91797 72.738281 L 111.89062 72.738281 L 111.89062 76.648438 L 112.97461 75.490234 L 113.0918 73.832031 L 114.75195 73.775391 L 115.94727 72.738281 L 115.83008 72.738281 L 114.66992 71.654297 L 113.01367 71.539062 L 112.95703 69.876953 L 111.91797 68.683594 z M 115.94727 72.738281 L 116.06445 72.738281 L 117.2207 73.820312 L 118.87891 73.939453 L 118.9375 75.599609 L 119.97266 76.794922 L 119.97266 72.738281 L 120 72.738281 L 120 68.830078 L 118.91992 69.986328 L 118.80078 71.644531 L 117.14258 71.701172 L 115.94727 72.738281 z M 1.9394531 69.691406 A 3.1428568 3.1428568 0 0 0 4.0410156 70.507812 A 3.1428568 3.1428568 0 0 0 6.1425781 69.691406 L 1.9394531 69.691406 z M 113.85742 71.023438 A 3.1428568 3.1428568 0 0 0 115.95898 71.839844 A 3.1428568 3.1428568 0 0 0 118.06055 71.023438 L 113.85742 71.023438 z M 4.0683594 72.304688 A 3.1428568 3.1428568 0 0 0 1.9667969 73.121094 L 6.1699219 73.121094 A 3.1428568 3.1428568 0 0 0 4.0683594 72.304688 z M 1.7421875 73.345703 A 3.1428568 3.1428568 0 0 0 0.92578125 75.447266 A 3.1428568 3.1428568 0 0 0 1.7421875 77.548828 L 1.7421875 73.345703 z M 6.3945312 73.345703 L 6.3945312 77.548828 A 3.1428568 3.1428568 0 0 0 7.2109375 75.447266 A 3.1428568 3.1428568 0 0 0 6.3945312 73.345703 z M 115.93164 73.636719 A 3.1428568 3.1428568 0 0 0 113.83008 74.453125 L 118.0332 74.453125 A 3.1428568 3.1428568 0 0 0 115.93164 73.636719 z M 113.60547 74.677734 A 3.1428568 3.1428568 0 0 0 112.78906 76.779297 A 3.1428568 3.1428568 0 0 0 113.60547 78.880859 L 113.60547 74.677734 z M 118.25781 74.677734 L 118.25781 78.880859 A 3.1428568 3.1428568 0 0 0 119.07422 76.779297 A 3.1428568 3.1428568 0 0 0 118.25781 74.677734 z M 0.02734375 75.431641 L 0.02734375 79.488281 L 0 79.488281 L 0 83.396484 L 1.0800781 82.240234 L 1.1992188 80.582031 L 2.8574219 80.525391 L 4.0527344 79.488281 L 3.9355469 79.488281 L 2.7792969 78.40625 L 1.1210938 78.287109 L 1.0625 76.626953 L 0.02734375 75.431641 z M 4.0527344 79.488281 L 4.1699219 79.488281 L 5.3300781 80.572266 L 6.9863281 80.6875 L 7.0429688 82.349609 L 8.0820312 83.542969 L 8.0820312 79.488281 L 8.109375 79.488281 L 8.109375 75.578125 L 7.0253906 76.736328 L 6.9082031 78.394531 L 5.2480469 78.451172 L 4.0527344 79.488281 z M 111.89062 76.765625 L 111.89062 80.820312 L 111.91797 80.820312 L 111.91797 84.730469 L 113.00195 83.572266 L 113.11914 81.914062 L 114.7793 81.857422 L 115.97461 80.820312 L 116.0918 80.820312 L 117.24805 81.902344 L 118.90625 82.021484 L 118.96484 83.681641 L 120 84.876953 L 120 80.820312 L 119.97266 80.820312 L 119.97266 76.912109 L 118.89258 78.068359 L 118.77344 79.726562 L 117.11523 79.783203 L 115.91992 80.820312 L 115.80273 80.820312 L 114.64258 79.736328 L 112.98633 79.621094 L 112.92969 77.958984 L 111.89062 76.765625 z M 1.9667969 77.773438 A 3.1428568 3.1428568 0 0 0 4.0683594 78.589844 A 3.1428568 3.1428568 0 0 0 6.1699219 77.773438 L 1.9667969 77.773438 z M 113.83008 79.105469 A 3.1428568 3.1428568 0 0 0 115.93164 79.921875 A 3.1428568 3.1428568 0 0 0 118.0332 79.105469 L 113.83008 79.105469 z M 4.0410156 80.386719 A 3.1428568 3.1428568 0 0 0 1.9394531 81.203125 L 6.1425781 81.203125 A 3.1428568 3.1428568 0 0 0 4.0410156 80.386719 z M 1.7148438 81.427734 A 3.1428568 3.1428568 0 0 0 0.8984375 83.529297 A 3.1428568 3.1428568 0 0 0 1.7148438 85.630859 L 1.7148438 81.427734 z M 6.3671875 81.427734 L 6.3671875 85.630859 A 3.1428568 3.1428568 0 0 0 7.1835938 83.529297 A 3.1428568 3.1428568 0 0 0 6.3671875 81.427734 z M 115.95898 81.71875 A 3.1428568 3.1428568 0 0 0 113.85742 82.535156 L 118.06055 82.535156 A 3.1428568 3.1428568 0 0 0 115.95898 81.71875 z M 113.63281 82.759766 A 3.1428568 3.1428568 0 0 0 112.81641 84.861328 A 3.1428568 3.1428568 0 0 0 113.63281 86.962891 L 113.63281 82.759766 z M 118.28516 82.759766 L 118.28516 86.962891 A 3.1428568 3.1428568 0 0 0 119.10156 84.861328 A 3.1428568 3.1428568 0 0 0 118.28516 82.759766 z M 0 83.513672 L 0 87.570312 L 0.02734375 87.570312 L 0.02734375 91.478516 L 1.1074219 90.322266 L 1.2265625 88.664062 L 2.8847656 88.607422 L 4.0800781 87.570312 L 4.1972656 87.570312 L 5.3574219 88.654297 L 7.0136719 88.769531 L 7.0703125 90.431641 L 8.109375 91.625 L 8.109375 87.570312 L 8.0820312 87.570312 L 8.0820312 83.660156 L 6.9980469 84.818359 L 6.8808594 86.476562 L 5.2207031 86.533203 L 4.0253906 87.570312 L 3.9082031 87.570312 L 2.7519531 86.488281 L 1.09375 86.369141 L 1.0351562 84.708984 L 0 83.513672 z M 111.91797 84.847656 L 111.91797 88.902344 L 111.89062 88.902344 L 111.89062 92.8125 L 112.97461 91.654297 L 113.0918 89.996094 L 114.75195 89.939453 L 115.94727 88.902344 L 115.83008 88.902344 L 114.66992 87.818359 L 113.01367 87.703125 L 112.95703 86.041016 L 111.91797 84.847656 z M 115.94727 88.902344 L 116.06445 88.902344 L 117.2207 89.984375 L 118.87891 90.103516 L 118.9375 91.763672 L 119.97266 92.958984 L 119.97266 88.902344 L 120 88.902344 L 120 84.994141 L 118.91992 86.150391 L 118.80078 87.808594 L 117.14258 87.865234 L 115.94727 88.902344 z M 1.9394531 85.855469 A 3.1428568 3.1428568 0 0 0 4.0410156 86.671875 A 3.1428568 3.1428568 0 0 0 6.1425781 85.855469 L 1.9394531 85.855469 z M 113.85742 87.1875 A 3.1428568 3.1428568 0 0 0 115.95898 88.003906 A 3.1428568 3.1428568 0 0 0 118.06055 87.1875 L 113.85742 87.1875 z M 4.0683594 88.46875 A 3.1428568 3.1428568 0 0 0 1.9667969 89.285156 L 6.1699219 89.285156 A 3.1428568 3.1428568 0 0 0 4.0683594 88.46875 z M 1.7421875 89.509766 A 3.1428568 3.1428568 0 0 0 0.92578125 91.611328 A 3.1428568 3.1428568 0 0 0 1.7421875 93.712891 L 1.7421875 89.509766 z M 6.3945312 89.509766 L 6.3945312 93.712891 A 3.1428568 3.1428568 0 0 0 7.2109375 91.611328 A 3.1428568 3.1428568 0 0 0 6.3945312 89.509766 z M 115.93164 89.800781 A 3.1428568 3.1428568 0 0 0 113.83008 90.617188 L 118.0332 90.617188 A 3.1428568 3.1428568 0 0 0 115.93164 89.800781 z M 113.60547 90.841797 A 3.1428568 3.1428568 0 0 0 112.78906 92.943359 A 3.1428568 3.1428568 0 0 0 113.60547 95.044922 L 113.60547 90.841797 z M 118.25781 90.841797 L 118.25781 95.044922 A 3.1428568 3.1428568 0 0 0 119.07422 92.943359 A 3.1428568 3.1428568 0 0 0 118.25781 90.841797 z M 0.02734375 91.595703 L 0.02734375 95.652344 L 0 95.652344 L 0 99.560547 L 1.0800781 98.404297 L 1.1992188 96.746094 L 2.8574219 96.689453 L 4.0527344 95.652344 L 3.9355469 95.652344 L 2.7792969 94.570312 L 1.1210938 94.451172 L 1.0625 92.791016 L 0.02734375 91.595703 z M 4.0527344 95.652344 L 4.1699219 95.652344 L 5.3300781 96.736328 L 6.9863281 96.851562 L 7.0429688 98.513672 L 8.0820312 99.707031 L 8.0820312 95.652344 L 8.109375 95.652344 L 8.109375 91.742188 L 7.0253906 92.900391 L 6.9082031 94.558594 L 5.2480469 94.615234 L 4.0527344 95.652344 z M 111.89062 92.929688 L 111.89062 95.917969 L 111.81641 95.917969 L 111.81641 99.828125 L 112.89844 98.669922 L 113.01758 97.011719 L 113.84766 96.984375 L 114.91406 96.984375 A 3.1428568 3.1428568 0 0 0 113.75586 97.632812 L 117.95898 97.632812 A 3.1428568 3.1428568 0 0 0 116.79883 96.984375 L 117.12891 96.984375 L 117.14648 97 L 118.80469 97.119141 L 118.86328 98.779297 L 119.89844 99.974609 L 119.89844 96.984375 L 119.97266 96.984375 L 119.97266 93.076172 L 118.89258 94.232422 L 118.77344 95.890625 L 117.97266 95.917969 L 116.87695 95.917969 A 3.1428568 3.1428568 0 0 0 118.0332 95.269531 L 113.83008 95.269531 A 3.1428568 3.1428568 0 0 0 114.98633 95.917969 L 114.66211 95.917969 L 114.64258 95.900391 L 112.98633 95.785156 L 112.92969 94.123047 L 111.89062 92.929688 z M 1.9667969 93.9375 A 3.1428568 3.1428568 0 0 0 4.0683594 94.753906 A 3.1428568 3.1428568 0 0 0 6.1699219 93.9375 L 1.9667969 93.9375 z M 115.71094 96.058594 A 3.1428568 3.1428568 0 0 0 115.93164 96.085938 A 3.1428568 3.1428568 0 0 0 116.14062 96.058594 L 116.54688 96.439453 L 116.08008 96.845703 A 3.1428568 3.1428568 0 0 0 115.85742 96.816406 A 3.1428568 3.1428568 0 0 0 115.65039 96.84375 L 115.24609 96.462891 L 115.71094 96.058594 z M 4.0410156 96.550781 A 3.1428568 3.1428568 0 0 0 1.9394531 97.367188 L 6.1425781 97.367188 A 3.1428568 3.1428568 0 0 0 4.0410156 96.550781 z M 1.7148438 97.591797 A 3.1428568 3.1428568 0 0 0 0.8984375 99.693359 A 3.1428568 3.1428568 0 0 0 1.7148438 101.79492 L 1.7148438 97.591797 z M 6.3671875 97.591797 L 6.3671875 101.79492 A 3.1428568 3.1428568 0 0 0 7.1835938 99.693359 A 3.1428568 3.1428568 0 0 0 6.3671875 97.591797 z M 113.53125 97.857422 A 3.1428568 3.1428568 0 0 0 112.71484 99.958984 A 3.1428568 3.1428568 0 0 0 113.53125 102.06055 L 113.53125 97.857422 z M 118.18359 97.857422 L 118.18359 102.06055 A 3.1428568 3.1428568 0 0 0 119 99.958984 A 3.1428568 3.1428568 0 0 0 118.18359 97.857422 z M 0 99.677734 L 0 103.73438 L 0.02734375 103.73438 L 0.02734375 107.64258 L 1.1074219 106.48633 L 1.2265625 104.82812 L 2.8847656 104.77148 L 4.0800781 103.73438 L 4.1972656 103.73438 L 5.3574219 104.81836 L 7.0136719 104.93359 L 7.0703125 106.5957 L 8.109375 107.78906 L 8.109375 103.73438 L 8.0820312 103.73438 L 8.0820312 99.824219 L 6.9980469 100.98242 L 6.8808594 102.64062 L 5.2207031 102.69727 L 4.0253906 103.73438 L 3.9082031 103.73438 L 2.7519531 102.65234 L 1.09375 102.5332 L 1.0351562 100.87305 L 0 99.677734 z M 111.81641 99.947266 L 111.81641 104.00195 L 111.78906 104.00195 L 111.78906 107.91016 L 112.87305 106.75195 L 112.99023 105.09375 L 114.64844 105.03906 L 115.8457 104.00195 L 115.72852 104.00195 L 114.56836 102.91797 L 112.91211 102.80273 L 112.85547 101.14062 L 111.81641 99.947266 z M 119.89844 100.0918 L 118.81836 101.24805 L 118.69922 102.90625 L 117.04102 102.96289 L 115.8457 104 L 115.96094 104 L 117.11719 105.08203 L 118.77734 105.20117 L 118.83594 106.86133 L 119.87109 108.05664 L 119.87109 104 L 119.89844 104 L 119.89844 100.0918 z M 1.9394531 102.01953 A 3.1428568 3.1428568 0 0 0 4.0410156 102.83594 A 3.1428568 3.1428568 0 0 0 6.1425781 102.01953 L 1.9394531 102.01953 z M 113.75586 102.28516 A 3.1428568 3.1428568 0 0 0 115.85742 103.10156 A 3.1428568 3.1428568 0 0 0 117.95898 102.28516 L 113.75586 102.28516 z M 4.0683594 104.63281 A 3.1428568 3.1428568 0 0 0 1.9667969 105.44922 L 6.1699219 105.44922 A 3.1428568 3.1428568 0 0 0 4.0683594 104.63281 z M 115.83008 104.89844 A 3.1428568 3.1428568 0 0 0 113.72852 105.71484 L 117.92969 105.71484 A 3.1428568 3.1428568 0 0 0 115.83008 104.89844 z M 1.7421875 105.67383 A 3.1428568 3.1428568 0 0 0 0.92578125 107.77539 A 3.1428568 3.1428568 0 0 0 1.7421875 109.87695 L 1.7421875 105.67383 z M 6.3945312 105.67383 L 6.3945312 109.87695 A 3.1428568 3.1428568 0 0 0 7.2109375 107.77539 A 3.1428568 3.1428568 0 0 0 6.3945312 105.67383 z M 113.50391 105.93945 A 3.1428568 3.1428568 0 0 0 112.6875 108.04102 A 3.1428568 3.1428568 0 0 0 113.50391 110.14258 L 113.50391 105.93945 z M 118.15625 105.93945 L 118.15625 110.14258 A 3.1428568 3.1428568 0 0 0 118.97266 108.04102 A 3.1428568 3.1428568 0 0 0 118.15625 105.93945 z M 0.02734375 107.75977 L 0.02734375 111.78906 L 0 111.78906 L 0 111.81641 L 0 115.69727 L 0 115.72461 L 1.0800781 114.56836 L 1.0820312 114.54102 L 1.1992188 112.91016 L 2.8574219 112.85352 L 4.0527344 111.81641 L 4.0253906 111.81641 L 4.0566406 111.78906 L 3.90625 111.78906 L 2.7792969 110.73438 L 1.1210938 110.61523 L 1.0625 108.95508 L 0.02734375 107.75977 z M 4.0527344 111.81641 L 4.1699219 111.81641 L 5.3300781 112.90039 L 6.9863281 113.01562 L 7.0429688 114.67773 L 8.0820312 115.87109 L 8.0820312 115.95898 L 6.9980469 117.11914 L 6.8828125 118.77539 L 5.2207031 118.83203 L 4.0273438 119.87109 L 4.0566406 119.87109 L 4.0253906 119.89844 L 8.0820312 119.89844 L 11.992188 119.89844 L 10.833984 118.81445 L 9.1757812 118.69727 L 9.1191406 117.03711 L 8.0820312 115.8418 L 8.0820312 115.72461 L 9.1640625 114.56836 L 9.2832031 112.91016 L 10.943359 112.85156 L 12.138672 111.81641 L 8.109375 111.81641 L 8.109375 107.90625 L 7.0253906 109.06445 L 6.9082031 110.72266 L 5.2480469 110.7793 L 4.0527344 111.81641 z M 111.78906 108.02734 L 111.78906 111.91797 L 108.17578 111.91797 L 109.33203 112.99805 L 110.99023 113.11719 L 111.04492 114.77539 L 111.81641 115.66406 L 111.81641 115.99219 L 111.96289 115.83398 L 112.08203 115.9707 L 112.08203 116.08789 L 111.93555 116.24609 L 111.81641 116.10938 L 111.81641 116.37305 L 110.99805 117.24805 L 110.88281 118.9043 L 109.2207 118.96094 L 108.02734 120 L 111.81641 120 L 112.08203 120 L 115.55273 120 L 115.52344 119.97266 L 115.99219 119.97266 L 115.07812 119.11914 A 3.1428568 3.1428568 0 0 0 115.85742 119.26562 A 3.1428568 3.1428568 0 0 0 117.95898 118.44922 L 117.91602 118.44922 A 3.1428568 3.1428568 0 0 0 118.22461 118.25781 L 114.02148 118.25781 A 3.1428568 3.1428568 0 0 0 114.33008 118.44922 L 113.75586 118.44922 A 3.1428568 3.1428568 0 0 0 114.41992 118.86133 L 113.17578 118.77148 L 113.13672 117.58789 A 3.1428568 3.1428568 0 0 0 113.53125 118.22461 L 113.53125 117.60352 A 3.1428568 3.1428568 0 0 0 113.79688 118.0332 L 113.79688 113.83008 A 3.1428568 3.1428568 0 0 0 113.53125 114.25977 L 113.53125 114.02148 A 3.1428568 3.1428568 0 0 0 113.16797 114.60742 L 113.27148 113.16797 L 114.67773 113.12109 L 114.90039 112.92773 L 114.94531 112.92578 L 115.91797 112.08398 L 115.99023 112.08398 L 116.90039 112.93555 A 3.1428568 3.1428568 0 0 0 116.12305 112.78906 A 3.1428568 3.1428568 0 0 0 114.02148 113.60547 L 114.06445 113.60547 A 3.1428568 3.1428568 0 0 0 113.75586 113.79688 L 117.95898 113.79688 A 3.1428568 3.1428568 0 0 0 117.65039 113.60547 L 118.22461 113.60547 A 3.1428568 3.1428568 0 0 0 117.5625 113.19531 L 118.80469 113.28516 L 118.8457 114.47266 A 3.1428568 3.1428568 0 0 0 118.44922 113.83008 L 118.44922 114.45117 A 3.1428568 3.1428568 0 0 0 118.18359 114.02148 L 118.18359 118.22461 A 3.1428568 3.1428568 0 0 0 118.44922 117.79492 L 118.44922 118.0332 A 3.1428568 3.1428568 0 0 0 118.81641 117.43945 L 118.71289 118.88477 L 117.30273 118.93359 L 117.08203 119.125 L 117.04102 119.12695 L 116.03516 120 L 119.89844 120 L 119.89844 119.97266 L 120 119.97266 L 120 116.23633 L 119.89844 116.3457 L 119.89844 116.25586 L 118.86328 117.36328 A 3.1428568 3.1428568 0 0 0 119.26562 115.93164 A 3.1428568 3.1428568 0 0 0 119.13867 115.26367 L 119.89844 116.14062 L 119.89844 115.63672 L 120 115.75391 L 120 111.89062 L 119.87109 111.89062 L 119.87109 108.17578 L 118.79102 109.33203 L 118.67188 110.99023 L 117.01367 111.04492 L 116.03906 111.89062 L 115.49609 111.89062 L 114.54102 110.99805 L 112.88477 110.88281 L 112.82812 109.2207 L 111.78906 108.02734 z M 1.9667969 110.10156 A 3.1428568 3.1428568 0 0 0 4.0683594 110.91797 A 3.1428568 3.1428568 0 0 0 6.1699219 110.10156 L 1.9667969 110.10156 z M 113.72852 110.36719 A 3.1428568 3.1428568 0 0 0 115.83008 111.18359 A 3.1428568 3.1428568 0 0 0 117.92969 110.36719 L 113.72852 110.36719 z M 16.164062 111.78906 L 16.164062 111.81641 L 12.255859 111.81641 L 13.412109 112.89648 L 15.070312 113.01562 L 15.126953 114.67383 L 16.164062 115.86914 L 16.164062 115.98633 L 15.080078 117.14648 L 14.964844 118.80273 L 13.302734 118.85938 L 12.109375 119.89844 L 16.164062 119.89844 L 16.164062 119.87109 L 20.074219 119.87109 L 18.916016 118.78711 L 17.257812 118.66992 L 17.201172 117.00977 L 16.164062 115.81445 L 16.164062 115.69727 L 17.246094 114.54102 L 17.365234 112.88281 L 19.025391 112.82422 L 20.220703 111.78906 L 16.164062 111.78906 z M 20.337891 111.78906 L 21.494141 112.86914 L 23.152344 112.98828 L 23.208984 114.64648 L 24.246094 115.8418 L 24.246094 115.72461 L 25.328125 114.56836 L 25.447266 112.91016 L 27.107422 112.85156 L 28.302734 111.81641 L 24.246094 111.81641 L 24.246094 111.78906 L 20.337891 111.78906 z M 24.246094 115.8418 L 24.246094 115.95898 L 23.162109 117.11914 L 23.046875 118.77539 L 21.384766 118.83203 L 20.191406 119.87109 L 24.246094 119.87109 L 24.246094 119.89844 L 28.15625 119.89844 L 26.998047 118.81445 L 25.339844 118.69727 L 25.283203 117.03711 L 24.246094 115.8418 z M 32.328125 111.78906 L 32.328125 111.81641 L 28.419922 111.81641 L 29.576172 112.89648 L 31.234375 113.01562 L 31.291016 114.67383 L 32.328125 115.86914 L 32.328125 115.98633 L 31.244141 117.14648 L 31.128906 118.80273 L 29.466797 118.85938 L 28.273438 119.89844 L 32.328125 119.89844 L 32.328125 119.87109 L 36.238281 119.87109 L 35.080078 118.78711 L 33.421875 118.66992 L 33.365234 117.00977 L 32.328125 115.81445 L 32.328125 115.69727 L 33.410156 114.54102 L 33.529297 112.88281 L 35.189453 112.82422 L 36.384766 111.78906 L 32.328125 111.78906 z M 36.501953 111.78906 L 37.658203 112.86914 L 39.316406 112.98828 L 39.373047 114.64648 L 40.410156 115.8418 L 40.410156 115.72461 L 41.492188 114.56836 L 41.611328 112.91016 L 43.271484 112.85156 L 44.466797 111.81641 L 40.410156 111.81641 L 40.410156 111.78906 L 36.501953 111.78906 z M 40.410156 115.8418 L 40.410156 115.95898 L 39.326172 117.11914 L 39.210938 118.77539 L 37.548828 118.83203 L 36.355469 119.87109 L 40.410156 119.87109 L 40.410156 119.89844 L 44.320312 119.89844 L 43.162109 118.81445 L 41.503906 118.69727 L 41.447266 117.03711 L 40.410156 115.8418 z M 48.492188 111.78906 L 48.492188 111.81641 L 44.583984 111.81641 L 45.740234 112.89648 L 47.398438 113.01562 L 47.455078 114.67383 L 48.492188 115.86914 L 48.492188 115.98633 L 47.408203 117.14648 L 47.292969 118.80273 L 45.630859 118.85938 L 44.4375 119.89844 L 48.492188 119.89844 L 48.492188 119.87109 L 52.402344 119.87109 L 51.244141 118.78711 L 49.585938 118.66992 L 49.529297 117.00977 L 48.492188 115.81445 L 48.492188 115.69727 L 49.574219 114.54102 L 49.693359 112.88281 L 51.353516 112.82422 L 52.548828 111.78906 L 48.492188 111.78906 z M 52.666016 111.78906 L 53.822266 112.86914 L 55.480469 112.98828 L 55.537109 114.64648 L 56.574219 115.8418 L 56.574219 115.72461 L 57.65625 114.56836 L 57.775391 112.91016 L 59.435547 112.85156 L 60.630859 111.81641 L 56.574219 111.81641 L 56.574219 111.78906 L 52.666016 111.78906 z M 56.574219 115.8418 L 56.574219 115.95898 L 55.490234 117.11914 L 55.375 118.77539 L 53.712891 118.83203 L 52.519531 119.87109 L 56.574219 119.87109 L 56.574219 119.89844 L 60.484375 119.89844 L 59.326172 118.81445 L 57.667969 118.69727 L 57.611328 117.03711 L 56.574219 115.8418 z M 64.65625 111.78906 L 64.65625 111.81641 L 60.748047 111.81641 L 61.904297 112.89648 L 63.5625 113.01562 L 63.619141 114.67383 L 64.65625 115.86914 L 64.65625 115.98633 L 63.572266 117.14648 L 63.457031 118.80273 L 61.794922 118.85938 L 60.601562 119.89844 L 64.65625 119.89844 L 64.65625 119.87109 L 68.566406 119.87109 L 67.408203 118.78711 L 65.75 118.66992 L 65.693359 117.00977 L 64.65625 115.81445 L 64.65625 115.69727 L 65.738281 114.54102 L 65.857422 112.88281 L 67.517578 112.82422 L 68.712891 111.78906 L 64.65625 111.78906 z M 68.830078 111.78906 L 69.986328 112.86914 L 71.644531 112.98828 L 71.701172 114.64648 L 72.738281 115.8418 L 72.738281 115.72461 L 73.820312 114.56836 L 73.939453 112.91016 L 75.599609 112.85156 L 76.794922 111.81641 L 72.738281 111.81641 L 72.738281 111.78906 L 68.830078 111.78906 z M 72.738281 115.8418 L 72.738281 115.95898 L 71.654297 117.11914 L 71.539062 118.77539 L 69.876953 118.83203 L 68.683594 119.87109 L 72.738281 119.87109 L 72.738281 119.89844 L 76.648438 119.89844 L 75.490234 118.81445 L 73.832031 118.69727 L 73.775391 117.03711 L 72.738281 115.8418 z M 80.820312 111.78906 L 80.820312 111.81641 L 76.912109 111.81641 L 78.068359 112.89648 L 79.726562 113.01562 L 79.783203 114.67383 L 80.820312 115.86914 L 80.820312 115.98633 L 79.736328 117.14648 L 79.621094 118.80273 L 77.958984 118.85938 L 76.765625 119.89844 L 80.820312 119.89844 L 80.820312 119.87109 L 84.730469 119.87109 L 83.572266 118.78711 L 81.914062 118.66992 L 81.857422 117.00977 L 80.820312 115.81445 L 80.820312 115.69727 L 81.902344 114.54102 L 82.021484 112.88281 L 83.681641 112.82422 L 84.876953 111.78906 L 80.820312 111.78906 z M 84.994141 111.78906 L 86.150391 112.86914 L 87.808594 112.98828 L 87.865234 114.64648 L 88.902344 115.8418 L 88.902344 115.72461 L 89.984375 114.56836 L 90.103516 112.91016 L 91.763672 112.85156 L 92.958984 111.81641 L 88.902344 111.81641 L 88.902344 111.78906 L 84.994141 111.78906 z M 88.902344 115.8418 L 88.902344 115.95898 L 87.818359 117.11914 L 87.703125 118.77539 L 86.041016 118.83203 L 84.847656 119.87109 L 88.902344 119.87109 L 88.902344 119.89844 L 92.8125 119.89844 L 91.654297 118.81445 L 89.996094 118.69727 L 89.939453 117.03711 L 88.902344 115.8418 z M 93.076172 111.81641 L 94.232422 112.89648 L 95.890625 113.01562 L 95.917969 113.81641 L 95.917969 114.91211 A 3.1428568 3.1428568 0 0 0 95.269531 113.75586 L 95.269531 117.95898 A 3.1428568 3.1428568 0 0 0 95.917969 116.80273 L 95.917969 117.12695 L 95.900391 117.14648 L 95.785156 118.80273 L 94.123047 118.85938 L 92.929688 119.89844 L 95.917969 119.89844 L 95.917969 119.97266 L 99.828125 119.97266 L 98.669922 118.89062 L 97.011719 118.77148 L 96.984375 117.94141 L 96.984375 116.875 A 3.1428568 3.1428568 0 0 0 97.632812 118.0332 L 97.632812 113.83008 A 3.1428568 3.1428568 0 0 0 96.984375 114.99023 L 96.984375 114.66016 L 97 114.64258 L 97.119141 112.98438 L 98.779297 112.92578 L 99.974609 111.89062 L 96.984375 111.89062 L 96.984375 111.81641 L 93.076172 111.81641 z M 100.0918 111.89062 L 101.24805 112.9707 L 102.90625 113.08984 L 102.96289 114.74805 L 104 115.94336 L 104 115.82812 L 105.08203 114.67188 L 105.20117 113.01172 L 106.86133 112.95312 L 108.05664 111.91797 L 104 111.91797 L 104 111.89062 L 100.0918 111.89062 z M 4.0410156 112.6875 A 3.1428568 3.1428568 0 0 0 1.9394531 113.50391 L 1.984375 113.50391 A 3.1428568 3.1428568 0 0 0 1.9394531 113.53125 L 6.1425781 113.53125 A 3.1428568 3.1428568 0 0 0 6.0976562 113.50391 L 6.1425781 113.50391 A 3.1428568 3.1428568 0 0 0 4.0410156 112.6875 z M 20.205078 112.6875 A 3.1428568 3.1428568 0 0 0 18.103516 113.50391 L 22.306641 113.50391 A 3.1428568 3.1428568 0 0 0 20.205078 112.6875 z M 36.369141 112.6875 A 3.1428568 3.1428568 0 0 0 34.267578 113.50391 L 38.470703 113.50391 A 3.1428568 3.1428568 0 0 0 36.369141 112.6875 z M 52.533203 112.6875 A 3.1428568 3.1428568 0 0 0 50.431641 113.50391 L 54.634766 113.50391 A 3.1428568 3.1428568 0 0 0 52.533203 112.6875 z M 68.697266 112.6875 A 3.1428568 3.1428568 0 0 0 66.595703 113.50391 L 70.798828 113.50391 A 3.1428568 3.1428568 0 0 0 68.697266 112.6875 z M 84.861328 112.6875 A 3.1428568 3.1428568 0 0 0 82.759766 113.50391 L 86.962891 113.50391 A 3.1428568 3.1428568 0 0 0 84.861328 112.6875 z M 12.123047 112.71484 A 3.1428568 3.1428568 0 0 0 10.021484 113.53125 L 14.224609 113.53125 A 3.1428568 3.1428568 0 0 0 12.123047 112.71484 z M 28.287109 112.71484 A 3.1428568 3.1428568 0 0 0 26.185547 113.53125 L 30.388672 113.53125 A 3.1428568 3.1428568 0 0 0 28.287109 112.71484 z M 44.451172 112.71484 A 3.1428568 3.1428568 0 0 0 42.349609 113.53125 L 46.552734 113.53125 A 3.1428568 3.1428568 0 0 0 44.451172 112.71484 z M 60.615234 112.71484 A 3.1428568 3.1428568 0 0 0 58.513672 113.53125 L 62.716797 113.53125 A 3.1428568 3.1428568 0 0 0 60.615234 112.71484 z M 76.779297 112.71484 A 3.1428568 3.1428568 0 0 0 74.677734 113.53125 L 78.880859 113.53125 A 3.1428568 3.1428568 0 0 0 76.779297 112.71484 z M 92.943359 112.71484 A 3.1428568 3.1428568 0 0 0 90.841797 113.53125 L 95.044922 113.53125 A 3.1428568 3.1428568 0 0 0 92.943359 112.71484 z M 99.958984 112.78906 A 3.1428568 3.1428568 0 0 0 97.857422 113.60547 L 102.06055 113.60547 A 3.1428568 3.1428568 0 0 0 99.958984 112.78906 z M 108.04102 112.81641 A 3.1428568 3.1428568 0 0 0 105.93945 113.63281 L 110.14258 113.63281 A 3.1428568 3.1428568 0 0 0 108.04102 112.81641 z M 1.7148438 113.72852 A 3.1428568 3.1428568 0 0 0 0.8984375 115.83008 A 3.1428568 3.1428568 0 0 0 0.90039062 115.84375 A 3.1428568 3.1428568 0 0 0 0.8984375 115.85742 A 3.1428568 3.1428568 0 0 0 1.7148438 117.95898 L 1.7148438 117.93164 L 1.7148438 113.75586 L 1.7148438 113.72852 z M 6.3671875 113.72852 L 6.3671875 113.75586 L 6.3671875 117.93164 L 6.3671875 117.95898 A 3.1428568 3.1428568 0 0 0 7.1835938 115.85742 A 3.1428568 3.1428568 0 0 0 7.1816406 115.84375 A 3.1428568 3.1428568 0 0 0 7.1835938 115.83008 A 3.1428568 3.1428568 0 0 0 6.3671875 113.72852 z M 17.878906 113.72852 A 3.1428568 3.1428568 0 0 0 17.0625 115.83008 A 3.1428568 3.1428568 0 0 0 17.878906 117.93164 L 17.878906 113.72852 z M 22.53125 113.72852 L 22.53125 117.93164 A 3.1428568 3.1428568 0 0 0 23.347656 115.83008 A 3.1428568 3.1428568 0 0 0 22.53125 113.72852 z M 34.042969 113.72852 A 3.1428568 3.1428568 0 0 0 33.226562 115.83008 A 3.1428568 3.1428568 0 0 0 34.042969 117.93164 L 34.042969 113.72852 z M 38.695312 113.72852 L 38.695312 117.93164 A 3.1428568 3.1428568 0 0 0 39.511719 115.83008 A 3.1428568 3.1428568 0 0 0 38.695312 113.72852 z M 50.207031 113.72852 A 3.1428568 3.1428568 0 0 0 49.390625 115.83008 A 3.1428568 3.1428568 0 0 0 50.207031 117.93164 L 50.207031 113.72852 z M 54.859375 113.72852 L 54.859375 117.93164 A 3.1428568 3.1428568 0 0 0 55.675781 115.83008 A 3.1428568 3.1428568 0 0 0 54.859375 113.72852 z M 66.371094 113.72852 A 3.1428568 3.1428568 0 0 0 65.554688 115.83008 A 3.1428568 3.1428568 0 0 0 66.371094 117.93164 L 66.371094 113.72852 z M 71.023438 113.72852 L 71.023438 117.93164 A 3.1428568 3.1428568 0 0 0 71.839844 115.83008 A 3.1428568 3.1428568 0 0 0 71.023438 113.72852 z M 82.535156 113.72852 A 3.1428568 3.1428568 0 0 0 81.71875 115.83008 A 3.1428568 3.1428568 0 0 0 82.535156 117.93164 L 82.535156 113.72852 z M 87.1875 113.72852 L 87.1875 117.93164 A 3.1428568 3.1428568 0 0 0 88.003906 115.83008 A 3.1428568 3.1428568 0 0 0 87.1875 113.72852 z M 9.796875 113.75586 A 3.1428568 3.1428568 0 0 0 8.9804688 115.85742 A 3.1428568 3.1428568 0 0 0 9.796875 117.95898 L 9.796875 113.75586 z M 14.449219 113.75586 L 14.449219 117.95898 A 3.1428568 3.1428568 0 0 0 15.265625 115.85742 A 3.1428568 3.1428568 0 0 0 14.449219 113.75586 z M 25.960938 113.75586 A 3.1428568 3.1428568 0 0 0 25.144531 115.85742 A 3.1428568 3.1428568 0 0 0 25.960938 117.95898 L 25.960938 113.75586 z M 30.613281 113.75586 L 30.613281 117.95898 A 3.1428568 3.1428568 0 0 0 31.429688 115.85742 A 3.1428568 3.1428568 0 0 0 30.613281 113.75586 z M 42.125 113.75586 A 3.1428568 3.1428568 0 0 0 41.308594 115.85742 A 3.1428568 3.1428568 0 0 0 42.125 117.95898 L 42.125 113.75586 z M 46.777344 113.75586 L 46.777344 117.95898 A 3.1428568 3.1428568 0 0 0 47.59375 115.85742 A 3.1428568 3.1428568 0 0 0 46.777344 113.75586 z M 58.289062 113.75586 A 3.1428568 3.1428568 0 0 0 57.472656 115.85742 A 3.1428568 3.1428568 0 0 0 58.289062 117.95898 L 58.289062 113.75586 z M 62.941406 113.75586 L 62.941406 117.95898 A 3.1428568 3.1428568 0 0 0 63.757812 115.85742 A 3.1428568 3.1428568 0 0 0 62.941406 113.75586 z M 74.453125 113.75586 A 3.1428568 3.1428568 0 0 0 73.636719 115.85742 A 3.1428568 3.1428568 0 0 0 74.453125 117.95898 L 74.453125 113.75586 z M 79.105469 113.75586 L 79.105469 117.95898 A 3.1428568 3.1428568 0 0 0 79.921875 115.85742 A 3.1428568 3.1428568 0 0 0 79.105469 113.75586 z M 90.617188 113.75586 A 3.1428568 3.1428568 0 0 0 89.800781 115.85742 A 3.1428568 3.1428568 0 0 0 90.617188 117.95898 L 90.617188 113.75586 z M 102.28516 113.83008 L 102.28516 118.0332 A 3.1428568 3.1428568 0 0 0 103.10156 115.93164 A 3.1428568 3.1428568 0 0 0 102.28516 113.83008 z M 105.71484 113.85938 A 3.1428568 3.1428568 0 0 0 104.89844 115.95898 A 3.1428568 3.1428568 0 0 0 105.71484 118.06055 L 105.71484 113.85938 z M 110.36719 113.85938 L 110.36719 118.06055 A 3.1428568 3.1428568 0 0 0 111.18359 115.95898 A 3.1428568 3.1428568 0 0 0 110.36719 113.85938 z M 113.10938 114.70312 A 3.1428568 3.1428568 0 0 0 112.71484 116.12305 A 3.1428568 3.1428568 0 0 0 112.83984 116.78711 L 112.08398 115.91602 L 112.08398 115.79883 L 113.10938 114.70312 z M 96.439453 115.24219 L 96.845703 115.70898 A 3.1428568 3.1428568 0 0 0 96.816406 115.93164 A 3.1428568 3.1428568 0 0 0 96.84375 116.13867 L 96.462891 116.54297 L 96.058594 116.07812 A 3.1428568 3.1428568 0 0 0 96.085938 115.85742 A 3.1428568 3.1428568 0 0 0 96.058594 115.64844 L 96.439453 115.24219 z M 0 115.81445 L 0 115.8418 L 0 119.87109 L 0 119.89844 L 3.9082031 119.89844 L 3.8789062 119.87109 L 3.9101562 119.87109 L 2.7519531 118.78711 L 1.09375 118.66992 L 1.0371094 117.00977 L 0 115.81445 z M 104.00195 115.94336 L 104.00195 116.06055 L 102.91797 117.2207 L 102.80273 118.87695 L 101.14062 118.93359 L 99.947266 119.97266 L 104.00195 119.97266 L 104.00195 120 L 107.91016 120 L 106.75195 118.91602 L 105.09375 118.79883 L 105.03906 117.14062 L 104.00195 115.94336 z M 1.9394531 118.15625 A 3.1428568 3.1428568 0 0 0 1.984375 118.18359 L 1.9394531 118.18359 A 3.1428568 3.1428568 0 0 0 4.0410156 119 A 3.1428568 3.1428568 0 0 0 6.1425781 118.18359 L 6.0976562 118.18359 A 3.1428568 3.1428568 0 0 0 6.1425781 118.15625 L 1.9394531 118.15625 z M 18.103516 118.15625 A 3.1428568 3.1428568 0 0 0 20.205078 118.97266 A 3.1428568 3.1428568 0 0 0 22.306641 118.15625 L 18.103516 118.15625 z M 34.267578 118.15625 A 3.1428568 3.1428568 0 0 0 36.369141 118.97266 A 3.1428568 3.1428568 0 0 0 38.470703 118.15625 L 34.267578 118.15625 z M 50.431641 118.15625 A 3.1428568 3.1428568 0 0 0 52.533203 118.97266 A 3.1428568 3.1428568 0 0 0 54.634766 118.15625 L 50.431641 118.15625 z M 66.595703 118.15625 A 3.1428568 3.1428568 0 0 0 68.697266 118.97266 A 3.1428568 3.1428568 0 0 0 70.798828 118.15625 L 66.595703 118.15625 z M 82.759766 118.15625 A 3.1428568 3.1428568 0 0 0 84.861328 118.97266 A 3.1428568 3.1428568 0 0 0 86.962891 118.15625 L 82.759766 118.15625 z M 10.021484 118.18359 A 3.1428568 3.1428568 0 0 0 12.123047 119 A 3.1428568 3.1428568 0 0 0 14.224609 118.18359 L 10.021484 118.18359 z M 26.185547 118.18359 A 3.1428568 3.1428568 0 0 0 28.287109 119 A 3.1428568 3.1428568 0 0 0 30.388672 118.18359 L 26.185547 118.18359 z M 42.349609 118.18359 A 3.1428568 3.1428568 0 0 0 44.451172 119 A 3.1428568 3.1428568 0 0 0 46.552734 118.18359 L 42.349609 118.18359 z M 58.513672 118.18359 A 3.1428568 3.1428568 0 0 0 60.615234 119 A 3.1428568 3.1428568 0 0 0 62.716797 118.18359 L 58.513672 118.18359 z M 74.677734 118.18359 A 3.1428568 3.1428568 0 0 0 76.779297 119 A 3.1428568 3.1428568 0 0 0 78.880859 118.18359 L 74.677734 118.18359 z M 90.841797 118.18359 A 3.1428568 3.1428568 0 0 0 92.943359 119 A 3.1428568 3.1428568 0 0 0 95.044922 118.18359 L 90.841797 118.18359 z M 97.857422 118.25781 A 3.1428568 3.1428568 0 0 0 99.958984 119.07422 A 3.1428568 3.1428568 0 0 0 102.06055 118.25781 L 97.857422 118.25781 z M 105.93945 118.28516 A 3.1428568 3.1428568 0 0 0 108.04102 119.10156 A 3.1428568 3.1428568 0 0 0 110.14258 118.28516 L 105.93945 118.28516 z " />
  </g>
</svg>
