<?xml version="1.0" encoding="UTF-8" standalone="no"?>
<!-- Created with Inkscape (http://www.inkscape.org/) -->

<svg
   width="120"
   height="120"
   viewBox="0 0 120 120"
   version="1.1"
   id="svg1"
   inkscape:version="1.4 (86a8ad7, 2024-10-11)"
   sodipodi:docname="border_17.svg"
   xmlns:inkscape="http://www.inkscape.org/namespaces/inkscape"
   xmlns:sodipodi="http://sodipodi.sourceforge.net/DTD/sodipodi-0.dtd"
   xmlns="http://www.w3.org/2000/svg"
   xmlns:svg="http://www.w3.org/2000/svg">
  <sodipodi:namedview
     id="namedview1"
     pagecolor="#ffffff"
     bordercolor="#000000"
     borderopacity="0.25"
     inkscape:showpageshadow="2"
     inkscape:pageopacity="0.0"
     inkscape:pagecheckerboard="0"
     inkscape:deskcolor="#d1d1d1"
     inkscape:document-units="px"
     inkscape:zoom="6.8766134"
     inkscape:cx="59.985922"
     inkscape:cy="62.312649"
     inkscape:window-width="3440"
     inkscape:window-height="1369"
     inkscape:window-x="-8"
     inkscape:window-y="-8"
     inkscape:window-maximized="1"
     inkscape:current-layer="layer1" />
  <defs
     id="defs1" />
  <g
     inkscape:label="Layer 1"
     inkscape:groupmode="layer"
     id="layer1">
    <path
       id="rect1"
       style="fill:none;stroke:#0000ff;stroke-width:0.504"
       d="m 2.7226092,2.6230199 c -0.0277,0 -0.052233,0.035853 -0.070312,0.09375 -0.01807,0.057896 -0.029297,0.1378356 -0.029297,0.2265625 v 0.703125 6.4707026 c 0,0.177454 0.044209,0.320312 0.099609,0.320312 h 7.4667968 c -0.0017,0.0235 -0.0078,0.03924 -0.0078,0.06445 v 6.916015 c 0,0.177453 0.04421,0.320313 0.09961,0.320313 H 2.9433124 c -0.1770399,0 -0.3203125,-0.456359 -0.3203125,-1.023438 V 59.67966 c -2.01e-5,0.177454 0.044209,0.320312 0.099609,0.320312 -0.0554,0 -0.099629,0.142859 -0.099609,0.320313 v 42.964845 c 0,-0.56708 0.1432726,-1.02344 0.3203125,-1.02344 h 7.3378906 c -0.0554,0 -0.09961,0.14285 -0.09961,0.32031 v 6.91602 c 0,0.0253 0.0061,0.0409 0.0078,0.0645 H 2.7226092 c -0.0554,0 -0.099609,0.14286 -0.099609,0.32031 v 6.47071 0.70312 c 0,0.0887 0.011227,0.16867 0.029297,0.22657 0.018079,0.0579 0.042612,0.0937 0.070312,0.0937 h 0.2207032 7.3945316 c 0.0554,0 0.09961,-0.14286 0.09961,-0.32032 v -7.17383 c 0,-0.0228 -0.0025,-0.043 -0.0039,-0.0644 h 7.205078 c 0.0554,0 0.09961,-0.14286 0.09961,-0.32031 v 6.85547 c 0,0.56708 -0.14132,1.02344 -0.318359,1.02344 h 42.480469 c 0.0554,0 0.09961,-0.14286 0.09961,-0.32032 0,0.17746 0.04421,0.32032 0.09961,0.32032 h 42.480468 c -0.17704,0 -0.31836,-0.45636 -0.31836,-1.02344 v -6.85547 c 0,0.17746 0.0442,0.32031 0.0996,0.32031 h 7.20508 c -0.002,0.0215 -0.004,0.0416 -0.004,0.0644 v 7.17383 c 0,0.17746 0.0442,0.32032 0.0996,0.32032 h 7.39453 0.2207 c 0.0277,0 0.0522,-0.0358 0.0703,-0.0937 0.0181,-0.0579 0.0293,-0.13787 0.0293,-0.22657 v -0.70312 -6.47071 c 0,-0.17745 -0.0442,-0.32031 -0.0996,-0.32031 h -7.46679 c 0.002,-0.0236 0.008,-0.0393 0.008,-0.0645 V 102.582 c 0,-0.17745 -0.0442,-0.32031 -0.0996,-0.32031 h 7.33789 c 0.17704,0 0.32031,0.45636 0.32031,1.02344 V 60.320285 c 0,-0.177454 -0.0442,-0.320313 -0.0996,-0.320313 0.0554,0 0.0996,-0.142858 0.0996,-0.320312 V 16.714816 c 0,0.567079 -0.14327,1.023438 -0.32031,1.023438 h -7.33789 c 0.0554,0 0.0996,-0.14286 0.0996,-0.320313 v -6.916015 c 0,-0.02522 -0.006,-0.04095 -0.008,-0.06445 h 7.46679 c 0.0554,0 0.0996,-0.142858 0.0996,-0.320312 V 3.6464574 2.9433324 c 0,-0.088726 -0.0112,-0.168666 -0.0293,-0.2265625 -0.0181,-0.057897 -0.0426,-0.09375 -0.0703,-0.09375 h -0.2207 -7.39453 c -0.0554,0 -0.0996,0.1428591 -0.0996,0.3203125 V 10.11716 c 0,0.02287 0.002,0.04296 0.004,0.06445 h -7.20508 c -0.0554,0 -0.0996,0.14286 -0.0996,0.320313 V 3.6464574 c 0,-0.5670795 0.14132,-1.0234375 0.31836,-1.0234375 H 60.099562 c -0.0554,0 -0.09961,0.1428591 -0.09961,0.3203125 0,-0.1774533 -0.04421,-0.3203125 -0.09961,-0.3203125 H 17.419875 c 0.177039,0 0.318359,0.456358 0.318359,1.0234375 v 6.8554686 c 0,-0.177453 -0.04421,-0.320312 -0.09961,-0.320313 h -7.205078 c 0.0014,-0.02149 0.0039,-0.04158 0.0039,-0.06445 V 2.9433324 c 0,-0.1774532 -0.04421,-0.3203125 -0.09961,-0.3203125 H 2.9433124 Z M 59.999953,59.67966 c 0,0.177454 0.04421,0.320312 0.09961,0.320312 -0.0554,0 -0.09961,0.142859 -0.09961,0.320313 0,-0.177454 -0.04421,-0.320313 -0.09961,-0.320313 0.0554,0 0.09961,-0.142858 0.09961,-0.320312 z" />
    <path
       id="rect3"
       style="fill:none;stroke:#0000ff;stroke-width:0.470375"
       d="m 6.3488752,6.3807915 c -0.051704,0 -0.092964,0.133328 -0.092964,0.298943 V 59.825921 c 0,0.06849 0.00994,0.12469 0.021874,0.174991 -0.011713,0.05004 -0.021874,0.105377 -0.021874,0.173168 v 53.14619 c 0,0.16561 0.04126,0.29894 0.092964,0.29894 H 59.907021 c 0.0517,0 0.09296,-0.13333 0.09296,-0.29894 0,0.16561 0.04126,0.29894 0.09296,0.29894 h 53.558149 c 0.0517,0 0.093,-0.13333 0.093,-0.29894 V 60.17408 c 0,-0.06779 -0.0102,-0.123126 -0.0219,-0.173168 0.0119,-0.0503 0.0219,-0.106498 0.0219,-0.174991 V 6.6797345 c 0,-0.165615 -0.0413,-0.298943 -0.093,-0.298943 H 60.092948 c -0.0517,0 -0.09296,0.133328 -0.09296,0.298943 0,-0.165615 -0.04126,-0.298943 -0.09296,-0.298943 z M 59.999985,59.825921 c 0,0.06849 0.0099,0.12469 0.02187,0.174991 -0.01171,0.05004 -0.02187,0.105377 -0.02187,0.173168 0,-0.06779 -0.01016,-0.123126 -0.02188,-0.173168 0.01194,-0.0503 0.02188,-0.106498 0.02188,-0.174991 z" />
  </g>
</svg>
