<?xml version="1.0" encoding="UTF-8" standalone="no"?>
<!-- Created with Inkscape (http://www.inkscape.org/) -->

<svg
   width="120"
   height="120"
   viewBox="0 0 120 120"
   version="1.1"
   id="svg1"
   inkscape:version="1.4 (86a8ad7, 2024-10-11)"
   sodipodi:docname="border_1.svg"
   xmlns:inkscape="http://www.inkscape.org/namespaces/inkscape"
   xmlns:sodipodi="http://sodipodi.sourceforge.net/DTD/sodipodi-0.dtd"
   xmlns="http://www.w3.org/2000/svg"
   xmlns:svg="http://www.w3.org/2000/svg">
  <sodipodi:namedview
     id="namedview1"
     pagecolor="#ffffff"
     bordercolor="#000000"
     borderopacity="0.25"
     inkscape:showpageshadow="2"
     inkscape:pageopacity="0.0"
     inkscape:pagecheckerboard="0"
     inkscape:deskcolor="#d1d1d1"
     inkscape:document-units="px"
     inkscape:zoom="4.331029"
     inkscape:cx="49.98812"
     inkscape:cy="59.916477"
     inkscape:window-width="1920"
     inkscape:window-height="974"
     inkscape:window-x="-11"
     inkscape:window-y="-11"
     inkscape:window-maximized="1"
     inkscape:current-layer="layer1" />
  <defs
     id="defs1" />
  <g
     inkscape:label="Layer 1"
     inkscape:groupmode="layer"
     id="layer1">
    <path
       id="rect1"
       style="fill:none;stroke-width:1.404;stroke:#0000ff;stroke-dasharray:none"
       d="m 7.9140437,6.7753836 a 4.8163266,4.8163266 0 0 1 0.0059,0.080078 A 4.8163266,4.8163266 0 0 1 3.3476783,11.65429 V 59.999992 108.3457 a 4.8163266,4.8163266 0 0 1 4.5722654,4.79882 4.8163266,4.8163266 0 0 1 -0.0059,0.0801 H 59.999981 112.08592 a 4.8163266,4.8163266 0 0 1 -0.006,-0.0801 4.8163266,4.8163266 0 0 1 4.5724,-4.79882 V 59.999992 11.65429 a 4.8163266,4.8163266 0 0 1 -4.57226,-4.7988283 4.8163266,4.8163266 0 0 1 0.006,-0.080078 H 59.999981 Z" />
  </g>
</svg>
