<?xml version="1.0" encoding="UTF-8" standalone="no"?>
<!-- Created with Inkscape (http://www.inkscape.org/) -->

<svg
   width="120"
   height="120"
   viewBox="0 0 120 120"
   version="1.1"
   id="svg1"
   sodipodi:docname="border_15.svg"
   inkscape:version="1.4 (86a8ad7, 2024-10-11)"
   xmlns:inkscape="http://www.inkscape.org/namespaces/inkscape"
   xmlns:sodipodi="http://sodipodi.sourceforge.net/DTD/sodipodi-0.dtd"
   xmlns="http://www.w3.org/2000/svg"
   xmlns:svg="http://www.w3.org/2000/svg">
  <sodipodi:namedview
     id="namedview1"
     pagecolor="#ffffff"
     bordercolor="#000000"
     borderopacity="0.25"
     inkscape:showpageshadow="2"
     inkscape:pageopacity="0.0"
     inkscape:pagecheckerboard="0"
     inkscape:deskcolor="#d1d1d1"
     inkscape:document-units="px"
     inkscape:zoom="9.725"
     inkscape:cx="60"
     inkscape:cy="60"
     inkscape:window-width="3440"
     inkscape:window-height="1369"
     inkscape:window-x="-8"
     inkscape:window-y="-8"
     inkscape:window-maximized="1"
     inkscape:current-layer="layer1" />
  <defs
     id="defs1" />
  <g
     inkscape:label="Layer 1"
     inkscape:groupmode="layer"
     id="layer1">
    <path
       id="rect1"
       style="fill:none;stroke:#0000ff;stroke-width:0.504;stroke-dasharray:none"
       d="m 9.5156264,2.0039083 c 0.0554,0 0.099609,0.142859 0.099609,0.3203126 v 6.9687502 c 0,0.177453 -0.044209,0.320312 -0.099609,0.320312 H 2.1054701 c -0.0554,0 -0.099609,-0.142859 -0.099609,-0.320312 V 59.679689 c 0,0.177456 0.044209,0.320313 0.099609,0.320313 -0.0554,0 -0.099609,0.142857 -0.099609,0.320313 v 50.386715 c 0,-0.17746 0.044209,-0.32032 0.099609,-0.32032 h 7.4101563 c 0.0554,0 0.099609,0.14286 0.099609,0.32032 v 6.96875 c 0,0.17745 -0.044209,0.32031 -0.099609,0.32031 H 59.900392 c 0.0554,0 0.09961,-0.14286 0.09961,-0.32031 0,0.17745 0.04421,0.32031 0.09961,0.32031 h 50.384768 c -0.0554,0 -0.0996,-0.14286 -0.0996,-0.32031 v -6.96875 c 0,-0.17746 0.0442,-0.32032 0.0996,-0.32032 h 7.41016 c 0.0554,0 0.0996,0.14286 0.0996,0.32032 V 60.320315 c 0,-0.177456 -0.0442,-0.320313 -0.0996,-0.320313 0.0554,0 0.0996,-0.142857 0.0996,-0.320313 V 9.2929711 c 0,0.177453 -0.0442,0.320312 -0.0996,0.320312 h -7.41016 c -0.0554,0 -0.0996,-0.142859 -0.0996,-0.320312 V 2.3242209 c 0,-0.1774535 0.0442,-0.3203126 0.0996,-0.3203126 H 60.099611 c -0.0554,0 -0.09961,0.1428591 -0.09961,0.3203126 C 60,2.1467674 59.955791,2.0039083 59.900391,2.0039083 Z M 60.000002,59.679689 c 0,0.177454 0.04421,0.320313 0.09961,0.320313 -0.0554,0 -0.09961,0.142859 -0.09961,0.320313 0,-0.177455 -0.04421,-0.320313 -0.09961,-0.320313 0.0554,0 0.09961,-0.142857 0.09961,-0.320313 z" />
    <path
       id="rect2"
       style="fill:none;stroke:#0000ff;stroke-width:0.504;stroke-dasharray:none"
       d="m 2.2070302,2.3759781 c -0.0554,10e-8 -0.099609,0.1428585 -0.099609,0.3203126 v 2.3417968 c 0,0.177454 0.044209,0.3203125 0.099609,0.3203125 h 2.7832032 c 0.0554,0 0.099609,-0.1428585 0.099609,-0.3203125 V 2.6962907 c 10e-8,-0.1774541 -0.044209,-0.3203126 -0.099609,-0.3203126 z m 112.8027398,0 c -0.0554,0 -0.0996,0.1428585 -0.0996,0.3203126 v 2.3417968 c 0,0.177454 0.0442,0.3203125 0.0996,0.3203125 h 2.7832 c 0.0554,0 0.0996,-0.1428585 0.0996,-0.3203125 V 2.6962907 c 0,-0.1774541 -0.0442,-0.3203124 -0.0996,-0.3203126 z M 5.1894521,5.3584 c -0.0554,0 -0.099609,0.1428595 -0.099609,0.3203125 V 59.948244 c 0,0.02061 0.00472,0.03323 0.00586,0.05273 -0.00106,0.01884 -0.00586,0.03093 -0.00586,0.05078 v 54.269536 c -1e-7,0.17745 0.044209,0.32031 0.099609,0.32031 H 59.90039 c 0.0554,0 0.09961,-0.14286 0.09961,-0.32031 0,0.17745 0.04421,0.32031 0.09961,0.32031 h 54.71094 c 0.0554,0 0.0996,-0.14286 0.0996,-0.32031 V 60.05176 c 0,-0.01985 -0.005,-0.03195 -0.006,-0.05078 0.001,-0.0195 0.006,-0.03213 0.006,-0.05273 V 5.6787125 c 0,-0.177453 -0.0442,-0.3203125 -0.0996,-0.3203125 H 60.099608 c -0.0554,0 -0.09961,0.1428595 -0.09961,0.3203125 C 60,5.5012595 59.95579,5.3584 59.90039,5.3584 Z M 59.999999,59.948244 c 0,0.02061 0.0047,0.03323 0.0059,0.05273 -0.0011,0.01884 -0.0059,0.03093 -0.0059,0.05078 0,-0.01985 -0.0048,-0.03195 -0.0059,-0.05078 0.0011,-0.0195 0.0059,-0.03213 0.0059,-0.05273 z M 2.2070302,114.6416 c -0.0554,0 -0.099609,0.14286 -0.099609,0.32031 v 2.3418 c 0,0.17745 0.044209,0.32031 0.099609,0.32031 h 2.7832032 c 0.0554,0 0.099609,-0.14286 0.099609,-0.32031 v -2.3418 c -1e-7,-0.17745 -0.044209,-0.32031 -0.099609,-0.32031 z m 112.8027398,0 c -0.0554,0 -0.0996,0.14286 -0.0996,0.32031 v 2.3418 c 0,0.17745 0.0442,0.32031 0.0996,0.32031 h 2.7832 c 0.0554,0 0.0996,-0.14286 0.0996,-0.32031 v -2.3418 c 0,-0.17745 -0.0442,-0.32031 -0.0996,-0.32031 z" />
  </g>
</svg>
