<?xml version="1.0" encoding="UTF-8" standalone="no"?>
<!-- Created with Inkscape (http://www.inkscape.org/) -->

<svg
   width="120"
   height="120"
   viewBox="0 0 120 120"
   version="1.1"
   id="svg1"
   inkscape:version="1.4 (86a8ad7, 2024-10-11)"
   sodipodi:docname="border_26.svg"
   xmlns:inkscape="http://www.inkscape.org/namespaces/inkscape"
   xmlns:sodipodi="http://sodipodi.sourceforge.net/DTD/sodipodi-0.dtd"
   xmlns="http://www.w3.org/2000/svg"
   xmlns:svg="http://www.w3.org/2000/svg">
  <sodipodi:namedview
     id="namedview1"
     pagecolor="#ffffff"
     bordercolor="#000000"
     borderopacity="0.25"
     inkscape:showpageshadow="2"
     inkscape:pageopacity="0.0"
     inkscape:pagecheckerboard="0"
     inkscape:deskcolor="#d1d1d1"
     inkscape:document-units="px"
     inkscape:zoom="4.331029"
     inkscape:cx="46.293848"
     inkscape:cy="59.916477"
     inkscape:window-width="1920"
     inkscape:window-height="974"
     inkscape:window-x="-11"
     inkscape:window-y="-11"
     inkscape:window-maximized="1"
     inkscape:current-layer="layer1" />
  <defs
     id="defs1" />
  <g
     inkscape:label="Layer 1"
     inkscape:groupmode="layer"
     id="layer1">
    <path
       id="rect1"
       d="M 9.7080078,9.7070306 V 54.771483 l 0.5039062,-0.503906 v -44.05664 h 44.05664 L 54.77246,9.7070306 Z m 55.5214842,0 0.503906,0.5039064 h 44.054682 v 44.054687 l 0.50391,0.503906 V 9.7070306 Z M 13.295898,13.296874 v 37.882813 l 0.416016,-0.416016 0.583984,0.583984 V 14.296874 h 37.046875 l -0.578125,-0.578125 0.421875,-0.421875 z m 55.527344,0 0.414062,0.414063 -0.585937,0.585937 h 37.052723 v 37.044922 l 0.57813,-0.578125 0.42187,0.421875 V 13.296874 Z M 9.7080078,65.228515 V 110.29297 H 54.77246 l -0.503906,-0.50391 H 10.211914 V 65.732421 Z m 100.5839822,0.002 -0.50391,0.503906 V 109.78906 H 65.733398 l -0.503906,0.50391 h 45.062498 z m -4.5879,3.419922 V 105.70312 H 68.659179 l 0.578125,0.57813 -0.421875,0.42187 H 106.70409 V 68.822265 l -0.41406,0.414062 z m -91.408192,0.0098 -0.576172,0.576172 -0.423828,-0.423828 V 106.7032 H 51.17871 l -0.414062,-0.41406 0.585937,-0.58594 H 14.295898 Z"
       style="fill:#0000ff" />
    <rect
       style="fill:#ff0000;stroke:none;stroke-width:1;stroke-dasharray:none"
       id="rect4"
       width="13.061225"
       height="13.061225"
       x="117.72464"
       y="-90.523018"
       transform="rotate(44.975887)" />
    <path
       id="path4"
       style="fill:#0000ff;stroke:none;stroke-width:1.00647;stroke-dasharray:none"
       d="M 59.996094 4.1191406 L 50.703125 13.419922 L 60.003906 22.708984 L 69.296875 13.412109 L 59.996094 4.1191406 z M 13.412109 50.703125 L 4.1191406 60.003906 L 13.419922 69.296875 L 22.708984 59.996094 L 13.412109 50.703125 z M 106.58008 50.703125 L 97.291016 60.003906 L 106.58789 69.296875 L 115.88086 59.996094 L 106.58008 50.703125 z M 59.996094 97.291016 L 50.703125 106.58789 L 60.003906 115.88086 L 69.296875 106.58008 L 59.996094 97.291016 z " />
  </g>
</svg>
