<?xml version="1.0" encoding="UTF-8" standalone="no"?>
<!-- Created with Inkscape (http://www.inkscape.org/) -->

<svg
   width="120"
   height="120"
   viewBox="0 0 120 120"
   version="1.1"
   id="svg1"
   inkscape:version="1.4 (86a8ad7, 2024-10-11)"
   sodipodi:docname="border_18.svg"
   xmlns:inkscape="http://www.inkscape.org/namespaces/inkscape"
   xmlns:sodipodi="http://sodipodi.sourceforge.net/DTD/sodipodi-0.dtd"
   xmlns="http://www.w3.org/2000/svg"
   xmlns:svg="http://www.w3.org/2000/svg">
  <sodipodi:namedview
     id="namedview1"
     pagecolor="#ffffff"
     bordercolor="#000000"
     borderopacity="0.25"
     inkscape:showpageshadow="2"
     inkscape:pageopacity="0.0"
     inkscape:pagecheckerboard="0"
     inkscape:deskcolor="#d1d1d1"
     inkscape:document-units="px"
     inkscape:zoom="4.8625"
     inkscape:cx="59.948586"
     inkscape:cy="63.033419"
     inkscape:window-width="3440"
     inkscape:window-height="1369"
     inkscape:window-x="-8"
     inkscape:window-y="-8"
     inkscape:window-maximized="1"
     inkscape:current-layer="layer1" />
  <defs
     id="defs1" />
  <g
     inkscape:label="Layer 1"
     inkscape:groupmode="layer"
     id="layer1">
    <path
       id="rect1"
       style="fill:none;stroke:#0000ff;stroke-width:1.07422"
       d="M 14.342518,0.63192812 A 18.62915,6.2548696 87.871846 0 0 12.869129,1.2237672 18.62915,6.2548696 87.871846 0 0 9.8457827,7.3097761 18.629149,6.2548696 3.444648 0 0 3.0644663,11.651309 a 18.629149,6.2548696 3.444648 0 0 5.6990374,4.941648 18.62915,6.2548696 87.871846 0 0 0.02483,2.884699 18.62915,6.2548696 87.871846 0 0 6.9406583,18.388396 v 22.133951 22.133952 a 6.2548696,18.62915 2.128154 0 0 -6.9406583,18.388395 6.2548696,18.62915 2.128154 0 0 -0.02483,2.8847 6.2548696,18.629149 86.555352 0 0 -5.6990374,4.94165 6.2548696,18.629149 86.555352 0 0 6.7813164,4.34153 6.2548696,18.62915 2.128154 0 0 3.0233463,6.08601 6.2548696,18.62915 2.128154 0 0 1.473389,0.59183 6.2548696,18.62915 2.128154 0 0 4.803002,-5.80871 6.2548696,18.629149 86.555352 0 0 2.892975,-0.0869 6.2548696,18.629149 86.555352 0 0 18.220778,-7.36487 6.2548696,18.629149 86.555352 0 0 -0.989159,-1.83553 h 20.730921 20.730921 a 18.629149,6.2548696 3.444648 0 0 -0.991227,1.83553 18.629149,6.2548696 3.444648 0 0 18.220775,7.36487 18.629149,6.2548696 3.444648 0 0 2.892976,0.0869 18.62915,6.2548696 87.871846 0 0 4.80507,5.80871 18.62915,6.2548696 87.871846 0 0 1.47339,-0.59183 18.62915,6.2548696 87.871846 0 0 3.02128,-6.08601 18.629149,6.2548696 3.444648 0 0 6.78131,-4.34153 18.629149,6.2548696 3.444648 0 0 -5.69904,-4.94165 18.62915,6.2548696 87.871846 0 0 -0.0249,-2.8847 18.62915,6.2548696 87.871846 0 0 -6.9386,-18.388395 V 60.000003 37.866052 a 6.2548696,18.62915 2.1281539 0 0 6.9386,-18.388396 6.2548696,18.62915 2.1281539 0 0 0.0249,-2.884699 6.2548696,18.629149 86.555352 0 0 5.69904,-4.941648 6.2548696,18.629149 86.555352 0 0 -6.78131,-4.3415329 6.2548696,18.62915 2.1281539 0 0 -3.02128,-6.0860089 6.2548696,18.62915 2.1281539 0 0 -1.47339,-0.59183908 6.2548696,18.62915 2.1281539 0 0 -4.80507,5.80871368 6.2548696,18.629149 86.555352 0 0 -2.892976,0.086913 6.2548696,18.629149 86.555352 0 0 -18.220775,7.3648782 6.2548696,18.629149 86.555352 0 0 0.991227,1.835529 H 60.001035 39.270114 A 18.629149,6.2548696 3.444648 0 0 40.259273,13.892433 18.629149,6.2548696 3.444648 0 0 22.038495,6.5275552 18.629149,6.2548696 3.444648 0 0 19.14552,6.4406418 18.62915,6.2548696 87.871846 0 0 14.342518,0.63192812 Z" />
  </g>
</svg>
