<?xml version="1.0" encoding="UTF-8" standalone="no"?>
<!-- Created with Inkscape (http://www.inkscape.org/) -->

<svg
   width="120"
   height="120"
   viewBox="0 0 120 120"
   version="1.1"
   id="svg1"
   inkscape:version="1.4 (86a8ad7, 2024-10-11)"
   sodipodi:docname="border_13.svg"
   xmlns:inkscape="http://www.inkscape.org/namespaces/inkscape"
   xmlns:sodipodi="http://sodipodi.sourceforge.net/DTD/sodipodi-0.dtd"
   xmlns="http://www.w3.org/2000/svg"
   xmlns:svg="http://www.w3.org/2000/svg">
  <sodipodi:namedview
     id="namedview1"
     pagecolor="#ffffff"
     bordercolor="#000000"
     borderopacity="0.25"
     inkscape:showpageshadow="2"
     inkscape:pageopacity="0.0"
     inkscape:pagecheckerboard="0"
     inkscape:deskcolor="#d1d1d1"
     inkscape:document-units="px"
     inkscape:zoom="6.8766134"
     inkscape:cx="59.985922"
     inkscape:cy="59.985922"
     inkscape:window-width="3440"
     inkscape:window-height="1369"
     inkscape:window-x="-8"
     inkscape:window-y="-8"
     inkscape:window-maximized="1"
     inkscape:current-layer="layer1" />
  <defs
     id="defs1" />
  <g
     inkscape:label="Layer 1"
     inkscape:groupmode="layer"
     id="layer1">
    <path
       id="path9"
       style="fill:#0000ff;stroke-width:0.329406"
       d="M 7.8066406 2.1191406 C 7.2823176 2.5936419 6.9155749 3.2072739 6.6953125 3.8769531 C 6.3071447 4.4815699 6.079893 5.1754351 6.0761719 5.8984375 C 6.0789479 6.2288529 6.1347532 6.5540639 6.2226562 6.8710938 C 5.90464 6.7854245 5.5786269 6.7307196 5.2480469 6.7304688 C 4.5115415 6.7307189 3.8034291 6.9602448 3.1894531 7.359375 C 2.5351967 7.5817799 1.9357005 7.9432081 1.4707031 8.4570312 C 2.2396159 9.3066826 3.3535286 9.7946533 4.5253906 9.796875 C 5.2184053 9.7966502 5.9009911 9.6257512 6.5058594 9.3007812 C 6.228541 9.8330668 6.0811842 10.420397 6.0761719 11.015625 C 6.0815519 12.078084 6.5379397 13.090663 7.3398438 13.822266 C 7.4233788 13.745044 7.4867248 13.653397 7.5625 13.570312 C 7.6452771 13.660473 7.7154106 13.761189 7.8066406 13.84375 C 8.6564306 13.07471 9.1444844 11.959169 9.1464844 10.787109 C 9.1463213 10.383557 9.0730912 9.9902894 8.9609375 9.6074219 C 9.3419455 9.7197342 9.7331709 9.7956854 10.134766 9.796875 C 11.308741 9.7963263 12.423059 9.3082103 13.193359 8.4570312 C 13.108941 8.3637493 13.006382 8.2914704 12.914062 8.2070312 C 12.999905 8.1282214 13.094366 8.0617065 13.173828 7.9746094 C 12.439148 7.1798694 11.424854 6.7309088 10.365234 6.7304688 C 9.7722446 6.7309188 9.1869469 6.8713381 8.6542969 7.1425781 C 8.9756468 6.5422181 9.1444844 5.8669275 9.1464844 5.1796875 C 9.1457844 4.0058975 8.6576806 2.8893106 7.8066406 2.1191406 z M 13.193359 8.4570312 C 13.962272 9.3066827 15.076185 9.7946533 16.248047 9.796875 C 16.941061 9.7966502 17.623648 9.6257512 18.228516 9.3007812 C 17.951198 9.8330668 17.803841 10.420397 17.798828 11.015625 C 17.804228 12.078084 18.260596 13.090663 19.0625 13.822266 C 19.857314 13.08752 20.306276 12.075345 20.306641 11.015625 C 20.306191 10.42264 20.165771 9.837339 19.894531 9.3046875 C 20.49473 9.6259527 21.170369 9.7948398 21.857422 9.796875 C 23.031397 9.7963263 24.147669 9.3082106 24.917969 8.4570312 C 24.147795 7.6059917 23.031204 7.1159301 21.857422 7.1152344 C 21.170181 7.1171544 20.494893 7.2860702 19.894531 7.6074219 C 20.165771 7.0747704 20.306194 6.4914228 20.306641 5.8984375 C 20.306204 4.8388127 19.857243 3.8245239 19.0625 3.0898438 C 18.260668 3.8213803 17.804296 4.836074 17.798828 5.8984375 C 17.803828 6.4935513 17.951335 7.0791042 18.228516 7.6113281 C 17.623865 7.2865852 16.942709 7.1155073 16.25 7.1152344 C 15.077946 7.1172544 13.962398 7.6072419 13.193359 8.4570312 z M 24.917969 8.4570312 C 25.686882 9.3066827 26.798841 9.7946533 27.970703 9.796875 C 28.663717 9.7966502 29.346304 9.6257512 29.951172 9.3007812 C 29.673854 9.8330668 29.526497 10.420397 29.521484 11.015625 C 29.526884 12.078084 29.983252 13.090663 30.785156 13.822266 C 31.57997 13.08752 32.028932 12.075345 32.029297 11.015625 C 32.028847 10.42264 31.888426 9.837339 31.617188 9.3046875 C 32.217387 9.6259527 32.893025 9.7948398 33.580078 9.796875 C 34.754053 9.7963263 35.870325 9.3082106 36.640625 8.4570312 C 35.870451 7.6059917 34.75386 7.1159301 33.580078 7.1152344 C 32.892837 7.1171544 32.21755 7.2860702 31.617188 7.6074219 C 31.888427 7.0747704 32.02885 6.4914228 32.029297 5.8984375 C 32.02886 4.8388127 31.579899 3.8245237 30.785156 3.0898438 C 29.983324 3.8213803 29.526952 4.836074 29.521484 5.8984375 C 29.526484 6.4935513 29.673991 7.0791042 29.951172 7.6113281 C 29.346521 7.2865852 28.665365 7.1155073 27.972656 7.1152344 C 26.800602 7.1172544 25.687008 7.6072419 24.917969 8.4570312 z M 36.640625 8.4570312 C 37.409538 9.3066827 38.52345 9.7946533 39.695312 9.796875 C 40.388326 9.7966502 41.06896 9.6257512 41.673828 9.3007812 C 41.39651 9.8330668 41.249153 10.420397 41.244141 11.015625 C 41.249541 12.078084 41.705908 13.090663 42.507812 13.822266 C 43.302627 13.08752 43.751588 12.075345 43.751953 11.015625 C 43.751503 10.42264 43.611084 9.837339 43.339844 9.3046875 C 43.940043 9.6259527 44.615681 9.7948398 45.302734 9.796875 C 46.476709 9.7963263 47.592981 9.3082106 48.363281 8.4570312 C 47.593107 7.6059917 46.476516 7.1159301 45.302734 7.1152344 C 44.615493 7.1171562 43.940206 7.2860702 43.339844 7.6074219 C 43.611084 7.0747704 43.751507 6.4914228 43.751953 5.8984375 C 43.751516 4.8388127 43.302557 3.8245237 42.507812 3.0898438 C 41.705982 3.8213803 41.249608 4.836074 41.244141 5.8984375 C 41.249141 6.4935513 41.396647 7.0791042 41.673828 7.6113281 C 41.069177 7.2865852 40.388022 7.1155073 39.695312 7.1152344 C 38.523258 7.1172544 37.409664 7.6072419 36.640625 8.4570312 z M 48.363281 8.4570312 C 49.132194 9.3066827 50.246107 9.7946533 51.417969 9.796875 C 52.110983 9.7966502 52.791616 9.6257512 53.396484 9.3007812 C 53.119166 9.8330668 52.97181 10.420397 52.966797 11.015625 C 52.972197 12.078084 53.428565 13.090663 54.230469 13.822266 C 55.025283 13.08752 55.476199 12.075345 55.476562 11.015625 C 55.476112 10.42264 55.33374 9.837339 55.0625 9.3046875 C 55.662699 9.6259527 56.338338 9.7948398 57.025391 9.796875 C 58.199366 9.7963263 59.315636 9.3082106 60.085938 8.4570312 C 59.315764 7.6059917 58.199173 7.1159301 57.025391 7.1152344 C 56.33815 7.1171562 55.662862 7.2860702 55.0625 7.6074219 C 55.33374 7.0747704 55.476117 6.4914228 55.476562 5.8984375 C 55.476126 4.8388127 55.025212 3.8245237 54.230469 3.0898438 C 53.428637 3.8213803 52.972265 4.836074 52.966797 5.8984375 C 52.971797 6.4935513 53.119303 7.0791042 53.396484 7.6113281 C 52.791833 7.2865852 52.110678 7.1155073 51.417969 7.1152344 C 50.245915 7.1172544 49.13232 7.6072419 48.363281 8.4570312 z M 60.085938 8.4570312 C 60.85485 9.3066827 61.968763 9.7946533 63.140625 9.796875 C 63.833639 9.7966502 64.514273 9.6257512 65.119141 9.3007812 C 64.841823 9.8330668 64.696419 10.420397 64.691406 11.015625 C 64.696806 12.078084 65.153174 13.090663 65.955078 13.822266 C 66.749892 13.08752 67.198854 12.075345 67.199219 11.015625 C 67.198769 10.42264 67.056396 9.837339 66.785156 9.3046875 C 67.385355 9.6259527 68.060994 9.7948398 68.748047 9.796875 C 69.922022 9.7963263 71.038294 9.3082106 71.808594 8.4570312 C 71.03842 7.6059917 69.921829 7.1159301 68.748047 7.1152344 C 68.060806 7.1171544 67.385518 7.2860702 66.785156 7.6074219 C 67.056396 7.0747704 67.198772 6.4914228 67.199219 5.8984375 C 67.198782 4.8388127 66.749821 3.8245237 65.955078 3.0898438 C 65.153246 3.8213803 64.696874 4.836074 64.691406 5.8984375 C 64.696406 6.4935513 64.84196 7.0791042 65.119141 7.6113281 C 64.51449 7.2865852 63.833334 7.1155073 63.140625 7.1152344 C 61.968571 7.1172544 60.854976 7.6072419 60.085938 8.4570312 z M 71.808594 8.4570312 C 72.577507 9.3066827 73.691419 9.7946533 74.863281 9.796875 C 75.556295 9.7966502 76.236929 9.6257512 76.841797 9.3007812 C 76.564479 9.8330668 76.419077 10.420397 76.414062 11.015625 C 76.419462 12.078084 76.87583 13.090663 77.677734 13.822266 C 78.472548 13.08752 78.92151 12.075345 78.921875 11.015625 C 78.921425 10.42264 78.779052 9.837339 78.507812 9.3046875 C 79.108013 9.6259527 79.78365 9.7948398 80.470703 9.796875 C 81.644678 9.7963263 82.76095 9.3082103 83.53125 8.4570312 C 82.761076 7.6059917 81.646438 7.1159301 80.472656 7.1152344 C 79.785415 7.1171562 79.108176 7.2860702 78.507812 7.6074219 C 78.779055 7.0747704 78.921428 6.4914228 78.921875 5.8984375 C 78.921438 4.8388127 78.472477 3.8245237 77.677734 3.0898438 C 76.875902 3.8213803 76.41953 4.836074 76.414062 5.8984375 C 76.419062 6.4935513 76.564616 7.0791042 76.841797 7.6113281 C 76.237146 7.2865852 75.55599 7.1155073 74.863281 7.1152344 C 73.691227 7.1172544 72.577633 7.6072419 71.808594 8.4570312 z M 83.53125 8.4570312 C 84.300163 9.3066827 85.414076 9.7946533 86.585938 9.796875 C 87.278952 9.7966502 87.959585 9.6257512 88.564453 9.3007812 C 88.287135 9.8330668 88.141732 10.420397 88.136719 11.015625 C 88.142119 12.078084 88.598487 13.090663 89.400391 13.822266 C 90.195205 13.08752 90.644166 12.075345 90.644531 11.015625 C 90.644081 10.42264 90.503662 9.837339 90.232422 9.3046875 C 90.832621 9.6259527 91.506306 9.7948398 92.193359 9.796875 C 93.367334 9.7963263 94.483606 9.3082106 95.253906 8.4570312 C 94.483732 7.6059917 93.369095 7.1159301 92.195312 7.1152344 C 91.508071 7.1171562 90.832784 7.2860702 90.232422 7.6074219 C 90.503662 7.0747704 90.644084 6.4914228 90.644531 5.8984375 C 90.644094 4.8388127 90.195134 3.8245237 89.400391 3.0898438 C 88.598559 3.8213803 88.142187 4.836074 88.136719 5.8984375 C 88.141719 6.4935513 88.287272 7.0791042 88.564453 7.6113281 C 87.959802 7.2865852 87.278646 7.1155073 86.585938 7.1152344 C 85.413882 7.1172544 84.300289 7.6072419 83.53125 8.4570312 z M 95.253906 8.4570312 C 96.022819 9.3066827 97.136732 9.7946533 98.308594 9.796875 C 99.001608 9.7966502 99.684202 9.6257512 100.28906 9.3007812 C 100.01174 9.8330668 99.864388 10.420397 99.859375 11.015625 C 99.864775 12.078084 100.32115 13.090663 101.12305 13.822266 C 101.91787 13.08752 102.36683 12.075345 102.36719 11.015625 C 102.36674 10.42264 102.22632 9.837339 101.95508 9.3046875 C 102.55528 9.6259527 103.23092 9.7948398 103.91797 9.796875 C 105.09195 9.7963263 106.20626 9.3082106 106.97656 8.4570312 C 106.20639 7.6059917 105.09176 7.1159301 103.91797 7.1152344 C 103.23073 7.1171544 102.55544 7.2860702 101.95508 7.6074219 C 102.22632 7.0747704 102.36675 6.4914228 102.36719 5.8984375 C 102.36676 4.8388127 101.9178 3.8245239 101.12305 3.0898438 C 100.32122 3.8213803 99.864843 4.836074 99.859375 5.8984375 C 99.864375 6.4935513 100.00993 7.0791042 100.28711 7.6113281 C 99.682453 7.2865852 99.003256 7.1155073 98.310547 7.1152344 C 97.138493 7.1172544 96.022945 7.6072419 95.253906 8.4570312 z M 112.50977 2.1191406 C 111.6586 2.8894406 111.16852 4.0056875 111.16797 5.1796875 C 111.17 5.8667275 111.34084 6.5423781 111.66211 7.1425781 C 111.12946 6.8713381 110.54416 6.7309187 109.95117 6.7304688 C 108.89145 6.7308287 107.87732 7.1797894 107.14258 7.9746094 C 107.17475 8.0098724 107.2148 8.0344402 107.24805 8.0683594 C 107.15857 8.1505512 107.05852 8.2199883 106.97656 8.3105469 C 107.74547 9.1601981 108.85939 9.6501221 110.03125 9.6523438 C 110.51915 9.6521855 110.99123 9.5385578 111.44531 9.375 C 111.28175 9.8290869 111.16812 10.301161 111.16797 10.789062 C 111.17019 11.960922 111.66012 13.07484 112.50977 13.84375 C 112.60032 13.761797 112.66976 13.661738 112.75195 13.572266 C 112.78587 13.605512 112.81044 13.645563 112.8457 13.677734 C 113.64052 12.942988 114.08948 11.928861 114.08984 10.869141 C 114.08939 10.276156 113.94897 9.6908546 113.67773 9.1582031 C 114.27793 9.4794683 114.95359 9.6503086 115.64062 9.6523438 C 116.81463 9.6517949 117.93087 9.161726 118.70117 8.3105469 C 118.17612 7.7303598 117.48394 7.3361997 116.72852 7.1328125 C 116.21253 6.8787904 115.65058 6.7307105 115.06836 6.7304688 C 114.65637 6.7307814 114.25472 6.8227064 113.86523 6.9550781 C 113.99761 6.5655894 114.08953 6.1639402 114.08984 5.7519531 C 114.0896 5.1697301 113.94152 4.6077826 113.6875 4.0917969 C 113.48411 3.3363713 113.08995 2.6441957 112.50977 2.1191406 z M 7.6601562 13.84375 C 6.8089762 14.61405 6.3208625 15.728364 6.3203125 16.902344 C 6.3223525 17.589394 6.49124 18.265034 6.8125 18.865234 C 6.27985 18.593994 5.6945525 18.453575 5.1015625 18.453125 C 4.0418425 18.453485 3.0296719 18.902446 2.2949219 19.697266 C 3.0265319 20.499166 4.0391125 20.955537 5.1015625 20.960938 C 5.6967925 20.955925 6.2841163 20.80857 6.8164062 20.53125 C 6.4914362 21.136111 6.3205425 21.818705 6.3203125 22.511719 C 6.3225425 23.683581 6.8105063 24.797493 7.6601562 25.566406 C 8.5099462 24.797367 8.9999531 23.68182 9.0019531 22.509766 C 9.0016831 21.817057 8.8305994 21.137859 8.5058594 20.533203 C 9.0380894 20.810383 9.6236403 20.955938 10.21875 20.960938 C 11.28112 20.955469 12.295804 20.499096 13.027344 19.697266 C 12.292664 18.902516 11.27838 18.453555 10.21875 18.453125 C 9.6257703 18.453565 9.0424156 18.593994 8.5097656 18.865234 C 8.8311156 18.264874 8.9999531 17.589584 9.0019531 16.902344 C 9.0012631 15.728554 8.5111963 14.61392 7.6601562 13.84375 z M 7.6601562 25.566406 C 6.8089762 26.336706 6.3208625 27.452978 6.3203125 28.626953 C 6.3223525 29.314006 6.49124 29.987692 6.8125 30.587891 C 6.27985 30.316651 5.6945525 30.176231 5.1015625 30.175781 C 4.0418425 30.176146 3.0296719 30.625108 2.2949219 31.419922 C 3.0265319 32.221826 4.0391125 32.678194 5.1015625 32.683594 C 5.6967925 32.678581 6.2841163 32.533177 6.8164062 32.255859 C 6.4914362 32.860727 6.3205425 33.541361 6.3203125 34.234375 C 6.3225425 35.406237 6.8105063 36.52015 7.6601562 37.289062 C 8.5099462 36.520023 8.9999531 35.406431 9.0019531 34.234375 C 9.0016831 33.541667 8.8305994 32.86051 8.5058594 32.255859 C 9.0380894 32.53304 9.6236403 32.678594 10.21875 32.683594 C 11.28112 32.678126 12.295804 32.221754 13.027344 31.419922 C 12.292664 30.625179 11.27838 30.176218 10.21875 30.175781 C 9.6257703 30.176228 9.0424156 30.316651 8.5097656 30.587891 C 8.8311156 29.987529 8.9999531 29.312241 9.0019531 28.625 C 9.0012631 27.451217 8.5111963 26.33658 7.6601562 25.566406 z M 7.6601562 37.289062 C 6.8089762 38.059363 6.3208625 39.175634 6.3203125 40.349609 C 6.3223525 41.036662 6.49124 41.712299 6.8125 42.3125 C 6.27985 42.04126 5.6945525 41.898888 5.1015625 41.898438 C 4.0418425 41.898803 3.0296719 42.347764 2.2949219 43.142578 C 3.0265319 43.944482 4.0391125 44.40085 5.1015625 44.40625 C 5.6967925 44.401236 6.2841163 44.255834 6.8164062 43.978516 C 6.4914362 44.583384 6.3205425 45.264017 6.3203125 45.957031 C 6.3225425 47.128893 6.8105063 48.242806 7.6601562 49.011719 C 8.5099462 48.24268 8.9999531 47.129085 9.0019531 45.957031 C 9.0016831 45.264322 8.8305994 44.583167 8.5058594 43.978516 C 9.0380894 44.255697 9.6236403 44.40125 10.21875 44.40625 C 11.28112 44.400782 12.295804 43.94441 13.027344 43.142578 C 12.292664 42.347835 11.27838 41.898874 10.21875 41.898438 C 9.6257703 41.898884 9.0424156 42.041258 8.5097656 42.3125 C 8.8311156 41.712136 8.9999531 41.034897 9.0019531 40.347656 C 9.0012631 39.173874 8.5111963 38.059236 7.6601562 37.289062 z M 7.6601562 49.011719 C 6.8089762 49.782019 6.3208625 50.898291 6.3203125 52.072266 C 6.3223525 52.759319 6.49124 53.434957 6.8125 54.035156 C 6.27985 53.763916 5.6945525 53.621544 5.1015625 53.621094 C 4.0418425 53.621459 3.0296719 54.07042 2.2949219 54.865234 C 3.0265319 55.667138 4.0391125 56.123506 5.1015625 56.128906 C 5.6967925 56.123893 6.2841163 55.97849 6.8164062 55.701172 C 6.4914362 56.30604 6.3205425 56.986674 6.3203125 57.679688 C 6.3225425 58.85155 6.8105063 59.965463 7.6601562 60.734375 C 8.5099462 59.965337 8.9999531 58.851742 9.0019531 57.679688 C 9.0016831 56.986979 8.8305994 56.305823 8.5058594 55.701172 C 9.0380894 55.978353 9.6236403 56.123906 10.21875 56.128906 C 11.28112 56.123438 12.295804 55.667066 13.027344 54.865234 C 12.292664 54.070491 11.27838 53.621531 10.21875 53.621094 C 9.6257703 53.621541 9.0424156 53.763916 8.5097656 54.035156 C 8.8311156 53.434794 8.9999531 52.759507 9.0019531 52.072266 C 9.0012631 50.898484 8.5111963 49.781893 7.6601562 49.011719 z M 7.6601562 60.734375 C 6.8089762 61.504676 6.3208625 62.620947 6.3203125 63.794922 C 6.3223525 64.481975 6.49124 65.157613 6.8125 65.757812 C 6.27985 65.486572 5.6945525 65.3442 5.1015625 65.34375 C 4.0418425 65.344113 3.0296719 65.79503 2.2949219 66.589844 C 3.0265319 67.391748 4.0391125 67.848116 5.1015625 67.853516 C 5.6967925 67.848503 6.2841163 67.701146 6.8164062 67.423828 C 6.4914362 68.028696 6.3205425 68.70933 6.3203125 69.402344 C 6.3225425 70.574206 6.8105063 71.688118 7.6601562 72.457031 C 8.5099462 71.687992 8.9999531 70.574398 9.0019531 69.402344 C 9.0016831 68.709635 8.8305994 68.028479 8.5058594 67.423828 C 9.0380894 67.701009 9.6236403 67.848516 10.21875 67.853516 C 11.28112 67.848048 12.295804 67.391676 13.027344 66.589844 C 12.292664 65.795101 11.27838 65.344186 10.21875 65.34375 C 9.6257703 65.344196 9.0424156 65.486572 8.5097656 65.757812 C 8.8311156 65.15745 8.9999531 64.482163 9.0019531 63.794922 C 9.0012631 62.62114 8.5111963 61.504549 7.6601562 60.734375 z M 7.6601562 72.457031 C 6.8089762 73.227331 6.3208625 74.343603 6.3203125 75.517578 C 6.3223525 76.204631 6.49124 76.88027 6.8125 77.480469 C 6.27985 77.209229 5.6945525 77.068809 5.1015625 77.068359 C 4.0418425 77.068724 3.0296719 77.517685 2.2949219 78.3125 C 3.0265319 79.114404 4.0391125 79.570772 5.1015625 79.576172 C 5.6967925 79.57116 6.2841163 79.423802 6.8164062 79.146484 C 6.4914362 79.751352 6.3205425 80.431986 6.3203125 81.125 C 6.3225425 82.296862 6.8105063 83.410775 7.6601562 84.179688 C 8.5099462 83.410648 8.9999531 82.297054 9.0019531 81.125 C 9.0016831 80.43229 8.8305994 79.751135 8.5058594 79.146484 C 9.0380894 79.423665 9.6236403 79.571172 10.21875 79.576172 C 11.28112 79.570705 12.295804 79.11433 13.027344 78.3125 C 12.292664 77.517755 11.27838 77.068796 10.21875 77.068359 C 9.6257703 77.068805 9.0424156 77.209229 8.5097656 77.480469 C 8.8311156 76.880107 8.9999531 76.204819 9.0019531 75.517578 C 9.0012631 74.343796 8.5111963 73.227205 7.6601562 72.457031 z M 7.6601562 84.179688 C 6.8089762 84.949988 6.3208625 86.066259 6.3203125 87.240234 C 6.3223525 87.927287 6.49124 88.602926 6.8125 89.203125 C 6.27985 88.931887 5.6945525 88.791466 5.1015625 88.791016 C 4.0418425 88.791381 3.0296719 89.240342 2.2949219 90.035156 C 3.0265319 90.83706 4.0391125 91.293428 5.1015625 91.298828 C 5.6967925 91.293815 6.2841163 91.146459 6.8164062 90.869141 C 6.4914362 91.474009 6.3205425 92.156595 6.3203125 92.849609 C 6.3225425 94.021471 6.8105063 95.133431 7.6601562 95.902344 C 8.5099462 95.133305 8.9999531 94.01971 9.0019531 92.847656 C 9.0016831 92.154947 8.8305994 91.473792 8.5058594 90.869141 C 9.0380894 91.146322 9.6236403 91.293828 10.21875 91.298828 C 11.28112 91.29336 12.295804 90.836988 13.027344 90.035156 C 12.292664 89.240413 11.27838 88.791453 10.21875 88.791016 C 9.6257703 88.791463 9.0424156 88.931886 8.5097656 89.203125 C 8.8311156 88.602763 8.9999531 87.927475 9.0019531 87.240234 C 9.0012631 86.066452 8.5111963 84.949861 7.6601562 84.179688 z M 7.6601562 95.902344 C 6.8089762 96.672644 6.3208625 97.788916 6.3203125 98.962891 C 6.3223525 99.649944 6.49124 100.32558 6.8125 100.92578 C 6.27985 100.65454 5.6945525 100.51412 5.1015625 100.51367 C 4.0418425 100.51404 3.0296719 100.963 2.2949219 101.75781 C 3.0265319 102.55972 4.0391125 103.01648 5.1015625 103.02148 C 5.6967925 103.01646 6.2841163 102.86912 6.8164062 102.5918 C 6.4914362 103.19667 6.3205425 103.87925 6.3203125 104.57227 C 6.3225425 105.74413 6.8105063 106.85804 7.6601562 107.62695 C 8.5099462 106.85792 8.9999531 105.74237 9.0019531 104.57031 C 9.0016831 103.8776 8.8305994 103.19645 8.5058594 102.5918 C 9.0380894 102.86898 9.6236403 103.01648 10.21875 103.02148 C 11.28112 103.01601 12.295804 102.55965 13.027344 101.75781 C 12.292664 100.96307 11.27838 100.51411 10.21875 100.51367 C 9.6257703 100.51412 9.0424156 100.65454 8.5097656 100.92578 C 8.8311156 100.32542 8.9999531 99.650132 9.0019531 98.962891 C 9.0012631 97.789109 8.5111963 96.672518 7.6601562 95.902344 z M 7.6601562 107.62695 C 7.5723496 107.70642 7.5057239 107.80415 7.4257812 107.89062 C 7.3946162 107.85984 7.3721591 107.82284 7.3398438 107.79297 C 6.5380119 108.52451 6.0816397 109.53919 6.0761719 110.60156 C 6.0811719 111.19667 6.2267253 111.78222 6.5039062 112.31445 C 5.8992552 111.98971 5.2200527 111.81863 4.5273438 111.81836 C 3.3552896 111.82036 2.2397417 112.31037 1.4707031 113.16016 C 1.999368 113.74433 2.6974379 114.14185 3.4589844 114.34375 C 3.9690936 114.59533 4.525209 114.74143 5.1015625 114.74414 C 5.5183916 114.74063 5.923517 114.64278 6.3164062 114.50391 C 6.1775385 114.8968 6.0796819 115.30192 6.0761719 115.71875 C 6.0790787 116.29279 6.2250239 116.847 6.4746094 117.35547 C 6.6759286 118.11938 7.0744472 118.81956 7.6601562 119.34961 C 8.5099463 118.58057 8.9999531 117.46502 9.0019531 116.29297 C 9.0016831 115.60026 8.8305994 114.92106 8.5058594 114.31641 C 9.0380894 114.59359 9.6236403 114.73914 10.21875 114.74414 C 11.28112 114.73867 12.295804 114.2823 13.027344 113.48047 C 12.997471 113.44815 12.960469 113.4257 12.929688 113.39453 C 13.01616 113.31459 13.113896 113.24796 13.193359 113.16016 C 12.423185 112.30912 11.308548 111.81905 10.134766 111.81836 C 9.6461729 111.81978 9.1745828 111.93468 8.7207031 112.09961 C 8.8856328 111.64573 9.0005312 111.17414 9.0019531 110.68555 C 9.001263 109.51177 8.5111963 108.39713 7.6601562 107.62695 z M 13.193359 113.16016 C 13.962272 114.00981 15.076185 114.49777 16.248047 114.5 C 16.941061 114.49977 17.623648 114.32888 18.228516 114.00391 C 17.951198 114.5362 17.803841 115.12352 17.798828 115.71875 C 17.804228 116.7812 18.260596 117.79378 19.0625 118.52539 C 19.857314 117.79064 20.306276 116.77847 20.306641 115.71875 C 20.306191 115.12576 20.165771 114.54046 19.894531 114.00781 C 20.49473 114.32907 21.170369 114.49796 21.857422 114.5 C 23.031397 114.49945 24.147669 114.01134 24.917969 113.16016 C 24.147795 112.30912 23.031204 111.81905 21.857422 111.81836 C 21.170181 111.82036 20.494893 111.9892 19.894531 112.31055 C 20.165771 111.7779 20.306194 111.19454 20.306641 110.60156 C 20.306204 109.54193 19.857243 108.52765 19.0625 107.79297 C 18.260668 108.52451 17.804296 109.53919 17.798828 110.60156 C 17.803828 111.19667 17.951335 111.78222 18.228516 112.31445 C 17.623865 111.98971 16.942709 111.81863 16.25 111.81836 C 15.077946 111.82036 13.962398 112.31037 13.193359 113.16016 z M 24.917969 113.16016 C 25.686882 114.00981 26.798841 114.49777 27.970703 114.5 C 28.663717 114.49977 29.346304 114.32888 29.951172 114.00391 C 29.673854 114.5362 29.526497 115.12352 29.521484 115.71875 C 29.526884 116.7812 29.983252 117.79378 30.785156 118.52539 C 31.57997 117.79064 32.028932 116.77847 32.029297 115.71875 C 32.028847 115.12576 31.888426 114.54046 31.617188 114.00781 C 32.217387 114.32907 32.893025 114.49796 33.580078 114.5 C 34.754053 114.49945 35.870325 114.01134 36.640625 113.16016 C 35.870451 112.30912 34.75386 111.81905 33.580078 111.81836 C 32.892837 111.82036 32.21755 111.9892 31.617188 112.31055 C 31.888427 111.7779 32.02885 111.19454 32.029297 110.60156 C 32.02886 109.54193 31.579899 108.52765 30.785156 107.79297 C 29.983324 108.52451 29.526952 109.53919 29.521484 110.60156 C 29.526484 111.19667 29.673991 111.78222 29.951172 112.31445 C 29.346521 111.98971 28.665365 111.81863 27.972656 111.81836 C 26.800602 111.82036 25.687008 112.31037 24.917969 113.16016 z M 36.640625 113.16016 C 37.409538 114.00981 38.52345 114.49777 39.695312 114.5 C 40.388326 114.49977 41.06896 114.32888 41.673828 114.00391 C 41.39651 114.5362 41.249153 115.12352 41.244141 115.71875 C 41.249541 116.7812 41.705908 117.79378 42.507812 118.52539 C 43.302627 117.79064 43.751588 116.77847 43.751953 115.71875 C 43.751503 115.12576 43.611084 114.54046 43.339844 114.00781 C 43.940043 114.32907 44.615681 114.49796 45.302734 114.5 C 46.476709 114.49945 47.592981 114.01134 48.363281 113.16016 C 47.593107 112.30912 46.476516 111.81905 45.302734 111.81836 C 44.615493 111.82036 43.940206 111.9892 43.339844 112.31055 C 43.611084 111.7779 43.751507 111.19454 43.751953 110.60156 C 43.751516 109.54193 43.302557 108.52765 42.507812 107.79297 C 41.705982 108.52451 41.249608 109.53919 41.244141 110.60156 C 41.249141 111.19667 41.396647 111.78222 41.673828 112.31445 C 41.069177 111.98971 40.388022 111.81863 39.695312 111.81836 C 38.523258 111.82036 37.409664 112.31037 36.640625 113.16016 z M 48.363281 113.16016 C 49.132194 114.00981 50.246107 114.49777 51.417969 114.5 C 52.110983 114.49977 52.791616 114.32888 53.396484 114.00391 C 53.119166 114.5362 52.97181 115.12352 52.966797 115.71875 C 52.972197 116.7812 53.428565 117.79378 54.230469 118.52539 C 55.025283 117.79064 55.476199 116.77847 55.476562 115.71875 C 55.476112 115.12576 55.33374 114.54046 55.0625 114.00781 C 55.662699 114.32907 56.338338 114.49796 57.025391 114.5 C 58.199366 114.49945 59.315636 114.01134 60.085938 113.16016 C 59.315764 112.30912 58.199173 111.81905 57.025391 111.81836 C 56.33815 111.82036 55.662862 111.9892 55.0625 112.31055 C 55.33374 111.7779 55.476117 111.19454 55.476562 110.60156 C 55.476126 109.54193 55.025212 108.52765 54.230469 107.79297 C 53.428637 108.52451 52.972265 109.53919 52.966797 110.60156 C 52.971797 111.19667 53.119303 111.78222 53.396484 112.31445 C 52.791833 111.98971 52.110678 111.81863 51.417969 111.81836 C 50.245915 111.82036 49.13232 112.31037 48.363281 113.16016 z M 60.085938 113.16016 C 60.85485 114.00981 61.968763 114.49777 63.140625 114.5 C 63.833639 114.49977 64.514273 114.32888 65.119141 114.00391 C 64.841823 114.5362 64.696419 115.12352 64.691406 115.71875 C 64.696806 116.7812 65.153174 117.79378 65.955078 118.52539 C 66.749892 117.79064 67.198854 116.77847 67.199219 115.71875 C 67.198769 115.12576 67.056396 114.54046 66.785156 114.00781 C 67.385355 114.32907 68.060994 114.49796 68.748047 114.5 C 69.922022 114.49945 71.038294 114.01134 71.808594 113.16016 C 71.03842 112.30912 69.921829 111.81905 68.748047 111.81836 C 68.060806 111.82036 67.385518 111.9892 66.785156 112.31055 C 67.056396 111.7779 67.198772 111.19454 67.199219 110.60156 C 67.198782 109.54193 66.749821 108.52765 65.955078 107.79297 C 65.153246 108.52451 64.696874 109.53919 64.691406 110.60156 C 64.696406 111.19667 64.84196 111.78222 65.119141 112.31445 C 64.51449 111.98971 63.833334 111.81863 63.140625 111.81836 C 61.968571 111.82036 60.854976 112.31037 60.085938 113.16016 z M 71.808594 113.16016 C 72.577507 114.00981 73.691419 114.49777 74.863281 114.5 C 75.556295 114.49977 76.236929 114.32888 76.841797 114.00391 C 76.564479 114.5362 76.419077 115.12352 76.414062 115.71875 C 76.419462 116.7812 76.87583 117.79378 77.677734 118.52539 C 78.472548 117.79064 78.92151 116.77847 78.921875 115.71875 C 78.921425 115.12576 78.779052 114.54046 78.507812 114.00781 C 79.108013 114.32907 79.78365 114.49796 80.470703 114.5 C 81.644678 114.49945 82.76095 114.01134 83.53125 113.16016 C 82.761076 112.30912 81.646438 111.81905 80.472656 111.81836 C 79.785415 111.82036 79.108176 111.9892 78.507812 112.31055 C 78.779055 111.7779 78.921428 111.19454 78.921875 110.60156 C 78.921438 109.54193 78.472477 108.52765 77.677734 107.79297 C 76.875902 108.52451 76.41953 109.53919 76.414062 110.60156 C 76.419062 111.19667 76.564616 111.78222 76.841797 112.31445 C 76.237146 111.98971 75.55599 111.81863 74.863281 111.81836 C 73.691227 111.82036 72.577633 112.31037 71.808594 113.16016 z M 83.53125 113.16016 C 84.300163 114.00981 85.414076 114.49777 86.585938 114.5 C 87.278952 114.49977 87.959585 114.32888 88.564453 114.00391 C 88.287135 114.5362 88.141732 115.12352 88.136719 115.71875 C 88.142119 116.7812 88.598487 117.79378 89.400391 118.52539 C 90.195205 117.79064 90.644166 116.77847 90.644531 115.71875 C 90.644081 115.12576 90.503662 114.54046 90.232422 114.00781 C 90.832621 114.32907 91.506306 114.49796 92.193359 114.5 C 93.367334 114.49945 94.483606 114.01134 95.253906 113.16016 C 94.483732 112.30912 93.369095 111.81905 92.195312 111.81836 C 91.508071 111.82036 90.832784 111.9892 90.232422 112.31055 C 90.503662 111.7779 90.644084 111.19454 90.644531 110.60156 C 90.644094 109.54193 90.195134 108.52765 89.400391 107.79297 C 88.598559 108.52451 88.142187 109.53919 88.136719 110.60156 C 88.141719 111.19667 88.287272 111.78222 88.564453 112.31445 C 87.959802 111.98971 87.278646 111.81863 86.585938 111.81836 C 85.413882 111.82036 84.300289 112.31037 83.53125 113.16016 z M 95.253906 113.16016 C 96.022819 114.00981 97.136732 114.49777 98.308594 114.5 C 99.001608 114.49977 99.684202 114.32888 100.28906 114.00391 C 100.01174 114.5362 99.864388 115.12352 99.859375 115.71875 C 99.864775 116.7812 100.32115 117.79378 101.12305 118.52539 C 101.91787 117.79064 102.36683 116.77847 102.36719 115.71875 C 102.36674 115.12576 102.22632 114.54046 101.95508 114.00781 C 102.55528 114.32907 103.23092 114.49796 103.91797 114.5 C 105.09195 114.49945 106.20626 114.01134 106.97656 113.16016 C 106.20639 112.30912 105.09176 111.81905 103.91797 111.81836 C 103.23073 111.82036 102.55544 111.9892 101.95508 112.31055 C 102.22632 111.7779 102.36675 111.19454 102.36719 110.60156 C 102.36676 109.54193 101.9178 108.52765 101.12305 107.79297 C 100.32122 108.52451 99.864843 109.53919 99.859375 110.60156 C 99.864375 111.19667 100.00993 111.78222 100.28711 112.31445 C 99.682453 111.98971 99.003256 111.81863 98.310547 111.81836 C 97.138493 111.82036 96.022945 112.31037 95.253906 113.16016 z M 112.36328 13.84375 C 111.5121 14.61405 111.02398 15.728364 111.02344 16.902344 C 111.02547 17.589394 111.19437 18.265034 111.51562 18.865234 C 110.98298 18.593994 110.39767 18.453575 109.80469 18.453125 C 108.74497 18.453485 107.73279 18.902446 106.99805 19.697266 C 107.72965 20.499166 108.74223 20.955537 109.80469 20.960938 C 110.39991 20.955925 110.98724 20.80857 111.51953 20.53125 C 111.19456 21.136111 111.02366 21.818705 111.02344 22.511719 C 111.02566 23.683581 111.51363 24.797493 112.36328 25.566406 C 113.21307 24.797367 113.70308 23.68182 113.70508 22.509766 C 113.7048 21.817057 113.53373 21.137859 113.20898 20.533203 C 113.74121 20.810383 114.32676 20.955938 114.92188 20.960938 C 115.98425 20.955469 116.99893 20.499096 117.73047 19.697266 C 116.99579 18.902516 115.9815 18.453555 114.92188 18.453125 C 114.32889 18.453565 113.74554 18.593994 113.21289 18.865234 C 113.53424 18.264874 113.70308 17.589584 113.70508 16.902344 C 113.70438 15.728554 113.21432 14.61392 112.36328 13.84375 z M 112.36328 25.566406 C 111.5121 26.336706 111.02398 27.452978 111.02344 28.626953 C 111.02547 29.314006 111.19437 29.987692 111.51562 30.587891 C 110.98298 30.316651 110.39767 30.176231 109.80469 30.175781 C 108.74497 30.176146 107.73279 30.625108 106.99805 31.419922 C 107.72965 32.221826 108.74223 32.678194 109.80469 32.683594 C 110.39991 32.678581 110.98724 32.533177 111.51953 32.255859 C 111.19456 32.860727 111.02366 33.541361 111.02344 34.234375 C 111.02566 35.406237 111.51363 36.52015 112.36328 37.289062 C 113.21307 36.520023 113.70308 35.406431 113.70508 34.234375 C 113.7048 33.541667 113.53373 32.86051 113.20898 32.255859 C 113.74121 32.53304 114.32676 32.678594 114.92188 32.683594 C 115.98425 32.678126 116.99893 32.221754 117.73047 31.419922 C 116.99579 30.625179 115.9815 30.176218 114.92188 30.175781 C 114.32889 30.176228 113.74554 30.316651 113.21289 30.587891 C 113.53424 29.987529 113.70308 29.312241 113.70508 28.625 C 113.70438 27.451217 113.21432 26.33658 112.36328 25.566406 z M 112.36328 37.289062 C 111.5121 38.059363 111.02398 39.175634 111.02344 40.349609 C 111.02547 41.036662 111.19437 41.712299 111.51562 42.3125 C 110.98298 42.04126 110.39767 41.898888 109.80469 41.898438 C 108.74497 41.898803 107.73279 42.347764 106.99805 43.142578 C 107.72965 43.944482 108.74223 44.40085 109.80469 44.40625 C 110.39991 44.401236 110.98724 44.255834 111.51953 43.978516 C 111.19456 44.583384 111.02366 45.264017 111.02344 45.957031 C 111.02566 47.128893 111.51363 48.242806 112.36328 49.011719 C 113.21307 48.24268 113.70308 47.129085 113.70508 45.957031 C 113.7048 45.264322 113.53373 44.583167 113.20898 43.978516 C 113.74121 44.255697 114.32676 44.40125 114.92188 44.40625 C 115.98425 44.400782 116.99893 43.94441 117.73047 43.142578 C 116.99579 42.347835 115.9815 41.898874 114.92188 41.898438 C 114.32889 41.898884 113.74554 42.041258 113.21289 42.3125 C 113.53424 41.712136 113.70308 41.034897 113.70508 40.347656 C 113.70438 39.173874 113.21432 38.059236 112.36328 37.289062 z M 112.36328 49.011719 C 111.5121 49.782019 111.02398 50.898291 111.02344 52.072266 C 111.02547 52.759319 111.19437 53.434957 111.51562 54.035156 C 110.98298 53.763916 110.39767 53.621544 109.80469 53.621094 C 108.74497 53.621459 107.73279 54.07042 106.99805 54.865234 C 107.72965 55.667138 108.74223 56.123506 109.80469 56.128906 C 110.39991 56.123893 110.98724 55.97849 111.51953 55.701172 C 111.19456 56.30604 111.02366 56.986674 111.02344 57.679688 C 111.02566 58.85155 111.51363 59.965463 112.36328 60.734375 C 113.21307 59.965337 113.70308 58.851742 113.70508 57.679688 C 113.7048 56.986979 113.53373 56.305823 113.20898 55.701172 C 113.74121 55.978353 114.32676 56.123906 114.92188 56.128906 C 115.98425 56.123438 116.99893 55.667066 117.73047 54.865234 C 116.99579 54.070491 115.9815 53.621531 114.92188 53.621094 C 114.32889 53.621541 113.74554 53.763916 113.21289 54.035156 C 113.53424 53.434794 113.70308 52.759507 113.70508 52.072266 C 113.70438 50.898484 113.21432 49.781893 112.36328 49.011719 z M 112.36328 60.734375 C 111.5121 61.504676 111.02398 62.620947 111.02344 63.794922 C 111.02547 64.481975 111.19437 65.157613 111.51562 65.757812 C 110.98298 65.486572 110.39767 65.3442 109.80469 65.34375 C 108.74497 65.344113 107.73279 65.79503 106.99805 66.589844 C 107.72965 67.391748 108.74223 67.848116 109.80469 67.853516 C 110.39991 67.848503 110.98724 67.701146 111.51953 67.423828 C 111.19456 68.028696 111.02366 68.70933 111.02344 69.402344 C 111.02566 70.574206 111.51363 71.688118 112.36328 72.457031 C 113.21307 71.687992 113.70308 70.574398 113.70508 69.402344 C 113.7048 68.709635 113.53373 68.028479 113.20898 67.423828 C 113.74121 67.701009 114.32676 67.848516 114.92188 67.853516 C 115.98425 67.848048 116.99893 67.391676 117.73047 66.589844 C 116.99579 65.795101 115.9815 65.344186 114.92188 65.34375 C 114.32889 65.344196 113.74554 65.486572 113.21289 65.757812 C 113.53424 65.15745 113.70308 64.482163 113.70508 63.794922 C 113.70438 62.62114 113.21432 61.504549 112.36328 60.734375 z M 112.36328 72.457031 C 111.5121 73.227331 111.02398 74.343603 111.02344 75.517578 C 111.02547 76.204631 111.19437 76.88027 111.51562 77.480469 C 110.98298 77.209229 110.39767 77.068809 109.80469 77.068359 C 108.74497 77.068724 107.73279 77.517685 106.99805 78.3125 C 107.72965 79.114404 108.74223 79.570772 109.80469 79.576172 C 110.39991 79.57116 110.98724 79.423802 111.51953 79.146484 C 111.19456 79.751352 111.02366 80.431986 111.02344 81.125 C 111.02566 82.296862 111.51363 83.410775 112.36328 84.179688 C 113.21307 83.410648 113.70308 82.297054 113.70508 81.125 C 113.7048 80.43229 113.53373 79.751135 113.20898 79.146484 C 113.74121 79.423665 114.32676 79.571172 114.92188 79.576172 C 115.98425 79.570705 116.99893 79.11433 117.73047 78.3125 C 116.99579 77.517755 115.9815 77.068796 114.92188 77.068359 C 114.32889 77.068805 113.74554 77.209229 113.21289 77.480469 C 113.53424 76.880107 113.70308 76.204819 113.70508 75.517578 C 113.70438 74.343796 113.21432 73.227205 112.36328 72.457031 z M 112.36328 84.179688 C 111.5121 84.949988 111.02398 86.066259 111.02344 87.240234 C 111.02547 87.927287 111.19437 88.602926 111.51562 89.203125 C 110.98298 88.931887 110.39767 88.791466 109.80469 88.791016 C 108.74497 88.791381 107.73279 89.240342 106.99805 90.035156 C 107.72965 90.83706 108.74223 91.293428 109.80469 91.298828 C 110.39991 91.293815 110.98724 91.146459 111.51953 90.869141 C 111.19456 91.474009 111.02366 92.156595 111.02344 92.849609 C 111.02566 94.021471 111.51363 95.133431 112.36328 95.902344 C 113.21307 95.133305 113.70308 94.01971 113.70508 92.847656 C 113.7048 92.154947 113.53373 91.473792 113.20898 90.869141 C 113.74121 91.146322 114.32676 91.293828 114.92188 91.298828 C 115.98425 91.29336 116.99893 90.836988 117.73047 90.035156 C 116.99579 89.240413 115.9815 88.791453 114.92188 88.791016 C 114.32889 88.791463 113.74554 88.931886 113.21289 89.203125 C 113.53424 88.602763 113.70308 87.927475 113.70508 87.240234 C 113.70438 86.066452 113.21432 84.949861 112.36328 84.179688 z M 112.36328 95.902344 C 111.5121 96.672644 111.02398 97.788916 111.02344 98.962891 C 111.02547 99.649944 111.19437 100.32558 111.51562 100.92578 C 110.98298 100.65454 110.39767 100.51412 109.80469 100.51367 C 108.74497 100.51404 107.73279 100.963 106.99805 101.75781 C 107.72965 102.55972 108.74223 103.01648 109.80469 103.02148 C 110.39991 103.01646 110.98724 102.86912 111.51953 102.5918 C 111.19456 103.19667 111.02366 103.87925 111.02344 104.57227 C 111.02566 105.74413 111.51363 106.85804 112.36328 107.62695 C 113.21307 106.85792 113.70308 105.74237 113.70508 104.57031 C 113.7048 103.8776 113.53373 103.19645 113.20898 102.5918 C 113.74121 102.86898 114.32676 103.01648 114.92188 103.02148 C 115.98425 103.01601 116.99893 102.55965 117.73047 101.75781 C 116.99579 100.96307 115.9815 100.51411 114.92188 100.51367 C 114.32889 100.51412 113.74554 100.65454 113.21289 100.92578 C 113.53424 100.32542 113.70308 99.650132 113.70508 98.962891 C 113.70438 97.789109 113.21432 96.672518 112.36328 95.902344 z M 112.36328 107.62695 C 111.5121 108.39725 111.02398 109.51157 111.02344 110.68555 C 111.02462 111.08714 111.10058 111.47837 111.21289 111.85938 C 110.83002 111.74722 110.43676 111.67399 110.0332 111.67383 C 108.86114 111.67583 107.7456 112.16388 106.97656 113.01367 C 107.05912 113.1049 107.15984 113.17504 107.25 113.25781 C 107.16692 113.33359 107.07527 113.39693 106.99805 113.48047 C 107.72965 114.28237 108.74223 114.73914 109.80469 114.74414 C 110.39991 114.73913 110.98724 114.59177 111.51953 114.31445 C 111.19456 114.91932 111.02366 115.60191 111.02344 116.29492 C 111.02566 117.46678 111.51363 118.5807 112.36328 119.34961 C 112.8771 118.88461 113.23853 118.28512 113.46094 117.63086 C 113.86007 117.01688 114.08959 116.30877 114.08984 115.57227 C 114.08959 115.24169 114.03489 114.91567 113.94922 114.59766 C 114.26625 114.68556 114.59146 114.74136 114.92188 114.74414 C 115.64488 114.74042 116.33874 114.51317 116.94336 114.125 C 117.61304 113.90474 118.22667 113.53799 118.70117 113.01367 C 117.931 112.16263 116.81442 111.67453 115.64062 111.67383 C 114.95338 111.67583 114.27809 111.84467 113.67773 112.16602 C 113.94897 111.63337 114.08939 111.04807 114.08984 110.45508 C 114.0894 109.39546 113.64044 108.38116 112.8457 107.64648 C 112.75861 107.72595 112.69209 107.82041 112.61328 107.90625 C 112.52884 107.81393 112.45656 107.71137 112.36328 107.62695 z " />
  </g>
</svg>
