<?xml version="1.0" encoding="UTF-8" standalone="no"?>
<!-- Created with Inkscape (http://www.inkscape.org/) -->

<svg
   width="120"
   height="120"
   viewBox="0 0 120 120"
   version="1.1"
   id="svg1"
   inkscape:version="1.4 (86a8ad7, 2024-10-11)"
   sodipodi:docname="border_5.svg"
   xmlns:inkscape="http://www.inkscape.org/namespaces/inkscape"
   xmlns:sodipodi="http://sodipodi.sourceforge.net/DTD/sodipodi-0.dtd"
   xmlns="http://www.w3.org/2000/svg"
   xmlns:svg="http://www.w3.org/2000/svg">
  <sodipodi:namedview
     id="namedview1"
     pagecolor="#ffffff"
     bordercolor="#000000"
     borderopacity="0.25"
     inkscape:showpageshadow="2"
     inkscape:pageopacity="0.0"
     inkscape:pagecheckerboard="0"
     inkscape:deskcolor="#d1d1d1"
     inkscape:document-units="px"
     inkscape:zoom="5.2222281"
     inkscape:cx="10.148925"
     inkscape:cy="33.414856"
     inkscape:window-width="3440"
     inkscape:window-height="1369"
     inkscape:window-x="-8"
     inkscape:window-y="-8"
     inkscape:window-maximized="1"
     inkscape:current-layer="layer1" />
  <defs
     id="defs1" />
  <g
     inkscape:label="Layer 1"
     inkscape:groupmode="layer"
     id="layer1">
    <path
       id="path1"
       style="fill:#0000ff;stroke:none;stroke-width:0.50962"
       d="M 7.4355469 1.1972656 L 5.7558594 2.7089844 L 3.4980469 2.8261719 L 3.4648438 3.4667969 L 2.8261719 3.5 L 2.7089844 5.7578125 L 1.1972656 7.4375 L 2.7089844 9.1152344 L 2.8261719 11.373047 L 5.0859375 11.490234 L 6.7636719 13.003906 L 8.4433594 11.490234 L 10.703125 11.373047 L 10.736328 10.734375 L 11.373047 10.701172 L 11.490234 8.4433594 L 13.003906 6.7636719 L 11.490234 5.0859375 L 11.373047 2.8261719 L 9.1152344 2.7089844 L 7.4355469 1.1972656 z M 57.414062 1.1972656 L 55.736328 2.7089844 L 53.476562 2.8261719 L 53.361328 5.0859375 L 51.847656 6.7636719 L 53.361328 8.4433594 L 53.476562 10.701172 L 55.736328 10.820312 L 57.414062 12.332031 L 59.09375 10.820312 L 61.351562 10.701172 L 61.46875 8.4433594 L 62.982422 6.7636719 L 61.46875 5.0859375 L 61.351562 2.8261719 L 59.09375 2.7089844 L 57.414062 1.1972656 z M 112.5625 1.1972656 L 110.88477 2.7089844 L 108.62695 2.8261719 L 108.50977 5.0859375 L 106.99609 6.7636719 L 108.50977 8.4433594 L 108.62695 10.701172 L 109.26367 10.734375 L 109.29688 11.373047 L 111.55469 11.490234 L 113.23438 13.003906 L 114.91211 11.490234 L 117.17188 11.373047 L 117.29102 9.1152344 L 118.80273 7.4375 L 117.29102 5.7578125 L 117.17188 3.5 L 116.5332 3.4667969 L 116.5 2.8261719 L 114.24219 2.7089844 L 112.5625 1.1972656 z M 7.4355469 1.8183594 L 8.9277344 3.1621094 L 10.933594 3.2675781 L 11.037109 5.2734375 L 12.380859 6.7636719 L 12.054688 7.1269531 L 10.820312 5.7578125 L 10.703125 3.5 L 8.4433594 3.3808594 L 7.0722656 2.1464844 L 7.4355469 1.8183594 z M 57.414062 1.8183594 L 58.90625 3.1621094 L 60.912109 3.2675781 L 61.015625 5.2734375 L 62.361328 6.7636719 L 61.015625 8.2558594 L 60.912109 10.261719 L 58.90625 10.365234 L 57.414062 11.708984 L 55.921875 10.365234 L 53.917969 10.261719 L 53.8125 8.2558594 L 52.46875 6.7636719 L 53.8125 5.2734375 L 53.917969 3.2675781 L 55.921875 3.1621094 L 57.414062 1.8183594 z M 112.5625 1.8183594 L 112.92578 2.1464844 L 111.55469 3.3808594 L 109.29688 3.5 L 109.17773 5.7578125 L 107.94531 7.1269531 L 107.61719 6.7636719 L 108.96094 5.2734375 L 109.06641 3.2675781 L 111.07227 3.1621094 L 112.5625 1.8183594 z M 6.7636719 2.4902344 L 7.9746094 3.5820312 L 7.4628906 3.578125 L 6.1425781 3.5664062 L 5.2011719 4.4921875 L 4.2597656 5.4179688 L 4.2597656 5.4335938 L 3.5917969 6.0898438 L 3.5800781 7.4082031 L 3.5742188 7.9667969 L 2.4902344 6.7636719 L 3.8339844 5.2734375 L 3.90625 3.90625 L 5.2734375 3.8359375 L 6.7636719 2.4902344 z M 113.23438 2.4902344 L 114.72461 3.8359375 L 116.09375 3.90625 L 116.16406 5.2734375 L 117.50977 6.7636719 L 116.41602 7.9765625 L 116.41992 7.4648438 L 116.43164 6.1445312 L 115.50586 5.203125 L 114.58008 4.2617188 L 114.57031 4.2617188 L 113.91016 3.5898438 L 112.5918 3.578125 L 112.0332 3.5722656 L 113.23438 2.4902344 z M 5.2910156 3.1972656 L 5.0859375 3.3808594 L 3.9296875 3.4414062 L 3.9394531 3.2675781 L 5.2910156 3.1972656 z M 114.70703 3.1972656 L 116.06055 3.2675781 L 116.07031 3.4414062 L 114.91211 3.3808594 L 114.70703 3.1972656 z M 56.121094 3.5664062 L 55.179688 4.4921875 L 54.238281 5.4179688 L 54.228516 6.7363281 L 54.216797 8.0566406 L 55.142578 8.9980469 L 56.068359 9.9394531 L 57.386719 9.9511719 L 58.707031 9.9628906 L 59.648438 9.0371094 L 60.589844 8.1113281 L 60.601562 6.7910156 L 60.613281 5.4726562 L 59.6875 4.53125 L 58.761719 3.5898438 L 57.441406 3.578125 L 56.121094 3.5664062 z M 9.0664062 3.8769531 L 10.261719 3.9394531 L 10.326172 5.1582031 L 9.7089844 4.53125 L 9.0664062 3.8769531 z M 110.95703 3.8769531 L 110.33008 4.4921875 L 109.67383 5.1367188 L 109.73633 3.9394531 L 110.95703 3.8769531 z M 3.4414062 3.9296875 L 3.3808594 5.0859375 L 3.1972656 5.2910156 L 3.2675781 3.9394531 L 3.4414062 3.9296875 z M 116.55859 3.9296875 L 116.73047 3.9394531 L 116.80078 5.2871094 L 116.61914 5.0859375 L 116.55859 3.9296875 z M 57.382812 4.2949219 L 58.136719 4.9570312 L 59.138672 4.9980469 L 59.203125 5.9980469 L 59.882812 6.734375 L 59.220703 7.4863281 L 59.181641 8.4882812 L 58.181641 8.5527344 L 57.445312 9.2324219 L 56.691406 8.5703125 L 55.689453 8.53125 L 55.625 7.53125 L 54.945312 6.7949219 L 55.607422 6.0429688 L 55.646484 5.0410156 L 56.648438 4.9746094 L 57.382812 4.2949219 z M 6.734375 4.96875 L 7.1601562 5.34375 A 1.5361519 1.5361519 0 0 0 6.1523438 6.1542969 A 1.5361519 1.5361519 0 0 0 5.3320312 7.1894531 L 4.9667969 6.7949219 L 5.6289062 6.0429688 L 5.6425781 5.6699219 L 5.9980469 5.6464844 L 6.734375 4.96875 z M 113.20312 4.96875 L 113.95508 5.6289062 L 114.33008 5.6445312 L 114.35352 5.9980469 L 115.03125 6.734375 L 114.72461 7.0839844 A 1.5361519 1.5361519 0 0 0 113.78906 6.0175781 A 1.5361519 1.5361519 0 0 0 112.80859 5.3320312 L 113.20312 4.96875 z M 8.8242188 4.984375 L 9.1601562 4.9980469 L 9.1835938 5.3496094 L 9.0390625 5.203125 L 8.8242188 4.984375 z M 111.14844 5.0175781 L 111 5.1640625 L 110.7832 5.3769531 L 110.79688 5.0410156 L 111.14844 5.0175781 z M 57.414062 5.2285156 A 1.5361519 1.5361519 0 0 0 55.878906 6.7636719 A 1.5361519 1.5361519 0 0 0 57.414062 8.3007812 A 1.5361519 1.5361519 0 0 0 58.951172 6.7636719 A 1.5361519 1.5361519 0 0 0 57.414062 5.2285156 z M 109.38086 6.2246094 L 109.37695 6.7363281 L 109.36523 8.0566406 L 110.29102 8.9980469 L 111.2168 9.9394531 L 111.22656 9.9394531 L 111.88672 10.611328 L 113.20508 10.623047 L 113.76367 10.628906 L 112.5625 11.708984 L 111.07227 10.365234 L 109.70312 10.294922 L 109.63281 8.9277344 L 108.28711 7.4375 L 109.38086 6.2246094 z M 10.628906 6.234375 L 11.710938 7.4375 L 10.367188 8.9277344 L 10.294922 10.294922 L 8.9277344 10.365234 L 7.4355469 11.708984 L 6.2246094 10.619141 L 6.7363281 10.623047 L 8.0566406 10.634766 L 8.9980469 9.7089844 L 9.9394531 8.7832031 L 9.9394531 8.7714844 L 10.611328 8.1113281 L 10.623047 6.7910156 L 10.628906 6.234375 z M 111.14062 7.0390625 A 1.5361519 1.5361519 0 0 0 111.95117 8.046875 A 1.5361519 1.5361519 0 0 0 112.98633 8.8691406 L 112.59375 9.2324219 L 111.8418 8.5703125 L 111.4668 8.5566406 L 111.44336 8.203125 L 110.76562 7.4667969 L 111.14062 7.0390625 z M 2.1464844 7.0722656 L 3.3808594 8.4433594 L 3.4980469 10.701172 L 5.7558594 10.820312 L 7.1269531 12.054688 L 6.7636719 12.382812 L 5.2734375 11.039062 L 3.2675781 10.933594 L 3.1621094 8.9277344 L 1.8183594 7.4375 L 2.1464844 7.0722656 z M 117.85156 7.0742188 L 118.17773 7.4375 L 116.83398 8.9277344 L 116.73047 10.933594 L 114.72461 11.039062 L 113.23438 12.382812 L 112.87109 12.054688 L 114.24219 10.820312 L 116.5 10.701172 L 116.61914 8.4433594 L 117.85156 7.0742188 z M 8.9316406 7.0800781 L 9.2324219 7.40625 L 8.5703125 8.1582031 L 8.5566406 8.5292969 L 8.203125 8.5527344 L 7.4667969 9.2324219 L 7.0410156 8.8574219 A 1.5361519 1.5361519 0 0 0 7.9921875 8.1835938 A 1.5361519 1.5361519 0 0 0 8.9316406 7.0800781 z M 115.01367 8.8242188 L 115 9.1601562 L 114.64844 9.1835938 L 114.79688 9.0371094 L 115.01367 8.8242188 z M 5.0175781 8.8496094 L 5.1640625 8.9980469 L 5.3789062 9.2167969 L 5.0410156 9.203125 L 5.0175781 8.8496094 z M 11.003906 8.9121094 L 10.933594 10.261719 L 10.759766 10.271484 L 10.820312 9.1152344 L 11.003906 8.9121094 z M 108.99609 8.9121094 L 109.17773 9.1152344 L 109.23828 10.271484 L 109.06641 10.261719 L 108.99609 8.9121094 z M 3.875 9.0429688 L 4.4921875 9.6699219 L 5.1347656 10.324219 L 3.9394531 10.261719 L 3.875 9.0429688 z M 116.12305 9.0664062 L 116.06055 10.261719 L 114.8418 10.324219 L 115.4668 9.7089844 L 116.12305 9.0664062 z M 10.271484 10.759766 L 10.261719 10.933594 L 8.9101562 11.003906 L 9.1152344 10.820312 L 10.271484 10.759766 z M 109.72656 10.759766 L 110.88477 10.820312 L 111.08984 11.003906 L 109.73633 10.933594 L 109.72656 10.759766 z M 6.7636719 57.017578 L 5.0859375 58.53125 L 2.8261719 58.648438 L 2.7089844 60.90625 L 1.1972656 62.585938 L 2.7089844 64.263672 L 2.8261719 66.523438 L 5.0859375 66.638672 L 6.7636719 68.152344 L 8.4433594 66.638672 L 10.703125 66.523438 L 10.820312 64.263672 L 12.333984 62.585938 L 10.820312 60.90625 L 10.703125 58.648438 L 8.4433594 58.53125 L 6.7636719 57.017578 z M 113.23438 57.017578 L 111.55469 58.53125 L 109.29688 58.648438 L 109.17773 60.90625 L 107.66602 62.585938 L 109.17773 64.263672 L 109.29688 66.523438 L 111.55469 66.638672 L 113.23438 68.152344 L 114.91211 66.638672 L 117.17188 66.523438 L 117.29102 64.263672 L 118.80273 62.585938 L 117.29102 60.90625 L 117.17188 58.648438 L 114.91211 58.53125 L 113.23438 57.017578 z M 6.7636719 57.638672 L 8.2558594 58.984375 L 10.261719 59.087891 L 10.367188 61.09375 L 11.710938 62.585938 L 10.367188 64.078125 L 10.261719 66.082031 L 8.2558594 66.1875 L 6.7636719 67.53125 L 5.2734375 66.1875 L 3.2675781 66.082031 L 3.1621094 64.078125 L 1.8183594 62.585938 L 3.1621094 61.09375 L 3.2675781 59.087891 L 5.2734375 58.984375 L 6.7636719 57.638672 z M 113.23438 57.638672 L 114.72461 58.984375 L 116.73047 59.087891 L 116.83398 61.09375 L 118.17773 62.585938 L 116.83398 64.078125 L 116.73047 66.082031 L 114.72461 66.1875 L 113.23438 67.53125 L 111.74219 66.1875 L 109.73633 66.082031 L 109.63281 64.078125 L 108.28711 62.585938 L 109.63281 61.09375 L 109.73633 59.087891 L 111.74219 58.984375 L 113.23438 57.638672 z M 5.4746094 59.386719 L 4.5332031 60.3125 L 3.5917969 61.238281 L 3.5800781 62.558594 L 3.5664062 63.878906 L 4.4921875 64.820312 L 5.4179688 65.761719 L 6.7363281 65.771484 L 8.0566406 65.783203 L 8.9980469 64.857422 L 9.9394531 63.931641 L 9.953125 62.613281 L 9.9648438 61.292969 L 9.0390625 60.351562 L 8.1132812 59.410156 L 6.7929688 59.398438 L 5.4746094 59.386719 z M 111.94141 59.386719 L 111 60.3125 L 110.05859 61.238281 L 110.04688 62.558594 L 110.03516 63.878906 L 110.96094 64.820312 L 111.88672 65.761719 L 113.20508 65.771484 L 114.52734 65.783203 L 115.4668 64.857422 L 116.41016 63.931641 L 116.41992 62.613281 L 116.43164 61.292969 L 115.50586 60.351562 L 114.58008 59.410156 L 113.25977 59.398438 L 111.94141 59.386719 z M 6.734375 60.117188 L 7.4863281 60.779297 L 8.4882812 60.818359 L 8.5527344 61.818359 L 9.2324219 62.554688 L 8.5703125 63.308594 L 8.53125 64.310547 L 7.53125 64.375 L 6.7949219 65.054688 L 6.0429688 64.392578 L 5.0410156 64.353516 L 4.9746094 63.351562 L 4.2949219 62.617188 L 4.9570312 61.863281 L 4.9980469 60.861328 L 5.9980469 60.796875 L 6.734375 60.117188 z M 113.20312 60.117188 L 113.95508 60.779297 L 114.95703 60.818359 L 115.02148 61.818359 L 115.70117 62.554688 L 115.03906 63.308594 L 115 64.310547 L 114 64.375 L 113.26367 65.054688 L 112.51172 64.392578 L 111.50977 64.353516 L 111.44336 63.351562 L 110.76562 62.617188 L 111.42773 61.863281 L 111.4668 60.861328 L 112.4668 60.796875 L 113.20312 60.117188 z M 6.7636719 61.048828 A 1.5361519 1.5361519 0 0 0 5.2285156 62.585938 A 1.5361519 1.5361519 0 0 0 6.7636719 64.121094 A 1.5361519 1.5361519 0 0 0 8.3007812 62.585938 A 1.5361519 1.5361519 0 0 0 6.7636719 61.048828 z M 113.23438 61.048828 A 1.5361519 1.5361519 0 0 0 111.69727 62.585938 A 1.5361519 1.5361519 0 0 0 113.23438 64.121094 A 1.5361519 1.5361519 0 0 0 114.77148 62.585938 A 1.5361519 1.5361519 0 0 0 113.23438 61.048828 z M 6.7636719 106.99609 L 5.0859375 108.50977 L 2.8261719 108.62695 L 2.7089844 110.88477 L 1.1972656 112.56445 L 2.7089844 114.24414 L 2.8261719 116.50195 L 3.4648438 116.53516 L 3.4980469 117.17188 L 5.7558594 117.29102 L 7.4355469 118.80273 L 9.1152344 117.29102 L 11.373047 117.17188 L 11.490234 114.91211 L 13.003906 113.23438 L 11.490234 111.55469 L 11.373047 109.29688 L 10.736328 109.26367 L 10.703125 108.62695 L 8.4433594 108.50977 L 6.7636719 106.99609 z M 113.23438 106.99609 L 111.55469 108.50977 L 109.29688 108.62695 L 109.26367 109.26367 L 108.62695 109.29688 L 108.50977 111.55469 L 106.99609 113.23438 L 108.50977 114.91211 L 108.62695 117.17188 L 110.88477 117.29102 L 112.5625 118.80273 L 114.24219 117.29102 L 116.5 117.17188 L 116.5332 116.53516 L 117.17188 116.50195 L 117.29102 114.24414 L 118.80273 112.56445 L 117.29102 110.88477 L 117.17188 108.62695 L 114.91211 108.50977 L 113.23438 106.99609 z M 6.7636719 107.61914 L 7.125 107.94531 L 5.7558594 109.17773 L 3.4980469 109.29688 L 3.3808594 111.55469 L 2.1445312 112.92773 L 1.8183594 112.56445 L 3.1621094 111.07227 L 3.2675781 109.06641 L 5.2734375 108.96289 L 6.7636719 107.61914 z M 113.23438 107.61914 L 114.72461 108.96289 L 116.73047 109.06641 L 116.83398 111.07227 L 118.17773 112.56445 L 117.85352 112.92578 L 116.61914 111.55469 L 116.5 109.29688 L 114.24219 109.17773 L 112.87305 107.94531 L 113.23438 107.61914 z M 57.414062 107.66602 L 55.736328 109.17773 L 53.476562 109.29688 L 53.361328 111.55469 L 51.847656 113.23438 L 53.361328 114.91211 L 53.476562 117.17188 L 55.736328 117.29102 L 57.414062 118.80273 L 59.09375 117.29102 L 61.351562 117.17188 L 61.46875 114.91211 L 62.982422 113.23438 L 61.46875 111.55469 L 61.351562 109.29688 L 59.09375 109.17773 L 57.414062 107.66602 z M 7.4355469 108.28711 L 8.9277344 109.63281 L 10.294922 109.70312 L 10.367188 111.07227 L 11.710938 112.56445 L 10.619141 113.77734 L 10.623047 113.25977 L 10.634766 111.94141 L 9.7089844 111 L 8.7832031 110.05859 L 8.7714844 110.05859 L 8.1132812 109.38867 L 6.7929688 109.37695 L 6.2324219 109.37109 L 7.4355469 108.28711 z M 57.414062 108.28711 L 58.90625 109.63281 L 60.912109 109.73633 L 61.015625 111.74219 L 62.361328 113.23438 L 61.015625 114.72461 L 60.912109 116.73047 L 58.90625 116.83398 L 57.414062 118.17773 L 55.921875 116.83398 L 53.917969 116.73047 L 53.8125 114.72461 L 52.46875 113.23438 L 53.8125 111.74219 L 53.917969 109.73633 L 55.921875 109.63281 L 57.414062 108.28711 z M 112.5625 108.28711 L 113.77539 109.38086 L 113.25977 109.37695 L 111.94141 109.36523 L 111 110.29102 L 110.05859 111.2168 L 110.05859 111.22852 L 109.38867 111.88672 L 109.37695 113.20508 L 109.37109 113.76758 L 108.28711 112.56445 L 109.63281 111.07227 L 109.70312 109.70312 L 111.07227 109.63281 L 112.5625 108.28711 z M 8.9140625 108.99609 L 10.261719 109.06641 L 10.271484 109.23828 L 9.1152344 109.17773 L 8.9140625 108.99609 z M 111.08594 108.99609 L 110.88477 109.17773 L 109.72656 109.23828 L 109.73633 109.06641 L 111.08594 108.99609 z M 5.1621094 109.67383 L 4.5332031 110.29102 L 3.8769531 110.9375 L 3.9394531 109.73633 L 5.1621094 109.67383 z M 114.86133 109.67383 L 116.06055 109.73633 L 116.12305 110.95898 L 115.50586 110.33008 L 114.86133 109.67383 z M 10.759766 109.72656 L 10.933594 109.73633 L 11.003906 111.08789 L 10.820312 110.88477 L 10.759766 109.72656 z M 109.23828 109.72656 L 109.17773 110.88477 L 108.99609 111.08789 L 109.06641 109.73633 L 109.23828 109.72656 z M 56.121094 110.03516 L 55.179688 110.96094 L 54.238281 111.88672 L 54.228516 113.20508 L 54.216797 114.52734 L 55.142578 115.4668 L 56.068359 116.41016 L 57.386719 116.41992 L 58.707031 116.43164 L 59.648438 115.50586 L 60.589844 114.58008 L 60.601562 113.25977 L 60.613281 111.94141 L 59.6875 111 L 58.761719 110.05859 L 57.441406 110.04688 L 56.121094 110.03516 z M 7.4042969 110.76562 L 8.1582031 111.42773 L 8.5292969 111.44141 L 8.5527344 111.79688 L 9.2324219 112.5332 L 8.8574219 112.95898 A 1.5361519 1.5361519 0 0 0 8.1835938 112.00781 A 1.5361519 1.5361519 0 0 0 7.0761719 111.06836 L 7.4042969 110.76562 z M 57.382812 110.76562 L 58.136719 111.42773 L 59.138672 111.4668 L 59.203125 112.4668 L 59.882812 113.20312 L 59.220703 113.95508 L 59.181641 114.95703 L 58.181641 115.02148 L 57.445312 115.70117 L 56.691406 115.03906 L 55.689453 115 L 55.625 114 L 54.945312 113.26367 L 55.607422 112.51172 L 55.646484 111.50977 L 56.648438 111.44336 L 57.382812 110.76562 z M 112.5332 110.76562 L 112.95898 111.14062 A 1.5361519 1.5361519 0 0 0 111.95312 111.95117 A 1.5361519 1.5361519 0 0 0 111.12891 112.98828 L 110.76562 112.5957 L 111.42773 111.8418 L 111.44141 111.4668 L 111.79688 111.44336 L 112.5332 110.76562 z M 114.62305 110.7832 L 114.95703 110.79688 L 114.98047 111.14648 L 114.83594 111 L 114.62305 110.7832 z M 5.3476562 110.81641 L 5.2011719 110.96094 L 4.984375 111.17383 L 4.9980469 110.83984 L 5.3476562 110.81641 z M 57.414062 111.69727 A 1.5361519 1.5361519 0 0 0 55.878906 113.23438 A 1.5361519 1.5361519 0 0 0 57.414062 114.77148 A 1.5361519 1.5361519 0 0 0 58.951172 113.23438 A 1.5361519 1.5361519 0 0 0 57.414062 111.69727 z M 3.5839844 112.01953 L 3.5800781 112.53711 L 3.5664062 113.85742 L 4.4921875 114.79883 L 5.4179688 115.74023 L 5.4316406 115.74023 L 6.0898438 116.41016 L 7.4082031 116.41992 L 7.96875 116.42578 L 6.7636719 117.50977 L 5.2734375 116.16602 L 3.90625 116.09375 L 3.8339844 114.72461 L 2.4902344 113.23438 L 3.5839844 112.01953 z M 116.42578 112.03125 L 117.50977 113.23438 L 116.16406 114.72461 L 116.09375 116.09375 L 114.72461 116.16602 L 113.23438 117.50977 L 112.01953 116.41602 L 112.53516 116.41992 L 113.85547 116.43164 L 114.79688 115.50586 L 115.73828 114.58008 L 115.73828 114.57031 L 116.41016 113.91016 L 116.41992 112.5918 L 116.42578 112.03125 z M 114.66992 112.81055 L 115.03125 113.20312 L 114.37109 113.95508 L 114.35547 114.33008 L 114 114.35352 L 113.26367 115.0332 L 112.91406 114.72461 A 1.5361519 1.5361519 0 0 0 113.98047 113.79102 A 1.5361519 1.5361519 0 0 0 114.66992 112.81055 z M 5.3417969 112.83789 A 1.5361519 1.5361519 0 0 0 6.1542969 113.84766 A 1.5361519 1.5361519 0 0 0 7.1894531 114.66992 L 6.7949219 115.0332 L 6.0429688 114.37109 L 5.6699219 114.35742 L 5.6464844 114 L 4.9667969 113.26367 L 5.3417969 112.83789 z M 12.056641 112.87305 L 12.380859 113.23438 L 11.037109 114.72461 L 10.933594 116.73047 L 8.9277344 116.83398 L 7.4355469 118.17773 L 7.0742188 117.85156 L 8.4433594 116.61914 L 10.703125 116.50195 L 10.820312 114.24414 L 12.056641 112.87305 z M 107.94336 112.87305 L 109.17773 114.24414 L 109.29688 116.50195 L 111.55469 116.61914 L 112.92383 117.85156 L 112.5625 118.17773 L 111.07227 116.83398 L 109.06641 116.73047 L 108.96094 114.72461 L 107.61719 113.23438 L 107.94336 112.87305 z M 9.2167969 114.62109 L 9.203125 114.95703 L 8.8515625 114.98047 L 8.9980469 114.83594 L 9.2167969 114.62109 z M 110.81641 114.65234 L 110.96094 114.79883 L 111.17188 115.01367 L 110.83984 115 L 110.81641 114.65234 z M 3.1972656 114.70703 L 3.3808594 114.91211 L 3.4414062 116.07031 L 3.2675781 116.06055 L 3.1972656 114.70703 z M 116.80078 114.71094 L 116.73047 116.06055 L 116.55859 116.07031 L 116.61914 114.91211 L 116.80078 114.71094 z M 109.67383 114.83984 L 110.29102 115.4668 L 110.93555 116.12305 L 109.73633 116.06055 L 109.67383 114.83984 z M 10.324219 114.86133 L 10.261719 116.06055 L 9.0410156 116.125 L 9.6699219 115.50586 L 10.324219 114.86133 z M 3.9296875 116.55859 L 5.0859375 116.61914 L 5.2871094 116.80078 L 3.9394531 116.73047 L 3.9296875 116.55859 z M 116.07031 116.55859 L 116.06055 116.73047 L 114.71094 116.80078 L 114.91211 116.61914 L 116.07031 116.55859 z " />
  </g>
</svg>
