<?xml version="1.0" encoding="UTF-8" standalone="no"?>
<!-- Created with Inkscape (http://www.inkscape.org/) -->

<svg
   width="120"
   height="120"
   viewBox="0 0 120 120"
   version="1.1"
   id="svg1"
   inkscape:version="1.4 (86a8ad7, 2024-10-11)"
   sodipodi:docname="boder_16.svg"
   xmlns:inkscape="http://www.inkscape.org/namespaces/inkscape"
   xmlns:sodipodi="http://sodipodi.sourceforge.net/DTD/sodipodi-0.dtd"
   xmlns="http://www.w3.org/2000/svg"
   xmlns:svg="http://www.w3.org/2000/svg">
  <sodipodi:namedview
     id="namedview1"
     pagecolor="#ffffff"
     bordercolor="#000000"
     borderopacity="0.25"
     inkscape:showpageshadow="2"
     inkscape:pageopacity="0.0"
     inkscape:pagecheckerboard="0"
     inkscape:deskcolor="#d1d1d1"
     inkscape:document-units="px"
     inkscape:zoom="9.725"
     inkscape:cx="60"
     inkscape:cy="60"
     inkscape:window-width="3440"
     inkscape:window-height="1369"
     inkscape:window-x="-8"
     inkscape:window-y="-8"
     inkscape:window-maximized="1"
     inkscape:current-layer="layer1" />
  <defs
     id="defs1" />
  <g
     inkscape:label="Layer 1"
     inkscape:groupmode="layer"
     id="layer1">
    <path
       id="rect2"
       style="fill:none;stroke:#0000ff;stroke-width:0.504;stroke-dasharray:none"
       d="m 2.207037,2.375981 c -0.0554,1e-7 -0.099609,0.1428585 -0.099609,0.3203126 v 2.3417968 c 0,0.177454 0.044209,0.3203125 0.099609,0.3203125 H 4.99024 c 0.0554,0 0.09961,-0.1428585 0.09961,-0.3203125 V 2.6962936 C 5.08985,2.5188395 5.04564,2.375981 4.99024,2.375981 Z m 112.802733,0 c -0.0554,0 -0.0996,0.1428585 -0.0996,0.3203126 v 2.3417968 c 0,0.177454 0.0442,0.3203125 0.0996,0.3203125 h 2.7832 c 0.0554,0 0.0996,-0.1428585 0.0996,-0.3203125 V 2.6962936 c 0,-0.1774541 -0.0442,-0.3203124 -0.0996,-0.3203126 z M 5.189459,5.3584029 c -0.0554,0 -0.09961,0.1428595 -0.09961,0.3203125 V 59.948247 c 0,0.02061 0.0047,0.03323 0.0059,0.05273 -0.0011,0.01884 -0.0059,0.03093 -0.0059,0.05078 v 54.269533 c 0,0.17745 0.04421,0.32031 0.09961,0.32031 h 54.710938 c 0.0554,0 0.09961,-0.14286 0.09961,-0.32031 0,0.17745 0.04421,0.32031 0.09961,0.32031 h 54.710933 c 0.0554,0 0.0996,-0.14286 0.0996,-0.32031 V 60.051763 c 0,-0.01985 -0.005,-0.03195 -0.006,-0.05078 0.001,-0.0195 0.006,-0.03213 0.006,-0.05273 V 5.6787154 c 0,-0.177453 -0.0442,-0.3203125 -0.0996,-0.3203125 H 60.099615 c -0.0554,0 -0.09961,0.1428595 -0.09961,0.3203125 2e-6,-0.177453 -0.04421,-0.3203125 -0.09961,-0.3203125 z M 60.000006,59.948247 c 0,0.02061 0.0047,0.03323 0.0059,0.05273 -0.0011,0.01884 -0.0059,0.03093 -0.0059,0.05078 0,-0.01985 -0.0048,-0.03195 -0.0059,-0.05078 0.0011,-0.0195 0.0059,-0.03213 0.0059,-0.05273 z M 2.207037,114.6416 c -0.0554,0 -0.099609,0.14286 -0.099609,0.32031 v 2.3418 c 0,0.17745 0.044209,0.32031 0.099609,0.32031 H 4.99024 c 0.0554,0 0.09961,-0.14286 0.09961,-0.32031 v -2.3418 c 0,-0.17745 -0.04421,-0.32031 -0.09961,-0.32031 z m 112.802733,0 c -0.0554,0 -0.0996,0.14286 -0.0996,0.32031 v 2.3418 c 0,0.17745 0.0442,0.32031 0.0996,0.32031 h 2.7832 c 0.0554,0 0.0996,-0.14286 0.0996,-0.32031 v -2.3418 c 0,-0.17745 -0.0442,-0.32031 -0.0996,-0.32031 z" />
    <path
       id="rect1"
       style="fill:none;stroke:#0000ff;stroke-width:0.561634;stroke-dasharray:none"
       d="m 4.0788559,3.9680071 c -0.061735,0 -0.1108427,0.1581179 -0.1108427,0.3558636 V 59.642188 c 0,0.197745 0.049108,0.357808 0.1108427,0.357808 -0.061735,0 -0.1108427,0.160063 -0.1108427,0.357808 v 55.318316 c 0,0.19775 0.049108,0.35587 0.1108427,0.35587 H 59.889159 c 0.06174,0 0.110843,-0.15812 0.110843,-0.35587 0,0.19775 0.04911,0.35587 0.110843,0.35587 h 55.810305 c 0.0618,0 0.11084,-0.15812 0.11084,-0.35587 V 60.357804 c 0,-0.197745 -0.0491,-0.357808 -0.11084,-0.357808 0.0618,0 0.11084,-0.160063 0.11084,-0.357808 V 4.3238707 c 0,-0.1977457 -0.0491,-0.3558636 -0.11084,-0.3558636 H 60.110845 c -0.06174,0 -0.110843,0.1581179 -0.110843,0.3558636 0,-0.1977457 -0.0491,-0.3558636 -0.110843,-0.3558636 z M 60.000002,59.642188 c 0,0.197745 0.0491,0.357808 0.110843,0.357808 -0.06174,0 -0.110843,0.160063 -0.110843,0.357808 0,-0.197745 -0.0491,-0.357808 -0.110843,-0.357808 0.06174,0 0.110843,-0.160063 0.110843,-0.357808 z" />
  </g>
</svg>
