<?xml version="1.0" encoding="UTF-8" standalone="no"?>
<!-- Created with Inkscape (http://www.inkscape.org/) -->

<svg
   width="120"
   height="120"
   viewBox="0 0 120 120"
   version="1.1"
   id="svg1"
   inkscape:version="1.4 (86a8ad7, 2024-10-11)"
   sodipodi:docname="border_22.svg"
   xmlns:inkscape="http://www.inkscape.org/namespaces/inkscape"
   xmlns:sodipodi="http://sodipodi.sourceforge.net/DTD/sodipodi-0.dtd"
   xmlns="http://www.w3.org/2000/svg"
   xmlns:svg="http://www.w3.org/2000/svg">
  <sodipodi:namedview
     id="namedview1"
     pagecolor="#ffffff"
     bordercolor="#000000"
     borderopacity="0.25"
     inkscape:showpageshadow="2"
     inkscape:pageopacity="0.0"
     inkscape:pagecheckerboard="0"
     inkscape:deskcolor="#d1d1d1"
     inkscape:document-units="px"
     inkscape:zoom="9.725"
     inkscape:cx="60"
     inkscape:cy="60"
     inkscape:window-width="3440"
     inkscape:window-height="1369"
     inkscape:window-x="-8"
     inkscape:window-y="-8"
     inkscape:window-maximized="1"
     inkscape:current-layer="layer1" />
  <defs
     id="defs1" />
  <g
     inkscape:label="Layer 1"
     inkscape:groupmode="layer"
     id="layer1">
    <path
       id="rect1"
       d="M 7.6386719 3.4160156 L 7.6386719 7.6210938 L 7.6210938 7.6210938 L 7.6210938 7.6386719 L 3.4160156 7.6386719 L 3.4160156 60 L 3.4160156 112.36133 L 7.6210938 112.36133 L 7.6210938 112.37891 L 7.6386719 112.37891 L 7.6386719 116.58398 L 60 116.58398 L 112.36133 116.58398 L 112.36133 112.37891 L 112.37891 112.37891 L 112.37891 112.36133 L 116.58398 112.36133 L 116.58398 60 L 116.58398 7.6386719 L 112.37891 7.6386719 L 112.37891 7.6210938 L 112.36133 7.6210938 L 112.36133 3.4160156 L 60 3.4160156 L 7.6386719 3.4160156 z M 3.5136719 3.5253906 L 3.5136719 7.125 L 7.1132812 7.125 L 7.1132812 3.5253906 L 3.5136719 3.5253906 z M 112.88672 3.5253906 L 112.88672 7.125 L 116.48633 7.125 L 116.48633 3.5253906 L 112.88672 3.5253906 z M 8.1074219 3.8847656 L 60 3.8847656 L 111.89258 3.8847656 L 111.89258 7.6210938 L 106.63086 7.6210938 L 106.63086 13.369141 L 112.37891 13.369141 L 112.37891 8.1074219 L 116.11523 8.1074219 L 116.11523 60 L 116.11523 111.89258 L 112.37891 111.89258 L 112.37891 106.63086 L 106.63086 106.63086 L 106.63086 112.37891 L 111.89258 112.37891 L 111.89258 116.11523 L 60 116.11523 L 8.1074219 116.11523 L 8.1074219 112.37891 L 13.369141 112.37891 L 13.369141 106.63086 L 7.6210938 106.63086 L 7.6210938 111.89258 L 3.8847656 111.89258 L 3.8847656 60 L 3.8847656 8.1074219 L 7.6210938 8.1074219 L 7.6210938 13.369141 L 13.369141 13.369141 L 13.369141 7.6210938 L 8.1074219 7.6210938 L 8.1074219 3.8847656 z M 8.125 8.125 L 12.865234 8.125 L 12.865234 12.865234 L 8.125 12.865234 L 8.125 8.125 z M 107.13477 8.125 L 111.875 8.125 L 111.875 12.865234 L 107.13477 12.865234 L 107.13477 8.125 z M 8.125 107.13477 L 12.865234 107.13477 L 12.865234 111.875 L 8.125 111.875 L 8.125 107.13477 z M 107.13477 107.13477 L 111.875 107.13477 L 111.875 111.875 L 107.13477 111.875 L 107.13477 107.13477 z M 3.5136719 112.875 L 3.5136719 116.47461 L 7.1132812 116.47461 L 7.1132812 112.875 L 3.5136719 112.875 z M 112.88672 112.875 L 112.88672 116.47461 L 116.48633 116.47461 L 116.48633 112.875 L 112.88672 112.875 z "
       style="fill:#0000ff" />
  </g>
</svg>
