<?xml version="1.0" encoding="UTF-8" standalone="no"?>
<!-- Created with Inkscape (http://www.inkscape.org/) -->

<svg
   width="120"
   height="120"
   viewBox="0 0 120 120"
   version="1.1"
   id="svg1"
   inkscape:version="1.4 (86a8ad7, 2024-10-11)"
   sodipodi:docname="border_11.svg"
   xmlns:inkscape="http://www.inkscape.org/namespaces/inkscape"
   xmlns:sodipodi="http://sodipodi.sourceforge.net/DTD/sodipodi-0.dtd"
   xmlns="http://www.w3.org/2000/svg"
   xmlns:svg="http://www.w3.org/2000/svg">
  <sodipodi:namedview
     id="namedview1"
     pagecolor="#ffffff"
     bordercolor="#000000"
     borderopacity="0.25"
     inkscape:showpageshadow="2"
     inkscape:pageopacity="0.0"
     inkscape:pagecheckerboard="0"
     inkscape:deskcolor="#d1d1d1"
     inkscape:document-units="px"
     inkscape:zoom="4.331029"
     inkscape:cx="61.301829"
     inkscape:cy="52.758824"
     inkscape:window-width="1920"
     inkscape:window-height="974"
     inkscape:window-x="-11"
     inkscape:window-y="-11"
     inkscape:window-maximized="1"
     inkscape:current-layer="layer1" />
  <defs
     id="defs1" />
  <g
     inkscape:label="Layer 1"
     inkscape:groupmode="layer"
     id="layer1">
    <path
       id="rect1"
       d="M 8.8320312 1.7910156 L 8.8320312 4.9082031 L 4.9082031 4.9082031 L 4.9082031 14.099609 L 3.421875 15.634766 L 3.421875 60 L 3.421875 104.36523 L 4.9082031 105.90039 L 4.9082031 115.0918 L 8.8320312 115.0918 L 8.8320312 118.20898 L 111.16797 118.20898 L 111.16797 115.0918 L 115.0918 115.0918 L 115.0918 105.90039 L 116.57812 104.36523 L 116.57812 60 L 116.57812 15.634766 L 115.0918 14.099609 L 115.0918 4.9082031 L 111.16797 4.9082031 L 111.16797 1.7910156 L 8.8320312 1.7910156 z M 10.037109 2.9941406 L 109.96289 2.9941406 L 109.96289 4.9082031 L 106.1875 4.9082031 L 104.74609 3.4199219 L 60 3.4199219 L 15.253906 3.4199219 L 13.8125 4.9082031 L 10.037109 4.9082031 L 10.037109 2.9941406 z M 15.742188 4.5742188 L 60 4.5742188 L 104.25781 4.5742188 L 104.58203 4.9082031 L 15.417969 4.9082031 L 15.742188 4.5742188 z M 6.1113281 6.1113281 L 8.8320312 6.1113281 L 8.8320312 10.048828 L 6.1113281 12.857422 L 6.1113281 6.1113281 z M 10.037109 6.1113281 L 12.646484 6.1113281 L 10.037109 8.8046875 L 10.037109 6.1113281 z M 14.253906 6.1113281 L 105.74609 6.1113281 L 109.96289 10.464844 L 109.96289 109.53516 L 105.74609 113.88867 L 14.253906 113.88867 L 10.037109 109.53516 L 10.037109 10.464844 L 14.253906 6.1113281 z M 107.35352 6.1113281 L 109.96289 6.1113281 L 109.96289 8.8046875 L 107.35352 6.1113281 z M 111.16797 6.1113281 L 113.88867 6.1113281 L 113.88867 12.857422 L 111.16797 10.048828 L 111.16797 6.1113281 z M 8.8320312 11.707031 L 8.8320312 108.29297 L 6.1113281 105.48242 L 6.1113281 14.517578 L 8.8320312 11.707031 z M 111.16797 11.707031 L 113.88867 14.517578 L 113.88867 105.48242 L 111.16797 108.29297 L 111.16797 11.707031 z M 4.9082031 15.757812 L 4.9082031 104.24219 L 4.5761719 103.89844 L 4.5761719 60 L 4.5761719 16.101562 L 4.9082031 15.757812 z M 115.0918 15.757812 L 115.42383 16.101562 L 115.42383 60 L 115.42383 103.89844 L 115.0918 104.24219 L 115.0918 15.757812 z M 6.1113281 107.14258 L 8.8320312 109.95117 L 8.8320312 113.88867 L 6.1113281 113.88867 L 6.1113281 107.14258 z M 113.88867 107.14258 L 113.88867 113.88867 L 111.16797 113.88867 L 111.16797 109.95117 L 113.88867 107.14258 z M 10.037109 111.19531 L 12.646484 113.88867 L 10.037109 113.88867 L 10.037109 111.19531 z M 109.96289 111.19531 L 109.96289 113.88867 L 107.35352 113.88867 L 109.96289 111.19531 z M 10.037109 115.0918 L 13.8125 115.0918 L 15.253906 116.58008 L 60 116.58008 L 104.74609 116.58008 L 106.1875 115.0918 L 109.96289 115.0918 L 109.96289 117.00586 L 10.037109 117.00586 L 10.037109 115.0918 z M 15.417969 115.0918 L 104.58203 115.0918 L 104.25781 115.42578 L 60 115.42578 L 15.742188 115.42578 L 15.417969 115.0918 z "
       style="fill:#0000ff" />
  </g>
</svg>
