<?xml version="1.0" encoding="UTF-8" standalone="no"?>
<!-- Created with Inkscape (http://www.inkscape.org/) -->

<svg
   width="120"
   height="120"
   viewBox="0 0 120 120"
   version="1.1"
   id="svg1"
   inkscape:version="1.4 (86a8ad7, 2024-10-11)"
   sodipodi:docname="border_1.svg"
   xmlns:inkscape="http://www.inkscape.org/namespaces/inkscape"
   xmlns:sodipodi="http://sodipodi.sourceforge.net/DTD/sodipodi-0.dtd"
   xmlns="http://www.w3.org/2000/svg"
   xmlns:svg="http://www.w3.org/2000/svg">
  <sodipodi:namedview
     id="namedview1"
     pagecolor="#ffffff"
     bordercolor="#000000"
     borderopacity="0.25"
     inkscape:showpageshadow="2"
     inkscape:pageopacity="0.0"
     inkscape:pagecheckerboard="0"
     inkscape:deskcolor="#d1d1d1"
     inkscape:document-units="px"
     inkscape:zoom="9.725"
     inkscape:cx="59.948586"
     inkscape:cy="60"
     inkscape:window-width="3440"
     inkscape:window-height="1369"
     inkscape:window-x="-8"
     inkscape:window-y="-8"
     inkscape:window-maximized="1"
     inkscape:current-layer="layer1" />
  <defs
     id="defs1" />
  <g
     inkscape:label="Layer 1"
     inkscape:groupmode="layer"
     id="layer1">
    <path
       id="rect1"
       style="fill:#0000ff;stroke-width:0.215433"
       d="M 10.076172 2.8789062 L 7.1308594 5.0390625 L 6.9921875 5.0390625 L 7.0605469 5.0898438 L 6.9921875 5.140625 L 7.1308594 5.140625 L 10.076172 7.3007812 L 59.949219 7.3007812 L 56.931641 5.0898438 L 59.949219 2.8789062 L 10.076172 2.8789062 z M 60.050781 2.8789062 L 63.068359 5.0898438 L 60.050781 7.3007812 L 109.92383 7.3007812 L 112.86914 5.140625 L 113.00781 5.140625 L 112.93945 5.0898438 L 113.00781 5.0390625 L 112.86914 5.0390625 L 109.92383 2.8789062 L 60.050781 2.8789062 z M 3.9082031 8.1230469 L 3.9082031 8.2617188 L 1.7480469 11.207031 L 1.7480469 61.080078 L 3.9589844 58.0625 L 6.1699219 61.080078 L 6.1699219 11.207031 L 4.0097656 8.2617188 L 4.0097656 8.1230469 L 3.9589844 8.1914062 L 3.9082031 8.1230469 z M 115.99023 8.1230469 L 115.99023 8.2617188 L 113.83008 11.207031 L 113.83008 61.080078 L 116.04102 58.0625 L 118.25195 61.080078 L 118.25195 11.207031 L 116.0918 8.2617188 L 116.0918 8.1230469 L 116.04102 8.1914062 L 115.99023 8.1230469 z M 1.7480469 61.181641 L 1.7480469 111.05469 L 3.9082031 114 L 3.9082031 114.13867 L 3.9589844 114.07031 L 4.0097656 114.13867 L 4.0097656 114 L 6.1699219 111.05469 L 6.1699219 61.181641 L 3.9589844 64.199219 L 1.7480469 61.181641 z M 113.83008 61.181641 L 113.83008 111.05469 L 115.99023 114 L 115.99023 114.13867 L 116.04102 114.07031 L 116.0918 114.13867 L 116.0918 114 L 118.25195 111.05469 L 118.25195 61.181641 L 116.04102 64.199219 L 113.83008 61.181641 z M 10.076172 114.96094 L 7.1308594 117.12109 L 6.9921875 117.12109 L 7.0605469 117.17188 L 6.9921875 117.22266 L 7.1308594 117.22266 L 10.076172 119.38281 L 59.949219 119.38281 L 56.931641 117.17188 L 59.949219 114.96094 L 10.076172 114.96094 z M 60.050781 114.96094 L 63.068359 117.17188 L 60.050781 119.38281 L 109.92383 119.38281 L 112.86914 117.22266 L 113.00781 117.22266 L 112.93945 117.17188 L 113.00781 117.12109 L 112.86914 117.12109 L 109.92383 114.96094 L 60.050781 114.96094 z " />
  </g>
</svg>
