<?xml version="1.0" encoding="UTF-8" standalone="no"?>
<!-- Created with Inkscape (http://www.inkscape.org/) -->

<svg
   width="120"
   height="120"
   viewBox="0 0 120 120"
   version="1.1"
   id="svg1"
   inkscape:version="1.4 (86a8ad7, 2024-10-11)"
   sodipodi:docname="mand_51.svg"
   xmlns:inkscape="http://www.inkscape.org/namespaces/inkscape"
   xmlns:sodipodi="http://sodipodi.sourceforge.net/DTD/sodipodi-0.dtd"
   xmlns="http://www.w3.org/2000/svg"
   xmlns:svg="http://www.w3.org/2000/svg">
  <sodipodi:namedview
     id="namedview1"
     pagecolor="#ffffff"
     bordercolor="#000000"
     borderopacity="0.25"
     inkscape:showpageshadow="2"
     inkscape:pageopacity="0.0"
     inkscape:pagecheckerboard="0"
     inkscape:deskcolor="#d1d1d1"
     inkscape:document-units="px"
     inkscape:zoom="4.8625"
     inkscape:cx="59.948586"
     inkscape:cy="52.133676"
     inkscape:window-width="3440"
     inkscape:window-height="1369"
     inkscape:window-x="-8"
     inkscape:window-y="-8"
     inkscape:window-maximized="1"
     inkscape:current-layer="layer1" />
  <defs
     id="defs1">
    <inkscape:path-effect
       effect="copy_rotate"
       starting_point="0,0"
       origin="50.213689,20.205656"
       id="path-effect4"
       is_visible="true"
       lpeversion="1.2"
       lpesatellites=""
       method="normal"
       num_copies="9"
       starting_angle="0"
       rotation_angle="60"
       gap="-0.01"
       copies_to_360="true"
       mirror_copies="false"
       split_items="false"
       link_styles="false" />
    <inkscape:path-effect
       effect="fillet_chamfer"
       id="path-effect3"
       is_visible="true"
       lpeversion="1"
       nodesatellites_param="F,0,0,1,0,4,0,1 @ F,0,0,1,0,4,0,1 @ F,0,0,1,0,4,0,1 @ F,0,0,1,0,4,0,1 @ F,0,0,1,0,4,0,1 @ F,0,0,1,0,4,0,1 @ F,0,0,1,0,4,0,1 @ F,0,0,1,0,4,0,1 @ F,0,0,1,0,4,0,1 @ F,0,0,1,0,4,0,1 @ F,0,0,1,0,4,0,1 @ F,0,0,1,0,4,0,1 @ F,0,0,1,0,4,0,1 @ F,0,0,1,0,4,0,1 @ F,0,0,1,0,4,0,1 @ F,0,0,1,0,4,0,1"
       radius="4"
       unit="mm"
       method="auto"
       mode="F"
       chamfer_steps="4"
       flexible="false"
       use_knot_distance="true"
       apply_no_radius="true"
       apply_with_radius="true"
       only_selected="true"
       hide_knots="false" />
    <inkscape:path-effect
       effect="fillet_chamfer"
       id="path-effect1"
       is_visible="true"
       lpeversion="1"
       nodesatellites_param="F,0,0,1,0,4,0,1 @ F,0,0,1,0,4,0,1 @ F,0,0,1,0,4,0,1 @ F,0,0,1,0,4,0,1 @ F,0,0,1,0,4,0,1 @ F,0,0,1,0,4,0,1 @ F,0,0,1,0,4,0,1 @ F,0,0,1,0,4,0,1 @ F,0,0,1,0,4,0,1 @ F,0,0,1,0,4,0,1 @ F,0,0,1,0,4,0,1 @ F,0,0,1,0,4,0,1 @ F,0,0,1,0,4,0,1 @ F,0,0,1,0,4,0,1 @ F,0,0,1,0,4,0,1 @ F,0,0,1,0,4,0,1"
       radius="4"
       unit="mm"
       method="auto"
       mode="F"
       chamfer_steps="4"
       flexible="false"
       use_knot_distance="true"
       apply_no_radius="true"
       apply_with_radius="true"
       only_selected="true"
       hide_knots="false" />
  </defs>
  <g
     inkscape:label="Layer 1"
     inkscape:groupmode="layer"
     id="layer1">
    <path
       id="path1"
       style="fill:none;stroke:#0000ff;stroke-width:0.5"
       d="m 62.061345,10.830656 c -0.836202,1.126101 -2.097909,1.859685 -3.490234,2.029297 -0.768295,-1.369246 -2.514056,-1.836135 -3.863282,-1.033203 0.205341,1.388039 -0.16818,2.799511 -1.033203,3.904297 -1.511262,-0.423972 -3.074968,0.480542 -3.460937,2.001953 1.126101,0.836202 1.859685,2.097909 2.029297,3.490234 -1.369245,0.768295 -1.836135,2.514055 -1.033203,3.863281 1.388038,-0.205341 2.799511,0.16818 3.904296,1.033203 -0.423973,1.511262 0.480542,3.074969 2.001954,3.460938 0.836202,-1.126101 2.097909,-1.859685 3.490234,-2.029297 0.768295,1.369245 2.514055,1.836135 3.863281,1.033203 -0.205341,-1.388039 0.16818,-2.799511 1.033203,-3.904297 1.511262,0.423973 3.074969,-0.480541 3.460938,-2.001953 -1.126101,-0.836202 -1.859685,-2.097909 -2.029297,-3.490234 1.369245,-0.768295 1.836135,-2.514055 1.033203,-3.863281 -1.388039,0.205341 -2.799511,-0.168181 -3.904297,-1.033204 0.423972,-1.511262 -0.480542,-3.074968 -2.001953,-3.460937 z m -0.134766,0.513672 c 1.43832,0.364605 2.293503,1.842862 1.892579,3.271484 1.043515,0.816871 2.376458,1.169875 3.6875,0.976563 0.759859,1.274921 0.319412,2.92549 -0.97461,3.652343 0.1603,1.315963 0.853639,2.508477 1.917969,3.298829 -0.364606,1.43832 -1.842862,2.293502 -3.271484,1.892578 -0.816871,1.043515 -1.169875,2.376458 -0.976563,3.6875 -1.274921,0.759859 -2.925491,0.319413 -3.652344,-0.97461 -1.315963,0.160301 -2.508476,0.853639 -3.298828,1.917969 -1.43832,-0.364606 -2.293502,-1.842862 -1.892578,-3.271484 -1.043515,-0.816871 -2.376458,-1.169875 -3.6875,-0.976563 -0.75986,-1.274921 -0.319413,-2.925491 0.974609,-3.652344 -0.160301,-1.315962 -0.853639,-2.508476 -1.917968,-3.298828 0.364606,-1.43832 1.842862,-2.293502 3.271484,-1.892578 0.816871,-1.043515 1.169875,-2.376458 0.976563,-3.6875 1.274921,-0.759859 2.92549,-0.319412 3.652343,0.97461 1.315963,-0.160301 2.508476,-0.853639 3.298828,-1.917969 z M 53.263386,5.4084629 c 0.08328,1.4001435 -0.411709,2.7731113 -1.369267,3.7980108 -1.468683,-0.5550527 -3.106124,0.2094428 -3.623576,1.6917903 1.049515,0.931309 1.670658,2.252654 1.718154,3.654995 -1.430217,0.646639 -2.046675,2.344668 -1.364401,3.758233 1.400144,-0.08328 2.773112,0.411709 3.798011,1.369267 -0.555052,1.468682 0.209443,3.106122 1.69179,3.623575 0.931308,-1.049514 2.252654,-1.670657 3.654994,-1.718154 0.646639,1.430219 2.344669,2.046677 3.758234,1.364401 -0.08328,-1.400143 0.411709,-2.773111 1.369267,-3.79801 1.468682,0.555052 3.106123,-0.209443 3.623576,-1.69179 -1.049515,-0.931309 -1.670658,-2.252654 -1.718155,-3.654995 1.430219,-0.646639 2.046677,-2.344668 1.364402,-3.758233 C 64.766271,10.130829 63.393304,9.6358436 62.368404,8.6782853 62.923456,7.2096034 62.158961,5.5721628 60.676614,5.0547103 59.745306,6.1042247 58.42396,6.7253677 57.021619,6.7728638 56.37498,5.3426462 54.676951,4.7261882 53.263386,5.4084629 Z m 0.226945,0.4801215 c 1.336181,-0.6452307 2.941494,-0.062521 3.552669,1.2895758 1.324454,-0.044999 2.572454,-0.6313816 3.452512,-1.6221887 1.401589,0.4882182 2.125153,2.0357415 1.601086,3.4243243 0.968682,0.9050469 2.266344,1.3728962 3.589696,1.2942032 0.64523,1.33618 0.06252,2.941493 -1.289576,3.552668 0.045,1.324453 0.631381,2.572453 1.622188,3.452511 -0.488218,1.40159 -2.035742,2.125155 -3.424325,1.601087 -0.905046,0.968682 -1.372895,2.266343 -1.294202,3.589696 -1.336181,0.64523 -2.941493,0.06252 -3.552668,-1.289577 -1.324453,0.045 -2.572454,0.631382 -3.452512,1.622189 -1.401589,-0.488218 -2.125154,-2.035741 -1.601087,-3.424325 -0.968682,-0.905046 -2.266343,-1.372895 -3.589695,-1.294202 -0.64523,-1.336181 -0.06252,-2.941494 1.289577,-3.552669 -0.045,-1.324453 -0.631382,-2.572453 -1.622189,-3.452511 0.488218,-1.401589 2.035741,-2.1251531 3.424324,-1.6010864 0.905047,-0.9686819 1.372896,-2.266343 1.294202,-3.5896952 z M 43.03844,6.9100409 c 0.963788,1.0190431 1.467134,2.388968 1.392395,3.7895931 -1.481857,0.518856 -2.244802,2.15702 -1.688358,3.625176 1.402608,0.03881 2.727776,0.651755 3.665568,1.695481 -0.679959,1.41468 -0.06072,3.111697 1.370553,3.755993 1.019043,-0.963788 2.388968,-1.467134 3.789593,-1.392395 0.518856,1.481856 2.15702,2.244801 3.625176,1.688358 0.03881,-1.402608 0.651755,-2.727775 1.69548,-3.665567 1.414681,0.67996 3.111699,0.06072 3.755994,-1.370554 -0.963788,-1.019043 -1.467134,-2.388968 -1.392395,-3.789593 1.481857,-0.518856 2.244801,-2.15702 1.688359,-3.6251757 C 59.538196,7.5825485 58.213028,6.9696023 57.275236,5.9258769 57.955196,4.5111966 57.335958,2.8141787 55.904683,2.1698828 54.88564,3.1336711 53.515715,3.6370169 52.11509,3.5622775 51.596234,2.0804211 49.95807,1.3174768 48.489915,1.8739195 48.451106,3.2765279 47.838159,4.6016957 46.794433,5.5394874 45.379753,4.8595285 43.682736,5.4787662 43.03844,6.9100409 Z m 0.482466,0.2219168 c 0.608828,-1.3531558 2.213128,-1.9386501 3.550426,-1.2957393 0.985665,-0.8858133 1.56477,-2.1372075 1.602055,-3.4619002 1.3875,-0.5269271 2.936511,0.1934465 3.427616,1.5940262 1.323806,0.070649 2.618601,-0.4050778 3.581764,-1.3159951 1.353156,0.608828 1.938649,2.2131274 1.295739,3.5504255 0.885813,0.9856651 2.137207,1.5647695 3.4619,1.6020545 0.526928,1.3875003 -0.193446,2.9365117 -1.594027,3.4276177 -0.07065,1.323806 0.405079,2.6186 1.315996,3.581763 -0.608828,1.353155 -2.213128,1.938649 -3.550426,1.295738 -0.985665,0.885814 -1.564769,2.137208 -1.602054,3.4619 -1.3875,0.526928 -2.936512,-0.193445 -3.427618,-1.594025 -1.323806,-0.07065 -2.618599,0.405078 -3.581763,1.315994 -1.353155,-0.608828 -1.938649,-2.213127 -1.295738,-3.550425 -0.885814,-0.985665 -2.137208,-1.56477 -3.4619,-1.602055 -0.526928,-1.3875 0.193446,-2.936511 1.594026,-3.427616 0.07065,-1.3238062 -0.405078,-2.6185999 -1.315996,-3.5817633 z m -7.350033,7.5008273 c 1.393333,0.161121 2.659489,0.887 3.50254,2.007983 -0.801655,1.349986 -0.333112,3.095304 1.036861,3.862302 1.099406,-0.87185 2.508537,-1.254108 3.897821,-1.057369 0.388461,1.520777 1.953646,2.422729 3.464211,1.996283 0.161121,-1.393333 0.887,-2.659489 2.007983,-3.50254 1.349985,0.801654 3.095303,0.333112 3.862301,-1.03686 -0.87185,-1.099406 -1.254107,-2.508538 -1.057368,-3.897821 1.520778,-0.38846 2.42273,-1.953646 1.996283,-3.4642122 C 53.488172,9.3794295 52.222016,8.6535507 51.378965,7.5325679 52.180619,6.1825824 51.712077,4.4372651 50.342105,3.670267 49.242699,4.542117 47.833567,4.9243744 46.444283,4.7276354 46.055823,3.2068578 44.490638,2.304905 42.980072,2.7313517 c -0.161121,1.3933329 -0.887,2.659489 -2.007983,3.5025397 -1.349985,-0.8016537 -3.095303,-0.3331116 -3.862301,1.0368605 0.87185,1.0994064 1.254107,2.5085383 1.057368,3.8978221 -1.520777,0.38846 -2.42273,1.953646 -1.996283,3.464211 z M 36.683109,14.49266 C 36.279706,13.064735 37.132322,11.584997 38.570008,11.217896 38.755681,9.9057506 38.39492,8.5748858 37.571986,7.536146 38.29617,6.2406287 39.945829,5.7967817 41.222313,6.5540116 42.28182,5.7572058 42.967898,4.5605 43.120198,3.2435872 c 1.427924,-0.4034022 2.907662,0.4492143 3.274763,1.8868992 1.312145,0.1856734 2.64301,-0.1750876 3.68175,-0.9980216 1.295518,0.7241842 1.739365,2.3738435 0.982135,3.6503277 0.796806,1.0595066 1.993511,1.7455845 3.310424,1.8978843 0.403402,1.4279242 -0.449215,2.9076622 -1.8869,3.2747622 -0.185673,1.312146 0.175088,2.643011 0.998022,3.681751 -0.724184,1.295518 -2.373843,1.739365 -3.650327,0.982135 -1.059507,0.796806 -1.745585,1.993511 -1.897885,3.310423 -1.427924,0.403403 -2.907662,-0.449214 -3.274763,-1.886899 -1.312145,-0.185673 -2.64301,0.175088 -3.68175,0.998022 C 39.68015,19.316686 39.236303,17.667028 39.993533,16.390544 39.196727,15.331037 38.000021,14.64496 36.683109,14.49266 Z m -0.809014,10.470477 c 1.170922,-0.772191 2.60744,-1.030005 3.973808,-0.713185 0.253651,1.549443 1.734444,2.585261 3.276921,2.292214 0.28178,-1.374561 1.115527,-2.573159 2.306242,-3.315463 1.275114,0.915285 3.053879,0.600139 3.936925,-0.69751 -0.772191,-1.170922 -1.030005,-2.60744 -0.713185,-3.973808 1.549442,-0.253652 2.585259,-1.734444 2.292213,-3.27692 -1.37456,-0.28178 -2.573158,-1.115527 -3.315462,-2.306242 0.915286,-1.275114 0.60014,-3.0538805 -0.697511,-3.936926 -1.170922,0.7721911 -2.607439,1.030005 -3.973807,0.7131851 -0.253652,-1.549442 -1.734444,-2.5852596 -3.276921,-2.2922132 -0.281779,1.3745605 -1.115527,2.5731591 -2.306241,3.3154631 -1.275115,-0.9152864 -3.053881,-0.60014 -3.936926,0.69751 0.772191,1.170921 1.030005,2.607439 0.713185,3.973807 -1.549442,0.253652 -2.58526,1.734444 -2.292214,3.276921 1.374561,0.28178 2.573159,1.115527 3.315463,2.306242 -0.915286,1.275114 -0.600139,3.05388 0.69751,3.936925 z m 0.302325,-0.436601 c -1.226876,-0.834551 -1.524892,-2.516148 -0.659529,-3.721489 -0.701197,-1.124511 -1.833019,-1.91212 -3.131112,-2.178869 -0.277985,-1.45792 0.700427,-2.858307 2.165008,-3.098743 0.299453,-1.291427 0.05579,-2.649159 -0.674035,-3.755869 0.834551,-1.226876 2.516148,-1.524892 3.721489,-0.659529 1.124511,-0.701197 1.912119,-1.8330188 2.178868,-3.1311119 1.457922,-0.2779857 2.858309,0.7004271 3.098745,2.1650089 1.291426,0.299452 2.649158,0.05579 3.755868,-0.6740356 1.226876,0.8345516 1.524891,2.5161476 0.659528,3.7214896 0.701197,1.12451 1.83302,1.912119 3.131113,2.178868 0.277986,1.457921 -0.700427,2.858308 -2.165008,3.098745 -0.299453,1.291426 -0.05579,2.649158 0.674034,3.755868 -0.834551,1.226876 -2.516147,1.524891 -3.721489,0.659528 -1.12451,0.701197 -1.912119,1.833019 -2.178868,3.131112 -1.457921,0.277985 -2.858307,-0.700427 -3.098744,-2.165008 -1.291426,-0.299453 -2.649158,-0.05579 -3.755868,0.674035 z m 6.110553,8.540875 c 0.400623,-1.344186 1.33534,-2.465059 2.585687,-3.100645 1.19027,1.023897 2.990435,0.865545 3.983673,-0.350427 -0.667694,-1.234099 -0.799451,-2.688201 -0.364455,-4.022216 1.565129,-0.118478 2.72517,-1.503262 2.567509,-3.06493 -1.344187,-0.400624 -2.465059,-1.33534 -3.100646,-2.585687 1.023898,-1.190271 0.865545,-2.990434 -0.350426,-3.983673 -1.234099,0.667694 -2.688201,0.799451 -4.022215,0.364455 -0.118478,-1.56513 -1.503263,-2.725171 -3.064932,-2.56751 -0.400623,1.344187 -1.33534,2.46506 -2.585686,3.100646 -1.190271,-1.023897 -2.990434,-0.865544 -3.983673,0.350427 0.667695,1.234099 0.799452,2.688201 0.364455,4.022215 -1.565129,0.118478 -2.725171,1.503263 -2.56751,3.064931 1.344187,0.400623 2.46506,1.33534 3.100646,2.585687 -1.023897,1.19027 -0.865545,2.990434 0.350427,3.983673 1.234099,-0.667695 2.688201,-0.799452 4.022215,-0.364454 0.118479,1.565128 1.503263,2.725169 3.064931,2.567508 z m -0.04905,-0.528786 c -1.476281,0.149318 -2.785483,-0.9473 -2.897356,-2.426889 -1.259969,-0.410705 -2.63326,-0.286527 -3.79912,0.34353 C 34.391366,29.517119 34.240723,27.81545 35.208108,26.68985 34.607389,25.508075 33.548,24.624614 32.27754,24.245949 c -0.149317,-1.476281 0.9473,-2.785483 2.42689,-2.897355 0.410704,-1.25997 0.286526,-2.633261 -0.34353,-3.799121 0.938146,-1.150083 2.639817,-1.300727 3.765417,-0.333342 1.181774,-0.600719 2.065234,-1.660107 2.4439,-2.930567 1.476281,-0.149317 2.785483,0.9473 2.897355,2.42689 1.259969,0.410704 2.633261,0.286526 3.799121,-0.34353 1.150083,0.938146 1.300727,2.639816 0.333342,3.765416 0.600719,1.181775 1.660107,2.065235 2.930566,2.443901 0.149317,1.476281 -0.9473,2.785483 -2.42689,2.897355 -0.410704,1.259969 -0.286526,2.633261 0.343531,3.799121 -0.938147,1.150082 -2.639817,1.300726 -3.765416,0.333341 -1.181775,0.600719 -2.065235,1.660108 -2.443901,2.930567 z m 10.170924,2.614902 c -0.557131,-1.287222 -0.56158,-2.746685 -0.01231,-4.03728 1.56995,0.01926 2.847168,-1.259168 2.826421,-2.829099 -1.304747,-0.516188 -2.340357,-1.545403 -2.864618,-2.846928 1.122801,-1.096805 1.121322,-2.903271 -0.0033,-3.998236 -1.287222,0.557131 -2.746685,0.56158 -4.03728,0.01231 0.01926,-1.569949 -1.259168,-2.847167 -2.829098,-2.826421 -0.516189,1.304747 -1.545404,2.340357 -2.846928,2.864618 -1.096805,-1.122802 -2.903272,-1.121323 -3.998237,0.0033 0.557131,1.287223 0.56158,2.746685 0.01231,4.03728 -1.569949,-0.01926 -2.847167,1.259168 -2.826421,2.829098 1.304747,0.516189 2.340358,1.545404 2.864619,2.846929 -1.122802,1.096804 -1.121323,2.903271 0.0033,3.998236 1.287222,-0.557131 2.746685,-0.56158 4.03728,-0.0123 -0.01926,1.569948 1.259168,2.847166 2.829098,2.82642 0.516189,-1.304747 1.545404,-2.340358 2.846929,-2.864618 1.096805,1.122801 2.903271,1.121322 3.998236,-0.0033 z m -0.37747,-0.373547 c -1.034917,1.063319 -2.742717,1.064801 -3.779478,0.0033 -1.229188,0.495275 -2.20137,1.473135 -2.689478,2.705187 -1.484043,0.0206 -2.693255,-1.186126 -2.675717,-2.670209 -1.219807,-0.519157 -2.599224,-0.514965 -3.815854,0.0116 -1.063319,-1.034918 -1.0648,-2.742717 -0.0033,-3.779477 -0.495275,-1.229189 -1.473135,-2.201371 -2.705187,-2.689479 -0.0206,-1.484043 1.186126,-2.693256 2.670209,-2.675717 0.519157,-1.219808 0.514965,-2.599224 -0.0116,-3.815854 1.034918,-1.063318 2.742717,-1.0648 3.779478,-0.0033 1.229188,-0.495275 2.20137,-1.473136 2.689478,-2.705188 1.484043,-0.0206 2.693256,1.186126 2.675718,2.670209 1.219807,0.519156 2.599223,0.514965 3.815853,-0.01159 1.063319,1.034917 1.0648,2.742716 0.0033,3.779477 0.495275,1.229188 1.473135,2.20137 2.705187,2.689478 0.0206,1.484043 -1.186126,2.693255 -2.670209,2.675717 -0.519156,1.219807 -0.514965,2.599224 0.0116,3.815853 z m 9.472207,-4.534612 c -1.254198,-0.627953 -2.195731,-1.743106 -2.604541,-3.084826 1.215031,-0.99439 1.371679,-2.794703 0.346655,-3.984004 -1.331294,0.443252 -2.786185,0.320505 -4.024396,-0.339532 0.155103,-1.561924 -1.007204,-2.944807 -2.572524,-3.060722 -0.627953,1.254198 -1.743106,2.19573 -3.084826,2.60454 -0.99439,-1.21503 -2.794702,-1.371678 -3.984003,-0.346655 0.443252,1.331294 0.320505,2.786184 -0.339532,4.024395 -1.561925,-0.155104 -2.944809,1.007204 -3.060723,2.572526 1.254198,0.627952 2.19573,1.743106 2.60454,3.084825 -1.21503,0.99439 -1.371678,2.794703 -0.346655,3.984003 1.331294,-0.443252 2.786185,-0.320505 4.024396,0.339532 -0.155104,1.561925 1.007204,2.944808 2.572525,3.060724 0.627952,-1.254198 1.743106,-2.195731 3.084825,-2.604541 0.99439,1.215031 2.794703,1.371679 3.984003,0.346655 -0.443252,-1.331294 -0.320504,-2.786185 0.339533,-4.024396 1.561925,0.155103 2.944807,-1.007204 3.060723,-2.572524 z m -0.52927,-0.04352 c -0.109305,1.479782 -1.416602,2.57867 -2.89314,2.431914 -0.623257,1.16951 -0.739435,2.543501 -0.3214,3.801057 -1.123603,0.969703 -2.82558,0.822566 -3.766095,-0.325581 -1.268134,0.38638 -2.322134,1.276263 -2.91566,2.461667 -1.479782,-0.109305 -2.578668,-1.416603 -2.431913,-2.89314 -1.169509,-0.623257 -2.543501,-0.739435 -3.801057,-0.3214 -0.969703,-1.123603 -0.822566,-2.825581 0.325581,-3.766095 -0.38638,-1.268135 -1.276263,-2.322134 -2.461666,-2.91566 0.109304,-1.479782 1.416602,-2.578668 2.89314,-2.431913 0.623256,-1.169509 0.739434,-2.543501 0.321399,-3.801057 1.123603,-0.969703 2.825581,-0.822567 3.766096,0.32558 1.268134,-0.38638 2.322134,-1.276262 2.915659,-2.461665 1.479782,0.109304 2.578669,1.416602 2.431913,2.89314 1.16951,0.623256 2.543501,0.739434 3.801057,0.321399 0.969703,1.123604 0.822566,2.82558 -0.325581,3.766095 0.38638,1.268134 1.276263,2.322134 2.461667,2.915659 z m 4.341338,-9.562331 c -1.364412,0.325143 -2.802474,0.07609 -3.978081,-0.688948 0.291586,-1.542753 -0.745634,-3.022565 -2.295316,-3.274749 -0.734914,1.19529 -1.928325,2.036446 -3.301113,2.326735 -0.88517,-1.296202 -2.664449,-1.608435 -3.938062,-0.691062 0.325143,1.364411 0.07609,2.802474 -0.688948,3.978081 -1.542753,-0.291586 -3.022564,0.745633 -3.274748,2.295315 1.195289,0.734913 2.036445,1.928324 2.326734,3.301112 -1.296203,0.88517 -1.608436,2.66445 -0.691063,3.938064 1.364412,-0.325144 2.802475,-0.07609 3.978082,0.688947 -0.291586,1.542754 0.745633,3.022564 2.295315,3.274749 0.734913,-1.19529 1.928324,-2.036446 3.301113,-2.326735 0.885169,1.296202 2.664449,1.608436 3.938063,0.691063 -0.325144,-1.364411 -0.07609,-2.802474 0.688947,-3.978081 1.542753,0.291586 3.022564,-0.745634 3.274749,-2.295315 -1.19529,-0.734914 -2.036446,-1.928325 -2.326735,-3.301114 1.296202,-0.885169 1.608435,-2.664448 0.691063,-3.938062 z m -0.433419,0.306869 c 0.867454,1.203839 0.572357,2.88595 -0.65307,3.722629 0.274305,1.296518 1.068492,2.423734 2.197067,3.11837 -0.237418,1.465074 -1.635785,2.44637 -3.094276,2.17139 -0.723087,1.111125 -0.958492,2.470313 -0.651197,3.759896 -1.203838,0.867453 -2.885949,0.572356 -3.722627,-0.65307 -1.296518,0.274304 -2.423734,1.068491 -3.11837,2.197066 -1.465075,-0.237417 -2.446371,-1.635785 -2.171391,-3.094276 -1.111125,-0.723087 -2.470313,-0.958492 -3.759896,-0.651196 -0.867452,-1.203839 -0.572355,-2.88595 0.653071,-3.722628 -0.274304,-1.296518 -1.068491,-2.423734 -2.197066,-3.11837 0.237417,-1.465075 1.635784,-2.446371 3.094275,-2.171391 0.723087,-1.111125 0.958492,-2.470313 0.651197,-3.759895 1.203838,-0.867453 2.885949,-0.572356 3.722628,0.65307 1.296517,-0.274304 2.423734,-1.068491 3.11837,-2.197066 1.465073,0.237418 2.44637,1.635785 2.17139,3.094275 1.111125,0.723087 2.470313,0.958492 3.759895,0.651196 z"
       inkscape:path-effect="#path-effect4"
       inkscape:original-d="m 62.061345,10.830656 a 5.1181601,5.1181601 0 0 1 -3.490234,2.029297 2.7924104,2.7924104 0 0 0 -3.863282,-1.033203 5.1181601,5.1181601 0 0 1 -1.033203,3.904297 2.7924104,2.7924104 0 0 0 -3.460937,2.001953 5.1181601,5.1181601 0 0 1 2.029297,3.490234 2.7924104,2.7924104 0 0 0 -1.033203,3.863281 5.1181601,5.1181601 0 0 1 3.904296,1.033203 2.7924104,2.7924104 0 0 0 2.001954,3.460938 5.1181601,5.1181601 0 0 1 3.490234,-2.029297 2.7924104,2.7924104 0 0 0 3.863281,1.033203 5.1181601,5.1181601 0 0 1 1.033203,-3.904297 2.7924104,2.7924104 0 0 0 3.460938,-2.001953 5.1181601,5.1181601 0 0 1 -2.029297,-3.490234 2.7924104,2.7924104 0 0 0 1.033203,-3.863281 5.1181601,5.1181601 0 0 1 -3.904297,-1.033204 2.7924104,2.7924104 0 0 0 -2.001953,-3.460937 z m -0.134766,0.513672 a 2.6392749,2.6392749 0 0 1 1.892579,3.271484 4.8374808,4.8374808 0 0 0 3.6875,0.976563 2.6392749,2.6392749 0 0 1 -0.97461,3.652343 4.8374808,4.8374808 0 0 0 1.917969,3.298829 2.6392749,2.6392749 0 0 1 -3.271484,1.892578 4.8374808,4.8374808 0 0 0 -0.976563,3.6875 2.6392749,2.6392749 0 0 1 -3.652344,-0.97461 4.8374808,4.8374808 0 0 0 -3.298828,1.917969 2.6392749,2.6392749 0 0 1 -1.892578,-3.271484 4.8374808,4.8374808 0 0 0 -3.6875,-0.976563 2.6392749,2.6392749 0 0 1 0.974609,-3.652344 4.8374808,4.8374808 0 0 0 -1.917968,-3.298828 2.6392749,2.6392749 0 0 1 3.271484,-1.892578 4.8374808,4.8374808 0 0 0 0.976563,-3.6875 2.6392749,2.6392749 0 0 1 3.652343,0.97461 4.8374808,4.8374808 0 0 0 3.298828,-1.917969 z"
       transform="matrix(2.9904267,0,0,2.9904267,-90.615333,-1.0113176)" />
  </g>
</svg>
