<?xml version="1.0" encoding="UTF-8" standalone="no"?>
<!-- Created with Inkscape (http://www.inkscape.org/) -->

<svg
   width="120"
   height="120"
   viewBox="0 0 120 120"
   version="1.1"
   id="svg1"
   inkscape:version="1.4 (86a8ad7, 2024-10-11)"
   sodipodi:docname="mand_52.svg"
   xmlns:inkscape="http://www.inkscape.org/namespaces/inkscape"
   xmlns:sodipodi="http://sodipodi.sourceforge.net/DTD/sodipodi-0.dtd"
   xmlns="http://www.w3.org/2000/svg"
   xmlns:svg="http://www.w3.org/2000/svg">
  <sodipodi:namedview
     id="namedview1"
     pagecolor="#ffffff"
     bordercolor="#000000"
     borderopacity="0.25"
     inkscape:showpageshadow="2"
     inkscape:pageopacity="0.0"
     inkscape:pagecheckerboard="0"
     inkscape:deskcolor="#d1d1d1"
     inkscape:document-units="px"
     inkscape:zoom="6.8766134"
     inkscape:cx="59.985922"
     inkscape:cy="59.985922"
     inkscape:window-width="3440"
     inkscape:window-height="1369"
     inkscape:window-x="-8"
     inkscape:window-y="-8"
     inkscape:window-maximized="1"
     inkscape:current-layer="layer1" />
  <defs
     id="defs1">
    <inkscape:path-effect
       effect="copy_rotate"
       starting_point="0,0"
       origin="33.720762,35.064011"
       id="path-effect3"
       is_visible="true"
       lpeversion="1.2"
       lpesatellites=""
       method="normal"
       num_copies="6"
       starting_angle="0"
       rotation_angle="60"
       gap="-0.01"
       copies_to_360="true"
       mirror_copies="false"
       split_items="false"
       link_styles="false" />
    <inkscape:path-effect
       effect="fillet_chamfer"
       id="path-effect2"
       is_visible="true"
       lpeversion="1"
       nodesatellites_param="F,0,0,1,0,8,0,1 @ F,0,0,1,0,8,0,1 @ F,0,0,1,0,8,0,1 @ F,0,0,1,0,8,0,1 @ F,0,0,1,0,8,0,1 @ F,0,0,1,0,8,0,1 @ F,0,0,1,0,8,0,1 @ F,0,0,1,0,8,0,1 @ F,0,0,1,0,8,0,1 @ F,0,0,1,0,8,0,1 @ F,0,0,1,0,8,0,1 @ F,0,0,1,0,8,0,1 @ F,0,0,1,0,8,0,1 @ F,0,0,1,0,8,0,1 @ F,0,0,1,0,8,0,1 @ F,0,0,1,0,8,0,1 | F,0,0,1,0,8,0,1 @ F,0,0,1,0,8,0,1 @ F,0,0,1,0,8,0,1 @ F,0,0,1,0,8,0,1 @ F,0,0,1,0,8,0,1 @ F,0,0,1,0,8,0,1 @ F,0,0,1,0,8,0,1 @ F,0,0,1,0,8,0,1 @ F,0,0,1,0,8,0,1 @ F,0,0,1,0,8,0,1 @ F,0,0,1,0,8,0,1 @ F,0,0,1,0,8,0,1 @ F,0,0,1,0,8,0,1 @ F,0,0,1,0,8,0,1 @ F,0,0,1,0,8,0,1 @ F,0,0,1,0,8,0,1"
       radius="8"
       unit="px"
       method="auto"
       mode="F"
       chamfer_steps="1"
       flexible="false"
       use_knot_distance="true"
       apply_no_radius="true"
       apply_with_radius="true"
       only_selected="false"
       hide_knots="false" />
  </defs>
  <g
     inkscape:label="Layer 1"
     inkscape:groupmode="layer"
     id="layer1">
    <path
       style="fill:#0000ff"
       d="m 50.812571,20.339556 c -2.778346,0.39393 -5.596613,-0.369674 -7.796055,-2.112327 -2.740905,1.532057 -3.680471,5.021855 -2.079268,7.722948 -1.686032,2.242602 -4.218374,3.69519 -7.005399,4.018398 -0.855101,3.021309 0.947721,6.153519 3.989738,6.931744 0.394238,2.778241 -0.368686,5.596561 -2.110543,7.796559 1.532488,2.740502 5.022066,3.679761 7.723117,2.078764 2.242675,1.685884 3.695527,4.218001 4.019221,7.004938 3.021603,0.854097 6.153221,-0.949785 6.930419,-3.992076 2.77798,-0.393724 5.595806,0.370014 7.794747,2.112672 2.741106,-1.531969 3.680543,-5.022091 2.078809,-7.723024 1.685931,-2.243269 4.218936,-3.695969 7.006537,-4.018309 0.855094,-3.02145 -0.948238,-6.153681 -3.99056,-6.931256 -0.39393,-2.778346 0.369675,-5.596613 2.112328,-7.796056 -1.532157,-2.740891 -5.022083,-3.68027 -7.723065,-2.078807 -2.243258,-1.685987 -3.696321,-4.218702 -4.019591,-7.00622 -3.021619,-0.854255 -6.153344,0.949674 -6.930435,3.992052 z m 10.511648,3.418256 7.570312,1.927735 -2.117187,7.519531 3.992187,6.714844 -6.816406,3.820312 -1.925781,7.570313 -7.519532,-2.117188 -6.714843,3.992188 -3.820313,-6.814453 -7.570312,-1.927735 2.117187,-7.519531 -3.99414,-6.714844 6.816406,-3.820312 1.925781,-7.572266 7.519531,2.119141 6.716797,-3.992188 z M 29.514915,12.899842 c -1.04802,2.603084 -3.118454,4.661972 -5.727357,5.695419 -0.04365,3.139722 2.508818,5.698309 5.648636,5.662173 1.099134,2.581448 1.090941,5.500814 -0.02266,8.076053 2.188979,2.251193 5.802964,2.256008 7.997935,0.01066 2.603146,1.047701 4.662421,3.117573 5.696746,5.726064 3.139589,0.04308 5.6978,-2.509355 5.661822,-5.649034 2.581356,-1.099271 5.500659,-1.091419 8.076064,0.02172 2.250471,-2.189737 2.254073,-5.803738 0.008,-7.997957 1.048016,-2.602663 3.118345,-4.661103 5.727001,-5.694113 0.04383,-3.139851 -2.508986,-5.698489 -5.648929,-5.661813 -1.099763,-2.581694 -1.091336,-5.5016907 0.02331,-8.0769939 -2.189105,-2.2512576 -5.803363,-2.2556419 -7.997924,-0.0097 -2.603083,-1.0480198 -4.661972,-3.1184543 -5.695418,-5.72735772 -3.13976,-0.0435587 -5.698249,2.50911702 -5.661832,5.64896802 -2.581737,1.0997247 -5.501664,1.0917564 -8.07736,-0.022043 -2.250616,2.1896717 -2.254231,5.803789 -0.008,7.997958 z m 8.21612,-7.3942255 5.454623,-5.592215 5.453512,5.5933032 7.811319,-0.099913 -0.09972,7.8133366 5.593193,5.452932 -5.593305,5.453512 0.09991,7.811318 -7.811646,-0.09874 -5.454623,5.592215 -5.453512,-5.593303 -7.812295,0.101604 0.09972,-7.813336 -5.594885,-5.453909 5.594996,-5.452534 -0.09894,-7.8130109 z M 12.423105,27.624297 c 1.730327,2.209154 2.478159,5.031646 2.068699,7.807746 2.697253,1.607664 6.189289,0.676454 7.727903,-2.060776 2.785167,0.338846 5.309316,1.805625 6.982735,4.057655 3.04408,-0.770115 4.855243,-3.89751 4.008196,-6.921086 2.20891,-1.730541 5.031108,-2.478989 7.80729,-2.070496 1.607101,-2.697425 0.675735,-6.189117 -2.061296,-7.727798 0.338681,-2.785155 1.805133,-5.30942 4.056844,-6.983216 C 42.242344,10.682493 39.114327,8.8723728 36.091028,9.7204456 34.361063,7.5115056 33.613566,4.689328 34.023281,1.9136609 31.326005,0.30577779 27.833752,1.2372619 26.295542,3.9748706 23.509848,3.6364461 20.985271,2.1691495 19.312316,-0.08381379 16.268117,0.68637823 14.457191,3.814225 15.304952,6.8377403 13.095799,8.5680669 10.273305,9.3158994 7.4972055,8.9064386 5.8896025,11.603771 6.8210401,15.095825 9.5584391,16.634213 c -0.338479,2.785712 -1.805343,5.310459 -4.0577694,6.984178 0.7710032,3.043926 3.8991134,4.854116 6.9224353,4.005906 z M 10.127578,16.811816 8.0118894,9.2918655 15.582588,7.3656377 19.40172,0.55088037 l 6.71669,3.99302473 7.518974,-2.1173812 1.926227,7.5706997 6.814758,3.8191304 -3.991333,6.715715 2.115689,7.51995 -7.570699,1.926228 -3.818155,6.816448 -6.71669,-3.993024 -7.520666,2.118357 L 12.95198,27.348353 6.136245,23.52753 Z m 6.501375,32.97665 c 2.778346,-0.39393 5.596613,0.369674 7.796055,2.112327 2.740905,-1.532057 3.680471,-5.021855 2.079268,-7.722948 1.686032,-2.242602 4.218374,-3.69519 7.005399,-4.018398 0.855101,-3.021309 -0.947721,-6.153519 -3.989738,-6.931744 -0.394238,-2.778241 0.368686,-5.596561 2.110543,-7.796559 -1.532488,-2.740502 -5.022066,-3.679761 -7.723117,-2.078764 -2.242675,-1.685884 -3.695527,-4.218001 -4.019221,-7.004938 -3.021603,-0.854097 -6.153221,0.949785 -6.930419,3.992076 -2.77798,0.393724 -5.5958062,-0.370014 -7.7947466,-2.112672 -2.741106,1.531969 -3.6805436,5.022091 -2.0788095,7.723024 -1.6859313,2.243269 -4.2189362,3.695969 -7.0065372,4.018309 -0.8550936,3.02145 0.9482383,6.153681 3.99055984,6.931256 0.39392999,2.778346 -0.3696746,5.596613 -2.11232794,7.796056 1.53215703,2.740891 5.0220835,3.68027 7.7230659,2.078807 2.243258,1.685987 3.6963205,4.218702 4.0195905,7.00622 3.021619,0.854255 6.153344,-0.949674 6.930435,-3.992052 z M 6.117305,46.37021 -1.453007,44.442475 0.66418,36.922944 -3.328007,30.2081 3.488399,26.387788 5.41418,18.817475 l 7.519532,2.117188 6.714843,-3.992188 3.820313,6.814453 7.570312,1.927735 -2.117187,7.519531 3.99414,6.714844 -6.816406,3.820312 -1.925781,7.572266 -7.519531,-2.119141 -6.716797,3.992188 z m 31.809304,10.85797 c 1.04802,-2.603084 3.118454,-4.661972 5.727357,-5.695419 0.04365,-3.139722 -2.508818,-5.698309 -5.648636,-5.662173 -1.099134,-2.581448 -1.090941,-5.500814 0.02266,-8.076053 -2.188979,-2.251193 -5.802964,-2.256008 -7.997935,-0.01066 -2.603146,-1.047701 -4.662421,-3.117573 -5.696746,-5.726064 -3.139589,-0.04308 -5.6978,2.509355 -5.661822,5.649034 -2.581356,1.099271 -5.500659,1.091419 -8.076064,-0.02172 -2.2504713,2.189737 -2.2540727,5.803738 -0.008,7.997957 -1.048016,2.602663 -3.118345,4.661103 -5.727001,5.694113 -0.043829,3.139851 2.5089861,5.698489 5.648929,5.661813 1.099763,2.581694 1.091336,5.501691 -0.02331,8.076994 2.189105,2.251258 5.803363,2.255642 7.997924,0.0097 2.603083,1.048019 4.661972,3.118454 5.695418,5.727357 3.13976,0.04356 5.698249,-2.509117 5.661832,-5.648968 2.581737,-1.099724 5.501664,-1.091756 8.07736,0.02204 2.250616,-2.189672 2.254231,-5.803789 0.008,-7.997958 z m -8.21612,7.394225 -5.454623,5.592216 -5.453512,-5.593304 -7.811319,0.09991 0.09972,-7.813337 -5.5931929,-5.452932 5.5933049,-5.453512 -0.09992,-7.811318 7.811646,0.09874 5.454623,-5.592215 5.453512,5.593303 7.812295,-0.101604 -0.09972,7.813336 5.594885,5.453909 -5.594996,5.452534 0.09894,7.813011 z m 25.30793,-22.11868 C 53.288092,40.294571 52.54026,37.472079 52.94972,34.695979 50.252467,33.088315 46.760431,34.019525 45.221817,36.756755 42.43665,36.417909 39.912501,34.95113 38.239082,32.6991 c -3.04408,0.770115 -4.855243,3.89751 -4.008196,6.921086 -2.20891,1.730541 -5.031108,2.478989 -7.80729,2.070496 -1.607101,2.697425 -0.675735,6.189117 2.061296,7.727798 -0.338681,2.785155 -1.805133,5.30942 -4.056844,6.983216 0.771132,3.043833 3.899149,4.853953 6.922448,4.00588 1.729965,2.20894 2.477462,5.031118 2.067747,7.806785 2.697276,1.607883 6.189529,0.676399 7.727739,-2.06121 2.785694,0.338425 5.310271,1.805721 6.983226,4.058685 3.044199,-0.770192 4.855125,-3.898039 4.007364,-6.921554 2.209153,-1.730327 5.031647,-2.478159 7.807747,-2.068699 1.607602,-2.697332 0.676165,-6.189386 -2.061234,-7.727774 0.338479,-2.785712 1.805343,-5.310459 4.057769,-6.984178 -0.771003,-3.043926 -3.899113,-4.854116 -6.922435,-4.005906 z m 2.295527,10.812481 2.115689,7.519951 -7.570699,1.926227 -3.819132,6.814758 -6.71669,-3.993025 -7.518974,2.117381 -1.926227,-7.5707 -6.814758,-3.81913 3.991333,-6.715715 -2.115689,-7.51995 7.570699,-1.926228 3.818155,-6.816448 6.71669,3.993024 7.520666,-2.118357 1.924535,7.571675 6.815735,3.820823 z"
       id="path1"
       inkscape:path-effect="#path-effect2;#path-effect3"
       inkscape:original-d="m 57.689453,16.251953 -6.972656,4.144531 -7.806641,-2.199218 -2,7.859375 -7.076172,3.966796 4.144532,6.972657 -2.197266,7.80664 7.859375,2 3.966797,7.074219 6.970703,-4.144531 7.808594,2.199219 1.998047,-7.861329 7.076171,-3.964843 -4.144531,-6.972657 2.199219,-7.80664 -7.861328,-2 z m -0.185547,0.691406 3.820313,6.814453 7.570312,1.927735 -2.117187,7.519531 3.992187,6.714844 -6.816406,3.820312 -1.925781,7.570313 -7.519532,-2.117188 -6.714843,3.992188 -3.820313,-6.814453 -7.570312,-1.927735 2.117187,-7.519531 -3.99414,-6.714844 6.816406,-3.820312 1.925781,-7.572266 7.519531,2.119141 z"
       transform="matrix(1.4917039,0,0,1.4917039,9.6986078,7.694878)" />
  </g>
</svg>
