<?xml version="1.0" encoding="UTF-8" standalone="no"?>
<!-- Created with Inkscape (http://www.inkscape.org/) -->

<svg
   width="120"
   height="120"
   viewBox="0 0 120 120"
   version="1.1"
   id="svg1"
   inkscape:version="1.4 (86a8ad7, 2024-10-11)"
   sodipodi:docname="mand_41.svg"
   xmlns:inkscape="http://www.inkscape.org/namespaces/inkscape"
   xmlns:sodipodi="http://sodipodi.sourceforge.net/DTD/sodipodi-0.dtd"
   xmlns="http://www.w3.org/2000/svg"
   xmlns:svg="http://www.w3.org/2000/svg">
  <sodipodi:namedview
     id="namedview1"
     pagecolor="#ffffff"
     bordercolor="#000000"
     borderopacity="0.25"
     inkscape:showpageshadow="2"
     inkscape:pageopacity="0.0"
     inkscape:pagecheckerboard="0"
     inkscape:deskcolor="#d1d1d1"
     inkscape:document-units="px"
     inkscape:zoom="3.4383067"
     inkscape:cx="60.058632"
     inkscape:cy="60.058632"
     inkscape:window-width="3440"
     inkscape:window-height="1369"
     inkscape:window-x="-8"
     inkscape:window-y="-8"
     inkscape:window-maximized="1"
     inkscape:current-layer="layer1" />
  <defs
     id="defs1">
    <inkscape:path-effect
       effect="copy_rotate"
       starting_point="0,0"
       origin="57.047486,20.587934"
       id="path-effect2"
       is_visible="true"
       lpeversion="1.2"
       lpesatellites=""
       method="normal"
       num_copies="7"
       starting_angle="0"
       rotation_angle="51.428571"
       gap="-0.01"
       copies_to_360="true"
       mirror_copies="false"
       split_items="false"
       link_styles="false" />
  </defs>
  <g
     inkscape:label="Layer 1"
     inkscape:groupmode="layer"
     id="layer1">
    <path
       id="path1"
       style="fill:#0000ff;stroke:none;stroke-width:0.376975"
       d="m 59.077046,2.3506277 c -1.5531,2.0761242 -1.759486,4.0965901 -2.002864,7.3476561 -0.169935,4.2860412 0.500744,8.4655582 1.180179,12.5351562 0.490347,2.571066 0.944493,5.171412 1.493267,7.707032 0.18032,0.833177 0.361099,1.542923 0.556227,2.310546 -0.0079,0.03229 -0.01646,0.06522 -0.02443,0.09766 -0.144956,-0.117646 -0.300615,-0.246362 -0.454086,-0.298828 -0.975977,-0.333635 -1.948264,1.239682 -2.481375,2.623047 -0.253602,0.715673 -0.445987,1.490593 -0.134338,2.259765 0.363461,0.500496 0.831392,0.69645 1.284541,0.787109 0.227271,-0.209901 0.466404,-0.393667 0.70611,-0.576171 l 1.65314,1.68164 c 0.02174,-0.06497 0.04377,-0.130345 0.0655,-0.195312 0.05488,-0.112798 0.103796,-0.231868 0.150992,-0.353516 0.04729,0.121922 0.0971,0.240475 0.152103,0.353516 0.02174,0.06497 0.04266,0.130342 0.06439,0.195312 l 1.65314,-1.68164 c 0.239706,0.182504 0.478839,0.36627 0.706109,0.576171 0.45315,-0.09066 0.921081,-0.286613 1.284542,-0.787109 0.311649,-0.769172 0.120374,-1.544092 -0.133228,-2.259765 -0.53311,-1.383365 -1.506508,-2.956682 -2.482485,-2.623047 -0.153568,0.0525 -0.309055,0.181124 -0.454086,0.298828 -0.008,-0.03244 -0.01656,-0.06537 -0.02442,-0.09766 0.195128,-0.767623 0.375907,-1.477369 0.556227,-2.310546 0.548773,-2.53562 1.00292,-5.135966 1.493266,-7.707032 0.679435,-4.069598 1.350114,-8.249115 1.18018,-12.5351562 -0.243378,-3.251066 -0.449764,-5.2715319 -2.002864,-7.3476561 l -1.803021,2.0136719 c 1.515612,1.9324772 1.70841,3.9585602 1.931808,7.0664064 0.14845,4.242633 -0.530284,8.368728 -1.211266,12.390625 -0.311514,1.589284 -0.602667,3.193659 -0.910393,4.787109 -0.307725,-1.59345 -0.598878,-3.197825 -0.910392,-4.787109 -0.680976,-4.021897 -1.359711,-8.147992 -1.21126,-12.390625 0.223398,-3.1078462 0.416196,-5.1339292 1.931808,-7.0664064 z m -0.05995,32.5546873 c 0.04823,0.04962 0.09577,0.102025 0.14322,0.154297 -0.04841,-0.04531 -0.09566,-0.09417 -0.140999,-0.146484 -9.42e-4,-0.0025 -0.0013,-0.0053 -0.0022,-0.0078 z m 4.105649,0 c -9.16e-4,0.0025 -0.0013,0.0053 -0.0022,0.0078 -0.04262,0.04917 -0.08677,0.09568 -0.132118,0.138672 0.0448,-0.04918 0.08884,-0.09967 0.134339,-0.146485 z m -4.284397,1.976563 c -0.03282,0.05488 -0.06675,0.107586 -0.103251,0.154297 -0.05688,0.07278 -0.250811,0.223183 -0.190961,0.158203 0.09743,-0.105778 0.196339,-0.208017 0.294212,-0.3125 z m 4.463145,0 c 0.09787,0.104483 0.196787,0.206722 0.294212,0.3125 0.05985,0.06498 -0.134084,-0.08543 -0.190961,-0.158203 -0.0365,-0.04671 -0.07043,-0.09942 -0.103251,-0.154297 z M 44.054396,7.6303856 c 0.654837,2.5087044 2.105821,3.9298034 4.495863,6.1470904 3.24501,2.805164 6.930849,4.886692 10.53621,6.892841 2.315866,1.219665 4.632054,2.485889 6.956637,3.637773 0.763831,0.378498 1.431447,0.679678 2.153259,1.005726 0.02032,0.02631 0.04073,0.05353 0.06112,0.07999 -0.182358,0.03998 -0.380044,0.08143 -0.516751,0.168703 -0.869358,0.555031 -0.245501,2.296143 0.503669,3.57546 0.401417,0.644489 0.887324,1.278056 1.682997,1.51397 0.617917,0.02789 1.062871,-0.215779 1.416284,-0.51354 -0.02241,-0.308559 -0.01698,-0.610097 -0.01022,-0.911296 l 2.345475,-0.243991 c -0.03724,-0.05751 -0.07462,-0.11549 -0.111862,-0.172985 -0.05397,-0.113236 -0.116566,-0.225719 -0.182248,-0.338464 0.124807,0.03904 0.248551,0.07402 0.371224,0.101494 0.06435,0.02351 0.128504,0.04791 0.192848,0.07143 l -0.284043,-2.340962 c 0.292141,-0.07362 0.584912,-0.146006 0.89072,-0.192821 0.211654,-0.410813 0.350202,-0.898831 0.185512,-1.49505 -0.407053,-0.723228 -1.132167,-1.056838 -1.849821,-1.304779 -1.413947,-0.445712 -3.25092,-0.665626 -3.598585,0.305442 -0.0547,0.152798 -0.05108,0.354558 -0.04948,0.541335 -0.03035,-0.01397 -0.06143,-0.02781 -0.09158,-0.0418 -0.478492,-0.631162 -0.92068,-1.21502 -1.459656,-1.875477 -1.640273,-2.009982 -3.39015,-3.986337 -5.094564,-5.972739 -2.758119,-3.068556 -5.607636,-6.1988 -9.06455,-8.7382435 -2.693529,-1.836726 -4.401873,-2.9351068 -6.993394,-3.0152866 l 0.450187,2.6651625 c 2.45584,0.019927 4.160103,1.1324332 6.729202,2.8954836 3.409581,2.529176 6.212308,5.63241 8.932168,8.672435 1.048327,1.234453 2.121147,2.462397 3.175092,3.696487 C 64.388438,21.690868 62.952556,20.91819 61.515778,20.170839 57.946751,18.195635 54.297656,16.153714 51.073189,13.392412 48.782664,11.280042 47.318816,9.8660639 46.752913,7.4762309 Z M 69.469297,27.974772 c 0.06887,-0.0068 0.139478,-0.01127 0.20993,-0.01577 -0.06561,0.0096 -0.133268,0.01608 -0.202437,0.01891 -0.0025,-8.22e-4 -0.005,-0.0023 -0.0075,-0.0031 z m 2.55983,-3.209926 c 0.0014,0.0023 0.0033,0.0043 0.0047,0.0066 0.01187,0.06398 0.0207,0.127495 0.02604,0.189754 -0.01052,-0.06569 -0.02254,-0.131601 -0.03077,-0.196362 z m -1.125938,4.582044 c 0.02244,0.05988 0.0425,0.119266 0.05626,0.176927 0.02144,0.08985 0.01811,0.335244 0.0046,0.247937 -0.02195,-0.142125 -0.04022,-0.2832 -0.06088,-0.424864 z m 2.782725,-3.489428 c 0.142709,-0.01137 0.284316,-0.02497 0.42776,-0.03518 0.08812,-0.0063 -0.150391,0.05157 -0.24275,0.05066 -0.05928,-5.86e-4 -0.121642,-0.0069 -0.18501,-0.01548 z m -34.870107,-3.19002 c 2.369669,1.052179 4.385403,0.803795 7.609115,0.31764 4.216395,-0.788059 8.141883,-2.371953 11.958259,-3.939924 2.397491,-1.050169 4.831584,-2.07156 7.181517,-3.170803 0.772163,-0.361199 1.423887,-0.695378 2.128844,-1.056426 0.03324,5.16e-4 0.06725,0.0015 0.100648,0.0021 -0.08244,0.1675 -0.173293,0.347898 -0.190293,0.509196 -0.108094,1.025748 1.642131,1.623562 3.10944,1.835479 0.754161,0.08799 1.552462,0.103117 2.233001,-0.371875 0.40707,-0.465719 0.493986,-0.965522 0.481537,-1.427483 -0.255211,-0.174866 -0.487581,-0.367111 -0.718849,-0.560196 l 1.271619,-1.985893 c -0.06818,-0.0067 -0.136816,-0.01367 -0.20499,-0.0204 -0.122182,-0.02841 -0.249151,-0.0496 -0.378251,-0.06854 0.108342,-0.07324 0.212839,-0.148176 0.310806,-0.226954 0.0585,-0.03565 0.117581,-0.0706 0.176087,-0.106237 L 71.876961,11.159622 C 72.00155,10.885315 72.127496,10.611286 72.281562,10.343006 72.09234,9.9213916 71.797175,9.5087962 71.22835,9.2658188 70.409115,9.1331403 69.696186,9.4920556 69.054888,9.8985515 c -1.230053,0.8275715 -2.547322,2.1266605 -2.004877,3.0039265 0.08536,0.138036 0.245354,0.261003 0.39238,0.376206 -0.02985,0.01502 -0.06005,0.03069 -0.08978,0.04554 -0.791797,-0.01942 -1.523975,-0.03774 -2.376388,-0.02814 -2.59416,0.02921 -5.230367,0.165085 -7.846083,0.259149 -4.118753,0.243171 -8.342721,0.519337 -12.483489,1.638744 -3.115398,0.960706 -5.039281,1.611514 -6.717755,3.587655 l 2.364394,1.309732 c 1.546771,-1.907629 3.479154,-2.546439 6.45937,-3.455797 4.103228,-1.088803 8.276905,-1.345229 12.349498,-1.576276 1.618755,-0.04995 3.247693,-0.1231 4.869667,-0.177665 -1.485023,0.654586 -2.984386,1.295446 -4.464505,1.952799 -3.769528,1.558858 -7.64114,3.138719 -11.810435,3.938064 -3.079637,0.473764 -5.097823,0.736646 -7.319105,-0.31095 z m 31.751814,-7.185653 c 0.03764,-0.05806 0.07816,-0.116071 0.118559,-0.173963 -0.0334,0.05728 -0.07052,0.114216 -0.111436,0.170059 -0.0022,0.0015 -0.0049,0.0024 -0.0071,0.0039 z m -0.913593,-4.002712 c 0.0026,3.37e-4 0.0055,8.8e-5 0.0081,4.1e-4 0.05742,0.03061 0.112589,0.0633 0.164594,0.09795 -0.05792,-0.03273 -0.11694,-0.06443 -0.172705,-0.09837 z m 2.880375,3.737152 c 0.06081,0.01979 0.119741,0.04114 0.173403,0.06633 0.08361,0.03926 0.273399,0.19486 0.19673,0.15097 -0.124806,-0.07145 -0.246491,-0.145129 -0.370133,-0.217298 z m -0.993144,-4.351245 c 0.08009,-0.118665 0.15775,-0.237853 0.239197,-0.356373 0.05003,-0.07281 -0.05345,0.149732 -0.111744,0.221377 -0.03742,0.04598 -0.08125,0.09079 -0.127453,0.134996 z M 47.306045,36.138586 c 2.300091,-1.196658 3.362686,-2.927488 4.992547,-5.750999 2.012749,-3.787858 3.221913,-7.844469 4.375495,-11.805846 0.673757,-2.529204 1.392833,-5.069081 1.998569,-7.5917 0.19904,-0.828905 0.344111,-1.5468009 0.501365,-2.3230681 0.02113,-0.025665 0.04313,-0.051619 0.06438,-0.077389 0.07956,0.1688894 0.163952,0.3523965 0.279461,0.4662553 0.734566,0.7240553 2.293203,-0.2715948 3.373739,-1.2866555 0.539006,-0.5347653 1.048564,-1.1494713 1.10151,-1.9776908 -0.11031,-0.6086311 -0.44688,-0.9882072 -0.815818,-1.2665021 -0.295837,0.090505 -0.591021,0.1523166 -0.886174,0.2127424 L 61.531331,2.5053575 c -0.04778,0.049103 -0.09599,0.098446 -0.143756,0.1475506 -0.09839,0.077816 -0.194121,0.1638705 -0.289424,0.252994 0.01029,-0.1303663 0.01685,-0.2587906 0.01635,-0.384502 0.0086,-0.067969 0.01812,-0.1359435 0.02673,-0.2039078 L 58.922161,3.1153271 C 58.785379,2.8468921 58.649661,2.5775687 58.53597,2.2898457 58.08836,2.1749131 57.581748,2.148433 57.037124,2.4416645 c -0.614517,0.5577806 -0.77841,1.3389505 -0.860441,2.0937834 -0.119904,1.4776766 0.07446,3.3175278 1.098544,3.4403936 0.161139,0.01933 0.357036,-0.029093 0.538774,-0.072214 -0.0069,0.032698 -0.01344,0.066081 -0.02037,0.098584 -0.508864,0.6069416 -0.979687,1.1679636 -1.503652,1.8403922 -1.594591,2.0464105 -3.132011,4.1921945 -4.689342,6.2958925 -2.377882,3.371785 -4.795567,6.846403 -6.502106,10.781724 -1.191308,3.034707 -1.882008,4.944632 -1.38351,7.48902 l 2.498165,-1.031955 c -0.527048,-2.398701 0.178331,-4.30779 1.3255,-7.204792 1.707061,-3.88689 4.108825,-7.309882 6.467404,-10.638019 0.970229,-1.296734 1.928661,-2.615899 2.897284,-3.918031 -0.414121,1.569166 -0.847913,3.140984 -1.256813,4.70804 -1.131498,3.919069 -2.310224,7.931044 -4.284784,11.689114 -1.549718,2.703144 -2.602508,4.44493 -4.806497,5.528432 z M 61.485008,6.8338377 c -0.02193,-0.065632 -0.04202,-0.1334744 -0.06209,-0.2011576 0.02396,0.061827 0.04533,0.1263495 0.06348,0.1931547 -2.36e-4,0.00266 -0.0011,0.00534 -0.0014,0.00798 z M 57.785946,5.0524634 c 0.0019,-0.00185 0.0035,-0.00421 0.0054,-0.00607 0.05973,-0.025808 0.119691,-0.048557 0.179202,-0.067615 -0.0617,0.024872 -0.123288,0.051253 -0.184593,0.073691 z m 4.717706,0.078108 c 0.05338,-0.035205 0.10682,-0.06797 0.159973,-0.094218 0.08283,-0.040893 0.322809,-0.092258 0.240692,-0.059681 -0.133677,0.053029 -0.267151,0.1022285 -0.400665,0.1538989 z m -4.021154,-1.936486 c -0.04284,-0.1366002 -0.08761,-0.2716328 -0.129487,-0.4092066 -0.02573,-0.084513 0.08374,0.1351466 0.103408,0.2253909 0.01262,0.057921 0.02032,0.1201327 0.02608,0.1838157 z m 4.649288,34.7056862 c 0.498498,-2.544388 -0.192201,-4.454312 -1.38351,-7.489019 -1.706538,-3.935322 -4.124223,-7.40994 -6.502105,-10.781725 -1.557331,-2.103697 -3.09475,-4.249481 -4.689343,-6.295892 -0.523965,-0.672428 -0.994788,-1.23345 -1.503652,-1.840392 -0.0069,-0.03252 -0.01347,-0.0659 -0.02036,-0.09859 0.181646,0.0431 0.377737,0.09153 0.538774,0.07221 1.024084,-0.122866 1.217447,-1.9622352 1.097544,-3.4399122 C 50.587101,7.2716249 50.424208,6.4899734 49.809691,5.9321928 49.265067,5.6389613 48.758455,5.6654405 48.310846,5.7803736 48.197154,6.068097 48.061436,6.3374204 47.924654,6.6058554 L 45.70559,5.8080206 c 0.0086,0.067969 0.01712,0.1364279 0.02573,0.2043894 -5.04e-4,0.1254391 0.0071,0.2539413 0.01735,0.3840199 C 45.653158,6.3071004 45.556843,6.2218996 45.45824,6.143918 45.410464,6.0948147 45.363252,6.0449934 45.315484,5.9958858 L 44.555693,8.2282616 C 44.26054,8.1678357 43.965355,8.1060242 43.669519,8.0155187 43.300581,8.293815 42.964011,8.6733902 42.853701,9.2820213 c 0.05295,0.8282197 0.561503,1.4434067 1.100509,1.9781727 1.080535,1.015061 2.640173,2.010229 3.374739,1.286174 0.115581,-0.113932 0.199863,-0.297281 0.279461,-0.466256 0.02128,0.02576 0.04328,0.05171 0.06437,0.07739 0.157255,0.776268 0.302326,1.494164 0.501365,2.323068 0.605737,2.522619 1.324812,5.062497 1.99857,7.5917 1.153582,3.961377 2.362746,8.017988 4.375495,11.805846 1.62986,2.823512 2.692455,4.554341 4.992546,5.751 l 0.750767,-2.596557 c -2.20399,-1.083503 -3.25678,-2.825289 -4.806498,-5.528433 -1.974558,-3.75807 -3.153286,-7.770045 -4.284778,-11.689116 -0.4089,-1.567056 -0.842692,-3.138874 -1.256813,-4.70804 0.968623,1.302132 1.927055,2.621297 2.897284,3.918031 2.358574,3.32814 4.760338,6.751131 6.467398,10.638022 1.147169,2.897001 1.852549,4.806091 1.3255,7.204792 z M 49.06085,8.5430012 c -0.06498,-0.02378 -0.130553,-0.050368 -0.195984,-0.076876 0.06327,0.019819 0.127046,0.043339 0.190593,0.0708 0.0019,0.00184 0.0035,0.00421 0.0054,0.00607 z m -3.699062,1.7813748 c -2.59e-4,-0.0027 -0.0011,-0.0053 -0.0014,-0.008 0.01707,-0.06279 0.03666,-0.123852 0.05887,-0.182263 -0.01902,0.06375 -0.0368,0.128346 -0.05748,0.190266 z m 3.00251,-3.6397524 c 0.0058,-0.063685 0.01346,-0.1258934 0.02608,-0.1838157 0.01967,-0.090252 0.129137,-0.3099038 0.103408,-0.2253909 -0.04189,0.137576 -0.08664,0.2726052 -0.129487,0.4092066 z m -4.021155,1.9364861 c -0.133511,-0.051672 -0.266992,-0.1008674 -0.400664,-0.153899 -0.08212,-0.032577 0.157872,0.018793 0.240691,0.059681 0.05315,0.026248 0.106592,0.059016 0.159973,0.094218 z M 74.375925,26.624791 c -1.678474,-1.976142 -3.602357,-2.626949 -6.717755,-3.587655 -4.140768,-1.119408 -8.364735,-1.395575 -12.483489,-1.638745 -2.615716,-0.09406 -5.251923,-0.229935 -7.846083,-0.259149 -0.852413,-0.0096 -1.584591,0.0087 -2.376388,0.02814 -0.02972,-0.01489 -0.05992,-0.03056 -0.08978,-0.04555 0.146952,-0.115143 0.307079,-0.238257 0.39238,-0.376206 0.542445,-0.877266 -0.775071,-2.175272 -2.005124,-3.002844 -0.641298,-0.406496 -1.353979,-0.766494 -2.173215,-0.633815 -0.568825,0.242977 -0.863991,0.655572 -1.053212,1.077186 0.154066,0.268281 0.280012,0.54231 0.404601,0.816617 l -2.007336,1.237492 c 0.0585,0.03565 0.117337,0.07168 0.17584,0.107319 0.09776,0.0786 0.202958,0.152789 0.311054,0.225871 -0.129388,0.01897 -0.256053,0.04115 -0.378499,0.06962 -0.06818,0.0067 -0.136567,0.01259 -0.204743,0.01931 l 1.271619,1.985893 c -0.231268,0.193085 -0.463638,0.38533 -0.718849,0.560195 -0.01245,0.461962 0.07447,0.961765 0.481537,1.427484 0.680539,0.474992 1.478593,0.460949 2.232754,0.372957 1.467309,-0.211916 3.217782,-0.810813 3.109687,-1.836561 -0.01701,-0.1614 -0.107812,-0.34161 -0.190292,-0.509196 0.03341,-5.81e-4 0.06742,-0.0016 0.100645,-0.0021 0.704957,0.361048 1.356681,0.695228 2.128844,1.056426 2.349933,1.099243 4.784026,2.120635 7.181517,3.170803 3.816377,1.567971 7.741864,3.151865 11.958259,3.939925 3.223712,0.486154 5.239446,0.734539 7.609114,-0.317641 L 71.92704,28.304698 c -2.221281,1.047596 -4.239467,0.784714 -7.319104,0.31095 -4.169295,-0.799347 -8.040907,-2.379206 -11.810434,-3.938071 -1.480119,-0.657352 -2.979482,-1.298212 -4.464505,-1.952799 1.621974,0.05457 3.250912,0.12772 4.869668,0.177665 4.072591,0.231054 8.246269,0.487479 12.349496,1.576283 2.980216,0.909357 4.912599,1.548167 6.45937,3.455796 z M 42.650792,19.322245 c -0.05911,0.03598 -0.120778,0.07067 -0.182298,0.105295 0.05495,-0.03711 0.113096,-0.07231 0.174187,-0.104868 0.0026,-3.63e-4 0.0055,-8.9e-5 0.0081,-4.1e-4 z m -0.913593,4.002712 c -0.0022,-0.0015 -0.0049,-0.0024 -0.0071,-0.0039 -0.03845,-0.05249 -0.07397,-0.105885 -0.105796,-0.159663 0.03798,0.05462 0.0774,0.108791 0.112919,0.163567 z m -0.973638,-4.616805 c -0.0462,-0.04421 -0.09004,-0.08902 -0.127453,-0.134997 -0.0583,-0.07165 -0.161777,-0.294185 -0.111744,-0.221377 0.08145,0.118525 0.159112,0.237705 0.239197,0.356374 z m -0.993143,4.351244 c -0.123642,0.07217 -0.245329,0.145854 -0.370134,0.217298 -0.07667,0.04389 0.113125,-0.111712 0.19673,-0.15097 0.05366,-0.02519 0.112599,-0.04654 0.173404,-0.06633 z M 72.571396,10.803933 c -2.591521,0.08018 -4.299865,1.178561 -6.993394,3.015287 -3.456915,2.539442 -6.306431,5.669687 -9.06455,8.738243 -1.704414,1.986402 -3.454291,3.962757 -5.094564,5.972739 -0.538976,0.660457 -0.981164,1.244315 -1.459655,1.875478 -0.03017,0.01396 -0.06125,0.0278 -0.09159,0.04179 0.0016,-0.186683 0.0052,-0.388635 -0.04948,-0.541335 -0.347665,-0.971068 -2.183945,-0.750285 -3.597892,-0.304574 -0.717654,0.24794 -1.443461,0.580682 -1.850514,1.30391 -0.16469,0.59622 -0.02614,1.084238 0.185511,1.495049 0.305809,0.04682 0.59858,0.119202 0.890721,0.192823 l -0.284043,2.340962 c 0.06435,-0.02351 0.129198,-0.04705 0.19354,-0.07057 0.122406,-0.02742 0.245997,-0.06342 0.370532,-0.102363 -0.06584,0.11299 -0.12747,0.225849 -0.181556,0.339332 -0.03724,0.0575 -0.07531,0.11462 -0.112554,0.172117 l 2.345475,0.243992 c 0.0068,0.301199 0.01219,0.602737 -0.01022,0.911295 0.353415,0.297761 0.798368,0.54143 1.416286,0.513541 0.795672,-0.235914 1.282271,-0.868614 1.683689,-1.513103 0.749169,-1.279316 1.372334,-3.021296 0.502976,-3.576328 -0.136794,-0.08733 -0.334301,-0.128699 -0.516751,-0.168702 0.02038,-0.02648 0.04078,-0.0537 0.06113,-0.07998 0.721812,-0.326048 1.389428,-0.627229 2.15326,-1.005726 2.324582,-1.151886 4.64077,-2.418108 6.956636,-3.637774 3.605361,-2.006149 7.2912,-4.087677 10.53621,-6.89284 2.390042,-2.217287 3.841026,-3.638386 4.495864,-6.147091 l -2.698518,-0.154155 c -0.565903,2.389833 -2.029751,3.803811 -4.320276,5.916181 -3.224467,2.761301 -6.873562,4.803224 -10.442593,6.778422 -1.436778,0.747351 -2.87266,1.52003 -4.310333,2.27294 1.053946,-1.234089 2.126766,-2.462033 3.175092,-3.696487 2.719864,-3.04002 5.522591,-6.143254 8.932173,-8.672429 2.569098,-1.763051 4.273361,-2.875557 6.729201,-2.895484 z M 47.081739,31.054578 c -0.0087,0.06865 -0.02005,0.138488 -0.03134,0.208177 0.0052,-0.0661 0.01398,-0.133504 0.02661,-0.201569 0.0014,-0.0023 0.0033,-0.0043 0.0047,-0.0066 z m 2.55983,3.209926 c -0.0025,8.42e-4 -0.005,0.0023 -0.0075,0.0031 -0.06502,-0.0027 -0.128906,-0.0082 -0.190793,-0.01683 0.06638,0.0044 0.133316,0.0073 0.198286,0.0137 z m -4.216617,-2.11731 c -0.06337,0.0086 -0.125732,0.01489 -0.18501,0.01548 -0.09237,9.07e-4 -0.33087,-0.05694 -0.242751,-0.05066 0.143447,0.01022 0.28505,0.02381 0.427761,0.03518 z m 2.782725,3.489427 c -0.02067,0.141662 -0.03893,0.282744 -0.06088,0.424865 -0.01349,0.08731 -0.01681,-0.158096 0.0046,-0.247937 0.01376,-0.05766 0.03382,-0.117052 0.05626,-0.176928 z"
       inkscape:path-effect="#path-effect2"
       inkscape:original-d="m 59.077046,2.3506277 c -1.5531,2.0761242 -1.759486,4.0965901 -2.002864,7.3476561 -0.169935,4.2860412 0.500744,8.4655582 1.180179,12.5351562 0.490347,2.571066 0.944493,5.171412 1.493267,7.707032 0.18032,0.833177 0.361099,1.542923 0.556227,2.310546 -0.0079,0.03229 -0.01646,0.06522 -0.02443,0.09766 -0.144956,-0.117646 -0.300615,-0.246362 -0.454086,-0.298828 -0.975977,-0.333635 -1.948264,1.239682 -2.481375,2.623047 -0.253602,0.715673 -0.445987,1.490593 -0.134338,2.259765 0.363461,0.500496 0.831392,0.69645 1.284541,0.787109 0.227271,-0.209901 0.466404,-0.393667 0.70611,-0.576171 l 1.65314,1.68164 c 0.02174,-0.06497 0.04377,-0.130345 0.0655,-0.195312 0.05488,-0.112798 0.103796,-0.231868 0.150992,-0.353516 0.04729,0.121922 0.0971,0.240475 0.152103,0.353516 0.02174,0.06497 0.04266,0.130342 0.06439,0.195312 l 1.65314,-1.68164 c 0.239706,0.182504 0.478839,0.36627 0.706109,0.576171 0.45315,-0.09066 0.921081,-0.286613 1.284542,-0.787109 0.311649,-0.769172 0.120374,-1.544092 -0.133228,-2.259765 -0.53311,-1.383365 -1.506508,-2.956682 -2.482485,-2.623047 -0.153568,0.0525 -0.309055,0.181124 -0.454086,0.298828 -0.008,-0.03244 -0.01656,-0.06537 -0.02442,-0.09766 0.195128,-0.767623 0.375907,-1.477369 0.556227,-2.310546 0.548773,-2.53562 1.00292,-5.135966 1.493266,-7.707032 0.679435,-4.069598 1.350114,-8.249115 1.18018,-12.5351562 -0.243378,-3.251066 -0.449764,-5.2715319 -2.002864,-7.3476561 l -1.803021,2.0136719 c 1.515612,1.9324772 1.70841,3.9585602 1.931808,7.0664064 0.14845,4.242633 -0.530284,8.368728 -1.211266,12.390625 -0.311514,1.589284 -0.602667,3.193659 -0.910393,4.787109 -0.307725,-1.59345 -0.598878,-3.197825 -0.910392,-4.787109 -0.680976,-4.021897 -1.359711,-8.147992 -1.21126,-12.390625 0.223398,-3.1078462 0.416196,-5.1339292 1.931808,-7.0664064 z m -0.05995,32.5546873 c 0.04823,0.04962 0.09577,0.102025 0.14322,0.154297 -0.04841,-0.04531 -0.09566,-0.09417 -0.140999,-0.146484 -9.42e-4,-0.0025 -0.0013,-0.0053 -0.0022,-0.0078 z m 4.105649,0 c -9.16e-4,0.0025 -0.0013,0.0053 -0.0022,0.0078 -0.04262,0.04917 -0.08677,0.09568 -0.132118,0.138672 0.0448,-0.04918 0.08884,-0.09967 0.134339,-0.146485 z m -4.284397,1.976563 c -0.03282,0.05488 -0.06675,0.107586 -0.103251,0.154297 -0.05688,0.07278 -0.250811,0.223183 -0.190961,0.158203 0.09743,-0.105778 0.196339,-0.208017 0.294212,-0.3125 z m 4.463145,0 c 0.09787,0.104483 0.196787,0.206722 0.294212,0.3125 0.05985,0.06498 -0.134084,-0.08543 -0.190961,-0.158203 -0.0365,-0.04671 -0.07043,-0.09942 -0.103251,-0.154297 z"
       transform="matrix(2.927532,0,0,2.927532,-105.97417,-2.2219805)" />
  </g>
</svg>
