<?xml version="1.0" encoding="UTF-8" standalone="no"?>
<!-- Created with Inkscape (http://www.inkscape.org/) -->

<svg
   width="120"
   height="120"
   viewBox="0 0 120 120"
   version="1.1"
   id="svg1"
   inkscape:version="1.4 (86a8ad7, 2024-10-11)"
   sodipodi:docname="mand_21.svg"
   xmlns:inkscape="http://www.inkscape.org/namespaces/inkscape"
   xmlns:sodipodi="http://sodipodi.sourceforge.net/DTD/sodipodi-0.dtd"
   xmlns="http://www.w3.org/2000/svg"
   xmlns:svg="http://www.w3.org/2000/svg">
  <sodipodi:namedview
     id="namedview1"
     pagecolor="#ffffff"
     bordercolor="#000000"
     borderopacity="0.25"
     inkscape:showpageshadow="2"
     inkscape:pageopacity="0.0"
     inkscape:pagecheckerboard="0"
     inkscape:deskcolor="#d1d1d1"
     inkscape:document-units="px"
     inkscape:zoom="6.8766134"
     inkscape:cx="59.985922"
     inkscape:cy="59.985922"
     inkscape:window-width="3440"
     inkscape:window-height="1369"
     inkscape:window-x="-8"
     inkscape:window-y="-8"
     inkscape:window-maximized="1"
     inkscape:current-layer="layer1" />
  <defs
     id="defs1">
    <inkscape:path-effect
       effect="copy_rotate"
       starting_point="0,0"
       origin="60,60"
       id="path-effect4"
       is_visible="true"
       lpeversion="1.2"
       lpesatellites=""
       method="normal"
       num_copies="6"
       starting_angle="0"
       rotation_angle="60"
       gap="-0.01"
       copies_to_360="true"
       mirror_copies="false"
       split_items="false"
       link_styles="false" />
  </defs>
  <g
     inkscape:label="Layer 1"
     inkscape:groupmode="layer"
     id="layer1">
    <path
       id="path1"
       style="fill:#0000ff"
       d="M 60,42.853516 54.962891,47.837891 47.875,47.875 47.839844,54.962891 42.853516,60 l 4.986328,5.037109 0.03516,7.085938 7.087891,0.03711 L 60,77.146484 65.037109,72.160156 72.125,72.123047 72.160156,65.037109 77.146484,60 72.160156,54.962891 72.125,47.875 65.037109,47.837891 Z m 0,0.5625 4.871094,4.822265 6.855468,0.03516 0.03516,6.853515 L 76.583984,60 l -4.822265,4.871094 -0.0332,6.855468 -6.857422,0.0332 L 60,76.582031 55.128906,71.759766 48.273438,71.724609 48.238281,64.871094 43.416016,60 l 4.822265,-4.873047 0.03516,-6.853515 6.855468,-0.03516 z m 0,3.396484 -3.875,3.833984 -5.451172,0.02734 L 50.646484,56.125 46.8125,60 l 3.833984,3.875 0.02734,5.449219 5.451172,0.0293 L 60,73.1875 63.875,69.353516 69.326172,69.324219 69.353516,63.875 73.1875,60 69.353516,56.125 69.326172,50.673828 63.875,50.646484 Z m 0,0.431641 3.746094,3.708984 5.273437,0.02734 0.02734,5.271484 L 72.755859,60 l -3.708984,3.746094 -0.02539,5.273437 -5.27539,0.02539 L 60,72.753906 56.253906,69.044922 50.980469,69.017578 50.953125,63.746094 47.244141,60 l 3.708984,-3.748047 0.02734,-5.271484 5.273437,-0.02734 z m -14.849291,4.182617 1.798041,6.854452 -3.511808,6.156848 6.120716,3.574392 1.8691,6.836841 6.855428,-1.799732 6.154183,3.512519 3.576083,-6.119739 6.836839,-1.869097 -1.799732,-6.855428 3.511808,-6.156849 -6.119025,-3.573415 -1.8691,-6.836841 -6.855428,1.799732 -6.155872,-3.513499 -3.576083,6.119739 z m 0.48714,0.28125 6.611751,-1.807359 3.458183,-5.919429 5.952898,3.396308 6.631311,-1.739679 1.807359,6.611751 5.920409,3.456486 -3.399959,5.955301 1.740659,6.629628 -6.611751,1.807359 -3.458181,5.919431 -5.952896,-3.396311 -6.629624,1.740657 -1.80905,-6.612727 -5.917738,-3.457207 3.397284,-5.954589 z m 2.941441,1.698242 1.382828,5.27284 -2.701909,4.734524 4.707185,2.749268 1.438856,5.257828 5.27284,-1.382828 4.732833,2.700933 2.75096,-4.706204 5.257827,-1.438861 -1.382828,-5.27284 2.700215,-4.735502 -4.705491,-2.74829 -1.438856,-5.257828 -5.27284,1.382828 -4.734526,-2.701906 -2.749266,4.707182 z m 0.373812,0.21582 5.085121,-1.38972 2.660396,-4.55326 4.578909,2.612064 5.100401,-1.338052 1.389721,5.085121 4.554235,2.658707 -2.615706,4.581317 1.339028,5.098706 -5.085122,1.389721 -2.660399,4.553258 -4.578911,-2.612061 -5.098705,1.339027 -1.391411,-5.086098 -4.551569,-2.659419 2.613041,-4.5806 z m -3.802393,14.951172 6.83515,1.870077 3.576083,6.119739 6.155872,-3.513499 6.855428,1.799732 1.8691,-6.836841 6.119023,-3.573419 -3.511808,-6.156849 1.799734,-6.855424 -6.836841,-1.8691 -3.576083,-6.11974 -6.154181,3.512523 -6.855428,-1.799732 -1.8691,6.836841 -6.120716,3.574392 3.511808,6.156848 z m 0.48714,-0.28125 1.740657,-6.629624 -3.397285,-5.954589 5.917738,-3.457207 1.809049,-6.612723 6.629624,1.740657 5.953609,-3.398982 3.457463,5.922101 6.611756,1.80736 -1.740657,6.629623 3.397287,5.954588 -5.917739,3.457204 -1.807359,6.611751 -6.631315,-1.73968 -5.952898,3.396308 -3.458184,-5.919429 z m 2.941441,-1.698242 5.257828,1.438856 2.749263,4.707184 4.734529,-2.701908 5.27284,1.382828 1.438856,-5.257828 4.705493,-2.748286 -2.700212,-4.735504 1.382823,-5.272842 -5.257828,-1.438856 -2.750957,-4.706205 -4.732835,2.700929 -5.27284,-1.382828 -1.438856,5.257828 -4.707182,2.749266 2.701906,4.734526 z m 0.373812,-0.21582 1.339027,-5.098705 -2.613041,-4.5806 4.551569,-2.65942 1.391413,-5.086103 5.098705,1.339027 4.579625,-2.61473 2.659684,4.555927 5.085123,1.389721 -1.339028,5.098705 2.613038,4.580602 -4.551567,2.659423 -1.389721,5.085121 -5.100395,-1.338051 -4.578909,2.612065 -2.660396,-4.55326 z M 60,77.146484 65.037109,72.162109 72.125,72.125 72.160156,65.037109 77.146484,60 72.160156,54.962891 72.124996,47.876953 65.037105,47.839843 60,42.853516 54.962891,47.839844 47.875,47.876953 47.839844,54.962891 42.853516,60 47.839844,65.037109 47.875,72.125 l 7.087891,0.03711 z m 0,-0.5625 -4.871094,-4.822265 -6.855468,-0.03516 -0.03516,-6.853515 L 43.416016,60 l 4.822265,-4.871094 0.0332,-6.855468 6.857422,-0.0332 L 60,43.417969 l 4.871094,4.822265 6.855468,0.03516 0.03516,6.853515 L 76.583984,60 l -4.822265,4.873047 -0.03516,6.853515 -6.855468,0.03516 z M 60,73.1875 63.875,69.353516 69.326172,69.326176 69.353516,63.875 73.1875,60 69.353516,56.125 69.326176,50.675781 63.875004,50.646481 60,46.8125 56.125,50.646484 50.673828,50.675781 50.646484,56.125 46.8125,60 l 3.833984,3.875 0.02734,5.451172 5.451172,0.02734 z m 0,-0.431641 -3.746094,-3.708984 -5.273437,-0.02734 -0.02734,-5.271484 L 47.244141,60 l 3.708984,-3.746094 0.02539,-5.273437 5.27539,-0.02539 L 60,47.246094 l 3.746094,3.708984 5.273437,0.02734 0.02734,5.271484 L 72.755859,60 l -3.708984,3.748047 -0.02734,5.271484 -5.273437,0.02734 z m 14.849291,-4.182617 -1.798041,-6.854452 3.511808,-6.156848 -6.120716,-3.574392 -1.8691,-6.836841 -6.855428,1.799732 -6.154183,-3.512519 -3.576083,6.119739 -6.836839,1.869097 1.799732,6.855428 -3.511808,6.156849 6.119025,3.573415 1.8691,6.836841 6.855428,-1.799732 6.155872,3.513499 3.576083,-6.119739 z m -0.48714,-0.28125 -6.611751,1.807359 -3.458183,5.919429 -5.952898,-3.396308 -6.631311,1.739679 -1.807359,-6.611751 -5.920409,-3.456486 3.399959,-5.955301 -1.740659,-6.629629 6.611751,-1.807358 3.458181,-5.919431 5.952896,3.396311 6.629624,-1.740657 1.80905,6.612727 5.917738,3.457207 -3.397284,5.954589 z M 71.42071,66.59375 70.037882,61.32091 72.739791,56.586386 68.032606,53.837118 66.59375,48.57929 l -5.27284,1.382828 -4.732833,-2.700933 -2.75096,4.706204 -5.257827,1.438861 1.382828,5.27284 -2.700215,4.735502 4.705491,2.74829 1.438856,5.257828 5.27284,-1.382828 4.734526,2.701906 2.749266,-4.707182 z m -0.373812,-0.21582 -5.085121,1.38972 -2.660396,4.55326 -4.578909,-2.612064 -5.100402,1.338052 -1.38972,-5.085121 -4.554235,-2.658707 2.615706,-4.581317 -1.339028,-5.098706 5.085122,-1.389721 2.660399,-4.553258 4.578911,2.612061 5.098704,-1.339027 1.391412,5.086098 4.551569,2.659419 -2.613041,4.5806 z m 3.802393,-14.951172 -6.83515,-1.870077 -3.576083,-6.119739 -6.155872,3.513499 -6.855428,-1.799732 -1.8691,6.836841 -6.119023,3.573419 3.511808,6.156849 -1.799734,6.855424 6.836841,1.8691 3.576083,6.11974 6.154181,-3.512523 6.855428,1.799732 1.8691,-6.836841 6.120716,-3.574392 -3.511808,-6.156848 z m -0.48714,0.28125 -1.740657,6.629624 3.397285,5.954589 -5.917738,3.457207 -1.809049,6.612723 -6.629624,-1.740657 -5.953609,3.398982 -3.457463,-5.922101 -6.611756,-1.80736 1.740657,-6.629623 -3.397287,-5.954588 5.917739,-3.457204 1.807359,-6.611751 6.631315,1.73968 5.952898,-3.396308 3.458184,5.919429 z M 71.42071,53.40625 66.162882,51.967394 63.413619,47.26021 58.67909,49.962118 53.40625,48.57929 l -1.438856,5.257828 -4.705493,2.748286 2.700212,4.735504 -1.382823,5.272842 5.257828,1.438856 2.750957,4.706205 4.732835,-2.700929 5.27284,1.382828 1.438856,-5.257828 4.707182,-2.749266 -2.701906,-4.734526 z m -0.373812,0.21582 -1.339027,5.098705 2.613041,4.5806 -4.551569,2.65942 -1.391414,5.086103 -5.098704,-1.339027 -4.579625,2.61473 -2.659684,-4.555927 -5.085123,-1.389721 1.339028,-5.098705 -2.613038,-4.580602 4.551567,-2.659423 1.38972,-5.085121 5.100396,1.338051 4.578909,-2.612065 2.660396,4.55326 z"
       inkscape:path-effect="#path-effect4"
       inkscape:original-d="M 60,42.853516 54.962891,47.837891 47.875,47.875 47.839844,54.962891 42.853516,60 l 4.986328,5.037109 0.03516,7.085938 7.087891,0.03711 L 60,77.146484 65.037109,72.160156 72.125,72.123047 72.160156,65.037109 77.146484,60 72.160156,54.962891 72.125,47.875 65.037109,47.837891 Z m 0,0.5625 4.871094,4.822265 6.855468,0.03516 0.03516,6.853515 L 76.583984,60 l -4.822265,4.871094 -0.0332,6.855468 -6.857422,0.0332 L 60,76.582031 55.128906,71.759766 48.273438,71.724609 48.238281,64.871094 43.416016,60 l 4.822265,-4.873047 0.03516,-6.853515 6.855468,-0.03516 z m 0,3.396484 -3.875,3.833984 -5.451172,0.02734 L 50.646484,56.125 46.8125,60 l 3.833984,3.875 0.02734,5.449219 5.451172,0.0293 L 60,73.1875 63.875,69.353516 69.326172,69.324219 69.353516,63.875 73.1875,60 69.353516,56.125 69.326172,50.673828 63.875,50.646484 Z m 0,0.431641 3.746094,3.708984 5.273437,0.02734 0.02734,5.271484 L 72.755859,60 l -3.708984,3.746094 -0.02539,5.273437 -5.27539,0.02539 L 60,72.753906 56.253906,69.044922 50.980469,69.017578 50.953125,63.746094 47.244141,60 l 3.708984,-3.748047 0.02734,-5.271484 5.273437,-0.02734 z"
       transform="matrix(3.2135576,0,0,3.2135576,-132.81346,-132.81346)" />
  </g>
</svg>
