<?xml version="1.0" encoding="UTF-8" standalone="no"?>
<!-- Created with Inkscape (http://www.inkscape.org/) -->

<svg
   width="120"
   height="120"
   viewBox="0 0 120 120"
   version="1.1"
   id="svg1"
   inkscape:version="1.4 (86a8ad7, 2024-10-11)"
   sodipodi:docname="mand_9.svg"
   xmlns:inkscape="http://www.inkscape.org/namespaces/inkscape"
   xmlns:sodipodi="http://sodipodi.sourceforge.net/DTD/sodipodi-0.dtd"
   xmlns="http://www.w3.org/2000/svg"
   xmlns:svg="http://www.w3.org/2000/svg">
  <sodipodi:namedview
     id="namedview1"
     pagecolor="#ffffff"
     bordercolor="#000000"
     borderopacity="0.25"
     inkscape:showpageshadow="2"
     inkscape:pageopacity="0.0"
     inkscape:pagecheckerboard="0"
     inkscape:deskcolor="#d1d1d1"
     inkscape:document-units="px"
     inkscape:zoom="4.8625"
     inkscape:cx="63.033419"
     inkscape:cy="59.948586"
     inkscape:window-width="3440"
     inkscape:window-height="1369"
     inkscape:window-x="-8"
     inkscape:window-y="-8"
     inkscape:window-maximized="1"
     inkscape:current-layer="layer1" />
  <defs
     id="defs1" />
  <g
     inkscape:label="Layer 1"
     inkscape:groupmode="layer"
     id="layer1">
    <path
       id="path1"
       style="fill:#0000ff;stroke-width:0.0470175"
       d="M 60 0 L 58.40625 1.7011719 L 55.552734 1.84375 L 55.628906 4.1738281 L 53.708984 6.2910156 L 55.412109 7.8847656 L 55.552734 10.738281 L 57.882812 10.662109 L 60 12.582031 L 61.59375 10.878906 L 64.447266 10.738281 L 64.371094 8.4082031 L 66.291016 6.2910156 L 64.589844 4.6972656 L 64.447266 1.84375 L 62.117188 1.9199219 L 60 0 z M 64.447266 10.738281 L 64.525391 13.070312 L 62.605469 15.1875 L 64.308594 16.78125 L 64.447266 19.634766 L 66.779297 19.558594 L 68.896484 21.476562 L 70.490234 19.775391 L 73.34375 19.634766 L 73.267578 17.302734 L 75.185547 15.1875 L 73.484375 13.591797 L 73.34375 10.738281 L 71.013672 10.814453 L 68.896484 8.8964844 L 67.302734 10.597656 L 64.447266 10.738281 z M 64.447266 19.634766 L 62.117188 19.710938 L 60 17.791016 L 58.40625 19.494141 L 55.552734 19.634766 L 55.628906 21.964844 L 53.708984 24.082031 L 55.412109 25.675781 L 55.552734 28.529297 L 57.882812 28.453125 L 60 30.373047 L 61.59375 28.671875 L 64.447266 28.529297 L 64.371094 26.199219 L 66.291016 24.082031 L 64.589844 22.488281 L 64.447266 19.634766 z M 55.552734 19.634766 L 55.476562 17.302734 L 57.394531 15.1875 L 55.693359 13.591797 L 55.552734 10.738281 L 53.220703 10.814453 L 51.103516 8.8964844 L 49.509766 10.597656 L 46.65625 10.738281 L 46.732422 13.070312 L 44.814453 15.1875 L 46.515625 16.78125 L 46.65625 19.634766 L 48.988281 19.558594 L 51.103516 21.476562 L 52.699219 19.775391 L 55.552734 19.634766 z M 97.957031 15.712891 L 96.363281 17.416016 L 93.507812 17.556641 L 93.587891 19.888672 L 91.669922 22.005859 L 93.371094 23.599609 L 93.513672 26.453125 L 95.84375 26.375 L 97.962891 28.292969 L 99.554688 26.589844 L 102.41016 26.449219 L 102.33203 24.119141 L 104.24805 22 L 102.54688 20.40625 L 102.40625 17.552734 L 100.07617 17.628906 L 97.957031 15.712891 z M 97.962891 28.292969 L 96.369141 29.998047 L 93.515625 30.138672 L 93.59375 32.46875 L 91.673828 34.585938 L 93.378906 36.181641 L 93.521484 39.033203 L 95.849609 38.957031 L 97.96875 40.875 L 99.5625 39.169922 L 102.41406 39.029297 L 102.33984 36.699219 L 104.25586 34.580078 L 102.55469 32.988281 L 102.41211 30.134766 L 100.08203 30.210938 L 97.962891 28.292969 z M 91.673828 34.585938 L 89.972656 32.994141 L 89.832031 30.138672 L 87.5 30.216797 L 85.382812 28.300781 L 83.789062 30.001953 L 80.935547 30.142578 L 81.013672 32.474609 L 79.095703 34.591797 L 80.798828 36.185547 L 80.939453 39.041016 L 83.269531 38.962891 L 85.388672 40.878906 L 86.980469 39.175781 L 89.835938 39.035156 L 89.757812 36.705078 L 91.673828 34.585938 z M 85.382812 28.300781 L 86.976562 26.595703 L 89.828125 26.455078 L 89.751953 24.125 L 91.669922 22.005859 L 89.966797 20.412109 L 89.824219 17.558594 L 87.494141 17.636719 L 85.375 15.71875 L 83.78125 17.421875 L 80.927734 17.564453 L 81.005859 19.894531 L 79.087891 22.011719 L 80.791016 23.607422 L 80.933594 26.458984 L 83.263672 26.382812 L 85.382812 28.300781 z M 34.580078 15.744141 L 32.988281 17.445312 L 30.134766 17.587891 L 30.210938 19.917969 L 28.292969 22.037109 L 29.998047 23.630859 L 30.138672 26.484375 L 32.46875 26.40625 L 34.585938 28.326172 L 36.181641 26.621094 L 39.033203 26.478516 L 38.957031 24.150391 L 40.875 22.03125 L 39.169922 20.4375 L 39.029297 17.585938 L 36.699219 17.660156 L 34.580078 15.744141 z M 34.585938 28.326172 L 32.994141 30.027344 L 30.138672 30.167969 L 30.216797 32.5 L 28.300781 34.617188 L 30.001953 36.210938 L 30.142578 39.064453 L 32.474609 38.986328 L 34.591797 40.904297 L 36.185547 39.201172 L 39.041016 39.060547 L 38.962891 36.730469 L 40.878906 34.611328 L 39.175781 33.019531 L 39.035156 30.164062 L 36.705078 30.242188 L 34.585938 28.326172 z M 28.300781 34.617188 L 26.595703 33.023438 L 26.455078 30.171875 L 24.125 30.248047 L 22.005859 28.330078 L 20.412109 30.033203 L 17.558594 30.175781 L 17.636719 32.505859 L 15.71875 34.625 L 17.421875 36.21875 L 17.564453 39.072266 L 19.894531 38.994141 L 22.011719 40.912109 L 23.607422 39.208984 L 26.458984 39.066406 L 26.382812 36.736328 L 28.300781 34.617188 z M 22.005859 28.330078 L 23.599609 26.628906 L 26.453125 26.486328 L 26.375 24.15625 L 28.292969 22.037109 L 26.589844 20.445312 L 26.449219 17.589844 L 24.119141 17.667969 L 22 15.751953 L 20.40625 17.453125 L 17.552734 17.59375 L 17.628906 19.923828 L 15.712891 22.042969 L 17.416016 23.636719 L 17.556641 26.492188 L 19.888672 26.412109 L 22.005859 28.330078 z M 48.998047 32.78125 L 48.585938 33.845703 L 47.318359 34.433594 L 47.779297 35.476562 L 47.296875 36.789062 L 48.363281 37.199219 L 48.949219 38.46875 L 49.992188 38.007812 L 51.304688 38.490234 L 51.714844 37.425781 L 52.984375 36.837891 L 52.521484 35.794922 L 53.005859 34.482422 L 51.941406 34.072266 L 51.353516 32.802734 L 50.310547 33.263672 L 48.998047 32.78125 z M 52.984375 36.837891 L 53.447266 37.880859 L 52.964844 39.193359 L 54.029297 39.603516 L 54.615234 40.873047 L 55.660156 40.412109 L 56.970703 40.892578 L 57.382812 39.830078 L 58.652344 39.242188 L 58.189453 38.199219 L 58.671875 36.886719 L 57.607422 36.474609 L 57.019531 35.207031 L 55.976562 35.667969 L 54.666016 35.1875 L 54.253906 36.25 L 52.984375 36.837891 z M 54.615234 40.873047 L 53.572266 41.335938 L 52.259766 40.851562 L 51.849609 41.917969 L 50.582031 42.503906 L 51.042969 43.546875 L 50.560547 44.859375 L 51.625 45.271484 L 52.210938 46.539062 L 53.255859 46.078125 L 54.568359 46.560547 L 54.978516 45.496094 L 56.246094 44.908203 L 55.785156 43.865234 L 56.267578 42.552734 L 55.203125 42.142578 L 54.615234 40.873047 z M 50.582031 42.503906 L 50.119141 41.460938 L 50.599609 40.150391 L 49.537109 39.738281 L 48.949219 38.46875 L 47.90625 38.931641 L 46.59375 38.449219 L 46.183594 39.513672 L 44.914062 40.101562 L 45.375 41.144531 L 44.894531 42.457031 L 45.958984 42.867188 L 46.544922 44.136719 L 47.589844 43.673828 L 48.900391 44.15625 L 49.3125 43.091797 L 50.582031 42.503906 z M 69.123047 32.958984 L 68.712891 34.023438 L 67.443359 34.609375 L 67.904297 35.652344 L 67.421875 36.964844 L 68.486328 37.376953 L 69.072266 38.646484 L 70.115234 38.183594 L 71.427734 38.666016 L 71.839844 37.603516 L 73.109375 37.017578 L 72.648438 35.972656 L 73.128906 34.662109 L 72.066406 34.25 L 71.478516 32.980469 L 70.435547 33.441406 L 69.123047 32.958984 z M 71.427734 38.666016 L 71.017578 39.732422 L 69.746094 40.318359 L 70.208984 41.361328 L 69.724609 42.673828 L 70.791016 43.085938 L 71.376953 44.353516 L 72.419922 43.892578 L 73.732422 44.375 L 74.144531 43.310547 L 75.412109 42.724609 L 74.951172 41.681641 L 75.433594 40.369141 L 74.371094 39.957031 L 73.783203 38.689453 L 72.740234 39.150391 L 71.427734 38.666016 z M 69.724609 42.673828 L 68.662109 42.261719 L 68.076172 40.992188 L 67.03125 41.453125 L 65.720703 40.970703 L 65.308594 42.035156 L 64.039062 42.621094 L 64.5 43.664062 L 64.017578 44.976562 L 65.082031 45.388672 L 65.667969 46.658203 L 66.710938 46.197266 L 68.023438 46.677734 L 68.435547 45.615234 L 69.705078 45.029297 L 69.244141 43.986328 L 69.724609 42.673828 z M 65.720703 40.970703 L 66.132812 39.90625 L 67.400391 39.320312 L 66.939453 38.277344 L 67.421875 36.964844 L 66.357422 36.552734 L 65.771484 35.285156 L 64.728516 35.746094 L 63.416016 35.263672 L 63.003906 36.328125 L 61.734375 36.914062 L 62.197266 37.957031 L 61.712891 39.269531 L 62.779297 39.681641 L 63.363281 40.949219 L 64.408203 40.488281 L 65.720703 40.970703 z M 40.369141 44.566406 L 39.957031 45.630859 L 38.689453 46.216797 L 39.148438 47.259766 L 38.666016 48.572266 L 39.732422 48.984375 L 40.318359 50.253906 L 41.361328 49.791016 L 42.673828 50.275391 L 43.085938 49.208984 L 44.353516 48.623047 L 43.892578 47.580078 L 44.375 46.267578 L 43.310547 45.855469 L 42.724609 44.587891 L 41.681641 45.048828 L 40.369141 44.566406 z M 42.673828 50.275391 L 42.261719 51.337891 L 40.992188 51.923828 L 41.453125 52.96875 L 40.970703 54.279297 L 42.035156 54.691406 L 42.621094 55.960938 L 43.664062 55.5 L 44.976562 55.982422 L 45.388672 54.917969 L 46.658203 54.332031 L 46.197266 53.289062 L 46.677734 51.976562 L 45.615234 51.564453 L 45.029297 50.294922 L 43.984375 50.757812 L 42.673828 50.275391 z M 40.970703 54.279297 L 39.90625 53.869141 L 39.320312 52.599609 L 38.277344 53.060547 L 36.964844 52.578125 L 36.552734 53.642578 L 35.285156 54.228516 L 35.746094 55.271484 L 35.263672 56.583984 L 36.328125 56.996094 L 36.914062 58.265625 L 37.957031 57.802734 L 39.269531 58.287109 L 39.681641 57.222656 L 40.949219 56.636719 L 40.488281 55.59375 L 40.970703 54.279297 z M 36.964844 52.578125 L 37.376953 51.513672 L 38.646484 50.927734 L 38.183594 49.884766 L 38.666016 48.572266 L 37.603516 48.160156 L 37.017578 46.890625 L 35.972656 47.353516 L 34.662109 46.871094 L 34.25 47.933594 L 32.980469 48.521484 L 33.441406 49.564453 L 32.958984 50.876953 L 34.023438 51.287109 L 34.609375 52.556641 L 35.652344 52.095703 L 36.964844 52.578125 z M 15.185547 44.814453 L 13.591797 46.515625 L 10.738281 46.65625 L 10.814453 48.988281 L 8.8964844 51.103516 L 10.597656 52.699219 L 10.738281 55.552734 L 13.070312 55.476562 L 15.1875 57.394531 L 16.78125 55.693359 L 19.634766 55.552734 L 19.558594 53.220703 L 21.476562 51.103516 L 19.775391 49.509766 L 19.634766 46.65625 L 17.302734 46.732422 L 15.185547 44.814453 z M 19.634766 55.552734 L 19.710938 57.882812 L 17.791016 60 L 19.494141 61.59375 L 19.634766 64.447266 L 21.964844 64.371094 L 24.082031 66.291016 L 25.675781 64.589844 L 28.529297 64.447266 L 28.453125 62.117188 L 30.373047 60 L 28.671875 58.40625 L 28.529297 55.552734 L 26.199219 55.628906 L 24.082031 53.708984 L 22.488281 55.412109 L 19.634766 55.552734 z M 19.634766 64.447266 L 17.302734 64.525391 L 15.1875 62.605469 L 13.591797 64.308594 L 10.738281 64.447266 L 10.814453 66.779297 L 8.8964844 68.896484 L 10.597656 70.490234 L 10.738281 73.34375 L 13.070312 73.267578 L 15.1875 75.185547 L 16.78125 73.484375 L 19.634766 73.34375 L 19.558594 71.013672 L 21.476562 68.896484 L 19.775391 67.302734 L 19.634766 64.447266 z M 10.738281 64.447266 L 10.662109 62.117188 L 12.582031 60 L 10.878906 58.40625 L 10.738281 55.552734 L 8.4082031 55.628906 L 6.2910156 53.708984 L 4.6972656 55.412109 L 1.84375 55.552734 L 1.9199219 57.882812 L 0 60 L 1.703125 61.59375 L 1.84375 64.447266 L 4.1738281 64.371094 L 6.2910156 66.291016 L 7.8847656 64.589844 L 10.738281 64.447266 z M 104.8125 44.814453 L 103.21875 46.515625 L 100.36523 46.65625 L 100.44141 48.988281 L 98.523438 51.103516 L 100.22461 52.699219 L 100.36523 55.552734 L 102.69727 55.476562 L 104.8125 57.394531 L 106.4082 55.693359 L 109.26172 55.552734 L 109.18555 53.220703 L 111.10352 51.103516 L 109.40234 49.509766 L 109.26172 46.65625 L 106.92969 46.732422 L 104.8125 44.814453 z M 109.26172 55.552734 L 109.33789 57.882812 L 107.41797 60 L 109.12109 61.59375 L 109.26172 64.447266 L 111.5918 64.371094 L 113.70898 66.291016 L 115.30273 64.589844 L 118.15625 64.447266 L 118.08008 62.117188 L 120 60 L 118.29883 58.40625 L 118.15625 55.552734 L 115.82617 55.628906 L 113.70898 53.708984 L 112.11523 55.412109 L 109.26172 55.552734 z M 109.26172 64.447266 L 106.92969 64.525391 L 104.8125 62.605469 L 103.21875 64.308594 L 100.36523 64.447266 L 100.44141 66.779297 L 98.523438 68.896484 L 100.22461 70.490234 L 100.36523 73.34375 L 102.69727 73.267578 L 104.8125 75.185547 L 106.4082 73.484375 L 109.26172 73.34375 L 109.18555 71.013672 L 111.10352 68.896484 L 109.40234 67.302734 L 109.26172 64.447266 z M 100.36523 64.447266 L 100.28906 62.117188 L 102.20898 60 L 100.50586 58.40625 L 100.36523 55.552734 L 98.035156 55.628906 L 95.917969 53.708984 L 94.324219 55.412109 L 91.470703 55.552734 L 91.546875 57.882812 L 89.626953 60 L 91.328125 61.59375 L 91.470703 64.447266 L 93.800781 64.371094 L 95.917969 66.291016 L 97.511719 64.589844 L 100.36523 64.447266 z M 77.542969 44.894531 L 77.132812 45.958984 L 75.863281 46.544922 L 76.326172 47.589844 L 75.84375 48.900391 L 76.908203 49.3125 L 77.496094 50.582031 L 78.539062 50.119141 L 79.849609 50.599609 L 80.261719 49.537109 L 81.53125 48.949219 L 81.068359 47.90625 L 81.550781 46.59375 L 80.486328 46.183594 L 79.898438 44.914062 L 78.855469 45.375 L 77.542969 44.894531 z M 81.53125 48.949219 L 81.992188 49.992188 L 81.509766 51.304688 L 82.574219 51.714844 L 83.162109 52.984375 L 84.205078 52.521484 L 85.517578 53.005859 L 85.927734 51.941406 L 87.197266 51.353516 L 86.736328 50.310547 L 87.21875 48.998047 L 86.154297 48.585938 L 85.566406 47.318359 L 84.523438 47.779297 L 83.210938 47.296875 L 82.800781 48.363281 L 81.53125 48.949219 z M 83.162109 52.984375 L 82.119141 53.447266 L 80.806641 52.964844 L 80.396484 54.029297 L 79.126953 54.615234 L 79.587891 55.660156 L 79.107422 56.970703 L 80.169922 57.382812 L 80.757812 58.652344 L 81.800781 58.189453 L 83.113281 58.671875 L 83.525391 57.607422 L 84.792969 57.019531 L 84.332031 55.976562 L 84.8125 54.666016 L 83.75 54.253906 L 83.162109 52.984375 z M 79.126953 54.615234 L 78.664062 53.572266 L 79.148438 52.259766 L 78.082031 51.849609 L 77.496094 50.582031 L 76.453125 51.042969 L 75.140625 50.560547 L 74.728516 51.625 L 73.460938 52.210938 L 73.921875 53.255859 L 73.439453 54.568359 L 74.503906 54.978516 L 75.091797 56.246094 L 76.134766 55.785156 L 77.447266 56.267578 L 77.857422 55.203125 L 79.126953 54.615234 z M 36.886719 61.330078 L 36.474609 62.392578 L 35.207031 62.980469 L 35.667969 64.023438 L 35.1875 65.333984 L 36.25 65.748047 L 36.837891 67.015625 L 37.882812 66.554688 L 39.193359 67.035156 L 39.605469 65.970703 L 40.873047 65.384766 L 40.412109 64.339844 L 40.892578 63.029297 L 39.830078 62.617188 L 39.242188 61.347656 L 38.199219 61.810547 L 36.886719 61.330078 z M 40.873047 65.384766 L 41.335938 66.427734 L 40.851562 67.740234 L 41.917969 68.150391 L 42.503906 69.417969 L 43.546875 68.957031 L 44.859375 69.439453 L 45.271484 68.376953 L 46.539062 67.789062 L 46.078125 66.744141 L 46.560547 65.431641 L 45.496094 65.021484 L 44.908203 63.753906 L 43.865234 64.214844 L 42.552734 63.732422 L 42.142578 64.796875 L 40.873047 65.384766 z M 42.503906 69.417969 L 41.460938 69.882812 L 40.150391 69.400391 L 39.738281 70.464844 L 38.46875 71.050781 L 38.931641 72.09375 L 38.449219 73.40625 L 39.513672 73.816406 L 40.101562 75.085938 L 41.144531 74.625 L 42.457031 75.105469 L 42.867188 74.041016 L 44.136719 73.455078 L 43.673828 72.412109 L 44.15625 71.099609 L 43.091797 70.689453 L 42.503906 69.417969 z M 38.46875 71.050781 L 38.007812 70.007812 L 38.490234 68.695312 L 37.425781 68.285156 L 36.837891 67.015625 L 35.794922 67.478516 L 34.482422 66.994141 L 34.072266 68.058594 L 32.802734 68.646484 L 33.263672 69.689453 L 32.78125 71.001953 L 33.847656 71.412109 L 34.433594 72.681641 L 35.476562 72.220703 L 36.789062 72.703125 L 37.201172 71.638672 L 38.46875 71.050781 z M 80.730469 61.712891 L 80.318359 62.779297 L 79.050781 63.363281 L 79.511719 64.408203 L 79.029297 65.720703 L 80.09375 66.132812 L 80.679688 67.400391 L 81.722656 66.939453 L 83.035156 67.421875 L 83.447266 66.357422 L 84.714844 65.771484 L 84.253906 64.728516 L 84.736328 63.416016 L 83.671875 63.003906 L 83.085938 61.734375 L 82.042969 62.197266 L 80.730469 61.712891 z M 83.035156 67.421875 L 82.623047 68.486328 L 81.353516 69.072266 L 81.816406 70.115234 L 81.333984 71.427734 L 82.396484 71.839844 L 82.982422 73.109375 L 84.027344 72.648438 L 85.337891 73.128906 L 85.75 72.066406 L 87.019531 71.478516 L 86.558594 70.435547 L 87.041016 69.123047 L 85.976562 68.712891 L 85.390625 67.443359 L 84.347656 67.904297 L 83.035156 67.421875 z M 81.333984 71.427734 L 80.267578 71.017578 L 79.681641 69.746094 L 78.638672 70.208984 L 77.326172 69.724609 L 76.914062 70.791016 L 75.646484 71.376953 L 76.107422 72.419922 L 75.625 73.732422 L 76.689453 74.144531 L 77.275391 75.412109 L 78.318359 74.951172 L 79.630859 75.433594 L 80.042969 74.371094 L 81.310547 73.783203 L 80.849609 72.740234 L 81.333984 71.427734 z M 77.326172 69.724609 L 77.738281 68.662109 L 79.007812 68.076172 L 78.546875 67.03125 L 79.029297 65.720703 L 77.964844 65.308594 L 77.378906 64.039062 L 76.335938 64.5 L 75.023438 64.017578 L 74.611328 65.082031 L 73.341797 65.667969 L 73.802734 66.710938 L 73.322266 68.023438 L 74.384766 68.435547 L 74.970703 69.705078 L 76.013672 69.244141 L 77.326172 69.724609 z M 51.976562 73.322266 L 51.564453 74.384766 L 50.294922 74.970703 L 50.757812 76.015625 L 50.275391 77.326172 L 51.337891 77.738281 L 51.923828 79.007812 L 52.96875 78.546875 L 54.279297 79.029297 L 54.691406 77.964844 L 55.960938 77.378906 L 55.5 76.335938 L 55.982422 75.023438 L 54.917969 74.611328 L 54.332031 73.341797 L 53.289062 73.802734 L 51.976562 73.322266 z M 54.279297 79.029297 L 53.869141 80.09375 L 52.599609 80.679688 L 53.060547 81.722656 L 52.578125 83.035156 L 53.642578 83.447266 L 54.228516 84.714844 L 55.271484 84.253906 L 56.583984 84.736328 L 56.996094 83.671875 L 58.265625 83.085938 L 57.804688 82.042969 L 58.287109 80.730469 L 57.222656 80.318359 L 56.636719 79.050781 L 55.591797 79.511719 L 54.279297 79.029297 z M 52.578125 83.035156 L 51.513672 82.623047 L 50.927734 81.353516 L 49.884766 81.816406 L 48.572266 81.333984 L 48.160156 82.396484 L 46.890625 82.982422 L 47.353516 84.027344 L 46.871094 85.337891 L 47.933594 85.75 L 48.521484 87.019531 L 49.564453 86.558594 L 50.876953 87.041016 L 51.287109 85.976562 L 52.556641 85.390625 L 52.095703 84.347656 L 52.578125 83.035156 z M 48.572266 81.333984 L 48.984375 80.267578 L 50.253906 79.681641 L 49.791016 78.638672 L 50.275391 77.326172 L 49.208984 76.916016 L 48.623047 75.646484 L 47.580078 76.107422 L 46.267578 75.625 L 45.855469 76.689453 L 44.587891 77.275391 L 45.048828 78.318359 L 44.566406 79.630859 L 45.630859 80.042969 L 46.216797 81.310547 L 47.259766 80.851562 L 48.572266 81.333984 z M 65.431641 73.439453 L 65.021484 74.503906 L 63.753906 75.091797 L 64.214844 76.134766 L 63.732422 77.447266 L 64.796875 77.857422 L 65.384766 79.126953 L 66.427734 78.664062 L 67.740234 79.148438 L 68.150391 78.082031 L 69.417969 77.496094 L 68.957031 76.453125 L 69.439453 75.140625 L 68.376953 74.728516 L 67.789062 73.460938 L 66.744141 73.921875 L 65.431641 73.439453 z M 69.417969 77.496094 L 69.882812 78.539062 L 69.400391 79.849609 L 70.464844 80.261719 L 71.050781 81.53125 L 72.09375 81.068359 L 73.40625 81.550781 L 73.816406 80.486328 L 75.085938 79.898438 L 74.625 78.855469 L 75.105469 77.542969 L 74.041016 77.132812 L 73.455078 75.863281 L 72.412109 76.326172 L 71.099609 75.84375 L 70.689453 76.908203 L 69.417969 77.496094 z M 71.050781 81.53125 L 70.007812 81.992188 L 68.695312 81.509766 L 68.285156 82.574219 L 67.015625 83.162109 L 67.478516 84.205078 L 66.994141 85.517578 L 68.058594 85.927734 L 68.646484 87.197266 L 69.689453 86.736328 L 71.001953 87.21875 L 71.412109 86.152344 L 72.681641 85.566406 L 72.220703 84.523438 L 72.703125 83.210938 L 71.638672 82.798828 L 71.050781 81.53125 z M 67.015625 83.162109 L 66.554688 82.117188 L 67.035156 80.806641 L 65.970703 80.394531 L 65.384766 79.126953 L 64.339844 79.587891 L 63.029297 79.107422 L 62.617188 80.169922 L 61.347656 80.757812 L 61.810547 81.800781 L 61.330078 83.113281 L 62.392578 83.525391 L 62.980469 84.792969 L 64.023438 84.332031 L 65.333984 84.8125 L 65.748047 83.75 L 67.015625 83.162109 z M 97.988281 79.087891 L 96.394531 80.791016 L 93.541016 80.933594 L 93.619141 83.261719 L 91.699219 85.382812 L 93.404297 86.974609 L 93.544922 89.828125 L 95.876953 89.751953 L 97.994141 91.669922 L 99.587891 89.966797 L 102.44141 89.824219 L 102.36328 87.494141 L 104.28125 85.375 L 102.57812 83.78125 L 102.43555 80.927734 L 100.10547 81.005859 L 97.988281 79.087891 z M 97.994141 91.669922 L 96.400391 93.371094 L 93.546875 93.513672 L 93.625 95.84375 L 91.707031 97.962891 L 93.410156 99.554688 L 93.550781 102.41016 L 95.880859 102.33203 L 98 104.24805 L 99.59375 102.54688 L 102.44727 102.40625 L 102.36914 100.07422 L 104.28711 97.955078 L 102.58398 96.363281 L 102.44336 93.507812 L 100.11328 93.585938 L 97.994141 91.669922 z M 91.707031 97.962891 L 90.003906 96.367188 L 89.861328 93.515625 L 87.53125 93.591797 L 85.414062 91.673828 L 83.818359 93.378906 L 80.966797 93.521484 L 81.042969 95.849609 L 79.125 97.96875 L 80.830078 99.5625 L 80.972656 102.41602 L 83.300781 102.33984 L 85.419922 104.25586 L 87.013672 102.55273 L 89.865234 102.41211 L 89.791016 100.08008 L 91.707031 97.962891 z M 85.414062 91.673828 L 87.005859 89.972656 L 89.861328 89.832031 L 89.783203 87.5 L 91.699219 85.382812 L 89.998047 83.789062 L 89.857422 80.935547 L 87.527344 81.011719 L 85.408203 79.095703 L 83.814453 80.798828 L 80.958984 80.939453 L 81.037109 83.269531 L 79.121094 85.388672 L 80.824219 86.980469 L 80.964844 89.835938 L 83.294922 89.757812 L 85.414062 91.673828 z M 34.611328 79.121094 L 33.019531 80.824219 L 30.164062 80.964844 L 30.242188 83.294922 L 28.326172 85.414062 L 30.027344 87.005859 L 30.167969 89.861328 L 32.5 89.783203 L 34.617188 91.699219 L 36.210938 89.998047 L 39.064453 89.857422 L 38.988281 87.527344 L 40.904297 85.408203 L 39.201172 83.814453 L 39.060547 80.958984 L 36.730469 81.037109 L 34.611328 79.121094 z M 34.617188 91.699219 L 33.025391 93.404297 L 30.171875 93.544922 L 30.248047 95.876953 L 28.330078 97.994141 L 30.033203 99.587891 L 30.175781 102.44141 L 32.505859 102.36328 L 34.625 104.28125 L 36.21875 102.57812 L 39.072266 102.43555 L 38.994141 100.10547 L 40.912109 97.988281 L 39.208984 96.394531 L 39.066406 93.541016 L 36.738281 93.619141 L 34.617188 91.699219 z M 28.330078 97.994141 L 26.628906 96.400391 L 26.486328 93.546875 L 24.15625 93.625 L 22.037109 91.707031 L 20.445312 93.410156 L 17.589844 93.550781 L 17.667969 95.880859 L 15.751953 98 L 17.453125 99.59375 L 17.59375 102.44727 L 19.925781 102.36914 L 22.044922 104.28711 L 23.636719 102.58398 L 26.492188 102.44336 L 26.414062 100.11328 L 28.330078 97.994141 z M 22.037109 91.707031 L 23.632812 90.003906 L 26.484375 89.861328 L 26.408203 87.53125 L 28.326172 85.414062 L 26.621094 83.818359 L 26.478516 80.966797 L 24.150391 81.042969 L 22.03125 79.125 L 20.4375 80.830078 L 17.583984 80.972656 L 17.660156 83.300781 L 15.744141 85.419922 L 17.447266 87.013672 L 17.587891 89.865234 L 19.919922 89.791016 L 22.037109 91.707031 z M 60 89.626953 L 58.40625 91.328125 L 55.552734 91.470703 L 55.628906 93.800781 L 53.708984 95.917969 L 55.412109 97.511719 L 55.552734 100.36523 L 57.882812 100.28906 L 60 102.20898 L 61.59375 100.50586 L 64.447266 100.36523 L 64.371094 98.035156 L 66.291016 95.917969 L 64.589844 94.324219 L 64.447266 91.470703 L 62.117188 91.546875 L 60 89.626953 z M 64.447266 100.36523 L 64.525391 102.69727 L 62.605469 104.8125 L 64.308594 106.4082 L 64.447266 109.26172 L 66.779297 109.18555 L 68.896484 111.10352 L 70.490234 109.40234 L 73.34375 109.26172 L 73.267578 106.92969 L 75.185547 104.8125 L 73.484375 103.21875 L 73.34375 100.36523 L 71.013672 100.44141 L 68.896484 98.523438 L 67.302734 100.22461 L 64.447266 100.36523 z M 64.447266 109.26172 L 62.117188 109.33789 L 60 107.41797 L 58.40625 109.12109 L 55.552734 109.26172 L 55.628906 111.5918 L 53.708984 113.70898 L 55.412109 115.30273 L 55.552734 118.15625 L 57.882812 118.08008 L 60 120 L 61.59375 118.29688 L 64.447266 118.15625 L 64.371094 115.82617 L 66.291016 113.70898 L 64.589844 112.11523 L 64.447266 109.26172 z M 55.552734 109.26172 L 55.476562 106.92969 L 57.394531 104.8125 L 55.693359 103.21875 L 55.552734 100.36523 L 53.220703 100.44141 L 51.103516 98.523438 L 49.509766 100.22461 L 46.65625 100.36523 L 46.732422 102.69727 L 44.814453 104.81445 L 46.515625 106.4082 L 46.65625 109.26172 L 48.988281 109.18555 L 51.103516 111.10352 L 52.699219 109.40234 L 55.552734 109.26172 z " />
  </g>
</svg>
