<?xml version="1.0" encoding="UTF-8" standalone="no"?>
<!-- Created with Inkscape (http://www.inkscape.org/) -->

<svg
   width="120"
   height="120"
   viewBox="0 0 120 120"
   version="1.1"
   id="svg1"
   inkscape:version="1.4 (86a8ad7, 2024-10-11)"
   sodipodi:docname="mand_23.svg"
   xmlns:inkscape="http://www.inkscape.org/namespaces/inkscape"
   xmlns:sodipodi="http://sodipodi.sourceforge.net/DTD/sodipodi-0.dtd"
   xmlns="http://www.w3.org/2000/svg"
   xmlns:svg="http://www.w3.org/2000/svg">
  <sodipodi:namedview
     id="namedview1"
     pagecolor="#ffffff"
     bordercolor="#000000"
     borderopacity="0.25"
     inkscape:showpageshadow="2"
     inkscape:pageopacity="0.0"
     inkscape:pagecheckerboard="0"
     inkscape:deskcolor="#d1d1d1"
     inkscape:document-units="px"
     inkscape:zoom="6.8766134"
     inkscape:cx="59.985922"
     inkscape:cy="59.985922"
     inkscape:window-width="3440"
     inkscape:window-height="1369"
     inkscape:window-x="-8"
     inkscape:window-y="-8"
     inkscape:window-maximized="1"
     inkscape:current-layer="layer1" />
  <defs
     id="defs1">
    <inkscape:path-effect
       effect="copy_rotate"
       starting_point="0,0"
       origin="32.717831,35.337162"
       id="path-effect1"
       is_visible="true"
       lpeversion="1.2"
       lpesatellites=""
       method="normal"
       num_copies="9"
       starting_angle="0"
       rotation_angle="40"
       gap="-0.01"
       copies_to_360="true"
       mirror_copies="false"
       split_items="false"
       link_styles="false" />
  </defs>
  <g
     inkscape:label="Layer 1"
     inkscape:groupmode="layer"
     id="layer1">
    <path
       sodipodi:type="star"
       style="fill:none;stroke:#0000ff;stroke-width:0.4"
       id="path1"
       inkscape:flatsided="false"
       sodipodi:sides="8"
       sodipodi:cx="56.713963"
       sodipodi:cy="35.337162"
       sodipodi:r1="23.996132"
       sodipodi:r2="19.772049"
       sodipodi:arg1="0.78539816"
       sodipodi:arg2="1.2062467"
       inkscape:rounded="0"
       inkscape:randomized="0"
       d="m 73.68179,52.30499 -9.918527,1.504889 -7.0493,5.523415 -8.077576,-5.94934 -8.890252,-1.078964 -1.50489,-9.918528 -5.523414,-7.0493 5.94934,-8.077576 1.078964,-8.890252 9.918528,-1.504889 7.049299,-5.523415 8.077576,5.94934 8.890252,1.078964 1.50489,9.918528 5.523414,7.0493 -5.94934,8.077576 z m 1.322964,-30.300843 -6.630709,7.528319 -1.849694,8.762383 -10.011945,0.634707 -7.503872,4.888009 -7.52832,-6.630708 -8.762383,-1.849695 -0.634707,-10.011944 -4.888009,-7.503873 6.630708,-7.528319 1.849695,-8.7623835 10.011944,-0.63470666 7.503873,-4.88800924 7.528319,6.6307084 8.762384,1.8496946 0.634706,10.0119444 z M 56.541196,-2.0580303 56.300889,7.971134 60.516292,15.87247 53.254679,22.794237 50.648331,31.362066 40.619167,31.121759 32.717831,35.337162 25.796064,28.07555 17.228235,25.469201 17.468542,15.440037 13.253139,7.5387011 20.514752,0.61693375 23.1211,-7.9508948 l 10.029164,0.240307 7.901336,-4.2154032 6.921767,7.2616127 z m -29.610775,-6.5645508 6.262537,7.83725196 8.308067,3.34316564 -1.113492,9.9700565 3.510716,8.238665 -7.837252,6.262537 -3.343166,8.308067 L 22.747775,34.22367 14.509109,37.734386 8.2465727,29.897134 -0.06149454,26.553968 1.0519973,16.583912 -2.4587183,8.3452466 5.3785336,2.0827099 8.7216992,-6.2253573 18.691755,-5.1118655 Z M 0.02763963,5.3821205 9.8627095,7.3603228 18.376004,4.5810135 l 5.555644,8.3532445 7.985076,4.05454 -1.978202,9.83507 2.779309,8.513294 -8.353245,5.555644 -4.054539,7.985077 -9.83507,-1.978203 -8.5132941,2.77931 -5.5556444,-8.353245 -7.9850765,-4.05454 1.9782024,-9.83507 -2.7793094,-8.513294 8.353245,-5.555644 z M -11.579038,33.403119 l 8.8056646,-4.80647 4.7350561,-7.601315 9.6252323,2.827858 8.723132,-2.026751 4.80647,8.805665 7.601314,4.735056 -2.827857,9.625233 2.02675,8.723131 -8.805664,4.80647 -4.735056,7.601314 -9.625233,-2.827857 -8.72313123,2.026751 -4.80647017,-8.805665 -7.6013146,-4.735056 2.8278577,-9.625233 z m 9.1203197,28.925959 3.6559909,-9.342142 -1.25876725,-8.86658 9.19106785,-4.020716 5.3795358,-7.159702 9.342142,3.655991 8.86658,-1.258767 4.020716,9.191067 7.159702,5.379536 -3.655991,9.342142 1.258767,8.86658 -9.191068,4.020716 -5.379536,7.159702 -9.342142,-3.655991 -8.8665797,1.258767 -4.0207158,-9.191067 z M 23.1211,78.625219 l -3.204362,-9.506522 -6.663599,-5.983074 4.4563,-8.987952 -0.481204,-8.942548 9.506521,-3.204362 5.983075,-6.663599 8.987951,4.4563 8.942549,-0.481204 3.204362,9.506521 6.663599,5.983075 -4.4563,8.987951 0.481204,8.942549 -9.506521,3.204362 -5.983075,6.663599 -8.987951,-4.4563 z m 30.070235,-3.958822 -8.565358,-5.222694 -8.950459,-0.300021 -2.36362,-9.749625 -6.116783,-6.541078 5.222694,-8.565358 0.300022,-8.950459 9.749625,-2.36362 6.541077,-6.116783 8.565358,5.222694 8.950459,0.300022 2.36362,9.749624 6.116784,6.541078 -5.222695,8.565358 -0.300021,8.950459 -9.749625,2.36362 z"
       transform="matrix(1.1829888,0,0,1.1829888,19.575016,18.197302)"
       inkscape:path-effect="#path-effect1" />
  </g>
</svg>
