<?xml version="1.0" encoding="UTF-8" standalone="no"?>
<!-- Created with Inkscape (http://www.inkscape.org/) -->

<svg
   width="256mm"
   height="256mm"
   viewBox="0 0 256 256"
   version="1.1"
   id="svg1"
   inkscape:version="1.4 (86a8ad7, 2024-10-11)"
   sodipodi:docname="mand_2.svg"
   xmlns:inkscape="http://www.inkscape.org/namespaces/inkscape"
   xmlns:sodipodi="http://sodipodi.sourceforge.net/DTD/sodipodi-0.dtd"
   xmlns="http://www.w3.org/2000/svg"
   xmlns:svg="http://www.w3.org/2000/svg">
  <sodipodi:namedview
     id="namedview1"
     pagecolor="#ffffff"
     bordercolor="#000000"
     borderopacity="0.25"
     inkscape:showpageshadow="2"
     inkscape:pageopacity="0.0"
     inkscape:pagecheckerboard="0"
     inkscape:deskcolor="#d1d1d1"
     inkscape:document-units="mm"
     inkscape:zoom="0.65477694"
     inkscape:cx="598.67717"
     inkscape:cy="387.15475"
     inkscape:window-width="1920"
     inkscape:window-height="974"
     inkscape:window-x="-11"
     inkscape:window-y="-11"
     inkscape:window-maximized="1"
     inkscape:current-layer="layer1" />
  <defs
     id="defs1" />
  <g
     inkscape:label="Layer 1"
     inkscape:groupmode="layer"
     id="layer1">
    <path
       id="rect1"
       style="stroke-width:1.17643;stroke-linejoin:bevel"
       d="M 128.10639 13.905094 L 119.90534 14.194482 L 91.677608 44.473254 L 50.276518 44.473254 L 44.474805 50.277551 L 44.474805 95.10634 L 13.906128 127.89607 L 14.193449 136.09557 L 44.474805 164.32537 L 44.474805 205.72491 L 50.276518 211.52662 L 95.105823 211.52662 L 127.89504 242.09478 L 136.09505 241.80746 L 164.32485 211.52662 L 205.72388 211.52662 L 211.52559 205.72491 L 211.52559 160.89561 L 242.09427 128.10588 L 241.80798 119.90431 L 211.52559 91.673474 L 211.52559 50.277551 L 205.72388 44.473254 L 160.89561 44.473254 L 128.10639 13.905094 z M 124.43633 26.35033 L 143.87597 44.473254 L 107.54124 44.473254 L 124.43633 26.35033 z M 56.078231 56.079264 L 80.858114 56.079264 L 56.078231 82.659554 L 56.078231 56.079264 z M 96.721228 56.079264 L 156.32534 56.079264 L 199.92216 96.722778 L 199.92216 156.32586 L 159.2802 199.92061 L 99.67557 199.92061 L 56.078231 159.27658 L 56.078231 99.67557 L 96.721228 56.079264 z M 173.34497 56.079264 L 199.92216 56.079264 L 199.92216 80.856047 L 173.34497 56.079264 z M 211.52559 107.54021 L 229.65058 124.43737 L 211.52559 143.87907 L 211.52559 107.54021 z M 44.474805 112.12236 L 44.474805 148.45916 L 26.350846 131.56303 L 44.474805 112.12236 z M 199.92216 173.34239 L 199.92216 199.92061 L 175.14435 199.92061 L 199.92216 173.34239 z M 56.078231 175.1428 L 82.656453 199.92061 L 56.078231 199.92061 L 56.078231 175.1428 z M 112.12546 211.52662 L 148.46019 211.52662 L 131.5651 229.64955 L 112.12546 211.52662 z " />
    <path
       id="path1"
       style="stroke-width:1.17643;stroke-linejoin:bevel;fill:#0000ff"
       d="M 128.10639 13.905094 L 119.90534 14.194482 L 91.677608 44.473254 L 50.276518 44.473254 L 44.474805 50.277551 L 44.474805 95.10634 L 13.906128 127.89607 L 14.193449 136.09557 L 44.474805 164.32537 L 44.474805 205.72491 L 50.276518 211.52662 L 95.105823 211.52662 L 127.89504 242.09478 L 136.09505 241.80746 L 164.32485 211.52662 L 205.72388 211.52662 L 211.52559 205.72491 L 211.52559 160.89561 L 242.09427 128.10588 L 241.80798 119.90431 L 211.52559 91.673474 L 211.52559 50.277551 L 205.72388 44.473254 L 160.89561 44.473254 L 128.10639 13.905094 z M 124.43633 26.35033 L 143.87597 44.473254 L 107.54124 44.473254 L 124.43633 26.35033 z M 56.078231 56.079264 L 80.858114 56.079264 L 56.078231 82.659554 L 56.078231 56.079264 z M 96.721228 56.079264 L 156.32534 56.079264 L 199.92216 96.722778 L 199.92216 156.32586 L 159.2802 199.92061 L 99.67557 199.92061 L 56.078231 159.27658 L 56.078231 99.67557 L 96.721228 56.079264 z M 173.34497 56.079264 L 199.92216 56.079264 L 199.92216 80.856047 L 173.34497 56.079264 z M 211.52559 107.54021 L 229.65058 124.43737 L 211.52559 143.87907 L 211.52559 107.54021 z M 44.474805 112.12236 L 44.474805 148.45916 L 26.350846 131.56303 L 44.474805 112.12236 z M 199.92216 173.34239 L 199.92216 199.92061 L 175.14435 199.92061 L 199.92216 173.34239 z M 56.078231 175.1428 L 82.656453 199.92061 L 56.078231 199.92061 L 56.078231 175.1428 z M 112.12546 211.52662 L 148.46019 211.52662 L 131.5651 229.64955 L 112.12546 211.52662 z " />
  </g>
  


</svg>
