<?xml version="1.0" encoding="UTF-8" standalone="no"?>
<!-- Created with Inkscape (http://www.inkscape.org/) -->

<svg
   width="120"
   height="120"
   viewBox="0 0 120 120"
   version="1.1"
   id="svg1"
   inkscape:version="1.4 (86a8ad7, 2024-10-11)"
   sodipodi:docname="mand_10.svg"
   xmlns:inkscape="http://www.inkscape.org/namespaces/inkscape"
   xmlns:sodipodi="http://sodipodi.sourceforge.net/DTD/sodipodi-0.dtd"
   xmlns="http://www.w3.org/2000/svg"
   xmlns:svg="http://www.w3.org/2000/svg">
  <sodipodi:namedview
     id="namedview1"
     pagecolor="#ffffff"
     bordercolor="#000000"
     borderopacity="0.25"
     inkscape:showpageshadow="2"
     inkscape:pageopacity="0.0"
     inkscape:pagecheckerboard="0"
     inkscape:deskcolor="#d1d1d1"
     inkscape:document-units="px"
     inkscape:zoom="6.8766134"
     inkscape:cx="60.276763"
     inkscape:cy="60.276763"
     inkscape:window-width="3440"
     inkscape:window-height="1369"
     inkscape:window-x="-8"
     inkscape:window-y="-8"
     inkscape:window-maximized="1"
     inkscape:current-layer="layer1" />
  <defs
     id="defs1">
    <inkscape:path-effect
       effect="copy_rotate"
       starting_point="0,0"
       origin="17.933001,9.2502146"
       id="path-effect1"
       is_visible="true"
       lpeversion="1.2"
       lpesatellites=""
       method="normal"
       num_copies="20"
       starting_angle="0"
       rotation_angle="18"
       gap="-0.01"
       copies_to_360="true"
       mirror_copies="false"
       split_items="false"
       link_styles="false" />
  </defs>
  <g
     inkscape:label="Layer 1"
     inkscape:groupmode="layer"
     id="layer1">
    <g
       id="g2"
       transform="matrix(5.9344107,0,0,5.9344107,-46.421793,5.1054275)">
      <path
         sodipodi:type="star"
         style="fill:none;stroke:#0000ff;stroke-width:0.264583"
         id="path1"
         inkscape:flatsided="false"
         sodipodi:sides="8"
         sodipodi:cx="22.146103"
         sodipodi:cy="9.2502146"
         sodipodi:r1="4.2134972"
         sodipodi:r2="3.3215115"
         sodipodi:arg1="0.79909594"
         sodipodi:arg2="1.191795"
         inkscape:rounded="0"
         inkscape:randomized="0"
         d="m 25.084406,12.270137 -1.709368,0.06588 -1.286649,1.127302 -1.255287,-1.162123 -1.706922,-0.112675 -0.06588,-1.709368 -1.127303,-1.2866492 1.162124,-1.2552871 0.112675,-1.7069218 1.709367,-0.065876 1.28665,-1.1273028 1.255287,1.1621238 1.706922,0.1126749 0.06588,1.7093677 1.127303,1.2866492 -1.162124,1.2552867 z m 0.583193,-2.357711 -1.605348,0.590876 -0.875321,1.469725 -1.552965,-0.71734 -1.658198,0.420307 -0.590875,-1.605348 -1.469726,-0.8753205 0.717341,-1.5529649 -0.420308,-1.6581977 1.605349,-0.5908758 0.87532,-1.4697251 1.552965,0.7173403 1.658198,-0.4203076 0.590875,1.6053483 1.469726,0.8753204 -0.717341,1.552965 z M 25.493675,7.4898929 24.149489,8.5479292 23.77118,10.21621 22.072552,10.013871 20.625395,10.926019 19.567358,9.5818323 17.899078,9.2035232 18.101416,7.5048954 17.189269,6.0577379 l 1.344186,-1.0580362 0.378309,-1.6682806 1.698628,0.2023386 1.447158,-0.9121475 1.058036,1.3441863 1.66828,0.3783092 -0.202338,1.6986278 z M 24.57966,5.2396724 23.628214,6.661301 23.783948,8.3648341 22.105931,8.6973035 21.011471,10.012004 19.589843,9.0605576 17.88631,9.2162913 17.55384,7.5382742 16.23914,6.4438147 17.190586,5.0221861 17.034852,3.318653 18.71287,2.9861836 19.807329,1.6714835 21.228958,2.6229294 22.932491,2.4671958 23.26496,4.1452129 Z M 23.015024,3.3820317 22.549452,5.0280938 23.223985,6.6001257 21.730834,7.4348587 21.096206,9.0234193 19.450144,8.5578479 17.878112,9.23238 17.043379,7.7392296 15.454818,7.1046015 15.92039,5.4585393 15.245858,3.8865075 l 1.49315,-0.834733 0.634628,-1.5885607 1.646062,0.4655715 1.572032,-0.6745322 0.834733,1.4931504 z m -2.0621,-1.2832221 0.06588,1.7093676 1.127303,1.2866492 -1.162124,1.2552871 -0.112675,1.7069219 -1.709368,0.065876 L 17.875287,9.2502146 16.62,8.0880908 14.913078,7.9754158 14.847202,6.2660482 13.719899,4.979399 14.882023,3.7241119 14.994698,2.01719 l 1.709367,-0.065876 1.28665,-1.12730279 1.255287,1.16212379 z m -2.357712,-0.5831928 0.590876,1.6053483 1.469725,0.8753204 -0.71734,1.552965 0.420308,1.6581976 L 18.753432,7.798324 17.878112,9.2680491 16.325147,8.5507088 14.666949,8.9710164 14.076073,7.3656681 12.606348,6.4903476 13.323689,4.9373827 12.903381,3.279185 14.508729,2.6883092 15.38405,1.2185841 16.937015,1.9359244 Z m -2.422533,0.1739236 1.058037,1.3441862 1.66828,0.3783092 -0.202339,1.6986278 0.912148,1.4471575 L 18.264619,7.6158573 17.88631,9.2841379 16.187682,9.0817993 14.740524,9.9939468 13.682488,8.6497605 12.014208,8.2714513 12.216546,6.5728235 11.304399,5.125666 12.648585,4.0676298 13.026894,2.3993493 14.725522,2.6016879 Z m -2.25022,0.914015 1.421628,0.951446 1.703533,-0.1557337 0.33247,1.6780171 1.3147,1.0944595 -0.951446,1.4216286 0.155734,1.7035331 -1.678017,0.3324694 -1.09446,1.3146996 L 13.704972,9.9926296 12.001439,10.148363 11.66897,8.4703461 10.35427,7.3758866 11.305716,5.954258 11.149982,4.2507249 12.827999,3.9182555 Z m -1.857641,1.5646364 1.646062,0.4655714 1.572032,-0.6745321 0.834733,1.4931504 1.588561,0.6346281 -0.465572,1.6460622 0.674532,1.5720318 -1.49315,0.8347334 -0.634628,1.58856 -1.646062,-0.465571 -1.572032,0.674532 -0.834733,-1.49315 L 10.146,9.8095794 10.611572,8.1635173 9.9370395,6.5914854 11.43019,5.7567524 Z m -1.283222,2.0621001 1.709368,-0.065876 1.286649,-1.1273028 1.255287,1.1621238 1.706922,0.112675 0.06588,1.7093676 1.127303,1.2866493 -1.162124,1.2552866 -0.112675,1.706922 -1.709367,0.06588 -1.28665,1.127303 L 12.406898,12.301193 10.699976,12.188518 10.6341,10.47915 9.5067972,9.1925009 10.668921,7.9372138 Z m -0.583193,2.3577113 1.605348,-0.5908759 0.875321,-1.4697251 1.552965,0.7173403 1.658198,-0.4203076 0.590875,1.6053483 1.469726,0.8753205 -0.717341,1.5529653 0.420308,1.658197 -1.605349,0.590876 -0.87532,1.469725 -1.552965,-0.71734 -1.658198,0.420307 -0.590875,-1.605348 -1.4697255,-0.87532 0.7173405,-1.552965 z m 0.173924,2.4225328 1.344186,-1.058036 0.378309,-1.6682805 1.698628,0.2023386 1.447157,-0.9121475 1.058037,1.3441863 1.66828,0.3783091 -0.202338,1.698628 0.912147,1.447157 -1.344186,1.058037 -0.378309,1.66828 -1.698628,-0.202339 -1.447158,0.912148 -1.058036,-1.344186 -1.66828,-0.378309 0.202338,-1.698628 z m 0.914015,2.250221 0.951446,-1.421629 -0.155734,-1.703533 1.678017,-0.3324693 1.09446,-1.3147001 1.421628,0.951446 1.703533,-0.1557337 0.33247,1.6780171 1.3147,1.09446 -0.951446,1.421628 0.155734,1.703533 -1.678018,0.33247 -1.094459,1.3147 -1.421629,-0.951446 -1.703533,0.155733 -0.332469,-1.678017 z m 1.564636,1.857641 0.465572,-1.646063 -0.674533,-1.572031 1.493151,-0.834733 0.634628,-1.5885611 1.646062,0.4655714 1.572032,-0.6745321 0.834733,1.4931508 1.588561,0.634628 -0.465572,1.646062 0.674532,1.572032 -1.49315,0.834733 -0.634628,1.58856 -1.646062,-0.465571 -1.572032,0.674532 -0.834733,-1.49315 z m 2.0621,1.283222 -0.06588,-1.709368 -1.127303,-1.286649 1.162124,-1.255287 0.112675,-1.706922 1.709368,-0.06588 1.286649,-1.1273024 1.255287,1.1621234 1.706922,0.112675 0.06588,1.709368 1.127303,1.286649 -1.162124,1.255287 -0.112675,1.706922 -1.709367,0.06588 -1.28665,1.127302 L 16.62,16.514295 Z m 2.357712,0.583192 -0.590876,-1.605348 -1.469725,-0.87532 0.71734,-1.552965 -0.420308,-1.658198 1.605349,-0.590876 0.87532,-1.4697249 1.552965,0.7173403 1.658198,-0.4203076 0.590876,1.6053482 1.469725,0.875321 -0.717341,1.552965 0.420308,1.658197 -1.605348,0.590876 -0.875321,1.469725 -1.552965,-0.71734 z m 2.422533,-0.173923 -1.058037,-1.344186 -1.66828,-0.37831 0.202339,-1.698627 -0.912148,-1.447158 1.344186,-1.058036 0.378309,-1.6682807 1.698628,0.2023386 1.447158,-0.9121475 1.058036,1.3441863 1.66828,0.3783093 -0.202338,1.698628 0.912147,1.447157 -1.344186,1.058036 -0.378309,1.668281 -1.698628,-0.202339 z m 2.25022,-0.914015 -1.421628,-0.951446 -1.703533,0.155733 -0.33247,-1.678017 -1.3147,-1.094459 0.951446,-1.421629 -0.155734,-1.7035328 1.678017,-0.3324694 1.09446,-1.3147001 1.421629,0.9514459 1.703533,-0.1557336 0.332469,1.678017 1.3147,1.09446 -0.951446,1.421628 0.155734,1.703533 -1.678017,0.33247 z m 1.857641,-1.564637 -1.646062,-0.465571 -1.572032,0.674532 -0.834733,-1.49315 -1.588561,-0.634628 0.465572,-1.646063 -0.674532,-1.5720314 1.49315,-0.834733 0.634628,-1.5885607 1.646062,0.4655714 1.572032,-0.6745321 0.834733,1.4931504 1.588561,0.6346282 -0.465572,1.6460622 0.674532,1.572032 -1.49315,0.834733 z"
         inkscape:transform-center-y="-13.630463"
         inkscape:path-effect="#path-effect1" />
    </g>
  </g>
</svg>
