<?xml version="1.0" encoding="UTF-8" standalone="no"?>
<!-- Created with Inkscape (http://www.inkscape.org/) -->

<svg
   width="120"
   height="120"
   viewBox="0 0 120 120"
   version="1.1"
   id="svg1"
   inkscape:version="1.4 (86a8ad7, 2024-10-11)"
   sodipodi:docname="mand_37.svg"
   xmlns:inkscape="http://www.inkscape.org/namespaces/inkscape"
   xmlns:sodipodi="http://sodipodi.sourceforge.net/DTD/sodipodi-0.dtd"
   xmlns="http://www.w3.org/2000/svg"
   xmlns:svg="http://www.w3.org/2000/svg">
  <sodipodi:namedview
     id="namedview1"
     pagecolor="#ffffff"
     bordercolor="#000000"
     borderopacity="0.25"
     inkscape:showpageshadow="2"
     inkscape:pageopacity="0.0"
     inkscape:pagecheckerboard="0"
     inkscape:deskcolor="#d1d1d1"
     inkscape:document-units="px"
     inkscape:zoom="9.725"
     inkscape:cx="60"
     inkscape:cy="60"
     inkscape:window-width="3440"
     inkscape:window-height="1369"
     inkscape:window-x="-8"
     inkscape:window-y="-8"
     inkscape:window-maximized="1"
     inkscape:current-layer="layer1" />
  <defs
     id="defs1">
    <inkscape:path-effect
       effect="copy_rotate"
       starting_point="0,0"
       origin="60,60"
       id="path-effect2"
       is_visible="true"
       lpeversion="1.2"
       lpesatellites=""
       method="normal"
       num_copies="86"
       starting_angle="0"
       rotation_angle="60"
       gap="-0.01"
       copies_to_360="true"
       mirror_copies="false"
       split_items="false"
       link_styles="false" />
    <inkscape:path-effect
       effect="copy_rotate"
       starting_point="0,0"
       origin="34.210514,37.840618"
       id="path-effect1"
       is_visible="true"
       lpeversion="1.2"
       lpesatellites=""
       method="normal"
       num_copies="16"
       starting_angle="0"
       rotation_angle="22.5"
       gap="-0.01"
       copies_to_360="true"
       mirror_copies="false"
       split_items="false"
       link_styles="false" />
  </defs>
  <g
     inkscape:label="Layer 1"
     inkscape:groupmode="layer"
     id="layer1">
    <path
       style="fill:#0000ff;stroke-width:0.412889"
       d="m 55.938299,3.2327031 -0.853719,5.1386721 -1.223309,-0.0918 0.01565,7.1738278 -0.876028,5.009766 0.876028,5.007812 -0.01565,7.175781 1.223309,-0.0918 0.853719,5.136719 0.853719,-5.136719 1.223309,0.0918 -0.01565,-7.175781 0.876028,-5.007812 -0.876028,-5.009766 0.01565,-7.1738278 -1.223309,0.0918 z m 0,0.7167969 0.818425,4.9238282 1.172032,-0.08594 -0.01465,6.8749998 0.839401,4.800782 -0.839401,4.800781 0.01465,6.875 -1.172032,-0.08789 -0.818425,4.925781 -0.818425,-4.925781 -1.172033,0.08789 0.01465,-6.875 -0.839402,-4.800781 0.839402,-4.800782 -0.01465,-6.8749998 1.172033,0.08594 z m -4.132911,-0.2688727 -0.476343,5.1872811 -1.226746,-0.00226 0.539264,7.1535479 -0.508002,5.060347 1.239238,4.930507 0.50819,7.15778 1.213345,-0.180851 1.226398,5.060698 0.476485,-5.185333 1.226746,0.0023 -0.539406,-7.155496 0.508144,-5.058399 -1.239381,-4.932455 -0.508047,-7.1558325 -1.213345,0.1808509 z m 0.05232,0.7148847 1.175658,4.8509516 1.162632,-0.1712636 0.487232,6.857729 1.187596,4.726702 -0.486727,4.849246 0.516453,6.85559 -1.17532,-0.0021 -0.456683,4.972381 -1.175801,-4.852899 -1.162491,0.173209 -0.487231,-6.857729 -1.187598,-4.726702 0.486728,-4.849247 -0.516453,-6.8555898 1.175179,1.578e-4 z m -4.141513,0.033528 -0.09642,5.2082136 -1.223639,0.087294 1.060001,7.0951002 -0.137265,5.08393 1.595836,4.826894 1.029319,7.101591 1.196906,-0.268937 1.592534,4.957676 0.09671,-5.206281 1.223639,-0.08729 -1.060286,-7.097033 0.137549,-5.081996 -1.59612,-4.828828 -1.029034,-7.0996576 -1.196907,0.268937 z m 0.104367,0.7091583 1.526618,4.7521931 1.147029,-0.2556734 0.986515,6.8038683 1.529455,4.627404 -0.131457,4.871839 1.015502,6.799602 -1.172339,0.0837 -0.0925,4.992453 -1.526902,-4.754125 -1.146747,0.257602 -0.986514,-6.803868 -1.529456,-4.627403 0.131457,-4.87184 -1.015501,-6.799602 1.172056,-0.08563 z m -4.128017,0.3357492 0.284008,5.2013578 -1.214002,0.176381 1.575082,6.998797 0.234204,5.080387 1.94392,4.69753 1.544955,7.007509 1.174083,-0.355588 1.950172,4.828203 -0.283583,-5.199451 1.214002,-0.176381 -1.575507,-7.000704 -0.233779,-5.078479 -1.944344,-4.699437 -1.544531,-7.0056032 -1.174083,0.3555882 z m 0.155854,0.6996482 1.869433,4.6280796 1.125307,-0.338719 1.480532,6.713707 1.863154,4.503416 0.224516,4.868438 1.509132,6.707336 -1.163102,0.169048 0.272168,4.985886 -1.869858,-4.629986 -1.124883,0.340623 -1.480533,-6.713707 -1.863155,-4.503415 -0.224515,-4.868439 -1.509132,-6.707336 1.16268,-0.170951 z m -4.092496,0.6361794 0.662925,5.1667512 -1.197889,0.264526 2.081759,6.865154 0.604425,5.049737 2.281631,4.543101 2.052349,6.876041 1.144994,-0.440342 2.297406,4.67297 -0.662362,-5.164881 1.197889,-0.264527 -2.082323,-6.867023 -0.603861,-5.047867 -2.282194,-4.544972 -2.051787,-6.87417 -1.144994,0.440342 z m 0.206508,0.6864052 2.202275,4.479273 1.097579,-0.419957 1.966653,6.587724 2.186911,4.355401 0.57929,4.839062 1.99471,6.579283 -1.147659,0.253498 0.635389,4.952718 -2.202838,-4.481143 -1.097018,0.421825 -1.966653,-6.587724 -2.186912,-4.3554 -0.579289,-4.839063 -1.99471,-6.579283 1.147098,-0.255366 z m -4.03514,0.9332153 1.038305,5.1045777 -1.175384,0.351261 2.57733,6.69488 0.971419,4.992146 2.607169,4.364433 2.548794,6.707886 1.109796,-0.522747 2.632382,4.492804 -1.037607,-5.102753 1.175384,-0.351261 -2.578028,-6.696705 -0.970721,-4.990321 -2.607867,-4.366258 -2.548096,-6.706061 -1.109796,0.522746 z m 0.256062,0.6694999 2.523366,4.3065678 1.063996,-0.498955 2.442279,6.426594 2.499001,4.184148 0.930974,4.783866 2.469645,6.416128 -1.126093,0.336595 0.995219,4.893126 -2.524064,-4.308392 -1.0633,0.500777 -2.442279,-6.426595 -2.499003,-4.184146 -0.930972,-4.783868 -2.469646,-6.416127 1.125398,-0.338417 z m -3.956255,1.2252718 1.408145,5.015169 -1.146608,0.436121 3.059149,6.488887 1.333231,4.90792 2.918797,4.162479 3.031639,6.503941 1.068677,-0.602362 2.953314,4.288666 -1.407317,-5.0134 1.146608,-0.436121 -3.059978,-6.490656 -1.332402,-4.90615 -2.919626,-4.164248 -3.030809,-6.502173 -1.068678,0.602362 z m 0.304249,0.649023 2.830993,4.110885 1.024737,-0.575291 2.904875,6.231175 2.797758,3.99057 1.277689,4.703148 2.931405,6.218739 -1.09852,0.417897 1.349739,4.807425 -2.831822,-4.112653 -1.02391,0.577057 -2.904875,-6.231175 -2.797758,-3.990569 -1.277689,-4.70315 -2.931405,-6.218738 1.097693,-0.419663 z m -3.856262,1.510791 1.770472,4.899002 -1.111714,0.518655 3.524647,6.248273 1.687929,4.797507 3.214852,3.938316 3.498308,6.265295 1.021857,-0.678764 3.258488,4.061648 -1.769517,-4.897298 1.111714,-0.518656 -3.525603,-6.249976 -1.686973,-4.795803 -3.215808,-3.94002 -3.497352,-6.263591 -1.021857,0.678763 z m 0.350813,0.625083 3.123516,3.893269 0.98001,-0.648557 3.351972,6.002509 3.081587,3.775702 1.617589,4.597336 3.377523,5.988169 -1.065084,0.496969 1.697058,4.696077 -3.124473,-3.894973 -0.979055,0.650258 -3.351972,-6.002509 -3.081588,-3.7757 -1.617589,-4.597338 -3.377523,-5.988169 1.064131,-0.49867 z m -3.735694,1.78825 2.123354,4.756696 -1.07089,0.598421 3.971339,5.974322 2.033622,4.661498 3.493755,3.69314 3.946312,5.993221 0.969585,-0.751544 3.546275,3.812958 -2.122276,-4.755067 1.07089,-0.598421 -3.972417,-5.975951 -2.032543,-4.659868 -3.494833,-3.69477 -3.945235,-5.991592 -0.969585,0.751544 z m 0.395505,0.597807 3.399375,3.654881 0.930053,-0.718363 3.781185,5.741818 3.348975,3.540688 1.948858,4.466995 3.805621,5.725652 -1.025967,0.573389 2.035322,4.559671 -3.400451,-3.65651 -0.928978,0.71999 -3.781186,-5.741818 -3.348975,-3.540686 -1.948857,-4.466997 -3.805622,-5.725651 1.024892,-0.575017 z m -3.595194,2.056168 2.464906,4.589011 -1.024351,0.674995 4.396842,5.668495 2.368465,4.500617 3.754016,3.428261 4.373261,5.68917 0.91214,-0.820314 3.815143,3.543925 -2.463712,-4.587466 1.02435,-0.674995 -4.398035,-5.67004 -2.36727,-4.499071 -3.755211,-3.429807 -4.372068,-5.687625 -0.912139,0.820314 z m 0.438088,0.567342 3.657095,3.396993 0.875134,-0.784337 4.190224,5.450492 3.598495,3.286783 2.269728,4.312821 4.213415,5.432584 -0.981375,0.646751 2.362727,4.398938 -3.658288,-3.398538 -0.873944,0.78588 -4.190224,-5.450492 -3.598495,-3.286781 -2.269728,-4.312822 -4.213415,-5.432585 0.980185,-0.648294 z m -3.435513,2.313115 2.793306,4.396843 -0.972346,0.747967 4.798886,5.332424 2.69067,4.315724 3.994248,3.145089 4.776878,5.354766 0.849827,-0.884708 4.063655,3.255983 -2.792003,-4.395388 0.972346,-0.747967 -4.800189,-5.333879 -2.689366,-4.314269 -3.995552,-3.146544 -4.775575,-5.353311 -0.849826,0.884707 z m 0.478332,0.53385 3.895303,3.12098 0.815548,-0.846125 4.576906,5.130085 3.828814,3.015341 2.578489,4.135636 4.598728,5.110533 -0.931547,0.716661 2.677526,4.214735 -3.896607,-3.122434 -0.814247,0.847577 -4.576906,-5.130085 -3.828814,-3.015339 -2.578489,-4.135638 -4.598728,-5.110532 0.930247,-0.718114 z m -3.257501,2.557721 3.106803,4.181215 -0.915154,0.816948 5.175326,4.967902 2.998519,4.107805 4.21317,2.845138 5.155008,4.991791 0.78298,-0.944381 4.290486,2.950669 -3.105398,-4.179859 0.915155,-0.816949 -5.176732,-4.969258 -2.997113,-4.106448 -4.214577,-2.846494 -5.153601,-4.990435 -0.78298,0.94438 z m 0.516024,0.49751 4.112729,2.828315 0.751609,-0.903399 4.939168,4.782307 4.038706,2.727811 2.873492,3.936386 4.959505,4.761214 -0.876749,0.782747 2.978039,4.008045 -4.114135,-2.829671 -0.750205,0.904753 -4.939169,-4.782307 -4.038706,-2.727809 -2.873492,-3.936388 -4.959505,-4.761213 0.875347,-0.784102 z m -3.062109,2.78868 3.403725,3.943278 -0.85308,0.881571 5.524153,4.576875 3.290371,3.877968 4.409612,2.530006 5.505633,4.602183 0.711955,-0.999015 4.494426,2.629612 -3.402223,-3.942029 0.853079,-0.881571 -5.525654,-4.578124 -3.288869,-3.876719 -4.411114,-2.531256 -5.504131,-4.600933 -0.711956,0.999015 z m 0.550964,0.458515 4.308211,2.52056 0.68366,-0.955852 5.275077,4.409012 4.22705,2.425728 3.153164,3.716133 5.29382,4.386491 -0.817273,0.844659 3.262663,3.779969 -4.309712,-2.521809 -0.682161,0.9571 -5.275078,-4.409012 -4.22705,-2.425727 -3.153164,-3.716134 -5.29382,-4.386491 0.815775,-0.845907 z m -2.85038,3.00476 3.682485,3.684303 -0.786453,0.94149 5.843507,4.161428 3.564666,3.627441 4.582527,2.201376 5.826883,4.18802 0.637133,-1.048319 4.674385,2.294524 -3.680897,-3.683166 0.786453,-0.94149 -5.845095,-4.162564 -3.563077,-3.626305 -4.584116,-2.202512 -5.825295,-4.186884 -0.637133,1.048319 z m 0.582963,0.417075 4.480707,2.199356 0.612063,-1.003206 5.582843,4.012194 4.39284,2.110702 3.416013,3.476053 5.599891,3.988366 -0.753437,0.902062 3.529879,3.531726 -4.482295,-2.200493 -0.610478,1.004342 -5.582843,-4.012195 -4.392839,-2.1107 -3.416013,-3.476055 -5.599891,-3.988365 0.751852,-0.903197 z m -2.6234422,3.204808 3.9415982,3.40567 -0.715631,0.996386 6.131683,3.723778 3.819943,3.35756 4.730992,1.861 6.117045,3.751513 0.558911,-1.092031 4.829404,1.947196 -3.939931,-3.404653 0.715631,-0.996386 -6.13335,-3.724795 -3.818275,-3.356543 -4.73266,-1.862018 -6.115377,-3.750495 -0.558912,1.092031 z m 0.6118532,0.373408 4.629296,1.866419 0.537201,-1.045208 5.86082,3.59397 4.535193,1.784414 3.660635,3.217428 5.876085,3.568959 -0.685581,0.954653 3.778262,3.26464 -4.630964,-1.867436 -0.535537,1.046225 -5.86082,-3.59397 -4.535192,-1.784413 -3.660636,-3.217429 -5.876084,-3.568959 0.683917,-0.95567 z m -2.3825084,3.387758 4.1796814,3.108867 -0.64099,1.045965 6.387143,3.26626 4.054839,3.069765 4.854215,1.510695 6.374569,3.294989 0.477707,-1.129915 4.958657,1.589477 -4.177944,-3.107973 0.64099,-1.045966 -6.38888,-3.267152 -4.053101,-3.068873 -4.855954,-1.511588 -6.372831,-3.294096 -0.477707,1.129915 z m 0.6374777,0.32775 4.7531867,1.523523 0.459472,-1.081633 6.107529,3.15657 4.653347,1.448606 3.885728,2.941635 6.120925,3.130512 -0.614067,1.00215 4.006487,2.980136 -4.754924,-1.524416 -0.457738,1.082525 -6.107529,-3.15657 -4.653347,-1.448604 -3.885728,-2.941636 -6.120925,-3.130513 0.612333,-1.003042 z m -2.1288618,3.552632 4.3954635,2.795476 -0.5629295,1.089965 6.6085255,2.791314 4.268101,2.765592 4.951539,1.15233 6.598082,2.820885 0.393954,-1.161771 5.061453,1.223278 -4.393666,-2.794712 0.56293,-1.089964 -6.610324,-2.792079 -4.266302,-2.764828 -4.953337,-1.153094 -6.596285,-2.820121 -0.393954,1.161771 z m 0.6597013,0.280343 4.8517162,1.172498 0.379293,-1.112287 6.32165,2.702328 4.746675,1.105069 4.090087,2.650148 6.33311,2.675362 -0.539277,1.044301 4.213334,2.67973 -4.853514,-1.173262 -0.377498,1.113051 -6.32165,-2.702328 -4.746675,-1.105068 -4.090087,-2.650149 -6.33311,-2.675362 0.537482,-1.045064 z m -1.8638571,3.698552 4.5877946,2.46717 -0.4818657,1.128148 6.7946494,2.301476 4.458589,2.446663 5.022445,0.787817 6.786391,2.331731 0.3081,-1.187429 5.137244,0.850552 -4.585946,-2.466539 0.481866,-1.128148 -6.796498,-2.302107 -4.45674,-2.446032 -5.024294,-0.788448 -6.784543,-2.3311 -0.308099,1.187428 z m 0.6784051,0.231439 4.9243602,0.815218 0.297089,-1.137006 6.502043,2.233668 4.814677,0.755636 4.272624,2.34452 6.511504,2.205938 -0.461609,1.08088 4.397702,2.365028 -4.926209,-0.815848 -0.295243,1.137636 -6.502044,-2.233668 -4.814676,-0.755635 -4.272625,-2.344521 -6.5115032,-2.205938 0.4597632,-1.08151 z m -1.5889078,3.824738 4.7556474,2.125701 -0.3982307,1.160312 6.9445203,1.79936 4.62529,2.11468 5.066553,0.4191 6.938493,1.830135 0.2206,-1.206751 5.185626,0.473289 -4.753758,-2.125207 0.398231,-1.160312 -6.946409,-1.799854 -4.6234,-2.114185 -5.068444,-0.419595 -6.9366029,-1.829641 -0.2206006,1.206751 z m 0.6934893,0.181302 4.9707305,0.453588 0.2133004,-1.155659 6.6477448,1.75309 4.856991,0.402172 4.432365,2.026384 6.655156,1.724743 -0.381479,1.111692 4.558606,2.037707 -4.97262,-0.454081 -0.211414,1.156153 -6.647745,-1.753091 -4.85699,-0.40217 L 15.576996,54.626729 8.92184,52.901986 9.3014318,51.7898 Z m -1.3054812,3.930517 4.8981269,1.77289 -0.3124709,1.186286 7.0573389,1.287642 4.767313,1.771414 5.083629,0.04815 7.053574,1.318776 0.131925,-1.219634 5.20634,0.0935 -4.896206,-1.772536 0.312471,-1.186286 -7.05926,-1.287996 -4.765391,-1.771059 -5.085551,-0.0485 -7.0516533,-1.318421 -0.131925,1.219635 z m 0.7048735,0.130197 4.9905797,0.08954 0.1283738,-1.168146 6.7579779,1.263159 4.87339,0.04656 4.568457,1.697437 6.7633,1.234347 -0.299312,1.136572 4.695188,1.699514 -4.9925,-0.08989 -0.126456,1.168501 -6.757978,-1.263159 -4.87339,-0.04656 -4.568458,-1.697438 -6.7632998,-1.234347 0.2973949,-1.136927 z m -1.0150892,4.015326 5.0144728,1.41062 -0.2250441,1.20593 7.1325039,0.769054 4.8839,1.418697 5.073582,-0.323062 7.131022,0.80038 0.04255,-1.226011 5.199276,-0.286788 -5.012531,-1.410407 0.225044,-1.20593 -7.134445,-0.769268 -4.881958,-1.418483 -5.075525,0.322849 -7.1290798,-0.800166 -0.042546,1.22601 z m 0.7124968,0.0784 4.9838022,-0.27499 0.042762,-1.174401 6.8321545,0.766489 4.863788,-0.309298 4.680175,1.359433 6.835359,0.737365 -0.21555,1.155388 4.806719,1.352254 -4.985743,0.274777 -0.04082,1.174614 -6.832154,-0.766489 -4.863788,0.309299 -4.680175,-1.359433 -6.835359,-0.737365 0.2136111,-1.155603 z m -0.7192812,4.078711 5.1040642,1.040824 -0.1364164,1.21914 7.1696132,0.246363 4.97443,1.05841 5.036465,-0.692548 7.170422,0.277714 -0.04706,-1.225846 5.164471,-0.665546 -5.102112,-1.040753 0.136416,-1.21914 -7.171565,-0.246434 -4.972476,-1.058339 -5.038419,0.692477 -7.1684697,-0.277643 0.047061,1.225846 z m 0.7163186,0.02618 4.9504338,-0.638051 -0.043078,-1.174389 6.8698782,0.265729 4.828236,-0.663507 4.766921,1.014176 6.870949,0.236448 -0.130637,1.16804 4.892604,0.997779 -4.952385,0.637979 0.04503,1.174461 -6.869878,-0.265729 -4.828235,0.663508 -4.766922,-1.014176 -6.8709483,-0.236449 0.1286877,-1.168112 z m -0.4196356,4.120334 5.1664234,0.665474 -0.047061,1.225846 7.1684706,-0.277642 5.038418,0.692477 4.972476,-1.058339 7.171566,-0.246435 -0.136417,-1.21914 5.102113,-1.040753 -5.164472,-0.665546 0.04706,-1.225845 -7.170422,0.277713 -5.036465,-0.692548 -4.97443,1.05841 -7.1696132,0.246363 0.1364165,1.219141 z m 0.7163187,-0.02618 4.8906527,-0.997707 -0.1286876,-1.168112 6.8709482,-0.236448 4.766923,-1.014176 4.828234,0.663507 6.869879,-0.265729 -0.04503,1.17446 4.952385,0.63798 -4.892604,0.997778 0.130637,1.168041 -6.870949,0.236449 -4.766921,1.014176 -4.828236,-0.663508 -6.8698781,0.265729 0.043078,-1.174389 z m -0.117751,4.139974 5.2012173,0.286574 0.042545,1.226011 7.1290805,-0.800166 5.075524,0.322848 4.881958,-1.418483 7.134445,-0.769268 -0.225044,-1.20593 5.012531,-1.410406 -5.199276,-0.286789 -0.04255,-1.22601 -7.131022,0.80038 -5.073582,-0.323063 -4.8839,1.418697 -7.1325036,0.769054 0.2250441,1.20593 z m 0.7124968,-0.0784 4.8047779,-1.352041 -0.213611,-1.155601 6.8353586,-0.737365 4.680176,-1.359433 4.863787,0.309298 6.832155,-0.766489 0.04082,1.174614 4.985744,0.274776 -4.806719,1.352254 0.215549,1.15539 -6.835359,0.737364 -4.680175,1.359434 -4.863788,-0.309299 -6.8321541,0.766489 -0.042762,-1.174401 z m 0.1847617,4.137524 5.2082608,-0.09385 0.131925,1.219634 7.051653,-1.318421 5.085551,-0.0485 4.765392,-1.771059 7.059259,-1.287997 -0.312471,-1.186285 4.896206,-1.772536 -5.20634,0.0935 -0.131925,-1.219635 -7.053574,1.318776 -5.083629,0.04815 -4.767313,1.771414 -7.0573388,1.287641 0.312471,1.186286 z m 0.7048735,-0.130196 4.6932673,-1.69916 -0.297394,-1.136926 6.763299,-1.234347 4.568458,-1.697437 4.87339,-0.04656 6.757978,-1.26316 0.126456,1.168501 4.9925,-0.08989 -4.695188,1.699515 0.299313,1.136573 -6.7633,1.234347 -4.568457,1.697438 -4.873391,0.04656 -6.757978,1.26316 -0.128373,-1.168147 z m 0.4862888,4.113 5.1875155,-0.473783 0.220601,1.206751 6.936603,-1.829641 5.068443,-0.419595 4.6234,-2.114185 6.94641,-1.799854 -0.398231,-1.160312 4.753758,-2.125207 -5.185626,0.473289 -0.220601,-1.206751 -6.938492,1.830135 -5.066554,0.4191 -4.62529,2.11468 -6.94452,1.79936 0.398231,1.160312 z m 0.6934893,-0.181302 4.5567162,-2.037213 -0.379591,-1.112185 6.655155,-1.724743 4.432366,-2.026385 4.85699,-0.402171 6.647745,-1.753091 0.211414,1.156152 4.97262,-0.454081 -4.558606,2.037707 0.381478,1.111693 -6.655156,1.724743 -4.432364,2.026385 -4.856991,0.402171 -6.647745,1.75309 -0.213301,-1.15566 z m 0.7852213,4.066531 5.1390929,-0.851183 0.308099,1.187429 6.784543,-2.3311 5.024294,-0.788448 4.45674,-2.446032 6.796498,-2.302107 -0.481866,-1.128148 4.585946,-2.46654 -5.137244,0.850553 -0.308099,-1.187429 -6.786392,2.331731 -5.022445,0.787817 -4.458589,2.446663 -6.794649,2.301476 0.481866,1.128148 z m 0.6784051,-0.231439 4.3958538,-2.364398 -0.459764,-1.081509 6.511504,-2.205938 4.272625,-2.344521 4.814676,-0.755635 6.502043,-2.233669 0.295244,1.137636 4.926208,-0.815848 -4.397701,2.365028 0.461609,1.080881 -6.511504,2.205937 -4.272624,2.344522 -4.814677,0.755635 -6.502043,2.233668 -0.29709,-1.137007 z m 1.0799642,3.998365 5.0632506,-1.224042 0.393954,1.161771 6.596285,-2.820121 4.953337,-1.153094 4.266302,-2.764828 6.610324,-2.792079 -0.56293,-1.089964 4.393666,-2.794712 -5.061453,1.223278 -0.393954,-1.161771 -6.598082,2.820885 -4.951539,1.15233 -4.268101,2.765592 -6.608526,2.791315 0.56293,1.089964 z m 0.6597016,-0.280343 4.211536,-2.678967 -0.537482,-1.045063 6.33311,-2.675362 4.090088,-2.650148 4.746674,-1.105069 6.32165,-2.702328 0.377498,1.11305 4.853514,-1.173262 -4.213334,2.67973 0.539277,1.044302 -6.33311,2.675362 -4.090086,2.650149 -4.746676,1.105068 -6.32165,2.702328 -0.379293,-1.112288 z m 1.368945,3.908867 4.960394,-1.59037 0.477707,1.129915 6.372832,-3.294096 4.855953,-1.511589 4.053101,-3.068872 6.38888,-3.267152 -0.64099,-1.045966 4.177944,-3.107973 -4.958657,1.589477 -0.477707,-1.129916 -6.374569,3.294989 -4.854215,1.510695 -4.054839,3.069766 -6.387143,3.26626 0.64099,1.045965 z m 0.637477,-0.32775 4.00475,-2.979243 -0.612333,-1.003042 6.120926,-3.130512 3.885728,-2.941635 4.653347,-1.448606 6.107528,-3.15657 0.457739,1.082525 4.754923,-1.524416 -4.006486,2.980136 0.614067,1.002151 -6.120926,3.130512 -3.885727,2.941636 -4.653347,1.448605 -6.107529,3.15657 -0.459473,-1.081634 z m 1.650623,3.798512 4.831071,-1.948213 0.558911,1.09203 6.115378,-3.750495 4.732659,-1.862017 3.818276,-3.356543 6.13335,-3.724795 -0.715631,-0.996386 3.939931,-3.404653 -4.829405,1.947196 -0.558911,-1.092031 -6.117044,3.751513 -4.730992,1.861 -3.819943,3.35756 -6.131683,3.723778 0.715631,0.996386 z m 0.611852,-0.373409 3.776596,-3.263622 -0.683917,-0.955669 5.876084,-3.56896 3.660637,-3.217428 4.535191,-1.784413 5.860821,-3.59397 0.535536,1.046224 4.630963,-1.867436 -3.778262,3.26464 0.685582,0.954653 -5.876084,3.56896 -3.660635,3.217428 -4.535193,1.784414 -5.860821,3.59397 -0.537201,-1.045209 z m 1.923493,3.667892 4.675973,-2.295662 0.637133,1.04832 5.825295,-4.186884 4.584116,-2.202512 3.563077,-3.626305 5.845095,-4.162564 -0.786453,-0.94149 3.680897,-3.683167 -4.674385,2.294525 -0.637133,-1.048319 -5.826883,4.18802 -4.582527,2.201375 -3.564667,3.627442 -5.843506,4.161427 0.786453,0.94149 z m 0.582963,-0.417075 3.528291,-3.53059 -0.751851,-0.903197 5.599891,-3.988365 3.416014,-3.476054 4.392839,-2.110701 5.582842,-4.012195 0.610478,1.004341 4.482295,-2.200493 -3.52988,3.531727 0.753438,0.902063 -5.599891,3.988365 -3.416012,3.476054 -4.392841,2.110701 -5.582842,4.012195 -0.612064,-1.003208 z m 2.1861,3.5177 4.495927,-2.630861 0.711956,0.999015 5.504131,-4.600934 4.411114,-2.531255 3.288869,-3.876719 5.525654,-4.578124 -0.853079,-0.881571 3.402223,-3.942029 -4.494425,2.629612 -0.711956,-0.999015 -5.505633,4.602182 -4.409612,2.530006 -3.290371,3.877969 -5.524153,4.576875 0.85308,0.881571 z m 0.550964,-0.458515 3.261162,-3.778721 -0.815775,-0.845905 5.29382,-4.386491 3.153166,-3.716134 4.227048,-2.425727 5.275078,-4.409013 0.682161,0.9571 4.309712,-2.521809 -3.262663,3.779969 0.817274,0.844659 -5.29382,4.386491 -3.153164,3.716134 -4.22705,2.425727 -5.275078,4.409013 -0.68366,-0.955853 z m 2.437044,3.348742 4.291892,-2.952026 0.78298,0.944376 5.153601,-4.990431 4.214577,-2.846493 2.997112,-4.106449 5.176732,-4.969258 -0.915154,-0.816948 3.105398,-4.17986 -4.290487,2.950669 -0.78298,-0.94438 -5.155007,4.991791 -4.21317,2.845137 -2.998519,4.107805 -5.175326,4.967902 0.915154,0.816949 z m 0.516024,-0.49751 2.976634,-4.006691 -0.875346,-0.784101 4.959504,-4.761213 2.873493,-3.936387 4.038706,-2.72781 4.939168,-4.782307 0.750205,0.904752 4.114134,-2.82967 -2.978039,4.008044 0.87675,0.782748 -4.959504,4.761214 -2.873492,3.936387 -4.038707,2.72781 -4.939168,4.782307 -0.751609,-0.9034 z m 2.674985,3.16191 4.064959,-3.25743 0.849826,0.8847 4.775575,-5.353308 3.995552,-3.146544 2.689366,-4.314269 4.800189,-5.333879 -0.972346,-0.747967 2.792003,-4.395388 -4.063655,3.255983 -0.849827,-0.884708 -4.776878,5.354766 -3.994248,3.145089 -2.69067,4.315724 -4.798886,5.332424 0.972346,0.747967 z m 0.478332,-0.53385 2.676223,-4.21328 -0.930246,-0.718111 4.598727,-5.110533 2.57849,-4.135637 3.828814,-3.01534 4.576906,-5.130085 0.814246,0.847577 3.896606,-3.122434 -2.677526,4.214735 0.931549,0.716662 -4.598728,5.110532 -2.578488,4.135637 -3.828816,3.01534 -4.576906,5.130087 -0.815548,-0.84613 z m 2.898653,2.95822 3.816337,-3.54547 0.912139,0.82031 4.372068,-5.68762 3.755211,-3.429807 2.36727,-4.499071 4.398035,-5.67004 -1.02435,-0.674995 2.463712,-4.587466 -3.815143,3.543924 -0.912139,-0.820313 -4.373262,5.68917 -3.754016,3.42826 -2.368465,4.500618 -4.396841,5.66849 1.02435,0.675 z m 0.438088,-0.56734 2.361534,-4.39739 -0.980184,-0.6483 4.213415,-5.432582 2.269729,-4.312822 3.598494,-3.286782 4.190224,-5.450492 0.873943,0.78588 3.658288,-3.398538 -2.362727,4.398938 0.981376,0.646751 -4.213415,5.432585 -2.269727,4.312821 -3.598496,3.286782 -4.190224,5.450489 -0.875135,-0.78433 z m 3.106857,2.73874 3.547353,-3.81459 0.969585,0.75154 3.945234,-5.99159 3.494833,-3.694768 2.032544,-4.659868 3.972416,-5.975951 -1.070889,-0.598421 2.122276,-4.755067 -3.546276,3.812958 -0.969584,-0.751544 -3.946313,5.993221 -3.493754,3.69314 -2.033622,4.661498 -3.971339,5.974322 1.070889,0.59842 z m 0.395505,-0.59781 2.034245,-4.55804 -1.024891,-0.57502 3.805621,-5.725649 1.948858,-4.466996 3.348975,-3.540687 3.781185,-5.741818 0.928977,0.719989 3.400452,-3.65651 -2.035322,4.559671 1.025967,0.57339 -3.805621,5.725652 -1.948857,4.466996 -3.348976,3.540682 -3.781185,5.74182 -0.930054,-0.71836 z m 3.298484,2.50465 3.259443,-4.06335 1.021857,0.67876 3.497352,-6.26359 3.215808,-3.940022 1.686973,-4.795803 3.525603,-6.249976 -1.111714,-0.518656 1.769516,-4.897298 -3.258487,4.061648 -1.021857,-0.678764 -3.498308,6.265295 -3.214852,3.938316 -1.687929,4.797507 -3.524647,6.248273 1.111714,0.51866 z m 0.350813,-0.62509 1.696102,-4.69437 -1.06413,-0.49867 3.377523,-5.988168 1.617589,-4.597337 3.081587,-3.7757 3.351972,-6.00251 0.979055,0.650258 3.124473,-3.894973 -1.697059,4.696076 1.065086,0.49697 -3.377523,5.98817 -1.617588,4.597336 -3.081588,3.775698 -3.351973,6.00251 -0.98001,-0.64856 z m 3.472512,2.2572 2.954142,-4.29044 1.068678,0.60236 3.030809,-6.50217 2.919626,-4.164248 1.332402,-4.906151 3.059978,-6.490655 -1.146608,-0.436122 1.407317,-5.0134 -2.953314,4.288667 -1.068677,-0.602362 -3.031638,6.503941 -2.918798,4.162478 -1.333231,4.907922 -3.059149,6.48889 1.146608,0.43612 z m 0.304249,-0.64903 1.34891,-4.80565 -1.097692,-0.41967 2.931405,-6.21874 1.27769,-4.703145 2.797757,-3.990569 2.904875,-6.231175 1.023909,0.577057 2.831822,-4.112654 -1.349739,4.807426 1.098521,0.417897 -2.931405,6.218738 -1.277688,4.703149 -2.79776,3.990566 -2.904874,6.23118 -1.024738,-0.57529 z m 3.628012,1.99769 2.63308,-4.49462 1.109796,0.52274 2.548096,-6.70606 2.607867,-4.366256 0.970721,-4.990321 2.578028,-6.696704 -1.175384,-0.351262 1.037608,-5.102753 -2.632382,4.492804 -1.109797,-0.522747 -2.548793,6.707886 -2.60717,4.364433 -0.971419,4.99215 -2.57733,6.69488 1.175384,0.35126 z m 0.256062,-0.6695 0.994522,-4.8913 -1.125398,-0.33841 2.469646,-6.41613 0.930974,-4.783868 2.499001,-4.184147 2.442279,-6.426594 1.0633,0.500777 2.524063,-4.308392 -0.995219,4.893125 1.126095,0.336596 -2.469646,6.416127 -0.930972,4.783867 -2.499003,4.184149 -2.442279,6.42659 -1.063997,-0.49895 z m 3.764156,1.72754 2.297969,-4.67484 1.144994,0.44034 2.051787,-6.87417 2.282194,-4.54497 0.603861,-5.047867 2.082322,-6.867024 -1.197889,-0.264526 0.662363,-5.164881 -2.297406,4.67297 -1.144994,-0.440342 -2.05235,6.876041 -2.281631,4.5431 -0.604424,5.049739 -2.08176,6.86515 1.197889,0.26453 z m 0.206509,-0.68641 0.634826,-4.95084 -1.147098,-0.25537 1.99471,-6.57928 0.57929,-4.839064 2.186912,-4.3554 1.966652,-6.587725 1.097018,0.421825 2.202837,-4.481144 -0.635389,4.952719 1.147661,0.253498 -1.99471,6.579283 -0.579289,4.839062 -2.186913,4.355396 -1.966652,6.58773 -1.097581,-0.41996 z m 3.880216,1.44817 1.950597,-4.83011 1.174082,0.35558 1.544531,-7.0056 1.944344,-4.69944 0.23378,-5.078475 1.575507,-7.000704 -1.214003,-0.176381 0.283584,-5.199452 -1.950173,4.828204 -1.174082,-0.355588 -1.544956,7.007509 -1.943919,4.69753 -0.234204,5.080387 -1.575083,6.9988 1.214003,0.17638 z m 0.155853,-0.69965 0.271744,-4.98398 -1.162678,-0.17095 1.509132,-6.70734 0.224516,-4.868439 1.863154,-4.503415 1.480533,-6.713707 1.124882,0.340622 1.869858,-4.629985 -0.272168,4.985886 1.163103,0.169048 -1.509132,6.707336 -0.224515,4.868434 -1.863155,4.50342 -1.480533,6.71371 -1.125307,-0.33872 z m 3.975574,1.16106 1.592818,-4.95961 1.196907,0.26894 1.029034,-7.09966 1.59612,-4.82883 -0.137549,-5.081997 1.060285,-7.097032 -1.223638,-0.08729 -0.09671,-5.206281 -1.592534,4.957676 -1.196906,-0.268937 -1.029319,7.10159 -1.595836,4.826895 0.137265,5.08393 -1.060001,7.0951 1.223639,0.0873 z m 0.104367,-0.70916 -0.09279,-4.99052 -1.172055,-0.0856 1.015502,-6.7996 -0.131456,-4.871839 1.529455,-4.627403 0.986514,-6.803868 1.146745,0.257602 1.526903,-4.754125 0.0925,4.992452 1.17234,0.0837 -1.015502,6.799603 0.131458,4.871842 -1.529457,4.6274 -0.986514,6.80387 -1.14703,-0.25567 z m 4.04972,0.86776 1.22654,-5.06264 1.213345,0.18085 0.508047,-7.15583 1.239381,-4.93246 -0.508144,-5.058399 0.539406,-7.155495 -1.226746,0.0023 -0.476485,-5.185333 -1.226398,5.060698 -1.213345,-0.180851 -0.50819,7.157781 -1.239238,4.930506 0.508002,5.060344 -0.539264,7.15355 1.226746,-0.002 z m 0.05232,-0.71488 -0.456826,-4.97044 -1.175178,1.6e-4 0.516453,-6.85559 -0.486727,-4.849245 1.187597,-4.726701 0.487231,-6.857729 1.16249,0.173208 1.175801,-4.852899 0.456683,4.972381 1.175322,-0.0021 -0.516454,6.85559 0.486728,4.849246 -1.187597,4.726701 -0.487232,6.85773 -1.162633,-0.17126 z m 4.102259,0.56984 0.853719,-5.13868 1.223309,0.0918 -0.01565,-7.17382 0.876028,-5.009769 -0.876028,-5.007812 0.01565,-7.175781 -1.223309,0.0918 -0.853719,-5.136719 -0.853719,5.136719 -1.223309,-0.0918 0.01565,7.175781 -0.876028,5.007812 0.876028,5.009769 -0.01565,7.17382 1.223309,-0.0918 z m 0,-0.7168 -0.818425,-4.92383 -1.172032,0.0859 0.01465,-6.875 -0.839401,-4.80078 0.839401,-4.800781 -0.01465,-6.875 1.172032,0.08789 0.818425,-4.925781 0.818425,4.925781 1.172033,-0.08789 -0.01465,6.875 0.839402,4.800781 -0.839402,4.80078 0.01465,6.875 -1.172033,-0.0859 z m 4.132911,0.26887 0.476343,-5.18728 1.226746,0.002 -0.539264,-7.15355 0.508002,-5.060344 -1.239238,-4.930507 -0.50819,-7.15778 -1.213345,0.180851 -1.226398,-5.060698 -0.476485,5.185333 -1.226746,-0.0023 0.539406,7.155496 -0.508144,5.058399 1.239381,4.93246 0.508047,7.15583 1.213345,-0.18085 z m -0.05232,-0.71488 -1.175658,-4.85095 -1.162632,0.17126 -0.487232,-6.85773 -1.187596,-4.726701 0.486727,-4.849246 -0.516453,-6.85559 1.17532,0.0021 0.456683,-4.972381 1.175801,4.852899 1.162491,-0.173209 0.487231,6.857729 1.187598,4.726702 -0.486728,4.849245 0.516453,6.85559 -1.175179,-1.6e-4 z m 4.141513,-0.0335 0.09642,-5.20821 1.223639,-0.0873 -1.060001,-7.0951 0.137265,-5.083927 -1.595836,-4.826894 -1.029319,-7.101591 -1.196906,0.268937 -1.592534,-4.957676 -0.09671,5.206281 -1.223639,0.08729 1.060286,7.097033 -0.137549,5.081996 1.59612,4.828827 1.029034,7.09966 1.196907,-0.26894 z m -0.104367,-0.70916 -1.526618,-4.75219 -1.147029,0.25567 -0.986515,-6.80387 -1.529455,-4.6274 0.131457,-4.871839 -1.015502,-6.799602 1.172339,-0.0837 0.0925,-4.992453 1.526902,4.754125 1.146747,-0.257602 0.986514,6.803868 1.529456,4.627403 -0.131457,4.871836 1.015501,6.79961 -1.172056,0.0856 z m 4.128017,-0.33575 -0.284008,-5.20136 1.214002,-0.17638 -1.575082,-6.99879 -0.234204,-5.08039 -1.94392,-4.69753 -1.544955,-7.007509 -1.174083,0.355588 -1.950172,-4.828203 0.283583,5.199451 -1.214002,0.176381 1.575507,7.000704 0.233779,5.078479 1.944344,4.699439 1.544531,7.0056 1.174083,-0.35559 z m -0.155854,-0.69965 -1.869433,-4.62808 -1.125307,0.33872 -1.480532,-6.7137 -1.863154,-4.503419 -0.224516,-4.868438 -1.509132,-6.707336 1.163102,-0.169048 -0.272168,-4.985886 1.869858,4.629986 1.124883,-0.340623 1.480533,6.713707 1.863155,4.503415 0.224515,4.868442 1.509132,6.70733 -1.16268,0.17095 z m 4.092496,-0.63617 -0.662925,-5.16676 1.197889,-0.26452 -2.081759,-6.86516 -0.604425,-5.049733 -2.281631,-4.543101 -2.052349,-6.876041 -1.144994,0.440342 -2.297406,-4.67297 0.662362,5.164881 -1.197889,0.264527 2.082323,6.867023 0.603861,5.047867 2.282194,4.544975 2.051787,6.87417 1.144994,-0.44034 z m -0.206508,-0.68641 -2.202275,-4.47927 -1.097579,0.41995 -1.966653,-6.58772 -2.186911,-4.355401 -0.57929,-4.839062 -1.99471,-6.579283 1.147659,-0.253498 -0.635389,-4.952718 2.202838,4.481143 1.097018,-0.421825 1.966653,6.587724 2.186912,4.3554 0.579289,4.83906 1.99471,6.57929 -1.147098,0.25536 z m 4.03514,-0.93322 -1.038305,-5.10457 1.175384,-0.35126 -2.57733,-6.694884 -0.971419,-4.992146 -2.607169,-4.364433 -2.548794,-6.707886 -1.109796,0.522747 -2.632382,-4.492804 1.037607,5.102753 -1.175384,0.351261 2.578028,6.696705 0.970721,4.990321 2.607867,4.366256 2.548096,6.70606 1.109796,-0.52274 z m -0.256062,-0.6695 -2.523366,-4.30656 -1.063996,0.49895 -2.442279,-6.42659 -2.499001,-4.18415 -0.930974,-4.783866 -2.469645,-6.416128 1.126093,-0.336595 -0.995219,-4.893126 2.524064,4.308392 1.0633,-0.500777 2.442279,6.426595 2.499003,4.184146 0.930972,4.783868 2.469646,6.416131 -1.125398,0.33841 z m 3.956255,-1.22527 -1.408145,-5.01517 1.146608,-0.43612 -3.059149,-6.488884 -1.333231,-4.90792 -2.918797,-4.162479 -3.031639,-6.503941 -1.068677,0.602362 -2.953314,-4.288666 1.407317,5.0134 -1.146608,0.436121 3.059978,6.490656 1.332402,4.90615 2.919626,4.164248 3.030809,6.502173 1.068678,-0.60236 z m -0.304249,-0.64902 -2.830993,-4.11089 -1.024737,0.5753 -2.904875,-6.231179 -2.797758,-3.99057 -1.277689,-4.703148 -2.931405,-6.218739 1.09852,-0.417897 -1.349739,-4.807425 2.831822,4.112653 1.02391,-0.577057 2.904875,6.231175 2.797758,3.990569 1.277689,4.70315 2.931405,6.218738 -1.097693,0.41966 z m 3.856262,-1.51079 -1.770472,-4.899 1.111714,-0.51866 -3.524647,-6.248271 -1.687929,-4.797507 -3.214852,-3.938316 -3.498308,-6.265295 -1.021857,0.678764 -3.258488,-4.061648 1.769517,4.897298 -1.111714,0.518656 3.525603,6.249976 1.686973,4.795803 3.215808,3.94002 3.497352,6.26359 1.021857,-0.67876 z m -0.350813,-0.62508 -3.123516,-3.89327 -0.98001,0.64855 -3.351972,-6.002505 -3.081587,-3.775702 -1.617589,-4.597336 -3.377523,-5.988169 1.065084,-0.496969 -1.697058,-4.696077 3.124473,3.894973 0.979055,-0.650258 3.351972,6.002509 3.081588,3.7757 1.617589,4.597338 3.377523,5.988166 -1.064131,0.49867 z m 3.735694,-1.78825 -2.123354,-4.7567 1.07089,-0.598421 -3.971339,-5.974322 -2.033622,-4.661498 -3.493755,-3.69314 -3.946312,-5.993221 -0.969585,0.751544 -3.546275,-3.812958 2.122276,4.755067 -1.07089,0.598421 3.972417,5.975951 2.032543,4.659868 3.494833,3.69477 3.945235,5.991589 0.969585,-0.75154 z m -0.395505,-0.59781 -3.399375,-3.65488 -0.930053,0.71836 -3.781185,-5.741817 -3.348975,-3.540688 -1.948858,-4.466995 -3.805621,-5.725652 1.025967,-0.573389 -2.035322,-4.559671 3.400451,3.65651 0.928978,-0.71999 3.781186,5.741818 3.348975,3.540686 1.948857,4.466997 3.805622,5.725651 -1.024892,0.575017 z m 3.595194,-2.05617 -2.464906,-4.58901 1.024351,-0.674995 -4.396842,-5.668495 -2.368465,-4.500617 -3.754016,-3.428261 -4.373261,-5.68917 -0.91214,0.820314 -3.815143,-3.543925 2.463712,4.587466 -1.02435,0.674995 4.398035,5.67004 2.36727,4.499071 3.755211,3.429807 4.372068,5.687625 0.912139,-0.820314 z m -0.438088,-0.56734 -3.657095,-3.396994 -0.875134,0.784337 -4.190224,-5.450492 -3.598495,-3.286783 -2.269728,-4.312821 -4.213415,-5.432584 0.981375,-0.646751 -2.362727,-4.398938 3.658288,3.398538 0.873944,-0.78588 4.190224,5.450492 3.598495,3.286781 2.269728,4.312822 4.213415,5.432585 -0.980185,0.648294 z m 3.435516,-2.313116 -2.793309,-4.396843 0.972346,-0.747967 -4.798886,-5.332424 -2.69067,-4.315724 -3.994248,-3.145089 -4.776878,-5.354766 -0.849827,0.884708 -4.063655,-3.255983 2.792003,4.395388 -0.972346,0.747967 4.800189,5.333879 2.689366,4.314269 3.995552,3.146544 4.775575,5.353311 0.849826,-0.884707 z m -0.47834,-0.53385 -3.895298,-3.12098 -0.815548,0.846125 -4.576906,-5.130085 -3.828814,-3.015341 -2.578489,-4.135636 -4.598728,-5.110533 0.931547,-0.716661 -2.677526,-4.214735 3.896607,3.122434 0.814247,-0.847577 4.576906,5.130085 3.828814,3.015339 2.578489,4.135638 4.598728,5.110532 -0.930247,0.718114 z m 3.25751,-2.557721 -3.10681,-4.181215 0.91516,-0.816948 -5.175329,-4.967902 -2.998519,-4.107805 -4.21317,-2.845138 -5.155008,-4.991791 -0.78298,0.944381 -4.290486,-2.950669 3.105398,4.179859 -0.915155,0.816949 5.176732,4.969258 2.997113,4.106448 4.214577,2.846494 5.153601,4.990435 0.78298,-0.94438 z m -0.51603,-0.49751 -4.112727,-2.828315 -0.751609,0.903399 -4.939168,-4.782307 -4.038706,-2.727811 -2.873492,-3.936386 -4.959505,-4.761214 0.876749,-0.782747 -2.978039,-4.008045 4.114135,2.829671 0.750205,-0.904753 4.939169,4.782307 4.038706,2.727809 2.873492,3.936388 4.9595,4.761213 -0.87534,0.784102 z m 3.06211,-2.78868 -3.40372,-3.943278 0.85308,-0.881571 -5.524157,-4.576875 -3.290371,-3.877968 -4.409612,-2.530006 -5.505633,-4.602183 -0.711955,0.999015 -4.494426,-2.629612 3.402223,3.942029 -0.853079,0.881571 5.525654,4.578124 3.288869,3.876719 4.411114,2.531256 5.504133,4.600933 0.71195,-0.999015 z m -0.55096,-0.458515 -4.30821,-2.52056 -0.68366,0.955852 -5.275081,-4.409012 -4.22705,-2.425728 -3.153164,-3.716133 -5.29382,-4.386491 0.817273,-0.844659 -3.262663,-3.779969 4.309712,2.521809 0.682161,-0.9571 5.275078,4.409012 4.22705,2.425727 3.153164,3.716134 5.29382,4.386491 -0.81578,0.845907 z m 2.85038,-3.00476 -3.68249,-3.684303 0.78646,-0.94149 -5.843512,-4.161428 -3.564666,-3.627441 -4.582527,-2.201376 -5.826883,-4.18802 -0.637133,1.048319 -4.674385,-2.294524 3.680897,3.683166 -0.786453,0.94149 5.845095,4.162564 3.563077,3.626305 4.584116,2.202512 5.825294,4.186884 0.63713,-1.048319 z m -0.58297,-0.417075 -4.4807,-2.199356 -0.61207,1.003206 -5.582839,-4.012194 -4.39284,-2.110702 -3.416013,-3.476053 -5.599891,-3.988366 0.753437,-0.902062 -3.529879,-3.531726 4.482295,2.200493 0.610478,-1.004342 5.582843,4.012195 4.392839,2.1107 3.416013,3.476055 5.599887,3.988365 -0.75185,0.903197 z m 2.62345,-3.204808 -3.9416,-3.40567 0.71563,-0.996386 -6.13168,-3.723778 -3.819947,-3.35756 -4.730992,-1.861 -6.117045,-3.751513 -0.558911,1.092031 -4.829404,-1.947196 3.939931,3.404653 -0.715631,0.996386 6.13335,3.724795 3.818275,3.356543 4.73266,1.862018 6.115374,3.750495 0.55891,-1.092031 z m -0.61186,-0.373408 -4.62929,-1.866419 -0.5372,1.045208 -5.860824,-3.59397 -4.535193,-1.784414 -3.660635,-3.217428 -5.876085,-3.568959 0.685581,-0.954653 -3.778262,-3.26464 4.630964,1.867436 0.535537,-1.046225 5.86082,3.59397 4.535192,1.784413 3.660635,3.217429 5.87609,3.568959 -0.68392,0.95567 z m 2.38251,-3.387758 -4.17968,-3.108867 0.64099,-1.045965 -6.38714,-3.26626 -4.054842,-3.069765 -4.854215,-1.510695 -6.374569,-3.294989 -0.477707,1.129915 -4.958657,-1.589477 4.177944,3.107973 -0.64099,1.045966 6.38888,3.267152 4.053101,3.068873 4.855955,1.511588 6.37283,3.294096 0.47771,-1.129915 z m -0.63748,-0.32775 -4.75318,-1.523523 -0.45948,1.081633 -6.10752,-3.15657 -4.653351,-1.448606 -3.885728,-2.941635 -6.120925,-3.130512 0.614067,-1.00215 -4.006487,-2.980136 4.754924,1.524416 0.457738,-1.082525 6.107529,3.15657 4.653347,1.448604 3.885726,2.941636 6.12093,3.130513 -0.61234,1.003042 z m 2.12887,-3.552632 -4.39547,-2.795476 0.56293,-1.089965 -6.60852,-2.791314 -4.268105,-2.765592 -4.951539,-1.15233 -6.598082,-2.820885 -0.393954,1.161771 -5.061453,-1.223278 4.393666,2.794712 -0.56293,1.089964 6.610324,2.792079 4.266302,2.764828 4.953341,1.153094 6.59628,2.820121 0.39395,-1.161771 z m -0.65971,-0.280343 -4.85171,-1.172498 -0.37929,1.112287 -6.32166,-2.702328 -4.74667,-1.105069 -4.090087,-2.650148 -6.33311,-2.675362 0.539277,-1.044301 -4.213334,-2.67973 4.853514,1.173262 0.377498,-1.113051 6.32165,2.702328 4.746675,1.105068 4.090087,2.650149 6.33311,2.675362 -0.53748,1.045064 z m 1.86386,-3.698552 -4.58779,-2.46717 0.48186,-1.128148 -6.79465,-2.301476 -4.458586,-2.446663 -5.022445,-0.787817 -6.786391,-2.331731 -0.3081,1.187429 -5.137244,-0.850552 4.585946,2.466539 -0.481866,1.128148 6.796498,2.302107 4.45674,2.446032 5.024298,0.788448 6.78454,2.3311 0.3081,-1.187428 z m -0.6784,-0.231439 -4.92436,-0.815218 -0.29709,1.137006 -6.50205,-2.233668 -4.814673,-0.755636 -4.272624,-2.34452 -6.511504,-2.205938 0.461609,-1.08088 -4.397702,-2.365028 4.926209,0.815848 0.295243,-1.137636 6.502044,2.233668 4.814676,0.755635 4.272622,2.344521 6.51151,2.205938 -0.45977,1.08151 z m 1.5889,-3.824738 -4.75564,-2.125701 0.39823,-1.160312 -6.94452,-1.79936 -4.62529,-2.11468 -5.066556,-0.4191 -6.938493,-1.830135 -0.2206,1.206751 -5.185626,-0.473289 4.753758,2.125207 -0.398231,1.160312 6.946409,1.799854 4.6234,2.114185 5.068439,0.419595 6.93661,1.829641 0.2206,-1.206751 z m -0.69349,-0.181302 -4.97073,-0.453588 -0.2133,1.155659 -6.64774,-1.75309 -4.856992,-0.402172 -4.432365,-2.026384 -6.655156,-1.724743 0.381479,-1.111692 -4.558606,-2.037707 4.97262,0.454081 0.211414,-1.156153 6.647745,1.753091 4.85699,0.40217 4.432361,2.026386 6.65516,1.724743 -0.37959,1.112186 z m 1.30549,-3.930517 -4.89813,-1.77289 0.31247,-1.186286 -7.05734,-1.287642 -4.76731,-1.771414 -5.083631,-0.04815 -7.053574,-1.318776 -0.131925,1.219634 -5.20634,-0.0935 4.896206,1.772536 -0.312471,1.186286 7.05926,1.287996 4.765391,1.771059 5.085554,0.0485 7.05165,1.318421 0.13193,-1.219635 z m -0.70488,-0.130197 -4.99058,-0.08954 -0.12837,1.168146 -6.75798,-1.263159 -4.873389,-0.04656 -4.568457,-1.697437 -6.7633,-1.234347 0.299312,-1.136572 -4.695188,-1.699514 4.9925,0.08989 0.126456,-1.168501 6.757978,1.263159 4.873388,0.04656 4.56846,1.697438 6.7633,1.234347 -0.2974,1.136927 z m 1.01509,-4.015326 -5.01447,-1.41062 0.22504,-1.20593 -7.1325,-0.769054 -4.8839,-1.418697 -5.073583,0.323062 -7.131022,-0.80038 -0.04255,1.226011 -5.199276,0.286788 5.012531,1.410407 -0.225044,1.20593 7.134445,0.769268 4.881958,1.418483 5.075526,-0.322849 7.12908,0.800166 0.0425,-1.22601 z m -0.7125,-0.0784 -4.9838,0.27499 -0.0428,1.174401 -6.83215,-0.766489 -4.863792,0.309298 -4.680175,-1.359433 -6.835359,-0.737365 0.21555,-1.155388 -4.806719,-1.352254 4.985743,-0.274777 0.04082,-1.174614 6.832154,0.766489 4.863784,-0.309299 4.68018,1.359433 6.83536,0.737365 -0.21361,1.155603 z m 0.71929,-4.078711 -5.10407,-1.040824 0.13642,-1.21914 -7.16962,-0.246363 -4.974425,-1.05841 -5.036465,0.692548 -7.170422,-0.277714 0.04706,1.225846 -5.164471,0.665546 5.102112,1.040753 -0.136416,1.21914 7.171565,0.246434 4.972476,1.058339 5.038415,-0.692477 7.16847,0.277643 -0.0471,-1.225846 z m -0.71632,-0.02618 -4.95044,0.638051 0.0431,1.174389 -6.86988,-0.265729 -4.828233,0.663507 -4.766921,-1.014176 -6.870949,-0.236448 0.130637,-1.16804 -4.892604,-0.997779 4.952385,-0.637979 -0.04503,-1.174461 6.869878,0.265729 4.828235,-0.663508 4.766918,1.014176 6.87095,0.236449 -0.12869,1.168112 z m 0.41963,-4.120334 -5.16642,-0.665474 0.0471,-1.225846 -7.16847,0.277642 -5.038418,-0.692477 -4.972476,1.058339 -7.171566,0.246435 0.136417,1.21914 -5.102113,1.040753 5.164472,0.665546 -0.04706,1.225845 7.170422,-0.277713 5.036465,0.692548 4.974428,-1.05841 7.16962,-0.246363 -0.13642,-1.219141 z m -0.71632,0.02618 -4.89065,0.997707 0.12869,1.168112 -6.87095,0.236448 -4.766922,1.014176 -4.828234,-0.663507 -6.869879,0.265729 0.04503,-1.17446 -4.952385,-0.63798 4.892604,-0.997778 -0.130637,-1.168041 6.870949,-0.236449 4.766921,-1.014176 4.828236,0.663508 6.86988,-0.265729 -0.0431,1.174389 z m 0.11776,-4.139974 -5.20122,-0.286574 -0.0426,-1.226011 -7.12908,0.800166 -5.075522,-0.322848 -4.881958,1.418483 -7.134445,0.769268 0.225044,1.20593 -5.012531,1.410406 5.199276,0.286789 0.04254,1.22601 7.131022,-0.80038 5.073582,0.323063 4.883897,-1.418697 7.13251,-0.769054 -0.22505,-1.20593 z m -0.7125,0.0784 -4.80478,1.352041 0.21361,1.155601 -6.83536,0.737365 -4.680173,1.359433 -4.863787,-0.309298 -6.832155,0.766489 -0.04082,-1.174614 -4.985744,-0.274776 4.806719,-1.352254 -0.215549,-1.15539 6.835359,-0.737364 4.680175,-1.359434 4.863788,0.309299 6.83215,-0.766489 0.0428,1.174401 z m -0.18476,-4.137524 -5.20826,0.09385 -0.13193,-1.219634 -7.05165,1.318421 -5.085553,0.0485 -4.765392,1.771059 -7.059259,1.287997 0.312471,1.186285 -4.896206,1.772536 5.20634,-0.0935 0.131925,1.219635 7.053574,-1.318776 5.083629,-0.04815 4.767311,-1.771414 7.05734,-1.287641 -0.31247,-1.186286 z m -0.70488,0.130196 -4.69326,1.69916 0.29739,1.136926 -6.7633,1.234347 -4.568457,1.697437 -4.87339,0.04656 -6.757978,1.26316 -0.126456,-1.168501 -4.9925,0.08989 4.695188,-1.699515 -0.299313,-1.136573 6.7633,-1.234347 4.568457,-1.697438 4.873389,-0.04656 6.75798,-1.26316 0.12837,1.168147 z m -0.48629,-4.113 -5.18751,0.473783 -0.2206,-1.206751 -6.9366,1.829641 -5.068448,0.419595 -4.6234,2.114185 -6.94641,1.799854 0.398231,1.160312 -4.753758,2.125207 5.185626,-0.473289 0.220601,1.206751 6.938492,-1.830135 5.066554,-0.4191 4.625292,-2.11468 6.94452,-1.79936 -0.39823,-1.160312 z m -0.69348,0.181302 -4.55672,2.037213 0.37959,1.112185 -6.65516,1.724743 -4.432361,2.026385 -4.85699,0.402171 -6.647745,1.753091 -0.211414,-1.156152 -4.97262,0.454081 4.558606,-2.037707 -0.381478,-1.111693 6.655156,-1.724743 4.432364,-2.026385 4.856992,-0.402171 6.64774,-1.75309 0.2133,1.15566 z m -0.78523,-4.066531 -5.13909,0.851183 -0.3081,-1.187429 -6.78454,2.3311 -5.024295,0.788448 -4.45674,2.446032 -6.796498,2.302107 0.481866,1.128148 -4.585946,2.46654 5.137244,-0.850553 0.308099,1.187429 6.786392,-2.331731 5.022445,-0.787817 4.458593,-2.446663 6.79465,-2.301476 -0.48187,-1.128148 z m -0.6784,0.231439 -4.39585,2.364398 0.45976,1.081509 -6.5115,2.205938 -4.27263,2.344521 -4.814676,0.755635 -6.502043,2.233669 -0.295244,-1.137636 -4.926208,0.815848 4.397701,-2.365028 -0.461609,-1.080881 6.511504,-2.205937 4.272624,-2.344522 4.814681,-0.755635 6.50204,-2.233668 0.29709,1.137007 z m -1.07997,-3.998365 -5.06325,1.224042 -0.39395,-1.161771 -6.596285,2.820121 -4.953337,1.153094 -4.266302,2.764828 -6.610324,2.792079 0.56293,1.089964 -4.393666,2.794712 5.061453,-1.223278 0.393954,1.161771 6.598082,-2.820885 4.951539,-1.15233 4.268096,-2.765592 6.60853,-2.791315 -0.56293,-1.089964 z m -0.6597,0.280343 -4.21153,2.678967 0.53748,1.045063 -6.333111,2.675362 -4.090088,2.650148 -4.746674,1.105069 -6.32165,2.702328 -0.377498,-1.11305 -4.853514,1.173262 4.213334,-2.67973 -0.539277,-1.044302 6.33311,-2.675362 4.090086,-2.650149 4.746676,-1.105068 6.321646,-2.702328 0.3793,1.112288 z m -1.36894,-3.908867 -4.9604,1.59037 -0.4777,-1.129915 -6.372835,3.294096 -4.855953,1.511589 -4.053101,3.068872 -6.38888,3.267152 0.64099,1.045966 -4.177944,3.107973 4.958657,-1.589477 0.477707,1.129916 6.374569,-3.294989 4.854215,-1.510695 4.054839,-3.069766 6.387146,-3.26626 -0.64099,-1.045965 z m -0.63748,0.32775 -4.00475,2.979243 0.61233,1.003042 -6.120922,3.130512 -3.885728,2.941635 -4.653347,1.448606 -6.107528,3.15657 -0.457739,-1.082525 -4.754923,1.524416 4.006486,-2.980136 -0.614067,-1.002151 6.120926,-3.130512 3.885727,-2.941636 4.653347,-1.448605 6.107528,-3.15657 0.45947,1.081634 z m -1.65062,-3.798512 -4.83107,1.948213 -0.55891,-1.09203 -6.115382,3.750495 -4.732659,1.862017 -3.818276,3.356543 -6.13335,3.724795 0.715631,0.996386 -3.939931,3.404653 4.829405,-1.947196 0.558911,1.092031 6.117044,-3.751513 4.730992,-1.861 3.819943,-3.35756 6.131682,-3.723778 -0.71563,-0.996386 z m -0.61185,0.373409 -3.7766,3.263622 0.68392,0.955669 -5.876087,3.56896 -3.660637,3.217428 -4.535191,1.784413 -5.860821,3.59397 -0.535536,-1.046224 -4.630963,1.867436 3.778262,-3.26464 -0.685582,-0.954653 5.876084,-3.56896 3.660635,-3.217428 4.535193,-1.784414 5.860823,-3.59397 0.5372,1.045209 z m -1.9235,-3.667892 -4.67597,2.295662 -0.637133,-1.04832 -5.825295,4.186884 -4.584116,2.202512 -3.563077,3.626305 -5.845095,4.162564 0.786453,0.94149 -3.680897,3.683167 4.674385,-2.294525 0.637133,1.048319 5.826883,-4.18802 4.582527,-2.201375 3.564667,-3.627442 5.843505,-4.161427 -0.78645,-0.94149 z m -0.58296,0.417075 -3.528291,3.53059 0.751851,0.903197 -5.599891,3.988365 -3.416014,3.476054 -4.392839,2.110701 -5.582842,4.012195 -0.610478,-1.004341 -4.482295,2.200493 3.52988,-3.531727 -0.753438,-0.902063 5.599891,-3.988365 3.416012,-3.476054 4.392841,-2.110701 5.582842,-4.012195 0.612064,1.003208 z m -2.1861,-3.5177 -4.495927,2.630861 -0.711956,-0.999015 -5.504131,4.600934 -4.411114,2.531255 -3.288869,3.876719 -5.525654,4.578124 0.853079,0.881571 -3.402223,3.942029 4.494425,-2.629612 0.711956,0.999015 5.505633,-4.602182 4.409612,-2.530006 3.290371,-3.877969 5.524153,-4.576875 -0.85308,-0.881571 z m -0.55096,0.458515 -3.261166,3.778721 0.815775,0.845905 -5.29382,4.386491 -3.153166,3.716134 -4.227048,2.425727 -5.275078,4.409013 -0.682161,-0.9571 -4.309712,2.521809 3.262663,-3.779969 -0.817274,-0.844659 5.29382,-4.386491 3.153164,-3.716134 4.22705,-2.425727 5.275078,-4.409013 0.68366,0.955853 z m -2.437048,-3.348741 -4.291892,2.952025 -0.78298,-0.944381 -5.153601,4.990436 -4.214577,2.846493 -2.997112,4.106449 -5.176732,4.969258 0.915154,0.816948 -3.105398,4.17986 4.290487,-2.950669 0.78298,0.94438 5.155007,-4.991791 4.21317,-2.845137 2.998519,-4.107805 5.175326,-4.967902 -0.915154,-0.816949 z m -0.516024,0.497511 -2.976634,4.006689 0.875346,0.784101 -4.959504,4.761213 -2.873493,3.936387 -4.038706,2.72781 -4.939168,4.782307 -0.750205,-0.904752 -4.114134,2.82967 2.978039,-4.008044 -0.87675,-0.782748 4.959504,-4.761214 2.873492,-3.936387 4.038707,-2.72781 4.939168,-4.782307 0.751609,0.9034 z m -2.674985,-3.161915 -4.064959,3.257437 -0.849826,-0.884707 -4.775575,5.353311 -3.995552,3.146544 -2.689366,4.314269 -4.800189,5.333879 0.972346,0.747967 -2.792003,4.395388 4.063655,-3.255983 0.849827,0.884708 4.776878,-5.354766 3.994248,-3.145089 2.69067,-4.315724 4.798886,-5.332424 -0.972346,-0.747967 z m -0.478332,0.53385 -2.676223,4.213281 0.930246,0.718113 -4.598727,5.110533 -2.57849,4.135637 -3.828814,3.01534 -4.576906,5.130085 -0.814246,-0.847577 -3.896606,3.122434 2.677526,-4.214735 -0.931549,-0.716662 4.598728,-5.110532 2.578488,-4.135637 3.828816,-3.01534 4.576906,-5.130085 0.815548,0.846125 z m -2.898653,-2.958218 -3.816337,3.54547 -0.912139,-0.820313 -4.372068,5.687624 -3.755211,3.429807 -2.36727,4.499071 -4.398035,5.67004 1.02435,0.674995 -2.463712,4.587466 3.815143,-3.543924 0.912139,0.820313 4.373262,-5.68917 3.754016,-3.42826 2.368465,-4.500618 4.396841,-5.668495 -1.02435,-0.674995 z m -0.438088,0.567342 -2.361534,4.397393 0.980184,0.648294 -4.213415,5.432584 -2.269729,4.312822 -3.598494,3.286782 -4.190224,5.450492 -0.873943,-0.78588 -3.658288,3.398538 2.362727,-4.398938 -0.981376,-0.646751 4.213415,-5.432585 2.269727,-4.312821 3.598496,-3.286782 4.190224,-5.450492 0.875135,0.784337 z m -3.106857,-2.738738 -3.547353,3.814586 -0.969585,-0.751543 -3.945234,5.991592 -3.494833,3.69477 -2.032544,4.659868 -3.972416,5.975951 1.070889,0.598421 -2.122276,4.755067 3.546276,-3.812958 0.969584,0.751544 3.946313,-5.993221 3.493754,-3.69314 2.033622,-4.661498 3.971339,-5.974322 -1.070889,-0.598421 z m -0.395505,0.597807 -2.034245,4.558042 1.024891,0.575016 -3.805621,5.725651 -1.948858,4.466996 -3.348975,3.540687 -3.781185,5.741818 -0.928977,-0.719989 -3.400452,3.65651 2.035322,-4.559671 -1.025967,-0.57339 3.805621,-5.725652 1.948857,-4.466996 3.348976,-3.540686 3.781185,-5.741819 0.930054,0.718364 z m -3.298484,-2.5046466 -3.259443,4.0633506 -1.021857,-0.678763 -3.497352,6.263591 -3.215808,3.94002 -1.686973,4.795803 -3.525603,6.249976 1.111714,0.518656 -1.769516,4.897298 3.258487,-4.061648 1.021857,0.678764 3.498308,-6.265295 3.214852,-3.938316 1.687929,-4.797507 3.524647,-6.248273 -1.111714,-0.518655 z m -0.350813,0.6250823 -1.696102,4.6943733 1.06413,0.498669 -3.377523,5.98817 -1.617589,4.597337 -3.081587,3.7757 -3.351972,6.00251 -0.979055,-0.650258 -3.124473,3.894973 1.697059,-4.696076 -1.065086,-0.49697 3.377523,-5.98817 1.617588,-4.597336 3.081588,-3.775701 3.351973,-6.002509 0.98001,0.648557 z M 80.417599,6.8761349 77.463457,11.16657 76.394779,10.564208 73.36397,17.06638 l -2.919626,4.164248 -1.332402,4.906151 -3.059978,6.490655 1.146608,0.436122 -1.407317,5.0134 2.953314,-4.288667 1.068677,0.602362 3.031638,-6.503941 2.918798,-4.162478 1.333231,-4.90792 3.059149,-6.488887 -1.146608,-0.436122 z m -0.304249,0.6490225 -1.34891,4.8056576 1.097692,0.419663 -2.931405,6.218738 -1.27769,4.703149 -2.797757,3.990569 -2.904875,6.231175 -1.023909,-0.577057 -2.831822,4.112654 1.349739,-4.807426 -1.098521,-0.417897 2.931405,-6.218738 1.277688,-4.703149 2.79776,-3.99057 2.904874,-6.231175 1.024738,0.575292 z m -3.628012,-1.9976922 -2.63308,4.4946278 -1.109796,-0.5227465 -2.548096,6.7060615 -2.607867,4.366258 -0.970721,4.990321 -2.578028,6.696704 1.175384,0.351262 -1.037608,5.102753 2.632382,-4.492804 1.109797,0.522747 2.548793,-6.707886 2.60717,-4.364433 0.971419,-4.992146 2.57733,-6.69488 -1.175384,-0.351261 z m -0.256062,0.6694998 -0.994522,4.891302 1.125398,0.338416 -2.469646,6.416127 -0.930974,4.783868 -2.499001,4.184147 -2.442279,6.426594 -1.0633,-0.500777 -2.524063,4.308392 0.995219,-4.893125 -1.126095,-0.336596 2.469646,-6.416127 0.930972,-4.783867 2.499003,-4.184148 2.442279,-6.426594 1.063997,0.498956 z M 72.46512,4.46943 70.167151,9.1442698 69.022157,8.7039279 66.97037,15.578098 l -2.282194,4.544972 -0.603861,5.047867 -2.082322,6.867024 1.197889,0.264526 -0.662363,5.164881 2.297406,-4.67297 1.144994,0.440342 2.05235,-6.876041 2.281631,-4.5431 0.604424,-5.049738 2.08176,-6.8651533 -1.197889,-0.2645265 z m -0.206509,0.6864052 -0.634826,4.9508488 1.147098,0.255365 -1.99471,6.579283 -0.57929,4.839062 -2.186912,4.3554 -1.966652,6.587725 -1.097018,-0.421825 -2.202837,4.481144 0.635389,-4.952719 -1.147661,-0.253498 1.99471,-6.579283 0.579289,-4.839062 2.186913,-4.355401 1.966652,-6.5877243 1.097581,0.4199578 z m -3.880216,-1.4481607 -1.950597,4.8301096 -1.174082,-0.355588 -1.544531,7.0056029 -1.944344,4.699437 -0.23378,5.078479 -1.575507,7.000704 1.214003,0.176381 -0.283584,5.199452 1.950173,-4.828204 1.174082,0.355588 1.544956,-7.007509 1.943919,-4.69753 0.234204,-5.080386 1.575083,-6.9987978 -1.214003,-0.1763805 z m -0.155853,0.6996482 -0.271744,4.9839802 1.162678,0.1709511 -1.509132,6.707336 -0.224516,4.868439 -1.863154,4.503415 -1.480533,6.713707 -1.124882,-0.340622 -1.869858,4.629985 0.272168,-4.985886 -1.163103,-0.169048 1.509132,-6.707336 0.224515,-4.868438 1.863155,-4.503416 1.480533,-6.713707 1.125307,0.3387193 z m -3.975574,-1.1610598 -1.592818,4.9596087 -1.196907,-0.268937 -1.029034,7.0996574 -1.59612,4.828828 0.137549,5.081997 -1.060285,7.097032 1.223638,0.08729 0.09671,5.206281 1.592534,-4.957676 1.196906,0.268937 1.029319,-7.10159 1.595836,-4.826895 -0.137265,-5.08393 1.060001,-7.0951 -1.223639,-0.087293 z m -0.104367,0.7091582 0.09279,4.9905205 1.172055,0.085625 -1.015502,6.7996024 0.131456,4.87184 -1.529455,4.627403 -0.986514,6.803868 -1.146745,-0.257602 -1.526903,4.754125 -0.0925,-4.992452 -1.17234,-0.0837 1.015502,-6.799603 -0.131458,-4.871839 1.529457,-4.627404 0.986514,-6.8038683 1.14703,0.2556736 z m -4.04972,-0.8677641 -1.22654,5.0626461 -1.213345,-0.1808509 -0.508047,7.1558328 -1.239381,4.932455 0.508144,5.058399 -0.539406,7.155495 1.226746,-0.0023 0.476485,5.185333 1.226398,-5.060698 1.213345,0.180851 0.50819,-7.157781 1.239238,-4.930506 -0.508002,-5.060348 0.539264,-7.1535472 -1.226746,0.00226 z m -0.05232,0.7148847 0.456826,4.970434 1.175178,-1.579e-4 -0.516453,6.8555902 0.486727,4.849247 -1.187597,4.726701 -0.487231,6.857729 -1.16249,-0.173208 -1.175801,4.852899 -0.456683,-4.972381 -1.175322,0.0021 0.516454,-6.85559 -0.486728,-4.849246 1.187597,-4.726703 0.487232,-6.8577283 1.162633,0.1712636 z"
       id="path1"
       inkscape:path-effect="#path-effect2"
       inkscape:original-d="m 55.938299,3.2327031 -0.853719,5.1386721 -1.223309,-0.0918 0.01565,7.1738278 -0.876028,5.009766 0.876028,5.007812 -0.01565,7.175781 1.223309,-0.0918 0.853719,5.136719 0.853719,-5.136719 1.223309,0.0918 -0.01565,-7.175781 0.876028,-5.007812 -0.876028,-5.009766 0.01565,-7.1738278 -1.223309,0.0918 z m 0,0.7167969 0.818425,4.9238282 1.172032,-0.08594 -0.01465,6.8749998 0.839401,4.800782 -0.839401,4.800781 0.01465,6.875 -1.172032,-0.08789 -0.818425,4.925781 -0.818425,-4.925781 -1.172033,0.08789 0.01465,-6.875 -0.839402,-4.800781 0.839402,-4.800782 -0.01465,-6.8749998 1.172033,0.08594 z" />
  </g>
</svg>
