<?xml version="1.0" encoding="UTF-8" standalone="no"?>
<!-- Created with Inkscape (http://www.inkscape.org/) -->

<svg
   width="120"
   height="120"
   viewBox="0 0 120 120"
   version="1.1"
   id="svg1"
   inkscape:version="1.4 (86a8ad7, 2024-10-11)"
   sodipodi:docname="mand_6.svg"
   xmlns:inkscape="http://www.inkscape.org/namespaces/inkscape"
   xmlns:sodipodi="http://sodipodi.sourceforge.net/DTD/sodipodi-0.dtd"
   xmlns="http://www.w3.org/2000/svg"
   xmlns:svg="http://www.w3.org/2000/svg">
  <sodipodi:namedview
     id="namedview1"
     pagecolor="#ffffff"
     bordercolor="#000000"
     borderopacity="0.25"
     inkscape:showpageshadow="2"
     inkscape:pageopacity="0.0"
     inkscape:pagecheckerboard="0"
     inkscape:deskcolor="#d1d1d1"
     inkscape:document-units="px"
     inkscape:zoom="3.4383067"
     inkscape:cx="44.789489"
     inkscape:cy="60.058632"
     inkscape:window-width="1147"
     inkscape:window-height="755"
     inkscape:window-x="-7"
     inkscape:window-y="0"
     inkscape:window-maximized="0"
     inkscape:current-layer="layer1" />
  <defs
     id="defs1" />
  <g
     inkscape:label="Layer 1"
     inkscape:groupmode="layer"
     id="layer1">
    <path
       id="path1"
       style="fill:#0000ff;stroke:none;stroke-width:0.2"
       d="M 57.554688 4.5898438 C 56.079163 5.7289892 54.417724 6.6130037 52.845703 7.6132812 C 51.736094 8.3752634 50.611098 9.1276399 49.580078 9.9882812 C 48.293095 9.6114319 46.962604 9.3705145 45.642578 9.1152344 C 43.801916 8.8258061 41.926778 8.677931 40.119141 8.2226562 L 38.544922 10.734375 L 35.634766 10.175781 C 34.736781 11.80932 33.565339 13.283377 32.523438 14.828125 C 32.005313 15.657631 31.474876 16.48448 30.990234 17.333984 C 30.022218 17.472087 29.0578 17.661052 28.095703 17.837891 C 26.27606 18.238773 24.476246 18.78318 22.626953 19.017578 L 22.076172 21.931641 L 19.160156 22.470703 C 18.918843 24.319106 18.366668 26.117417 17.958984 27.935547 C 17.710765 29.258152 17.445148 30.584571 17.322266 31.921875 C 16.143639 32.563618 15.030237 33.332601 13.914062 34.083984 C 12.405812 35.178054 10.973 36.396338 9.3710938 37.349609 L 10.03125 40.240234 L 7.5722656 41.898438 C 8.0890326 43.689464 8.3001985 45.558973 8.6523438 47.388672 C 8.8788442 48.377369 9.0911878 49.373936 9.3613281 50.351562 C 8.7512457 51.160905 8.1871688 52.009995 7.6132812 52.845703 C 6.6130015 54.417724 5.7289937 56.079161 4.5898438 57.554688 L 6.265625 60 L 4.5898438 62.447266 C 5.7289936 63.922791 6.6130012 65.582276 7.6132812 67.154297 C 8.3749739 68.263491 9.1280509 69.385881 9.9882812 70.416016 C 9.6109369 71.704808 9.3688302 73.035989 9.1132812 74.357422 C 8.8238511 76.198085 8.6759816 78.075173 8.2207031 79.882812 L 10.734375 81.455078 L 10.175781 84.367188 C 11.809324 85.26517 13.281422 86.434661 14.826172 87.476562 C 15.65689 87.995447 16.485302 88.524986 17.335938 89.009766 C 17.4745 89.978242 17.663003 90.942202 17.839844 91.904297 C 18.240724 93.723941 18.787089 95.525704 19.021484 97.375 L 21.933594 97.923828 L 22.474609 100.83984 C 24.323015 101.08115 26.119367 101.63334 27.9375 102.04102 C 29.259464 102.28912 30.585803 102.55476 31.921875 102.67773 C 32.564286 103.85632 33.332792 104.97005 34.083984 106.08594 C 35.178053 107.59419 36.398294 109.027 37.351562 110.62891 L 40.240234 109.96875 L 41.902344 112.42773 C 43.693372 111.91096 45.558972 111.69981 47.388672 111.34766 C 48.377368 111.12116 49.374375 110.90862 50.351562 110.63867 C 51.160904 111.24875 52.009995 111.81283 52.845703 112.38672 C 54.417723 113.38699 56.079162 114.27102 57.554688 115.41016 L 60 113.73438 L 62.447266 115.41016 C 63.922791 114.27102 65.582276 113.38699 67.154297 112.38672 C 68.263491 111.62502 69.385881 110.87195 70.416016 110.01172 C 71.704465 110.38887 73.036359 110.63124 74.357422 110.88672 C 76.19808 111.17614 78.073224 111.32403 79.880859 111.7793 L 81.455078 109.26562 L 84.367188 109.82617 C 85.265175 108.19264 86.432704 106.71857 87.474609 105.17383 C 87.993501 104.34309 88.524979 103.51472 89.009766 102.66406 C 89.978883 102.52548 90.943522 102.33711 91.90625 102.16016 C 93.725887 101.75927 95.525711 101.21292 97.375 100.97852 L 97.925781 98.066406 L 100.8418 97.525391 C 101.08312 95.676992 101.63528 93.880625 102.04297 92.0625 C 102.29106 90.740531 102.55533 89.414195 102.67773 88.078125 C 103.85666 87.435622 104.96976 86.667399 106.08594 85.916016 C 107.59418 84.821941 109.02701 83.601708 110.62891 82.648438 L 109.9707 79.757812 L 112.42773 78.097656 C 111.91097 76.30663 111.69979 74.439072 111.34766 72.609375 C 111.12101 71.620073 110.9093 70.624053 110.63867 69.646484 C 111.24875 68.837628 111.81283 67.989996 112.38672 67.154297 C 113.38699 65.582276 114.27102 63.922791 115.41016 62.447266 L 113.73438 60 L 115.41016 57.554688 C 114.27102 56.079163 113.38699 54.417723 112.38672 52.845703 C 111.62525 51.736851 110.87356 50.61249 110.01367 49.582031 C 110.39084 48.294492 110.63132 46.965174 110.88672 45.644531 C 111.17614 43.803872 111.32403 41.928729 111.7793 40.121094 L 109.26562 38.546875 L 109.82617 35.634766 C 108.19264 34.736779 106.71857 33.567294 105.17383 32.525391 C 104.34432 32.007266 103.51747 31.476828 102.66797 30.992188 C 102.52983 30.02278 102.33919 29.057219 102.16211 28.09375 C 101.76122 26.274113 101.21682 24.474289 100.98242 22.625 L 98.068359 22.074219 L 97.529297 19.160156 C 95.680898 18.918839 93.882577 18.36472 92.064453 17.957031 C 90.741846 17.708814 89.415429 17.443196 88.078125 17.320312 C 87.436533 16.14225 86.667074 15.029769 85.916016 13.914062 C 84.821941 12.405822 83.603662 10.972996 82.650391 9.3710938 L 79.759766 10.029297 L 78.101562 7.5722656 C 76.310537 8.0890274 74.441023 8.3002054 72.611328 8.6523438 C 71.622014 8.8789871 70.624695 9.0909443 69.646484 9.3613281 C 68.837628 8.7512532 67.989996 8.1871659 67.154297 7.6132812 C 65.582276 6.6130034 63.922791 5.7289893 62.447266 4.5898438 L 60 6.265625 L 57.554688 4.5898438 z M 60 19.054688 C 60.225263 19.554039 60.457789 20.224024 60.419922 20.666016 C 60.418822 20.678506 60.406734 20.703913 60.402344 20.720703 C 60.267995 20.773133 60.134017 20.825657 60 20.878906 C 59.864759 20.825166 59.729329 20.771657 59.59375 20.71875 C 59.58965 20.70284 59.579175 20.677966 59.578125 20.666016 C 59.540265 20.224017 59.774738 19.55404 60 19.054688 z M 51.5625 19.490234 C 53.376044 20.523164 55.187643 21.560646 57 22.595703 L 52.892578 25.888672 L 47.814453 24.509766 C 49.063057 22.83685 50.311902 21.161696 51.5625 19.490234 z M 67.630859 19.951172 C 68.742517 21.33803 69.8518 22.726125 70.962891 24.113281 L 66.578125 25.466797 L 62.998047 22.595703 C 64.54159 21.714169 66.086343 20.831988 67.630859 19.951172 z M 75.056641 21.923828 C 75.082501 22.471025 75.051294 23.179074 74.853516 23.576172 C 74.847916 23.587342 74.828629 23.607084 74.818359 23.621094 C 74.674152 23.620415 74.528993 23.618841 74.384766 23.619141 C 74.278745 23.519471 74.173034 23.421315 74.066406 23.322266 C 74.068506 23.305956 74.068766 23.279008 74.072266 23.267578 C 74.199574 22.842628 74.663543 22.305362 75.056641 21.923828 z M 43.652344 22.460938 C 44.058248 22.828819 44.53793 23.349178 44.679688 23.769531 C 44.683687 23.781421 44.682847 23.810975 44.685547 23.828125 C 44.583305 23.929836 44.48247 24.030484 44.380859 24.132812 C 44.235409 24.137512 44.088787 24.142767 43.943359 24.148438 C 43.933249 24.135487 43.913933 24.117962 43.908203 24.107422 C 43.697015 23.717298 43.645192 23.008701 43.652344 22.460938 z M 57.085938 23.558594 C 56.894678 23.677566 56.704062 23.798056 56.509766 23.912109 C 54.101462 25.2479 54.822693 24.848201 57.085938 23.558594 z M 62.929688 23.566406 C 65.18329 24.850479 65.892339 25.245545 63.488281 23.912109 C 63.298699 23.800822 63.116377 23.682377 62.929688 23.566406 z M 59.998047 24.300781 C 61.22049 24.993219 62.447291 25.680835 63.675781 26.363281 L 59.447266 27.667969 L 55.765625 26.667969 C 55.781673 26.659555 55.800532 26.657224 55.816406 26.648438 C 57.215379 25.87408 58.606758 25.088856 59.998047 24.300781 z M 70.689453 25.039062 C 70.467842 25.079362 70.248013 25.121636 70.025391 25.15625 C 68.660009 25.334571 68.181753 25.399013 68.367188 25.371094 C 68.552622 25.343174 69.40001 25.222577 70.689453 25.039062 z M 48.138672 25.427734 C 50.717541 25.705221 51.525585 25.784159 48.789062 25.521484 C 48.570813 25.495144 48.356139 25.459514 48.138672 25.427734 z M 82.744141 25.431641 C 83.292212 27.445058 83.835095 29.460544 84.380859 31.474609 L 79.150391 30.888672 L 76.542969 26.318359 C 78.609352 26.02219 80.677398 25.725367 82.744141 25.431641 z M 37.113281 26.339844 C 38.847143 26.527395 40.580786 26.716002 42.314453 26.904297 L 40.212891 30.898438 L 35.724609 31.384766 C 36.186966 29.703443 36.649839 28.021261 37.113281 26.339844 z M 73.125 26.802734 C 74.129384 28.047635 75.139672 29.288474 76.15625 30.523438 C 76.166798 30.536252 76.180606 30.546018 76.191406 30.558594 L 72.402344 30.134766 L 68.949219 27.367188 C 70.341928 27.184118 71.733421 26.997172 73.125 26.802734 z M 76.121094 27.197266 C 76.932864 28.208661 77.466321 28.869115 77.580078 29.013672 C 77.693835 29.158228 77.386325 28.784665 76.513672 27.722656 C 76.378299 27.549453 76.252065 27.373759 76.121094 27.197266 z M 45.744141 27.271484 C 47.33494 27.43858 48.929116 27.600507 50.521484 27.751953 C 50.537714 27.753497 50.554075 27.750743 50.570312 27.751953 L 47.646484 30.095703 L 43.244141 30.572266 C 44.082114 29.475454 44.914475 28.374941 45.744141 27.271484 z M 66.199219 27.451172 C 67.081256 27.805355 67.961922 28.161473 68.845703 28.513672 C 69.186164 28.681506 69.526575 28.854082 69.869141 29.017578 C 70.177659 29.164825 70.493508 29.291544 70.798828 29.445312 C 71.191522 29.643092 71.571534 29.864836 71.953125 30.083984 L 71.386719 30.021484 C 71.699855 30.120634 72.016937 30.208218 72.333984 30.294922 C 72.620917 30.459172 72.908465 30.622776 73.201172 30.775391 L 72.753906 30.416016 C 73.179131 30.531599 73.605204 30.644276 74.023438 30.783203 C 74.347863 30.890973 74.662315 31.025987 74.984375 31.140625 C 75.341978 31.267915 75.703311 31.387029 76.0625 31.509766 C 76.756895 31.809957 77.452682 32.107095 78.148438 32.404297 C 78.698745 32.927753 79.249159 33.450945 79.802734 33.972656 C 80.057628 34.253924 80.311868 34.540351 80.570312 34.818359 C 80.803072 35.068735 81.049958 35.301376 81.277344 35.556641 C 81.552403 35.865432 81.806246 36.192186 82.064453 36.515625 L 81.523438 36.228516 C 81.796024 36.448704 82.07592 36.660034 82.357422 36.869141 C 82.575039 37.141778 82.795462 37.412488 83.023438 37.675781 L 82.720703 37.148438 C 83.051353 37.394143 83.384345 37.635071 83.701172 37.898438 C 83.964058 38.116971 84.206662 38.357963 84.464844 38.582031 C 84.751519 38.830828 85.046126 39.073225 85.335938 39.318359 C 86.027127 40.003292 86.721438 40.683505 87.414062 41.367188 C 87.792741 42.258825 88.167308 43.151305 88.548828 44.042969 C 88.670222 44.402616 88.788112 44.766924 88.914062 45.125 C 89.027496 45.447487 89.161023 45.75916 89.267578 46.083984 C 89.396471 46.476916 89.499829 46.877711 89.607422 47.277344 L 89.224609 46.798828 C 89.386611 47.109539 89.559774 47.414638 89.734375 47.71875 C 89.825035 48.055601 89.917593 48.39219 90.021484 48.724609 L 89.955078 48.119141 C 90.160126 48.476431 90.369364 48.831256 90.554688 49.199219 C 90.708456 49.50454 90.835175 49.822342 90.982422 50.130859 C 91.145918 50.473425 91.318494 50.811884 91.486328 51.152344 C 91.767266 51.857308 92.050379 52.561571 92.333984 53.265625 C 92.354628 54.023394 92.376491 54.780498 92.400391 55.539062 C 92.382451 55.918219 92.358823 56.300332 92.345703 56.679688 C 92.333883 57.021338 92.343279 57.359849 92.324219 57.701172 C 92.299629 58.141058 92.247891 58.579343 92.199219 59.017578 L 92.03125 58.46875 C 92.06541 58.79583 92.111166 59.123224 92.158203 59.449219 C 92.122173 59.777869 92.087503 60.106248 92.064453 60.435547 L 92.214844 59.882812 C 92.278434 60.318961 92.347132 60.754738 92.386719 61.193359 C 92.417449 61.53383 92.417916 61.873796 92.441406 62.214844 C 92.467486 62.593529 92.502323 62.97324 92.533203 63.351562 C 92.535734 64.303005 92.542221 65.252641 92.546875 66.203125 C 92.193219 67.083807 91.83799 67.963271 91.486328 68.845703 C 91.318494 69.186164 91.145918 69.526575 90.982422 69.869141 C 90.835175 70.177659 90.708455 70.493508 90.554688 70.798828 C 90.35651 71.192313 90.13366 71.572723 89.914062 71.955078 L 89.978516 71.384766 C 89.879246 71.698283 89.792112 72.01632 89.705078 72.333984 C 89.540828 72.620917 89.377224 72.908465 89.224609 73.201172 L 89.583984 72.753906 C 89.468144 73.179171 89.35563 73.605489 89.216797 74.023438 C 89.109027 74.34786 88.974014 74.660361 88.859375 74.982422 C 88.732085 75.340024 88.612971 75.70331 88.490234 76.0625 C 88.189082 76.759116 87.889959 77.455486 87.591797 78.152344 C 87.069268 78.702526 86.547548 79.252711 86.027344 79.804688 C 85.746076 80.05958 85.459649 80.311867 85.181641 80.570312 C 84.931265 80.803071 84.698628 81.05191 84.443359 81.279297 C 84.135234 81.553764 83.810856 81.807197 83.488281 82.064453 L 83.771484 81.523438 C 83.552345 81.794725 83.343212 82.07518 83.134766 82.355469 C 82.861026 82.573718 82.588689 82.792489 82.324219 83.021484 L 82.855469 82.716797 C 82.608327 83.049056 82.364105 83.384939 82.099609 83.703125 C 81.881076 83.96601 81.642037 84.208614 81.417969 84.466797 C 81.169172 84.753471 80.926777 85.046127 80.681641 85.335938 C 79.998408 86.025411 79.319646 86.717711 78.638672 87.408203 C 77.744243 87.788714 76.848456 88.166575 75.955078 88.548828 C 75.595432 88.670221 75.233076 88.788111 74.875 88.914062 C 74.552514 89.027496 74.238889 89.161023 73.914062 89.267578 C 73.521976 89.396194 73.12307 89.500355 72.724609 89.607422 L 73.201172 89.224609 C 72.891942 89.385839 72.588178 89.558671 72.285156 89.732422 C 71.947042 89.823222 71.609297 89.915175 71.275391 90.019531 L 71.884766 89.953125 C 71.525518 90.159075 71.168369 90.36857 70.798828 90.554688 C 70.493508 90.708455 70.177659 90.835175 69.869141 90.982422 C 69.526575 91.145918 69.186164 91.318494 68.845703 91.486328 C 68.140634 91.767308 67.437416 92.050337 66.734375 92.333984 C 65.976088 92.355059 65.217041 92.376507 64.458984 92.400391 C 64.079828 92.382451 63.701621 92.360776 63.322266 92.347656 C 62.980616 92.335836 62.638199 92.345262 62.296875 92.326172 C 61.857285 92.301602 61.419933 92.249994 60.982422 92.201172 L 61.53125 92.03125 C 61.202191 92.06562 60.872887 92.1128 60.544922 92.160156 C 60.218376 92.124226 59.891938 92.089336 59.564453 92.066406 L 60.115234 92.214844 C 59.679791 92.278324 59.244553 92.345242 58.806641 92.384766 C 58.466169 92.415496 58.126204 92.415963 57.785156 92.439453 C 57.406471 92.465523 57.026761 92.502323 56.648438 92.533203 C 55.698298 92.535731 54.749741 92.543659 53.800781 92.548828 C 52.917913 92.194752 52.03585 91.838418 51.152344 91.486328 C 50.811884 91.318494 50.473425 91.145918 50.130859 90.982422 C 49.822342 90.835175 49.50454 90.708456 49.199219 90.554688 C 48.805999 90.356644 48.426553 90.133511 48.044922 89.914062 L 48.615234 89.978516 C 48.29982 89.878646 47.979751 89.790658 47.660156 89.703125 C 47.375114 89.539802 47.089923 89.376384 46.798828 89.224609 L 47.244141 89.582031 C 46.819574 89.466392 46.393836 89.353452 45.976562 89.214844 C 45.652138 89.107074 45.339639 88.97206 45.017578 88.857422 C 44.659976 88.730131 44.29669 88.611019 43.9375 88.488281 C 43.241529 88.187408 42.545822 87.889121 41.849609 87.591797 C 41.298758 87.068636 40.747959 86.546226 40.195312 86.025391 C 39.940419 85.744124 39.688132 85.461602 39.429688 85.183594 C 39.196931 84.933218 38.948089 84.696674 38.720703 84.441406 C 38.447187 84.13435 38.19388 83.811676 37.9375 83.490234 L 38.476562 83.773438 C 38.205963 83.554855 37.928008 83.344646 37.648438 83.136719 C 37.42931 82.861848 37.208448 82.587817 36.978516 82.322266 L 37.283203 82.857422 C 36.950945 82.610281 36.617014 82.366059 36.298828 82.101562 C 36.035943 81.88303 35.793338 81.643991 35.535156 81.419922 C 35.248481 81.171125 34.953875 80.926776 34.664062 80.681641 C 33.975321 79.999134 33.283514 79.322818 32.59375 78.642578 C 32.212415 77.746271 31.834232 76.848389 31.451172 75.953125 C 31.329779 75.593479 31.211889 75.233076 31.085938 74.875 C 30.972506 74.552514 30.838977 74.236935 30.732422 73.912109 C 30.604252 73.521383 30.501247 73.123636 30.394531 72.726562 L 30.775391 73.201172 C 30.61457 72.892726 30.442832 72.589368 30.269531 72.287109 C 30.178371 71.947607 30.085252 71.608709 29.980469 71.273438 L 30.046875 71.884766 C 29.840925 71.525518 29.631431 71.168369 29.445312 70.798828 C 29.291543 70.493508 29.164825 70.177659 29.017578 69.869141 C 28.854082 69.526575 28.681506 69.186164 28.513672 68.845703 C 28.232692 68.140634 27.949663 67.437416 27.666016 66.734375 C 27.644949 65.976352 27.623485 65.21873 27.599609 64.460938 C 27.617549 64.081782 27.641177 63.701621 27.654297 63.322266 C 27.666117 62.980616 27.654738 62.638199 27.673828 62.296875 C 27.698398 61.857284 27.751959 61.421886 27.800781 60.984375 L 27.96875 61.53125 C 27.93456 61.203946 27.887031 60.876697 27.839844 60.550781 C 27.875954 60.22279 27.912517 59.895341 27.935547 59.566406 L 27.783203 60.119141 C 27.719393 59.683132 27.652895 59.247515 27.613281 58.808594 C 27.582551 58.468122 27.584037 58.126203 27.560547 57.785156 C 27.534477 57.406471 27.497677 57.028713 27.466797 56.650391 C 27.464268 55.699918 27.457498 54.749071 27.453125 53.798828 C 27.806894 52.916748 28.161895 52.035064 28.513672 51.152344 C 28.681506 50.811884 28.854082 50.473425 29.017578 50.130859 C 29.164825 49.822342 29.291543 49.50454 29.445312 49.199219 C 29.643356 48.805998 29.866489 48.426553 30.085938 48.044922 L 30.021484 48.613281 C 30.120824 48.299549 30.208061 47.981716 30.294922 47.664062 C 30.458987 47.377769 30.622944 47.091212 30.775391 46.798828 L 30.416016 47.246094 C 30.531599 46.820869 30.644275 46.394796 30.783203 45.976562 C 30.890972 45.652138 31.02794 45.337685 31.142578 45.015625 C 31.269869 44.658023 31.387029 44.296689 31.509766 43.9375 C 31.810717 43.24135 32.109683 42.544608 32.408203 41.847656 C 32.930396 41.298689 33.452209 40.7495 33.972656 40.197266 C 34.253923 39.942373 34.540352 39.688132 34.818359 39.429688 C 35.068736 39.196928 35.301374 38.950043 35.556641 38.722656 C 35.864496 38.44843 36.189271 38.192985 36.511719 37.935547 L 36.228516 38.476562 C 36.448149 38.204664 36.658599 37.925317 36.867188 37.644531 C 37.140955 37.426034 37.413361 37.205475 37.677734 36.976562 L 37.146484 37.28125 C 37.39219 36.9506 37.635071 36.615655 37.898438 36.298828 C 38.116971 36.035942 38.357964 35.793339 38.582031 35.535156 C 38.830828 35.248481 39.071272 34.955828 39.316406 34.666016 C 40.001168 33.974999 40.683678 33.280344 41.367188 32.587891 C 42.259608 32.208869 43.152472 31.833028 44.044922 31.451172 C 44.404568 31.329779 44.766924 31.211889 45.125 31.085938 C 45.447487 30.972503 45.761111 30.838977 46.085938 30.732422 C 46.47768 30.603919 46.876973 30.499863 47.275391 30.392578 L 46.798828 30.775391 C 47.108755 30.613798 47.413448 30.441729 47.716797 30.267578 C 48.055036 30.176558 48.392779 30.082834 48.726562 29.978516 L 48.119141 30.044922 C 48.476431 29.839874 48.831256 29.630635 49.199219 29.445312 C 49.50454 29.291542 49.822342 29.164825 50.130859 29.017578 C 50.473425 28.854082 50.811884 28.681506 51.152344 28.513672 C 51.856746 28.232957 52.560179 27.949397 53.263672 27.666016 C 54.021698 27.645364 54.780241 27.62547 55.539062 27.601562 C 55.918219 27.619502 56.298379 27.641177 56.677734 27.654297 C 57.019385 27.666117 57.359849 27.656711 57.701172 27.675781 C 58.140174 27.700321 58.576317 27.75222 59.013672 27.800781 L 58.470703 27.96875 C 58.797386 27.93463 59.121969 27.888894 59.447266 27.841797 C 59.775916 27.877827 60.106249 27.912487 60.435547 27.935547 L 59.880859 27.785156 C 60.316868 27.721346 60.752486 27.65485 61.191406 27.615234 C 61.531879 27.584504 61.873797 27.582084 62.214844 27.558594 C 62.59353 27.532514 62.973242 27.497677 63.351562 27.466797 C 64.300734 27.464272 65.24999 27.456281 66.199219 27.451172 z M 42.777344 27.753906 C 42.649492 27.939348 42.523224 28.12645 42.390625 28.308594 C 40.715951 30.494854 41.217226 29.839906 42.777344 27.753906 z M 31.101562 30.992188 C 31.613578 31.186954 32.251984 31.498045 32.537109 31.837891 C 32.545109 31.847491 32.55376 31.873672 32.5625 31.888672 C 32.50433 32.020636 32.446031 32.152846 32.388672 32.285156 C 32.254935 32.342536 32.12167 32.400776 31.988281 32.458984 C 31.974151 32.450584 31.950576 32.439371 31.941406 32.431641 C 31.602627 32.14524 31.294415 31.504928 31.101562 30.992188 z M 89.007812 31.101562 C 88.813046 31.613578 88.501955 32.250035 88.162109 32.535156 C 88.152509 32.543156 88.126338 32.55376 88.111328 32.5625 C 87.979385 32.5043 87.84719 32.445995 87.714844 32.388672 C 87.657434 32.254963 87.599229 32.121665 87.541016 31.988281 C 87.549416 31.974151 87.560639 31.948563 87.568359 31.939453 C 87.854749 31.600675 88.495072 31.294413 89.007812 31.101562 z M 38.611328 31.509766 C 38.788935 31.463526 38.324062 31.596606 37.001953 31.972656 C 36.789103 32.027616 36.575436 32.071486 36.361328 32.121094 C 37.612724 31.780653 38.433721 31.556003 38.611328 31.509766 z M 81.498047 31.591797 C 81.679208 31.640237 82.504289 31.868262 83.759766 32.214844 C 83.540494 32.163314 83.321445 32.113789 83.103516 32.056641 C 81.78049 31.674976 81.316887 31.543356 81.498047 31.591797 z M 80.625 33.474609 C 80.642519 33.48012 80.658116 33.490981 80.675781 33.496094 C 82.211731 33.940636 83.748821 34.373316 85.289062 34.802734 C 85.655214 36.135309 86.029026 37.46701 86.40625 38.796875 L 82.484375 36.734375 L 80.625 33.474609 z M 38.796875 33.59375 L 36.734375 37.515625 L 33.476562 39.373047 C 33.481874 39.356111 33.493107 39.341285 33.498047 39.324219 C 33.94259 37.78827 34.373316 36.251179 34.802734 34.710938 C 36.134786 34.344928 37.467131 33.97082 38.796875 33.59375 z M 31.476562 35.619141 L 30.890625 40.849609 L 26.318359 43.457031 C 26.02219 41.390648 25.725365 39.322601 25.431641 37.255859 C 27.445663 36.707619 29.461892 36.165069 31.476562 35.619141 z M 88.615234 35.724609 C 90.296557 36.186965 91.978739 36.649839 93.660156 37.113281 C 93.472536 38.847787 93.284068 40.582096 93.095703 42.316406 L 89.101562 40.214844 L 88.615234 35.724609 z M 32.216797 36.240234 C 32.165277 36.459505 32.115742 36.678555 32.058594 36.896484 C 31.295263 39.542536 31.523636 38.751186 32.216797 36.240234 z M 87.878906 36.361328 C 88.219345 37.612724 88.443655 38.43142 88.490234 38.609375 C 88.536814 38.787328 88.403394 38.322109 88.027344 37 C 87.972384 36.787151 87.928514 36.575436 87.878906 36.361328 z M 90.367188 41.373047 C 90.518259 41.484144 91.205048 41.999238 92.248047 42.779297 C 92.062606 42.651445 91.875504 42.525178 91.693359 42.392578 C 90.600228 41.555242 90.216115 41.261949 90.367188 41.373047 z M 29.015625 42.419922 C 29.16 42.306616 28.786618 42.613675 27.724609 43.486328 C 27.551405 43.621702 27.371806 43.747935 27.195312 43.878906 C 28.206708 43.067134 28.87125 42.533227 29.015625 42.419922 z M 89.427734 43.244141 C 90.525209 44.082634 91.624387 44.915922 92.728516 45.746094 C 92.56142 47.336893 92.399491 48.929118 92.248047 50.521484 C 92.246503 50.537714 92.249257 50.554075 92.248047 50.570312 L 89.904297 47.646484 L 89.427734 43.244141 z M 97.539062 43.652344 C 97.171183 44.058248 96.65082 44.539888 96.230469 44.681641 C 96.218569 44.685641 96.190988 44.6848 96.173828 44.6875 C 96.072144 44.585245 95.969564 44.482449 95.867188 44.380859 C 95.862387 44.235425 95.857233 44.090738 95.851562 43.945312 C 95.864503 43.935203 95.884021 43.913873 95.894531 43.908203 C 96.284642 43.69701 96.991302 43.645191 97.539062 43.652344 z M 30.558594 43.810547 L 30.134766 47.597656 L 27.369141 51.046875 C 27.185819 49.655011 26.99512 48.265883 26.800781 46.875 C 28.04568 45.870616 29.290426 44.860327 30.525391 43.84375 C 30.537493 43.833788 30.546705 43.820734 30.558594 43.810547 z M 21.923828 44.943359 C 22.471026 44.917499 23.17907 44.948785 23.576172 45.146484 C 23.587342 45.152084 23.607094 45.171381 23.621094 45.181641 C 23.620451 45.325855 23.618941 45.471026 23.619141 45.615234 C 23.519431 45.721239 23.421321 45.826969 23.322266 45.933594 C 23.305956 45.931494 23.279068 45.931234 23.267578 45.927734 C 22.842623 45.800416 22.305363 45.336456 21.923828 44.943359 z M 95.490234 47.814453 C 97.16315 49.063057 98.838301 50.311903 100.50977 51.5625 C 99.476831 53.376044 98.439354 55.187643 97.404297 57 L 94.111328 52.894531 L 95.490234 47.814453 z M 94.572266 48.140625 C 94.433522 49.430059 94.345656 50.274335 94.324219 50.457031 C 94.302779 50.639729 94.347178 50.159276 94.478516 48.791016 C 94.504856 48.572767 94.540486 48.358093 94.572266 48.140625 z M 24.113281 49.035156 L 25.464844 53.419922 L 22.595703 57 C 21.714215 55.456537 20.831942 53.913133 19.951172 52.369141 C 21.338081 51.257441 22.726075 50.146289 24.113281 49.035156 z M 25.041016 49.310547 C 25.081326 49.532152 25.123589 49.751986 25.158203 49.974609 C 25.514844 52.705373 25.408049 51.88943 25.041016 49.310547 z M 24.720703 55.046875 C 24.814853 54.884699 24.580005 55.305614 23.912109 56.509766 C 23.798056 56.704062 23.677566 56.894678 23.558594 57.085938 C 24.203397 55.954315 24.626551 55.209051 24.720703 55.046875 z M 95.279297 55.046875 C 95.373447 55.209051 95.796603 55.954316 96.441406 57.085938 C 96.322434 56.894677 96.201944 56.704062 96.087891 56.509766 C 95.419995 55.305614 95.185147 54.884699 95.279297 55.046875 z M 93.332031 55.767578 C 93.340175 55.783085 93.343069 55.801062 93.351562 55.816406 C 94.125923 57.215379 94.911144 58.606758 95.699219 59.998047 C 95.006781 61.22049 94.319164 62.447291 93.636719 63.675781 L 92.333984 59.447266 L 93.332031 55.767578 z M 26.361328 56.326172 L 27.666016 60.554688 L 26.667969 64.232422 C 26.660095 64.217456 26.656638 64.200361 26.648438 64.185547 C 25.873804 62.786079 25.089138 61.389829 24.300781 59.998047 C 24.992712 58.776494 25.679218 57.552942 26.361328 56.326172 z M 20.666016 59.578125 C 20.677916 59.579125 20.70285 59.58964 20.71875 59.59375 C 20.77166 59.729329 20.825206 59.864759 20.878906 60 C 20.825656 60.134017 20.773103 60.267995 20.720703 60.402344 C 20.703903 60.406744 20.678516 60.418822 20.666016 60.419922 C 20.224026 60.457792 19.554046 60.225263 19.054688 60 C 19.554046 59.774738 20.224016 59.540265 20.666016 59.578125 z M 99.333984 59.578125 C 99.775974 59.540255 100.44596 59.774737 100.94531 60 C 100.44596 60.225263 99.775974 60.457792 99.333984 60.419922 C 99.321484 60.418822 99.296097 60.406744 99.279297 60.402344 C 99.226897 60.267994 99.174394 60.134017 99.121094 60 C 99.174794 59.864759 99.22835 59.729329 99.28125 59.59375 C 99.29715 59.58965 99.322084 59.579125 99.333984 59.578125 z M 23.566406 62.929688 C 23.682377 63.116379 23.800822 63.298699 23.912109 63.488281 C 25.245545 65.892339 24.850479 65.18329 23.566406 62.929688 z M 96.433594 62.929688 C 95.791557 64.056488 95.371897 64.796135 95.279297 64.955078 C 95.186697 65.114022 95.421173 64.69031 96.087891 63.488281 C 96.199178 63.298699 96.317623 63.116379 96.433594 62.929688 z M 22.595703 62.998047 L 25.886719 67.103516 L 24.507812 72.185547 C 22.834491 70.936641 21.16012 69.690302 19.488281 68.439453 C 20.521649 66.625067 21.560201 64.811184 22.595703 62.998047 z M 97.404297 62.998047 C 98.285831 64.54159 99.168009 66.086343 100.04883 67.630859 C 98.66189 68.742983 97.27177 69.853872 95.884766 70.964844 L 94.533203 66.580078 L 97.404297 62.998047 z M 94.628906 68.363281 C 94.656576 68.545137 94.776267 69.387935 94.958984 70.671875 C 94.919794 70.455618 94.875577 70.244566 94.841797 70.027344 C 94.663792 68.66437 94.601243 68.181423 94.628906 68.363281 z M 92.630859 68.951172 C 92.813928 70.344175 93.002902 71.737866 93.197266 73.128906 C 91.95281 74.132935 90.711089 75.138079 89.476562 76.154297 C 89.463748 76.164845 89.453984 76.178659 89.441406 76.189453 L 89.865234 72.402344 L 92.630859 68.951172 z M 27.751953 69.429688 L 30.097656 72.355469 L 30.574219 76.759766 C 29.475918 75.919908 28.374294 75.082599 27.269531 74.251953 C 27.436566 72.661718 27.600561 71.072273 27.751953 69.480469 C 27.753564 69.463534 27.750705 69.446631 27.751953 69.429688 z M 25.677734 69.544922 C 25.699304 69.358643 25.651099 69.838306 25.519531 71.208984 C 25.492541 71.432659 25.458501 71.656051 25.425781 71.878906 C 25.565136 70.583946 25.656164 69.731203 25.677734 69.544922 z M 96.673828 74.068359 C 96.691068 74.070459 96.720392 74.070619 96.732422 74.074219 C 97.157371 74.201528 97.694638 74.663543 98.076172 75.056641 C 97.528974 75.082501 96.820927 75.053177 96.423828 74.855469 C 96.413138 74.850169 96.394129 74.829983 96.380859 74.820312 C 96.381514 74.674774 96.379114 74.530278 96.378906 74.384766 C 96.477706 74.279722 96.575697 74.174027 96.673828 74.068359 z M 23.824219 75.3125 C 23.926861 75.415678 24.02958 75.518541 24.132812 75.621094 C 24.137512 75.765226 24.142838 75.908637 24.148438 76.052734 C 24.134788 76.063474 24.116489 76.083844 24.105469 76.089844 C 23.715358 76.301038 23.006753 76.35676 22.458984 76.349609 C 22.826872 75.943703 23.349175 75.460125 23.769531 75.318359 C 23.780841 75.314559 23.807999 75.3151 23.824219 75.3125 z M 92.818359 76.111328 C 91.802619 76.926565 91.133518 77.463885 90.986328 77.580078 C 90.83914 77.696269 91.21346 77.389818 92.277344 76.515625 C 92.454854 76.376883 92.637393 76.245442 92.818359 76.111328 z M 93.681641 76.542969 C 93.977809 78.609341 94.274662 80.675512 94.568359 82.742188 C 92.554866 83.290326 90.537515 83.835091 88.523438 84.380859 L 89.109375 79.150391 L 93.681641 76.542969 z M 27.765625 77.234375 C 27.946491 77.359236 28.128915 77.47804 28.306641 77.607422 C 30.489047 79.279143 29.842701 78.787862 27.765625 77.234375 z M 26.904297 77.683594 L 30.900391 79.785156 L 31.384766 84.273438 C 29.702976 83.810953 28.021258 83.349822 26.339844 82.886719 C 26.527219 81.152312 26.71599 79.417376 26.904297 77.683594 z M 86.523438 80.625 C 86.51839 80.641143 86.508615 80.655607 86.503906 80.671875 C 86.059206 82.208367 85.624882 83.750225 85.195312 85.291016 C 83.863424 85.656982 82.533803 86.02797 81.205078 86.404297 L 83.267578 82.482422 L 86.523438 80.625 z M 33.595703 81.205078 L 37.517578 83.267578 L 39.375 86.523438 C 39.358857 86.51839 39.344393 86.508615 39.328125 86.503906 C 37.791632 86.059207 36.249774 85.622928 34.708984 85.193359 C 34.343184 83.862074 33.971852 82.5332 33.595703 81.205078 z M 31.511719 81.390625 C 31.463959 81.209284 31.593989 81.671649 31.970703 82.996094 C 32.027033 83.214235 32.076248 83.434835 32.126953 83.654297 C 31.78507 82.397534 31.55948 81.571966 31.511719 81.390625 z M 88.410156 81.494141 C 88.362916 81.671921 88.136133 82.492074 87.791016 83.742188 C 87.841426 83.528267 87.885646 83.316159 87.941406 83.103516 C 88.322399 81.782823 88.457404 81.316363 88.410156 81.494141 z M 31.886719 87.435547 C 32.019891 87.494247 32.153616 87.55342 32.287109 87.611328 C 32.343969 87.743852 32.401285 87.875652 32.458984 88.007812 C 32.450184 88.022783 32.439721 88.048994 32.431641 88.058594 C 32.145249 88.39737 31.506888 88.705582 30.994141 88.898438 C 31.188915 88.386415 31.498045 87.746072 31.837891 87.460938 C 31.847091 87.453238 31.872559 87.443867 31.886719 87.435547 z M 88.007812 87.541016 C 88.022783 87.549816 88.048994 87.560279 88.058594 87.568359 C 88.397371 87.854749 88.705587 88.493119 88.898438 89.005859 C 88.386421 88.811093 87.748012 88.501955 87.462891 88.162109 C 87.455191 88.153009 87.44581 88.127451 87.4375 88.113281 C 87.49621 87.980109 87.55342 87.846384 87.611328 87.712891 C 87.743852 87.656031 87.875652 87.598716 88.007812 87.541016 z M 36.257812 87.789062 C 36.471733 87.839472 36.683841 87.885642 36.896484 87.941406 C 39.537871 88.703391 38.75804 88.479302 36.257812 87.789062 z M 83.65625 87.873047 C 82.399486 88.21493 81.571966 88.44052 81.390625 88.488281 C 81.209286 88.536041 81.673603 88.406011 82.998047 88.029297 C 83.216189 87.972967 83.436786 87.923753 83.65625 87.873047 z M 35.619141 88.523438 L 40.849609 89.109375 L 43.457031 93.681641 C 41.390659 93.977809 39.324463 94.274607 37.257812 94.568359 C 36.709509 92.554336 36.165071 90.538111 35.619141 88.523438 z M 84.275391 88.615234 C 83.812732 90.297659 83.350468 91.98006 82.886719 93.662109 C 81.152311 93.474733 79.417376 93.285963 77.683594 93.097656 L 79.787109 89.099609 L 84.275391 88.615234 z M 76.761719 89.425781 C 75.921299 90.524799 75.083146 91.62693 74.251953 92.732422 C 72.661718 92.565388 71.072273 92.399439 69.480469 92.248047 C 69.46359 92.246442 69.446575 92.249292 69.429688 92.248047 L 72.355469 89.902344 L 76.761719 89.425781 z M 43.810547 89.441406 L 47.597656 89.865234 L 51.048828 92.632812 C 49.655689 92.815544 48.262123 93.002904 46.871094 93.197266 C 45.867065 91.952809 44.861922 90.71109 43.845703 89.476562 C 43.835155 89.463748 43.821341 89.453984 43.810547 89.441406 z M 78.628906 90.367188 C 78.520154 90.515547 78.009164 91.195838 77.232422 92.234375 C 77.357283 92.053509 77.47804 91.873038 77.607422 91.695312 C 78.443282 90.60411 78.737662 90.218832 78.628906 90.367188 z M 42.421875 90.986328 C 42.305683 90.839137 42.608229 91.211506 43.482422 92.275391 C 43.621165 92.4529 43.754559 92.635441 43.888672 92.816406 C 43.073435 91.800667 42.538067 91.133518 42.421875 90.986328 z M 60.552734 92.333984 L 64.232422 93.333984 C 64.21767 93.341751 64.200152 93.343478 64.185547 93.351562 C 62.786079 94.126194 61.389829 94.910862 59.998047 95.699219 C 58.776494 95.007288 57.552942 94.320783 56.326172 93.638672 L 60.552734 92.333984 z M 67.103516 94.113281 L 72.183594 95.492188 C 70.935539 97.164367 69.689442 98.839063 68.439453 100.50977 C 66.625348 99.476551 64.810904 98.439639 62.998047 97.404297 L 67.103516 94.113281 z M 69.544922 94.324219 C 69.358642 94.302649 69.838307 94.3489 71.208984 94.480469 C 71.432659 94.507459 71.656048 94.541499 71.878906 94.574219 C 70.583946 94.434865 69.731202 94.345789 69.544922 94.324219 z M 53.419922 94.533203 L 57 97.404297 C 55.456537 98.285785 53.913133 99.168055 52.369141 100.04883 C 51.257247 98.662366 50.146076 97.27366 49.035156 95.886719 L 53.419922 94.533203 z M 51.636719 94.630859 C 51.455365 94.658514 50.612066 94.776269 49.328125 94.958984 C 49.544382 94.919794 49.757387 94.877528 49.974609 94.84375 C 51.337584 94.665744 51.818073 94.603205 51.636719 94.630859 z M 55.046875 95.279297 C 54.884699 95.185147 55.305614 95.419995 56.509766 96.087891 C 56.704062 96.201944 56.894675 96.322434 57.085938 96.441406 C 55.954315 95.796603 55.209051 95.373449 55.046875 95.279297 z M 64.955078 95.279297 C 64.796135 95.371897 64.056486 95.791557 62.929688 96.433594 C 63.116379 96.317623 63.298699 96.199178 63.488281 96.087891 C 64.69031 95.421173 65.114022 95.186701 64.955078 95.279297 z M 76.052734 95.853516 C 76.063474 95.867166 76.083844 95.885464 76.089844 95.896484 C 76.301039 96.286595 76.35481 96.993254 76.347656 97.541016 C 75.941752 97.173136 75.460111 96.652774 75.318359 96.232422 C 75.314559 96.221112 75.313147 96.193954 75.310547 96.177734 C 75.413725 96.075092 75.516589 95.972373 75.619141 95.869141 C 75.763274 95.864441 75.908634 95.859116 76.052734 95.853516 z M 45.179688 96.378906 C 45.325221 96.379553 45.469722 96.381059 45.615234 96.380859 C 45.720278 96.479659 45.825973 96.57765 45.931641 96.675781 C 45.929541 96.693021 45.931334 96.720392 45.927734 96.732422 C 45.800424 97.157371 45.338414 97.694631 44.945312 98.076172 C 44.919452 97.528966 44.946802 96.818986 45.144531 96.421875 C 45.149931 96.411145 45.170028 96.392186 45.179688 96.378906 z M 60 99.121094 C 60.134017 99.174344 60.267994 99.226897 60.402344 99.279297 C 60.406744 99.296097 60.418822 99.321484 60.419922 99.333984 C 60.457792 99.775974 60.225263 100.44596 60 100.94531 C 59.774737 100.44596 59.540255 99.775974 59.578125 99.333984 C 59.579125 99.322084 59.58964 99.29715 59.59375 99.28125 C 59.729329 99.22834 59.864759 99.174794 60 99.121094 z " />
  </g>
</svg>
