<?xml version="1.0" encoding="UTF-8" standalone="no"?>
<!-- Created with Inkscape (http://www.inkscape.org/) -->

<svg
   width="120"
   height="120"
   viewBox="0 0 120 120"
   version="1.1"
   id="svg1"
   inkscape:version="1.4 (86a8ad7, 2024-10-11)"
   sodipodi:docname="mand_31.svg"
   xmlns:inkscape="http://www.inkscape.org/namespaces/inkscape"
   xmlns:sodipodi="http://sodipodi.sourceforge.net/DTD/sodipodi-0.dtd"
   xmlns="http://www.w3.org/2000/svg"
   xmlns:svg="http://www.w3.org/2000/svg">
  <sodipodi:namedview
     id="namedview1"
     pagecolor="#ffffff"
     bordercolor="#000000"
     borderopacity="0.25"
     inkscape:showpageshadow="2"
     inkscape:pageopacity="0.0"
     inkscape:pagecheckerboard="0"
     inkscape:deskcolor="#d1d1d1"
     inkscape:document-units="px"
     inkscape:zoom="6.8766134"
     inkscape:cx="59.985922"
     inkscape:cy="61.149286"
     inkscape:window-width="3440"
     inkscape:window-height="1369"
     inkscape:window-x="-8"
     inkscape:window-y="-8"
     inkscape:window-maximized="1"
     inkscape:current-layer="layer1" />
  <defs
     id="defs1">
    <inkscape:path-effect
       effect="copy_rotate"
       starting_point="0,0"
       origin="48.902402,17.214372"
       id="path-effect2"
       is_visible="true"
       lpeversion="1.2"
       lpesatellites=""
       method="normal"
       num_copies="8"
       starting_angle="0"
       rotation_angle="45"
       gap="-0.01"
       copies_to_360="true"
       mirror_copies="false"
       split_items="false"
       link_styles="false" />
  </defs>
  <g
     inkscape:label="Layer 1"
     inkscape:groupmode="layer"
     id="layer1">
    <path
       id="path1"
       style="fill:none;fill-rule:evenodd;stroke:#0000ff;stroke-width:0.5;stroke-dasharray:none"
       d="m 48.902488,17.343837 c -0.007,1.796646 0.413074,3.611753 1.304853,5.273997 2.029887,3.783638 5.999147,5.932774 10.066374,5.970196 0.01823,3.43e-4 0.03644,0.0022 0.05467,0.0025 0.01888,8.6e-5 0.03778,-0.0014 0.05666,-0.0014 4.067223,0.03772 8.075511,-2.037718 10.174951,-5.783209 0.988746,-1.763966 1.43551,-3.712429 1.397823,-5.635766 0.07644,-2.057466 -0.365248,-4.15187 -1.391364,-6.058033 C 69.355239,8.8621097 67.429902,7.0304477 65.127829,5.9229887 l -0.450534,0.986115 c -1.346151,-0.467469 -2.753875,-0.653202 -4.141347,-0.575389 -1.386064,-0.103452 -2.798427,0.05605 -4.153221,0.498765 l -0.43224,-0.99427 c -2.322141,1.06474 -4.280987,2.860521 -5.533563,5.0877723 -1.061156,1.886882 -1.541461,3.972769 -1.503044,6.031295 -0.0049,0.129116 -0.01088,0.257268 -0.01138,0.386631 z m 1.566006,-0.372269 c 0.136085,-3.277806 1.913711,-6.432451 4.976991,-8.0578843 0.505301,-0.268123 1.028718,-0.482808 1.560738,-0.64772 l 0.200811,0.462812 c 1.041165,-0.478436 2.167871,-0.763049 3.314528,-0.838558 1.145405,0.0968 2.2661,0.40171 3.298471,0.899649 l 0.209327,-0.459024 c 0.528883,0.174713 1.046291,0.399013 1.546552,0.676425 3.032729,1.6817473 4.753724,4.8687123 4.829231,8.1484723 -0.14245,3.544932 -2.063145,6.95988 -5.371834,8.724188 -1.479272,0.788799 -3.092972,1.162206 -4.690584,1.157893 -1.596775,-0.0255 -3.202588,-0.428671 -4.666438,-1.244332 -3.275531,-1.825132 -5.130856,-5.274963 -5.207793,-8.821921 z m 13.351539,-8.1817013 -0.442542,0.966656 c -0.938125,-0.287583 -1.913503,-0.385986 -2.870309,-0.309731 -0.955837,-0.09398 -1.933661,-0.01398 -2.877493,0.256633 l -0.422655,-0.974649 c -1.687312,0.775354 -3.149506,2.0575723 -4.103476,3.7825683 -0.775486,1.402256 -1.12197,2.949309 -1.082395,4.474567 -0.06453,1.389145 0.222272,2.806238 0.901633,4.098348 1.478923,2.812839 4.42583,4.397007 7.436262,4.397005 3.009379,0.05505 5.985856,-1.474326 7.516225,-4.258876 0.703114,-1.279338 1.014093,-2.690909 0.975239,-4.081009 0.06775,-1.524267 -0.248145,-3.077439 -0.997594,-4.493782 C 66.931281,10.905824 65.492053,9.5963237 63.820033,8.7898667 Z M 53.57696,17.084272 c 0.0913,-2.231149 1.301365,-4.377808 3.402118,-5.457088 0.411766,-0.211548 0.841889,-0.364634 1.277875,-0.474544 l 0.187448,0.429485 c 0.643224,-0.306425 1.337221,-0.501304 2.048348,-0.5729 0.709245,0.08467 1.398334,0.292705 2.035462,0.610626 l 0.195349,-0.425949 c 0.434355,0.117966 0.860677,0.278723 1.268891,0.498071 2.075607,1.115299 3.247625,3.276458 3.302818,5.503402 1.6e-5,6.5e-4 -3.4e-5,0.0013 -1.8e-5,0.002 -0.146022,2.442948 -1.497413,4.773624 -3.795517,5.967146 -0.988554,0.513406 -2.062091,0.756307 -3.126297,0.760215 -1.064477,-0.02334 -2.13233,-0.285995 -3.111718,-0.817841 -2.27138,-1.233448 -3.579547,-3.582286 -3.684759,-6.022576 z m 8.951251,-5.464421 -0.462506,1.013349 c -0.525847,-0.112421 -1.063246,-0.131001 -1.587408,-0.05959 -0.523149,-0.08122 -1.061951,-0.0726 -1.59019,0.03023 l -0.443706,-1.021721 c -1.0981,0.523122 -2.046769,1.37139 -2.656137,2.51268 -0.489198,0.916225 -0.693965,1.92532 -0.653917,2.915959 -0.05671,0.857246 0.09847,1.736522 0.50195,2.539901 0.916535,1.824935 2.815712,2.83709 4.749548,2.819386 1.933842,0.05414 3.852366,-0.922843 4.802778,-2.731142 0.418254,-0.795789 0.589646,-1.672048 0.548787,-2.530195 0.05834,-0.98973 -0.127748,-2.002436 -0.599935,-2.927542 -0.588392,-1.152769 -1.520508,-2.018041 -2.609264,-2.561321 z m -5.841214,5.40721 c 0.09941,-1.123666 0.741976,-2.179989 1.82761,-2.684404 0.324744,-0.150886 0.668446,-0.233918 1.014182,-0.262127 l 0.151097,0.347114 c 0.246371,-0.130657 0.509943,-0.226213 0.783905,-0.283787 0.271739,0.06254 0.533551,0.163676 0.776576,0.298202 l 0.157484,-0.344263 c 0.345401,0.03453 0.688993,0.123868 1.01112,0.280836 1.07368,0.523192 1.696834,1.587415 1.777778,2.709898 -0.102477,1.395114 -0.885999,2.716461 -2.220609,3.362443 -0.497526,0.240815 -1.032338,0.357751 -1.564016,0.368381 -0.531391,-0.02045 -1.06395,-0.147247 -1.556944,-0.397212 -1.319945,-0.66926 -2.079048,-2.001189 -2.158183,-3.395081 z m 4.55337,-2.585002 -0.568163,1.244805 c -0.07728,0.02247 -0.151665,0.05076 -0.22346,0.08583 -0.07108,-0.03642 -0.145026,-0.06601 -0.221834,-0.08994 l -0.547024,-1.255106 c -0.509907,0.270418 -0.940599,0.692202 -1.204963,1.250641 -0.205812,0.434755 -0.279434,0.911679 -0.235348,1.372885 -0.0464,0.320836 -0.01395,0.655093 0.112194,0.963967 0.344237,0.842915 1.202258,1.294022 2.062709,1.255437 0.860226,0.05525 1.729435,-0.380039 2.089457,-1.21708 0.133165,-0.309603 0.170692,-0.646896 0.128121,-0.971514 0.05057,-0.457338 -0.01367,-0.931818 -0.210035,-1.367232 -0.254227,-0.563726 -0.676236,-0.992916 -1.181654,-1.272689 z m -1.442337,2.63132 c 0.07529,-0.08802 0.179492,-0.142292 0.25017,-0.01722 l 0.396719,-0.869419 0.380591,0.8766 c 0.07312,-0.12399 0.176152,-0.06788 0.249809,0.02184 -0.08324,0.312113 -0.303814,0.57902 -0.644707,0.650322 -6.16e-4,-1.38e-4 -0.0013,1.23e-4 -0.002,-1.8e-5 -0.3395,-0.07758 -0.553164,-0.348527 -0.630629,-0.662103 z m -10.804022,0.232478 c 1.265471,1.27537 2.845983,2.261807 4.65195,2.806608 4.110783,1.24009 8.437142,-0.04693 11.339567,-2.896435 0.01313,-0.01265 0.02732,-0.02421 0.04043,-0.03689 0.01341,-0.01329 0.02572,-0.0277 0.03907,-0.04105 C 67.967658,14.288797 69.33439,9.986953 68.170456,5.8539626 67.622292,3.9075013 66.560431,2.2138201 65.173778,0.88046416 63.772981,-0.62843525 61.979693,-1.7970819 59.906258,-2.4193691 57.4588,-3.153909 54.802201,-3.0876708 52.391298,-2.2429512 l 0.378713,1.0158643 c -1.282423,0.62132199 -2.409168,1.48540011 -3.335236,2.5215131 -1.053247,0.9069436 -1.939154,2.01842 -2.584091,3.2894508 L 45.841989,4.1864618 c -0.889117,2.3948865 -1.004421,5.0498087 -0.315221,7.5104182 0.583876,2.084578 1.719194,3.899149 3.201957,5.327582 0.08783,0.09476 0.174222,0.189609 0.265342,0.281436 z m 0.8441,-1.370568 C 47.616576,13.521304 46.642876,10.033662 47.659587,6.7182407 47.827298,6.1713473 48.045604,5.6494304 48.305189,5.156625 l 0.469252,0.1852627 C 49.17235,4.2673675 49.7678,3.2694143 50.525216,2.4052124 51.403588,1.6637367 52.411643,1.0868896 53.493735,0.70898913 L 53.317173,0.23639361 c 0.497517,-0.25043601 1.021984,-0.45769466 1.571882,-0.6152727 3.333638,-0.95528831 6.80409,0.081309 9.176622,2.34705799 2.405918,2.6073729 3.462514,6.3802422 2.370472,9.9673931 -0.488238,1.603768 -1.365258,3.008865 -2.49799,4.135497 -1.147121,1.11106 -2.567687,1.961456 -4.179545,2.419795 -3.606714,1.025587 -7.358025,-0.101899 -9.920506,-2.555575 z M 53.493735,0.70898913 53.86434,1.7054426 c -0.866707,0.4600027 -1.625984,1.0801176 -2.248628,1.8106021 -0.742333,0.6094249 -1.37719,1.3574194 -1.853228,2.2161617 L 48.774441,5.3418877 c -0.644852,1.7413678 -0.772114,3.6819604 -0.226916,5.5762753 0.443193,1.539896 1.292124,2.878829 2.398628,3.929366 0.936644,1.027903 2.14148,1.82714 3.53552,2.260418 3.034734,0.943222 6.238688,-0.02038 8.367384,-2.149079 C 65.015935,12.869842 66.03919,9.683723 65.15235,6.6326145 64.744898,5.2308092 63.966662,4.0127824 62.956239,3.0573072 61.926326,1.9315812 60.604696,1.0566943 59.07325,0.58512899 57.189928,0.00521233 55.246283,0.09694367 53.493735,0.70898913 Z M 52.115819,13.816966 c -1.513102,-1.64222 -2.175374,-4.015782 -1.453083,-6.2644049 0.141575,-0.4407495 0.33747,-0.8531406 0.568041,-1.2391473 l 0.436237,0.171146 C 51.905167,5.8130565 52.258097,5.1845263 52.710313,4.6310575 53.271696,4.1894163 53.906059,3.8492598 54.58138,3.6235463 l -0.163059,-0.439324 c 0.39055,-0.2237208 0.805678,-0.4115036 1.249431,-0.5450521 2.256311,-0.6790403 4.613224,0.020388 6.226938,1.5560479 4.71e-4,4.483e-4 8.95e-4,9.433e-4 0.0014,0.00143 1.624172,1.8306782 2.316631,4.4342927 1.535573,6.9032449 -0.33598,1.062046 -0.923329,1.992909 -1.673072,2.748179 -0.769203,0.736195 -1.710014,1.305556 -2.778618,1.622016 -2.478288,0.733929 -5.064181,-0.0019 -6.864123,-1.653086 z M 54.58138,3.6235463 54.970885,4.6671334 c -0.451324,0.2923363 -0.84446,0.6591968 -1.164603,1.0803305 -0.427354,0.312491 -0.802249,0.6995768 -1.103059,1.1458099 L 51.66701,6.4845555 c -0.406571,1.1463771 -0.477565,2.4170034 -0.10144,3.6549055 0.301954,0.993784 0.8707,1.852114 1.599506,2.524284 0.566064,0.646264 1.297535,1.158277 2.150913,1.441049 1.938512,0.642335 3.997135,0.01512 5.352045,-1.364831 1.405715,-1.32915 2.071485,-3.3765827 1.464868,-5.327286 C 61.865944,6.554219 61.367528,5.8134178 60.731835,5.235508 60.073242,4.4944105 59.225567,3.9099034 58.237532,3.5896413 57.006345,3.1905665 55.7354,3.2378323 54.581376,3.6235421 Z M 54.274493,11.577383 C 53.550235,10.712538 53.257664,9.5112419 53.668648,8.3869075 53.791584,8.0505863 53.975906,7.7488398 54.200431,7.4844208 l 0.352289,0.1386049 c 0.08182,-0.266599 0.200627,-0.5205409 0.353637,-0.7549722 0.236371,-0.1479261 0.493014,-0.2615412 0.759982,-0.3382615 L 55.534267,6.1750033 c 0.268651,-0.219819 0.574779,-0.3996038 0.913551,-0.5163888 1.129159,-0.3892538 2.322314,-0.077371 3.173266,0.6591084 0.914032,1.0589567 1.294332,2.5473239 0.807398,3.9478141 -0.181522,0.522086 -0.477005,0.982941 -0.845441,1.366411 -0.390211,0.36129 -0.856446,0.648207 -1.381797,0.820054 -1.406581,0.460104 -2.885164,0.05505 -3.926751,-0.874619 z m 1.391846,-5.047591 0.478459,1.2819619 c -0.03876,0.070534 -0.07135,0.1431361 -0.09732,0.2187011 -0.07601,0.024508 -0.149225,0.055873 -0.220457,0.093263 L 54.552723,7.6230285 c -0.169345,0.5517731 -0.175644,1.1545647 0.0323,1.7363743 0.161887,0.4529493 0.447065,0.8422442 0.80436,1.1371922 0.194055,0.259675 0.453356,0.473085 0.760961,0.602295 0.839443,0.352618 1.765136,0.06489 2.346283,-0.570828 C 59.143965,9.9588582 59.450793,9.0364388 59.11349,8.1899875 58.988729,7.8769032 58.776763,7.6118654 58.517121,7.4124281 58.229493,7.0532829 57.84856,6.7631994 57.401825,6.5941663 56.823445,6.3753174 56.221556,6.3702397 55.666342,6.5297948 Z m 0.840738,2.8805104 c -0.009,-0.1154776 0.02631,-0.2275356 0.164721,-0.1890732 l -0.33425,-0.8952948 0.888969,0.3507313 c -0.03597,-0.1393778 0.07656,-0.1725567 0.192085,-0.1611984 0.161837,0.2795568 0.1946,0.6242579 0.004,0.9157238 -5.33e-4,3.38e-4 -8.32e-4,0.00101 -0.0014,0.0014 -0.29492,0.1852054 -0.637592,0.1447002 -0.914099,-0.022255 z m -7.47521,7.8039836 c 1.796646,0.007 3.611753,-0.413074 5.273997,-1.304853 3.783638,-2.029887 5.932774,-5.999147 5.970196,-10.066374 3.43e-4,-0.01823 0.0022,-0.03644 0.0025,-0.05467 8.6e-5,-0.01888 -0.0014,-0.03778 -0.0014,-0.05666 0.03772,-4.067223 -2.037718,-8.075511 -5.783209,-10.174951 -1.763966,-0.988746 -3.712429,-1.43551 -5.635766,-1.397823 -2.057466,-0.07644 -4.15187,0.365248 -6.058033,1.391364 -2.250012,1.211216 -4.081674,3.136553 -5.189133,5.438626 l 0.986115,0.450534 c -0.467469,1.346151 -0.653202,2.753875 -0.575389,4.141347 -0.103452,1.386064 0.05605,2.798427 0.498765,4.153221 l -0.99427,0.43224 c 1.06474,2.322141 2.860521,4.280987 5.087772,5.533563 1.886882,1.061156 3.972769,1.541461 6.031295,1.503044 0.129116,0.0049 0.257268,0.01088 0.386631,0.01138 z M 48.659598,15.64828 C 45.381792,15.512195 42.227147,13.734569 40.601714,10.671289 40.333591,10.165988 40.118906,9.642571 39.953994,9.110551 L 40.416806,8.90974 C 39.93837,7.868575 39.653757,6.741869 39.578248,5.595212 c 0.0968,-1.145405 0.40171,-2.2661 0.899649,-3.298471 L 40.018873,2.087414 c 0.174713,-0.528883 0.399013,-1.046291 0.676425,-1.546552 1.681747,-3.032729 4.868712,-4.753724 8.148472,-4.829231 3.544932,0.14245 6.95988,2.063145 8.724188,5.371834 0.788799,1.479272 1.162206,3.092972 1.157893,4.690584 -0.0255,1.596775 -0.428671,3.202588 -1.244332,4.666438 -1.825132,3.275531 -5.274963,5.130856 -8.821921,5.207793 z M 40.477897,2.296741 41.444553,2.739283 c -0.287583,0.938125 -0.385986,1.913503 -0.309731,2.870309 -0.09398,0.955837 -0.01398,1.933661 0.256633,2.877493 L 40.416806,8.90974 c 0.775354,1.687312 2.057572,3.149506 3.782568,4.103476 1.402256,0.775486 2.949309,1.12197 4.474567,1.082395 1.389145,0.06453 2.806238,-0.222272 4.098348,-0.901633 2.812839,-1.478923 4.397007,-4.42583 4.397005,-7.436262 0.05505,-3.009379 -1.474326,-5.985856 -4.258876,-7.516225 -1.279338,-0.703114 -2.690909,-1.014093 -4.081009,-0.975239 -1.524267,-0.06775 -3.077439,0.248145 -4.493782,0.997594 -1.741773,0.921647 -3.051273,2.360875 -3.85773,4.032895 z m 8.294405,10.243073 C 46.541153,12.448514 44.394494,11.238449 43.315214,9.137696 43.103666,8.72593 42.95058,8.295807 42.84067,7.859821 L 43.270155,7.672373 C 42.96373,7.029149 42.768851,6.335152 42.697255,5.624025 42.781925,4.91478 42.98996,4.225691 43.307881,3.588563 L 42.881932,3.393214 c 0.117966,-0.434355 0.278723,-0.860677 0.498071,-1.268891 1.115299,-2.075607 3.276458,-3.247625 5.503402,-3.302818 6.5e-4,-1.6e-5 0.0013,3.4e-5 0.002,1.8e-5 2.442948,0.146022 4.773624,1.497413 5.967146,3.795517 0.513406,0.988554 0.756307,2.062091 0.760215,3.126297 -0.02334,1.064477 -0.285995,2.13233 -0.817841,3.111718 -1.233448,2.27138 -3.582286,3.579547 -6.022576,3.684759 z M 43.307881,3.588563 44.32123,4.051069 c -0.112421,0.525847 -0.131001,1.063246 -0.05959,1.587408 -0.08122,0.523149 -0.0726,1.061951 0.03023,1.59019 l -1.021721,0.443706 c 0.523122,1.0981 1.37139,2.046769 2.51268,2.656137 0.916225,0.489198 1.92532,0.693965 2.915959,0.653917 0.857246,0.05671 1.736522,-0.09847 2.539901,-0.50195 1.824935,-0.916535 2.83709,-2.815712 2.819386,-4.749548 C 54.112215,3.797087 53.135232,1.878563 51.326933,0.928151 50.531144,0.509897 49.654885,0.338505 48.796738,0.379364 47.807008,0.321024 46.794302,0.507112 45.869196,0.979299 44.716427,1.567691 43.851155,2.499807 43.307875,3.588563 Z m 5.40721,5.841214 C 47.591425,9.330367 46.535102,8.687801 46.030687,7.602167 45.879801,7.277423 45.796769,6.933721 45.76856,6.587985 L 46.115674,6.436888 C 45.985017,6.190517 45.889461,5.926945 45.831887,5.652983 45.894427,5.381244 45.995563,5.119432 46.130089,4.876407 L 45.785826,4.718923 c 0.03453,-0.345401 0.123868,-0.688993 0.280836,-1.01112 0.523192,-1.07368 1.587415,-1.696834 2.709898,-1.777778 1.395114,0.102477 2.716461,0.885999 3.362443,2.220609 0.240815,0.497526 0.357751,1.032338 0.368381,1.564016 -0.02045,0.531391 -0.147247,1.06395 -0.397212,1.556944 -0.66926,1.319945 -2.001189,2.079048 -3.395081,2.158183 z m -2.585002,-4.55337 1.244805,0.568163 c 0.02247,0.07728 0.05076,0.151665 0.08583,0.22346 -0.03642,0.07108 -0.06601,0.145026 -0.08994,0.221834 l -1.255106,0.547024 c 0.270418,0.509907 0.692202,0.940599 1.250641,1.204963 0.434755,0.205812 0.911679,0.279434 1.372885,0.235348 0.320836,0.0464 0.655093,0.01395 0.963967,-0.112194 C 50.546086,7.420768 50.997193,6.562747 50.958608,5.702296 51.013858,4.84207 50.578569,3.972861 49.741528,3.612839 49.431925,3.479674 49.094632,3.442147 48.770014,3.484718 48.312676,3.434148 47.838196,3.498388 47.402782,3.694753 46.839056,3.94898 46.409866,4.370989 46.130093,4.876407 Z m 2.63132,1.442337 c -0.08802,-0.07529 -0.142292,-0.179492 -0.01722,-0.25017 L 47.87477,5.671855 48.75137,5.291264 c -0.12399,-0.07312 -0.06788,-0.176152 0.02184,-0.249809 0.312113,0.08324 0.57902,0.303814 0.650322,0.644707 -1.38e-4,6.16e-4 1.23e-4,0.0013 -1.8e-5,0.002 -0.07758,0.3395 -0.348527,0.553164 -0.662103,0.630629 z m 0.232478,10.804022 c 1.27537,-1.265471 2.261807,-2.845983 2.806608,-4.65195 1.24009,-4.1107828 -0.04693,-8.4371421 -2.896435,-11.3395672 -0.01265,-0.013133 -0.02421,-0.027323 -0.03689,-0.040425 -0.01329,-0.013411 -0.0277,-0.025725 -0.04105,-0.039075 -2.849289,-2.9026331 -7.151133,-4.2693644 -11.284123,-3.1054306 -1.946462,0.5481633 -3.640143,1.61002487 -4.973499,2.99667824 -1.508899,1.40079696 -2.677546,3.19408476 -3.299833,5.26751916 -0.73454,2.447458 -0.668302,5.1040574 0.176418,7.5149604 l 1.015864,-0.378713 c 0.621322,1.282423 1.4854,2.409168 2.521513,3.335236 0.906944,1.053247 2.01842,1.939154 3.289451,2.584091 l -0.397415,1.008695 c 2.394886,0.889117 5.049809,1.004421 7.510418,0.315221 2.084578,-0.583876 3.899149,-1.719194 5.327582,-3.201957 0.09476,-0.08783 0.189609,-0.174222 0.281436,-0.265342 z m -1.370568,-0.8441 c -2.413985,2.221532 -5.901627,3.195232 -9.217048,2.178521 -0.546894,-0.167711 -1.068811,-0.386017 -1.561616,-0.645602 l 0.185263,-0.469252 c -1.07452,-0.397909 -2.072474,-0.993359 -2.936676,-1.750775 -0.741475,-0.878372 -1.318322,-1.886427 -1.696223,-2.968519 l -0.472595,0.176562 c -0.250436,-0.497517 -0.457695,-1.021984 -0.615273,-1.571882 -0.955288,-3.333638 0.08131,-6.8040898 2.347058,-9.1766219 2.607373,-2.40591809 6.380242,-3.4625145 9.967393,-2.37047224 1.603768,0.48823814 3.008865,1.36525774 4.135497,2.49798974 1.11106,1.1471217 1.961456,2.5676879 2.419795,4.1795456 1.025587,3.6067134 -0.101899,7.3580248 -2.555575,9.9205058 z m -15.2263,-3.655627 0.996454,-0.370605 c 0.460002,0.866707 1.080117,1.625984 1.810602,2.248628 0.609425,0.742333 1.357419,1.37719 2.216161,1.853228 l -0.390318,0.988043 c 1.741368,0.644852 3.68196,0.772114 5.576275,0.226916 1.539896,-0.443193 2.878829,-1.292124 3.929366,-2.398628 1.027903,-0.936644 1.82714,-2.14148 2.260418,-3.53552 C 49.739199,8.6003668 48.775597,5.3964129 46.646898,3.2677175 44.557872,1.1008389 41.371753,0.077584 38.320644,0.96442389 36.918839,1.3718758 35.700812,2.1501119 34.745337,3.1605349 c -1.125726,1.0299131 -2.000613,2.351543 -2.472178,3.8829892 -0.579917,1.8833224 -0.488185,3.8269669 0.12386,5.5795149 z m 13.107977,1.377916 c -1.64222,1.513102 -4.015782,2.175374 -6.264405,1.453083 -0.440749,-0.141575 -0.85314,-0.33747 -1.239147,-0.568041 L 38.17259,14.44976 C 37.501087,14.211607 36.872556,13.858677 36.319088,13.406461 35.877446,12.845078 35.53729,12.210715 35.311576,11.535394 l -0.439324,0.163059 c -0.223721,-0.39055 -0.411503,-0.805678 -0.545052,-1.249431 -0.67904,-2.2563115 0.02039,-4.6132235 1.556048,-6.2269381 4.48e-4,-4.709e-4 9.43e-4,-8.952e-4 0.0014,-0.0014 1.830678,-1.6241719 4.434293,-2.316631 6.903245,-1.5355736 1.062046,0.3359804 1.992909,0.9233288 2.748179,1.6730727 0.736195,0.7692028 1.305556,1.710014 1.622016,2.7786178 0.733929,2.4782876 -0.0019,5.0641807 -1.653086,6.8641227 z m -10.19342,-2.465561 1.043587,-0.389505 c 0.292337,0.451324 0.659197,0.84446 1.080331,1.164603 0.312491,0.427354 0.699577,0.802249 1.14581,1.103059 l -0.408718,1.036213 c 1.146377,0.406571 2.417003,0.477565 3.654905,0.10144 0.993784,-0.301954 1.852114,-0.8707 2.524284,-1.599506 0.646264,-0.566064 1.158277,-1.297535 1.441049,-2.150913 0.642335,-1.9385122 0.01512,-3.9971348 -1.364831,-5.3520448 -1.32915,-1.4057155 -3.376583,-2.0714855 -5.327286,-1.4648678 -0.858458,0.2669575 -1.599259,0.7653738 -2.177169,1.401067 -0.741097,0.6585922 -1.325605,1.5062676 -1.645867,2.4943029 -0.399075,1.2311868 -0.351809,2.5021317 0.0339,3.6561557 z m 7.953837,0.306887 c -0.864845,0.724258 -2.066141,1.016829 -3.190475,0.605845 -0.336322,-0.122936 -0.638068,-0.307258 -0.902487,-0.531783 l 0.138605,-0.352289 c -0.266599,-0.08182 -0.520541,-0.200627 -0.754973,-0.353637 -0.147926,-0.236371 -0.261541,-0.493014 -0.338261,-0.759982 l -0.354789,0.132072 C 37.643214,10.313856 37.46343,10.007728 37.346644,9.6689565 36.957391,8.5397974 37.269274,7.3466417 38.005753,6.4956903 39.06471,5.5816579 40.553077,5.2013582 41.953567,5.6882918 c 0.522086,0.181522 0.982941,0.477005 1.366411,0.8454416 0.36129,0.3902105 0.648207,0.8564456 0.820054,1.3817969 0.460104,1.4065804 0.05506,2.8851637 -0.874619,3.9267507 z m -5.047591,-1.391846 1.281962,-0.4784585 c 0.07053,0.038756 0.143136,0.07135 0.218701,0.097319 0.02451,0.07601 0.05587,0.149225 0.09326,0.220457 l -0.500689,1.274298 c 0.551773,0.169345 1.154564,0.175644 1.736374,-0.0323 0.452949,-0.161887 0.842244,-0.447065 1.137192,-0.80436 C 42.4443,10.533337 42.65771,10.274036 42.78692,9.9664313 43.139538,9.1269881 42.851807,8.2012948 42.216092,7.6201478 41.646888,6.9728085 40.724469,6.6659807 39.878017,7.0032841 39.564933,7.1280446 39.299895,7.3400112 39.100458,7.599653 38.741313,7.8872814 38.451229,8.268214 38.282196,8.7149492 38.063347,9.2933293 38.05827,9.8952179 38.217825,10.450432 Z m 2.88051,-0.8407383 c -0.115477,0.009 -0.227535,-0.026304 -0.189073,-0.1647206 l -0.895295,0.3342494 0.350732,-0.8889683 c -0.139378,0.035971 -0.172557,-0.07656 -0.161199,-0.1920848 0.279557,-0.1618377 0.624258,-0.1946 0.915724,-0.00397 3.38e-4,5.331e-4 0.001,8.322e-4 0.0014,0.00143 0.185205,0.2949201 0.1447,0.6375918 -0.02226,0.9140996 z m 7.803984,7.4752103 c 0.007,-1.796646 -0.413074,-3.611753 -1.304853,-5.273997 -2.029887,-3.783638 -5.999147,-5.932774 -10.066374,-5.970196 -0.01823,-3.43e-4 -0.03644,-0.0022 -0.05467,-0.0025 -0.01888,-8.6e-5 -0.03778,0.0014 -0.05666,0.0014 -4.067223,-0.03772 -8.075511,2.037718 -10.174951,5.783209 -0.988746,1.763966 -1.43551,3.712429 -1.397823,5.635766 -0.07644,2.057466 0.365248,4.15187 1.391364,6.058033 1.211216,2.250012 3.136553,4.081674 5.438626,5.189133 l 0.450534,-0.986115 c 1.346151,0.467469 2.753875,0.653202 4.141347,0.575389 1.386064,0.103452 2.798427,-0.05605 4.153221,-0.498765 l 0.43224,0.99427 c 2.322141,-1.06474 4.280987,-2.860521 5.533563,-5.087772 1.061156,-1.886882 1.541461,-3.972769 1.503044,-6.031295 0.0049,-0.129116 0.01088,-0.257268 0.01138,-0.386631 z m -1.566006,0.372269 c -0.136085,3.277806 -1.913711,6.432451 -4.976991,8.057884 -0.505301,0.268123 -1.028718,0.482808 -1.560738,0.64772 L 40.59777,25.699968 c -1.041165,0.478436 -2.167871,0.763049 -3.314528,0.838558 -1.145405,-0.0968 -2.2661,-0.40171 -3.298471,-0.899649 l -0.209327,0.459024 c -0.528883,-0.174713 -1.046291,-0.399013 -1.546552,-0.676425 -3.032729,-1.681747 -4.753724,-4.868712 -4.829231,-8.148472 0.14245,-3.544932 2.063145,-6.95988 5.371834,-8.724188 1.479272,-0.788799 3.092972,-1.162206 4.690584,-1.157893 1.596775,0.0255 3.202588,0.428671 4.666438,1.244332 3.275531,1.825132 5.130856,5.274963 5.207793,8.821921 z m -13.351539,8.181701 0.442542,-0.966656 c 0.938125,0.287583 1.913503,0.385986 2.870309,0.309731 0.955837,0.09398 1.933661,0.01398 2.877493,-0.256633 l 0.422655,0.974649 c 1.687312,-0.775354 3.149506,-2.057572 4.103476,-3.782568 0.775486,-1.402256 1.12197,-2.949309 1.082395,-4.474567 0.06453,-1.389145 -0.222272,-2.806238 -0.901633,-4.098348 -1.478923,-2.812839 -4.42583,-4.397007 -7.436262,-4.397005 -3.009379,-0.05505 -5.985856,1.474326 -7.516225,4.258876 -0.703114,1.279338 -1.014093,2.690909 -0.975239,4.081009 -0.06775,1.524267 0.248145,3.077439 0.997594,4.493782 0.921647,1.741773 2.360875,3.051273 4.032895,3.85773 z m 10.243073,-8.294405 c -0.0913,2.231149 -1.301365,4.377808 -3.402118,5.457088 -0.411766,0.211548 -0.841889,0.364634 -1.277875,0.474544 l -0.187448,-0.429485 c -0.643224,0.306425 -1.337221,0.501304 -2.048348,0.5729 -0.709245,-0.08467 -1.398334,-0.292705 -2.035462,-0.610626 l -0.195349,0.425949 c -0.434355,-0.117966 -0.860677,-0.278723 -1.268891,-0.498071 -2.075607,-1.115299 -3.247625,-3.276458 -3.302818,-5.503402 -1.6e-5,-6.5e-4 3.4e-5,-0.0013 1.8e-5,-0.002 0.146022,-2.442948 1.497413,-4.773624 3.795517,-5.967146 0.988554,-0.513406 2.062091,-0.756307 3.126297,-0.760215 1.064477,0.02334 2.13233,0.285995 3.111718,0.817841 2.27138,1.233448 3.579547,3.582286 3.684759,6.022576 z m -8.951251,5.464421 0.462506,-1.013349 c 0.525847,0.112421 1.063246,0.131001 1.587408,0.05959 0.523149,0.08122 1.061951,0.0726 1.59019,-0.03023 l 0.443706,1.021721 c 1.0981,-0.523122 2.046769,-1.37139 2.656137,-2.51268 0.489198,-0.916225 0.693965,-1.92532 0.653917,-2.915959 0.05671,-0.857246 -0.09847,-1.736522 -0.50195,-2.539901 -0.916535,-1.824935 -2.815712,-2.83709 -4.749548,-2.819386 -1.933842,-0.05414 -3.852366,0.922843 -4.802778,2.731142 -0.418254,0.795789 -0.589646,1.672048 -0.548787,2.530195 -0.05834,0.98973 0.127748,2.002436 0.599935,2.927542 0.588392,1.152769 1.520508,2.018041 2.609264,2.561321 z m 5.841214,-5.40721 c -0.09941,1.123666 -0.741976,2.179989 -1.82761,2.684404 -0.324744,0.150886 -0.668446,0.233918 -1.014182,0.262127 L 38.124918,20.0011 c -0.246371,0.130657 -0.509943,0.226213 -0.783905,0.283787 -0.271739,-0.06254 -0.533551,-0.163676 -0.776576,-0.298202 l -0.157484,0.344263 c -0.345401,-0.03453 -0.688993,-0.123868 -1.01112,-0.280836 -1.07368,-0.523192 -1.696834,-1.587415 -1.777778,-2.709898 0.102477,-1.395114 0.885999,-2.716461 2.220609,-3.362443 0.497526,-0.240815 1.032338,-0.357751 1.564016,-0.368381 0.531391,0.02045 1.06395,0.147247 1.556944,0.397212 1.319945,0.66926 2.079048,2.001189 2.158183,3.395081 z m -4.55337,2.585002 0.568163,-1.244805 c 0.07728,-0.02247 0.151665,-0.05076 0.22346,-0.08583 0.07108,0.03642 0.145026,0.06601 0.221834,0.08994 l 0.547024,1.255106 c 0.509907,-0.270418 0.940599,-0.692202 1.204963,-1.250641 0.205812,-0.434755 0.279434,-0.911679 0.235348,-1.372885 0.0464,-0.320836 0.01395,-0.655093 -0.112194,-0.963967 -0.344237,-0.842915 -1.202258,-1.294022 -2.062709,-1.255437 -0.860226,-0.05525 -1.729435,0.380039 -2.089457,1.21708 -0.133165,0.309603 -0.170692,0.646896 -0.128121,0.971514 -0.05057,0.457338 0.01367,0.931818 0.210035,1.367232 0.254227,0.563726 0.676236,0.992916 1.181654,1.272689 z m 1.442337,-2.63132 c -0.07529,0.08802 -0.179492,0.142292 -0.25017,0.01722 l -0.396719,0.869419 -0.380591,-0.8766 c -0.07312,0.12399 -0.176152,0.06788 -0.249809,-0.02184 0.08324,-0.312113 0.303814,-0.57902 0.644707,-0.650322 6.16e-4,1.38e-4 0.0013,-1.23e-4 0.002,1.8e-5 0.3395,0.07758 0.553164,0.348527 0.630629,0.662103 z m 10.804022,-0.232478 c -1.265471,-1.27537 -2.845983,-2.261807 -4.65195,-2.806608 -4.110783,-1.24009 -8.437142,0.04693 -11.339567,2.896435 -0.01313,0.01265 -0.02732,0.02421 -0.04043,0.03689 -0.01341,0.01329 -0.02572,0.0277 -0.03907,0.04105 -2.902633,2.849289 -4.269365,7.151133 -3.105431,11.284123 0.548164,1.946462 1.610025,3.640143 2.996678,4.973499 1.400797,1.508899 3.194085,2.677546 5.26752,3.299833 2.447458,0.73454 5.104057,0.668302 7.51496,-0.176418 l -0.378713,-1.015864 c 1.282423,-0.621322 2.409168,-1.4854 3.335236,-2.521513 1.053247,-0.906944 1.939154,-2.01842 2.584091,-3.289451 l 1.008695,0.397415 c 0.889117,-2.394886 1.004421,-5.049809 0.315221,-7.510418 -0.583876,-2.084578 -1.719194,-3.899149 -3.201957,-5.327582 -0.08783,-0.09476 -0.174222,-0.189609 -0.265342,-0.281436 z m -0.8441,1.370568 c 2.221532,2.413985 3.195232,5.901627 2.178521,9.217048 -0.167711,0.546894 -0.386017,1.068811 -0.645602,1.561616 l -0.469252,-0.185263 c -0.397909,1.07452 -0.993359,2.072474 -1.750775,2.936676 -0.878372,0.741475 -1.886427,1.318322 -2.968519,1.696223 l 0.176562,0.472595 c -0.497517,0.250436 -1.021984,0.457695 -1.571882,0.615273 -3.333638,0.955288 -6.80409,-0.08131 -9.176622,-2.347058 -2.405918,-2.607373 -3.462514,-6.380242 -2.370472,-9.967393 0.488238,-1.603768 1.365258,-3.008865 2.49799,-4.135497 1.147121,-1.11106 2.567687,-1.961456 4.179545,-2.419795 3.606714,-1.025587 7.358025,0.101899 9.920506,2.555575 z m -3.655627,15.2263 -0.370605,-0.996454 c 0.866707,-0.460002 1.625984,-1.080117 2.248628,-1.810602 0.742333,-0.609425 1.37719,-1.357419 1.853228,-2.216161 l 0.988043,0.390318 c 0.644852,-1.741368 0.772114,-3.68196 0.226916,-5.576275 -0.443193,-1.539896 -1.292124,-2.878829 -2.398628,-3.929366 -0.936644,-1.027903 -2.14148,-1.82714 -3.53552,-2.260418 -3.034734,-0.943222 -6.238688,0.02038 -8.367384,2.149079 -2.166878,2.089026 -3.190133,5.275145 -2.303293,8.326254 0.407452,1.401805 1.185688,2.619832 2.196111,3.575307 1.029913,1.125726 2.351543,2.000613 3.882989,2.472178 1.883322,0.579917 3.826967,0.488185 5.579515,-0.12386 z m 1.377916,-13.107977 c 1.513102,1.64222 2.175374,4.015782 1.453083,6.264405 -0.141575,0.440749 -0.33747,0.85314 -0.568041,1.239147 L 46.13779,27.944184 c -0.238153,0.671503 -0.591083,1.300034 -1.043299,1.853502 -0.561383,0.441642 -1.195746,0.781798 -1.871067,1.007512 l 0.163059,0.439324 c -0.39055,0.223721 -0.805678,0.411503 -1.249431,0.545052 -2.256311,0.67904 -4.613224,-0.02039 -6.226938,-1.556048 -4.71e-4,-4.48e-4 -8.95e-4,-9.43e-4 -0.0014,-0.0014 -1.624172,-1.830678 -2.316631,-4.434293 -1.535573,-6.903245 0.33598,-1.062046 0.923329,-1.992909 1.673072,-2.748179 0.769203,-0.736195 1.710014,-1.305556 2.778618,-1.622016 2.478288,-0.733929 5.064181,0.0019 6.864123,1.653086 z m -2.465561,10.19342 -0.389505,-1.043587 c 0.451324,-0.292337 0.84446,-0.659197 1.164603,-1.080331 0.427354,-0.312491 0.802249,-0.699577 1.103059,-1.14581 l 1.036213,0.408718 c 0.406571,-1.146377 0.477565,-2.417003 0.10144,-3.654905 -0.301954,-0.993784 -0.8707,-1.852114 -1.599506,-2.524284 -0.566064,-0.646264 -1.297535,-1.158277 -2.150913,-1.441049 -1.938512,-0.642335 -3.997135,-0.01512 -5.352045,1.364831 -1.405715,1.32915 -2.071485,3.376583 -1.464868,5.327286 0.266958,0.858458 0.765374,1.599259 1.401067,2.177169 0.658593,0.741097 1.506268,1.325605 2.494303,1.645867 1.231187,0.399075 2.502132,0.351809 3.656156,-0.0339 z m 0.306887,-7.953837 c 0.724258,0.864845 1.016829,2.066141 0.605845,3.190475 -0.122936,0.336322 -0.307258,0.638068 -0.531783,0.902487 l -0.352289,-0.138605 c -0.08182,0.266599 -0.200627,0.520541 -0.353637,0.754973 -0.236371,0.147926 -0.493014,0.261541 -0.759982,0.338261 l 0.132072,0.354789 c -0.268651,0.219819 -0.574779,0.399603 -0.913551,0.516389 -1.129159,0.389253 -2.322314,0.07737 -3.173266,-0.659109 -0.914032,-1.058957 -1.294332,-2.547324 -0.807398,-3.947814 0.181522,-0.522086 0.477005,-0.982941 0.845441,-1.366411 0.390211,-0.36129 0.856446,-0.648207 1.381797,-0.820054 1.406581,-0.460104 2.885164,-0.05506 3.926751,0.874619 z m -1.391846,5.047591 -0.478459,-1.281962 c 0.03876,-0.07053 0.07135,-0.143136 0.09732,-0.218701 0.07601,-0.02451 0.149225,-0.05587 0.220457,-0.09326 l 1.274298,0.500689 c 0.169345,-0.551773 0.175644,-1.154564 -0.0323,-1.736374 -0.161887,-0.452949 -0.447065,-0.842244 -0.80436,-1.137192 -0.194055,-0.259675 -0.453356,-0.473085 -0.760961,-0.602295 -0.839443,-0.352618 -1.765136,-0.06489 -2.346283,0.570828 -0.647339,0.569204 -0.954167,1.491623 -0.616864,2.338075 0.124761,0.313084 0.336727,0.578122 0.596369,0.777559 0.287628,0.359145 0.668561,0.649229 1.115296,0.818262 0.57838,0.218849 1.180269,0.223926 1.735483,0.06437 z m -0.840738,-2.88051 c 0.009,0.115477 -0.02631,0.227535 -0.164721,0.189073 l 0.33425,0.895295 -0.888969,-0.350732 c 0.03597,0.139378 -0.07656,0.172557 -0.192085,0.161199 -0.161837,-0.279557 -0.1946,-0.624258 -0.004,-0.915724 5.33e-4,-3.38e-4 8.32e-4,-0.001 0.0014,-0.0014 0.29492,-0.185205 0.637592,-0.1447 0.914099,0.02226 z m 7.47521,-7.803984 c -1.796646,-0.007 -3.611753,0.413074 -5.273997,1.304853 -3.783638,2.029887 -5.932774,5.999147 -5.970196,10.066374 -3.43e-4,0.01823 -0.0022,0.03644 -0.0025,0.05467 -8.6e-5,0.01888 0.0014,0.03778 0.0014,0.05666 -0.03772,4.067223 2.037718,8.075511 5.783209,10.174951 1.763966,0.988746 3.712429,1.43551 5.635766,1.397823 2.057466,0.07644 4.15187,-0.365248 6.058033,-1.391364 2.250012,-1.211216 4.081674,-3.136553 5.189133,-5.438626 L 59.20767,32.989265 c 0.467469,-1.346151 0.653202,-2.753875 0.575389,-4.141347 0.103452,-1.386064 -0.05605,-2.798427 -0.498765,-4.153221 l 0.99427,-0.43224 C 59.213824,21.940316 57.418043,19.98147 55.190792,18.728894 53.30391,17.667738 51.218023,17.187433 49.159497,17.22585 49.030381,17.22095 48.902229,17.21497 48.772866,17.21447 Z m 0.372269,1.566006 c 3.277806,0.136085 6.432451,1.913711 8.057884,4.976991 0.268123,0.505301 0.482808,1.028718 0.64772,1.560738 l -0.462812,0.200811 c 0.478436,1.041165 0.763049,2.167871 0.838558,3.314528 -0.0968,1.145405 -0.40171,2.2661 -0.899649,3.298471 l 0.459024,0.209327 c -0.174713,0.528883 -0.399013,1.046291 -0.676425,1.546552 -1.681747,3.032729 -4.868712,4.753724 -8.148472,4.829231 -3.544932,-0.14245 -6.95988,-2.063145 -8.724188,-5.371834 -0.788799,-1.479272 -1.162206,-3.092972 -1.157893,-4.690584 0.0255,-1.596775 0.428671,-3.202588 1.244332,-4.666438 1.825132,-3.275531 5.274963,-5.130856 8.821921,-5.207793 z m 8.181701,13.351539 -0.966656,-0.442542 c 0.287583,-0.938125 0.385986,-1.913503 0.309731,-2.870309 0.09398,-0.955837 0.01398,-1.933661 -0.256633,-2.877493 l 0.974649,-0.422655 c -0.775354,-1.687312 -2.057572,-3.149506 -3.782568,-4.103476 -1.402256,-0.775486 -2.949309,-1.12197 -4.474567,-1.082395 -1.389145,-0.06453 -2.806238,0.222272 -4.098348,0.901633 -2.812839,1.478923 -4.397007,4.42583 -4.397005,7.436262 -0.05505,3.009379 1.474326,5.985856 4.258876,7.516225 1.279338,0.703114 2.690909,1.014093 4.081009,0.975239 1.524267,0.06775 3.077439,-0.248145 4.493782,-0.997594 1.741773,-0.921647 3.051273,-2.360875 3.85773,-4.032895 z M 49.032502,21.88893 c 2.231149,0.0913 4.377808,1.301365 5.457088,3.402118 0.211548,0.411766 0.364634,0.841889 0.474544,1.277875 l -0.429485,0.187448 c 0.306425,0.643224 0.501304,1.337221 0.5729,2.048348 -0.08467,0.709245 -0.292705,1.398334 -0.610626,2.035462 l 0.425949,0.195349 c -0.117966,0.434355 -0.278723,0.860677 -0.498071,1.268891 -1.115299,2.075607 -3.276458,3.247625 -5.503402,3.302818 -6.5e-4,1.6e-5 -0.0013,-3.4e-5 -0.002,-1.8e-5 -2.442948,-0.146022 -4.773624,-1.497413 -5.967146,-3.795517 -0.513406,-0.988554 -0.756307,-2.062091 -0.760215,-3.126297 0.02334,-1.064477 0.285995,-2.13233 0.817841,-3.111718 1.233448,-2.27138 3.582286,-3.579547 6.022576,-3.684759 z m 5.464421,8.951251 -1.013349,-0.462506 c 0.112421,-0.525847 0.131001,-1.063246 0.05959,-1.587408 0.08122,-0.523149 0.0726,-1.061951 -0.03023,-1.59019 l 1.021721,-0.443706 c -0.523122,-1.0981 -1.37139,-2.046769 -2.51268,-2.656137 -0.916225,-0.489198 -1.92532,-0.693965 -2.915959,-0.653917 -0.857246,-0.05671 -1.736522,0.09847 -2.539901,0.50195 -1.824935,0.916535 -2.83709,2.815712 -2.819386,4.749548 -0.05414,1.933842 0.922843,3.852366 2.731142,4.802778 0.795789,0.418254 1.672048,0.589646 2.530195,0.548787 0.98973,0.05834 2.002436,-0.127748 2.927542,-0.599935 1.152769,-0.588392 2.018041,-1.520508 2.561321,-2.609264 z m -5.40721,-5.841214 c 1.123666,0.09941 2.179989,0.741976 2.684404,1.82761 0.150886,0.324744 0.233918,0.668446 0.262127,1.014182 l -0.347114,0.151097 c 0.130657,0.246371 0.226213,0.509943 0.283787,0.783905 -0.06254,0.271739 -0.163676,0.533551 -0.298202,0.776576 l 0.344263,0.157484 c -0.03453,0.345401 -0.123868,0.688993 -0.280836,1.01112 -0.523192,1.07368 -1.587415,1.696834 -2.709898,1.777778 C 47.63313,32.396242 46.311783,31.61272 45.665801,30.27811 45.424986,29.780584 45.30805,29.245772 45.29742,28.714094 c 0.02045,-0.531391 0.147247,-1.06395 0.397212,-1.556944 0.66926,-1.319945 2.001189,-2.079048 3.395081,-2.158183 z m 2.585002,4.55337 -1.244805,-0.568163 c -0.02247,-0.07728 -0.05076,-0.151665 -0.08583,-0.22346 0.03642,-0.07108 0.06601,-0.145026 0.08994,-0.221834 l 1.255106,-0.547024 C 51.418708,27.481949 50.996924,27.051257 50.438485,26.786893 50.00373,26.581081 49.526806,26.507459 49.0656,26.551545 c -0.320836,-0.0464 -0.655093,-0.01395 -0.963967,0.112194 -0.842915,0.344237 -1.294022,1.202258 -1.255437,2.062709 -0.05525,0.860226 0.380039,1.729435 1.21708,2.089457 0.309603,0.133165 0.646896,0.170692 0.971514,0.128121 0.457338,0.05057 0.931818,-0.01367 1.367232,-0.210035 0.563726,-0.254227 0.992916,-0.676236 1.272689,-1.181654 z M 49.043395,28.11 c 0.08802,0.07529 0.142292,0.179492 0.01722,0.25017 l 0.869419,0.396719 -0.8766,0.380591 c 0.12399,0.07312 0.06788,0.176152 -0.02184,0.249809 -0.312113,-0.08324 -0.57902,-0.303814 -0.650322,-0.644707 1.38e-4,-6.16e-4 -1.23e-4,-0.0013 1.8e-5,-0.002 0.07758,-0.3395 0.348527,-0.553164 0.662103,-0.630629 z M 48.810917,17.305978 c -1.27537,1.265471 -2.261807,2.845983 -2.806608,4.65195 -1.24009,4.110783 0.04693,8.437142 2.896435,11.339567 0.01265,0.01313 0.02421,0.02732 0.03689,0.04043 0.01329,0.01341 0.0277,0.02572 0.04105,0.03907 2.849289,2.902633 7.151133,4.269365 11.284123,3.105431 1.946462,-0.548164 3.640143,-1.610025 4.973499,-2.996678 1.508899,-1.400797 2.677546,-3.194085 3.299833,-5.26752 0.73454,-2.447458 0.668302,-5.104057 -0.176418,-7.51496 l -1.015864,0.378713 c -0.621322,-1.282423 -1.4854,-2.409168 -2.521513,-3.335236 -0.906944,-1.053247 -2.01842,-1.939154 -3.289451,-2.584091 l 0.397415,-1.008695 c -2.394886,-0.889117 -5.049809,-1.004421 -7.510418,-0.315221 -2.084578,0.583876 -3.899149,1.719194 -5.327582,3.201957 -0.09476,0.08783 -0.189609,0.174222 -0.281436,0.265342 z m 1.370568,0.8441 c 2.413985,-2.221532 5.901627,-3.195232 9.217048,-2.178521 0.546894,0.167711 1.068811,0.386017 1.561616,0.645602 l -0.185263,0.469252 c 1.07452,0.397909 2.072474,0.993359 2.936676,1.750775 0.741475,0.878372 1.318322,1.886427 1.696223,2.968519 l 0.472595,-0.176562 c 0.250436,0.497517 0.457695,1.021984 0.615273,1.571882 0.955288,3.333638 -0.08131,6.80409 -2.347058,9.176622 -2.607373,2.405918 -6.380242,3.462514 -9.967393,2.370472 -1.603768,-0.488238 -3.008865,-1.365258 -4.135497,-2.49799 -1.11106,-1.147121 -1.961456,-2.567687 -2.419795,-4.179545 -1.025587,-3.606714 0.101899,-7.358025 2.555575,-9.920506 z m 15.2263,3.655627 -0.996454,0.370605 c -0.460002,-0.866707 -1.080117,-1.625984 -1.810602,-2.248628 -0.609425,-0.742333 -1.357419,-1.37719 -2.216161,-1.853228 l 0.390318,-0.988043 c -1.741368,-0.644852 -3.68196,-0.772114 -5.576275,-0.226916 -1.539896,0.443193 -2.878829,1.292124 -3.929366,2.398628 -1.027903,0.936644 -1.82714,2.14148 -2.260418,3.53552 -0.943222,3.034734 0.02038,6.238688 2.149079,8.367384 2.089026,2.166878 5.275145,3.190133 8.326254,2.303293 1.401805,-0.407452 2.619832,-1.185688 3.575307,-2.196111 1.125726,-1.029913 2.000613,-2.351543 2.472178,-3.882989 0.579917,-1.883322 0.488185,-3.826967 -0.12386,-5.579515 z M 52.299808,20.427789 c 1.64222,-1.513102 4.015782,-2.175374 6.264405,-1.453083 0.440749,0.141575 0.85314,0.33747 1.239147,0.568041 l -0.171146,0.436237 c 0.671503,0.238153 1.300034,0.591083 1.853502,1.043299 0.441642,0.561383 0.781798,1.195746 1.007512,1.871067 l 0.439324,-0.163059 c 0.223721,0.39055 0.411503,0.805678 0.545052,1.249431 0.67904,2.256311 -0.02039,4.613224 -1.556048,6.226938 -4.48e-4,4.71e-4 -9.43e-4,8.95e-4 -0.0014,0.0014 -1.830678,1.624172 -4.434293,2.316631 -6.903245,1.535573 -1.062046,-0.33598 -1.992909,-0.923329 -2.748179,-1.673072 -0.736195,-0.769203 -1.305556,-1.710014 -1.622016,-2.778618 -0.733929,-2.478288 0.0019,-5.064181 1.653086,-6.864123 z m 10.19342,2.465561 -1.043587,0.389505 C 61.157304,22.831531 60.790444,22.438395 60.36931,22.118252 60.056819,21.690898 59.669733,21.316003 59.2235,21.015193 l 0.408718,-1.036213 c -1.146377,-0.406571 -2.417003,-0.477565 -3.654905,-0.10144 -0.993784,0.301954 -1.852114,0.8707 -2.524284,1.599506 -0.646264,0.566064 -1.158277,1.297535 -1.441049,2.150913 -0.642335,1.938512 -0.01512,3.997135 1.364831,5.352045 1.32915,1.405715 3.376583,2.071485 5.327286,1.464868 0.858458,-0.266958 1.599259,-0.765374 2.177169,-1.401067 0.741097,-0.658593 1.325605,-1.506268 1.645867,-2.494303 0.399075,-1.231187 0.351809,-2.502132 -0.0339,-3.656156 z m -7.953837,-0.306887 c 0.864845,-0.724258 2.066141,-1.016829 3.190475,-0.605845 0.336322,0.122936 0.638068,0.307258 0.902487,0.531783 l -0.138605,0.352289 c 0.266599,0.08182 0.520541,0.200627 0.754973,0.353637 0.147926,0.236371 0.261541,0.493014 0.338261,0.759982 l 0.354789,-0.132072 c 0.219819,0.268651 0.399603,0.574779 0.516389,0.913551 0.389253,1.129159 0.07737,2.322314 -0.659109,3.173266 -1.058957,0.914032 -2.547324,1.294332 -3.947814,0.807398 -0.522086,-0.181522 -0.982941,-0.477005 -1.366411,-0.845441 -0.36129,-0.390211 -0.648207,-0.856446 -0.820054,-1.381797 -0.460104,-1.406581 -0.05505,-2.885164 0.874619,-3.926751 z m 5.047591,1.391846 -1.281962,0.478459 c -0.07053,-0.03876 -0.143136,-0.07135 -0.218701,-0.09732 -0.02451,-0.07601 -0.05587,-0.149225 -0.09326,-0.220457 l 0.500689,-1.274298 c -0.551773,-0.169345 -1.154564,-0.175644 -1.736374,0.0323 -0.452949,0.161887 -0.842244,0.447065 -1.137192,0.80436 -0.259675,0.194055 -0.473085,0.453356 -0.602295,0.760961 -0.352618,0.839443 -0.06489,1.765136 0.570828,2.346283 0.569204,0.647339 1.491623,0.954167 2.338075,0.616864 0.313084,-0.124761 0.578122,-0.336727 0.777559,-0.596369 0.359145,-0.287628 0.649229,-0.668561 0.818262,-1.115296 0.218849,-0.57838 0.223926,-1.180269 0.06437,-1.735483 z m -2.88051,0.840738 c 0.115477,-0.009 0.227535,0.0263 0.189073,0.164721 l 0.895295,-0.33425 -0.350732,0.888969 c 0.139378,-0.03597 0.172557,0.07656 0.161199,0.192085 -0.279557,0.161837 -0.624258,0.1946 -0.915724,0.004 -3.38e-4,-5.33e-4 -0.001,-8.32e-4 -0.0014,-0.0014 -0.185205,-0.29492 -0.1447,-0.637592 0.02226,-0.914099 z"
       inkscape:path-effect="#path-effect2"
       inkscape:original-d="m 48.902488,17.343837 c -0.007,1.796646 0.413074,3.611753 1.304853,5.273997 2.029887,3.783638 5.999147,5.932774 10.066374,5.970196 0.01823,3.43e-4 0.03644,0.0022 0.05467,0.0025 0.01888,8.6e-5 0.03778,-0.0014 0.05666,-0.0014 4.067223,0.03772 8.075511,-2.037718 10.174951,-5.783209 0.988746,-1.763966 1.43551,-3.712429 1.397823,-5.635766 0.07644,-2.057466 -0.365248,-4.15187 -1.391364,-6.058033 C 69.355239,8.8621097 67.429902,7.0304477 65.127829,5.9229887 l -0.450534,0.986115 c -1.346151,-0.467469 -2.753875,-0.653202 -4.141347,-0.575389 -1.386064,-0.103452 -2.798427,0.05605 -4.153221,0.498765 l -0.43224,-0.99427 c -2.322141,1.06474 -4.280987,2.860521 -5.533563,5.0877723 -1.061156,1.886882 -1.541461,3.972769 -1.503044,6.031295 -0.0049,0.129116 -0.01088,0.257268 -0.01138,0.386631 z m 1.566006,-0.372269 c 0.136085,-3.277806 1.913711,-6.432451 4.976991,-8.0578843 0.505301,-0.268123 1.028718,-0.482808 1.560738,-0.64772 l 0.200811,0.462812 c 1.041165,-0.478436 2.167871,-0.763049 3.314528,-0.838558 1.145405,0.0968 2.2661,0.40171 3.298471,0.899649 l 0.209327,-0.459024 c 0.528883,0.174713 1.046291,0.399013 1.546552,0.676425 3.032729,1.6817473 4.753724,4.8687123 4.829231,8.1484723 -0.14245,3.544932 -2.063145,6.95988 -5.371834,8.724188 -1.479272,0.788799 -3.092972,1.162206 -4.690584,1.157893 -1.596775,-0.0255 -3.202588,-0.428671 -4.666438,-1.244332 -3.275531,-1.825132 -5.130856,-5.274963 -5.207793,-8.821921 z m 13.351539,-8.1817013 -0.442542,0.966656 c -0.938125,-0.287583 -1.913503,-0.385986 -2.870309,-0.309731 -0.955837,-0.09398 -1.933661,-0.01398 -2.877493,0.256633 l -0.422655,-0.974649 c -1.687312,0.775354 -3.149506,2.0575723 -4.103476,3.7825683 -0.775486,1.402256 -1.12197,2.949309 -1.082395,4.474567 -0.06453,1.389145 0.222272,2.806238 0.901633,4.098348 1.478923,2.812839 4.42583,4.397007 7.436262,4.397005 3.009379,0.05505 5.985856,-1.474326 7.516225,-4.258876 0.703114,-1.279338 1.014093,-2.690909 0.975239,-4.081009 0.06775,-1.524267 -0.248145,-3.077439 -0.997594,-4.493782 C 66.931281,10.905824 65.492053,9.5963237 63.820033,8.7898667 Z M 53.57696,17.084272 c 0.0913,-2.231149 1.301365,-4.377808 3.402118,-5.457088 0.411766,-0.211548 0.841889,-0.364634 1.277875,-0.474544 l 0.187448,0.429485 c 0.643224,-0.306425 1.337221,-0.501304 2.048348,-0.5729 0.709245,0.08467 1.398334,0.292705 2.035462,0.610626 l 0.195349,-0.425949 c 0.434355,0.117966 0.860677,0.278723 1.268891,0.498071 2.075607,1.115299 3.247625,3.276458 3.302818,5.503402 1.6e-5,6.5e-4 -3.4e-5,0.0013 -1.8e-5,0.002 -0.146022,2.442948 -1.497413,4.773624 -3.795517,5.967146 -0.988554,0.513406 -2.062091,0.756307 -3.126297,0.760215 -1.064477,-0.02334 -2.13233,-0.285995 -3.111718,-0.817841 -2.27138,-1.233448 -3.579547,-3.582286 -3.684759,-6.022576 z m 8.951251,-5.464421 -0.462506,1.013349 c -0.525847,-0.112421 -1.063246,-0.131001 -1.587408,-0.05959 -0.523149,-0.08122 -1.061951,-0.0726 -1.59019,0.03023 l -0.443706,-1.021721 c -1.0981,0.523122 -2.046769,1.37139 -2.656137,2.51268 -0.489198,0.916225 -0.693965,1.92532 -0.653917,2.915959 -0.05671,0.857246 0.09847,1.736522 0.50195,2.539901 0.916535,1.824935 2.815712,2.83709 4.749548,2.819386 1.933842,0.05414 3.852366,-0.922843 4.802778,-2.731142 0.418254,-0.795789 0.589646,-1.672048 0.548787,-2.530195 0.05834,-0.98973 -0.127748,-2.002436 -0.599935,-2.927542 -0.588392,-1.152769 -1.520508,-2.018041 -2.609264,-2.561321 z m -5.841214,5.40721 c 0.09941,-1.123666 0.741976,-2.179989 1.82761,-2.684404 0.324744,-0.150886 0.668446,-0.233918 1.014182,-0.262127 l 0.151097,0.347114 c 0.246371,-0.130657 0.509943,-0.226213 0.783905,-0.283787 0.271739,0.06254 0.533551,0.163676 0.776576,0.298202 l 0.157484,-0.344263 c 0.345401,0.03453 0.688993,0.123868 1.01112,0.280836 1.07368,0.523192 1.696834,1.587415 1.777778,2.709898 -0.102477,1.395114 -0.885999,2.716461 -2.220609,3.362443 -0.497526,0.240815 -1.032338,0.357751 -1.564016,0.368381 -0.531391,-0.02045 -1.06395,-0.147247 -1.556944,-0.397212 -1.319945,-0.66926 -2.079048,-2.001189 -2.158183,-3.395081 z m 4.55337,-2.585002 -0.568163,1.244805 c -0.07728,0.02247 -0.151665,0.05076 -0.22346,0.08583 -0.07108,-0.03642 -0.145026,-0.06601 -0.221834,-0.08994 l -0.547024,-1.255106 c -0.509907,0.270418 -0.940599,0.692202 -1.204963,1.250641 -0.205812,0.434755 -0.279434,0.911679 -0.235348,1.372885 -0.0464,0.320836 -0.01395,0.655093 0.112194,0.963967 0.344237,0.842915 1.202258,1.294022 2.062709,1.255437 0.860226,0.05525 1.729435,-0.380039 2.089457,-1.21708 0.133165,-0.309603 0.170692,-0.646896 0.128121,-0.971514 0.05057,-0.457338 -0.01367,-0.931818 -0.210035,-1.367232 -0.254227,-0.563726 -0.676236,-0.992916 -1.181654,-1.272689 z m -1.442337,2.63132 c 0.07529,-0.08802 0.179492,-0.142292 0.25017,-0.01722 l 0.396719,-0.869419 0.380591,0.8766 c 0.07312,-0.12399 0.176152,-0.06788 0.249809,0.02184 -0.08324,0.312113 -0.303814,0.57902 -0.644707,0.650322 -6.16e-4,-1.38e-4 -0.0013,1.23e-4 -0.002,-1.8e-5 -0.3395,-0.07758 -0.553164,-0.348527 -0.630629,-0.662103 z"
       transform="matrix(2.4242573,0,0,2.4242573,-58.774225,18.046049)" />
  </g>
</svg>
