<?xml version="1.0" encoding="UTF-8" standalone="no"?>
<!-- Created with Inkscape (http://www.inkscape.org/) -->

<svg
   width="120"
   height="120"
   viewBox="0 0 120 120"
   version="1.1"
   id="svg1"
   inkscape:version="1.4 (86a8ad7, 2024-10-11)"
   sodipodi:docname="mand_32.svg"
   xmlns:inkscape="http://www.inkscape.org/namespaces/inkscape"
   xmlns:sodipodi="http://sodipodi.sourceforge.net/DTD/sodipodi-0.dtd"
   xmlns="http://www.w3.org/2000/svg"
   xmlns:svg="http://www.w3.org/2000/svg">
  <sodipodi:namedview
     id="namedview1"
     pagecolor="#ffffff"
     bordercolor="#000000"
     borderopacity="0.25"
     inkscape:showpageshadow="2"
     inkscape:pageopacity="0.0"
     inkscape:pagecheckerboard="0"
     inkscape:deskcolor="#d1d1d1"
     inkscape:document-units="px"
     inkscape:zoom="4.8625"
     inkscape:cx="60.051414"
     inkscape:cy="67.763496"
     inkscape:window-width="3440"
     inkscape:window-height="1369"
     inkscape:window-x="-8"
     inkscape:window-y="-8"
     inkscape:window-maximized="1"
     inkscape:current-layer="layer1" />
  <defs
     id="defs1">
    <inkscape:path-effect
       effect="copy_rotate"
       starting_point="0,0"
       origin="45.891385,26.067348"
       id="path-effect4"
       is_visible="true"
       lpeversion="1.2"
       lpesatellites=""
       method="normal"
       num_copies="6"
       starting_angle="0"
       rotation_angle="60"
       gap="-0.01"
       copies_to_360="true"
       mirror_copies="false"
       split_items="false"
       link_styles="false" />
    <inkscape:path-effect
       effect="copy_rotate"
       starting_point="0,0"
       origin="48.902402,17.214372"
       id="path-effect2"
       is_visible="true"
       lpeversion="1.2"
       lpesatellites=""
       method="normal"
       num_copies="8"
       starting_angle="0"
       rotation_angle="45"
       gap="-0.01"
       copies_to_360="true"
       mirror_copies="false"
       split_items="false"
       link_styles="false" />
  </defs>
  <g
     inkscape:label="Layer 1"
     inkscape:groupmode="layer"
     id="layer1">
    <path
       id="path2"
       d="m 72.833533,3.0512486 -5.322506,5.1290457 -6.714473,-1.6609234 -0.06134,-0.1179678 -0.202886,0.051893 -0.202887,-0.051893 -0.06605,0.1179678 -6.950399,1.7222634 -5.492374,-5.1715128 -8.224404,5.1196098 -1.811917,-0.8776468 -3.718203,4.3221755 -0.335017,0.207621 -0.887083,-0.122679 -0.368046,0.872929 -0.429388,0.240646 -5.681113,1.075825 -0.150993,2.118621 -8.762316,4.79403 1.783605,7.176889 -4.79403,4.978053 -0.136839,-0.0048 -0.05662,0.202886 -0.146275,0.150994 0.07078,0.113232 -1.986504,6.884342 -7.2240733,2.170524 0.320859,9.682432 -1.6656419,1.12773 1.8826951,5.383845 0.014157,0.39164 -0.5520693,0.707778 0.5756605,0.754965 -0.00945,0.490728 -1.9110069,5.459344 1.7600139,1.189069 -0.2264896,9.984408 7.1061105,2.047853 1.915725,6.643695 -0.07078,0.113305 0.146275,0.150993 0.05662,0.198103 0.13212,-0.0048 4.973335,5.166814 -1.731702,7.342025 8.545263,4.56282 0.146282,2.00538 5.600898,1.06166 0.349174,0.18409 0.335013,0.83047 0.943709,-0.12273 0.41995,0.2548 3.770106,4.38351 1.911007,-0.92953 8.531108,5.19039 5.327224,-5.12906 6.705037,1.66093 0.06605,0.11789 0.202886,-0.0519 0.202887,0.0519 0.06605,-0.11789 6.955118,-1.72226 5.492374,5.1715 8.224404,-5.11961 1.811917,0.87764 3.718203,-4.32217 0.335016,-0.20752 0.887085,0.12272 0.368044,-0.87766 0.429388,-0.23604 5.681113,-1.07582 0.150993,-2.11863 8.757598,-4.79402 -1.77888,-7.176904 4.79403,-4.982771 0.13212,0.0048 0.0566,-0.198103 0.14628,-0.150993 -0.0708,-0.113305 1.9865,-6.889053 7.22407,-2.170531 -0.32086,-9.68243 1.66565,-1.12773 -1.8827,-5.383847 -0.0143,-0.391637 0.55207,-0.707781 -0.57566,-0.754965 0.009,-0.490728 1.911,-5.459341 -1.76001,-1.189072 0.22649,-9.984415 -7.10611,-2.047846 -1.91573,-6.638977 0.0708,-0.113232 -0.14628,-0.150993 -0.0566,-0.202887 -0.13684,0.0048 -4.96389,-5.162076 1.7317,-7.342037 L 94.844892,15.909284 94.69861,13.903908 89.097712,12.842238 88.749023,12.65822 88.41401,11.827758 87.470303,11.945726 87.050354,11.695645 83.280245,7.312128 81.369238,8.2416773 Z M 73.003394,4.5658975 80.076477,8.8644813 76.764066,10.4735 68.893551,8.5200293 Z M 47.674307,4.5895735 51.920988,8.5861713 44.300556,10.478303 40.879618,8.8173793 Z M 59.480078,7.9538896 57.276523,11.978797 54.35575,9.2278923 Z m 2.104466,0 4.897838,1.2126627 -2.76978,2.6706877 z m -1.052233,0.5850967 2.279051,4.1617457 -2.175243,2.099748 -0.339734,0.02368 -2.113903,-1.991222 z m 22.441346,0.264238 0.731372,0.854056 -1.104137,-0.670033 z m -44.882692,0.0048 0.287831,0.136836 -0.877646,0.552067 z m 29.778664,0.703062 7.200483,1.7883237 -5.95479,2.892461 -3.958847,0.283111 -0.844619,-1.53824 z m -14.901126,0.05663 3.713485,3.4964337 -0.839899,1.528803 -3.685175,-0.301986 -6.162404,-2.991549 z m -13.301547,0.0048 2.689566,1.3070337 -6.568199,1.245693 -0.179307,-0.02368 z m 41.636338,0.04247 4.194776,2.5527247 -6.794688,-1.288159 z m -4.397672,2.1374937 0.245363,0.06134 4.581697,0.868211 -9.139801,1.170196 z m -32.746623,0.0048 4.421266,2.142215 -9.050145,-1.25513 4.383517,-0.830462 z m -8.351803,1.590145 14.330187,1.991222 1.684515,0.136836 1.292877,0.627563 0.136836,0.05663 -0.910676,4.836496 -0.235936,0.429386 -0.877649,0.363328 0.127414,0.891801 -0.212333,0.335016 -4.322175,3.722924 0.877647,1.807199 -2.73203,4.388235 -5.44519,0.179307 -1.160757,-1.675081 -5.2187,1.887414 -0.250081,0.0094 -0.70778,-0.55207 -0.754966,0.575661 -0.353889,-0.0094 -4.761002,-1.722266 0.0048,-0.05189 0.113232,-1.646769 0.726654,-1.486337 5.643365,-13.485568 1.06639,-1.240975 z m 49.780528,0.06134 1.609018,0.306704 1.288162,1.491058 5.440469,13.410071 0.721935,1.524085 0.103811,1.434435 0.01884,0.146282 -4.643037,1.627893 -0.490728,0.0094 -0.754965,-0.57566 -0.707781,0.552069 -0.396355,-0.01425 -5.383848,-1.882695 -1.12773,1.665642 -5.166794,-0.169861 -2.878305,-4.624161 0.872929,-1.840229 -4.246679,-3.576649 -0.132125,-0.212332 0.127414,-0.891802 -0.877649,-0.363328 -0.169861,-0.311422 -0.887086,-4.992208 0.04718,-0.01884 1.481618,-0.721935 1.651488,-0.117968 z m -22.17239,0.391637 0.419949,0.769122 -1.316469,0.09436 z m -5.827388,0.117968 0.948425,0.896519 -1.377811,-0.113232 z m -25.909466,0.495446 -4.510919,5.23757 0.202886,-2.883023 z m 57.787879,0 4.218367,2.250738 0.212332,2.982114 -4.364644,-5.067705 z m -60.854927,0.297267 -1.132448,0.622846 0.02831,-0.415231 z m 64.054091,0.03776 0.891803,0.169861 0.02368,0.316141 z m -33.511025,1.368374 -0.938986,0.806868 -1.509931,-0.632284 z m 2.887744,0.207621 1.882695,0.155704 -1.137167,0.471855 z m -1.566552,0.254802 1.066388,0.896522 -1.000331,0.419949 -1.071106,-0.448261 z m -6.082192,0.05663 0.268959,0.113233 -0.443543,0.811586 z m 12.150224,0.05663 0.240647,0.01884 0.193464,1.080542 -0.570942,-1.038076 z m -10.762975,0.523757 1.410841,0.594536 -3.284097,2.83112 z m 9.503127,0.0048 1.854384,3.387908 -3.307693,-2.779218 z m 29.660702,0.117968 7.058924,3.770108 -1.34006,5.671677 -5.44519,-5.652804 z m -68.833966,0.117968 -0.264238,3.671018 -5.624492,5.841545 -1.373093,-5.534841 z m 4.133436,0.476572 -3.557776,8.498079 0.339734,-4.784594 0.174597,-0.184018 z m 60.713368,0.146283 2.906617,3.383186 0.174596,0.184019 0.353889,4.897838 z m -32.515412,0.25008 0.528475,0.221779 -1.528806,0.64172 z m 4.138152,0.02368 0.93427,0.783277 -1.406122,-0.585099 z m -2.043125,0.854055 6.077471,2.543289 1.250411,1.052233 0.349171,1.944035 -1.991219,14.339623 -0.122679,1.472183 -0.221779,0.467133 -3.812575,1.099421 0.174572,7.724237 -1.453307,3.586086 -0.254801,0.174596 0.08494,0.235936 -0.03303,0.08494 -0.08965,-0.212333 0.03776,-0.108522 -0.117968,-0.08021 -1.4769,-3.529464 0.25008,-7.507187 -3.939974,-1.184351 -0.264238,-0.537912 -0.136836,-1.684518 -1.991219,-14.330187 0.368044,-1.939316 1.240974,-1.066388 z m 34.813339,3.798418 4.987492,5.171513 -1.174917,4.963898 -1.741139,0.04247 -1.580709,-3.345441 z m -69.636114,0.0048 -0.471855,6.601229 -1.731702,3.56721 -1.755293,-0.03774 -1.189072,-4.789311 z m 25.895311,1.538243 0.02368,0.184018 -1.240975,6.577635 -1.316468,-2.699 z m 17.850212,0.0048 2.382859,3.831451 -1.274004,2.703718 -1.132448,-6.374739 z m 2.453635,1.656206 0.688908,0.580379 -0.141547,0.297268 z m -22.908477,0.240647 -0.55207,0.882367 -0.136836,-0.287832 z m 3.147261,2.024251 1.259847,9.059584 -2.14693,-4.421265 0.06134,-0.250083 z m 16.746076,0.117968 0.778556,4.383517 -1.967628,4.171185 z m 32.430478,0.618127 3.66158,3.79842 -4.58641,0.108522 z m -81.753309,0.169861 0.924831,3.732361 -4.421265,-0.103811 z m 53.031597,0.231201 2.038407,3.269944 -3.05761,-0.0991 -0.405795,1.354219 -0.240646,-1.009767 z m -24.28629,0.217043 1.665642,3.420936 -0.16515,0.67475 -0.344453,-1.141884 -3.05761,0.10381 z m 34.553819,3.05761 0.858773,0.301986 -1.038078,-0.03776 z m -56.617683,0.0048 1.033358,0.372764 -1.184351,-0.02831 0.01884,-0.155704 z m 11.635903,0 0.188754,0.268956 -1.033358,0.03776 z m 57.032913,0.05663 0.03776,0.29255 -0.924832,0.01884 z m -22.4555,1.071109 2.939646,0.0991 1.561834,2.505542 -1.557115,1.656206 -3.048174,0.877646 -0.632281,-2.680126 z m -23.875778,0.0048 0.655875,2.184681 -0.759683,3.071764 -2.637661,-0.792713 -1.760011,-1.868538 1.557115,-2.496104 z m 28.273452,0.141547 3.60024,0.117967 -2.132776,3.15198 -0.660596,0.188753 0.811589,-0.858771 z m -32.671126,0.0048 -1.613737,2.595194 0.972016,1.033358 -1.000328,-0.301986 -2.212993,-3.199166 z m -28.136614,0.04718 4.742124,0.108521 0.726656,2.934929 -0.146275,0.301986 -2.788653,0.83518 z m 88.949066,0 -2.46307,4.053219 -2.906614,-0.83518 -0.188754,-0.278393 0.670038,-2.83112 z m -23.11137,0.113232 4.784594,0.16044 -0.146283,0.113232 -6.318117,2.212993 z m -42.999994,0.01425 1.70339,2.458356 -6.086908,-2.208273 -0.127414,-0.0991 z m -16.845164,0.0094 0.877647,0.01884 -0.575661,1.189072 z m 76.82716,0 -0.301986,1.269284 -0.589818,-1.250411 z m -3.760672,0.08494 0.193464,1.519367 -4.095685,-1.429716 z m -69.16898,0.0048 3.85976,0.08965 -4.057938,1.472183 z m 70.433548,0.339734 1.373093,2.02897 -1.165479,-0.405795 z m -81.361673,0.05663 2.382859,3.916384 -3.845602,1.156041 z m 91.020505,0 1.39669,4.841217 -3.69461,-1.061669 z m -35.922189,0.04247 0.368046,1.557115 -1.071109,3.56721 -1.995937,0.575663 z m -19.312958,0.06134 2.859432,5.893448 -1.948753,-0.585097 -1.217384,-4.062658 z m -18.732577,0.05663 1.854383,0.67003 11.42357,8.894436 1.212663,0.839898 0.301986,0.434106 -0.957861,3.845605 6.771094,3.708767 2.387578,3.062328 0.02367,0.297268 0.240647,0.04247 0.06134,0.0755 -0.226489,-0.02831 -0.0755,-0.08965 -0.136836,0.06605 -3.784263,-0.486009 -6.379457,-3.973004 -2.996268,2.821681 -0.599254,-0.04247 -1.528806,-0.721935 -13.405353,-5.440469 -1.495773,-1.288159 -0.301987,-1.609021 0.835181,-6.535168 5.23757,-3.987159 z m 56.91495,0.02367 1.542961,0.542633 5.242291,3.987159 0.83518,6.535169 -0.287832,1.609021 -1.505212,1.274004 -13.41479,5.445187 -1.335346,0.632284 -0.523755,0.04247 -2.854714,-2.750906 -6.59651,4.010753 -3.836166,0.533194 -0.278395,-0.132125 -0.16515,0.193464 -0.09437,0.01425 0.141547,-0.188729 0.117968,-0.01884 0.01425,-0.150993 2.302644,-3.02458 6.638974,-3.543619 -0.948425,-4.010752 0.335017,-0.495446 1.391967,-0.962582 11.414134,-8.889716 z m -64.360795,0.221779 -0.155704,1.222102 -0.924834,0.335013 z m 69.607804,1.618457 1.245693,0.434106 0.0755,0.570943 z m -10.682759,0.06134 -7.214638,5.619773 2.755624,-4.072094 0.245362,-0.07079 z m -56.830018,0.0094 -1.207944,0.920113 0.06605,-0.504883 z m 10.88094,0.06605 4.185337,1.514649 2.628224,3.788981 z m 59.160971,0.745529 1.250411,0.438822 -0.240647,1.373095 -0.863491,-0.655878 z m -72.467236,0.06605 -0.136836,1.075827 -0.924834,0.70306 -0.245365,-1.302314 z m 25.631073,0.665314 0.410513,1.358938 -0.693624,-0.207622 z m 21.110718,0.297268 0.169861,0.712499 -0.419949,0.122679 z m 6.237903,0.221779 -3.671021,5.421593 -0.467134,-1.977064 2.911335,-3.09064 z m 23.418083,0 1.1985,0.344453 -0.45298,0.754965 z m -80.205634,0.08965 -0.787996,1.137166 -0.462415,-0.764402 z m 23.168,0 1.547678,0.462415 2.548007,2.708439 -0.500164,2.019531 z m -21.728848,0.113232 0.231208,1.212663 -1.302314,0.990891 z m 77.096119,0.217044 0.806868,1.708108 -0.976737,-0.745529 z m 4.067373,0.268956 4.74212,1.368374 2.05257,7.129704 -5.48294,-3.708766 -2.22243,-3.2841 z m -85.042125,0.132125 0.901241,1.486339 -2.104467,3.043453 -5.671676,3.840887 1.986501,-6.903215 z m 55.735316,0.184018 -0.976737,1.038079 -0.16515,-0.707781 z m -26.286949,0.235936 0.698342,0.212332 -0.103811,0.419949 z m -23.5502,0.339732 -0.212333,1.646769 -0.245362,-1.302314 z m 73.179733,0.0094 0.405794,0.311422 -0.212332,1.198508 z m -25.64051,0.0755 0.335016,1.429716 -2.60463,2.76506 1.160759,-3.873917 z m -22.129921,0.132125 1.396686,0.419949 1.089981,3.633273 -2.76506,-2.934928 z m 19.647974,0.5851 -1.632614,5.431032 -0.632282,0.67003 0.457697,-5.582023 z m 40.197182,0.06605 5.48294,1.580707 -0.18876,8.276309 -3.04817,-2.062 z m -57.07066,0.184018 1.750578,0.523758 0.443542,5.327224 -0.637002,-0.679469 z M 11.789861,41.702227 9.6146168,49.247162 6.4673559,51.37522 6.203118,43.377308 Z m 86.825733,0.01884 1.255129,0.953143 -2.010094,3.298254 z m -76.204315,0.02368 0.811589,4.265554 -2.02897,-3.336003 z m 42.820692,0.721935 -1.849667,4.562822 -0.08965,-4.001316 z m -9.323824,0.297268 2.043127,0.613411 -0.132125,3.954129 z m -7.172171,0.537914 3.883354,4.123998 0.264237,0.887083 -4.60057,-3.185009 z m -28.50466,0.103811 0.481291,0.792714 -0.717217,-0.613409 z m 80.606704,0.0048 0.12268,0.09436 0.0991,0.212333 -0.8399,0.707778 z m -28.683961,0.08021 0.419949,1.778887 -4.392954,3.043453 0.264238,-0.882365 z m -6.365303,0.825744 -0.377482,4.59585 -1.934598,2.293208 -0.02368,-1.132448 z m -46.774821,0.01884 3.732361,3.208603 0.254801,0.419949 -0.122679,0.938988 0.83518,0.339735 0.184018,0.349171 1.061673,5.605618 2.005376,0.141547 2.434762,4.558102 -2.566882,4.808187 -2.02897,0.16515 -0.976734,5.464062 -0.113233,0.221779 -0.83518,0.339734 0.122679,0.938984 -0.184019,0.301986 -3.873917,3.265219 -0.04718,-0.0331 L 17.527612,74.444192 16.602779,73.075808 7.7460932,61.444631 7.2034604,59.896952 7.8546198,58.03785 16.744335,46.618998 l 0.96258,-1.387247 1.189072,-0.80687 z m 83.112245,0.05663 0.0425,0.03303 1.36838,0.924833 0.92483,1.368374 8.85668,11.631185 0.54264,1.547679 -0.65116,1.859104 -8.88972,11.418852 -0.96258,1.387252 -1.18907,0.806858 -0.12268,0.09446 -3.722918,-3.208615 -0.254802,-0.419954 0.122679,-0.938984 -0.835182,-0.339734 -0.184019,-0.349173 -1.061669,-5.605617 -2.005379,-0.141547 -2.43948,-4.562822 2.566882,-4.803466 2.033688,-0.165151 0.972016,-5.464062 0.117968,-0.221778 0.835182,-0.339735 -0.122678,-0.938988 0.184018,-0.301986 z m -46.83616,0.03303 2.434764,5.817951 -0.03776,1.075827 -2.02897,-2.406453 z m -7.497748,2.689565 3.019861,3.878633 -3.50587,-1.920441 z m -33.072203,0.136836 -5.6150526,7.209919 1.4769006,-4.213648 0.07078,-0.240647 z m 91.718851,0.06605 3.973,2.684845 0.0708,0.245365 1.53824,4.397672 z m -33.378903,0.0048 0.490728,2.080873 -3.501153,1.86854 z m -23.394489,0.2312 3.788984,2.628224 1.019201,2.816966 -0.990892,-0.542633 z m 21.643912,0.06605 -3.82673,5.025237 -0.943706,0.504885 1.071106,-2.967958 z m -16.845164,1.76945 0.02368,0.02368 v 0.01425 l -0.01425,-0.0094 z m 12.131351,0.0048 -0.0048,0.02368 -0.0094,0.0094 v -0.01425 z m -41.136174,0.561505 0.169861,0.07079 5.077143,4.364642 -2.996268,-0.212333 z m 70.145716,0 -2.128057,3.982441 -2.977395,0.245365 4.954459,-4.166466 z m 16.462961,1.170197 2.39702,1.618457 -0.11324,4.907275 z M 8.9917716,51.130307 6.788215,57.443704 6.6749702,57.585251 6.5145406,52.805375 Z m 20.1386994,0.31614 8.474487,3.439813 -4.902556,-0.349173 -0.184019,-0.179307 z m 62.695153,0.04247 -3.40678,2.868868 -4.595852,0.382201 z m -35.922195,0.391637 1.623175,1.123012 0.103811,0.122678 -0.05663,1.571271 -1.495776,-0.821023 -0.0094,-0.02831 z m 9.262482,0 -0.16515,1.958192 -0.05663,0.160439 -1.38725,0.740811 -0.03776,-1.708111 0.02831,-0.03303 z m 30.231644,1.02864 -0.155704,0.887085 -0.330296,0.02831 z m -69.59365,0.250083 0.486009,0.920113 -0.31614,-0.02368 z m 89.850305,0.391637 0.34446,0.231201 -0.37277,1.06167 z M 5.3301897,53.607544 5.3679377,54.64562 5.0659516,53.786846 Z m 71.1932313,0.25008 1.453308,1.396686 -4.869527,0.679469 z m -31.585863,0.01884 3.359596,2.09031 -4.916711,-0.627564 z m 17.40667,0.552067 0.01425,0.68419 -0.179307,-0.49073 z m -3.557774,0.0755 0.09908,0.113233 -0.113233,0.306704 z m 34.011189,0.70778 -1.816635,3.402063 -1.439153,-2.694282 -1.387249,0.32558 0.764402,-0.71722 z m -64.412701,0.231201 3.79842,0.268956 0.500164,0.481291 -1.156039,-0.273674 -1.443873,2.703718 z m 28.315921,0.150993 0.603972,0.330298 -0.519039,-0.09436 z m 7.629868,0.0991 -0.05192,0.136836 -0.316141,0.05663 z m 22.663115,0 -1.170196,1.104136 -3.623834,0.854056 -1.495776,-1.443873 z m -52.932507,0.150995 6.539887,0.471852 -1.486337,1.396686 -4.124,-0.976737 z m 42.5942,0.816305 -4.166464,1.96763 -2.949083,-0.528475 0.967298,-0.589818 z m 2.79809,0.01425 1.35422,1.307035 -5.511247,1.297596 -0.905959,-0.212333 z m -34.940738,0.02832 6.252055,0.80215 0.915395,0.570942 -3.100076,0.552069 z m -2.665972,0.08021 4.831778,2.283769 -0.90124,0.212333 -5.261164,-1.240975 z m -9.68715,0.519039 2.217711,0.523756 2.283771,2.198838 -2.000658,1.882695 -2.505542,0.589815 -1.38725,-2.590476 z m 56.754521,0 1.387249,2.590474 -1.391968,2.60463 -2.222429,-0.523757 -2.279051,-2.198836 2.000656,-1.882695 z m -28.386697,0.424668 0.09436,0.01884 0.311425,0.169861 0.368044,0.872928 0.887086,-0.122679 0.212332,0.132125 0.0094,0.01425 0.03303,0.08494 0.0094,0.353889 -0.57566,0.754965 0.552067,0.707781 -0.0094,0.250081 -0.0094,0.01884 -0.05663,0.07078 -0.297268,0.184018 -0.943706,-0.117967 -0.335014,0.830461 -0.221779,0.117968 -0.01884,0.0048 -0.09436,-0.01884 -0.306707,-0.169861 -0.368044,-0.872928 -0.887085,0.122678 -0.212333,-0.132124 -0.01884,-0.01884 -0.02831,-0.08494 -0.0094,-0.353892 0.575661,-0.754965 -0.552067,-0.707778 0.0094,-0.250083 0.0048,-0.0094 0.06134,-0.0755 0.301986,-0.184018 0.943707,0.117968 0.335016,-0.830462 0.221778,-0.117968 z m -23.84275,0.646439 1.382531,0.325577 -0.528476,0.495448 z m 47.39295,0.07079 -0.533194,0.500164 -0.316143,-0.301986 z m -28.938766,0.240647 0.207621,0.250083 -0.353891,-0.221779 z m 10.791286,0.0048 0.245363,0.04247 -0.585097,0.35861 z m 15.906175,0.283113 0.830462,0.797432 -1.066388,1.005048 -3.689894,-0.872931 z m -42.36771,0.05189 3.689894,0.872929 -3.92582,0.929552 -0.830462,-0.797432 z m 13.749806,0.0048 1.335346,0.830462 -1.467464,0.887085 h -0.01884 l -1.788323,-0.849337 1.783605,-0.839898 z m 14.76429,0.02368 0.01884,0.0048 1.788323,0.844617 -1.783605,0.839901 -0.155704,0.02831 -1.335344,-0.830462 z m -19.553602,0.839898 0.01425,0.0048 -0.01425,0.0094 -0.02831,-0.0094 z m 24.210796,0 0.02831,0.0048 -0.02831,0.0094 -0.01425,-0.0048 z m -26.86733,0.627566 0.905959,0.212332 -5.062986,2.38758 -1.35422,-1.302316 z m 29.523864,0 5.256445,1.236256 -1.335344,1.255129 -4.82706,-2.279053 z m 8.23384,0.08494 0.854055,0.821025 -1.382531,-0.32558 z m -28.051681,0.10381 -0.339734,0.401074 -0.245363,-0.04247 z m -17.954018,0.146282 0.311423,0.301987 -0.839898,0.198175 z m 28.197953,0.0048 0.35861,0.22649 -0.146282,0.02368 z m -17.142431,0.311423 2.949083,0.528475 -0.967298,0.589818 -6.152967,0.849335 z m 23.90881,0 4.067377,1.920443 -6.261495,-0.797432 -0.910676,-0.570942 z m 18.496651,0.0048 1.698672,3.18029 -3.79842,-0.268956 -0.500164,-0.481291 1.156041,0.273677 z m -60.897394,0.0094 1.439155,2.694285 1.382529,-0.32558 -0.764402,0.717217 -3.873917,0.316141 z m 51.866119,0.901241 4.124,0.976736 0.92955,0.891804 -6.539887,-0.471854 z M 6.7127184,62.14398 8.9964898,68.669712 6.5994736,67.051255 Z m 32.1568056,0.0048 1.495776,1.443871 -6.289806,0.514321 1.170196,-1.104139 z m 75.520126,0.06605 0.16044,4.779873 -2.47723,1.675081 2.20355,-6.3134 z m -59.047725,0.622845 -0.136836,0.184019 -0.113232,0.01884 -0.01425,0.141547 -2.316799,3.043455 -6.62482,3.5389 0.943707,4.001317 -0.335016,0.500161 -1.391968,0.962587 -11.414134,8.889723 -1.863819,0.651154 -1.542961,-0.542632 -5.23757,-3.98716 -0.835183,-6.530462 0.287832,-1.613741 1.505212,-1.269277 13.41479,-5.445187 1.335346,-0.632284 0.519037,-0.04247 2.854713,2.750902 6.601229,-4.010752 3.840887,-0.533194 0.273674,0.12739 0.160439,-0.188754 z m 10.333587,0.08965 0.2312,0.02831 0.07079,0.08494 0.127414,-0.06134 3.788981,0.486009 6.384176,3.973004 2.99627,-2.821683 0.594533,0.04247 1.533524,0.721938 13.405354,5.440469 1.495776,1.288152 0.301986,1.60903 -0.835183,6.525727 -5.242288,3.99187 -1.538243,0.55679 -1.854383,-0.670022 -11.42357,-8.894434 -1.212663,-0.839908 -0.297268,-0.429376 0.953143,-3.84561 -6.766376,-3.708767 -2.387578,-3.057609 -0.02367,-0.306705 -0.245363,-0.04247 z m 7.091956,0.905959 4.916711,0.627565 -1.552397,1.462746 z m -24.80533,0.03303 -3.416217,2.076154 -1.453309,-1.396685 z m 15.802369,0.0094 0.514319,0.09436 0.08494,0.231201 z m -6.657852,0.03776 -0.377483,0.198175 0.05192,-0.141546 z m 1.599584,0.76912 0.179308,0.495446 -0.16515,0.193464 z m 3.586086,0.193465 -0.01425,0.41523 -0.09436,-0.113232 z m 21.172057,0.03776 4.902556,0.349171 0.184019,0.179307 3.387907,2.911335 z M 5.4387162,64.951632 5.4104044,66.24451 5.0659518,66.013309 Z m 31.8029138,0.108522 -7.997914,3.251069 3.402062,-2.868868 z m 20.266101,0 0.03776,1.712827 -0.0094,0.01425 -1.627896,1.12773 0.160439,-1.977067 0.04718,-0.132125 z m 5.978381,0.03776 1.500494,0.825744 0.01884,0.03776 0.155704,1.953474 -1.623175,-1.123012 -0.103811,-0.122679 z M 9.0436745,65.149804 14.6257,72.477695 10.652695,69.79284 10.581917,69.547478 Z m 106.6530055,0.0048 0.30199,0.858772 -0.26424,0.179307 z m -3.73708,0.184019 -1.4769,4.213651 -0.0708,0.240647 -4.06738,2.755616 z m -21.596722,0.07079 2.996271,0.212333 2.250739,4.223087 -0.169862,-0.07079 z m -59.793255,0.207622 -4.954459,4.166464 -0.150993,0.06134 2.123339,-3.982443 z m 64.209803,0.10381 0.316143,0.02368 0.169861,0.896522 z m -34.2943,0.146283 0.08494,0.207621 -0.03776,0.108522 0.122679,0.08494 1.472183,3.515308 -0.250081,7.516623 3.939974,1.184365 0.264238,0.542609 0.141547,1.684527 1.99122,14.330184 -0.368044,1.939331 -1.240975,1.066374 -6.072753,2.543308 -6.077471,-2.543308 -1.250411,-1.056952 -0.349171,-1.939306 1.99122,-14.339631 0.122679,-1.47217 0.221778,-0.476583 3.807855,-1.094712 -0.174573,-7.714791 1.462744,-3.600243 0.245365,-0.169861 -0.08494,-0.2312 z m -34.33205,0.108521 -0.481289,0.915398 0.155704,-0.887086 z m 28.372542,0.679469 -1.071106,2.958522 -3.69933,2.562171 3.822011,-5.015808 z m 12.065291,0.141547 0.986173,0.54263 3.822012,4.907268 -3.788984,-2.628214 z m 48.006351,1.627894 0.26424,7.997917 -5.58674,1.67508 2.17524,-7.54494 z m -51.219674,0.05189 2.033688,2.411168 0.368046,4.482603 -2.439483,-5.822665 z m -56.8111424,0.01425 3.0481732,2.061997 2.2460232,7.795009 -5.4829377,-1.580692 z m 44.4391494,0.04247 -2.99627,3.939967 -0.490728,-2.076147 z m 6.582353,0.06605 0.02368,1.137166 -2.335675,5.74718 0.382201,-4.595859 z m 12.664542,0.207621 3.510592,1.920443 -0.48601,1.958182 z M 54.48787,70.368676 v 0.01884 l -0.02368,0.02831 0.0094,-0.03776 z m 12.0936,0.0048 0.0094,0.0094 0.0048,0.02368 -0.01425,-0.01884 z m -13.697903,1.108854 -0.268956,0.89652 -3.69933,3.930531 -0.419949,-1.783603 z m 15.297487,0.0048 4.605289,3.189723 -0.452979,1.821363 -3.888072,-4.128707 z m -57.004601,0.122679 5.482935,3.708774 2.227148,3.288822 -0.915395,1.500485 -4.742127,-1.368384 z m 98.711717,0 -1.98651,6.903207 -4.8884,1.467484 -0.90124,-1.486352 2.10447,-3.04344 z m -55.56073,0.707781 -0.462418,5.577297 -1.807198,0.519054 1.627896,-5.416883 z m 12.414462,0 0.632282,0.670022 1.557118,5.180971 -1.74586,-0.523765 z m -3.496434,0.141571 1.915725,4.576998 -2.047845,-0.613418 z m -5.56315,0.316143 0.08965,3.991894 -1.939319,0.55679 z m 40.164156,1.014504 2.024249,3.33127 -1.217381,0.929561 z m -74.637763,0.03769 -0.754965,4.251409 -1.25513,-0.953141 z m 46.01042,1.118291 2.769778,2.939654 -0.278393,1.118291 -1.401404,-0.419954 z m -17.378358,0.0048 -1.156042,3.859769 -1.104136,0.316143 -0.335016,-1.420277 z m -4.378799,0.419954 0.467134,1.986513 -2.901898,3.081201 -1.240975,0.358614 z m -26.612529,0.0048 -0.618129,1.01448 -0.122681,-0.09446 -0.09909,-0.212356 z m 52.965538,0.150993 3.590803,5.185657 -1.538242,-0.462425 -2.552725,-2.708429 z m 26.541747,0.07537 0.70778,0.608684 -0.2312,0.179259 z m -55.631507,1.646767 -2.755623,4.072078 -0.245363,0.07079 -4.213651,1.476906 z m 31.92088,0.240623 6.813561,5.303625 -4.185337,-1.514642 z m 20.68605,0.08504 0.245363,1.292887 -0.45298,0.344458 z m -73.58553,0.127317 0.193465,1.509931 -0.405795,-0.311432 z m 76.463837,0.68418 -1.075827,2.213003 -0.2312,-1.217391 z m -78.974095,0.287829 0.976737,0.745519 -0.169862,0.962587 z m 27.023041,0.08504 0.16515,0.703048 -1.137166,0.32559 z m 24.710958,0.169837 0.594536,0.632287 -0.698342,-0.212357 z m -5.572587,0.02827 1.948753,0.585104 1.222102,4.072078 -0.306705,1.24097 z m -13.754526,0.254804 -2.694282,5.704687 -0.372764,-1.57127 1.071108,-3.557759 z m 47.718529,0.363326 0.46241,0.759676 -1.2504,0.377483 z m -81.734436,0.132149 0.74081,1.090001 -1.193789,-0.344458 z m 87.877966,0.174669 -1.46275,5.077135 -2.38286,-3.921084 z m -36.780967,0.07538 0.698344,0.212357 -0.287831,1.156051 z m -57.098974,0.155825 3.694612,1.066398 -2.297926,3.779537 z m 36.64885,0.07079 -0.250081,0.825751 -0.16515,-0.707783 z m 47.55338,0.0145 0.250083,1.307044 -1.307035,0.476559 0.136836,-1.080531 z m -74.533955,0.04252 0.863492,0.655865 0.146282,1.151316 -1.255129,-0.438822 z m 49.285082,0.273672 2.632943,0.792701 1.764732,1.873256 -1.552398,2.491386 -2.953803,0.09905 -0.655875,-2.179953 z m -23.875777,0.122727 0.632281,2.680139 -0.740808,2.458336 -2.939647,-0.09905 -1.557115,-2.500832 1.566552,-1.660924 z m 53.762961,0.759676 2.54329,4.180624 -4.74212,-0.108474 -0.726654,-2.930208 0.150993,-0.306697 z m -83.942702,0.127317 2.901898,0.835173 0.188741,0.278407 -0.665314,2.831108 -4.888399,0.108474 z m 6.988147,0.405797 1.316472,1.000323 -1.245693,-0.434111 z m 70.041911,0.0048 -0.06134,0.509608 -1.151321,0.415219 z m -18.043671,0.06136 1.000328,0.301986 2.212993,3.199168 -3.850324,0.127318 1.613739,-2.590461 z m -34.110279,0.169837 -0.816305,0.868222 1.613737,2.595196 -3.60024,-0.117895 2.132776,-3.151986 z m 24.257981,0.09905 2.146933,4.42127 -0.06134,0.250069 -0.825743,4.388245 z m -14.301875,0.386905 -1.184351,8.554711 -0.783277,-4.38351 z m -12.508831,0.325589 -1.679799,2.486675 -4.784594,-0.160415 0.146282,-0.113305 z m -17.53879,0.0048 1.170197,0.410532 0.207621,1.623163 z m 57.155595,0.0097 6.086907,2.208268 0.12739,0.09905 -4.510919,0.150994 z m 17.05278,0 -1.071108,1.547667 0.155704,-1.217366 z m -2.198838,0.797437 -0.198176,1.561824 -3.864477,-0.08963 z m -69.560618,0.04711 4.090968,1.429723 -3.897508,0.08963 z m -3.265226,0.339722 0.589818,1.245705 -0.887086,0.01933 z m 76.223188,0.06136 0.297268,1.203233 -0.872929,-0.01933 z m -48.832101,1.420301 0.240647,1.01448 -1.660924,3.515312 -2.038406,-3.274665 3.052891,0.09905 z m 21.36552,0.221779 0.339734,1.132448 3.067046,-0.103884 -1.906286,3.062333 -1.665645,-3.420923 z m -39.819704,0.55679 0.754965,0.575658 0.707781,-0.552055 0.396356,0.01933 5.383847,1.877967 1.12773,-1.665635 5.166794,0.169837 2.878305,4.628892 -0.86821,1.840231 4.24196,3.576652 0.136836,0.212356 -0.127414,0.891802 0.877649,0.363324 0.169862,0.31141 0.887085,4.99222 -0.04718,0.0193 -1.486337,0.72194 -1.646767,0.11789 -14.500055,1.85439 -1.613737,-0.30672 -1.283441,-1.49104 -5.445189,-13.410095 -0.717217,-1.524064 -0.103811,-1.434434 -0.01884,-0.155825 4.638319,-1.623163 z m 58.207828,0 0.353889,0.0097 4.76572,1.722263 -0.0048,0.05653 -0.117968,1.646767 -0.721935,1.486327 -5.643365,13.485562 -1.071109,1.24097 -1.934598,0.36807 -14.334905,-1.99123 -1.679797,-0.13674 -1.292877,-0.62757 -0.141547,-0.0614 0.915395,-4.83178 0.235936,-0.42937 0.877649,-0.363328 -0.127414,-0.891801 0.212332,-0.335036 4.322175,-3.722909 -0.877646,-1.807206 2.732032,-4.392956 5.440469,-0.179259 1.160757,1.675081 5.2187,-1.887414 0.250081,-0.0097 0.70778,0.552055 z m 4.138155,0.09446 1.189069,0.02827 -0.01884,0.146403 -0.136836,0.198103 z m -66.748376,0.0048 -0.882364,0.311408 -0.03776,-0.29254 z m 56.990447,0.06136 -0.844616,0.306697 -0.188754,-0.268961 z m -46.68517,0.0097 1.038079,0.03769 -0.179307,0.264225 z m -13.688464,0.0048 1.585428,3.350161 0.490727,6.832425 -4.98749,-5.171501 1.174915,-4.973349 z m 73.915826,0.0048 1.755293,0.03769 1.189074,4.794042 -5.147921,5.341386 0.471852,-6.601224 z m -76.897939,0.06136 -0.920115,3.911663 -3.666301,-3.803141 z m 79.908366,0.0048 4.42598,0.103883 -3.50115,3.63328 z m -29.891912,1.807206 1.316471,2.699007 -2.533852,4.062655 -0.02367,-0.18409 z m -20.17645,0.221778 1.132448,6.374734 -0.02367,0.160415 -2.38758,-3.831455 z m 22.115767,3.755935 0.136836,0.287853 -0.688908,0.594526 z m -24.012616,0.245382 0.552069,0.877644 -0.688908,-0.580393 z m 52.243601,0.117895 1.37309,5.534833 -7.261819,3.97774 0.259519,-3.67105 z m -80.441557,0.188681 5.445187,5.652792 0.268956,3.78898 -7.058926,-3.77009 z m 6.270931,0.236032 3.435092,8.46503 -2.911335,-3.38318 -0.169861,-0.18409 z m 67.706236,0.113305 -0.339734,4.784595 -0.179308,0.18409 -3.038734,3.52947 z m -27.221219,5.789645 -1.873258,3.42564 -1.415559,-0.59453 z m -13.230769,0.0331 3.307693,2.77922 -1.453309,0.60868 z m 39.965979,0.95785 -0.202887,2.88303 -4.303302,2.35455 z m -66.724782,0.005 4.364645,5.06769 0.06605,0.16524 -4.21837,-2.25074 z m 36.45539,0.45297 -1.00033,0.86349 -0.528476,-0.22178 z m -6.072753,0.0565 1.406122,0.5851 -0.471852,0.1981 z m 2.972677,1.24097 1.071106,0.44826 -1.005046,0.86823 -1.066391,-0.89654 z m -6.436081,0.10388 0.570945,1.03808 -0.136836,0.0614 -0.240647,-0.0193 z m 12.758914,0.2312 -0.174572,0.92483 -0.268956,-0.11331 z m -8.568856,0.60868 0.745528,0.62758 -1.882695,-0.15583 z m 4.56754,0.0242 1.514649,0.637 -2.453635,0.17467 z m 30.741246,1.59485 -0.02831,0.41524 -1.104136,0.20753 z m -66.106652,0.099 0.920113,0.48601 -0.896522,-0.16984 z m 33.284533,0.41051 2.118621,1.99122 -2.349829,4.29386 -2.279051,-4.16173 2.175243,-2.09977 z m 1.764732,0.01 1.373092,0.11331 -0.424667,0.77857 z m -3.982443,0.151 -0.89652,0.86348 -0.419949,-0.76912 z m 6.672006,0.0708 3.689894,0.30199 6.162404,2.99156 -6.97399,1.73171 -3.713488,-3.50116 z m -9.314385,0.1179 0.844619,1.54296 -3.553055,3.42095 -7.200483,-1.78834 5.95479,-2.89244 z m 16.580928,0.57566 9.050148,1.25513 -4.388238,0.83047 -0.240647,0.0565 z m -24.012616,0.0471 -4.312741,2.09974 -0.250081,-0.0614 -4.576977,-0.8682 z m -12.905189,1.68453 6.78997,1.28816 -2.599912,1.26457 z m 49.709749,0.0425 0.179308,0.0242 -4.057938,2.52915 -2.689563,-1.30705 z m -21.492921,0.14616 2.925492,2.75093 -5.129046,1.27398 z m -6.436078,0.14617 2.128058,3.87863 -4.893118,-1.21265 z m 19.416764,1.35422 3.416219,1.66092 -6.794688,4.2278 -4.241963,-3.9966 z m -32.468228,0.005 7.875233,1.95347 -4.109843,3.95413 -7.073083,-4.29857 z m -6.936245,0.81631 1.104137,0.67002 -0.372762,0.18409 z m 46.203879,0.16041 -0.594533,0.68889 -0.287832,-0.13673 z"
       style="fill:#0000ff;stroke-width:2.41589" />
  </g>
</svg>
