<?xml version="1.0" encoding="UTF-8" standalone="no"?>
<!-- Created with Inkscape (http://www.inkscape.org/) -->

<svg
   width="120"
   height="120"
   viewBox="0 0 120 120"
   version="1.1"
   id="svg1"
   inkscape:version="1.4 (86a8ad7, 2024-10-11)"
   sodipodi:docname="mand_25.svg"
   xmlns:inkscape="http://www.inkscape.org/namespaces/inkscape"
   xmlns:sodipodi="http://sodipodi.sourceforge.net/DTD/sodipodi-0.dtd"
   xmlns="http://www.w3.org/2000/svg"
   xmlns:svg="http://www.w3.org/2000/svg">
  <sodipodi:namedview
     id="namedview1"
     pagecolor="#ffffff"
     bordercolor="#000000"
     borderopacity="0.25"
     inkscape:showpageshadow="2"
     inkscape:pageopacity="0.0"
     inkscape:pagecheckerboard="0"
     inkscape:deskcolor="#d1d1d1"
     inkscape:document-units="px"
     inkscape:zoom="6.8766134"
     inkscape:cx="59.985922"
     inkscape:cy="59.985922"
     inkscape:window-width="3440"
     inkscape:window-height="1369"
     inkscape:window-x="-8"
     inkscape:window-y="-8"
     inkscape:window-maximized="1"
     inkscape:current-layer="layer1" />
  <defs
     id="defs1">
    <inkscape:path-effect
       effect="copy_rotate"
       starting_point="0,0"
       origin="60,60"
       id="path-effect3"
       is_visible="true"
       lpeversion="1.2"
       lpesatellites=""
       method="normal"
       num_copies="10"
       starting_angle="0"
       rotation_angle="36"
       gap="-0.08"
       copies_to_360="true"
       mirror_copies="false"
       split_items="false"
       link_styles="false" />
  </defs>
  <g
     inkscape:label="Layer 1"
     inkscape:groupmode="layer"
     id="layer1">
    <path
       id="path1"
       style="fill:#0000ff;stroke:none;stroke-width:0.4"
       d="m 35.917969,36.117188 c -4.206356,1.146721 -7.12524,4.966309 -7.126953,9.326171 0.0013,1.081247 0.182364,1.941401 0.517578,2.640625 -0.02044,0.221569 -0.03096,0.45349 -0.03125,0.697266 0.0016,4.004425 2.683442,7.515123 6.546875,8.568359 l 0.04687,0.01367 0.04687,-0.01367 c 3.863433,-1.053236 6.547297,-4.563932 6.548828,-8.568359 -2.26e-4,-0.188312 -0.0092,-0.367996 -0.02148,-0.542969 0.385728,-0.726436 0.598213,-1.631629 0.59961,-2.794922 -0.0017,-4.359862 -2.920597,-8.179449 -7.126953,-9.326171 z m -6.279297,12.535156 c 1.158156,1.674354 3.421473,2.2756 6.279297,3.054687 2.785408,-0.759346 5.004402,-1.349972 6.1875,-2.929687 2e-6,0.0013 -2e-6,0.0026 0,0.0039 -0.0015,3.826126 -2.553402,7.171343 -6.234375,8.199219 -3.680972,-1.027876 -6.232872,-4.37309 -6.234375,-8.199219 5.2e-5,-0.04401 0.0013,-0.08579 0.002,-0.128906 z m -3.159409,6.181118 c -2.728988,3.400151 -2.845317,8.205939 -0.28404,11.734149 0.636592,0.873983 1.288662,1.463435 1.970849,1.832085 0.113699,0.191268 0.241508,0.385079 0.384561,0.582469 2.355037,3.238707 6.588229,4.502574 10.332889,3.083791 l 0.04595,-0.01649 0.02988,-0.03861 c 2.506506,-3.122955 2.614262,-7.540703 0.261758,-10.781252 -0.11087,-0.152215 -0.223746,-0.292308 -0.336527,-0.426646 -0.114928,-0.814424 -0.475083,-1.671636 -1.157719,-2.613581 -2.564038,-3.526203 -7.170572,-4.90063 -11.247612,-3.355913 z m 2.287922,13.832032 c 1.921128,0.673834 4.105594,-0.170092 6.875558,-1.219584 1.80711,-2.251546 3.255152,-4.033664 3.283766,-6.007088 7.65e-4,0.0011 0.0015,0.0021 0.0023,0.0032 2.247727,3.096283 2.149464,7.302591 -0.224335,10.297781 -3.58214,1.332052 -7.612938,0.125686 -9.863096,-2.968833 -0.02583,-0.03564 -0.04937,-0.07017 -0.07415,-0.105463 z m 1.077154,6.857684 c -0.209239,4.354838 2.52142,8.31118 6.667366,9.66008 1.028729,0.332887 1.902736,0.426488 2.671324,0.323752 0.204409,0.08791 0.421728,0.169581 0.653483,0.245188 3.808929,1.235913 7.976536,-0.229804 10.172089,-3.57868 l 0.02748,-0.04035 0.0015,-0.0488 c 0.19218,-3.999811 -2.317331,-7.637182 -6.125294,-8.876074 -0.179165,-0.05798 -0.352828,-0.104967 -0.523032,-0.147358 -0.571685,-0.59133 -1.366913,-1.073135 -2.472839,-1.433941 -4.147001,-1.345655 -8.681632,0.250064 -11.072065,3.896189 z m 9.981232,9.845542 c 1.950296,-0.584068 3.221518,-2.550815 4.84559,-5.028016 0.138557,-2.883731 0.262546,-5.176633 -0.874255,-6.789985 0.0012,4e-4 0.0025,8.05e-4 0.0037,0.0012 3.638398,1.183765 6.031308,4.644497 5.871393,8.462941 -2.115051,3.183181 -6.085119,4.576454 -9.724449,3.395545 -0.04184,-0.01365 -0.08119,-0.02775 -0.121979,-0.04174 z m 4.902282,4.914847 c 2.390432,3.646126 6.925061,5.241832 11.072065,3.89619 1.027925,-0.33536 1.790029,-0.773364 2.351443,-1.308244 0.217041,-0.04903 0.440862,-0.110691 0.672797,-0.185746 3.80794,-1.238957 6.318077,-4.874406 6.125898,-8.874217 l -0.0015,-0.0488 -0.02748,-0.04035 c -2.195553,-3.348875 -6.363783,-4.816517 -10.172693,-3.580537 -0.179025,0.05841 -0.347142,0.122467 -0.509756,0.188215 -0.810078,-0.142368 -1.736629,-0.06473 -2.843418,0.293416 -4.14595,1.348888 -6.876605,5.305241 -6.667367,9.66008 z m 13.862051,2.09839 c 1.234516,-1.618875 1.106931,-3.957213 0.964771,-6.915916 -1.58292,-2.41443 -2.830345,-4.342305 -4.698341,-4.979339 0.0012,-4.04e-4 0.0025,-8.02e-4 0.0037,-0.0012 3.639326,-1.180912 7.609397,0.212362 9.724449,3.395545 0.159914,3.818443 -2.232993,7.279172 -5.871393,8.462941 -0.04187,0.01355 -0.08199,0.02527 -0.123215,0.03793 z m 6.854904,1.094706 c 4.077039,1.544718 8.683563,0.170283 11.247612,-3.355913 0.634489,-0.875511 0.993591,-1.677817 1.133391,-2.440535 0.146771,-0.167238 0.291601,-0.348683 0.435124,-0.545731 2.352448,-3.240589 2.246328,-7.65715 -0.260178,-10.780105 l -0.02988,-0.03861 -0.04595,-0.01649 c -3.74466,-1.418783 -7.979487,-0.156106 -10.334469,3.082643 -0.110504,0.152481 -0.208859,0.303123 -0.301771,0.451897 -0.739049,0.360974 -1.443012,0.968395 -2.127909,1.908698 -2.561287,3.528201 -2.444947,8.333997 0.284041,11.734148 z m 12.448037,-6.450276 c 0.04719,-2.035327 -1.430465,-3.85209 -3.284558,-6.162171 -2.699774,-1.022898 -4.842139,-1.849364 -6.727819,-1.266755 7.62e-4,-0.0011 0.0015,-0.0021 0.0023,-0.0032 2.250154,-3.09452 6.280956,-4.300887 9.863096,-2.968834 2.373798,2.99519 2.472061,7.201494 0.224335,10.297781 -0.02591,0.03557 -0.05148,0.06864 -0.07739,0.103112 z m 6.189186,-3.143575 c 4.206356,-1.146721 7.12524,-4.966309 7.126953,-9.326171 -0.0013,-1.081247 -0.182364,-1.941401 -0.517578,-2.640625 0.02044,-0.221569 0.03096,-0.45349 0.03125,-0.697266 -0.0016,-4.004425 -2.683442,-7.515123 -6.546875,-8.568359 l -0.04687,-0.01367 -0.04687,0.01367 c -3.863433,1.053236 -6.547297,4.563932 -6.548828,8.568359 2.26e-4,0.188312 0.0092,0.367996 0.02148,0.542969 -0.385728,0.726436 -0.598213,1.631629 -0.59961,2.794922 0.0017,4.359862 2.920597,8.179449 7.126953,9.326171 z m 6.279297,-12.535156 c -1.158156,-1.674354 -3.421473,-2.2756 -6.279297,-3.054687 -2.785408,0.759346 -5.004402,1.349972 -6.1875,2.929687 -2e-6,-0.0013 2e-6,-0.0026 0,-0.0039 0.0015,-3.826126 2.553402,-7.171343 6.234375,-8.199219 3.680972,1.027876 6.232872,4.37309 6.234375,8.199219 -5.2e-5,0.04401 -0.0013,0.08579 -0.002,0.128906 z m 3.159409,-6.181118 c 2.728988,-3.400151 2.845317,-8.205939 0.28404,-11.734149 C 93.168185,52.558406 92.516115,51.968954 91.833928,51.600304 91.720229,51.409036 91.59242,51.215225 91.449367,51.017835 89.09433,47.779128 84.861138,46.515261 81.116478,47.934044 l -0.04595,0.01649 -0.02988,0.03861 c -2.506506,3.122955 -2.614262,7.540703 -0.261758,10.781252 0.11087,0.152215 0.223746,0.292308 0.336527,0.426646 0.114928,0.814424 0.475083,1.671636 1.157719,2.613581 2.564038,3.526203 7.170572,4.90063 11.247612,3.355913 z M 91.232815,51.334506 c -1.921128,-0.673834 -4.105594,0.170092 -6.875558,1.219584 -1.80711,2.251546 -3.255152,4.033664 -3.283766,6.007088 -7.65e-4,-0.0011 -0.0015,-0.0021 -0.0023,-0.0032 -2.247727,-3.096283 -2.149464,-7.302591 0.224335,-10.297781 3.58214,-1.332052 7.612938,-0.125686 9.863096,2.968833 0.02583,0.03564 0.04937,0.07017 0.07415,0.105463 z m -1.077154,-6.857684 c 0.209239,-4.354838 -2.52142,-8.31118 -6.667366,-9.66008 -1.028729,-0.332887 -1.902736,-0.426488 -2.671324,-0.323752 -0.204409,-0.08791 -0.421728,-0.169581 -0.653483,-0.245188 -3.808929,-1.235913 -7.976536,0.229804 -10.172089,3.57868 l -0.02748,0.04035 -0.0015,0.0488 c -0.19218,3.999811 2.317331,7.637182 6.125294,8.876074 0.179165,0.05798 0.352828,0.104967 0.523032,0.147358 0.571685,0.59133 1.366913,1.073135 2.472839,1.433941 4.147001,1.345655 8.681632,-0.250064 11.072065,-3.896189 z M 80.174429,34.63128 c -1.950296,0.584068 -3.221518,2.550815 -4.84559,5.028016 -0.138557,2.883731 -0.262546,5.176633 0.874255,6.789985 -0.0012,-4e-4 -0.0025,-8.05e-4 -0.0037,-0.0012 -3.638398,-1.183765 -6.031308,-4.644497 -5.871393,-8.462941 2.115051,-3.183181 6.085119,-4.576454 9.724449,-3.395545 0.04184,0.01365 0.08119,0.02775 0.121979,0.04174 z m -4.902282,-4.914847 c -2.390432,-3.646126 -6.925061,-5.241832 -11.072065,-3.89619 -1.027925,0.33536 -1.790029,0.773364 -2.351443,1.308244 -0.217041,0.04903 -0.440862,0.110691 -0.672797,0.185746 -3.80794,1.238957 -6.318077,4.874406 -6.125898,8.874217 l 0.0015,0.0488 0.02749,0.04035 c 2.195553,3.348875 6.363783,4.816517 10.172693,3.580537 0.179025,-0.05841 0.347142,-0.122467 0.509756,-0.188215 0.810078,0.142368 1.736629,0.06473 2.843418,-0.293416 4.14595,-1.348888 6.876605,-5.305241 6.667367,-9.66008 z m -13.862051,-2.09839 c -1.234516,1.618875 -1.106931,3.957213 -0.964771,6.915916 1.58292,2.41443 2.830345,4.342305 4.698341,4.979339 -0.0012,4.04e-4 -0.0025,8.02e-4 -0.0037,0.0012 -3.639326,1.180912 -7.609397,-0.212362 -9.724449,-3.395545 -0.159914,-3.818443 2.232993,-7.279172 5.871393,-8.462941 0.04187,-0.01355 0.08199,-0.02527 0.123215,-0.03793 z m -6.854904,-1.094706 c -4.077039,-1.544718 -8.683563,-0.170283 -11.247612,3.355913 -0.634489,0.875511 -0.993591,1.677817 -1.133391,2.440535 -0.146771,0.167238 -0.291601,0.348683 -0.435124,0.545731 -2.352448,3.240589 -2.246328,7.65715 0.260178,10.780105 l 0.02988,0.03861 0.04595,0.01649 c 3.74466,1.418783 7.979487,0.156106 10.334469,-3.082643 0.110504,-0.152481 0.208859,-0.303123 0.301771,-0.451897 0.739049,-0.360974 1.443012,-0.968395 2.127909,-1.908698 2.561287,-3.528201 2.444947,-8.333997 -0.284041,-11.734148 z m -12.448037,6.450276 c -0.04719,2.035327 1.430465,3.85209 3.284558,6.162171 2.699774,1.022898 4.842139,1.849364 6.727819,1.266755 -7.62e-4,0.0011 -0.0015,0.0021 -0.0023,0.0032 -2.250154,3.09452 -6.280956,4.300887 -9.863096,2.968834 -2.373798,-2.99519 -2.472061,-7.201494 -0.224335,-10.297781 0.02591,-0.03557 0.05148,-0.06864 0.07739,-0.103112 z"
       inkscape:path-effect="#path-effect3"
       inkscape:original-d="m 35.917969,36.117188 c -4.206356,1.146721 -7.12524,4.966309 -7.126953,9.326171 0.0013,1.081247 0.182364,1.941401 0.517578,2.640625 -0.02044,0.221569 -0.03096,0.45349 -0.03125,0.697266 0.0016,4.004425 2.683442,7.515123 6.546875,8.568359 l 0.04687,0.01367 0.04687,-0.01367 c 3.863433,-1.053236 6.547297,-4.563932 6.548828,-8.568359 -2.26e-4,-0.188312 -0.0092,-0.367996 -0.02148,-0.542969 0.385728,-0.726436 0.598213,-1.631629 0.59961,-2.794922 -0.0017,-4.359862 -2.920597,-8.179449 -7.126953,-9.326171 z m -6.279297,12.535156 c 1.158156,1.674354 3.421473,2.2756 6.279297,3.054687 2.785408,-0.759346 5.004402,-1.349972 6.1875,-2.929687 2e-6,0.0013 -2e-6,0.0026 0,0.0039 -0.0015,3.826126 -2.553402,7.171343 -6.234375,8.199219 -3.680972,-1.027876 -6.232872,-4.37309 -6.234375,-8.199219 5.2e-5,-0.04401 0.0013,-0.08579 0.002,-0.128906 z"
       transform="matrix(1.5812161,0,0,1.5812161,-34.872966,-34.872966)" />
  </g>
</svg>
