<?xml version="1.0" encoding="UTF-8" standalone="no"?>
<!-- Created with Inkscape (http://www.inkscape.org/) -->

<svg
   width="120"
   height="120"
   viewBox="0 0 120 120"
   version="1.1"
   id="svg1"
   inkscape:version="1.4 (86a8ad7, 2024-10-11)"
   sodipodi:docname="mand_20.svg"
   xmlns:inkscape="http://www.inkscape.org/namespaces/inkscape"
   xmlns:sodipodi="http://sodipodi.sourceforge.net/DTD/sodipodi-0.dtd"
   xmlns="http://www.w3.org/2000/svg"
   xmlns:svg="http://www.w3.org/2000/svg">
  <sodipodi:namedview
     id="namedview1"
     pagecolor="#ffffff"
     bordercolor="#000000"
     borderopacity="0.25"
     inkscape:showpageshadow="2"
     inkscape:pageopacity="0.0"
     inkscape:pagecheckerboard="0"
     inkscape:deskcolor="#d1d1d1"
     inkscape:document-units="px"
     inkscape:zoom="4.8625"
     inkscape:cx="59.948586"
     inkscape:cy="59.948586"
     inkscape:window-width="3440"
     inkscape:window-height="1369"
     inkscape:window-x="-8"
     inkscape:window-y="-8"
     inkscape:window-maximized="1"
     inkscape:current-layer="layer1" />
  <defs
     id="defs1">
    <inkscape:path-effect
       effect="copy_rotate"
       starting_point="0,0"
       origin="70.539062,48.668945"
       id="path-effect2"
       is_visible="true"
       lpeversion="1.2"
       lpesatellites=""
       method="normal"
       num_copies="17"
       starting_angle="0"
       rotation_angle="21.176471"
       gap="-0.01"
       copies_to_360="true"
       mirror_copies="false"
       split_items="false"
       link_styles="false" />
  </defs>
  <g
     inkscape:label="Layer 1"
     inkscape:groupmode="layer"
     id="layer1">
    <path
       id="path1"
       style="fill:none;stroke:#0000ff;stroke-width:0.4;stroke-dasharray:none"
       d="m 75.269531,36.103516 v 1.484375 c -3.014078,2.907957 -4.720827,6.913389 -4.730469,11.101562 0.02071,4.173922 1.726579,8.162497 4.730469,11.060547 v 1.484375 c 0.299976,-0.221799 0.591833,-0.454373 0.875,-0.697266 0.282528,0.242855 0.573733,0.475429 0.873047,0.697266 v -1.482422 c 3.004374,-2.898522 4.710284,-6.8879 4.730469,-11.0625 -0.0091,-4.188851 -1.715904,-8.195086 -4.730469,-11.103515 v -1.482422 c -0.299314,0.221837 -0.590519,0.45441 -0.873047,0.697265 -0.283167,-0.242892 -0.575024,-0.475466 -0.875,-0.697265 z m -4.858595,-0.860327 0.536219,1.384138 c -1.76007,3.800401 -1.904636,8.151903 -0.400685,12.060741 1.527107,3.884584 4.558621,6.98759 8.406562,8.604811 l 0.536218,1.384138 c 0.199596,-0.315185 0.387729,-0.637485 0.564032,-0.966268 0.351178,0.124395 0.706734,0.236068 1.065973,0.334801 l -0.535512,-1.382318 c 1.754428,-3.788096 1.904012,-8.124326 0.414795,-12.024316 -1.521687,-3.902695 -4.56044,-7.021834 -8.422084,-8.644877 l -0.535512,-1.382318 c -0.198965,0.314982 -0.386491,0.637046 -0.562211,0.965562 -0.351788,-0.124199 -0.707952,-0.235637 -1.067795,-0.334094 z m -4.84129,0.952896 1.000017,1.096966 c -0.268353,4.179578 1.168787,8.289456 3.983215,11.39105 2.827258,3.070612 6.774996,4.868969 10.947301,4.986946 l 1.000017,1.096966 c 0.07226,-0.366004 0.131261,-0.734501 0.176888,-1.104769 0.372401,-0.01087 0.744288,-0.03518 1.114935,-0.07288 l -0.998702,-1.095523 c 0.267538,-4.166068 -1.159406,-8.263517 -3.956899,-11.362183 -2.828746,-3.089458 -6.789062,-4.900244 -10.976248,-5.0187 l -0.998702,-1.095523 c -0.07175,0.365586 -0.130264,0.733643 -0.175445,1.103453 -0.372898,0.01127 -0.745267,0.03602 -1.116377,0.0742 z m -4.170143,2.637424 1.328758,0.661643 c 1.259606,3.994281 4.084358,7.307473 7.829159,9.182934 3.745573,1.841938 8.07637,2.092768 12.009547,0.695568 l 1.328758,0.661643 c -0.06484,-0.367392 -0.142935,-0.732319 -0.234146,-1.094066 0.343329,-0.144659 0.681321,-0.301668 1.013318,-0.470722 l -1.32701,-0.660772 C 82.092401,43.828349 79.281646,40.523063 75.553695,38.644214 71.799926,36.785241 67.45291,36.527365 63.505684,37.929494 l -1.32701,-0.660772 c 0.06517,0.366816 0.143555,0.731159 0.235016,1.092317 -0.343647,0.145214 -0.68193,0.302807 -1.014187,0.47247 z m -2.935795,3.965755 1.478042,0.136961 c 2.617449,3.269533 6.448315,5.338575 10.617733,5.734612 4.158027,0.364499 8.286985,-0.966073 11.449837,-3.689751 l 1.478043,0.136961 c -0.193175,-0.319161 -0.397828,-0.631233 -0.613557,-0.935603 0.267887,-0.258915 0.526338,-0.527419 0.774846,-0.804987 l -1.476098,-0.136781 c -2.608949,-3.259 -6.423907,-5.325726 -10.578837,-5.731008 -4.171823,-0.377423 -8.318451,0.952437 -11.492622,3.685786 l -1.476098,-0.13678 c 0.193273,0.318505 0.397986,0.629928 0.613736,0.933658 -0.267984,0.259548 -0.526494,0.528701 -0.775025,0.806932 z m -1.304952,4.758487 1.42771,-0.406218 c 3.62179,2.103218 7.94139,2.648673 11.972321,1.5118 4.008917,-1.162168 7.378398,-3.894441 9.343764,-7.576749 l 1.42771,-0.406219 c -0.295425,-0.227826 -0.598991,-0.444895 -0.910104,-0.650781 0.156267,-0.338203 0.30027,-0.681939 0.431728,-1.030535 l -1.425832,0.405684 c -3.610059,-2.096466 -7.913989,-2.645509 -11.93475,-1.522489 -4.026451,1.155099 -7.412665,3.893092 -9.385091,7.588507 l -1.425832,0.405684 c 0.29528,0.227179 0.598667,0.443621 0.909568,0.648903 -0.156128,0.338828 -0.299953,0.683191 -0.431192,1.032413 z m 0.502133,4.908561 1.184557,-0.894536 c 4.136988,0.652851 8.361937,-0.398947 11.709982,-2.91519 3.31838,-2.531877 5.473317,-6.296843 5.975762,-10.440464 l 1.184557,-0.894536 c -0.357775,-0.105722 -0.719257,-0.198472 -1.083735,-0.278069 0.02354,-0.371814 0.03365,-0.744358 0.0303,-1.116903 l -1.182998,0.893359 c -4.12361,-0.650793 -8.335243,0.391999 -11.67881,2.89165 -3.337283,2.53162 -5.505756,6.307964 -6.010052,10.466359 l -1.182998,0.893358 c 0.357407,0.105171 0.718495,0.197402 1.082558,0.276511 -0.02319,0.372347 -0.0329,0.745411 -0.02912,1.118461 z m 2.241401,4.395705 0.781423,-1.262041 c 4.093463,-0.885687 7.653158,-3.392687 9.866145,-6.948467 2.179678,-3.559643 2.829034,-7.848822 1.800702,-11.894138 l 0.781423,-1.262041 c -0.371807,0.03066 -0.742384,0.07476 -1.111004,0.132199 -0.112363,-0.355211 -0.237516,-0.706249 -0.375216,-1.052427 l -0.780394,1.26038 c -4.080246,0.882774 -7.630777,3.376566 -9.845582,6.915257 -2.197397,3.566231 -2.855266,7.870909 -1.823322,11.930669 l -0.780394,1.260381 c 0.371264,-0.03104 0.741285,-0.07548 1.109342,-0.133227 0.112887,0.35558 0.238595,0.706961 0.376877,1.053455 z m 3.677957,3.289185 0.272753,-1.4591 c 3.497094,-2.304609 5.910777,-5.928226 6.68983,-10.043316 0.746598,-4.106658 -0.197325,-8.340773 -2.617553,-11.741441 l 0.272753,-1.459101 c -0.335624,0.162902 -0.665247,0.337887 -0.988224,0.524613 -0.233093,-0.290635 -0.476604,-0.572757 -0.730059,-0.845816 l -0.272395,1.457181 c -3.485821,2.297117 -5.89573,5.905108 -6.682652,10.004919 -0.760741,4.119202 0.180844,8.370845 2.609658,11.783678 L 61.861964,59.83 c 0.334979,-0.163062 0.663962,-0.338166 0.986303,-0.524971 0.233714,0.290788 0.477867,0.573031 0.73198,0.846173 z m 4.617783,1.738443 -0.272753,-1.459101 C 70.353699,57.018265 71.29539,52.767419 70.535294,48.648786 69.747979,44.549739 67.338258,40.942529 63.853,38.645787 l -0.272753,-1.4591 c -0.254113,0.273143 -0.498266,0.555385 -0.73198,0.846174 -0.322341,-0.186805 -0.651324,-0.36191 -0.986304,-0.524971 l 0.272395,1.45718 c -2.420617,3.401222 -3.364435,7.636133 -2.617195,11.743362 0.778658,4.115853 3.192531,7.740252 6.690189,10.045235 l 0.272395,1.457181 c 0.253455,-0.273059 0.496966,-0.555181 0.730059,-0.845815 0.322977,0.186725 0.6526,0.36171 0.988224,0.524612 z m 4.933952,-0.04709 -0.781423,-1.262041 c 1.031779,-4.059103 0.374298,-8.363077 -1.822293,-11.929009 -2.214895,-3.537837 -5.764968,-6.030968 -9.844554,-6.913596 L 59.90229,40.475872 C 59.764007,40.822367 59.6383,41.173748 59.525413,41.529328 59.157356,41.47158 58.787334,41.427142 58.41607,41.3961 l 0.780395,1.260381 c -1.028495,4.045972 -0.378753,8.335855 1.80173,11.895798 2.212895,3.556635 5.773048,6.064295 9.867173,6.950128 l 0.780395,1.26038 c 0.137699,-0.346178 0.262853,-0.697215 0.375216,-1.052426 0.36862,0.05744 0.739197,0.101538 1.111003,0.132198 z M 77.715746,60.016303 76.53119,59.121768 C 76.026977,54.964045 73.85912,51.188219 70.522696,48.656586 67.179354,46.157764 62.968387,45.115422 58.845445,45.766113 l -1.184557,-0.894536 c -0.0038,0.37305 0.0059,0.746114 0.02913,1.118462 -0.364064,0.07911 -0.725152,0.171339 -1.082559,0.27651 l 1.182999,0.893359 c 0.50253,4.144292 2.658082,7.909775 5.977321,10.441641 3.348268,2.517074 7.573883,3.569322 11.71154,2.916367 l 1.182999,0.893359 c 0.0033,-0.372544 -0.0068,-0.745088 -0.0303,-1.116902 0.364478,-0.0796 0.725959,-0.172347 1.083734,-0.27807 z m 3.614514,-3.358779 -1.42771,-0.406218 c -1.972107,-3.694819 -5.35756,-6.432551 -9.383213,-7.587973 -4.020253,-1.122328 -8.3234,-0.573106 -11.932872,1.523024 l -1.42771,-0.406219 c 0.13124,0.349223 0.275065,0.693586 0.431193,1.032414 -0.310902,0.205282 -0.614289,0.421724 -0.909569,0.648903 l 1.425832,0.405684 c 1.965686,3.682902 5.335928,6.415435 9.345642,7.577283 4.031438,1.137567 8.351823,0.592291 11.974199,-1.511265 l 1.425832,0.405684 c -0.131458,-0.348597 -0.27546,-0.692332 -0.431727,-1.030535 0.311113,-0.205886 0.614678,-0.422955 0.910103,-0.650782 z m 2.157102,-4.437681 -1.478043,0.136961 c -3.173657,-2.732908 -7.319481,-4.062801 -11.490678,-3.685967 -4.154205,0.405744 -7.968368,2.472354 -10.576892,5.730828 l -1.478042,0.136961 c 0.248531,0.278231 0.507042,0.547384 0.775026,0.806932 -0.215751,0.303731 -0.420463,0.615153 -0.613737,0.933658 l 1.476098,-0.13678 c 3.163366,2.724116 7.293127,4.054655 11.451782,3.689571 4.170142,-0.395574 8.001804,-2.464732 10.619677,-5.734793 l 1.476098,-0.136781 c -0.248508,-0.277568 -0.506958,-0.546072 -0.774845,-0.804987 0.215729,-0.30437 0.420381,-0.616442 0.613556,-0.935603 z m 0.408362,-4.917249 -1.328758,0.661642 c -3.946587,-1.401904 -8.292865,-1.144348 -12.046262,0.71385 -3.72711,1.879017 -6.537165,5.183908 -7.792444,9.164652 l -1.328758,0.661643 c 0.332257,0.169663 0.670541,0.327256 1.014188,0.47247 -0.09146,0.361158 -0.169852,0.725502 -0.235017,1.092318 l 1.32701,-0.660773 c 3.933816,1.397424 8.265349,1.146273 12.011296,-0.696438 3.745643,-1.87529 6.571095,-5.188879 7.830907,-9.183805 l 1.32701,-0.660772 c -0.331996,-0.169053 -0.669989,-0.326063 -1.013317,-0.470722 0.09121,-0.361747 0.16931,-0.726674 0.234145,-1.094065 z m -1.395528,-4.732717 -1.000017,1.096967 c -4.18651,0.118435 -8.146253,1.928656 -10.974933,5.017257 -2.796647,3.098518 -4.223082,7.195346 -3.955584,11.360739 l -1.000017,1.096966 c 0.37111,0.03818 0.74348,0.06293 1.116378,0.0742 0.04518,0.36981 0.1037,0.737868 0.175445,1.103454 l 0.998701,-1.095523 c 4.172981,-0.118 8.12129,-1.916922 10.948617,-4.98839 2.815275,-3.101739 4.252925,-7.212239 3.984531,-11.392493 l 0.998701,-1.095523 c -0.370646,-0.03771 -0.742533,-0.06202 -1.114934,-0.07288 -0.04563,-0.370268 -0.104629,-0.738765 -0.176888,-1.104769 z m -3.010947,-3.909003 -0.536218,1.384138 c -3.861019,1.622779 -6.899444,4.741184 -8.421377,8.643056 -1.488482,3.899548 -1.338648,8.235014 0.4155,12.022496 l -0.536218,1.384138 c 0.359842,-0.09846 0.716007,-0.209896 1.067795,-0.334095 0.17572,0.328517 0.363245,0.650581 0.56221,0.965562 l 0.535513,-1.382317 c 3.848563,-1.617486 6.880405,-4.721224 8.407267,-8.606631 1.504689,-3.90928 1.360373,-8.261547 -0.399979,-12.062562 l 0.535513,-1.382318 c -0.359239,0.09873 -0.714795,0.210405 -1.065973,0.3348 -0.176303,-0.328783 -0.364436,-0.651082 -0.564033,-0.966267 z"
       inkscape:path-effect="#path-effect2"
       inkscape:original-d="m 75.269531,36.103516 v 1.484375 A 15.475578,15.475578 0 0 0 70.539062,48.689453 15.475578,15.475578 0 0 0 75.269531,59.75 v 1.484375 a 15.475578,15.475578 0 0 0 0.875,-0.697266 15.475578,15.475578 0 0 0 0.873047,0.697266 v -1.482422 a 15.475578,15.475578 0 0 0 4.730469,-11.0625 15.475578,15.475578 0 0 0 -4.730469,-11.103515 v -1.482422 a 15.475578,15.475578 0 0 0 -0.873047,0.697265 15.475578,15.475578 0 0 0 -0.875,-0.697265 z"
       transform="matrix(3.8718863,0,0,3.8718863,-213.52855,-128.44062)" />
  </g>
</svg>
