<?xml version="1.0" encoding="UTF-8" standalone="no"?>
<!-- Created with Inkscape (http://www.inkscape.org/) -->

<svg
   width="120"
   height="120"
   viewBox="0 0 120 120"
   version="1.1"
   id="svg1"
   inkscape:version="1.4 (86a8ad7, 2024-10-11)"
   sodipodi:docname="mand_48.svg"
   xmlns:inkscape="http://www.inkscape.org/namespaces/inkscape"
   xmlns:sodipodi="http://sodipodi.sourceforge.net/DTD/sodipodi-0.dtd"
   xmlns="http://www.w3.org/2000/svg"
   xmlns:svg="http://www.w3.org/2000/svg">
  <sodipodi:namedview
     id="namedview1"
     pagecolor="#ffffff"
     bordercolor="#000000"
     borderopacity="0.25"
     inkscape:showpageshadow="2"
     inkscape:pageopacity="0.0"
     inkscape:pagecheckerboard="0"
     inkscape:deskcolor="#d1d1d1"
     inkscape:document-units="px"
     inkscape:zoom="6.8766134"
     inkscape:cx="59.985922"
     inkscape:cy="59.985922"
     inkscape:window-width="3440"
     inkscape:window-height="1369"
     inkscape:window-x="-8"
     inkscape:window-y="-8"
     inkscape:window-maximized="1"
     inkscape:current-layer="layer1" />
  <defs
     id="defs1">
    <inkscape:path-effect
       effect="copy_rotate"
       starting_point="0,0"
       origin="31.840543,26.996094"
       id="path-effect3"
       is_visible="true"
       lpeversion="1.2"
       lpesatellites=""
       method="normal"
       num_copies="12"
       starting_angle="0"
       rotation_angle="30"
       gap="-0.01"
       copies_to_360="true"
       mirror_copies="false"
       split_items="false"
       link_styles="false" />
  </defs>
  <g
     inkscape:label="Layer 1"
     inkscape:groupmode="layer"
     id="layer1">
    <path
       id="path1"
       style="fill:#0000ff"
       d="m 58.834684,0 -7.847656,8.050782 -11.240235,-0.142579 0.142578,11.240235 -8.048828,7.847656 8.048828,7.847656 -0.142578,11.242188 11.240235,-0.144532 7.847656,8.050782 7.849609,-8.050782 11.242188,0.144532 L 77.781949,34.84375 85.832731,26.996094 77.781949,19.148438 77.926481,7.908203 66.684293,8.050782 Z m 0.0039,0.716797 7.638672,7.835938 10.941406,-0.138672 -0.138672,10.943359 7.835938,7.640625 -7.835938,7.638672 0.138672,10.941406 -10.941406,-0.138672 -7.640625,7.835938 -7.640625,-7.835938 -10.943359,0.138672 0.138672,-10.941406 -7.835938,-7.638672 7.835938,-7.640625 -0.138672,-10.943359 10.943359,0.138672 z m -8,10.28125 -2.326172,2.384766 -3.330078,-0.04297 0.04102,3.330078 -2.384766,2.326172 2.384766,2.324219 -0.04102,3.332031 3.330078,-0.04297 2.326172,2.386719 2.324219,-2.386719 3.332031,0.04297 -0.04297,-3.332031 2.384766,-2.324219 -2.384766,-2.326172 0.04297,-3.330078 -3.332031,0.04297 z m 15.998047,0 -2.326172,2.384766 -3.330078,-0.04102 0.04102,3.330078 -2.384766,2.326172 2.384766,2.324219 -0.04102,3.332031 3.330078,-0.04297 2.326172,2.386719 2.324219,-2.386719 3.332031,0.04297 -0.04297,-3.332031 2.384766,-2.324219 -2.384766,-2.326172 0.04297,-3.330078 -3.332031,0.04102 z m 0,16 -2.326172,2.384766 -3.330078,-0.04297 0.04102,3.332031 -2.384766,2.324219 2.384766,2.326172 -0.04102,3.330078 3.330078,-0.04297 2.326172,2.384766 2.324219,-2.384766 3.332031,0.04297 -0.04297,-3.330078 2.384766,-2.326172 -2.384766,-2.324219 0.04297,-3.332031 -3.332031,0.04297 z m -8,7.998047 -2.384766,-2.324219 0.04297,-3.332031 -3.332031,0.04297 -2.324219,-2.384766 -2.326172,2.384766 -3.330078,-0.04297 0.04102,3.332031 -2.384766,2.324219 2.384766,2.326172 -0.04102,3.330078 3.330078,-0.04297 2.326172,2.384766 2.324219,-2.384766 3.332031,0.04297 -0.04297,-3.330078 z M 41.720108,-9.8802797 38.949229,1.01573 l -9.805618,5.4966405 5.743594,9.6630405 -3.046662,10.820683 10.894318,2.771855 5.497617,9.80731 9.662063,-5.745286 10.821661,3.048354 2.77257,-10.896987 9.808286,-5.495925 L 75.550796,10.82166 78.599149,0 67.70314,-2.7708785 62.208191,-12.577474 52.54346,-6.8329025 Z m 0.361776,0.6188144 10.533253,2.9667854 9.406199,-5.5907961 5.351586,9.5465625 10.606434,2.69900635 -2.966785,10.53325315 5.590796,9.406199 -9.544871,5.35061 L 68.35949,36.256589 57.824545,33.29078 48.416654,38.882553 43.066045,29.337681 32.460587,26.640366 35.426396,16.105422 29.834623,6.6975311 39.381186,1.3459451 Z m -1.787578,12.9038237 -0.822141,3.2283539 -2.905418,1.6278259 1.700564,2.8634218 -0.902182,3.206907 3.227377,0.82045 1.630491,2.906134 2.862448,-1.702253 3.207883,0.903874 0.819473,-3.229069 L 52.01991,12.639201 50.316681,9.7750621 51.21984,6.5698464 47.991486,5.7477054 46.36366,2.8422882 43.499521,4.5455168 Z M 54.149021,-4.3566651 53.32688,-1.1283112 50.422438,0.50120346 52.123001,3.3646256 51.220819,6.5715327 54.448196,7.3919824 56.078688,10.298116 58.941135,8.5958637 62.149018,9.499737 62.968491,6.2706682 65.8756,4.6418658 64.172371,1.7777274 65.07553,-1.4274883 61.847176,-2.2496294 60.21935,-5.1550465 57.354236,-3.4535067 Z m 8,13.8564064 -0.822141,3.2283537 -2.905417,1.627826 1.701539,2.865114 -0.903158,3.205215 3.228354,0.822141 1.629515,2.904443 2.862447,-1.702253 3.206907,0.902182 0.820449,-3.227377 2.907109,-1.628802 -1.702252,-2.862448 0.902182,-3.206907 L 69.847177,11.60678 68.218375,8.6996712 65.354236,10.4029 Z m -2.92918,10.9265117 -3.227377,-0.820449 -1.628803,-2.907109 -2.864138,1.703229 -3.205216,-0.903159 -0.822141,3.228354 -2.905417,1.627826 1.70154,2.865114 -0.903159,3.205215 3.228354,0.822141 1.629515,2.904442 2.862447,-1.702252 3.206907,0.902182 0.82045,-3.227377 2.907108,-1.628803 -1.702252,-2.862447 z M 21.95831,-9.8795649 l 3.048354,10.8216605 -5.743595,9.6630394 9.805619,5.496641 2.771855,10.894318 10.820683,-3.046662 9.664732,5.744571 5.494949,-9.806595 10.89601,-2.770879 -3.047378,-10.8233517 5.746263,-9.6637544 -9.808287,-5.4959256 -2.770878,-10.8960093 -10.82166,3.048353 -9.662064,-5.745286 -5.497616,9.80731 z m 0.622715,0.355021 10.605457,-2.6973151 5.35061,-9.544871 9.40789,5.591773 10.534945,-2.965809 2.697315,10.6054571 9.544871,5.3506095 -5.590796,9.4061995 2.965809,10.5349439 -10.606434,2.699007 -5.351586,9.546563 -9.4062,-5.590797 -10.533253,2.966786 -2.699006,-10.606434 -9.546563,-5.351586 5.591773,-9.4078912 z m 4.903823,12.0688283 0.902182,3.206907 -1.702252,2.8624472 2.904442,1.6295144 0.822141,3.228354 3.205216,-0.903158 2.865114,1.70154 1.627825,-2.905418 3.230046,-0.821164 -0.90485,-3.2061923 1.703229,-2.8641385 -2.907109,-1.6288024 -0.82045,-3.22737744 -3.206907,0.90218193 -2.862447,-1.70225209 -1.628802,2.9071085 z m 7.999024,-13.8547154 0.902182,3.2069073 -1.700564,2.8634221 2.904443,1.6295147 0.822141,3.22835393 3.205215,-0.90315843 2.865114,1.70153985 1.627826,-2.90541715 3.230045,-0.8211645 -0.90485,-3.2061922 1.703229,-2.8641385 -2.907109,-1.6288021 -0.820449,-3.227378 -3.206907,0.902182 -2.862448,-1.702252 -1.630491,2.906134 z m 13.856406,8.0000003 0.902182,3.206907 -1.702252,2.8624471 2.906134,1.6304912 0.820449,3.2273774 3.206907,-0.9021819 2.863423,1.7005633 1.627825,-2.9054171 3.228354,-0.822141 -0.903158,-3.2052157 1.703229,-2.8641385 -2.905418,-1.6278259 -0.822141,-3.228354 -3.205215,0.9031585 -2.864139,-1.7032286 -1.628802,2.9071085 z M 52.26679,7.616796 49.061575,8.5199544 46.197436,6.8167258 l -1.628802,2.9071085 -3.227378,0.8204497 0.902182,3.206907 -1.702252,2.862447 2.906134,1.630491 0.820449,3.227378 3.206907,-0.902182 2.863422,1.700563 1.627826,-2.905417 3.228354,-0.822141 -0.903158,-3.205216 1.703228,-2.864138 -2.905417,-1.627826 z M 4.844449,0.001953 l 8.050782,7.847656 -0.142579,11.240235 11.240235,-0.142578 7.847656,8.048828 7.847656,-8.048828 11.242188,0.142578 -0.144532,-11.240235 8.050782,-7.847656 -8.050782,-7.849609 0.144532,-11.242188 -11.242188,0.144532 -7.847656,-8.050782 -7.847656,8.050782 -11.240235,-0.144532 0.142579,11.242188 z m 0.716797,-0.0039 7.835938,-7.638672 -0.138672,-10.941406 10.943359,0.138672 7.640625,-7.835938 7.638672,7.835938 10.941406,-0.138672 L 50.283902,-7.640619 58.11984,6e-6 50.283902,7.640631 50.422574,18.58399 39.481168,18.445318 31.842496,26.281256 24.201871,18.445318 13.258512,18.58399 13.397184,7.640631 Z m 10.28125,8 2.384766,2.326172 -0.04297,3.330078 3.330078,-0.04102 2.326172,2.384766 2.324219,-2.384766 3.332031,0.04102 -0.04297,-3.330078 2.386719,-2.326172 -2.386719,-2.324219 0.04297,-3.332031 -3.332031,0.04297 L 23.840542,7e-6 21.51437,2.384773 l -3.330078,-0.04297 0.04297,3.332031 z m 0,-15.998047 2.384766,2.326172 -0.04102,3.330078 3.330078,-0.04102 2.326172,2.384766 2.324219,-2.384766 3.332031,0.04102 -0.04297,-3.330078 2.386719,-2.326172 -2.386719,-2.324219 0.04297,-3.332031 -3.332031,0.04297 -2.324219,-2.384766 -2.326172,2.384766 -3.330078,-0.04297 0.04102,3.332031 z m 16,0 2.384766,2.326172 -0.04297,3.330078 3.332031,-0.04102 2.324219,2.384766 2.326172,-2.384766 3.330078,0.04102 -0.04297,-3.330078 2.384766,-2.326172 -2.384766,-2.324219 0.04297,-3.332031 -3.330078,0.04297 -2.326172,-2.384766 -2.324219,2.384766 -3.332031,-0.04297 0.04297,3.332031 z m 7.998047,8 -2.324219,2.384766 -3.332031,-0.04297 0.04297,3.332031 -2.384766,2.324219 2.384766,2.326172 -0.04297,3.330078 3.332031,-0.04102 2.324219,2.384766 2.326172,-2.384766 3.330078,0.04102 -0.04297,-3.330078 2.384766,-2.326172 -2.384766,-2.324219 0.04297,-3.332031 -3.330078,0.04297 z m -44.8763737,17.116523 10.8960097,2.770879 5.49664,9.805618 9.663041,-5.743594 10.820683,3.046662 2.771855,-10.894318 9.80731,-5.497617 -5.745286,-9.6620634 3.048354,-10.8216605 -10.896987,-2.7725701 -5.495925,-9.808286 -9.663755,5.746262 -10.82166,-3.048353 -2.7708785,10.8960093 -9.806595,5.4949491 5.744571,9.6647309 z m 0.6188144,-0.361776 2.9667854,-10.5332529 -5.5907965,-9.4061995 9.5465629,-5.351586 2.6990063,-10.6064336 10.5332532,2.966785 9.406199,-5.590796 5.35061,9.544871 10.606434,2.6990065 L 38.135229,1.0120918 43.727002,10.419983 34.18213,15.770592 31.484815,26.37605 20.949871,23.410241 11.54198,29.002014 6.1903941,19.455451 Z m 12.9038237,1.787578 3.2283536,0.822141 1.627826,2.905418 2.863422,-1.700564 3.206907,0.902182 0.82045,-3.227377 L 23.1399,16.61364 21.437647,13.751192 22.341521,10.543309 19.112452,9.7238357 17.48365,6.8167272 14.619511,8.5199558 11.414295,7.6167974 10.592154,10.845151 7.6867372,12.472977 9.3899658,15.337116 Z M 0.48778389,4.6876163 3.7161378,5.5097573 5.3456525,8.4141994 8.2090746,6.7136361 11.415982,7.615818 12.236431,4.3884406 15.142565,2.7579494 13.440313,-0.1044977 14.344186,-3.3123812 11.115117,-4.1318544 9.4863148,-7.0389629 6.6221764,-5.3357343 3.4169607,-6.2388928 2.5948196,-3.0105388 -0.31059754,-1.3827129 1.3909423,1.4824006 Z m 13.85640611,-8 3.228354,0.822141 1.627826,2.90541715 2.865114,-1.70153985 3.205215,0.90315843 0.822141,-3.22835393 2.904443,-1.6295147 -1.702253,-2.8624471 0.902182,-3.2069073 -3.227377,-0.820449 -1.628802,-2.907109 -2.862448,1.702252 -3.206907,-0.902182 -0.820449,3.227378 -2.907109,1.6288021 1.703229,2.8641385 z m 10.926512,2.92917969 -0.820449,3.22737741 -2.907109,1.6288024 1.703229,2.8641385 -0.903159,3.2052157 3.228354,0.822141 1.627826,2.905417 2.865114,-1.70154 3.205215,0.903159 0.822141,-3.228354 L 36.996306,8.6136382 35.294054,5.7511911 36.196236,2.544284 32.968859,1.7238343 31.340056,-1.1832742 28.477609,0.51897793 Z M -5.0351159,36.878327 5.7865446,33.829973 15.449584,39.573568 20.946225,29.767949 31.840543,26.996094 28.793881,16.175411 34.538452,6.5106791 24.731857,1.01573 21.960978,-9.8802797 11.137626,-6.8329025 1.4738719,-12.579165 -4.0220537,-2.7708785 -14.918063,0 l 3.048353,10.82166 -5.745286,9.662064 9.8073103,5.497616 z m 0.355021,-0.622715 -2.697315,-10.605457 -9.5448711,-5.35061 5.591773,-9.40789 -2.965809,-10.53494485 10.6054571,-2.69731505 5.3506095,-9.5448711 9.4061994,5.5907961 10.534944,-2.9658089 2.699007,10.6064339 9.546563,5.351586 -5.590797,9.4061999 2.966786,10.533253 -10.606434,2.699006 -5.351586,9.546563 -9.4078912,-5.591773 z m 12.0688283,-4.903823 3.2069066,-0.902182 2.862448,1.702252 1.629514,-2.904442 3.228354,-0.822141 -0.903158,-3.205216 1.70154,-2.865114 -2.905418,-1.627825 -0.821164,-3.230046 -3.206192,0.90485 -2.8641388,-1.703229 -1.6288024,2.907109 -3.2273774,0.82045 0.9021819,3.206907 -1.7022521,2.862447 2.9071085,1.628802 z m -13.8547151,-7.999024 3.206907,-0.902182 2.86342215,1.700564 L 1.2338621,21.246704 4.462216,20.424563 3.5590576,17.219348 5.2605974,14.354234 2.3551803,12.726408 1.5340158,9.496363 l -3.2061922,0.90485 -2.8641385,-1.7032288 -1.6288024,2.9071088 -3.2273775,0.820449 0.902182,3.206907 -1.7022522,2.862448 2.9061336,1.630491 z m 8,-13.8564063 3.206907,-0.902182 2.8624471,1.7022523 1.6304912,-2.9061337 3.2273774,-0.8204497 -0.902182,-3.206907 1.700563,-2.86342215 -2.905417,-1.62782585 -0.8221407,-3.228354 -3.2052157,0.9031585 -2.8641385,-1.7032287 -1.6278259,2.9054172 -3.228354,0.822141 0.90315848,3.2052157 -1.70322858,2.8641385 2.90710846,1.6288024 z m 10.9272267,-2.9265119 0.903158,3.2052157 -1.703228,2.8641385 2.907108,1.628802 0.82045,3.227378 3.206907,-0.902182 2.862447,1.702252 1.630491,-2.906134 3.227378,-0.820449 L 25.413774,11.361961 27.114337,8.4985386 24.20892,6.8707127 23.386779,3.6423588 20.181563,4.5455172 17.317425,2.8422886 15.689599,5.7477057 Z M 4.846402,53.992188 12.694058,45.941406 23.934293,46.083985 23.791715,34.84375 31.840543,26.996094 23.791715,19.148438 23.934293,7.90625 12.694058,8.050782 4.846402,0 -3.003207,8.050782 -14.245395,7.90625 l 0.144532,11.242188 -8.050782,7.847656 8.050782,7.847656 -0.144532,11.240235 11.242188,-0.142579 z m -0.0039,-0.716797 -7.638672,-7.835938 -10.941406,0.138672 0.138672,-10.943359 -7.835938,-7.640625 7.835938,-7.638672 -0.138672,-10.941406 10.941406,0.138672 7.640625,-7.835938 7.640625,7.835938 10.943359,-0.138672 -0.138672,10.941406 7.835938,7.638672 -7.835938,7.640625 0.138672,10.943359 -10.943359,-0.138672 z m 8,-10.28125 2.326172,-2.384766 3.330078,0.04297 -0.04102,-3.330078 2.384766,-2.326172 -2.384766,-2.324219 0.04102,-3.332031 -3.330078,0.04297 -2.326172,-2.386719 -2.324219,2.386719 -3.332031,-0.04297 0.04297,3.332031 -2.384766,2.324219 2.384766,2.326172 -0.04297,3.330078 3.332031,-0.04297 z m -15.998047,0 2.326172,-2.384766 3.330078,0.04102 -0.04102,-3.330078 2.384766,-2.326172 -2.384766,-2.324219 0.04102,-3.332031 -3.330078,0.04297 -2.326172,-2.386719 -2.324219,2.386719 -3.332031,-0.04297 0.04297,3.332031 -2.384766,2.324219 2.384766,2.326172 -0.04297,3.330078 3.332031,-0.04102 z m 0,-16 2.326172,-2.384766 3.330078,0.04297 -0.04102,-3.332031 2.384766,-2.324219 -2.384766,-2.326172 0.04102,-3.330078 -3.330078,0.04297 -2.326172,-2.384766 -2.324219,2.384766 -3.332031,-0.04297 0.04297,3.330078 -2.384766,2.326172 2.384766,2.324219 -0.04297,3.332031 3.332031,-0.04297 z m 8,-7.998047 2.384766,2.324219 -0.04297,3.332031 3.332031,-0.04297 2.324219,2.384766 2.326172,-2.384766 3.330078,0.04297 -0.04102,-3.332031 2.384766,-2.324219 -2.384766,-2.326172 0.04102,-3.330078 -3.330078,0.04297 -2.326172,-2.384766 -2.324219,2.384766 -3.332031,-0.04297 0.04297,3.330078 z m 17.116523,44.876374 2.770879,-10.89601 9.805618,-5.49664 -5.743594,-9.663041 3.046662,-10.820683 -10.894318,-2.771855 -5.497617,-9.80731 -9.6620634,5.745286 -10.8216605,-3.048354 -2.7725698,10.896987 -9.8082863,5.495925 5.746262,9.663755 -3.048353,10.82166 10.8960093,2.770878 5.4949491,9.806596 9.6647306,-5.744572 z m -0.361776,-0.618815 -10.533253,-2.966785 -9.4061994,5.590796 -5.351586,-9.546562 -10.6064336,-2.699007 2.966785,-10.533253 -5.590796,-9.406199 9.5448711,-5.35061 2.6990064,-10.606434 10.5349443,2.965809 9.4078912,-5.591773 5.350609,9.544872 10.605458,2.697315 -2.965809,10.534944 5.591773,9.407891 -9.546563,5.351586 z m 1.787578,-12.903823 0.822141,-3.228354 2.905418,-1.627826 -1.700564,-2.863422 0.902182,-3.206907 -3.227377,-0.82045 -1.630491,-2.906134 -2.862448,1.702253 -3.207883,-0.903874 -0.819473,3.229069 -2.907109,1.628802 1.703229,2.864139 -0.903159,3.205216 3.228354,0.822141 1.627826,2.905417 2.864139,-1.703229 z M 9.5320653,58.348853 10.354206,55.120499 13.258648,53.490985 11.558085,50.627562 12.460267,47.420655 9.2328896,46.600206 7.6023984,43.694072 4.7399513,45.396324 1.5320678,44.492451 0.71259456,47.72152 l -2.90710846,1.628802 1.70322858,2.864139 -0.90315848,3.205215 3.228354,0.822141 1.6278259,2.905418 2.8651135,-1.70154 z m -8,-13.856406 0.822141,-3.228354 2.9054171,-1.627826 -1.7015398,-2.865114 0.9031584,-3.205215 -3.2283539,-0.822141 -1.62951465,-2.904443 -2.86244715,1.702253 -3.206907,-0.902182 -0.8204497,3.227377 -2.9071086,1.628802 1.7022522,2.862448 -0.902182,3.206907 3.2273775,0.820449 1.6288024,2.907109 2.8641385,-1.703229 z m 2.9291797,-10.926512 3.2273774,0.820449 1.6288024,2.907109 2.8641382,-1.703229 3.205216,0.903159 0.822141,-3.228354 2.905417,-1.627826 -1.70154,-2.865114 0.903159,-3.205215 -3.228354,-0.822141 -1.629515,-2.904442 -2.862447,1.702252 -3.206907,-0.902182 -0.8204497,3.227377 -2.9071085,1.628803 1.7022521,2.862447 z M 41.722776,63.871753 38.674422,53.050092 44.418017,43.387053 34.612398,37.890412 31.840543,26.996094 21.01986,30.042756 11.355128,24.298185 5.860179,34.10478 l -10.8960097,2.770879 3.0473772,10.823352 -5.7462624,9.663754 9.8082864,5.495926 2.7708785,10.896009 10.82166,-3.048353 9.662064,5.745286 5.497616,-9.80731 z m -0.622715,-0.355021 -10.605457,2.697315 -5.35061,9.544871 -9.40789,-5.591773 -10.5349448,2.965809 -2.6973151,-10.605457 -9.5448715,-5.35061 5.5907965,-9.406199 -2.9658089,-10.534944 10.6064339,-2.699007 5.3515859,-9.546563 9.4062,5.590797 10.533253,-2.966786 2.699006,10.606434 9.546563,5.351586 -5.591773,9.407891 z m -4.903823,-12.068828 -0.902182,-3.206907 1.702252,-2.862448 -2.904442,-1.629514 -0.822141,-3.228354 -3.205216,0.903158 -2.865114,-1.70154 -1.627825,2.905418 -3.230046,0.821164 0.90485,3.206192 -1.703229,2.864139 2.907109,1.628802 0.82045,3.227378 3.206907,-0.902182 2.862447,1.702252 1.628802,-2.907109 z m -7.999024,13.854715 -0.902182,-3.206907 1.700564,-2.863422 -2.904443,-1.629515 -0.822141,-3.228354 -3.205215,0.903158 -2.865114,-1.701539 -1.627826,2.905417 -3.230045,0.821164 0.90485,3.206192 -1.703229,2.864139 2.907109,1.628802 0.820449,3.227378 3.206907,-0.902182 2.862448,1.702252 1.630491,-2.906134 z m -13.856406,-8 -0.902182,-3.206907 1.702252,-2.862447 -2.906134,-1.630492 -0.820449,-3.227377 -3.2069074,0.902182 -2.8634222,-1.700563 -1.6278258,2.905417 -3.22835398,0.822141 0.90315848,3.205215 -1.70322865,2.864139 2.90541715,1.627826 0.822141,3.228354 3.2052157,-0.903159 2.8641385,1.703229 1.6288022,-2.907109 z m -2.926512,-10.927227 3.205215,-0.903158 2.864139,1.703228 1.628802,-2.907108 3.227378,-0.82045 -0.902182,-3.206907 1.702252,-2.862447 -2.906134,-1.630491 -0.820449,-3.227378 -3.206907,0.902182 -2.863422,-1.700563 -1.627826,2.905417 -3.2283542,0.822141 0.9031584,3.205216 -1.7032286,2.864138 2.9054174,1.627826 z m 47.422341,7.614843 -8.050782,-7.847656 0.142579,-11.240235 -11.240235,0.142578 -7.847656,-8.048828 -7.847656,8.048828 -11.242188,-0.142578 0.144532,11.240235 -8.050782,7.847656 8.050782,7.849609 -0.144532,11.242188 11.242188,-0.144532 7.847656,8.050782 7.847656,-8.050782 11.240235,0.144532 -0.142579,-11.242188 z m -0.716797,0.0039 -7.835938,7.638672 0.138672,10.941406 -10.943359,-0.138672 -7.640625,7.835938 -7.638672,-7.835938 -10.941406,0.138672 0.138672,-10.941406 -7.835938,-7.640625 7.835938,-7.640625 -0.138672,-10.943359 10.941406,0.138672 7.638672,-7.835938 7.640625,7.835938 10.943359,-0.138672 -0.138672,10.943359 z m -10.28125,-8 -2.384766,-2.326172 0.04297,-3.330078 -3.330078,0.04102 -2.326172,-2.384766 -2.324219,2.384766 -3.332031,-0.04102 0.04297,3.330078 -2.386719,2.326172 2.386719,2.324219 -0.04297,3.332031 3.332031,-0.04297 2.324219,2.384766 2.326172,-2.384766 3.330078,0.04297 -0.04297,-3.332031 z m 0,15.998047 -2.384766,-2.326172 0.04102,-3.330078 -3.330078,0.04102 -2.326172,-2.384766 -2.324219,2.384766 -3.332031,-0.04102 0.04297,3.330078 -2.386719,2.326172 2.386719,2.324219 -0.04297,3.332031 3.332031,-0.04297 2.324219,2.384766 2.326172,-2.384766 3.330078,0.04297 -0.04102,-3.332031 z m -16,0 -2.384766,-2.326172 0.04297,-3.330078 -3.332031,0.04102 -2.324219,-2.384766 -2.326172,2.384766 -3.330078,-0.04102 0.04297,3.330078 -2.384766,2.326172 2.384766,2.324219 -0.04297,3.332031 3.330078,-0.04297 2.326172,2.384766 2.324219,-2.384766 3.332031,0.04297 -0.04297,-3.332031 z m -7.998047,-8 2.324219,-2.384766 3.332031,0.04297 -0.04297,-3.332031 2.384766,-2.324219 -2.384766,-2.326172 0.04297,-3.330078 -3.332031,0.04102 -2.324219,-2.384766 -2.326172,2.384766 -3.330078,-0.04102 0.04297,3.330078 -2.384766,2.326172 2.384766,2.324219 -0.04297,3.332031 3.330078,-0.04297 z m 44.876374,-17.116523 -10.89601,-2.770879 -5.49664,-9.805618 -9.663041,5.743594 -10.820683,-3.046662 -2.771855,10.894318 -9.80731,5.497617 5.745286,9.662063 -3.048354,10.821661 10.896987,2.77257 5.495925,9.808286 9.663755,-5.746262 10.82166,3.048353 2.770878,-10.896009 9.806596,-5.494949 -5.744572,-9.664731 z m -0.618815,0.361776 -2.966785,10.533253 5.590796,9.406199 -9.546562,5.351586 -2.699007,10.606434 -10.533253,-2.966785 -9.406199,5.590796 -5.35061,-9.544871 -10.606434,-2.699006 2.965809,-10.534945 -5.591773,-9.407891 9.544872,-5.350609 2.697315,-10.605458 10.534944,2.965809 9.407891,-5.591773 5.351586,9.546563 z m -12.903823,-1.787578 -3.228354,-0.822141 -1.627826,-2.905418 -2.863422,1.700564 -3.206907,-0.902182 -0.82045,3.227377 -2.906134,1.630491 1.702253,2.862448 -0.903874,3.207883 3.229069,0.819473 1.628802,2.907109 2.864139,-1.703229 3.205216,0.903159 0.822141,-3.228354 2.905417,-1.627826 -1.703229,-2.864139 z m 7.999023,13.854715 -3.228354,-0.822141 -1.629514,-2.904442 -2.863423,1.700563 -3.206907,-0.902182 -0.820449,3.227377 -2.906134,1.630492 1.702252,2.862447 -0.903873,3.207883 3.229069,0.819473 1.628802,2.907109 2.864139,-1.703229 3.205215,0.903159 0.822141,-3.228354 2.905418,-1.627826 -1.70154,-2.865114 z m -13.856406,8 -3.228354,-0.822141 -1.627826,-2.905417 -2.865114,1.701539 -3.205215,-0.903158 -0.822141,3.228354 -2.904443,1.629515 1.702253,2.862447 -0.902182,3.206907 3.227377,0.820449 1.628802,2.907109 2.862448,-1.702252 3.206907,0.902182 0.820449,-3.227378 2.907109,-1.628802 -1.703229,-2.864139 z m -10.926512,-2.92918 0.820449,-3.227377 2.907109,-1.628803 -1.703229,-2.864138 0.903159,-3.205216 -3.228354,-0.822141 -1.627826,-2.905417 -2.865114,1.70154 -3.205215,-0.903159 -0.822141,3.228354 -2.904442,1.629515 1.702252,2.862447 -0.902182,3.206907 3.227377,0.82045 1.628803,2.907108 2.862447,-1.702252 z m 30.305818,-37.261531 -10.821661,3.048354 -9.663039,-5.743595 -5.496641,9.805619 -10.894318,2.771855 3.046662,10.820683 -5.744571,9.664732 9.806595,5.494949 2.770879,10.89601 10.823352,-3.047378 9.663754,5.746263 5.495926,-9.808287 10.896009,-2.770878 -3.048353,-10.82166 5.745286,-9.662064 -9.80731,-5.497616 z m -0.355021,0.622715 2.697315,10.605457 9.544871,5.35061 -5.591773,9.40789 2.965809,10.534945 -10.605457,2.697315 -5.35061,9.544871 -9.406199,-5.590796 -10.534944,2.965809 -2.699007,-10.606434 -9.546563,-5.351586 5.590797,-9.4062 -2.966786,-10.533253 10.606434,-2.699006 5.351586,-9.546563 9.407891,5.591773 z m -12.068828,4.903823 -3.206907,0.902182 -2.862448,-1.702252 -1.629514,2.904442 -3.228354,0.822141 0.903158,3.205216 -1.70154,2.865114 2.905418,1.627825 0.821164,3.230046 3.206192,-0.90485 2.864139,1.703229 1.628802,-2.907109 3.227378,-0.82045 -0.902182,-3.206907 1.702252,-2.862447 -2.907109,-1.628802 z m 13.854715,7.999024 -3.206907,0.902182 -2.863422,-1.700564 -1.629515,2.904443 -3.228354,0.822141 0.903158,3.205215 -1.701539,2.865114 2.905417,1.627826 0.821164,3.230045 3.206192,-0.90485 2.864139,1.703229 1.628802,-2.907109 3.227378,-0.820449 -0.902182,-3.206907 1.702252,-2.862448 -2.906134,-1.630491 z m -8,13.856406 -3.206907,0.902182 -2.862447,-1.702252 -1.630492,2.906134 -3.227377,0.820449 0.902182,3.206907 -1.700563,2.863423 2.905417,1.627825 0.822141,3.228354 3.205215,-0.903158 2.864139,1.703229 1.627826,-2.905418 3.228354,-0.822141 -0.903159,-3.205215 1.703229,-2.864139 -2.907109,-1.628802 z m -10.927227,2.926512 -0.903158,-3.205215 1.703228,-2.864139 -2.907108,-1.628802 -0.82045,-3.227378 -3.206907,0.902182 -2.862447,-1.702252 -1.630491,2.906134 -3.227378,0.820449 0.902182,3.206907 -1.700563,2.863422 2.905417,1.627826 0.822141,3.228354 3.205216,-0.903158 2.864138,1.703228 1.627826,-2.905417 z"
       inkscape:path-effect="#path-effect3"
       inkscape:original-d="m 58.834684,0 -7.847656,8.050782 -11.240235,-0.142579 0.142578,11.240235 -8.048828,7.847656 8.048828,7.847656 -0.142578,11.242188 11.240235,-0.144532 7.847656,8.050782 7.849609,-8.050782 11.242188,0.144532 L 77.781949,34.84375 85.832731,26.996094 77.781949,19.148438 77.926481,7.908203 66.684293,8.050782 Z m 0.0039,0.716797 7.638672,7.835938 10.941406,-0.138672 -0.138672,10.943359 7.835938,7.640625 -7.835938,7.638672 0.138672,10.941406 -10.941406,-0.138672 -7.640625,7.835938 -7.640625,-7.835938 -10.943359,0.138672 0.138672,-10.941406 -7.835938,-7.638672 7.835938,-7.640625 -0.138672,-10.943359 10.943359,0.138672 z m -8,10.28125 -2.326172,2.384766 -3.330078,-0.04297 0.04102,3.330078 -2.384766,2.326172 2.384766,2.324219 -0.04102,3.332031 3.330078,-0.04297 2.326172,2.386719 2.324219,-2.386719 3.332031,0.04297 -0.04297,-3.332031 2.384766,-2.324219 -2.384766,-2.326172 0.04297,-3.330078 -3.332031,0.04297 z m 15.998047,0 -2.326172,2.384766 -3.330078,-0.04102 0.04102,3.330078 -2.384766,2.326172 2.384766,2.324219 -0.04102,3.332031 3.330078,-0.04297 2.326172,2.386719 2.324219,-2.386719 3.332031,0.04297 -0.04297,-3.332031 2.384766,-2.324219 -2.384766,-2.326172 0.04297,-3.330078 -3.332031,0.04102 z m 0,16 -2.326172,2.384766 -3.330078,-0.04297 0.04102,3.332031 -2.384766,2.324219 2.384766,2.326172 -0.04102,3.330078 3.330078,-0.04297 2.326172,2.384766 2.324219,-2.384766 3.332031,0.04297 -0.04297,-3.330078 2.384766,-2.326172 -2.384766,-2.324219 0.04297,-3.332031 -3.332031,0.04297 z m -8,7.998047 -2.384766,-2.324219 0.04297,-3.332031 -3.332031,0.04297 -2.324219,-2.384766 -2.326172,2.384766 -3.330078,-0.04297 0.04102,3.332031 -2.384766,2.324219 2.384766,2.326172 -0.04102,3.330078 3.330078,-0.04297 2.326172,2.384766 2.324219,-2.384766 3.332031,0.04297 -0.04297,-3.330078 z"
       transform="translate(28.159457,33.003906)" />
  </g>
</svg>
