<?xml version="1.0" encoding="UTF-8" standalone="no"?>
<!-- Created with Inkscape (http://www.inkscape.org/) -->

<svg
   width="120"
   height="120"
   viewBox="0 0 120 120"
   version="1.1"
   id="svg1"
   inkscape:version="1.4 (86a8ad7, 2024-10-11)"
   sodipodi:docname="mand_22.svg"
   xmlns:inkscape="http://www.inkscape.org/namespaces/inkscape"
   xmlns:sodipodi="http://sodipodi.sourceforge.net/DTD/sodipodi-0.dtd"
   xmlns="http://www.w3.org/2000/svg"
   xmlns:svg="http://www.w3.org/2000/svg">
  <sodipodi:namedview
     id="namedview1"
     pagecolor="#ffffff"
     bordercolor="#000000"
     borderopacity="0.25"
     inkscape:showpageshadow="2"
     inkscape:pageopacity="0.0"
     inkscape:pagecheckerboard="0"
     inkscape:deskcolor="#d1d1d1"
     inkscape:document-units="px"
     inkscape:zoom="4.8625"
     inkscape:cx="59.948586"
     inkscape:cy="59.948586"
     inkscape:window-width="3440"
     inkscape:window-height="1369"
     inkscape:window-x="-8"
     inkscape:window-y="-8"
     inkscape:window-maximized="1"
     inkscape:current-layer="layer1" />
  <defs
     id="defs1">
    <inkscape:path-effect
       effect="copy_rotate"
       starting_point="0,0"
       origin="27.393501,24.473007"
       id="path-effect3"
       is_visible="true"
       lpeversion="1.2"
       lpesatellites=""
       method="normal"
       num_copies="10"
       starting_angle="0"
       rotation_angle="36"
       gap="-0.01"
       copies_to_360="true"
       mirror_copies="false"
       split_items="false"
       link_styles="false" />
  </defs>
  <g
     inkscape:label="Layer 1"
     inkscape:groupmode="layer"
     id="layer1">
    <path
       id="path1"
       style="fill:#0000ff;stroke-width:1.36923"
       d="m 42.282881,5.4714051 -5.434139,10.5313189 -1.986991,0.657874 -2.537893,-1.823861 -2.583356,3.51668 -4.139786,1.369232 0.94937,2.973801 -1.240867,1.690145 -11.69463,1.91211 1.794442,11.713351 -1.222146,1.700842 -3.12356,0.01605 -0.02139,4.364426 -2.5459153,3.540748 2.5164983,1.847927 -0.01069,2.096636 -8.3357339,8.421311 8.3357339,8.421312 0.01069,2.093962 -2.5191724,1.850601 2.5485894,3.543423 0.02139,4.359077 3.120886,0.01605 1.22482,1.703518 -1.794442,11.713351 11.69463,1.912105 1.240867,1.687491 -0.952044,2.976464 4.145135,1.36923 2.580681,3.51401 2.535219,-1.82119 1.989665,0.65788 5.434139,10.53132 10.584804,-5.32717 1.995013,0.63648 0.981462,2.96844 4.158506,-1.32644 4.150484,1.32377 0.978787,-2.96309 2.000363,-0.63916 10.584803,5.32717 5.434138,-10.53132 1.986991,-0.65788 2.537893,1.82386 2.583356,-3.51668 4.139786,-1.36923 -0.949369,-2.973794 1.240866,-1.690161 11.694636,-1.912105 -1.79444,-11.713351 1.22214,-1.700844 3.12356,-0.01605 0.0214,-4.364426 2.54592,-3.540749 -2.5165,-1.847928 0.0107,-2.096636 8.33573,-8.421311 -8.33573,-8.421311 -0.0107,-2.093961 2.51917,-1.850603 -2.54859,-3.543423 -0.0214,-4.359076 -3.12088,-0.01605 -1.22482,-1.703516 1.79444,-11.713351 -11.694636,-1.91211 -1.240866,-1.687472 0.952043,-2.976474 -4.145135,-1.369232 -2.580681,-3.514005 -2.535219,1.821185 L 83.151241,16.002723 77.717103,5.4714038 67.1323,10.798571 65.137285,10.162093 64.155824,7.1936411 l -4.158506,1.326444 -4.150484,-1.32377 -0.978787,2.9631029 -2.000362,0.639153 z m 0.238011,0.735428 10.159593,5.1105509 -6.699073,5.696218 -8.718157,-0.615085 z m 34.9582,0 5.214848,10.1061069 -8.768967,0.671246 -6.691052,-5.621339 z m -13.673598,1.671426 0.68729,2.077916 -3.596908,-1.147267 z m -7.611004,0.0027 2.904269,0.927975 -3.591559,1.147267 z m 3.802828,1.214124 4.706734,1.5056199 0.823679,2.489756 -4.225364,4.926025 -1.02425,0.08825 -1.668751,-0.133719 -4.16653,-4.79766 0.853096,-2.575333 z m -5.343214,1.7088659 -0.625781,1.890716 -1.149941,-1.32377 z m 10.69445,0 1.679449,0.53753 -1.085759,1.264935 z m -12.622606,1.0189 1.152615,1.326444 -1.751654,5.29775 -4.819054,2.484407 -5.361934,0.821005 -4.607785,-3.31076 0.131035,-1.615267 8.651298,0.612411 z m 14.422396,0.0053 6.640241,5.581226 8.643276,-0.660548 0.152434,1.74898 -4.530233,3.2546 -5.361933,-0.821005 -4.819054,-2.484407 -1.778397,-5.388676 z m -1.470853,1.714215 1.698168,5.134619 -5.704242,-0.459977 z m -11.384415,0.08558 4.032816,4.6479 -5.733658,0.497416 z m -21.848875,1.968271 1.775723,1.275632 -3.580863,1.184706 z m 55.111581,0.0027 1.802465,2.457664 -3.575513,-1.184705 z m -4.733477,0.87449 1.767701,0.582993 -1.615267,1.160638 z m -45.738226,0.02941 -0.133719,1.658055 -1.537713,-1.104478 z m -2.313254,0.764845 2.128728,1.529689 -0.524158,6.471759 -0.772869,0.671244 -1.433414,0.87449 -6.188286,-1.433414 -0.823678,-2.58068 2.922988,-3.982004 z m 50.461008,0.0027 4.68534,1.545734 2.925662,3.98468 -0.796935,2.497777 -6.313977,1.502947 -0.87449,-0.526834 -1.278307,-1.096454 -0.5509,-6.327349 z m -24.961738,1.24889 6.781976,0.545553 -0.06953,0.994833 -0.641827,-0.09895 -1.909438,11.691955 -4.431283,3.254601 -4.431283,-3.254601 -1.909436,-11.691955 -0.724731,0.109648 -0.06953,-0.909255 z m 7.209861,0.336959 3.522027,1.818511 -3.610278,-0.553576 z m -15.045504,0.04279 0.0936,1.235518 -3.532725,0.540205 z m -15.147127,0.179178 4.391169,3.155651 -4.883237,2.979148 z m 53.528407,0.03477 2.898919,0.957393 -0.665895,2.083264 z m -61.634154,0.0027 -2.233024,3.037983 -0.663222,-2.08059 z m 53.458876,0.01605 0.532182,6.129452 -4.931374,-2.968452 z m -29.435809,1.452134 1.83723,11.223958 -4.051535,-0.981461 2.537893,-3.019263 -0.550903,-7.188467 z m 13.590695,0 0.147086,0.0214 -0.502766,7.110913 2.676955,3.150304 -4.174552,1.03762 z m 0.556251,0.08558 5.174733,0.791588 4.575695,2.361389 -3.674462,5.971671 -3.864337,0.960065 -2.701023,-3.174371 z m -14.780751,0.01068 0.53753,6.99057 -2.559287,3.048681 -4.054209,-0.981462 -3.666439,-5.878069 4.645226,-2.401504 z m -6.784651,1.037621 -3.249251,1.674099 -0.671244,-1.07506 z m 28.432955,0.0027 3.816198,0.582993 -0.647175,1.050994 z m -32.575416,1.016228 0.526833,0.845072 -0.57497,0.296845 5.327167,10.58213 -1.671425,5.236241 -5.498321,-0.02674 -8.418637,-8.335733 -0.518811,0.513462 -0.591016,-0.692639 5.618665,-4.877889 z m 36.589511,0.03209 6.375485,3.837594 5.158689,4.420586 -0.641827,0.76217 -0.459977,-0.454627 -8.418636,8.335733 -5.495647,0.02941 -1.674101,-5.238917 5.327168,-10.58213 -0.64985,-0.334285 z m -51.474559,0.574971 0.604387,1.896066 -1.706192,-0.395795 z m 66.485298,0.0027 1.04297,1.420044 -1.620615,0.385097 z m -15.775583,0.665896 0.203245,0.104295 -5.113225,10.159593 -2.698349,-3.174371 3.826896,-0.952045 z m -35.006338,0.03477 3.773411,6.049224 4.016771,0.973437 -2.767882,3.297388 -5.156013,-10.250518 z m 51.977325,0.85577 11.320238,1.850602 -1.72224,11.240003 -7.48799,-4.607787 z m -68.977729,0.01605 -2.069892,8.544327 -7.413108,4.62918 -1.738282,-11.338951 z m 68.635421,0.31289 2.091288,8.415963 7.383698,4.546277 -0.90659,1.505621 -5.57855,-0.02941 -3.853639,-3.816198 -2.438944,-4.843124 1.727585,-5.404721 z m -68.301135,0.06686 1.711539,0.395794 1.698168,5.31647 -2.438944,4.843123 -3.853639,3.816199 -5.674823,0.02941 -0.842398,-1.382604 7.356945,-4.591741 z m 66.10555,0.457303 -1.644683,5.150665 -4.343033,-3.725274 z m -63.776252,0.08291 5.998412,1.385276 -4.34838,3.776086 z m 62.110174,5.271007 1.781073,3.540749 -2.596728,-2.569986 z m -39.539243,0.06686 3.963286,0.962742 -1.556432,6.723141 -5.15334,-4.417911 z m -20.974386,0.0214 0.799611,0.941346 -2.535219,2.508476 z m 39.691679,0.01605 2.64219,3.107514 -5.212174,4.524884 -1.569803,-6.6028 z m -14.294032,0.786239 4.420587,3.243902 -4.661272,3.423079 4.784288,6.653611 -1.938853,2.69835 -2.917641,-4.781614 -0.272776,-3.147629 -1.077736,-0.9253 z m 9.686246,0.05348 1.687472,7.097542 -0.984136,0.853096 -0.26208,3.24925 -2.914966,4.843123 -1.995013,-2.775903 4.784289,-6.656285 -4.658598,-3.420406 z m -33.4713,0.05081 8.081677,8.001449 -3.85364,1.585847 0.278125,-3.931192 -4.669294,-5.492973 z m 57.331234,0 0.106978,0.106978 -4.586391,5.455533 0.315564,4.121066 -3.990026,-1.61259 z m 0.401142,0.395793 3.719925,3.679811 2.313253,4.602437 -6.482457,2.671607 -3.690508,-1.492249 -0.31824,-4.158507 z m -58.189679,0.05617 4.543604,5.340538 -0.278125,3.968632 -3.856313,1.588524 -6.42095,-2.599401 2.350693,-4.674643 z m 41.633206,1.920133 1.668752,5.225546 -5.781795,0.02941 -0.04279,8.193996 -3.152978,1.042969 0.449279,-5.583899 1.628637,-2.706371 -0.328936,-1.379928 z m -25.049989,0.09093 5.538436,4.749523 -0.294172,1.267609 1.69817,2.783926 0.489392,5.629362 -3.246576,-1.072387 -0.04279,-8.196671 -5.781796,-0.02941 z m 12.539703,1.016226 4.359078,3.201115 -4.359078,6.067943 -4.359078,-6.067943 z m 34.003482,1.799791 2.746486,2.719744 -1.141917,0.470673 z m -68.006965,0.0027 -1.642007,3.262623 -1.17401,-0.476021 z m 78.051571,0.815657 1.08576,1.510968 -1.987,-0.01068 z m -88.155004,0.07755 0.866468,1.420044 -1.896066,0.01068 z m 50.707042,1.323769 0.238011,1.00553 -1.112501,1.847927 0.18185,-2.251744 z m -13.251063,0.01605 0.786239,0.673918 0.1872,2.152796 -1.179358,-1.933506 z m -30.369135,0.596363 -2.200933,5.281705 -3.206462,-5.254961 z m 16.612634,0 5.484951,0.02941 -1.759678,5.506344 7.782158,2.572658 0.01605,3.321458 -5.169385,-2.152797 -2.072568,-2.388133 -1.414694,-0.114988 z m 40.721276,0 -2.807996,6.73384 -1.294351,0.112318 -2.123379,2.47371 -5.204151,2.206282 0.01872,-3.420406 7.782158,-2.572658 -1.759677,-5.506343 z m 16.607284,0 5.418096,0.02674 -3.1717,5.273681 z m -79.827286,0.02941 3.380291,5.543784 -0.229988,0.992158 -0.647176,1.553758 -5.848652,2.479058 -2.184887,-1.604568 0.02407,-4.939397 2.882875,-4.011422 z m 85.724082,0 2.70904,0.01605 2.88555,4.008747 0.0241,4.939398 -2.11535,1.553756 -5.9904,-2.497777 -0.395788,-0.935999 -0.390445,-1.639335 z m -57.170784,0.0027 5.41007,0.02674 0.03743,7.469266 -7.092193,-2.345343 z m 28.705732,0 1.644683,5.150665 -7.092194,2.345344 0.03744,-7.469267 z m -60.561766,0.01605 -2.200934,3.062051 0.01605,-3.051355 z m 92.417808,0 2.18221,0.01068 0.0161,3.046005 z m -9.573933,0.33161 2.901594,6.851508 1.575159,6.610822 -0.9681,0.240686 -0.10429,-0.639153 -11.710678,1.794443 -4.4607,-3.206463 1.72491,-5.220197 10.528646,-5.431464 -0.328938,-0.652526 z m -57.331235,0.0027 2.693001,6.354091 -6.765931,-0.545553 0.299519,-4.254781 z m -16.056383,0.04546 0.922627,0.3744 -0.291497,0.577645 10.531319,5.431465 1.72491,5.217522 -4.463374,3.209137 -11.710677,-1.794443 -0.117671,0.719381 -0.887862,-0.213943 1.676775,-7.241952 z m 57.333909,0 3.955261,1.59922 0.310218,4.070256 -6.875578,0.596364 z m 14.703196,0.508114 0.104294,0.20592 -10.108781,5.212173 -0.31824,-4.153158 3.655743,1.478877 z m -70.606364,0.0722 6.608148,2.674281 3.824221,-1.572476 -0.302194,4.292221 -10.197032,-5.26031 z m 30.208677,2.939036 2.331973,3.824222 -0.176503,0.109648 -0.879838,-0.06151 -0.807633,0.68729 -0.0722,0.0053 z m 10.285284,0.01872 -0.361028,4.463374 -0.208594,-0.01605 -0.673918,-0.564274 -1.056342,0.08022 -0.06151,-0.03744 z m -54.135469,0.85577 -0.02139,3.770736 -1.7596768,-1.294353 z m 97.926828,0 1.78107,2.476383 -1.75968,1.294353 z m -48.963418,0.754147 1.754328,2.438944 -1.345163,0.104295 -2.131401,-0.14976 z m 25.122194,0.914605 -1.722236,5.206824 -4.693362,-3.374943 -4.848472,6.605474 -3.166349,-1.010877 3.645045,-4.252107 2.909617,-1.232844 0.545554,-1.307724 z m -50.214972,0.08825 7.27137,0.588341 0.508114,1.198078 3.008566,1.254238 3.706553,4.268151 -3.259949,1.040296 -4.851145,-6.608148 -4.690689,3.374943 z m 42.422118,0.585667 -0.398467,0.952044 -1.986991,0.842398 1.470854,-1.716888 z m -34.688097,0.04012 1.029598,0.08291 1.417368,1.631311 -2.088612,-0.86914 z m 13.660226,1.040296 0.141738,0.01068 -0.307542,0.192548 -0.08022,0.0053 z m 7.487987,0.02941 0.106978,0.09093 -0.358353,-0.02674 -0.06686,-0.04012 z m -12.141235,0.01342 2.853457,0.944021 -1.040294,0.885187 -1.797117,1.120524 z m 16.703559,0 -0.01605,3.008566 -1.149942,-0.708685 -1.633985,-1.37458 z m -11.207912,0.01605 0.44393,0.03209 -0.561599,0.04279 z m 43.11208,0.160457 5.68018,2.364064 -4.3564,3.201115 z M 19.800201,48.69607 18.5005,54.304037 14.136074,51.097574 Z m 40.598259,0.05348 1.310397,0.0936 -1.44946,9.456257 -0.259405,0.505438 -0.259405,-0.505438 -1.438763,-9.3894 z m 1.858626,0.131035 1.155289,0.08291 1.264935,0.778217 -3.626326,7.025335 z m -4.506164,0.0722 1.198078,7.814249 -3.658417,-7.089519 0.978787,-0.61241 z m 6.549313,0.0722 0.13639,0.01068 0.336958,0.280799 z m -23.129855,0.272777 4.423261,6.02248 -7.116262,2.270464 -1.698168,-5.137294 z m 37.659223,0 4.391171,3.15565 -1.698169,5.137294 -7.116261,-2.270464 z m -67.271536,0.585667 1.604569,1.179357 -1.612592,0.681942 z m 96.883853,0.0027 0.008,1.762352 -1.53771,-0.641827 z m -53.619336,0.08291 4.385821,8.498864 0.08558,0.5616 -0.508114,-0.25673 -6.680353,-6.747212 1.601894,-1.361208 z m 10.322725,0.06151 1.789093,1.101804 1.00553,0.845072 -6.725816,6.795349 -0.510788,0.256731 0.08825,-0.5616 z m -18.591601,0.163132 4.134438,1.722236 -0.08022,0.195222 -0.743451,0.465325 -0.248707,1.02425 -0.05884,0.05081 z m 26.930008,0.04814 -2.91764,3.401685 -0.163132,-0.136389 -0.211267,-0.853096 -0.898558,-0.553576 -0.02941,-0.06953 z m 33.043424,1.048318 1.49492,0.623107 -3.2546,8.038889 3.30006,8.017494 -1.61527,0.684616 -4.49814,-3.302737 -0.87716,-5.351236 0.87716,-5.351236 z m -92.979408,0.05617 4.498141,3.302736 0.877164,5.351236 -0.877164,5.351236 -4.573021,3.358897 -1.494923,-0.623107 3.2546,-8.038889 -3.300063,-8.017493 z m 94.944998,0.502764 8.06831,8.151208 -7.99878,8.081677 -3.3482,-8.129814 z m -97.055006,0.06953 3.3482,8.129814 -3.278668,8.103447 -8.0683063,-8.151208 z m 39.868181,0.246034 -0.414514,0.35033 0.05081,-0.125695 z m 17.056563,0.16848 0.885187,0.743449 0.564274,1.371907 -7.057428,3.551445 z m -16.676815,0.05081 5.562505,5.615991 -7.124285,-3.583537 0.433233,-1.075061 z m 17.874893,0.363702 0.270103,0.16848 0.03477,0.139062 -0.275451,-0.232661 z m -19.214708,0.01605 -0.136389,0.33161 -0.05884,0.05081 0.07488,-0.307543 z m -14.031952,0.02407 1.815837,5.490299 7.806226,-2.49243 1.965597,2.676955 -5.447511,1.297026 -3.078098,-0.711358 -1.211448,0.738101 -6.303282,-3.797478 z m 47.374886,0.0027 4.375124,3.144955 -6.231074,3.797479 -1.115175,-0.671245 -3.171698,0.754147 -5.50367,-1.275631 2.021757,-2.75451 7.8089,2.49243 z m -13.759175,0.858444 0.104294,0.08825 0.106978,0.422537 z m -49.516986,0.633805 11.240003,1.722237 -2.182213,3.548771 -2.088614,-3.345525 -7.006615,-1.69817 z m 79.174762,0 0.02407,0.147086 -6.918366,1.719562 -2.168841,3.519354 -2.278488,-3.650393 z m 1.853277,0.114988 -0.63916,3.9098 -0.59101,-3.604932 z m -82.867945,0.09896 1.203428,0.291496 -0.577645,3.524702 z m 30.7783,0.20057 -0.318238,1.310398 -0.802285,1.978968 -1.743631,-2.374761 z m 21.354134,0.01605 2.807995,0.898558 -1.778397,2.422898 -0.516136,-1.254237 z m 28.973159,0.123012 0.845072,5.158687 -0.831701,5.089157 -6.814067,-1.646949 -2.107334,-3.377617 2.184888,-3.551445 z m -79.369984,0.08022 6.814068,1.647357 2.107333,3.377617 -2.184888,3.551445 -6.723142,1.671425 -0.845072,-5.158687 z m 29.606965,0.01068 8.544327,4.297569 0.401142,0.403817 -0.564272,0.0936 -9.368006,-1.532364 0.494741,-2.04315 z m 20.107918,0.0321 0.79961,1.944202 0.318239,1.275633 -9.437537,1.54306 -0.564274,-0.0936 0.401143,-0.403817 z m 18.005933,1.478878 2.257094,3.618302 -2.139425,3.476565 -5.91551,-3.559468 z m -56.175945,0.02941 5.91551,3.559468 -5.797841,3.5354 -2.257094,-3.618303 z m 39.418901,2.243722 0.280799,1.123197 -0.35033,1.441439 -7.798204,-1.275633 z m -22.474656,0.01342 7.798202,1.275632 -7.867734,1.289003 -0.2808,-1.123197 z m -0.433235,0.03743 -0.131035,0.54288 -0.0321,-0.136389 z m -0.649849,0.171154 0.05081,0.205921 -0.328936,0.812981 0.403816,0.978787 -0.01872,0.0722 -4.463375,-1.032272 z m 24.464321,0.06418 4.463375,1.032272 -4.356404,1.037622 -0.05081,-0.20592 0.328936,-0.812981 -0.403815,-0.978786 z m -32.733199,0.489394 2.107334,0.489393 -2.203607,0.524159 -0.788913,-0.473348 z m 41.205321,0.01342 0.788913,0.473348 -0.885187,0.540204 -2.107334,-0.489393 z m -8.653973,0.251382 0.120342,0.296845 -0.05348,0.131036 -0.08558,-0.350331 z m -24.060506,0.06953 0.08558,0.350331 -0.01872,0.07755 -0.120342,-0.296845 z m -5.482275,0.363703 5.50367,1.275631 -2.021756,2.754509 -7.8089,-2.492429 -1.815837,5.487624 -4.375124,-3.144954 6.231075,-3.797479 1.115175,0.671244 z m 39.381461,0.02941 6.303279,3.797479 -4.452677,3.201114 -1.815837,-5.490298 -7.806225,2.492429 -1.965597,-2.676955 5.44751,-1.297027 3.078097,0.71136 z m -23.53902,0.06418 0.564272,0.0936 -0.401142,0.403817 -8.482818,4.265479 -0.799611,-1.944203 -0.31824,-1.275632 z m 3.407033,0 9.368006,1.532363 -0.494741,2.04315 -0.492068,1.219472 -8.544328,-4.29757 -0.401143,-0.403816 z m -32.22776,0.05348 2.278487,3.650392 -11.341625,1.735608 -0.02407,-0.147085 6.918365,-1.719562 z m 61.053834,0.114988 2.088614,3.345525 7.006615,1.698169 -0.03744,0.227313 -11.240008,-1.722999 z m -18.762755,0.248708 0.0321,0.13639 -0.163132,0.40649 z m -12.470172,0.27545 -0.08825,0.5616 -4.353729,8.437356 -1.789094,-1.101803 -1.00553,-0.845074 6.725816,-6.795348 z m 1.409346,0 0.508114,0.256731 6.680353,6.747212 -1.601894,1.361208 -1.115175,0.694551 -4.385821,-8.498864 z m -0.70601,0.22464 0.259405,0.50544 1.438764,9.389399 -2.096636,0.160458 -1.310399,-0.0936 1.449461,-9.456257 z m 40.801498,0.492068 0.62579,3.816199 -1.20343,-0.291496 z m -81.603002,0.0053 0.591015,3.604932 -1.230168,0.304867 z m 29.06676,0.272777 0.516136,1.254238 0.513462,2.067219 -2.807995,-0.898559 z m 8.980234,0.03477 -5.607967,5.6668 -0.885186,-0.743449 -0.564273,-1.371906 z m 5.506345,0 7.124285,3.583536 -0.433233,1.07506 -1.128547,0.957393 z m 9.017675,0.01342 1.743632,2.374762 -2.864155,0.914604 0.318239,-1.310397 z m -33.292123,0.395795 7.116262,2.270464 -4.423261,6.02248 -4.391169,-3.155651 z m 43.045226,0 1.698169,5.137293 -4.391171,3.155651 -4.423259,-6.02248 z M 58.949,63.233565 57.742899,71.120019 56.58761,71.037109 55.322675,70.258894 Z m 2.101984,0 3.658416,7.089519 -0.978785,0.61241 -1.481553,0.112318 z m -29.37965,1.313072 4.4607,3.206462 -1.724912,5.220196 -10.528643,5.431465 0.328937,0.652525 -0.842399,0.347656 -2.901594,-6.851507 -1.575152,-6.610822 0.968089,-0.240685 0.104295,0.639152 z m 56.657315,0 11.710681,1.794442 0.11767,-0.719381 0.88786,0.213942 -1.676775,7.241952 -2.615446,6.279213 -0.922627,-0.3744 0.291497,-0.577645 -10.531319,-5.431465 -1.724911,-5.217521 z m -42.186781,0.310216 3.166348,1.010878 -3.645044,4.252107 -2.909618,1.232844 -0.545552,1.307723 -7.330206,0.633804 1.722238,-5.206824 4.693363,3.374942 z m 27.716248,0 4.851146,6.608149 4.690688,-3.374943 1.69282,5.115899 -7.27137,-0.588341 -0.508114,-1.198078 -3.008565,-1.254238 -3.706553,-4.268152 z m 27.641374,0.839724 4.36442,3.206463 -5.66413,2.401504 z m -83.079218,0.05884 1.323769,5.565178 -5.680172,-2.364063 z m 31.438847,0.08558 0.211268,0.510788 -0.104294,-0.08825 z m 20.58394,0.508114 3.003218,3.457844 -4.134439,-1.722236 0.08022,-0.195223 0.74345,-0.465325 0.248709,-1.024249 z m -21.009151,0.0081 0.163131,0.136389 0.211269,0.853095 0.898558,0.553576 0.02941,0.06953 -4.220015,1.789093 z m 20.415461,0.497416 -0.07488,0.307543 -0.120342,0.07488 0.136389,-0.331611 z m -19.714799,0.09093 0.275451,0.232662 0.02941,0.07488 -0.270102,-0.16848 z m 18.974023,0.540204 -0.05081,0.125696 -0.363702,0.224639 z m 39.341347,0.770193 -0.008,1.8613 -1.60457,-1.179358 z m -57.333909,0.0027 -0.01872,3.420405 -7.782158,2.572658 1.759678,5.506345 -5.388677,0.02674 2.807995,-6.733839 1.294351,-0.112319 2.12338,-2.47371 z m -39.565987,0.0936 1.537712,0.641828 -1.529689,1.120524 z m 57.333909,0.0027 5.169385,2.152795 2.072568,2.388133 1.414694,0.114988 2.86683,6.773954 -5.48495,-0.02941 1.759676,-5.506344 -7.782157,-2.572657 z m -17.219694,0.133719 1.14994,0.708684 1.633986,1.37458 -2.799972,0.925301 z m 16.671467,0.05884 0.01605,2.94973 -2.853458,-0.944021 1.040295,-0.885186 z m 37.915954,0.639152 2.18489,1.604568 -0.0241,4.939397 -2.88287,4.011422 -2.62347,0.01342 -3.380298,-5.543784 0.229987,-0.992158 0.647181,-1.553758 z m -92.572908,0.05081 5.99039,2.497779 0.395792,0.935997 0.390445,1.639335 -3.27332,5.444835 -2.709045,-0.01605 -2.88555,-4.008748 -0.02407,-4.939397 z m 41.547629,1.446785 0.473347,0.291497 -0.136389,-0.01068 z m -10.17029,0.141737 -1.470855,1.716888 -0.914604,0.07755 0.398468,-0.952045 z m 29.855671,0.04012 2.088614,0.869142 0.358354,0.845072 -1.029599,-0.08291 z m -9.803913,0.136389 3.246577,1.072387 0.04279,8.196672 5.781795,0.02941 -1.639335,5.131945 -5.538436,-4.749523 0.294171,-1.267609 -1.698168,-2.783927 z m -10.309353,0.02941 -0.44928,5.583899 -1.628636,2.706371 0.328936,1.37993 -5.559831,4.821728 -1.668751,-5.225545 5.781796,-0.02941 0.04279,-8.193996 z m -43.783328,0.160456 0.02139,3.770736 -1.7810709,-2.476383 z m 97.969612,0 1.75968,1.294353 -1.78107,2.476383 z m -44.267376,0.08022 0.395793,4.564997 -2.331973,-3.824221 0.176502,-0.109648 0.87984,0.06151 0.807632,-0.68729 z m -0.772867,0.05884 -0.246035,0.208592 -0.141737,-0.01068 0.307543,-0.192548 z m -8.755597,0.02407 0.208595,0.01605 0.673919,0.564273 1.05634,-0.08022 0.06151,0.03744 -2.361391,3.925844 z m 7.784832,0.05081 -0.117672,0.07488 -0.443931,-0.03209 z m -6.870227,0.01342 0.358354,0.02674 0.06686,0.04012 -0.318239,0.02407 z m 3.487262,0.246033 2.131402,0.14976 -1.722237,2.393482 -1.754328,-2.438944 z m -1.922808,0.238011 1.995013,2.775904 -4.784288,6.656285 4.658598,3.420406 -4.343032,3.190417 -1.687472,-7.097541 0.984136,-0.853096 0.262079,-3.249251 z m 4.607787,0.07755 2.91764,4.781614 0.272777,3.147629 1.077734,0.925301 -1.663403,7.164399 -4.420585,-3.243904 4.661272,-3.423079 -4.784289,-6.653611 z m -11.181169,0.275451 -0.03744,7.469266 -5.410071,0.02674 -1.644682,-5.150664 z m 17.81071,0 7.092194,2.345345 -1.644683,5.150664 -5.410071,-0.02674 z m 9.097905,0.791587 6.76593,0.545552 -0.29952,4.254782 -3.773409,1.553757 z m -35.974428,0.04279 -2.610098,6.265841 -3.955262,-1.599221 -0.310217,-4.070255 z m 43.162895,0.291497 10.197032,5.26031 -0.06686,0.133719 -6.608148,-2.674281 -3.824221,1.572477 z m -50.471705,0.04814 0.318239,4.153158 -3.655742,-1.478877 -6.666983,2.743811 -0.104294,-0.20592 z m -13.887541,1.053666 2.246396,5.300425 -5.418093,-0.02674 z m 78.388522,0.01872 3.206465,5.254963 -5.407397,0.02674 z m -39.221003,0.644502 4.359078,6.067944 -4.359078,3.201113 -4.359078,-3.201113 z m -28.617481,1.398648 3.690509,1.492249 0.318238,4.158508 -4.458026,5.303098 -3.719925,-3.679811 -2.313253,-4.602437 z m 57.331235,0 6.420948,2.599402 -2.350692,4.674642 -3.661091,3.623652 -4.543603,-5.34054 0.278125,-3.968632 z m 19.696084,0.128366 -0.016,3.051355 -2.18489,0.01068 z m -96.816997,0.0053 2.198259,3.056703 -2.182214,-0.01068 z m 42.681524,0.863792 -0.181852,2.251744 -0.692638,0.601713 -0.238011,-1.005529 z m 11.403134,0.01068 1.179358,1.933505 -0.20592,0.89321 -0.786239,-0.67392 z m -30.179262,0.657872 3.990028,1.612592 -8.153882,8.07098 -0.106979,-0.106978 4.586392,-5.455533 z m 48.939341,0.09627 -0.278125,3.931193 4.669296,5.492972 -0.163132,0.163132 -8.081677,-8.001449 z m 11.207912,1.04297 1.174009,0.476021 -2.816017,2.786601 z m -71.253541,0.07488 1.604568,3.190417 -2.746486,-2.719744 z m -9.525789,0.861118 1.986991,0.01068 -0.901232,1.500271 z m 90.270358,0.0027 -1.0296,1.43074 -0.86647,-1.420043 z m -87.801997,0.01068 5.57855,0.02941 3.853639,3.816199 2.438944,4.843118 -1.727584,5.404728 -1.575152,0.374403 -2.091288,-8.415967 -7.38369,-4.546278 z m 27.914146,0 1.674099,5.238916 -5.327167,10.582135 0.64985,0.33428 -0.478696,0.77553 -6.375487,-3.837582 -5.158688,-4.420592 0.641828,-0.762164 0.459977,0.454627 8.418637,-8.335734 z m 57.513091,0 0.8424,1.382603 -7.356955,4.59174 -2.04315,8.426662 -1.71154,-0.39579 -1.698168,-5.316481 2.438944,-4.843118 3.853639,-3.8162 z m -28.013098,0.0027 5.498321,0.02674 8.418636,8.335734 0.51881,-0.513462 0.591017,0.692639 -5.618665,4.877882 -5.800515,3.540748 -0.526833,-0.84507 0.57497,-0.29684 -5.327168,-10.582131 z m -7.851689,0.834376 5.153338,4.417912 -2.746486,3.267971 -3.963284,-0.962742 z m -13.740456,0.01605 1.569804,6.602799 -4.139788,1.029599 -2.642189,-3.107515 z m 50.864823,0.754147 1.73829,11.338954 -11.221289,1.834551 2.069892,-8.544325 z m -88.058723,0.09895 7.487987,4.607786 2.110008,8.482818 -11.320231,-1.850599 z m 44.037385,3.08612 4.431283,3.2546 1.909438,11.691962 0.724729,-0.109674 0.06953,0.909254 -7.405083,0.64183 -6.781977,-0.54556 0.06953,-0.994834 0.641827,0.099 1.909436,-11.691968 z m -32.016492,0.256731 2.596728,2.569984 -0.815657,0.970767 z m 64.030309,0.0027 -1.735609,3.449822 -0.79961,-0.941347 z m -19.498183,0.280799 5.156014,10.250518 -0.133719,0.0696 -3.77341,-6.049226 -4.01677,-0.973442 z m -25.074057,0.09093 2.698349,3.174376 -3.826896,0.952041 -3.781432,6.137471 -0.203246,-0.10434 z m 7.616352,2.372087 -1.853276,11.320231 -0.147086,-0.0214 0.502764,-7.11091 -2.676955,-3.150301 z m 9.900188,0.09627 4.051535,0.981462 -2.537892,3.019266 0.550901,7.188463 -0.227313,0.0348 z m 25.266606,0.806437 1.650031,5.161361 -5.998411,-1.385279 z m -60.481538,0.09366 4.343032,3.725269 -5.987714,1.425384 z m 20.693586,0.152423 2.701024,3.174372 -0.489393,6.910349 -5.174733,-0.79159 -4.575695,-2.36139 3.674462,-5.971663 z m 19.014138,0.03478 4.054209,0.981466 3.66644,5.878075 -4.645226,2.40151 -5.09718,0.77821 -0.53753,-6.99057 z m 16.379971,3.904461 6.188286,1.433407 0.823677,2.580693 -2.922988,3.982004 -4.690689,1.55108 -2.128727,-1.52968 0.524158,-6.471779 0.772868,-0.671238 z m -51.562811,0.01369 0.87449,0.526839 1.278306,1.096454 0.550902,6.327351 -2.203608,1.58051 -4.685341,-1.54574 -2.925662,-3.984674 0.796935,-2.497789 z m 2.559287,1.540386 4.931375,2.968454 -4.399193,3.161004 z m 55.809569,0.02136 1.70619,0.39579 -1.101803,1.500274 z m -9.432189,0.0267 -0.492068,6.134808 -4.391169,-3.155654 z m -55.871078,0.06148 -0.577644,1.805144 -1.04297,-1.420047 z m 50.129396,1.759684 0.671245,1.07505 -3.920495,0.59904 z m -34.851229,0.0374 3.169024,1.63399 -3.8162,-0.58299 z m -15.660589,1.20075 2.233024,3.040674 -2.89892,-0.957404 z m 66.100202,0 0.663221,2.08059 -2.896245,0.957394 z m -51.105509,0.40114 5.361934,0.82101 4.819054,2.484404 1.778396,5.38868 -1.053666,1.23017 -6.640239,-5.58122 -8.643276,0.66055 -0.152434,-1.74898 z m 36.108141,0 4.607786,3.310764 -0.131036,1.61527 -8.651298,-0.61241 -6.605474,5.616 -1.152615,-1.32645 1.751654,-5.29776 4.819054,-2.484404 z m -29.056062,1.07774 3.61028,0.55358 -0.08825,1.264944 z m 22.006659,0 -3.439126,1.775734 -0.0936,-1.235534 z m -3.596909,1.901414 -1.700842,5.14533 -4.032817,-4.64792 z m -14.783425,0.0963 5.704241,0.45996 -4.006072,4.67466 z m -15.599081,0.45996 0.152434,1.74364 -1.7677,-0.58299 z m 46.024376,0.0561 1.53771,1.10448 -1.671425,0.55358 z m -23.327753,0.0561 1.668751,0.13377 4.16653,4.79767 -0.853096,2.57533 -4.701386,1.50294 -4.706734,-1.50562 -0.823678,-2.48976 4.225363,-4.92601 z m -29.080132,0.0482 3.575515,1.18471 -1.773049,1.27295 z m 58.719188,0 -1.805141,2.46034 -1.775722,-1.27563 z m -15.342351,1.04297 8.718156,0.61508 -5.257636,10.19169 -10.159594,-5.11055 z m -27.943561,0.0294 6.691051,5.62134 -10.24517,5.15602 -5.214848,-10.10611 z m 19.89665,4.28955 1.149941,1.32376 -1.775723,0.56696 z m -11.913922,0.0883 0.593691,1.80247 -1.679448,-0.53753 z m 1.449461,2.65022 3.596908,1.14726 -2.909618,0.93064 z m 8.985584,0 -0.68729,2.07523 -2.90427,-0.92797 z" />
  </g>
</svg>
