<?xml version="1.0" encoding="UTF-8" standalone="no"?>
<!-- Created with Inkscape (http://www.inkscape.org/) -->

<svg
   width="120"
   height="120"
   viewBox="0 0 120 120"
   version="1.1"
   id="svg1"
   inkscape:version="1.4 (86a8ad7, 2024-10-11)"
   sodipodi:docname="mand_12.svg"
   xmlns:inkscape="http://www.inkscape.org/namespaces/inkscape"
   xmlns:sodipodi="http://sodipodi.sourceforge.net/DTD/sodipodi-0.dtd"
   xmlns="http://www.w3.org/2000/svg"
   xmlns:svg="http://www.w3.org/2000/svg">
  <sodipodi:namedview
     id="namedview1"
     pagecolor="#ffffff"
     bordercolor="#000000"
     borderopacity="0.25"
     inkscape:showpageshadow="2"
     inkscape:pageopacity="0.0"
     inkscape:pagecheckerboard="0"
     inkscape:deskcolor="#d1d1d1"
     inkscape:document-units="px"
     inkscape:zoom="4.8625"
     inkscape:cx="59.948586"
     inkscape:cy="59.948586"
     inkscape:window-width="3440"
     inkscape:window-height="1369"
     inkscape:window-x="-8"
     inkscape:window-y="-8"
     inkscape:window-maximized="1"
     inkscape:current-layer="layer1" />
  <defs
     id="defs1">
    <inkscape:path-effect
       effect="copy_rotate"
       starting_point="0,0"
       origin="53.470438,21.079691"
       id="path-effect1"
       is_visible="true"
       lpeversion="1.2"
       lpesatellites=""
       method="normal"
       num_copies="10"
       starting_angle="0"
       rotation_angle="36"
       gap="0.59"
       copies_to_360="true"
       mirror_copies="false"
       split_items="false"
       link_styles="false" />
  </defs>
  <g
     inkscape:label="Layer 1"
     inkscape:groupmode="layer"
     id="layer1">
    <path
       style="fill:none;stroke:#0000ff"
       id="path1"
       inkscape:path-effect="#path-effect1"
       sodipodi:type="arc"
       sodipodi:cx="58.200516"
       sodipodi:cy="21.079691"
       sodipodi:rx="4.7300773"
       sodipodi:ry="14.190231"
       d="m 62.930593,21.079691 c 0,7.837048 -2.117728,14.190231 -4.730077,14.190231 -2.61235,0 -4.730078,-6.353183 -4.730078,-14.190231 0,-7.837048 2.117728,-14.1902314 4.730078,-14.1902314 2.612349,0 4.730077,6.3531834 4.730077,14.1902314 z m -1.806729,-5.56054 c 4.606502,6.340306 6.627531,12.724908 4.514096,14.260408 C 63.524525,31.31506 58.07694,27.419996 53.470438,21.079691 48.863937,14.739385 46.842907,8.3547832 48.956343,6.8192827 51.069778,5.2837822 56.517363,9.178846 61.123864,15.519151 Z m -4.730077,-3.436602 c 7.453476,2.421781 12.841298,6.399101 12.034037,8.883593 -0.80726,2.484492 -7.50391,2.53533 -14.957386,0.113549 C 46.016962,18.657909 40.62914,14.680589 41.4364,12.196097 42.243661,9.711605 48.940311,9.6607678 56.393787,12.082549 Z m -5.846698,0 c 7.453476,-2.4217812 14.150126,-2.3709439 14.957386,0.113548 0.807261,2.484492 -4.580561,6.461812 -12.034037,8.883594 -7.453476,2.421781 -14.150126,2.370943 -14.957386,-0.113549 -0.807261,-2.484492 4.580561,-6.461812 12.034037,-8.883593 z m -4.730077,3.436602 C 50.423513,9.1788461 55.871098,5.2837823 57.984533,6.8192828 c 2.113436,1.5355006 0.09241,7.9201022 -4.514095,14.2604082 -4.606502,6.340305 -10.054087,10.235369 -12.167522,8.699868 -2.113435,-1.5355 -0.09241,-7.920102 4.514096,-14.260408 z m -1.806729,5.56054 c 0,-7.837048 2.117728,-14.1902313 4.730077,-14.1902313 2.61235,0 4.730078,6.3531833 4.730078,14.1902313 0,7.837048 -2.117728,14.190231 -4.730078,14.190231 -2.612349,0 -4.730077,-6.353183 -4.730077,-14.190231 z m 1.806729,5.56054 C 41.21051,20.299925 39.189481,13.915323 41.302916,12.379823 c 2.113435,-1.535501 7.56102,2.359563 12.167522,8.699868 4.606501,6.340306 6.627531,12.724908 4.514095,14.260408 -2.113435,1.535501 -7.56102,-2.359563 -12.167521,-8.699868 z m 4.730077,3.436602 C 43.093613,27.655052 37.705791,23.677732 38.513052,21.19324 c 0.80726,-2.484492 7.50391,-2.53533 14.957386,-0.113549 7.453476,2.421782 12.841298,6.399102 12.034038,8.883594 -0.807261,2.484492 -7.503911,2.535329 -14.957387,0.113548 z m 5.846698,0 c -7.453476,2.421781 -14.150126,2.370944 -14.957386,-0.113548 -0.807261,-2.484492 4.580561,-6.461812 12.034037,-8.883594 7.453476,-2.421781 14.150126,-2.370943 14.957386,0.113549 0.807261,2.484492 -4.580561,6.461812 -12.034037,8.883593 z m 4.730077,-3.436602 c -4.606501,6.340305 -10.054086,10.235369 -12.167521,8.699868 -2.113436,-1.5355 -0.09241,-7.920102 4.514095,-14.260408 4.606502,-6.340305 10.054087,-10.235369 12.167522,-8.699868 2.113435,1.5355 0.09241,7.920102 -4.514096,14.260408 z"
       transform="matrix(3.793149,0,0,3.793149,-142.82134,-19.958409)" />
  </g>
</svg>
