<?xml version="1.0" encoding="UTF-8" standalone="no"?>
<!-- Created with Inkscape (http://www.inkscape.org/) -->

<svg
   width="120"
   height="120"
   viewBox="0 0 120 120"
   version="1.1"
   id="svg1"
   inkscape:version="1.4 (86a8ad7, 2024-10-11)"
   sodipodi:docname="mand_40.svg"
   xmlns:inkscape="http://www.inkscape.org/namespaces/inkscape"
   xmlns:sodipodi="http://sodipodi.sourceforge.net/DTD/sodipodi-0.dtd"
   xmlns="http://www.w3.org/2000/svg"
   xmlns:svg="http://www.w3.org/2000/svg">
  <sodipodi:namedview
     id="namedview1"
     pagecolor="#ffffff"
     bordercolor="#000000"
     borderopacity="0.25"
     inkscape:showpageshadow="2"
     inkscape:pageopacity="0.0"
     inkscape:pagecheckerboard="0"
     inkscape:deskcolor="#d1d1d1"
     inkscape:document-units="px"
     inkscape:zoom="3.4383067"
     inkscape:cx="60.058632"
     inkscape:cy="60.058632"
     inkscape:window-width="3440"
     inkscape:window-height="1369"
     inkscape:window-x="-8"
     inkscape:window-y="-8"
     inkscape:window-maximized="1"
     inkscape:current-layer="layer1" />
  <defs
     id="defs1">
    <inkscape:path-effect
       effect="copy_rotate"
       starting_point="0,0"
       origin="35.850162,25.96401"
       id="path-effect2"
       is_visible="true"
       lpeversion="1.2"
       lpesatellites=""
       method="normal"
       num_copies="6"
       starting_angle="0"
       rotation_angle="60"
       gap="-0.01"
       copies_to_360="true"
       mirror_copies="false"
       split_items="false"
       link_styles="false" />
  </defs>
  <g
     inkscape:label="Layer 1"
     inkscape:groupmode="layer"
     id="layer1">
    <path
       id="path1"
       style="fill:#0000ff"
       d="m 58.457584,3.3565883 -6.572266,6.7421877 -9.414062,-0.1210937 0.11914,9.4140617 -6.740234,6.572266 6.740234,6.572266 -0.11914,9.414062 9.414062,-0.11914 6.572266,6.740234 6.572266,-6.740234 9.414062,0.11914 -0.121094,-9.414062 6.742188,-6.572266 -6.742188,-6.572266 0.121094,-9.4140617 -9.414062,0.1210937 z m 0,0.716797 6.363281,6.5273437 9.115235,-0.115235 -0.115235,9.115235 6.527344,6.363281 -6.527344,6.363281 0.115235,9.115235 -9.115235,-0.115235 -6.363281,6.529297 -6.363281,-6.529297 -9.115235,0.115235 0.115235,-9.115235 -6.527344,-6.363281 6.527344,-6.363281 -0.115235,-9.115235 9.115235,0.115235 z m 0,9.6914057 -3.546875,3.638672 -5.078125,-0.06445 0.06445,5.078125 -3.638672,3.546875 3.638672,3.546875 -0.06445,5.078125 5.078125,-0.06445 3.546875,3.638672 3.546875,-3.638672 5.078125,0.06445 -0.06445,-5.078125 3.638672,-3.546875 -3.638672,-3.546875 0.06445,-5.078125 -5.078125,0.06445 z m -30.882313,-18.6830936 2.552773,9.0628432 -4.811901,8.0922704 8.212387,4.603852 2.321632,9.123347 9.061866,-2.551081 8.093247,4.810209 4.603853,-8.212386 9.123347,-2.321633 -2.551081,-9.0618661 4.810209,-8.09324683 -8.213364,-4.60216047 -2.320655,-9.1250396 -9.062843,2.552774 -8.09227,-4.811902 -4.602161,8.2133639 z m 0.620765,0.3583985 8.834486,-2.2470912 4.457821,-7.9516427 7.836408,4.657414 8.774435,-2.471205 2.24709,8.8344861 7.951643,4.45782107 -4.657414,7.83640753 2.472897,8.7754113 -8.836178,2.246115 -4.457821,7.951642 -7.836408,-4.657414 -8.774435,2.471206 -2.24709,-8.834487 -7.951643,-4.457821 4.657414,-7.8364073 z m 8.393003,4.84570283 1.377745,4.89101987 -2.594878,4.3655602 4.430011,2.4832472 1.252348,4.92462 4.891019,-1.377745 4.365561,2.594878 2.483247,-4.43001 4.92462,-1.252348 -1.377745,-4.8910201 2.594878,-4.3655603 -4.430011,-2.48324714 -1.252347,-4.92461986 -4.89102,1.3777449 -4.365561,-2.5948779 -2.483247,4.43001028 z M 4.9678495,17.689119 l 9.1250385,2.320656 4.602161,8.213363 8.093247,-4.810209 9.061866,2.551081 2.321632,-9.123347 8.212387,-4.603853 -4.810209,-8.0932464 2.551081,-9.0618664 -9.123347,-2.3216323 -4.603853,-8.2123869 -8.09227,4.811902 -9.062843,-2.552774 -2.320655,9.1250396 -8.2133639,4.60216032 4.8119012,8.09226998 z m 0.6207644,-0.358398 2.471205,-8.7744353 -4.657414,-7.83640753 7.9516431,-4.45782107 2.247091,-8.8344861 8.774434,2.471205 7.836408,-4.657414 4.457821,7.9516427 8.836178,2.2461145 -2.472897,8.7754115 4.657414,7.8364073 -7.951643,4.457821 -2.24709,8.834487 -8.774435,-2.471206 -7.836408,4.657414 -4.457821,-7.951642 z m 8.3930031,-4.845703 4.92462,1.252348 2.483247,4.43001 4.365561,-2.594878 4.89102,1.377745 1.252347,-4.92462 4.430011,-2.4832472 -2.594878,-4.3655602 1.377745,-4.89101987 -4.92462,-1.25234785 -2.483247,-4.43001028 -4.365561,2.5948779 -4.891019,-1.3777449 -1.252348,4.92461986 -4.430011,2.48324714 2.594878,4.3655603 z m -0.738877,36.086414 6.572266,-6.742188 9.414062,0.121094 -0.11914,-9.414062 6.740234,-6.572266 -6.740234,-6.572266 0.11914,-9.414062 -9.414062,0.11914 -6.572266,-6.740234 -6.572266,6.740234 -9.414062,-0.11914 0.121094,9.414062 -6.742188,6.572266 6.742188,6.572266 -0.121094,9.414062 9.414062,-0.121094 z m 0,-0.716797 -6.363281,-6.527344 -9.115235,0.115235 0.115235,-9.115235 -6.527344,-6.363281 6.527344,-6.363281 -0.115235,-9.115235 9.115235,0.115235 6.363281,-6.529297 6.363281,6.529297 9.115235,-0.115235 -0.115235,9.115235 6.527344,6.363281 -6.527344,6.363281 0.115235,9.115235 -9.115235,-0.115235 z m 0,-9.691406 3.546875,-3.638672 5.078125,0.06445 -0.06445,-5.078125 3.638672,-3.546875 -3.638672,-3.546875 0.06445,-5.078125 -5.078125,0.06445 -3.546875,-3.638672 -3.546875,3.638672 -5.078125,-0.06445 0.06445,5.078125 -3.638672,3.546875 3.638672,3.546875 -0.06445,5.078125 5.078125,-0.06445 z m 30.882313,18.683094 -2.552773,-9.062844 4.811901,-8.09227 -8.212387,-4.603852 -2.321632,-9.123347 -9.061866,2.551081 -8.093247,-4.810209 -4.603853,8.212386 -9.1233468,2.321633 2.5510809,9.061866 -4.8102093,8.093247 8.2133642,4.60216 2.320655,9.12504 9.062843,-2.552774 8.09227,4.811902 4.602161,-8.213364 z m -0.620765,-0.358399 -8.834486,2.247091 -4.457821,7.951643 -7.836408,-4.657414 -8.774435,2.471205 -2.24709,-8.834486 -7.9516431,-4.457821 4.657414,-7.836408 -2.4728966,-8.775411 8.8361777,-2.246115 4.457821,-7.951642 7.836408,4.657414 8.774434,-2.471206 2.247091,8.834487 7.951643,4.457821 -4.657414,7.836407 z m -8.393003,-4.845703 -1.377745,-4.89102 2.594878,-4.36556 -4.430011,-2.483247 -1.252348,-4.92462 -4.891019,1.377745 -4.365561,-2.594878 -2.483247,4.43001 -4.92462,1.252348 1.377745,4.89102 -2.594878,4.36556 4.430011,2.483248 1.252347,4.924619 4.89102,-1.377744 4.365561,2.594877 2.483247,-4.43001 z m 31.62119,-17.40332 -9.125039,-2.320656 -4.602161,-8.213363 -8.093247,4.810209 -9.061866,-2.551081 -2.321632,9.123347 -8.212387,4.603853 4.810209,8.093246 -2.551081,9.061867 9.123347,2.321632 4.603853,8.212387 8.09227,-4.811902 9.062843,2.552774 2.320655,-9.12504 8.213364,-4.60216 -4.811901,-8.09227 z m -0.620765,0.358398 -2.471205,8.774435 4.657414,7.836408 -7.951643,4.457821 -2.247091,8.834486 -8.774434,-2.471205 -7.836408,4.657414 -4.457821,-7.951643 -8.836178,-2.246114 2.472897,-8.775412 -4.657414,-7.836407 7.951643,-4.457821 2.24709,-8.834487 8.774435,2.471206 7.836408,-4.657414 4.457821,7.951642 z m -8.393003,4.845703 -4.92462,-1.252348 -2.483247,-4.43001 -4.365561,2.594878 -4.89102,-1.377745 -1.252347,4.92462 -4.430011,2.483247 2.594878,4.36556 -1.377745,4.89102 4.92462,1.252348 2.483247,4.43001 4.365561,-2.594877 4.891019,1.377744 1.252348,-4.924619 4.430011,-2.483248 -2.594878,-4.36556 z"
       inkscape:path-effect="#path-effect2"
       inkscape:original-d="m 58.457584,3.3565883 -6.572266,6.7421877 -9.414062,-0.1210937 0.11914,9.4140617 -6.740234,6.572266 6.740234,6.572266 -0.11914,9.414062 9.414062,-0.11914 6.572266,6.740234 6.572266,-6.740234 9.414062,0.11914 -0.121094,-9.414062 6.742188,-6.572266 -6.742188,-6.572266 0.121094,-9.4140617 -9.414062,0.1210937 z m 0,0.716797 6.363281,6.5273437 9.115235,-0.115235 -0.115235,9.115235 6.527344,6.363281 -6.527344,6.363281 0.115235,9.115235 -9.115235,-0.115235 -6.363281,6.529297 -6.363281,-6.529297 -9.115235,0.115235 0.115235,-9.115235 -6.527344,-6.363281 6.527344,-6.363281 -0.115235,-9.115235 9.115235,0.115235 z m 0,9.6914057 -3.546875,3.638672 -5.078125,-0.06445 0.06445,5.078125 -3.638672,3.546875 3.638672,3.546875 -0.06445,5.078125 5.078125,-0.06445 3.546875,3.638672 3.546875,-3.638672 5.078125,0.06445 -0.06445,-5.078125 3.638672,-3.546875 -3.638672,-3.546875 0.06445,-5.078125 -5.078125,0.06445 z"
       transform="matrix(1.1887379,0,0,1.1887379,17.383554,29.135597)" />
  </g>
</svg>
