<?xml version="1.0" encoding="UTF-8" standalone="no"?>
<!-- Created with Inkscape (http://www.inkscape.org/) -->

<svg
   width="120"
   height="120"
   viewBox="0 0 120 120"
   version="1.1"
   id="svg1"
   inkscape:version="1.4 (86a8ad7, 2024-10-11)"
   sodipodi:docname="mand_16.svg"
   xmlns:inkscape="http://www.inkscape.org/namespaces/inkscape"
   xmlns:sodipodi="http://sodipodi.sourceforge.net/DTD/sodipodi-0.dtd"
   xmlns="http://www.w3.org/2000/svg"
   xmlns:svg="http://www.w3.org/2000/svg">
  <sodipodi:namedview
     id="namedview1"
     pagecolor="#ffffff"
     bordercolor="#000000"
     borderopacity="0.25"
     inkscape:showpageshadow="2"
     inkscape:pageopacity="0.0"
     inkscape:pagecheckerboard="0"
     inkscape:deskcolor="#d1d1d1"
     inkscape:document-units="px"
     inkscape:zoom="4.8625"
     inkscape:cx="59.948586"
     inkscape:cy="59.948586"
     inkscape:window-width="3440"
     inkscape:window-height="1369"
     inkscape:window-x="-8"
     inkscape:window-y="-8"
     inkscape:window-maximized="1"
     inkscape:current-layer="layer1" />
  <defs
     id="defs1">
    <inkscape:path-effect
       effect="copy_rotate"
       starting_point="0,0"
       origin="45,45"
       id="path-effect1"
       is_visible="true"
       lpeversion="1.2"
       lpesatellites=""
       method="normal"
       num_copies="32"
       starting_angle="0"
       rotation_angle="60"
       gap="-0.01"
       copies_to_360="true"
       mirror_copies="false"
       split_items="false"
       link_styles="false" />
  </defs>
  <g
     inkscape:label="Layer 1"
     inkscape:groupmode="layer"
     id="layer1">
    <path
       sodipodi:type="star"
       style="fill:none;stroke:#0000ff"
       id="path1"
       inkscape:flatsided="false"
       sodipodi:sides="7"
       sodipodi:cx="55.526993"
       sodipodi:cy="15.115681"
       sodipodi:r1="12.319607"
       sodipodi:r2="9.4571838"
       sodipodi:arg1="0.78539816"
       sodipodi:arg2="1.2341971"
       inkscape:rounded="0"
       inkscape:randomized="0"
       d="m 64.23827,23.826958 -5.587767,0.215201 -4.502868,3.315665 -3.652167,-4.234517 -5.399784,-1.4532 1.03359,-5.495558 -2.230553,-5.127776 4.941033,-2.618331 2.618331,-4.9410328 5.127776,2.2305524 5.495558,-1.0335901 1.4532,5.3997835 4.234517,3.652167 -3.315665,4.502868 z m -4.500313,-3.346366 -5.438417,1.301185 -3.769492,4.130422 -4.408105,-3.44065 -5.579534,-0.371832 -0.0584,-5.591605 -3.188073,-4.594089 4.335281,-3.5319676 1.604073,-5.3569032 5.464407,1.1873134 5.188318,-2.0858601 2.478723,5.0125233 4.865655,2.7558782 -2.37349,5.063201 z m -5.066685,-2.404099 -5.080071,2.337165 -2.891257,4.786449 -4.994642,-2.51456 -5.544865,0.723826 -1.148146,-5.472771 -4.023077,-3.883853 3.562927,-4.3098731 0.52817,-5.5669108 5.591044,0.098446 4.681695,-3.0579716 3.40899,4.4326342 5.309808,1.7536826 -1.340103,5.4289582 z m -5.438347,-1.369444 -4.526499,3.28333 -1.901913,5.258535 -5.389238,-1.491838 -5.297111,1.791668 -2.193769,-5.143621 -4.703477,-3.024362 2.653652,-4.922153 -0.568029,-5.5629853 5.502819,-0.9942036 3.995157,-3.9125669 4.208252,3.6824014 5.549907,0.684094 -0.255215,5.5860834 z m -5.601015,-0.282162 -3.798979,4.103318 -0.839479,5.528539 -5.576727,-0.411784 -4.845792,2.790656 -3.155087,-4.616805 -5.203125,-2.048647 1.642398,-5.345277 -1.642398,-5.345277 5.203124,-2.0486468 3.155088,-4.6168045 4.845791,2.790656 5.576728,-0.411784 0.839479,5.5285383 z m -5.548441,0.815964 -2.925464,4.765618 0.255216,5.586083 -5.549908,0.684094 -4.208251,3.682402 -3.995157,-3.912567 -5.50282,-0.994204 0.568029,-5.562985 -2.653652,-4.922153 4.703476,-3.024362 2.19377,-5.1436207 5.297111,1.7916677 5.389238,-1.4918378 1.901912,5.2585348 z m -5.282642,1.882732 -1.939526,5.244778 1.340102,5.428958 -5.309807,1.753683 -3.40899,4.432634 -4.681695,-3.057971 -5.591044,0.09845 -0.528171,-5.56691 -3.562927,-4.309874 4.023077,-3.883852 1.148146,-5.472771 5.544866,0.723825 4.994641,-2.51456 2.891258,4.786449 z m -4.813834,2.877149 -0.879054,5.522384 2.37349,5.063201 -4.865655,2.755878 -2.478723,5.012524 -5.188318,-2.085861 -5.464408,1.187314 -1.604072,-5.356903 -4.3352812,-3.531968 3.1880726,-4.594089 0.0584,-5.591605 5.5795335,-0.371832 4.408105,-3.44065 3.769493,4.130422 z m -4.160035,3.760998 0.215201,5.587767 3.315665,4.502868 -4.234517,3.652167 -1.4532,5.399784 -5.495558,-1.03359 -5.127776,2.230553 -2.618331,-4.941033 -4.9410328,-2.618331 2.2305524,-5.127776 -1.0335901,-5.495558 5.3997835,-1.4532 3.652167,-4.234517 4.502868,3.315665 z m -3.346366,4.500313 1.301185,5.438417 4.130422,3.769492 -3.44065,4.408105 -0.371832,5.579534 -5.591605,0.0584 -4.594089,3.188073 L 8.3820554,48.368783 3.0251522,46.76471 4.2124656,41.300303 2.1266055,36.111985 7.1391288,33.633262 9.895007,28.767607 l 5.063201,2.37349 z m -2.404099,5.066685 2.337165,5.080071 4.786449,2.891257 -2.51456,4.994642 0.723826,5.544865 -5.472771,1.148146 -3.883853,4.023077 L 9.7428759,55.447859 4.1759651,54.919689 4.2744116,49.328645 1.21644,44.64695 5.6490742,41.23796 7.4027568,35.928152 12.831715,37.268255 Z m -1.369444,5.438347 3.28333,4.526499 5.258535,1.901913 -1.491838,5.389238 1.791668,5.297111 -5.143621,2.193769 -3.024362,4.703477 -4.922153,-2.653652 -5.5629853,0.568029 -0.9942036,-5.502819 -3.9125669,-3.995157 3.6824014,-4.208252 0.684094,-5.549907 5.5860834,0.255215 z m -0.282162,5.601015 4.103318,3.798979 5.528539,0.839479 -0.411784,5.576727 2.790656,4.845792 -4.616805,3.155087 -2.048647,5.203125 -5.345277,-1.642398 -5.345277,1.642398 -2.0486468,-5.203124 -4.6168045,-3.155088 2.790656,-4.845791 -0.411784,-5.576728 5.5285383,-0.839479 z m 0.815964,5.548441 4.765618,2.925464 5.586083,-0.255216 0.684094,5.549908 3.682402,4.208251 -3.912567,3.995157 -0.994204,5.50282 -5.562985,-0.568029 -4.922153,2.653652 -3.024362,-4.703476 -5.1436207,-2.19377 1.7916677,-5.297111 -1.4918378,-5.389238 5.2585348,-1.901912 z m 1.882732,5.282642 5.244778,1.939526 5.428958,-1.340102 1.753683,5.309807 4.432634,3.40899 -3.057971,4.681695 0.09845,5.591044 -5.56691,0.528171 -4.309874,3.562927 -3.883852,-4.023077 -5.472771,-1.148146 0.723825,-5.544866 -2.51456,-4.994641 4.786449,-2.891258 z m 2.877149,4.813834 5.522384,0.879054 5.063201,-2.37349 2.755878,4.865655 5.012524,2.478723 -2.085861,5.188318 1.187314,5.464408 -5.356903,1.604072 -3.531968,4.335281 -4.594089,-3.188072 -5.591605,-0.0584 -0.371832,-5.579534 -3.44065,-4.408105 4.130422,-3.769493 z m 3.760998,4.160035 5.587767,-0.215201 4.502868,-3.315665 3.652167,4.234517 5.399784,1.4532 -1.03359,5.495558 2.230553,5.127776 -4.941033,2.618331 -2.618331,4.941033 -5.127776,-2.230553 -5.495558,1.033591 -1.4532,-5.399784 -4.234517,-3.652167 3.315665,-4.502868 z m 4.500313,3.346366 5.438417,-1.301185 3.769492,-4.130422 4.408105,3.44065 5.579534,0.371832 0.0584,5.591605 3.188073,4.594089 -4.335281,3.531968 -1.604073,5.356903 -5.464407,-1.187314 -5.188318,2.08586 -2.478723,-5.012523 -4.865655,-2.755878 2.37349,-5.063201 z m 5.066685,2.404099 5.080071,-2.337165 2.891257,-4.786449 4.994642,2.51456 5.544865,-0.723826 1.148146,5.472771 4.023077,3.883853 -3.562927,4.309873 -0.52817,5.566911 -5.591044,-0.09845 -4.681695,3.057972 -3.40899,-4.432634 -5.309808,-1.753683 1.340103,-5.428958 z m 5.438347,1.369444 4.526499,-3.28333 1.901913,-5.258535 5.389238,1.491838 5.297111,-1.791668 2.193769,5.143621 4.703477,3.024362 -2.653652,4.922153 0.568029,5.562985 -5.502819,0.994204 -3.995157,3.912567 -4.208252,-3.682402 -5.549907,-0.684094 0.255215,-5.586083 z m 5.601015,0.282162 3.798979,-4.103318 0.839479,-5.528539 5.576727,0.411784 4.845792,-2.790656 3.155087,4.616805 5.203125,2.048647 -1.642398,5.345277 1.642398,5.345277 -5.203124,2.048647 -3.155088,4.616804 -4.845791,-2.790656 -5.576728,0.411784 -0.839479,-5.528538 z m 5.548441,-0.815964 2.925464,-4.765618 -0.255216,-5.586083 5.549908,-0.684094 4.208251,-3.682402 3.995157,3.912567 5.50282,0.994204 -0.568029,5.562985 2.653652,4.922153 -4.703476,3.024362 -2.19377,5.143621 -5.297111,-1.791668 -5.389238,1.491838 -1.901912,-5.258535 z m 5.282642,-1.882732 1.939526,-5.244778 -1.340102,-5.428958 5.309807,-1.753683 3.40899,-4.432634 4.681695,3.057971 5.591044,-0.09845 0.528171,5.56691 3.562927,4.309874 -4.023077,3.883852 -1.148146,5.472771 -5.544866,-0.723825 -4.994641,2.51456 -2.891258,-4.786449 z m 4.813834,-2.877149 0.879054,-5.522384 -2.37349,-5.063201 4.865655,-2.755878 2.478723,-5.012524 5.188318,2.085861 5.464408,-1.187314 1.604072,5.356903 4.335281,3.531968 -3.188072,4.594089 -0.0584,5.591605 -5.579534,0.371832 -4.408105,3.44065 -3.769493,-4.130422 z m 4.160035,-3.760998 -0.215201,-5.587767 -3.315665,-4.502868 4.234517,-3.652167 1.4532,-5.399784 5.495558,1.03359 5.127776,-2.230553 2.618331,4.941033 4.941033,2.618331 -2.230553,5.127776 1.033591,5.495558 -5.399784,1.4532 -3.652167,4.234517 -4.502868,-3.315665 z m 3.346366,-4.500313 -1.301185,-5.438417 -4.130422,-3.769492 3.44065,-4.408105 0.371832,-5.579534 5.591605,-0.0584 4.594089,-3.188073 3.531968,4.335281 5.356903,1.604073 -1.187314,5.464407 2.08586,5.188318 -5.012523,2.478723 -2.755878,4.865655 -5.063201,-2.37349 z m 2.404099,-5.066685 -2.337165,-5.080071 -4.786449,-2.891257 2.51456,-4.994642 -0.723826,-5.544865 5.472771,-1.148146 3.883853,-4.023077 4.309873,3.562927 5.566911,0.52817 -0.09845,5.591044 3.057972,4.681695 -4.432634,3.40899 -1.753683,5.309808 -5.428958,-1.340103 z m 1.369444,-5.438347 -3.28333,-4.526499 -5.258535,-1.901913 1.491838,-5.389238 -1.791668,-5.297111 5.143621,-2.193769 3.024362,-4.703477 4.922153,2.653652 5.562985,-0.568029 0.994204,5.502819 3.912567,3.995157 -3.682402,4.208252 -0.684094,5.549907 -5.586083,-0.255215 z m 0.282162,-5.601015 -4.103318,-3.798979 -5.528539,-0.839479 0.411784,-5.576727 -2.790656,-4.845792 4.616805,-3.155087 2.048647,-5.203125 5.345277,1.642398 5.345277,-1.642398 2.048647,5.203124 4.616804,3.155088 -2.790656,4.845791 0.411784,5.576728 -5.528538,0.839479 z m -0.815964,-5.548441 -4.765618,-2.925464 -5.586083,0.255216 -0.684094,-5.549908 -3.682402,-4.208251 3.912567,-3.995157 0.994204,-5.50282 5.562985,0.568029 4.922153,-2.653652 3.024362,4.703476 5.143621,2.19377 -1.791668,5.297111 1.491838,5.389238 -5.258535,1.901912 z m -1.882732,-5.282642 -5.244778,-1.939526 -5.428958,1.340102 -1.753683,-5.309807 -4.432634,-3.40899 3.057971,-4.681695 -0.09845,-5.591044 5.56691,-0.528171 4.309874,-3.562927 3.883852,4.023077 5.472771,1.148146 -0.723825,5.544866 2.51456,4.994641 -4.786449,2.891258 z m -2.877149,-4.813834 -5.522384,-0.879054 -5.063201,2.37349 -2.755878,-4.865655 -5.012524,-2.478723 2.085861,-5.188318 -1.187314,-5.464408 5.356903,-1.604072 3.531968,-4.3352812 4.594089,3.1880726 5.591605,0.0584 0.371832,5.5795335 3.44065,4.408105 -4.130422,3.769493 z"
       inkscape:path-effect="#path-effect1"
       transform="matrix(1.3030107,0,0,1.3030107,1.3645185,1.3645185)" />
  </g>
</svg>
