<?xml version="1.0" encoding="UTF-8" standalone="no"?>
<!-- Created with Inkscape (http://www.inkscape.org/) -->

<svg
   width="120"
   height="120"
   viewBox="0 0 120 120"
   version="1.1"
   id="svg1"
   inkscape:version="1.4 (86a8ad7, 2024-10-11)"
   sodipodi:docname="mand_46.svg"
   xmlns:inkscape="http://www.inkscape.org/namespaces/inkscape"
   xmlns:sodipodi="http://sodipodi.sourceforge.net/DTD/sodipodi-0.dtd"
   xmlns="http://www.w3.org/2000/svg"
   xmlns:svg="http://www.w3.org/2000/svg">
  <sodipodi:namedview
     id="namedview1"
     pagecolor="#ffffff"
     bordercolor="#000000"
     borderopacity="0.25"
     inkscape:showpageshadow="2"
     inkscape:pageopacity="0.0"
     inkscape:pagecheckerboard="0"
     inkscape:deskcolor="#d1d1d1"
     inkscape:document-units="px"
     inkscape:zoom="6.8766134"
     inkscape:cx="59.985922"
     inkscape:cy="56.495832"
     inkscape:window-width="3440"
     inkscape:window-height="1369"
     inkscape:window-x="-8"
     inkscape:window-y="-8"
     inkscape:window-maximized="1"
     inkscape:current-layer="layer1" />
  <defs
     id="defs1">
    <inkscape:path-effect
       effect="copy_rotate"
       starting_point="0,0"
       origin="39.933594,20.94043"
       id="path-effect3"
       is_visible="true"
       lpeversion="1.2"
       lpesatellites=""
       method="normal"
       num_copies="8"
       starting_angle="0"
       rotation_angle="45"
       gap="-0.01"
       copies_to_360="true"
       mirror_copies="false"
       split_items="false"
       link_styles="false" />
  </defs>
  <g
     inkscape:label="Layer 1"
     inkscape:groupmode="layer"
     id="layer1">
    <path
       id="path1"
       style="fill:#0000ff"
       d="m 56.714844,4.1601562 -4.878906,5.0039063 -6.988282,-0.089844 0.08984,6.9882815 -5.003906,4.878906 5.003906,4.876953 -0.08984,6.988282 6.988282,-0.08984 4.878906,5.003906 4.876953,-5.003906 6.988281,0.08984 -0.08984,-6.988282 5.003907,-4.876953 -5.003907,-4.878906 0.08984,-6.9882815 -6.988281,0.089844 z m 0,0.7167969 4.667968,4.7890625 6.689454,-0.083984 -0.08398,6.6894524 4.789063,4.669922 -4.789063,4.667969 0.08398,6.689453 -6.689454,-0.08398 -4.667968,4.789062 -4.669922,-4.789062 2.595703,-0.0332 2.21875,2.277343 2.21875,-2.277343 3.179687,0.04102 -0.04102,-3.179687 2.277344,-2.21875 -2.277344,-2.21875 0.04102,-3.179688 -3.179687,0.04102 -2.21875,-2.277344 -2.21875,2.277344 -3.179687,-0.04102 0.04102,3.179688 -2.277344,2.21875 2.277344,2.21875 -0.04102,3.179687 -6.105469,0.07617 0.08398,-6.689453 -4.789062,-4.667969 4.789062,-4.669922 -0.08398,-6.6894524 6.689453,0.083984 z m -16.78056,-7.6681042 0.08839,6.9882036 -5.004991,4.8779323 5.004988,4.8779352 -0.08839,6.988203 6.986823,-0.08977 4.877935,5.004988 4.877935,-5.004988 6.988203,0.08839 -0.08977,-6.986822 5.004987,-4.8779348 -5.004988,-4.8779351 0.08977,-6.9868232 -6.988204,0.088389 -4.877935,-5.0049877 -4.877931,5.0049902 z m 0.506852,0.506852 6.687131,0.085627 4.670772,-4.7895439 4.670775,4.78954 6.688512,-0.084245 -0.08563,6.6871314 4.78954,4.6707748 -4.789541,4.6707755 0.08563,6.68713 -6.688511,-0.08424 1.811963,-1.858915 3.179218,0.04143 -0.04143,-3.179218 2.277384,-2.219373 -2.277384,-2.219373 0.04143,-3.1792182 -3.179218,0.041432 -2.219374,-2.2773845 -2.219372,2.2773838 -3.179219,-0.041432 0.04143,3.1792189 -2.277383,2.219372 2.277384,2.219374 -0.04143,3.179218 3.179218,-0.04143 2.219373,2.277384 -4.263358,4.371079 -4.670775,-4.789541 -6.687131,0.08563 0.08425,-6.688512 -4.78954,-4.670774 4.789543,-4.670772 z M 23.15332,4.15918 l 5.003906,4.878906 -0.08984,6.988282 6.988282,-0.08984 4.878906,5.003906 4.876953,-5.003906 6.988282,0.08984 -0.08984,-6.988282 5.003906,-4.878906 -5.003906,-4.876953 0.08984,-6.988281 -6.988282,0.08984 -4.876953,-5.003907 -4.878906,5.003907 -6.988282,-0.08984 0.08984,6.988281 z m 0.716797,0 4.789063,-4.667968 -0.08398,-6.689454 6.689452,0.08398 4.669922,-4.789063 4.667969,4.789063 6.689453,-0.08398 -0.08398,6.689454 4.789062,4.667968 -4.789062,4.669922 -0.0332,-2.595703 2.277343,-2.21875 -2.277343,-2.21875 0.04102,-3.179687 -3.179687,0.04102 -2.21875,-2.277344 -2.21875,2.277344 -3.179688,-0.04102 0.04102,3.179687 -2.277344,2.21875 2.277344,2.21875 -0.04102,3.179687 3.179688,-0.04102 2.21875,2.277344 2.21875,-2.277344 3.179687,0.04102 0.07617,6.105469 -6.689453,-0.08398 -4.667969,4.789062 -4.669922,-4.789062 -6.689452,0.08398 0.08398,-6.689453 z m -7.668104,16.78056 6.988204,-0.08839 4.877932,5.004991 4.877935,-5.004988 6.988203,0.08839 -0.08977,-6.986823 5.004988,-4.8779348 -5.004988,-4.8779351 0.08839,-6.9882034 -6.986822,0.089769 -4.877935,-5.0049874 -4.877935,5.0049881 -6.986823,-0.08977 0.08839,6.9882041 -5.004988,4.8779347 5.00499,4.8779315 z m 0.506852,-0.506852 0.08563,-6.687131 -4.789544,-4.6707723 4.78954,-4.6707743 -0.08425,-6.6885124 6.687132,0.085626 4.670774,-4.7895404 4.670776,4.7895411 6.68713,-0.085626 -0.08425,6.6885117 -1.858915,-1.8119632 0.04143,-3.17921788 -3.179218,0.0414315 -2.219373,-2.27738373 -2.219373,2.27738373 -3.179218,-0.0414322 0.04143,3.17921858 -2.277384,2.2193734 2.277383,2.2193727 -0.04143,3.1792187 3.179219,-0.04143 2.219372,2.277383 2.219374,-2.277384 3.179218,0.04143 -0.04143,-3.1792184 2.277384,-2.2193727 4.371079,4.2633582 -4.789541,4.6707749 0.08563,6.687131 -6.688512,-0.08425 -4.670774,4.78954 -4.670772,-4.789543 z m 6.443479,17.287816 4.878906,-5.003907 6.988282,0.08984 -0.08984,-6.988281 5.003906,-4.878906 -5.003906,-4.876953 0.08984,-6.988282 -6.988282,0.08984 -4.878906,-5.003906 -4.876953,5.003906 -6.988281,-0.08984 0.08984,6.988282 -5.003907,4.876953 5.003907,4.878906 -0.08984,6.988281 6.988281,-0.08984 z m 0,-0.716797 -4.667968,-4.789063 -6.689454,0.08398 0.08398,-6.689452 -4.789063,-4.669922 4.789063,-4.667969 -0.08398,-6.689453 6.689454,0.08398 4.667968,-4.789062 4.669922,4.789062 -2.595703,0.0332 -2.21875,-2.277343 -2.21875,2.277343 -3.179687,-0.04102 0.04102,3.179687 -2.277344,2.21875 2.277344,2.21875 -0.04102,3.179688 3.179687,-0.04102 2.21875,2.277344 2.21875,-2.277344 3.179687,0.04102 -0.04102,-3.179688 2.277344,-2.21875 -2.277344,-2.21875 0.04102,-3.179687 6.105469,-0.07617 -0.08398,6.689453 4.789062,4.667969 -4.789062,4.669922 0.08398,6.689452 -6.689453,-0.08398 z m 16.78056,7.668104 -0.08839,-6.988204 5.004991,-4.877932 -5.004988,-4.877935 0.08839,-6.988203 -6.986823,0.08977 -4.877935,-5.004988 -4.877935,5.004988 -6.988203,-0.08839 0.08977,6.986822 -5.004987,4.877935 5.004988,4.877935 -0.08977,6.986823 6.988204,-0.08839 4.877935,5.004988 4.877931,-5.00499 z m -0.506852,-0.506852 -6.687131,-0.08563 -4.670772,4.789544 -4.670775,-4.78954 -6.688512,0.08425 0.08563,-6.687132 -4.78954,-4.670774 4.789541,-4.670776 -0.08563,-6.68713 6.688511,0.08424 -1.811963,1.858915 -3.179218,-0.04143 0.04143,3.179218 -2.277384,2.219373 2.277384,2.219373 -0.04143,3.179218 3.179218,-0.04143 2.219374,2.277384 2.219372,-2.277383 3.179219,0.04143 -0.04143,-3.179219 2.277383,-2.219372 -2.277384,-2.219374 0.04143,-3.179218 -3.179218,0.04143 -2.219373,-2.277384 4.263358,-4.371079 4.670775,4.789541 6.687131,-0.08563 -0.08425,6.688512 4.78954,4.670774 -4.789543,4.670772 z m 17.287816,-6.443479 -5.003907,-4.878906 0.08984,-6.988282 -6.988281,0.08984 -4.878906,-5.003906 -4.876953,5.003906 -6.988282,-0.08984 0.08984,6.988282 -5.003906,4.878906 5.003906,4.876953 -0.08984,6.988281 6.988282,-0.08984 4.876953,5.003907 4.878906,-5.003907 6.988281,0.08984 -0.08984,-6.988281 z m -0.716797,0 -4.789063,4.667968 0.08398,6.689454 -6.689452,-0.08398 -4.669922,4.789063 -4.667969,-4.789063 -6.689453,0.08398 0.08398,-6.689454 -4.789062,-4.667968 4.789062,-4.669922 0.0332,2.595703 -2.277343,2.21875 2.277343,2.21875 -0.04102,3.179687 3.179687,-0.04102 2.21875,2.277344 2.21875,-2.277344 3.179688,0.04102 -0.04102,-3.179687 2.277344,-2.21875 -2.277344,-2.21875 0.04102,-3.179687 -3.179688,0.04102 -2.21875,-2.277344 -2.21875,2.277344 -3.179687,-0.04102 -0.07617,-6.105469 6.689453,0.08398 4.667969,-4.789062 4.669922,4.789062 6.689452,-0.08398 -0.08398,6.689453 z m 7.668104,-16.78056 -6.988204,0.08839 -4.877932,-5.004991 -4.877935,5.004988 -6.988203,-0.08839 0.08977,6.986823 -5.004988,4.877935 5.004988,4.877935 -0.08839,6.988203 6.986822,-0.08977 4.877935,5.004987 4.877935,-5.004988 6.986823,0.08977 -0.08839,-6.988204 5.004988,-4.877935 -5.00499,-4.877931 z m -0.506852,0.506852 -0.08563,6.687131 4.789544,4.670772 -4.78954,4.670775 0.08425,6.688512 -6.687132,-0.08563 -4.670774,4.78954 -4.670776,-4.789541 -6.68713,0.08563 0.08425,-6.688511 1.858915,1.811963 -0.04143,3.179218 3.179218,-0.04143 2.219373,2.277384 2.219373,-2.277384 3.179218,0.04143 -0.04143,-3.179218 2.277384,-2.219374 -2.277383,-2.219372 0.04143,-3.179219 -3.179219,0.04143 -2.219372,-2.277383 -2.219374,2.277384 -3.179218,-0.04143 0.04143,3.179218 -2.277384,2.219373 -4.371079,-4.263358 4.789541,-4.670775 -0.08563,-6.687131 6.688512,0.08424 4.670774,-4.78954 4.670772,4.789543 z"
       inkscape:path-effect="#path-effect3"
       inkscape:original-d="m 56.714844,4.1601562 -4.878906,5.0039063 -6.988282,-0.089844 0.08984,6.9882815 -5.003906,4.878906 5.003906,4.876953 -0.08984,6.988282 6.988282,-0.08984 4.878906,5.003906 4.876953,-5.003906 6.988281,0.08984 -0.08984,-6.988282 5.003907,-4.876953 -5.003907,-4.878906 0.08984,-6.9882815 -6.988281,0.089844 z m 0,0.7167969 4.667968,4.7890625 6.689454,-0.083984 -0.08398,6.6894524 4.789063,4.669922 -4.789063,4.667969 0.08398,6.689453 -6.689454,-0.08398 -4.667968,4.789062 -4.669922,-4.789062 2.595703,-0.0332 2.21875,2.277343 2.21875,-2.277343 3.179687,0.04102 -0.04102,-3.179687 2.277344,-2.21875 -2.277344,-2.21875 0.04102,-3.179688 -3.179687,0.04102 -2.21875,-2.277344 -2.21875,2.277344 -3.179687,-0.04102 0.04102,3.179688 -2.277344,2.21875 2.277344,2.21875 -0.04102,3.179687 -6.105469,0.07617 0.08398,-6.689453 -4.789062,-4.667969 4.789062,-4.669922 -0.08398,-6.6894524 6.689453,0.083984 z"
       transform="matrix(1.6976252,0,0,1.6976252,-7.7922755,24.450998)" />
  </g>
</svg>
