<?xml version="1.0" encoding="UTF-8" standalone="no"?>
<!-- Created with Inkscape (http://www.inkscape.org/) -->

<svg
   width="120"
   height="120"
   viewBox="0 0 120 120"
   version="1.1"
   id="svg1"
   inkscape:version="1.4 (86a8ad7, 2024-10-11)"
   sodipodi:docname="mand_7.svg"
   xmlns:inkscape="http://www.inkscape.org/namespaces/inkscape"
   xmlns:sodipodi="http://sodipodi.sourceforge.net/DTD/sodipodi-0.dtd"
   xmlns="http://www.w3.org/2000/svg"
   xmlns:svg="http://www.w3.org/2000/svg">
  <sodipodi:namedview
     id="namedview1"
     pagecolor="#ffffff"
     bordercolor="#000000"
     borderopacity="0.25"
     inkscape:showpageshadow="2"
     inkscape:pageopacity="0.0"
     inkscape:pagecheckerboard="0"
     inkscape:deskcolor="#d1d1d1"
     inkscape:document-units="px"
     inkscape:zoom="4.8625"
     inkscape:cx="60.051414"
     inkscape:cy="59.948586"
     inkscape:window-width="3440"
     inkscape:window-height="1369"
     inkscape:window-x="-8"
     inkscape:window-y="-8"
     inkscape:window-maximized="1"
     inkscape:current-layer="layer1" />
  <defs
     id="defs1" />
  <g
     inkscape:label="Layer 1"
     inkscape:groupmode="layer"
     id="layer1">
    <path
       id="path1"
       style="fill:#0000ff;stroke-width:0.2"
       d="M 60 2.8496094 L 56.519531 5.5 L 52.185547 6.0878906 L 51.599609 10.421875 L 50.455078 11.923828 L 48.822266 10.972656 L 46.625 7.1914062 L 42.394531 8.3046875 L 38.166016 7.1855469 L 35.962891 10.964844 L 32.181641 13.162109 L 33.294922 17.392578 L 32.785156 19.316406 L 30.8125 19.052734 L 27.328125 16.408203 L 23.853516 19.064453 L 19.519531 19.658203 L 18.939453 23.994141 L 16.296875 27.478516 L 18.953125 30.953125 L 19.208984 32.826172 L 17.382812 33.310547 L 13.152344 32.197266 L 10.957031 35.978516 L 7.1777344 38.183594 L 8.2988281 42.412109 L 7.1875 46.642578 L 10.96875 48.837891 L 11.916016 50.460938 L 10.421875 51.599609 L 6.0859375 52.185547 L 5.5 56.519531 L 2.8496094 60 L 5.5 63.480469 L 6.0859375 67.814453 L 10.421875 68.400391 L 11.923828 69.544922 L 10.972656 71.177734 L 7.1894531 73.376953 L 8.3046875 77.605469 L 7.1855469 81.833984 L 10.964844 84.037109 L 13.162109 87.820312 L 17.392578 86.705078 L 19.316406 87.214844 L 19.052734 89.1875 L 16.408203 92.671875 L 19.064453 96.146484 L 19.658203 100.48047 L 23.994141 101.06055 L 27.478516 103.70508 L 30.953125 101.04688 L 32.826172 100.79102 L 33.310547 102.61719 L 32.197266 106.84766 L 35.978516 109.04297 L 38.183594 112.82227 L 42.412109 111.70117 L 46.642578 112.81445 L 48.837891 109.03125 L 50.460938 108.08398 L 51.599609 109.57812 L 52.185547 113.91406 L 56.519531 114.5 L 60 117.15039 L 63.480469 114.5 L 67.814453 113.91406 L 68.400391 109.57812 L 69.544922 108.07617 L 71.177734 109.02734 L 73.376953 112.81055 L 77.605469 111.69531 L 81.833984 112.81445 L 84.037109 109.03516 L 87.820312 106.83789 L 86.705078 102.60742 L 87.214844 100.68359 L 89.1875 100.94727 L 92.671875 103.5918 L 96.146484 100.93555 L 100.48047 100.3418 L 101.06055 96.005859 L 103.70508 92.521484 L 101.04688 89.046875 L 100.79102 87.173828 L 102.61719 86.689453 L 106.84766 87.802734 L 109.04297 84.021484 L 112.82227 81.816406 L 111.70117 77.587891 L 112.81445 73.357422 L 109.03125 71.162109 L 108.08398 69.539062 L 109.57812 68.400391 L 113.91211 67.814453 L 114.5 63.480469 L 117.15039 60 L 114.5 56.519531 L 113.91211 52.185547 L 109.57812 51.599609 L 108.07617 50.455078 L 109.02734 48.822266 L 112.80859 46.625 L 111.69531 42.394531 L 112.81445 38.166016 L 109.03516 35.962891 L 106.83789 32.181641 L 102.60742 33.294922 L 100.68359 32.785156 L 100.94727 30.8125 L 103.5918 27.328125 L 100.93555 23.853516 L 100.3418 19.519531 L 96.005859 18.939453 L 92.521484 16.296875 L 89.046875 18.953125 L 87.173828 19.208984 L 86.689453 17.382812 L 87.802734 13.152344 L 84.021484 10.957031 L 81.816406 7.1777344 L 77.587891 8.2988281 L 73.357422 7.1875 L 71.162109 10.96875 L 69.539062 11.916016 L 68.400391 10.421875 L 67.814453 6.0878906 L 63.480469 5.5 L 60 2.8496094 z M 60 9.6757812 L 75.845703 21.746094 L 95.583984 24.416016 L 98.253906 44.154297 L 110.32422 60 L 98.253906 75.845703 L 95.583984 95.583984 L 75.845703 98.253906 L 60 110.32422 L 44.154297 98.253906 L 24.416016 95.583984 L 21.746094 75.845703 L 9.6757812 60 L 21.746094 44.154297 L 24.416016 24.416016 L 44.154297 21.746094 L 60 9.6757812 z " />
  </g>
</svg>
