<?xml version="1.0" encoding="UTF-8" standalone="no"?>
<!-- Created with Inkscape (http://www.inkscape.org/) -->

<svg
   width="120"
   height="120"
   viewBox="0 0 120 120"
   version="1.1"
   id="svg1"
   inkscape:version="1.4 (86a8ad7, 2024-10-11)"
   sodipodi:docname="mand_42.svg"
   xmlns:inkscape="http://www.inkscape.org/namespaces/inkscape"
   xmlns:sodipodi="http://sodipodi.sourceforge.net/DTD/sodipodi-0.dtd"
   xmlns="http://www.w3.org/2000/svg"
   xmlns:svg="http://www.w3.org/2000/svg">
  <sodipodi:namedview
     id="namedview1"
     pagecolor="#ffffff"
     bordercolor="#000000"
     borderopacity="0.25"
     inkscape:showpageshadow="2"
     inkscape:pageopacity="0.0"
     inkscape:pagecheckerboard="0"
     inkscape:deskcolor="#d1d1d1"
     inkscape:document-units="px"
     inkscape:zoom="6.8766134"
     inkscape:cx="59.985922"
     inkscape:cy="51.987799"
     inkscape:window-width="3440"
     inkscape:window-height="1369"
     inkscape:window-x="-8"
     inkscape:window-y="-8"
     inkscape:window-maximized="1"
     inkscape:current-layer="layer1" />
  <defs
     id="defs1">
    <inkscape:path-effect
       effect="copy_rotate"
       starting_point="0,0"
       origin="60,50"
       id="path-effect2"
       is_visible="true"
       lpeversion="1.2"
       lpesatellites=""
       method="normal"
       num_copies="12"
       starting_angle="0"
       rotation_angle="30"
       gap="-0.01"
       copies_to_360="true"
       mirror_copies="false"
       split_items="false"
       link_styles="false" />
  </defs>
  <g
     inkscape:label="Layer 1"
     inkscape:groupmode="layer"
     id="layer1">
    <path
       id="path1"
       style="fill:#0000ff;stroke-width:0.5"
       d="m 54.992188,41.631397 c -1.183895,-0.0078 -1.9855,-1.093104 -3.291016,-1.96875 -0.07547,-0.05062 0.0018,-0.182562 0.002,-0.273438 0.07589,-0.426334 0.13875,-0.868088 0.287109,-1.277344 0.05686,-0.156841 0.287569,-0.632479 0.355469,-0.77539 0.375471,-0.64341 0.665123,-1.367487 1.171875,-1.925782 0.09061,-0.09983 0.193886,-0.185792 0.291016,-0.279296 0.941475,-0.838748 2.169952,-1.226619 3.302734,-1.732422 0.861905,-0.333638 1.671942,-0.761982 2.384766,-1.353516 0.135753,-0.112654 0.212302,-0.190131 0.310547,-0.279297 -0.316328,-0.383521 -0.61993,-0.777478 -0.894532,-1.193359 -1.057402,-1.601421 -1.957068,-3.305784 -2.871093,-4.990235 -1.624218,-2.965465 -2.941546,-6.106322 -3.642578,-9.423828 -0.119648,-0.566202 -0.194878,-1.140605 -0.292969,-1.710937 -0.24542,-1.663198 -0.384708,-3.340957 -0.425781,-5.0214851 -0.01959,-0.801389 -0.02511,-1.92942 0.08008,-2.742187 0.04703,-0.363359 0.145697,-0.717139 0.21875,-1.076172 0.254513,-0.719306 0.570609,-1.467371 1.273437,-1.863281 1.816685,-1.023357 2.625462,-2.099483 4.333985,-2.015625 0.196502,0.0096 0.390778,0.049349 0.585937,0.074219 1.460017,0.313393 2.785727,0.990526 4.125,1.621093 1.339817,-0.63078 2.666356,-1.307575 4.126953,-1.621093 0.195159,-0.02487 0.389436,-0.064619 0.585938,-0.074219 1.708521,-0.083858 2.515346,0.992268 4.332031,2.015625 0.702828,0.39591 1.018924,1.143975 1.273437,1.863281 0.07305,0.359033 0.173673,0.712813 0.220704,1.076172 0.10519,0.812767 0.09967,1.940798 0.08008,2.742187 -0.04107,1.6805281 -0.180362,3.3582871 -0.425782,5.0214851 -0.09809,0.570332 -0.173322,1.144735 -0.292968,1.710937 -0.701034,3.317506 -2.018361,6.458363 -3.642578,9.423828 -0.914026,1.68445 -1.813692,3.388814 -2.871094,4.990235 -0.274884,0.416308 -0.57785,0.811419 -0.894532,1.195312 0.09788,0.08879 0.175472,0.165252 0.310547,0.277344 0.712824,0.591534 1.522861,1.019878 2.384766,1.353516 1.132782,0.505803 2.361259,0.893674 3.302734,1.732422 0.09713,0.0935 0.200402,0.179467 0.291016,0.279296 0.506752,0.558295 0.796404,1.282372 1.171875,1.925782 0.0679,0.142911 0.298613,0.618549 0.355469,0.77539 0.148359,0.409256 0.211222,0.85101 0.287109,1.277344 1.66e-4,0.09088 0.07547,0.222816 0,0.273438 -1.492019,1.000738 -2.325628,2.275804 -3.824219,1.902343 -0.33839,-0.08433 -0.414625,-0.129967 -0.753906,-0.267578 -1.412526,-0.675387 -2.810491,-1.412368 -3.931641,-2.529297 -0.38902,-0.415698 -0.692614,-0.681068 -0.96289,-1.185547 -0.445692,-0.831895 -0.408306,-1.74685 -0.16211,-2.628906 -0.341286,-0.19211 -0.658411,-0.407674 -0.960937,-0.644531 -0.302163,0.236488 -0.618148,0.452674 -0.958984,0.644531 0.246197,0.882056 0.283582,1.797011 -0.16211,2.628906 -0.270276,0.504479 -0.57387,0.769849 -0.96289,1.185547 -1.12115,1.116929 -2.519115,1.85391 -3.931641,2.529297 -0.339281,0.137612 -0.417469,0.183249 -0.755859,0.267578 -0.187324,0.04668 -0.364077,0.06752 -0.533203,0.06641 z m 7.304687,-12.701172 c 1.172468,-1.626236 2.138612,-3.401334 3.105469,-5.15625 1.612921,-2.937947 2.906983,-6.059519 3.576172,-9.353516 0.113639,-0.559375 0.18366,-1.126071 0.27539,-1.689453 0.233118,-1.650667 0.371298,-3.3171571 0.398438,-4.9843751 0.01261,-0.774503 0.0018,-1.928345 -0.123047,-2.714844 -0.05464,-0.344121 -0.16396,-0.677444 -0.248047,-1.015625 -1.466266,0.27478 -2.801315,0.958958 -4.140625,1.587891 -0.01388,0.00839 -0.03081,0.017032 -0.04492,0.025391 0.118134,0.422988 0.09233,0.857658 -0.230469,1.203124 -0.06803,0.072801 -0.152577,0.128852 -0.228515,0.19336 -0.03953,0.029459 -0.308608,0.235008 -0.689453,0.496094 l 1.166015,0.652343 c -0.103468,0.246645 -0.205183,0.488423 -0.416015,0.666016 -0.138844,0.106406 -0.181733,0.164932 -0.361328,0.195313 -0.55748,0.094312 -1.311953,-0.169405 -2.039063,-0.53125 -0.727073,0.361814 -1.479662,0.625557 -2.037109,0.53125 -0.179596,-0.030381 -0.222485,-0.088907 -0.361328,-0.195313 -0.210834,-0.177593 -0.312548,-0.419371 -0.416016,-0.666016 L 60.64844,7.5220219 C 60.267592,7.2609359 59.996557,7.0553869 59.957031,7.0259279 59.881093,6.9614199 59.798499,6.9053689 59.730469,6.8325679 59.40767,6.4871019 59.381866,6.0524319 59.5,5.6294439 c -0.01411,-0.00836 -0.03104,-0.017002 -0.04492,-0.025391 -1.339119,-0.628843 -2.674605,-1.313032 -4.140625,-1.587891 -0.08409,0.338181 -0.193411,0.671504 -0.248047,1.015625 -0.124873,0.786499 -0.135655,1.940341 -0.123047,2.714844 0.02714,1.667218 0.16532,3.3337081 0.398438,4.9843751 0.09173,0.563382 0.161752,1.130078 0.275391,1.689453 0.669189,3.293997 1.961297,6.415569 3.574218,9.353516 0.966777,1.754771 1.933132,3.530123 3.105469,5.15625 z M 61.132812,8.3950679 c 0.190754,-0.093448 0.346884,-0.175961 0.464844,-0.271484 -0.0026,-0.00152 -0.0052,-0.00238 -0.0078,-0.00391 -0.16923,0.103035 -0.271697,0.161294 -0.457032,0.27539 z m 2.330079,0 c -0.185196,-0.11401 -0.287916,-0.172424 -0.457032,-0.27539 -0.0026,0.00153 -0.0052,0.00238 -0.0078,0.00391 0.11796,0.095523 0.27409,0.178036 0.464844,0.271484 z m -2.919922,-1.71875 c -1.394165,-0.757244 -0.820944,-0.272247 0,0 z m 3.509765,0 c 0.820547,-0.272297 1.393508,-0.756869 0,0 z m -7.992187,-3.875 c 0.225972,-0.14007 0.412538,-0.252412 0.675781,-0.419921 0.173603,-0.110469 -0.381979,0.164812 -0.542969,0.292968 -0.05542,0.044118 -0.08709,0.084891 -0.132812,0.126953 z m 12.474609,0 c -0.04572,-0.042062 -0.07739,-0.082835 -0.132812,-0.126953 -0.16099,-0.128156 -0.716572,-0.403437 -0.542969,-0.292968 0.263243,0.167509 0.44981,0.279851 0.675781,0.419921 z M 51.478806,45.256483 c -1.029183,0.585193 -2.266045,0.04609 -3.834478,-0.05948 -0.09067,-0.0061 -0.08972,-0.159004 -0.134987,-0.237805 -0.147445,-0.407161 -0.313883,-0.821161 -0.390029,-1.249766 -0.02918,-0.164259 -0.0672,-0.691528 -0.07985,-0.849242 0.0035,-0.744945 -0.107731,-1.51684 0.05198,-2.253714 0.02856,-0.13176 0.07501,-0.257844 0.112379,-0.387385 0.395968,-1.197115 1.265924,-2.14726 1.994041,-3.151689 0.579612,-0.719891 1.066953,-1.495867 1.38851,-2.364562 0.06124,-0.165438 0.08879,-0.270809 0.129293,-0.397152 -0.465709,-0.173975 -0.925614,-0.363351 -1.371367,-0.586213 -1.716448,-0.85817 -3.347763,-1.884359 -4.981557,-2.886124 -2.889347,-1.756059 -5.600615,-3.817457 -7.866479,-6.339985 -0.386719,-0.430522 -0.739072,-0.890354 -1.109187,-1.335231 -1.044139,-1.317661 -2.003646,-2.700999 -2.87948,-4.135843 -0.41766,-0.684228 -0.986456,-1.658372 -1.301742,-2.414844 -0.14095,-0.338193 -0.232392,-0.693909 -0.348643,-1.041367 -0.139238,-0.750194 -0.239524,-1.556085 0.171188,-2.250367 1.061617,-1.794596 1.223976,-3.130937 2.745529,-3.912575 0.174976,-0.089937 0.363098,-0.1526515 0.544546,-0.2286929 1.421108,-0.4586022 2.907773,-0.5350428 4.382901,-0.6585923 0.844926,-1.21618 1.655345,-2.4655712 2.7635,-3.4673842 0.156577,-0.1191176 0.304952,-0.2506797 0.470327,-0.3572446 1.437694,-0.9268836 2.674488,-0.3983437 4.759462,-0.420433 0.806622,-0.00855 1.454401,0.4812494 2.034469,0.9769302 0.24278,0.2744067 0.506812,0.5304776 0.729221,0.8216403 0.497481,0.6512818 1.056716,1.6309453 1.440445,2.3347636 0.804696,1.475915 1.522946,2.9985429 2.142005,4.5616249 0.200217,0.542967 0.422266,1.07803 0.60175,1.628199 1.05164,3.223561 1.48123,6.602287 1.557349,9.982563 0.05066,1.91579 0.123704,3.841645 0.0087,5.757217 -0.0299,0.497976 -0.09472,0.991635 -0.177031,1.482437 0.129162,0.02795 0.234589,0.05538 0.407614,0.08491 0.91309,0.155872 1.828775,0.12181 2.742026,-0.0202 1.233919,-0.128353 2.491747,-0.406685 3.726462,-0.151046 0.130867,0.03241 0.263287,0.05522 0.391675,0.09637 0.718008,0.230121 1.330892,0.712364 1.977765,1.081838 0.130258,0.08982 0.567881,0.386373 0.69554,0.493773 0.333111,0.280247 0.608429,0.631385 0.887316,0.962658 0.04558,0.07862 0.176767,0.155229 0.136719,0.236804 -0.791758,1.612674 -0.876151,3.133718 -2.3607,3.559587 -0.335219,0.09616 -0.424059,0.09476 -0.78669,0.145224 -1.560977,0.12136 -3.140141,0.182099 -4.66955,-0.224615 -0.54475,-0.165495 -0.940355,-0.243515 -1.426661,-0.545269 -0.801928,-0.497596 -1.227028,-1.308664 -1.454844,-2.195644 -0.391617,0.0043 -0.774038,-0.02385 -1.154461,-0.07771 -0.143437,0.355886 -0.308995,0.701101 -0.508239,1.037672 0.654241,0.640784 1.144094,1.414466 1.174061,2.357754 0.01817,0.57203 -0.112061,0.953644 -0.241113,1.508159 -0.41248,1.527864 -1.254663,2.865091 -2.140253,4.156256 -0.22502,0.288816 -0.269914,0.367433 -0.520804,0.609659 -0.138887,0.134088 -0.28154,0.240513 -0.428562,0.324114 z m -0.02454,-14.651881 c 0.202269,-1.994596 0.151425,-4.014948 0.11129,-6.018178 -0.07214,-3.350797 -0.512239,-6.701189 -1.579703,-9.888468 C 49.804579,14.156703 49.581871,13.63092 49.379621,13.097151 48.756173,11.551073 48.042596,10.03876 47.232491,8.581337 46.85616,7.9042927 46.269877,6.9104412 45.768507,6.2917366 45.549127,6.0210391 45.287791,5.7870329 45.045879,5.536203 c -1.132433,0.9710995 -1.946531,2.2311395 -2.791941,3.4454665 -0.0078,0.014206 -0.01817,0.030155 -0.02621,0.044449 0.313801,0.3072514 0.508789,0.6965887 0.40197,1.1571703 -0.02251,0.09706 -0.06771,0.187878 -0.10122,0.281712 -0.0195,0.04528 -0.149758,0.357827 -0.349037,0.774357 l 1.33597,-0.01806 c 0.03372,0.265335 0.06652,0.525578 -0.02727,0.784794 -0.06704,0.161573 -0.07492,0.233702 -0.215263,0.34981 -0.435636,0.360417 -1.220887,0.509268 -2.031505,0.559456 -0.448757,0.676876 -0.968647,1.281579 -1.498563,1.47863 -0.170726,0.06349 -0.237132,0.03425 -0.410576,0.01152 -0.271384,-0.04838 -0.48036,-0.206912 -0.693289,-0.368779 l 0.683628,-1.147953 c -0.460367,-0.03568 -0.797864,-0.07818 -0.846824,-0.08393 -0.09802,-0.0179 -0.197573,-0.02514 -0.292889,-0.05417 -0.452285,-0.137783 -0.691967,-0.501316 -0.801154,-0.926702 -0.0164,-1.85e-4 -0.03538,7.96e-4 -0.0516,4.71e-4 -1.474133,0.124965 -2.972792,0.200183 -4.379832,0.695159 0.09627,0.334918 0.168253,0.678245 0.292997,1.00358 0.285107,0.743565 0.85269,1.748212 1.250861,2.412647 0.857113,1.430284 1.810025,2.804416 2.837245,4.117377 0.361131,0.442038 0.70512,0.8978 1.083222,1.325414 2.226533,2.51809 4.906317,4.575397 7.772121,6.313273 1.714639,1.036288 3.439203,2.09061 5.26754,2.912709 z M 40.178578,13.402666 c 0.118474,-0.176305 0.21243,-0.325829 0.266825,-0.467534 -0.003,-1.7e-5 -0.0057,5.39e-4 -0.0087,5.14e-4 -0.09504,0.173846 -0.15465,0.275533 -0.258107,0.46701 z m 2.017908,-1.16504 c -0.21739,-0.0061 -0.335555,-0.0054 -0.533497,-0.01 -0.0015,0.0026 -0.0033,0.0047 -0.0048,0.0073 0.149918,0.02374 0.326387,0.01714 0.538309,0.0027 z m -3.388102,-0.02852 c -1.586004,0.04129 -0.847082,0.174699 0,0 z m 3.039546,-1.754882 c 0.574466,-0.6460899 0.828378,-1.3522221 0,0 z m -8.858937,0.640245 c 0.125662,-0.23429 0.231062,-0.424864 0.375283,-0.701553 0.09511,-0.18247 -0.248398,0.333721 -0.323741,0.525202 -0.02594,0.06592 -0.03298,0.117063 -0.05154,0.176351 z M 43.792321,4.8571643 c -0.06063,-0.013567 -0.108439,-0.033042 -0.178495,-0.043539 -0.2035,-0.030491 -0.822288,0.0089 -0.616709,0.017767 0.311729,0.013446 0.529472,0.017453 0.795204,0.025772 z m 6.45635,45.2954267 c -0.598702,1.021383 -1.939406,1.172941 -3.350495,1.865728 -0.08157,0.04005 -0.157204,-0.09284 -0.235805,-0.138451 C 46.3311,51.600979 45.97996,51.325663 45.699714,50.992553 45.592315,50.86489 45.295755,50.427271 45.205941,50.297012 44.836467,49.65014 44.354224,49.037256 44.124102,48.319248 c -0.04115,-0.128386 -0.06396,-0.260806 -0.09637,-0.391675 -0.25564,-1.234716 0.02269,-2.492543 0.151045,-3.726463 0.142014,-0.91325 0.176075,-1.828935 0.0202,-2.742026 -0.02969,-0.173892 -0.05851,-0.278924 -0.0866,-0.40859 -0.490303,0.08219 -0.983281,0.148136 -1.480745,0.178008 -1.915572,0.115027 -3.841427,0.04198 -5.757217,-0.0087 -3.380277,-0.07612 -6.759003,-0.505707 -9.982563,-1.557349 -0.55017,-0.179483 -1.085232,-0.401533 -1.6282,-0.60175 -1.563081,-0.619059 -3.085707,-1.337311 -4.561624,-2.142005 -0.703818,-0.383729 -1.683482,-0.942964 -2.334764,-1.440445 -0.291163,-0.222409 -0.548212,-0.484747 -0.822617,-0.727529 -0.495681,-0.580068 -0.985476,-1.227847 -0.97693,-2.034469 0.02209,-2.084974 -0.505475,-3.323459 0.42141,-4.761154 0.106565,-0.165376 0.238127,-0.313749 0.357244,-0.470327 1.001415,-1.107715 2.250684,-1.917247 3.466408,-2.761808 0.123637,-1.475706 0.200785,-2.96292 0.659569,-4.384593 0.07604,-0.181447 0.138756,-0.369571 0.228693,-0.544546 0.781637,-1.521552 2.117002,-1.68222 3.911598,-2.743837 0.694282,-0.410712 1.500173,-0.310426 2.250367,-0.171188 0.347457,0.116253 0.704151,0.206001 1.042344,0.346951 0.756472,0.315286 1.730616,0.884082 2.414844,1.301742 1.434845,0.875832 2.818181,1.835341 4.135843,2.87948 0.444877,0.370115 0.904708,0.722469 1.335231,1.109187 2.522527,2.265866 4.583926,4.977133 6.339985,7.866479 1.001764,1.633794 2.027953,3.26511 2.886123,4.981558 0.223092,0.44621 0.413785,0.906142 0.587905,1.372343 0.125834,-0.04037 0.230848,-0.06934 0.39546,-0.13027 0.868696,-0.321556 1.644671,-0.808897 2.364563,-1.38851 1.004429,-0.728116 1.954574,-1.598073 3.151688,-1.99404 0.129538,-0.03737 0.255624,-0.08382 0.387386,-0.112379 0.736873,-0.159713 1.508768,-0.04852 2.253713,-0.05198 0.157715,0.01265 0.684986,0.05067 0.849242,0.07985 0.428606,0.07614 0.842607,0.242581 1.249767,0.390028 0.07879,0.0453 0.230699,0.04605 0.236804,0.136719 0.120655,1.792496 0.80809,3.151955 -0.264632,4.263043 -0.242227,0.250889 -0.319867,0.294092 -0.608682,0.519112 -1.291166,0.88559 -2.628392,1.727773 -4.156256,2.140253 -0.554515,0.129052 -0.936129,0.259287 -1.508159,0.241114 -0.943288,-0.02997 -1.71697,-0.519822 -2.357754,-1.174062 -0.337016,0.199507 -0.682262,0.366364 -1.038649,0.50993 0.05372,0.379925 0.08295,0.761669 0.07869,1.15277 0.886981,0.227815 1.698048,0.652917 2.195644,1.454845 0.301754,0.486305 0.379774,0.88191 0.545269,1.42666 0.406714,1.529409 0.345976,3.108573 0.224615,4.66955 -0.05047,0.362632 -0.05004,0.453163 -0.1462,0.788382 -0.05324,0.185567 -0.123564,0.34906 -0.209089,0.494972 z M 42.901477,37.47596 c -0.822128,-1.828505 -1.876336,-3.552759 -2.912709,-5.26754 -1.737876,-2.865804 -3.794206,-5.54728 -6.312296,-7.773813 -0.427614,-0.378102 -0.883376,-0.72209 -1.325415,-1.083222 -1.31296,-1.027219 -2.687093,-1.980132 -4.117376,-2.837245 -0.664434,-0.398172 -1.669096,-0.965731 -2.412647,-1.25086 -0.325338,-0.124741 -0.668664,-0.196728 -1.003581,-0.292997 -0.495166,1.407213 -0.570175,2.905489 -0.695159,4.379832 3.26e-4,0.01622 -6.54e-4,0.0352 -4.7e-4,0.0516 0.425385,0.109187 0.788918,0.348869 0.926701,0.801154 0.02903,0.09532 0.0353,0.196562 0.0532,0.29458 0.0057,0.04896 0.04922,0.384766 0.0849,0.845131 l 1.147953,-0.683628 c 0.161867,0.212929 0.320395,0.421906 0.368779,0.693288 0.02273,0.173445 0.05197,0.239851 -0.01152,0.410576 -0.197063,0.529948 -0.802685,1.051482 -1.479607,1.500255 -0.0502,0.810571 -0.198083,1.594203 -0.558479,2.029813 -0.116108,0.140344 -0.188238,0.148224 -0.34981,0.215263 -0.259217,0.09379 -0.51946,0.06099 -0.784795,0.02727 l 0.01806,-1.335971 c -0.416531,0.199281 -0.730059,0.33123 -0.775335,0.350731 -0.09383,0.03351 -0.183673,0.07701 -0.280735,0.09953 -0.460582,0.106819 -0.849919,-0.08817 -1.157171,-0.40197 -0.0143,0.008 -0.03024,0.01838 -0.04445,0.02621 -1.214154,0.84529 -2.474422,1.65976 -3.445466,2.791941 0.250828,0.241915 0.484834,0.503251 0.755533,0.722627 0.618692,0.501393 1.612557,1.087652 2.2896,1.463984 1.457424,0.810105 2.969736,1.523683 4.515815,2.14713 0.533768,0.202251 1.059552,0.424958 1.600805,0.606231 3.187279,1.067464 6.536694,1.509252 9.887491,1.581395 2.003065,0.04013 4.023742,0.09092 6.018178,-0.11129 z M 24.535478,28.21649 c 0.01445,-0.211922 0.02106,-0.388391 -0.0027,-0.538309 -0.0026,0.0015 -0.0047,0.0033 -0.0073,0.0048 0.0046,0.198075 0.0038,0.315944 0.01,0.533497 z m 1.165039,-2.017908 c -0.191333,0.10338 -0.293281,0.163131 -0.46701,0.258107 2.5e-5,0.003 -5.39e-4,0.0057 -5.14e-4,0.0087 0.141705,-0.0544 0.291229,-0.148351 0.467534,-0.266825 z m -2.948442,1.669352 c -1.352875,0.82876 -0.646245,0.574835 0,0 z m 1.754883,-3.039546 c 0.174457,-0.846763 0.04129,-1.585247 0,0 z m -7.351942,4.983937 c -0.0083,-0.265732 -0.01233,-0.483474 -0.02577,-0.795204 -0.0089,-0.205579 -0.04826,0.41321 -0.01777,0.616709 0.0105,0.07005 0.02997,0.117868 0.04354,0.178495 z M 23.39232,19.008997 c -0.05929,0.01856 -0.110432,0.0256 -0.17635,0.05154 -0.191482,0.07534 -0.707673,0.418851 -0.525202,0.323741 0.276688,-0.144221 0.467263,-0.249621 0.701552,-0.375283 z m 28.239077,35.998815 c -0.0078,1.183895 -1.093104,1.9855 -1.96875,3.291016 -0.05062,0.07547 -0.182562,-0.0018 -0.273438,-0.002 -0.426334,-0.07589 -0.868088,-0.13875 -1.277344,-0.287109 -0.156841,-0.05686 -0.632479,-0.287569 -0.77539,-0.355469 -0.64341,-0.375471 -1.367487,-0.665123 -1.925782,-1.171875 -0.09983,-0.09061 -0.185792,-0.193886 -0.279296,-0.291016 -0.838748,-0.941475 -1.226619,-2.169952 -1.732422,-3.302734 -0.333638,-0.861905 -0.761982,-1.671942 -1.353516,-2.384766 -0.112654,-0.135753 -0.190131,-0.212302 -0.279297,-0.310547 -0.383521,0.316328 -0.777478,0.61993 -1.193359,0.894532 -1.601421,1.057402 -3.305784,1.957068 -4.990235,2.871093 -2.965465,1.624218 -6.106322,2.941546 -9.423828,3.642578 -0.566202,0.119648 -1.140605,0.194878 -1.710937,0.292969 -1.663198,0.24542 -3.340957,0.384708 -5.021485,0.425781 -0.801389,0.01959 -1.92942,0.02511 -2.742187,-0.08008 -0.363359,-0.04703 -0.717139,-0.145697 -1.076172,-0.21875 -0.719306,-0.254513 -1.467371,-0.570609 -1.863281,-1.273437 -1.023357,-1.816685 -2.099483,-2.625462 -2.015625,-4.333985 0.0096,-0.196502 0.04935,-0.390778 0.07422,-0.585937 0.313393,-1.460017 0.990526,-2.785727 1.621093,-4.125 -0.63078,-1.339817 -1.307575,-2.666356 -1.621093,-4.126953 -0.02487,-0.195159 -0.06462,-0.389436 -0.07422,-0.585938 -0.08386,-1.708521 0.992268,-2.515346 2.015625,-4.332031 0.39591,-0.702828 1.143975,-1.018924 1.863281,-1.273437 0.359033,-0.07305 0.712813,-0.173673 1.076172,-0.220704 0.812767,-0.10519 1.940798,-0.09967 2.742187,-0.08008 1.680528,0.04107 3.358287,0.180362 5.021485,0.425782 0.570332,0.09809 1.144735,0.173322 1.710937,0.292968 3.317506,0.701034 6.458363,2.018361 9.423828,3.642578 1.68445,0.914026 3.388814,1.813692 4.990235,2.871094 0.416308,0.274884 0.811419,0.57785 1.195312,0.894532 0.08879,-0.09788 0.165252,-0.175472 0.277344,-0.310547 0.591534,-0.712824 1.019878,-1.522861 1.353516,-2.384766 0.505803,-1.132782 0.893674,-2.361259 1.732422,-3.302734 0.0935,-0.09713 0.179467,-0.200402 0.279296,-0.291016 0.558295,-0.506752 1.282372,-0.796404 1.925782,-1.171875 0.142911,-0.0679 0.618549,-0.298613 0.77539,-0.355469 0.409256,-0.148359 0.85101,-0.211222 1.277344,-0.287109 0.09088,-1.66e-4 0.222816,-0.07547 0.273438,0 1.000738,1.492019 2.275804,2.325628 1.902343,3.824219 -0.08433,0.33839 -0.129967,0.414625 -0.267578,0.753906 -0.675387,1.412526 -1.412368,2.810491 -2.529297,3.931641 -0.415698,0.38902 -0.681068,0.692614 -1.185547,0.96289 -0.831895,0.445692 -1.74685,0.408306 -2.628906,0.16211 -0.19211,0.341286 -0.407674,0.658411 -0.644531,0.960937 0.236488,0.302163 0.452674,0.618148 0.644531,0.958984 0.882056,-0.246197 1.797011,-0.283582 2.628906,0.16211 0.504479,0.270276 0.769849,0.57387 1.185547,0.96289 1.116929,1.12115 1.85391,2.519115 2.529297,3.931641 0.137612,0.339281 0.183249,0.417469 0.267578,0.755859 0.04668,0.187324 0.06752,0.364077 0.06641,0.533203 z M 38.930225,47.703125 c -1.626236,-1.172468 -3.401334,-2.138612 -5.15625,-3.105469 -2.937947,-1.612921 -6.059519,-2.906983 -9.353516,-3.576172 -0.559375,-0.113639 -1.126071,-0.18366 -1.689453,-0.27539 -1.650667,-0.233118 -3.317157,-0.371298 -4.984375,-0.398438 -0.774503,-0.01261 -1.928345,-0.0018 -2.714844,0.123047 -0.344121,0.05464 -0.677444,0.16396 -1.015625,0.248047 0.27478,1.466266 0.958958,2.801315 1.587891,4.140625 0.0084,0.01388 0.01703,0.03081 0.02539,0.04492 0.422988,-0.118134 0.857658,-0.09233 1.203124,0.230469 0.0728,0.06803 0.128852,0.152577 0.19336,0.228515 0.02946,0.03953 0.235008,0.308608 0.496094,0.689453 l 0.652343,-1.166015 c 0.246645,0.103468 0.488423,0.205183 0.666016,0.416015 0.106406,0.138844 0.164932,0.181733 0.195313,0.361328 0.09431,0.55748 -0.169405,1.311953 -0.53125,2.039063 0.361814,0.727073 0.625557,1.479662 0.53125,2.037109 -0.03038,0.179596 -0.08891,0.222485 -0.195313,0.361328 -0.177593,0.210834 -0.419371,0.312548 -0.666016,0.416016 L 17.522022,49.35156 c -0.261086,0.380848 -0.466635,0.651883 -0.496094,0.691409 -0.06451,0.07594 -0.120559,0.158532 -0.19336,0.226562 -0.345466,0.322799 -0.780136,0.348603 -1.203124,0.230469 -0.0084,0.01411 -0.017,0.03104 -0.02539,0.04492 -0.628843,1.339119 -1.313032,2.674605 -1.587891,4.140625 0.338181,0.08409 0.671504,0.193411 1.015625,0.248047 0.786499,0.124873 1.940341,0.135655 2.714844,0.123047 1.667218,-0.02714 3.333708,-0.16532 4.984375,-0.398438 0.563382,-0.09173 1.130078,-0.161752 1.689453,-0.275391 3.293997,-0.669189 6.415569,-1.961297 9.353516,-3.574218 1.754771,-0.966777 3.530123,-1.933132 5.15625,-3.105469 z m -20.535157,1.164063 c -0.09345,-0.190754 -0.175961,-0.346884 -0.271484,-0.464844 -0.0015,0.0026 -0.0024,0.0052 -0.0039,0.0078 0.103035,0.16923 0.161294,0.271697 0.27539,0.457032 z m 0,-2.330079 c -0.11401,0.185196 -0.172424,0.287916 -0.27539,0.457032 0.0015,0.0026 0.0024,0.0052 0.0039,0.0078 0.09552,-0.11796 0.178036,-0.27409 0.271484,-0.464844 z m -1.71875,2.919922 c -0.757244,1.394165 -0.272247,0.820944 0,0 z m 0,-3.509765 c -0.272297,-0.820547 -0.756869,-1.393508 0,0 z m -3.875,7.992187 c -0.14007,-0.225972 -0.252412,-0.412538 -0.419921,-0.675781 -0.110469,-0.173603 0.164812,0.381979 0.292968,0.542969 0.04412,0.05542 0.08489,0.08709 0.126953,0.132812 z m 0,-12.474609 c -0.04206,0.04572 -0.08283,0.07739 -0.126953,0.132812 -0.128156,0.16099 -0.403437,0.716572 -0.292968,0.542969 0.167509,-0.263243 0.279851,-0.44981 0.419921,-0.675781 z m 42.455165,17.05635 c 0.585193,1.029183 0.04609,2.266045 -0.05948,3.834478 -0.0061,0.09067 -0.159004,0.08972 -0.237805,0.134987 -0.407161,0.147445 -0.821161,0.313883 -1.249766,0.390029 -0.164259,0.02918 -0.691528,0.0672 -0.849242,0.07985 -0.744945,-0.0035 -1.51684,0.107731 -2.253714,-0.05198 -0.13176,-0.02856 -0.257844,-0.07501 -0.387385,-0.112379 -1.197115,-0.395968 -2.14726,-1.265924 -3.151689,-1.994041 -0.719891,-0.579612 -1.495867,-1.066953 -2.364562,-1.38851 -0.165438,-0.06124 -0.270809,-0.08879 -0.397152,-0.129293 -0.173975,0.465709 -0.363351,0.925614 -0.586213,1.371367 -0.85817,1.716448 -1.884359,3.347763 -2.886124,4.981557 -1.756059,2.889347 -3.817457,5.600615 -6.339985,7.866479 -0.430522,0.386719 -0.890354,0.739072 -1.335231,1.109187 -1.317661,1.044139 -2.700999,2.003646 -4.135843,2.87948 -0.684228,0.41766 -1.658372,0.986456 -2.414844,1.301742 -0.338193,0.14095 -0.693909,0.232392 -1.041367,0.348643 -0.750194,0.139238 -1.556085,0.239524 -2.250367,-0.171188 -1.794596,-1.061617 -3.130937,-1.223976 -3.912575,-2.745529 -0.08994,-0.174976 -0.152651,-0.363098 -0.228693,-0.544546 -0.458602,-1.421108 -0.535043,-2.907773 -0.658592,-4.382901 -1.21618,-0.844926 -2.465571,-1.655345 -3.467384,-2.7635 -0.119118,-0.156577 -0.25068,-0.304952 -0.357245,-0.470327 -0.926884,-1.437694 -0.398344,-2.674488 -0.420433,-4.759462 -0.0085,-0.806622 0.481249,-1.454401 0.97693,-2.034469 0.274407,-0.24278 0.530478,-0.506812 0.82164,-0.729221 0.651282,-0.497481 1.630946,-1.056716 2.334764,-1.440445 1.475915,-0.804696 2.998543,-1.522946 4.561625,-2.142005 0.542967,-0.200217 1.07803,-0.422266 1.628199,-0.60175 3.223561,-1.05164 6.602287,-1.48123 9.982563,-1.557349 1.91579,-0.05066 3.841645,-0.123704 5.757217,-0.0087 0.497976,0.0299 0.991635,0.09472 1.482437,0.177031 0.02795,-0.129162 0.05538,-0.234589 0.08491,-0.407614 0.155872,-0.91309 0.12181,-1.828775 -0.0202,-2.742026 -0.128353,-1.233919 -0.406685,-2.491747 -0.151046,-3.726462 0.03241,-0.130867 0.05522,-0.263287 0.09637,-0.391675 0.230121,-0.718008 0.712364,-1.330892 1.081838,-1.977765 0.08982,-0.130258 0.386373,-0.567881 0.493773,-0.69554 0.280247,-0.333111 0.631385,-0.608429 0.962658,-0.887316 0.07862,-0.04558 0.155229,-0.176767 0.236804,-0.136719 1.612674,0.791758 3.133718,0.876151 3.559587,2.3607 0.09616,0.335219 0.09476,0.424059 0.145224,0.78669 0.12136,1.560977 0.182099,3.140141 -0.224615,4.66955 -0.165495,0.54475 -0.243515,0.940355 -0.545269,1.426661 -0.497596,0.801928 -1.308664,1.227028 -2.195644,1.454844 0.0043,0.391617 -0.02385,0.774038 -0.07771,1.154461 0.355886,0.143437 0.701101,0.308995 1.037672,0.508239 0.640784,-0.654241 1.414466,-1.144094 2.357754,-1.174061 0.57203,-0.01817 0.953644,0.112061 1.508159,0.241113 1.527864,0.41248 2.865091,1.254663 4.156256,2.140253 0.288816,0.22502 0.367433,0.269914 0.609659,0.520804 0.134088,0.138887 0.240513,0.28154 0.324114,0.428562 z m -14.651881,0.02454 c -1.994596,-0.202269 -4.014948,-0.151425 -6.018178,-0.11129 -3.350797,0.07214 -6.701189,0.512239 -9.888468,1.579703 -0.541253,0.181273 -1.067036,0.403981 -1.600805,0.606231 -1.546078,0.623448 -3.058391,1.337025 -4.515814,2.14713 -0.677044,0.376331 -1.670896,0.962614 -2.2896,1.463984 -0.270698,0.21938 -0.504704,0.480716 -0.755534,0.722628 0.9711,1.132433 2.23114,1.946531 3.445466,2.791941 0.01421,0.0078 0.03016,0.01817 0.04445,0.02621 0.307251,-0.313801 0.696588,-0.508789 1.15717,-0.40197 0.09706,0.02251 0.187878,0.06771 0.281712,0.10122 0.04528,0.0195 0.357827,0.149758 0.774357,0.349037 l -0.01806,-1.33597 c 0.265335,-0.03372 0.525578,-0.06652 0.784794,0.02727 0.161573,0.06704 0.233702,0.07492 0.34981,0.215263 0.360417,0.435636 0.509268,1.220887 0.559456,2.031505 0.676876,0.448757 1.281579,0.968647 1.47863,1.498563 0.06349,0.170726 0.03425,0.237132 0.01152,0.410576 -0.04838,0.271384 -0.206912,0.48036 -0.368779,0.693289 l -1.147953,-0.683628 c -0.03568,0.460367 -0.07818,0.797864 -0.08393,0.846824 -0.0179,0.09802 -0.02514,0.197573 -0.05417,0.292889 -0.137783,0.452285 -0.501316,0.691967 -0.926702,0.801154 -1.85e-4,0.0164 7.96e-4,0.03538 4.71e-4,0.0516 0.124965,1.474133 0.200183,2.972792 0.695159,4.379832 0.334918,-0.09627 0.678245,-0.168253 1.00358,-0.292997 0.743565,-0.285107 1.748212,-0.85269 2.412647,-1.250861 1.430284,-0.857113 2.804416,-1.810025 4.117377,-2.837245 0.442038,-0.361131 0.8978,-0.70512 1.325414,-1.083222 2.51809,-2.226533 4.575397,-4.906317 6.313273,-7.772121 1.036288,-1.714639 2.09061,-3.439203 2.912709,-5.26754 z M 23.402666,69.821422 c -0.176305,-0.118474 -0.325829,-0.21243 -0.467534,-0.266825 -1.7e-5,0.003 5.39e-4,0.0057 5.14e-4,0.0087 0.173846,0.09504 0.275533,0.15465 0.46701,0.258107 z m -1.16504,-2.017908 c -0.0061,0.21739 -0.0054,0.335555 -0.01,0.533497 0.0026,0.0015 0.0047,0.0033 0.0073,0.0048 0.02375,-0.149918 0.01714,-0.326387 0.0027,-0.538309 z m -0.02852,3.388102 c 0.04129,1.586004 0.174699,0.847082 0,0 z M 20.454224,68.15207 c -0.64609,-0.574466 -1.352222,-0.828378 0,0 z m 0.640245,8.858937 c -0.23429,-0.125662 -0.424864,-0.231062 -0.701553,-0.375283 -0.18247,-0.09511 0.333721,0.248398 0.525202,0.323741 0.06592,0.02594 0.117063,0.03298 0.176351,0.05154 z M 14.857164,66.207679 c -0.01357,0.06063 -0.03304,0.108439 -0.04354,0.178495 -0.03049,0.2035 0.0089,0.822288 0.01777,0.616709 0.01344,-0.311729 0.01745,-0.529472 0.02577,-0.795204 z m 45.295427,-6.45635 c 1.021383,0.598702 1.172941,1.939406 1.865728,3.350495 0.04005,0.08157 -0.09284,0.157204 -0.138451,0.235805 -0.278889,0.331271 -0.554205,0.682411 -0.887315,0.962657 -0.127663,0.107399 -0.565282,0.403959 -0.695541,0.493773 -0.646872,0.369474 -1.259756,0.851717 -1.977764,1.081839 -0.128386,0.04115 -0.260806,0.06396 -0.391675,0.09637 -1.234716,0.25564 -2.492543,-0.02269 -3.726463,-0.151045 -0.91325,-0.142014 -1.828935,-0.176075 -2.742026,-0.0202 -0.173892,0.02969 -0.278924,0.05851 -0.40859,0.08661 0.08219,0.490303 0.148136,0.983281 0.178008,1.480745 0.115027,1.915572 0.04198,3.841427 -0.0087,5.757217 -0.07612,3.380277 -0.505707,6.759003 -1.557349,9.982563 -0.179483,0.55017 -0.401533,1.085232 -0.60175,1.6282 -0.619059,1.563081 -1.337311,3.085707 -2.142005,4.561624 -0.383729,0.703818 -0.942964,1.683482 -1.440445,2.334764 -0.222409,0.291163 -0.484747,0.548212 -0.727529,0.822617 -0.580068,0.495681 -1.227847,0.985476 -2.034469,0.97693 -2.084974,-0.02209 -3.323459,0.505475 -4.761154,-0.42141 -0.165376,-0.106565 -0.313749,-0.238127 -0.470327,-0.357244 -1.107715,-1.001415 -1.917247,-2.250684 -2.761808,-3.466408 -1.475706,-0.123637 -2.96292,-0.200785 -4.384593,-0.659569 -0.181447,-0.07604 -0.369571,-0.138756 -0.544546,-0.228693 -1.521552,-0.781637 -1.68222,-2.117002 -2.743837,-3.911598 -0.410712,-0.694282 -0.310426,-1.500173 -0.171188,-2.250367 0.116253,-0.347457 0.206001,-0.704151 0.346951,-1.042344 0.315286,-0.756472 0.884082,-1.730616 1.301742,-2.414844 0.875832,-1.434845 1.835341,-2.818181 2.87948,-4.135843 0.370115,-0.444877 0.722469,-0.904708 1.109187,-1.335231 2.265866,-2.522527 4.977133,-4.583926 7.866479,-6.339985 1.633794,-1.001764 3.26511,-2.027953 4.981558,-2.886123 0.44621,-0.223092 0.906142,-0.413785 1.372343,-0.587905 -0.04037,-0.125834 -0.06934,-0.230848 -0.13027,-0.39546 -0.321556,-0.868696 -0.808897,-1.644671 -1.38851,-2.364563 -0.728116,-1.004429 -1.598073,-1.954574 -1.99404,-3.151688 -0.03737,-0.129538 -0.08382,-0.255624 -0.112379,-0.387386 -0.159713,-0.736873 -0.04852,-1.508768 -0.05198,-2.253713 0.01265,-0.157715 0.05067,-0.684986 0.07985,-0.849242 0.07614,-0.428606 0.242581,-0.842607 0.390028,-1.249767 0.0453,-0.07879 0.04605,-0.230699 0.136719,-0.236804 1.792496,-0.120655 3.151955,-0.80809 4.263043,0.264632 0.250889,0.242227 0.294092,0.319867 0.519112,0.608682 0.88559,1.291166 1.727773,2.628392 2.140253,4.156256 0.129052,0.554515 0.259287,0.936129 0.241114,1.508159 -0.02997,0.943288 -0.519822,1.71697 -1.174062,2.357754 0.199507,0.337016 0.366364,0.682262 0.50993,1.038649 0.379925,-0.05372 0.761669,-0.08295 1.15277,-0.07869 0.227815,-0.886981 0.652917,-1.698048 1.454845,-2.195644 0.486305,-0.301754 0.88191,-0.379774 1.42666,-0.545269 1.529409,-0.406714 3.108573,-0.345976 4.66955,-0.224615 0.362632,0.05047 0.453163,0.05004 0.788382,0.1462 0.185567,0.05324 0.34906,0.123564 0.494972,0.209089 z M 47.47596,67.098523 c -1.828505,0.822128 -3.552759,1.876336 -5.26754,2.912709 -2.865804,1.737876 -5.54728,3.794206 -7.773813,6.312296 -0.378102,0.427614 -0.72209,0.883376 -1.083222,1.325415 -1.027219,1.31296 -1.980132,2.687093 -2.837245,4.117376 -0.398172,0.664434 -0.965731,1.669096 -1.25086,2.412647 -0.124741,0.325338 -0.196728,0.668664 -0.292997,1.003581 1.407213,0.495166 2.905489,0.570175 4.379832,0.695159 0.01621,-3.26e-4 0.0352,6.54e-4 0.0516,4.7e-4 0.109187,-0.425385 0.348869,-0.788918 0.801154,-0.926701 0.09532,-0.02903 0.196562,-0.0353 0.29458,-0.0532 0.04896,-0.0057 0.384766,-0.04922 0.845131,-0.0849 l -0.683628,-1.147953 c 0.212929,-0.161867 0.421906,-0.320395 0.693288,-0.368779 0.173445,-0.02273 0.239851,-0.05197 0.410576,0.01152 0.529948,0.197063 1.051482,0.802685 1.500255,1.479607 0.810571,0.0502 1.594203,0.198083 2.029813,0.558479 0.140344,0.116108 0.148224,0.188238 0.215263,0.34981 0.09379,0.259217 0.06099,0.51946 0.02727,0.784795 l -1.335971,-0.01806 c 0.199281,0.416531 0.33123,0.730059 0.350731,0.775335 0.03351,0.09383 0.07701,0.183673 0.09953,0.280735 0.106819,0.460582 -0.08817,0.849919 -0.40197,1.157171 0.008,0.0143 0.01838,0.03024 0.02621,0.04445 0.84529,1.214154 1.65976,2.474422 2.791941,3.445466 0.241915,-0.250828 0.503251,-0.484834 0.722627,-0.755533 0.501393,-0.618692 1.087652,-1.612557 1.463984,-2.2896 0.810105,-1.457424 1.523683,-2.969736 2.14713,-4.515815 0.202251,-0.533768 0.424958,-1.059552 0.606231,-1.600805 1.067464,-3.187279 1.509252,-6.536694 1.581395,-9.887491 0.04013,-2.003065 0.09092,-4.023742 -0.11129,-6.018178 z m -9.25947,18.365999 c -0.211922,-0.01445 -0.388391,-0.02106 -0.538309,0.0027 0.0015,0.0026 0.0033,0.0047 0.0048,0.0073 0.198075,-0.0046 0.315944,-0.0038 0.533497,-0.01 z m -2.017908,-1.165039 c 0.10338,0.191333 0.163131,0.293281 0.258107,0.46701 0.003,-2.5e-5 0.0057,5.39e-4 0.0087,5.14e-4 -0.05439,-0.141705 -0.148351,-0.291229 -0.266825,-0.467534 z m 1.669352,2.948442 c 0.82876,1.352875 0.574835,0.646245 0,0 z m -3.039546,-1.754883 c -0.846763,-0.174457 -1.585247,-0.04129 0,0 z m 4.983937,7.351942 c -0.265732,0.0083 -0.483474,0.01233 -0.795204,0.02577 -0.205579,0.0089 0.41321,0.04826 0.616709,0.01777 0.07005,-0.0105 0.117868,-0.02997 0.178495,-0.04354 z M 29.008997,86.60768 c 0.01856,0.05929 0.0256,0.110432 0.05154,0.17635 0.07534,0.191482 0.418851,0.707673 0.323741,0.525202 -0.144221,-0.276688 -0.249621,-0.467263 -0.375283,-0.701552 z M 65.007812,58.368603 c 1.183895,0.0078 1.9855,1.093104 3.291016,1.96875 0.07547,0.05062 -0.0018,0.182562 -0.002,0.273438 -0.07589,0.426334 -0.13875,0.868088 -0.287109,1.277344 -0.05686,0.156841 -0.287569,0.632479 -0.355469,0.77539 -0.375471,0.64341 -0.665123,1.367487 -1.171875,1.925782 -0.09061,0.09983 -0.193886,0.185792 -0.291016,0.279296 -0.941475,0.838748 -2.169952,1.226619 -3.302734,1.732422 -0.861905,0.333638 -1.671942,0.761982 -2.384766,1.353516 -0.135753,0.112654 -0.212302,0.190131 -0.310547,0.279297 0.316328,0.383521 0.61993,0.777478 0.894532,1.193359 1.057402,1.601421 1.957068,3.305784 2.871093,4.990235 1.624218,2.965465 2.941546,6.106322 3.642578,9.423828 0.119648,0.566202 0.194878,1.140605 0.292969,1.710937 0.24542,1.663198 0.384708,3.340957 0.425781,5.021485 0.01959,0.801389 0.02511,1.92942 -0.08008,2.742187 -0.04703,0.363359 -0.145697,0.717139 -0.21875,1.076172 -0.254513,0.719306 -0.570609,1.467371 -1.273437,1.863281 -1.816685,1.023357 -2.625462,2.099483 -4.333985,2.015625 -0.196502,-0.0096 -0.390778,-0.04935 -0.585937,-0.07422 -1.460017,-0.313393 -2.785727,-0.990526 -4.125,-1.621093 -1.339817,0.63078 -2.666356,1.307575 -4.126953,1.621093 -0.195159,0.02487 -0.389436,0.06462 -0.585938,0.07422 -1.708521,0.08386 -2.515346,-0.992268 -4.332031,-2.015625 -0.702828,-0.39591 -1.018924,-1.143975 -1.273437,-1.863281 -0.07305,-0.359033 -0.173673,-0.712813 -0.220704,-1.076172 -0.10519,-0.812767 -0.09967,-1.940798 -0.08008,-2.742187 0.04107,-1.680528 0.180362,-3.358287 0.425782,-5.021485 0.09809,-0.570332 0.173322,-1.144735 0.292968,-1.710937 0.701034,-3.317506 2.018361,-6.458363 3.642578,-9.423828 0.914026,-1.68445 1.813692,-3.388814 2.871094,-4.990235 0.274884,-0.416308 0.57785,-0.811419 0.894532,-1.195312 -0.09788,-0.08879 -0.175472,-0.165252 -0.310547,-0.277344 -0.712824,-0.591534 -1.522861,-1.019878 -2.384766,-1.353516 -1.132782,-0.505803 -2.361259,-0.893674 -3.302734,-1.732422 -0.09713,-0.0935 -0.200402,-0.179467 -0.291016,-0.279296 -0.506752,-0.558295 -0.796404,-1.282372 -1.171875,-1.925782 -0.0679,-0.142911 -0.298613,-0.618549 -0.355469,-0.77539 -0.148359,-0.409256 -0.211222,-0.85101 -0.287109,-1.277344 -1.66e-4,-0.09088 -0.07547,-0.222816 0,-0.273438 1.492019,-1.000738 2.325628,-2.275804 3.824219,-1.902343 0.33839,0.08433 0.414625,0.129967 0.753906,0.267578 1.412526,0.675387 2.810491,1.412368 3.931641,2.529297 0.38902,0.415698 0.692614,0.681068 0.96289,1.185547 0.445692,0.831895 0.408306,1.74685 0.16211,2.628906 0.341286,0.19211 0.658411,0.407674 0.960937,0.644531 0.302163,-0.236488 0.618148,-0.452674 0.958984,-0.644531 -0.246197,-0.882056 -0.283582,-1.797011 0.16211,-2.628906 0.270276,-0.504479 0.57387,-0.769849 0.96289,-1.185547 1.12115,-1.116929 2.519115,-1.85391 3.931641,-2.529297 0.339281,-0.137612 0.417469,-0.183249 0.755859,-0.267578 0.187324,-0.04668 0.364077,-0.06752 0.533203,-0.06641 z m -7.304687,12.701172 c -1.172468,1.626236 -2.138612,3.401334 -3.105469,5.15625 -1.612921,2.937947 -2.906983,6.059519 -3.576172,9.353516 -0.113639,0.559375 -0.18366,1.126071 -0.27539,1.689453 -0.233118,1.650667 -0.371298,3.317157 -0.398438,4.984375 -0.01261,0.774503 -0.0018,1.928345 0.123047,2.714844 0.05464,0.344121 0.16396,0.677444 0.248047,1.015625 1.466266,-0.27478 2.801315,-0.958958 4.140625,-1.587891 0.01388,-0.0084 0.03081,-0.01703 0.04492,-0.02539 -0.118134,-0.422988 -0.09233,-0.857658 0.230469,-1.203124 0.06803,-0.0728 0.152577,-0.128852 0.228515,-0.19336 0.03953,-0.02946 0.308608,-0.235008 0.689453,-0.496094 l -1.166015,-0.652343 c 0.103468,-0.246645 0.205183,-0.488423 0.416015,-0.666016 0.138844,-0.106406 0.181733,-0.164932 0.361328,-0.195313 0.55748,-0.09431 1.311953,0.169405 2.039063,0.53125 0.727073,-0.361814 1.479662,-0.625557 2.037109,-0.53125 0.179596,0.03038 0.222485,0.08891 0.361328,0.195313 0.210834,0.177593 0.312548,0.419371 0.416016,0.666016 l -1.166016,0.652343 c 0.380848,0.261086 0.651883,0.466635 0.691409,0.496094 0.07594,0.06451 0.158532,0.120559 0.226562,0.19336 0.322799,0.345466 0.348603,0.780136 0.230469,1.203124 0.01411,0.0084 0.03104,0.017 0.04492,0.02539 1.339119,0.628843 2.674605,1.313032 4.140625,1.587891 0.08409,-0.338181 0.193411,-0.671504 0.248047,-1.015625 0.124873,-0.786499 0.135655,-1.940341 0.123047,-2.714844 -0.02714,-1.667218 -0.16532,-3.333708 -0.398438,-4.984375 -0.09173,-0.563382 -0.161752,-1.130078 -0.275391,-1.689453 -0.669189,-3.293997 -1.961297,-6.415569 -3.574218,-9.353516 -0.966777,-1.754771 -1.933132,-3.530123 -3.105469,-5.15625 z m 1.164063,20.535157 c -0.190754,0.09345 -0.346884,0.175961 -0.464844,0.271484 0.0026,0.0015 0.0052,0.0024 0.0078,0.0039 0.16923,-0.103035 0.271697,-0.161294 0.457032,-0.27539 z m -2.330079,0 c 0.185196,0.11401 0.287916,0.172424 0.457032,0.27539 0.0026,-0.0015 0.0052,-0.0024 0.0078,-0.0039 -0.11796,-0.09552 -0.27409,-0.178036 -0.464844,-0.271484 z m 2.919922,1.71875 c 1.394165,0.757244 0.820944,0.272247 0,0 z m -3.509765,0 c -0.820547,0.272297 -1.393508,0.756869 0,0 z m 7.992187,3.875 c -0.225972,0.14007 -0.412538,0.252412 -0.675781,0.419921 -0.173603,0.110469 0.381979,-0.164812 0.542969,-0.292968 0.05542,-0.04412 0.08709,-0.08489 0.132812,-0.126953 z m -12.474609,0 c 0.04572,0.04206 0.07739,0.08283 0.132812,0.126953 0.16099,0.128156 0.716572,0.403437 0.542969,0.292968 -0.263243,-0.167509 -0.44981,-0.279851 -0.675781,-0.419921 z m 17.05635,-42.455165 c 1.029183,-0.585193 2.266045,-0.04609 3.834478,0.05948 0.09067,0.0061 0.08972,0.159004 0.134987,0.237805 0.147445,0.407161 0.313883,0.821161 0.390029,1.249766 0.02918,0.164259 0.0672,0.691528 0.07985,0.849242 -0.0035,0.744945 0.107731,1.51684 -0.05198,2.253714 -0.02856,0.13176 -0.07501,0.257844 -0.112379,0.387385 -0.395968,1.197115 -1.265924,2.14726 -1.994041,3.151689 -0.579612,0.719891 -1.066953,1.495867 -1.38851,2.364562 -0.06124,0.165438 -0.08879,0.270809 -0.129293,0.397152 0.465709,0.173975 0.925614,0.363351 1.371367,0.586213 1.716448,0.85817 3.347763,1.884359 4.981557,2.886124 2.889347,1.756059 5.600615,3.817457 7.866479,6.339985 0.386719,0.430522 0.739072,0.890354 1.109187,1.335231 1.044139,1.317661 2.003646,2.700999 2.87948,4.135843 0.41766,0.684228 0.986456,1.658372 1.301742,2.414844 0.14095,0.338193 0.232392,0.693909 0.348643,1.041367 0.139238,0.750194 0.239524,1.556085 -0.171188,2.250367 -1.061617,1.794596 -1.223976,3.130937 -2.745529,3.912575 -0.174976,0.08994 -0.363098,0.152651 -0.544546,0.228693 -1.421108,0.458602 -2.907773,0.535043 -4.382901,0.658592 -0.844926,1.21618 -1.655345,2.465571 -2.7635,3.467384 -0.156577,0.119118 -0.304952,0.25068 -0.470327,0.357245 -1.437694,0.926884 -2.674488,0.398344 -4.759462,0.420433 -0.806622,0.0085 -1.454401,-0.481249 -2.034469,-0.97693 -0.24278,-0.274407 -0.506812,-0.530478 -0.729221,-0.82164 -0.497481,-0.651282 -1.056716,-1.630946 -1.440445,-2.334764 -0.804696,-1.475915 -1.522946,-2.998543 -2.142005,-4.561625 -0.200217,-0.542967 -0.422266,-1.07803 -0.60175,-1.628199 -1.05164,-3.223561 -1.48123,-6.602287 -1.557349,-9.982563 -0.05066,-1.91579 -0.123704,-3.841645 -0.0087,-5.757217 0.0299,-0.497976 0.09472,-0.991635 0.177031,-1.482437 -0.129162,-0.02795 -0.234589,-0.05538 -0.407614,-0.08491 -0.91309,-0.155872 -1.828775,-0.12181 -2.742026,0.0202 -1.233919,0.128353 -2.491747,0.406685 -3.726462,0.151046 -0.130867,-0.03241 -0.263287,-0.05522 -0.391675,-0.09637 -0.718008,-0.230121 -1.330892,-0.712364 -1.977765,-1.081838 -0.130258,-0.08982 -0.567881,-0.386373 -0.69554,-0.493773 -0.333111,-0.280247 -0.608429,-0.631385 -0.887316,-0.962658 -0.04558,-0.07862 -0.176767,-0.155229 -0.136719,-0.236804 0.791758,-1.612674 0.876151,-3.133718 2.3607,-3.559587 0.335219,-0.09616 0.424059,-0.09476 0.78669,-0.145224 1.560977,-0.12136 3.140141,-0.182099 4.66955,0.224615 0.54475,0.165495 0.940355,0.243515 1.426661,0.545269 0.801928,0.497596 1.227028,1.308664 1.454844,2.195644 0.391617,-0.0043 0.774038,0.02385 1.154461,0.07771 0.143437,-0.355886 0.308995,-0.701101 0.508239,-1.037672 -0.654241,-0.640784 -1.144094,-1.414466 -1.174061,-2.357754 -0.01817,-0.57203 0.112061,-0.953644 0.241113,-1.508159 0.41248,-1.527864 1.254663,-2.865091 2.140253,-4.156256 0.22502,-0.288816 0.269914,-0.367433 0.520804,-0.609659 0.138887,-0.134088 0.28154,-0.240513 0.428562,-0.324114 z m 0.02454,14.651881 c -0.202269,1.994596 -0.151425,4.014948 -0.11129,6.018178 0.07214,3.350797 0.512239,6.701189 1.579703,9.888468 0.181273,0.541253 0.403981,1.067036 0.606231,1.600805 0.623448,1.546078 1.337025,3.058391 2.14713,4.515814 0.376331,0.677044 0.962614,1.670896 1.463984,2.2896 0.21938,0.270698 0.480716,0.504704 0.722628,0.755534 1.132433,-0.9711 1.946531,-2.23114 2.791941,-3.445466 0.0078,-0.01421 0.01817,-0.03016 0.02621,-0.04445 -0.313801,-0.307251 -0.508789,-0.696588 -0.40197,-1.15717 0.02251,-0.09706 0.06771,-0.187878 0.10122,-0.281712 0.0195,-0.04528 0.149758,-0.357827 0.349037,-0.774357 l -1.33597,0.01806 c -0.03372,-0.265335 -0.06652,-0.525578 0.02727,-0.784794 0.06704,-0.161573 0.07492,-0.233702 0.215263,-0.34981 0.435636,-0.360417 1.220887,-0.509268 2.031505,-0.559456 0.448757,-0.676876 0.968647,-1.281579 1.498563,-1.47863 0.170726,-0.06349 0.237132,-0.03425 0.410576,-0.01152 0.271384,0.04838 0.48036,0.206912 0.693289,0.368779 l -0.683628,1.147953 c 0.460367,0.03568 0.797864,0.07818 0.846824,0.08393 0.09802,0.0179 0.197573,0.02514 0.292889,0.05417 0.452285,0.137783 0.691967,0.501316 0.801154,0.926702 0.0164,1.85e-4 0.03538,-7.96e-4 0.0516,-4.71e-4 1.474133,-0.124965 2.972792,-0.200183 4.379832,-0.695159 -0.09627,-0.334918 -0.168253,-0.678245 -0.292997,-1.00358 -0.285107,-0.743565 -0.85269,-1.748212 -1.250861,-2.412647 -0.857113,-1.430284 -1.810025,-2.804416 -2.837245,-4.117377 -0.361131,-0.442038 -0.70512,-0.8978 -1.083222,-1.325414 -2.226533,-2.51809 -4.906317,-4.575397 -7.772121,-6.313273 -1.714639,-1.036288 -3.439203,-2.09061 -5.26754,-2.912709 z m 11.275687,17.201936 c -0.118474,0.176305 -0.21243,0.325829 -0.266825,0.467534 0.003,1.7e-5 0.0057,-5.39e-4 0.0087,-5.14e-4 0.09504,-0.173846 0.15465,-0.275533 0.258107,-0.46701 z m -2.017908,1.16504 c 0.21739,0.0061 0.335555,0.0054 0.533497,0.01 0.0015,-0.0026 0.0033,-0.0047 0.0048,-0.0073 -0.149918,-0.02375 -0.326387,-0.01714 -0.538309,-0.0027 z m 3.388102,0.02852 c 1.586004,-0.04129 0.847082,-0.174699 0,0 z m -3.039546,1.754882 c -0.574466,0.64609 -0.828378,1.352222 0,0 z m 8.858937,-0.640245 c -0.125662,0.23429 -0.231062,0.424864 -0.375283,0.701553 -0.09511,0.18247 0.248398,-0.333721 0.323741,-0.525202 0.02594,-0.06592 0.03298,-0.117063 0.05154,-0.176351 z m -10.803328,6.237305 c 0.06063,0.01357 0.108439,0.03304 0.178495,0.04354 0.2035,0.03049 0.822288,-0.0089 0.616709,-0.01777 -0.311729,-0.01344 -0.529472,-0.01745 -0.795204,-0.02577 z m -6.45635,-45.295427 c 0.598702,-1.021383 1.939406,-1.172941 3.350495,-1.865728 0.08157,-0.04005 0.157204,0.09284 0.235805,0.138451 0.331271,0.278889 0.682411,0.554205 0.962657,0.887315 0.107399,0.127663 0.403959,0.565282 0.493773,0.695541 0.369474,0.646872 0.851717,1.259756 1.081839,1.977764 0.04115,0.128386 0.06396,0.260806 0.09637,0.391675 0.25564,1.234716 -0.02269,2.492543 -0.151045,3.726463 -0.142014,0.91325 -0.176075,1.828935 -0.0202,2.742026 0.02969,0.173892 0.05851,0.278924 0.08661,0.40859 0.490303,-0.08219 0.983281,-0.148136 1.480745,-0.178008 1.915572,-0.115027 3.841427,-0.04198 5.757217,0.0087 3.380277,0.07612 6.759003,0.505707 9.982563,1.557349 0.55017,0.179483 1.085232,0.401533 1.6282,0.60175 1.563081,0.619059 3.085707,1.337311 4.561624,2.142005 0.703818,0.383729 1.683478,0.942964 2.334768,1.440445 0.29116,0.222409 0.54821,0.484747 0.82261,0.727529 0.49568,0.580068 0.98548,1.227847 0.97693,2.034469 -0.0221,2.084974 0.50548,3.323459 -0.42141,4.761154 -0.10656,0.165376 -0.23812,0.313749 -0.35724,0.470327 -1.00142,1.107715 -2.25069,1.917247 -3.466409,2.761808 -0.123637,1.475706 -0.200785,2.96292 -0.659569,4.384593 -0.07604,0.181447 -0.138756,0.369571 -0.228693,0.544546 -0.781637,1.521552 -2.117002,1.68222 -3.911598,2.743837 -0.694282,0.410712 -1.500173,0.310426 -2.250367,0.171188 -0.347457,-0.116253 -0.704151,-0.206001 -1.042344,-0.346951 -0.756472,-0.315286 -1.730616,-0.884082 -2.414844,-1.301742 -1.434845,-0.875832 -2.818181,-1.835341 -4.135843,-2.87948 -0.444877,-0.370115 -0.904708,-0.722469 -1.335231,-1.109187 -2.522527,-2.265866 -4.583926,-4.977133 -6.339985,-7.866479 -1.001764,-1.633794 -2.027953,-3.26511 -2.886123,-4.981558 -0.223092,-0.44621 -0.413785,-0.906142 -0.587905,-1.372343 -0.125834,0.04037 -0.230848,0.06934 -0.39546,0.13027 -0.868696,0.321556 -1.644671,0.808897 -2.364563,1.38851 -1.004429,0.728116 -1.954574,1.598073 -3.151688,1.99404 -0.129538,0.03737 -0.255624,0.08382 -0.387386,0.112379 -0.736873,0.159713 -1.508768,0.04852 -2.253713,0.05198 -0.157715,-0.01265 -0.684986,-0.05067 -0.849242,-0.07985 -0.428606,-0.07614 -0.842607,-0.242581 -1.249767,-0.390028 -0.07879,-0.0453 -0.230699,-0.04605 -0.236804,-0.136719 -0.120655,-1.792496 -0.80809,-3.151955 0.264632,-4.263043 0.242227,-0.250889 0.319867,-0.294092 0.608682,-0.519112 1.291166,-0.88559 2.628392,-1.727773 4.156256,-2.140253 0.554515,-0.129052 0.936129,-0.259287 1.508159,-0.241114 0.943288,0.02997 1.71697,0.519822 2.357754,1.174062 0.337016,-0.199507 0.682262,-0.366364 1.038649,-0.50993 -0.05372,-0.379925 -0.08295,-0.761669 -0.07869,-1.15277 -0.886981,-0.227815 -1.698048,-0.652917 -2.195644,-1.454845 -0.301754,-0.486305 -0.379774,-0.88191 -0.545269,-1.42666 -0.406714,-1.529409 -0.345976,-3.108573 -0.224615,-4.66955 0.05047,-0.362632 0.05004,-0.453163 0.1462,-0.788382 0.05324,-0.185567 0.123564,-0.34906 0.209089,-0.494972 z m 7.347194,12.676631 c 0.822128,1.828505 1.876336,3.552759 2.912709,5.26754 1.737876,2.865804 3.794206,5.54728 6.312296,7.773813 0.427614,0.378102 0.883376,0.72209 1.325415,1.083222 1.31296,1.027219 2.687093,1.980132 4.117376,2.837245 0.664434,0.398172 1.669096,0.965731 2.412647,1.25086 0.325338,0.124741 0.668664,0.196728 1.003581,0.292997 0.495166,-1.407213 0.570175,-2.905489 0.695159,-4.379832 -3.26e-4,-0.01622 6.54e-4,-0.0352 4.7e-4,-0.0516 -0.425385,-0.109187 -0.788918,-0.348869 -0.926701,-0.801154 -0.02903,-0.09532 -0.0353,-0.196562 -0.0532,-0.29458 -0.0057,-0.04896 -0.04922,-0.384766 -0.0849,-0.845131 l -1.147953,0.683628 c -0.161867,-0.212929 -0.320395,-0.421906 -0.368779,-0.693288 -0.02273,-0.173445 -0.05197,-0.239851 0.01152,-0.410576 0.197063,-0.529948 0.802685,-1.051482 1.479607,-1.500255 0.0502,-0.810571 0.198083,-1.594203 0.558479,-2.029813 0.116108,-0.140344 0.188238,-0.148224 0.34981,-0.215263 0.259217,-0.09379 0.51946,-0.06099 0.784795,-0.02727 l -0.01806,1.335971 c 0.416531,-0.199281 0.730059,-0.33123 0.775335,-0.350731 0.09383,-0.03351 0.183673,-0.07701 0.280735,-0.09953 0.460582,-0.106819 0.849919,0.08817 1.157171,0.40197 0.0143,-0.008 0.03024,-0.01838 0.04445,-0.02621 1.214154,-0.84529 2.474422,-1.65976 3.445462,-2.791941 -0.25082,-0.241915 -0.48483,-0.503251 -0.75553,-0.722627 -0.61869,-0.501393 -1.612556,-1.087652 -2.289599,-1.463984 -1.457424,-0.810105 -2.969736,-1.523683 -4.515815,-2.14713 -0.533768,-0.202251 -1.059552,-0.424958 -1.600805,-0.606231 -3.187279,-1.067464 -6.536694,-1.509252 -9.887491,-1.581395 -2.003065,-0.04013 -4.023742,-0.09092 -6.018178,0.11129 z m 18.365999,9.25947 c -0.01445,0.211922 -0.02106,0.388391 0.0027,0.538309 0.0026,-0.0015 0.0047,-0.0033 0.0073,-0.0048 -0.0046,-0.198075 -0.0038,-0.315944 -0.01,-0.533497 z m -1.165039,2.017908 c 0.191333,-0.10338 0.293281,-0.163131 0.46701,-0.258107 -2.5e-5,-0.003 5.39e-4,-0.0057 5.14e-4,-0.0087 -0.141705,0.05439 -0.291229,0.148351 -0.467534,0.266825 z m 2.948442,-1.669352 c 1.352875,-0.82876 0.646245,-0.574835 0,0 z m -1.754883,3.039546 c -0.174457,0.846763 -0.04129,1.585247 0,0 z m 7.351938,-4.983937 c 0.008,0.265732 0.0123,0.483474 0.0258,0.795204 0.009,0.205579 0.0482,-0.41321 0.0178,-0.616709 -0.0105,-0.07005 -0.03,-0.117868 -0.0435,-0.178495 z m -6.2373,10.803328 c 0.05929,-0.01856 0.110432,-0.0256 0.17635,-0.05154 0.191482,-0.07534 0.707673,-0.418851 0.525202,-0.323741 -0.276688,0.144221 -0.467263,0.249621 -0.701552,0.375283 z M 68.368603,44.992188 c 0.0078,-1.183895 1.093104,-1.9855 1.96875,-3.291016 0.05062,-0.07547 0.182562,0.0018 0.273438,0.002 0.426334,0.07589 0.868088,0.13875 1.277344,0.287109 0.156841,0.05686 0.632479,0.287569 0.77539,0.355469 0.64341,0.375471 1.367487,0.665123 1.925782,1.171875 0.09983,0.09061 0.185792,0.193886 0.279296,0.291016 0.838748,0.941475 1.226619,2.169952 1.732422,3.302734 0.333638,0.861905 0.761982,1.671942 1.353516,2.384766 0.112654,0.135753 0.190131,0.212302 0.279297,0.310547 0.383521,-0.316328 0.777478,-0.61993 1.193359,-0.894532 1.601421,-1.057402 3.305784,-1.957068 4.990235,-2.871093 2.965465,-1.624218 6.106322,-2.941546 9.423828,-3.642578 0.566202,-0.119648 1.140605,-0.194878 1.710937,-0.292969 1.663198,-0.24542 3.340957,-0.384708 5.021483,-0.425781 0.80139,-0.01959 1.92942,-0.02511 2.74219,0.08008 0.36336,0.04703 0.71714,0.145697 1.07617,0.21875 0.71931,0.254513 1.46737,0.570609 1.86328,1.273437 1.02336,1.816685 2.09949,2.625462 2.01563,4.333985 -0.01,0.196502 -0.0494,0.390778 -0.0742,0.585937 -0.31339,1.460017 -0.99053,2.785727 -1.62109,4.125 0.63078,1.339817 1.30757,2.666356 1.62109,4.126953 0.0249,0.195159 0.0646,0.389436 0.0742,0.585938 0.0839,1.708521 -0.99227,2.515346 -2.01563,4.332031 -0.39591,0.702828 -1.14397,1.018924 -1.86328,1.273437 -0.35903,0.07305 -0.71281,0.173673 -1.07617,0.220704 -0.81277,0.10519 -1.9408,0.09967 -2.74219,0.08008 -1.680526,-0.04107 -3.358285,-0.180362 -5.021483,-0.425782 -0.570332,-0.09809 -1.144735,-0.173322 -1.710937,-0.292968 -3.317506,-0.701034 -6.458363,-2.018361 -9.423828,-3.642578 -1.68445,-0.914026 -3.388814,-1.813692 -4.990235,-2.871094 -0.416308,-0.274884 -0.811419,-0.57785 -1.195312,-0.894532 -0.08879,0.09788 -0.165252,0.175472 -0.277344,0.310547 -0.591534,0.712824 -1.019878,1.522861 -1.353516,2.384766 -0.505803,1.132782 -0.893674,2.361259 -1.732422,3.302734 -0.0935,0.09713 -0.179467,0.200402 -0.279296,0.291016 -0.558295,0.506752 -1.282372,0.796404 -1.925782,1.171875 -0.142911,0.0679 -0.618549,0.298613 -0.77539,0.355469 -0.409256,0.148359 -0.85101,0.211222 -1.277344,0.287109 -0.09088,1.66e-4 -0.222816,0.07547 -0.273438,0 -1.000738,-1.492019 -2.275804,-2.325628 -1.902343,-3.824219 0.08433,-0.33839 0.129967,-0.414625 0.267578,-0.753906 0.675387,-1.412526 1.412368,-2.810491 2.529297,-3.931641 0.415698,-0.38902 0.681068,-0.692614 1.185547,-0.96289 0.831895,-0.445692 1.74685,-0.408306 2.628906,-0.16211 0.19211,-0.341286 0.407674,-0.658411 0.644531,-0.960937 -0.236488,-0.302163 -0.452674,-0.618148 -0.644531,-0.958984 -0.882056,0.246197 -1.797011,0.283582 -2.628906,-0.16211 -0.504479,-0.270276 -0.769849,-0.57387 -1.185547,-0.96289 -1.116929,-1.12115 -1.85391,-2.519115 -2.529297,-3.931641 C 68.564976,45.94202 68.519339,45.863832 68.43501,45.525442 68.38833,45.338118 68.36749,45.161365 68.3686,44.992239 Z m 12.701172,7.304687 c 1.626236,1.172468 3.401334,2.138612 5.15625,3.105469 2.937947,1.612921 6.059519,2.906983 9.353516,3.576172 0.559375,0.113639 1.126071,0.18366 1.689453,0.27539 1.650667,0.233118 3.317156,0.371298 4.984376,0.398438 0.7745,0.01261 1.92834,0.0018 2.71484,-0.123047 0.34412,-0.05464 0.67745,-0.16396 1.01563,-0.248047 -0.27478,-1.466266 -0.95896,-2.801315 -1.58789,-4.140625 -0.008,-0.01388 -0.017,-0.03081 -0.0254,-0.04492 -0.42299,0.118134 -0.85766,0.09233 -1.20313,-0.230469 -0.0728,-0.06803 -0.12885,-0.152577 -0.19336,-0.228515 -0.0295,-0.03953 -0.23501,-0.308608 -0.49609,-0.689453 l -0.65234,1.166015 c -0.24665,-0.103468 -0.48843,-0.205183 -0.66602,-0.416015 -0.10641,-0.138844 -0.16493,-0.181733 -0.19531,-0.361328 -0.0943,-0.55748 0.1694,-1.311953 0.53125,-2.039063 -0.36182,-0.727073 -0.62556,-1.479662 -0.53125,-2.037109 0.0304,-0.179596 0.0889,-0.222485 0.19531,-0.361328 0.17759,-0.210834 0.41937,-0.312548 0.66602,-0.416016 l 0.65234,1.166016 c 0.26108,-0.380848 0.46663,-0.651883 0.49609,-0.691409 0.0645,-0.07594 0.12056,-0.158532 0.19336,-0.226562 0.34547,-0.322799 0.78014,-0.348603 1.20313,-0.230469 0.008,-0.01411 0.017,-0.03104 0.0254,-0.04492 0.62884,-1.339119 1.31303,-2.674605 1.58789,-4.140625 -0.33818,-0.08409 -0.67151,-0.193411 -1.01563,-0.248047 -0.7865,-0.124873 -1.94034,-0.135655 -2.71484,-0.123047 -1.66722,0.02714 -3.333709,0.16532 -4.984376,0.398438 -0.563382,0.09173 -1.130078,0.161752 -1.689453,0.275391 -3.293997,0.669189 -6.415569,1.961297 -9.353516,3.574218 -1.754771,0.966777 -3.530123,1.933132 -5.15625,3.105469 z m 20.535155,-1.164063 c 0.0935,0.190754 0.17596,0.346884 0.27149,0.464844 0.002,-0.0026 0.002,-0.0052 0.004,-0.0078 -0.10304,-0.16923 -0.1613,-0.271697 -0.27539,-0.457032 z m 0,2.330079 c 0.11401,-0.185196 0.17243,-0.287916 0.27539,-0.457032 -0.002,-0.0026 -0.002,-0.0052 -0.004,-0.0078 -0.0955,0.11796 -0.17803,0.27409 -0.27148,0.464844 z m 1.71875,-2.919922 c 0.75725,-1.394165 0.27225,-0.820944 0,0 z m 0,3.509765 c 0.2723,0.820547 0.75687,1.393508 0,0 z m 3.875,-7.992187 c 0.14007,0.225972 0.25241,0.412538 0.41992,0.675781 0.11047,0.173603 -0.16481,-0.381979 -0.29296,-0.542969 -0.0441,-0.05542 -0.0849,-0.08709 -0.12696,-0.132812 z m 0,12.474609 c 0.0421,-0.04572 0.0828,-0.07739 0.12696,-0.132812 0.12815,-0.16099 0.40343,-0.716572 0.29296,-0.542969 -0.16751,0.263243 -0.27985,0.44981 -0.41992,0.675781 z M 64.743517,41.478806 c -0.585193,-1.029183 -0.04609,-2.266045 0.05948,-3.834478 0.0061,-0.09067 0.159004,-0.08972 0.237805,-0.134987 0.407161,-0.147445 0.821161,-0.313883 1.249766,-0.390029 0.164259,-0.02918 0.691528,-0.0672 0.849242,-0.07985 0.744945,0.0035 1.51684,-0.107731 2.253714,0.05198 0.13176,0.02856 0.257844,0.07501 0.387385,0.112379 1.197115,0.395968 2.14726,1.265924 3.151689,1.994041 0.719891,0.579612 1.495867,1.066953 2.364562,1.38851 0.165438,0.06124 0.270809,0.08879 0.397152,0.129293 0.173975,-0.465709 0.363351,-0.925614 0.586213,-1.371367 0.85817,-1.716448 1.884359,-3.347763 2.886124,-4.981557 1.756059,-2.889347 3.817457,-5.600615 6.339985,-7.866479 0.430522,-0.386719 0.890354,-0.739072 1.335231,-1.109187 1.317661,-1.044139 2.700999,-2.003646 4.135843,-2.87948 0.684228,-0.41766 1.658372,-0.986456 2.414844,-1.301742 0.338193,-0.14095 0.693909,-0.232392 1.041367,-0.348643 0.750194,-0.139238 1.556085,-0.239524 2.250367,0.171188 1.794596,1.061617 3.130937,1.223976 3.912575,2.745529 0.0899,0.174976 0.15265,0.363098 0.22869,0.544546 0.45861,1.421108 0.53505,2.907773 0.6586,4.382901 1.21618,0.844926 2.46557,1.655345 3.46738,2.7635 0.11912,0.156577 0.25068,0.304952 0.35724,0.470327 0.92689,1.437694 0.39835,2.674488 0.42044,4.759462 0.009,0.806622 -0.48125,1.454401 -0.97693,2.034469 -0.27441,0.24278 -0.53048,0.506812 -0.82164,0.729221 -0.65129,0.497481 -1.63095,1.056716 -2.33477,1.440445 -1.47591,0.804696 -2.99854,1.522946 -4.561622,2.142005 -0.542967,0.200217 -1.07803,0.422266 -1.628199,0.60175 -3.223561,1.05164 -6.602287,1.48123 -9.982563,1.557349 -1.91579,0.05066 -3.841645,0.123704 -5.757217,0.0087 -0.497976,-0.0299 -0.991635,-0.09472 -1.482437,-0.177031 -0.02795,0.129162 -0.05538,0.234589 -0.08491,0.407614 -0.155872,0.91309 -0.12181,1.828775 0.0202,2.742026 0.128353,1.233919 0.406685,2.491747 0.151046,3.726462 -0.03241,0.130867 -0.05522,0.263287 -0.09637,0.391675 -0.230121,0.718008 -0.712364,1.330892 -1.081838,1.977765 -0.08982,0.130258 -0.386373,0.567881 -0.493773,0.69554 -0.280247,0.333111 -0.631385,0.608429 -0.962658,0.887316 -0.07862,0.04558 -0.155229,0.176767 -0.236804,0.136719 -1.612674,-0.791758 -3.133718,-0.876151 -3.559587,-2.3607 -0.09616,-0.335219 -0.09476,-0.424059 -0.145224,-0.78669 -0.12136,-1.560977 -0.182099,-3.140141 0.224615,-4.66955 0.165495,-0.54475 0.243515,-0.940355 0.545269,-1.426661 0.497596,-0.801928 1.308664,-1.227028 2.195644,-1.454844 -0.0043,-0.391617 0.02385,-0.774038 0.07771,-1.154461 -0.355886,-0.143437 -0.701101,-0.308995 -1.037672,-0.508239 -0.640784,0.654241 -1.414466,1.144094 -2.357754,1.174061 -0.57203,0.01817 -0.953644,-0.112061 -1.508159,-0.241113 -1.527864,-0.41248 -2.865091,-1.254663 -4.156256,-2.140253 -0.288816,-0.22502 -0.367433,-0.269914 -0.609659,-0.520804 -0.134088,-0.138887 -0.240513,-0.28154 -0.324114,-0.428562 z m 14.651881,-0.02454 c 1.994596,0.202269 4.014948,0.151425 6.018178,0.11129 3.350797,-0.07214 6.701189,-0.512239 9.888468,-1.579703 0.541253,-0.181273 1.067036,-0.403981 1.600805,-0.606231 1.546078,-0.623448 3.058391,-1.337025 4.515811,-2.14713 0.67705,-0.376331 1.6709,-0.962614 2.2896,-1.463984 0.2707,-0.21938 0.50471,-0.480716 0.75554,-0.722628 -0.9711,-1.132433 -2.23114,-1.946531 -3.44547,-2.791941 -0.0142,-0.0078 -0.0302,-0.01817 -0.0445,-0.02621 -0.30725,0.313801 -0.69659,0.508789 -1.157169,0.40197 -0.09706,-0.02251 -0.187878,-0.06771 -0.281712,-0.10122 -0.04528,-0.0195 -0.357827,-0.149758 -0.774357,-0.349037 l 0.01806,1.33597 c -0.265335,0.03372 -0.525578,0.06652 -0.784794,-0.02727 -0.161573,-0.06704 -0.233702,-0.07492 -0.34981,-0.215263 -0.360417,-0.435636 -0.509268,-1.220887 -0.559456,-2.031505 -0.676876,-0.448757 -1.281579,-0.968647 -1.47863,-1.498563 -0.06349,-0.170726 -0.03425,-0.237132 -0.01152,-0.410576 0.04838,-0.271384 0.206912,-0.48036 0.368779,-0.693289 l 1.147953,0.683628 c 0.03568,-0.460367 0.07818,-0.797864 0.08393,-0.846824 0.0179,-0.09802 0.02514,-0.197573 0.05417,-0.292889 0.137783,-0.452285 0.501316,-0.691967 0.926702,-0.801154 1.85e-4,-0.0164 -7.96e-4,-0.03538 -4.71e-4,-0.0516 -0.124965,-1.474133 -0.200183,-2.972792 -0.695159,-4.379832 -0.334918,0.09627 -0.678245,0.168253 -1.00358,0.292997 -0.743565,0.285107 -1.748212,0.85269 -2.412647,1.250861 -1.430284,0.857113 -2.804416,1.810025 -4.117377,2.837245 -0.442038,0.361131 -0.8978,0.70512 -1.325414,1.083222 -2.51809,2.226533 -4.575397,4.906317 -6.313273,7.772121 -1.036288,1.714639 -2.09061,3.439203 -2.912709,5.26754 z M 96.597334,30.178578 c 0.176305,0.118474 0.325829,0.21243 0.467534,0.266825 1.7e-5,-0.003 -5.39e-4,-0.0057 -5.14e-4,-0.0087 -0.173846,-0.09504 -0.275533,-0.15465 -0.46701,-0.258107 z m 1.16504,2.017908 c 0.0061,-0.21739 0.0054,-0.335555 0.01,-0.533497 -0.0026,-0.0015 -0.0047,-0.0033 -0.0073,-0.0048 -0.02375,0.149918 -0.01714,0.326387 -0.0027,0.538309 z m 0.02852,-3.388102 c -0.04129,-1.586004 -0.174699,-0.847082 0,0 z m 1.754882,3.039546 c 0.646094,0.574466 1.352224,0.828378 0,0 z m -0.640245,-8.858937 c 0.23429,0.125662 0.424864,0.231062 0.701553,0.375283 0.18247,0.09511 -0.333721,-0.248398 -0.525202,-0.323741 -0.06592,-0.02594 -0.117063,-0.03298 -0.176351,-0.05154 z m 6.237309,10.803328 c 0.0136,-0.06063 0.033,-0.108439 0.0435,-0.178495 0.0305,-0.2035 -0.009,-0.822288 -0.0178,-0.616709 -0.0135,0.311729 -0.0175,0.529472 -0.0258,0.795204 z m -45.295431,6.45635 c -1.021383,-0.598702 -1.172941,-1.939406 -1.865728,-3.350495 -0.04005,-0.08157 0.09284,-0.157204 0.138451,-0.235805 0.278889,-0.331271 0.554205,-0.682411 0.887315,-0.962657 0.127663,-0.107399 0.565282,-0.403959 0.695541,-0.493773 0.646872,-0.369474 1.259756,-0.851717 1.977764,-1.081839 0.128386,-0.04115 0.260806,-0.06396 0.391675,-0.09637 1.234716,-0.25564 2.492543,0.02269 3.726463,0.151045 0.91325,0.142014 1.828935,0.176075 2.742026,0.0202 0.173892,-0.02969 0.278924,-0.05851 0.40859,-0.0866 -0.08219,-0.490303 -0.148136,-0.983281 -0.178008,-1.480745 -0.115027,-1.915572 -0.04198,-3.841427 0.0087,-5.757217 0.07612,-3.380277 0.505707,-6.759003 1.557349,-9.982563 0.179483,-0.55017 0.401533,-1.085232 0.60175,-1.6282 0.619059,-1.563081 1.337311,-3.085707 2.142005,-4.561624 0.383729,-0.7038182 0.942964,-1.6834817 1.440445,-2.3347635 0.222409,-0.2911632 0.484747,-0.5482121 0.727529,-0.8226173 0.580068,-0.4956808 1.227847,-0.9854761 2.034469,-0.9769302 2.084974,0.022089 3.323459,-0.5054746 4.761154,0.42141 0.165376,0.1065649 0.313749,0.2381265 0.470327,0.3572441 1.107715,1.0014148 1.917247,2.2506842 2.761808,3.4664079 1.475706,0.123637 2.96292,0.200785 4.384593,0.659569 0.181447,0.07604 0.369571,0.138756 0.544546,0.228693 1.521552,0.781637 1.68222,2.117002 2.743837,3.911598 0.410712,0.694282 0.310426,1.500173 0.171188,2.250367 -0.116253,0.347457 -0.206001,0.704151 -0.346951,1.042344 -0.315286,0.756472 -0.884082,1.730616 -1.301742,2.414844 -0.875832,1.434845 -1.835341,2.818181 -2.87948,4.135843 -0.370115,0.444877 -0.722469,0.904708 -1.109187,1.335231 -2.265866,2.522527 -4.977133,4.583926 -7.866479,6.339985 -1.633794,1.001764 -3.26511,2.027953 -4.981558,2.886123 -0.44621,0.223092 -0.906142,0.413785 -1.372343,0.587905 0.04037,0.125834 0.06934,0.230848 0.13027,0.39546 0.321556,0.868696 0.808897,1.644671 1.38851,2.364563 0.728116,1.004429 1.598073,1.954574 1.99404,3.151688 0.03737,0.129538 0.08382,0.255624 0.112379,0.387386 0.159713,0.736873 0.04852,1.508768 0.05198,2.253713 -0.01265,0.157715 -0.05067,0.684986 -0.07985,0.849242 -0.07614,0.428606 -0.242581,0.842607 -0.390028,1.249767 -0.0453,0.07879 -0.04605,0.230699 -0.136719,0.236804 -1.792496,0.120655 -3.151955,0.80809 -4.263043,-0.264632 -0.250889,-0.242227 -0.294092,-0.319867 -0.519112,-0.608682 -0.88559,-1.291166 -1.727773,-2.628392 -2.140253,-4.156256 -0.129052,-0.554515 -0.259287,-0.936129 -0.241114,-1.508159 0.02997,-0.943288 0.519822,-1.71697 1.174062,-2.357754 -0.199507,-0.337016 -0.366364,-0.682262 -0.50993,-1.038649 -0.379925,0.05372 -0.761669,0.08295 -1.15277,0.07869 -0.227815,0.886981 -0.652917,1.698048 -1.454845,2.195644 -0.486305,0.301754 -0.88191,0.379774 -1.42666,0.545269 -1.529409,0.406714 -3.108573,0.345976 -4.66955,0.224615 -0.362632,-0.05047 -0.453163,-0.05004 -0.788382,-0.1462 -0.185567,-0.05324 -0.34906,-0.123564 -0.494972,-0.209089 z M 72.52404,32.901477 c 1.828505,-0.822128 3.552759,-1.876336 5.26754,-2.912709 2.865804,-1.737876 5.54728,-3.794206 7.773813,-6.312296 0.378102,-0.427614 0.72209,-0.883376 1.083222,-1.325415 1.027219,-1.31296 1.980132,-2.687093 2.837245,-4.117376 0.398172,-0.664434 0.965731,-1.669096 1.25086,-2.412647 0.124741,-0.325338 0.196728,-0.668664 0.292997,-1.003581 -1.407213,-0.495166 -2.905489,-0.570175 -4.379832,-0.695159 -0.01622,3.26e-4 -0.0352,-6.54e-4 -0.0516,-4.7e-4 -0.109187,0.425385 -0.348869,0.788918 -0.801154,0.926701 -0.09532,0.02903 -0.196562,0.0353 -0.29458,0.0532 -0.04896,0.0057 -0.384766,0.04922 -0.845131,0.0849 l 0.683628,1.147953 c -0.212929,0.161867 -0.421906,0.320395 -0.693288,0.368779 -0.173445,0.02273 -0.239851,0.05197 -0.410576,-0.01152 -0.529948,-0.197063 -1.051482,-0.802685 -1.500255,-1.479607 -0.810571,-0.0502 -1.594203,-0.198083 -2.029813,-0.558479 -0.140344,-0.116108 -0.148224,-0.188238 -0.215263,-0.34981 -0.09379,-0.259217 -0.06099,-0.51946 -0.02727,-0.784795 l 1.335971,0.01806 c -0.199281,-0.416531 -0.33123,-0.730059 -0.350731,-0.775335 -0.03351,-0.09383 -0.07701,-0.183673 -0.09953,-0.280735 -0.106819,-0.460582 0.08817,-0.849919 0.40197,-1.157171 -0.008,-0.0143 -0.01838,-0.03024 -0.02621,-0.04445 -0.84529,-1.214154 -1.65976,-2.4744216 -2.791941,-3.4454665 -0.241915,0.2508284 -0.503251,0.4848341 -0.722627,0.7555336 -0.501393,0.6186916 -1.087652,1.6125569 -1.463984,2.2895999 -0.810105,1.457424 -1.523683,2.969736 -2.14713,4.515815 -0.202251,0.533768 -0.424958,1.059552 -0.606231,1.600805 -1.067464,3.187279 -1.509252,6.536694 -1.581395,9.887491 -0.04013,2.003065 -0.09092,4.023742 0.11129,6.018178 z m 9.25947,-18.365999 c 0.211922,0.01445 0.388391,0.02106 0.538309,-0.0027 -0.0015,-0.0026 -0.0033,-0.0047 -0.0048,-0.0073 -0.198075,0.0046 -0.315944,0.0038 -0.533497,0.01 z m 2.017908,1.165039 c -0.10338,-0.191333 -0.163131,-0.293281 -0.258107,-0.46701 -0.003,2.5e-5 -0.0057,-5.39e-4 -0.0087,-5.14e-4 0.05439,0.141705 0.148351,0.291229 0.266825,0.467534 z m -1.669352,-2.948442 c -0.82876,-1.352875 -0.574835,-0.646245 0,0 z m 3.039546,1.754883 c 0.846763,0.174457 1.585247,0.04129 0,0 z M 80.187675,7.1550158 c 0.265732,-0.00832 0.483474,-0.012326 0.795204,-0.025772 0.205579,-0.00887 -0.41321,-0.048258 -0.616709,-0.017767 -0.07005,0.010497 -0.117868,0.029973 -0.178495,0.043539 z M 90.991003,13.39232 c -0.01856,-0.05929 -0.0256,-0.110432 -0.05154,-0.17635 -0.07534,-0.191482 -0.418851,-0.707673 -0.323741,-0.525202 0.144221,0.276688 0.249621,0.467263 0.375283,0.701552 z"
       inkscape:path-effect="#path-effect2"
       inkscape:original-d="m 54.992188,41.631397 c -1.183895,-0.0078 -1.9855,-1.093104 -3.291016,-1.96875 -0.07547,-0.05062 0.0018,-0.182562 0.002,-0.273438 0.07589,-0.426334 0.13875,-0.868088 0.287109,-1.277344 0.05686,-0.156841 0.287569,-0.632479 0.355469,-0.77539 0.375471,-0.64341 0.665123,-1.367487 1.171875,-1.925782 0.09061,-0.09983 0.193886,-0.185792 0.291016,-0.279296 0.941475,-0.838748 2.169952,-1.226619 3.302734,-1.732422 0.861905,-0.333638 1.671942,-0.761982 2.384766,-1.353516 0.135753,-0.112654 0.212302,-0.190131 0.310547,-0.279297 -0.316328,-0.383521 -0.61993,-0.777478 -0.894532,-1.193359 -1.057402,-1.601421 -1.957068,-3.305784 -2.871093,-4.990235 -1.624218,-2.965465 -2.941546,-6.106322 -3.642578,-9.423828 -0.119648,-0.566202 -0.194878,-1.140605 -0.292969,-1.710937 -0.24542,-1.663198 -0.384708,-3.340957 -0.425781,-5.0214851 -0.01959,-0.801389 -0.02511,-1.92942 0.08008,-2.742187 0.04703,-0.363359 0.145697,-0.717139 0.21875,-1.076172 0.254513,-0.719306 0.570609,-1.467371 1.273437,-1.863281 1.816685,-1.023357 2.625462,-2.099483 4.333985,-2.015625 0.196502,0.0096 0.390778,0.049349 0.585937,0.074219 1.460017,0.313393 2.785727,0.990526 4.125,1.621093 1.339817,-0.63078 2.666356,-1.307575 4.126953,-1.621093 0.195159,-0.02487 0.389436,-0.064619 0.585938,-0.074219 1.708521,-0.083858 2.515346,0.992268 4.332031,2.015625 0.702828,0.39591 1.018924,1.143975 1.273437,1.863281 0.07305,0.359033 0.173673,0.712813 0.220704,1.076172 0.10519,0.812767 0.09967,1.940798 0.08008,2.742187 -0.04107,1.6805281 -0.180362,3.3582871 -0.425782,5.0214851 -0.09809,0.570332 -0.173322,1.144735 -0.292968,1.710937 -0.701034,3.317506 -2.018361,6.458363 -3.642578,9.423828 -0.914026,1.68445 -1.813692,3.388814 -2.871094,4.990235 -0.274884,0.416308 -0.57785,0.811419 -0.894532,1.195312 0.09788,0.08879 0.175472,0.165252 0.310547,0.277344 0.712824,0.591534 1.522861,1.019878 2.384766,1.353516 1.132782,0.505803 2.361259,0.893674 3.302734,1.732422 0.09713,0.0935 0.200402,0.179467 0.291016,0.279296 0.506752,0.558295 0.796404,1.282372 1.171875,1.925782 0.0679,0.142911 0.298613,0.618549 0.355469,0.77539 0.148359,0.409256 0.211222,0.85101 0.287109,1.277344 1.66e-4,0.09088 0.07547,0.222816 0,0.273438 -1.492019,1.000738 -2.325628,2.275804 -3.824219,1.902343 -0.33839,-0.08433 -0.414625,-0.129967 -0.753906,-0.267578 -1.412526,-0.675387 -2.810491,-1.412368 -3.931641,-2.529297 -0.38902,-0.415698 -0.692614,-0.681068 -0.96289,-1.185547 -0.445692,-0.831895 -0.408306,-1.74685 -0.16211,-2.628906 -0.341286,-0.19211 -0.658411,-0.407674 -0.960937,-0.644531 -0.302163,0.236488 -0.618148,0.452674 -0.958984,0.644531 0.246197,0.882056 0.283582,1.797011 -0.16211,2.628906 -0.270276,0.504479 -0.57387,0.769849 -0.96289,1.185547 -1.12115,1.116929 -2.519115,1.85391 -3.931641,2.529297 -0.339281,0.137612 -0.417469,0.183249 -0.755859,0.267578 -0.187324,0.04668 -0.364077,0.06752 -0.533203,0.06641 z m 7.304687,-12.701172 c 1.172468,-1.626236 2.138612,-3.401334 3.105469,-5.15625 1.612921,-2.937947 2.906983,-6.059519 3.576172,-9.353516 0.113639,-0.559375 0.18366,-1.126071 0.27539,-1.689453 0.233118,-1.650667 0.371298,-3.3171571 0.398438,-4.9843751 0.01261,-0.774503 0.0018,-1.928345 -0.123047,-2.714844 -0.05464,-0.344121 -0.16396,-0.677444 -0.248047,-1.015625 -1.466266,0.27478 -2.801315,0.958958 -4.140625,1.587891 -0.01388,0.00839 -0.03081,0.017032 -0.04492,0.025391 0.118134,0.422988 0.09233,0.857658 -0.230469,1.203124 -0.06803,0.072801 -0.152577,0.128852 -0.228515,0.19336 -0.03953,0.029459 -0.308608,0.235008 -0.689453,0.496094 l 1.166015,0.652343 c -0.103468,0.246645 -0.205183,0.488423 -0.416015,0.666016 -0.138844,0.106406 -0.181733,0.164932 -0.361328,0.195313 -0.55748,0.094312 -1.311953,-0.169405 -2.039063,-0.53125 -0.727073,0.361814 -1.479662,0.625557 -2.037109,0.53125 -0.179596,-0.030381 -0.222485,-0.088907 -0.361328,-0.195313 -0.210834,-0.177593 -0.312548,-0.419371 -0.416016,-0.666016 L 60.64844,7.5220219 C 60.267592,7.2609359 59.996557,7.0553869 59.957031,7.0259279 59.881093,6.9614199 59.798499,6.9053689 59.730469,6.8325679 59.40767,6.4871019 59.381866,6.0524319 59.5,5.6294439 c -0.01411,-0.00836 -0.03104,-0.017002 -0.04492,-0.025391 -1.339119,-0.628843 -2.674605,-1.313032 -4.140625,-1.587891 -0.08409,0.338181 -0.193411,0.671504 -0.248047,1.015625 -0.124873,0.786499 -0.135655,1.940341 -0.123047,2.714844 0.02714,1.667218 0.16532,3.3337081 0.398438,4.9843751 0.09173,0.563382 0.161752,1.130078 0.275391,1.689453 0.669189,3.293997 1.961297,6.415569 3.574218,9.353516 0.966777,1.754771 1.933132,3.530123 3.105469,5.15625 z M 61.132812,8.3950679 c 0.190754,-0.093448 0.346884,-0.175961 0.464844,-0.271484 -0.0026,-0.00152 -0.0052,-0.00238 -0.0078,-0.00391 -0.16923,0.103035 -0.271697,0.161294 -0.457032,0.27539 z m 2.330079,0 c -0.185196,-0.11401 -0.287916,-0.172424 -0.457032,-0.27539 -0.0026,0.00153 -0.0052,0.00238 -0.0078,0.00391 0.11796,0.095523 0.27409,0.178036 0.464844,0.271484 z m -2.919922,-1.71875 c -1.394165,-0.757244 -0.820944,-0.272247 0,0 z m 3.509765,0 c 0.820547,-0.272297 1.393508,-0.756869 0,0 z m -7.992187,-3.875 c 0.225972,-0.14007 0.412538,-0.252412 0.675781,-0.419921 0.173603,-0.110469 -0.381979,0.164812 -0.542969,0.292968 -0.05542,0.044118 -0.08709,0.084891 -0.132812,0.126953 z m 12.474609,0 c -0.04572,-0.042062 -0.07739,-0.082835 -0.132812,-0.126953 -0.16099,-0.128156 -0.716572,-0.403437 -0.542969,-0.292968 0.263243,0.167509 0.44981,0.279851 0.675781,0.419921 z"
       transform="matrix(1.1927872,0,0,1.1927872,-11.567232,0.36064)" />
  </g>
</svg>
