<?xml version="1.0" encoding="UTF-8" standalone="no"?>
<!-- Created with Inkscape (http://www.inkscape.org/) -->

<svg
   width="120"
   height="120"
   viewBox="0 0 120 120"
   version="1.1"
   id="svg1"
   inkscape:version="1.4 (86a8ad7, 2024-10-11)"
   sodipodi:docname="mand_24.svg"
   xmlns:inkscape="http://www.inkscape.org/namespaces/inkscape"
   xmlns:sodipodi="http://sodipodi.sourceforge.net/DTD/sodipodi-0.dtd"
   xmlns="http://www.w3.org/2000/svg"
   xmlns:svg="http://www.w3.org/2000/svg">
  <sodipodi:namedview
     id="namedview1"
     pagecolor="#ffffff"
     bordercolor="#000000"
     borderopacity="0.25"
     inkscape:showpageshadow="2"
     inkscape:pageopacity="0.0"
     inkscape:pagecheckerboard="0"
     inkscape:deskcolor="#d1d1d1"
     inkscape:document-units="px"
     inkscape:zoom="3.4383067"
     inkscape:cx="60.058632"
     inkscape:cy="60.058632"
     inkscape:window-width="3440"
     inkscape:window-height="1369"
     inkscape:window-x="-8"
     inkscape:window-y="-8"
     inkscape:window-maximized="1"
     inkscape:current-layer="layer1" />
  <defs
     id="defs1">
    <inkscape:path-effect
       effect="copy_rotate"
       starting_point="0,0"
       origin="49.809261,14.344438"
       id="path-effect2"
       is_visible="true"
       lpeversion="1.2"
       lpesatellites=""
       method="normal"
       num_copies="7"
       starting_angle="0"
       rotation_angle="51.428571"
       gap="-0.01"
       copies_to_360="true"
       mirror_copies="false"
       split_items="false"
       link_styles="false" />
  </defs>
  <g
     inkscape:label="Layer 1"
     inkscape:groupmode="layer"
     id="layer1">
    <path
       id="rect1"
       style="fill:#0000ff;stroke:none;stroke-width:0.245193"
       d="m 49.809261,14.342381 3.297408,3.297388 -0.0025,0.0025 3.298255,3.298235 3.298235,-3.298254 3.298235,-3.298255 -3.384605,-3.384585 -3.211058,-3.2110376 -3.209345,3.2093626 -0.08889,0.08889 z m 0.336936,-10e-7 3.046803,-3.046822 3.042589,3.042571 -0.0059,0.0059 0.0042,0.0042 -3.040878,3.040896 z m 6.428021,-0.0042 3.040032,-3.040049 3.046821,3.046804 -3.046804,3.046822 -3.042589,-3.042571 0.0068,-0.0068 z m -6.766565,0.005 4.633902,-0.522129 3.96e-4,0.0035 4.635092,-0.522264 -0.522263,-4.6350912 -0.522264,-4.6350923 -4.756441,0.5359365 -4.512553,0.508457 0.508187,4.5101718 0.01407,0.124919 z m 0.210075,-0.263427 -0.482451,-4.2817493 4.275801,-0.4817798 9.35e-4,0.00829 0.0059,-6.651e-4 0.481512,4.2734218 z m 4.004522,-5.0282482 -0.481377,-4.2722322 4.281749,-0.4824494 0.48245,4.2817497 -4.275801,0.4817799 -0.0011,-0.00956 z m -4.214994,5.2934162 2.480973,-3.948473 0.003,0.0019 2.481611,-3.9494874 -3.949486,-2.4816108 -3.949487,-2.4816106 -2.546581,4.0528869 -2.416003,3.8450732 3.843044,2.4147297 0.106441,0.06688 z m -0.07498,-0.328488 -3.648409,-2.292432 2.289248,-3.6433407 0.0071,0.00444 0.0032,-0.00503 3.641313,2.2879737 z m -1.434464,-6.2659229 -3.640299,-2.2873375 2.292433,-3.6484085 3.648409,2.2924326 -2.289247,3.6433407 -0.0081,-0.00512 z m 1.510554,6.5958059 -1.540179,-4.4015354 0.0033,-0.00117 -1.540575,-4.4026662 -4.402666,1.5405736 -4.402666,1.5405745 1.580907,4.5179312 1.499847,4.28627 4.28401,-1.499053 0.118655,-0.04152 z m -0.30357,-0.14619 -4.067041,1.423134 -1.421156,-4.061392 0.0079,-0.0028 -0.002,-0.0056 4.059132,-1.420365 z m -5.793269,-2.78523 -4.058002,1.419969 -1.423132,-4.0670412 4.067042,-1.423133 1.421156,4.0613912 -0.0091,0.0032 z m 6.098623,2.93142 -4.401544,-1.540152 0.0012,-0.0033 -4.402675,-1.540548 -1.540549,4.402675 -1.540548,4.402675 4.517941,1.580881 4.28628,1.499819 1.49903,-4.284018 0.04152,-0.118655 z m -0.303568,0.146192 -1.423108,4.06705 -4.0614,-1.421132 0.0028,-0.0079 -0.0056,-0.002 1.420341,-4.05914 z m -5.789624,2.792798 -1.419947,4.05801 -4.067049,-1.423109 1.423109,-4.067051 4.0614,1.421132 -0.0032,0.0091 z m 6.094305,-2.940385 -3.948457,2.480997 -0.0019,-0.003 -3.949473,2.481635 2.481634,3.949472 2.481634,3.949472 4.052872,-2.546605 3.845058,-2.416027 -2.414751,-3.84303 -0.06688,-0.106442 z m -0.07497,0.328488 2.292454,3.648395 -3.643327,2.289269 -0.0044,-0.0071 -0.005,0.0032 -2.287996,-3.6413 z m -1.426274,6.267792 2.287357,3.640287 -3.648395,2.292453 -2.292454,-3.648396 3.643327,-2.289269 0.0051,0.0081 z m 1.500851,-6.598021 -0.522101,4.633906 -0.0035,-3.96e-4 -0.522235,4.635095 4.635095,0.522237 4.635095,0.522235 0.535908,-4.756445 0.508429,-4.512555 -4.510175,-0.508162 -0.124919,-0.01408 z m 0.210077,0.263427 4.281752,0.482424 -0.481754,4.275804 -0.0083,-9.34e-4 -6.65e-4,0.0059 -4.273425,-0.481486 z m 4.011089,5.023011 4.272235,0.481353 -0.482425,4.281752 -4.281753,-0.482425 0.481755,-4.275804 0.0096,0.0011 z"
       inkscape:path-effect="#path-effect2"
       inkscape:original-d="m 49.809261,14.342381 3.297408,3.297388 -0.0025,0.0025 3.298255,3.298235 3.298235,-3.298254 3.298235,-3.298255 -3.384605,-3.384585 -3.211058,-3.2110376 -3.209345,3.2093626 -0.08889,0.08889 z m 0.336936,-10e-7 3.046803,-3.046822 3.042589,3.042571 -0.0059,0.0059 0.0042,0.0042 -3.040878,3.040896 z m 6.428021,-0.0042 3.040032,-3.040049 3.046821,3.046804 -3.046804,3.046822 -3.042589,-3.042571 0.0068,-0.0068 z"
       transform="matrix(4.4243891,0,0,4.4243891,-163.26466,-3.4658113)" />
  </g>
</svg>
