<?xml version="1.0" encoding="UTF-8" standalone="no"?>
<!-- Created with Inkscape (http://www.inkscape.org/) -->

<svg
   width="120"
   height="120"
   viewBox="0 0 120 120"
   version="1.1"
   id="svg1"
   inkscape:version="1.4 (86a8ad7, 2024-10-11)"
   sodipodi:docname="mand_14.svg"
   xmlns:inkscape="http://www.inkscape.org/namespaces/inkscape"
   xmlns:sodipodi="http://sodipodi.sourceforge.net/DTD/sodipodi-0.dtd"
   xmlns="http://www.w3.org/2000/svg"
   xmlns:svg="http://www.w3.org/2000/svg">
  <sodipodi:namedview
     id="namedview1"
     pagecolor="#ffffff"
     bordercolor="#000000"
     borderopacity="0.25"
     inkscape:showpageshadow="2"
     inkscape:pageopacity="0.0"
     inkscape:pagecheckerboard="0"
     inkscape:deskcolor="#d1d1d1"
     inkscape:document-units="px"
     inkscape:zoom="6.8766134"
     inkscape:cx="59.985922"
     inkscape:cy="45.443881"
     inkscape:window-width="3440"
     inkscape:window-height="1369"
     inkscape:window-x="-8"
     inkscape:window-y="-8"
     inkscape:window-maximized="1"
     inkscape:current-layer="layer1" />
  <defs
     id="defs1">
    <inkscape:path-effect
       effect="copy_rotate"
       starting_point="0,0"
       origin="60,16.863752"
       id="path-effect1"
       is_visible="true"
       lpeversion="1.2"
       lpesatellites=""
       method="normal"
       num_copies="8"
       starting_angle="0"
       rotation_angle="45"
       gap="-0.01"
       copies_to_360="true"
       mirror_copies="false"
       split_items="false"
       link_styles="false" />
  </defs>
  <g
     inkscape:label="Layer 1"
     inkscape:groupmode="layer"
     id="layer1">
    <path
       sodipodi:type="star"
       style="fill:none;stroke:#0000ff"
       id="path1"
       inkscape:flatsided="false"
       sodipodi:sides="8"
       sodipodi:cx="55.732647"
       sodipodi:cy="16.863752"
       sodipodi:r1="12.982387"
       sodipodi:r2="9.96597"
       sodipodi:arg1="0.78539816"
       sodipodi:arg2="1.1532813"
       inkscape:rounded="0"
       inkscape:randomized="0"
       d="m 64.912581,26.043686 -5.138831,-0.07005 -4.041103,3.872499 -3.584172,-3.683232 -5.595762,-0.119221 0.07005,-5.138831 -3.8725,-4.041103 3.683233,-3.584171 0.11922,-5.5957622 5.138831,0.070046 4.041103,-3.8724994 3.584172,3.6832321 5.595762,0.1192208 -0.07005,5.1388303 3.8725,4.041103 -3.683233,3.584172 z m 5.052332,-6.16246 -3.683233,3.584172 -0.11922,5.595762 -5.138831,-0.07005 -4.041103,3.872499 -3.584172,-3.683232 -5.595762,-0.119221 0.07005,-5.13883 -3.8725,-4.041103 3.683233,-3.584172 0.11922,-5.595762 5.138831,0.07005 4.041103,-3.872499 3.584172,3.683232 5.595762,0.119221 -0.07005,5.13883 z m -0.784979,-7.930055 -0.07005,5.138831 3.872499,4.041103 -3.683232,3.584172 -0.119221,5.595762 -5.138831,-0.07005 -4.041103,3.8725 -3.584171,-3.683233 -5.595762,-0.11922 0.07005,-5.138831 -3.872499,-4.041103 3.683232,-3.584172 0.119221,-5.595762 5.13883,0.07005 L 60,8.1487185 63.584172,11.831951 Z m -6.16246,-5.0523316 3.584172,3.6832326 5.595762,0.11922 -0.07005,5.138831 3.872499,4.041103 -3.683232,3.584172 -0.119221,5.595762 -5.13883,-0.07005 -4.041103,3.8725 -3.584172,-3.683233 -5.595762,-0.11922 0.07005,-5.138831 -3.872499,-4.041103 3.683232,-3.584172 0.119221,-5.595762 5.13883,0.07005 z m -7.930055,0.7849787 5.138831,0.070046 4.041103,-3.8724995 3.584172,3.6832322 5.595762,0.1192208 -0.07005,5.138831 3.8725,4.041103 -3.683233,3.584171 -0.11922,5.595762 -5.138831,-0.07005 -4.041103,3.872499 -3.584172,-3.683232 -5.595762,-0.119221 0.07005,-5.13883 -3.8725,-4.041103 3.683233,-3.584172 z m -5.052332,6.1624599 3.683233,-3.584172 0.11922,-5.5957621 5.138831,0.070046 4.041103,-3.87249943 3.584172,3.68323213 5.595762,0.1192208 -0.07005,5.1388305 3.8725,4.0411027 -3.683233,3.584172 -0.11922,5.595762 -5.138831,-0.07005 -4.041103,3.872499 -3.584172,-3.683232 -5.595762,-0.119221 0.07005,-5.13883 z m 0.784979,7.930055 0.07005,-5.138831 -3.872499,-4.041103 3.683232,-3.5841716 0.119221,-5.595762 5.138831,0.070046 L 60,-0.38598765 l 3.584171,3.68323215 5.595762,0.1192208 -0.07005,5.1388305 3.872499,4.0411032 -3.683232,3.584172 -0.119221,5.595762 -5.13883,-0.07005 L 60,25.578786 56.415828,21.895553 Z m 6.16246,5.052332 -3.584172,-3.683233 -5.595762,-0.11922 0.07005,-5.138831 -3.872499,-4.041103 3.683232,-3.584172 0.119221,-5.5957616 5.13883,0.070046 4.041103,-3.87249942 3.584172,3.68323212 5.595762,0.1192208 -0.07005,5.1388305 3.872499,4.0411032 -3.683232,3.584172 -0.119221,5.595762 -5.13883,-0.07005 z"
       inkscape:transform-center-y="-170.16798"
       inkscape:path-effect="#path-effect1"
       transform="matrix(3.2071389,0,0,3.2071389,-133.33733,6.7167146)"
       inkscape:transform-center-x="-2.1804627e-06" />
  </g>
</svg>
