<?xml version="1.0" encoding="UTF-8" standalone="no"?>
<!-- Created with Inkscape (http://www.inkscape.org/) -->

<svg
   width="120"
   height="120"
   viewBox="0 0 120 120"
   version="1.1"
   id="svg1"
   inkscape:version="1.4 (86a8ad7, 2024-10-11)"
   sodipodi:docname="mand_27.svg"
   xmlns:inkscape="http://www.inkscape.org/namespaces/inkscape"
   xmlns:sodipodi="http://sodipodi.sourceforge.net/DTD/sodipodi-0.dtd"
   xmlns="http://www.w3.org/2000/svg"
   xmlns:svg="http://www.w3.org/2000/svg">
  <sodipodi:namedview
     id="namedview1"
     pagecolor="#ffffff"
     bordercolor="#000000"
     borderopacity="0.25"
     inkscape:showpageshadow="2"
     inkscape:pageopacity="0.0"
     inkscape:pagecheckerboard="0"
     inkscape:deskcolor="#d1d1d1"
     inkscape:document-units="px"
     inkscape:zoom="9.725"
     inkscape:cx="60"
     inkscape:cy="16.606684"
     inkscape:window-width="3440"
     inkscape:window-height="1369"
     inkscape:window-x="-8"
     inkscape:window-y="-8"
     inkscape:window-maximized="1"
     inkscape:current-layer="layer1" />
  <defs
     id="defs1">
    <inkscape:path-effect
       effect="copy_rotate"
       starting_point="0,0"
       origin="48.739095,34.755649"
       id="path-effect3"
       is_visible="true"
       lpeversion="1.2"
       lpesatellites=""
       method="normal"
       num_copies="8"
       starting_angle="0"
       rotation_angle="45"
       gap="-0.01"
       copies_to_360="true"
       mirror_copies="false"
       split_items="false"
       link_styles="false" />
  </defs>
  <g
     inkscape:label="Layer 1"
     inkscape:groupmode="layer"
     id="layer1">
    <path
       id="path1"
       style="fill:#0000ff"
       d="m 66.324951,24.603061 -8.804119,5.056536 -8.781737,5.096213 8.78134,5.095741 8.803534,5.056686 0.02278,-10.152278 z m -0.398803,0.689927 0.02088,9.462713 1.13e-4,0.04724 -4.184875,-2.396104 -4.137754,-2.344616 0.09653,-0.05522 z m 0.02003,9.511651 -0.02115,9.41412 -8.104884,-4.657419 3.970636,-2.310662 z m -8.380446,-4.706181 0.01571,4.75569 0.0393,4.591627 -8.083887,-4.690415 z m -3.570523,-14.956851 -2.649941,9.800963 -2.606059,9.813193 9.812578,-2.606112 9.800655,-2.649422 -7.162636,-7.194852 z m 0.205856,0.769849 6.705913,6.676384 0.03348,0.03332 -4.653455,1.264853 -4.583728,1.26794 0.02921,-0.107304 z m 6.739916,6.711589 6.641833,6.671743 -9.024311,2.437726 1.173779,-4.441548 z m -9.253642,2.598098 3.373889,3.351672 3.27456,3.218981 -9.032796,2.399547 z m -13.100832,-8.05135 5.056536,8.804119 5.096213,8.781737 5.095741,-8.78134 5.056686,-8.803534 -10.152278,-0.02278 z m 0.689927,0.398803 9.462713,-0.02088 0.04724,-1.13e-4 -2.396104,4.184875 -2.344616,4.137754 -0.05522,-0.09653 z m 9.511651,-0.02003 9.41412,0.02115 -4.657419,8.104884 -2.310662,-3.970636 z m -4.706181,8.380446 4.75569,-0.01571 4.591627,-0.0393 -4.690415,8.083887 z m -14.956851,3.570523 9.800963,2.649941 9.813193,2.606059 -2.606112,-9.812578 -2.649422,-9.800655 -7.194852,7.162636 z m 0.769849,-0.205856 6.676384,-6.705913 0.03332,-0.03348 1.264853,4.653455 1.26794,4.583728 -0.107304,-0.02921 z m 6.711589,-6.739916 6.671743,-6.641833 2.437726,9.024311 -4.441548,-1.173779 z m 2.598098,9.253642 3.351672,-3.373889 3.218981,-3.27456 2.399547,9.032796 z m -8.05135,13.100832 8.804119,-5.056536 8.781737,-5.096213 -8.78134,-5.095741 -8.803534,-5.056686 -0.02278,10.152278 z m 0.398803,-0.689927 -0.02088,-9.462713 -1.13e-4,-0.04724 4.184875,2.396104 4.137754,2.344616 -0.09653,0.05522 z m -0.02003,-9.511651 0.02115,-9.41412 8.104884,4.657419 -3.970636,2.310662 z m 8.380446,4.706181 -0.01571,-4.75569 -0.0393,-4.591627 8.083887,4.690415 z m 3.570523,14.956851 2.649941,-9.800963 2.606059,-9.813193 -9.812578,2.606112 -9.800655,2.649422 7.162636,7.194852 z m -0.205856,-0.769849 -6.705913,-6.676384 -0.03348,-0.03332 4.653455,-1.264853 4.583728,-1.26794 -0.02921,0.107304 z m -6.739916,-6.711589 -6.641833,-6.671743 9.024311,-2.437726 -1.173779,4.441548 z m 9.253642,-2.598098 -3.373889,-3.351672 -3.27456,-3.218981 9.032796,-2.399547 z m 13.100832,8.05135 -5.056536,-8.804119 -5.096213,-8.781737 -5.095741,8.78134 -5.056686,8.803534 10.152278,0.02278 z m -0.689927,-0.398803 -9.462713,0.02088 -0.04724,1.13e-4 2.396104,-4.184875 2.344616,-4.137754 0.05522,0.09653 z m -9.511651,0.02003 -9.41412,-0.02115 4.657419,-8.104884 2.310662,3.970636 z m 4.706181,-8.380446 -4.75569,0.01571 -4.591627,0.0393 4.690415,-8.083887 z m 14.956851,-3.570523 -9.800963,-2.649941 -9.813193,-2.606059 2.606112,9.812578 2.649422,9.800655 7.194852,-7.162636 z m -0.769849,0.205856 -6.676384,6.705913 -0.03332,0.03348 -1.264853,-4.653455 -1.26794,-4.583728 0.107304,0.02921 z m -6.711589,6.739916 -6.671743,6.641833 -2.437726,-9.024311 4.441548,1.173779 z m -2.598098,-9.253642 -3.351672,3.373889 -3.218981,3.27456 -2.399547,-9.032796 z"
       transform="matrix(2.4302713,-1.3810464,1.3810464,2.4302713,-106.44839,42.845295)"
       inkscape:path-effect="#path-effect3"
       inkscape:original-d="m 66.324951,24.603061 -8.804119,5.056536 -8.781737,5.096213 8.78134,5.095741 8.803534,5.056686 0.02278,-10.152278 z m -0.398803,0.689927 0.02088,9.462713 1.13e-4,0.04724 -4.184875,-2.396104 -4.137754,-2.344616 0.09653,-0.05522 z m 0.02003,9.511651 -0.02115,9.41412 -8.104884,-4.657419 3.970636,-2.310662 z m -8.380446,-4.706181 0.01571,4.75569 0.0393,4.591627 -8.083887,-4.690415 z" />
  </g>
</svg>
