<?xml version="1.0" encoding="UTF-8" standalone="no"?>
<!-- Created with Inkscape (http://www.inkscape.org/) -->

<svg
   width="120"
   height="120"
   viewBox="0 0 120 120"
   version="1.1"
   id="svg1"
   inkscape:version="1.4 (86a8ad7, 2024-10-11)"
   sodipodi:docname="mand_19.svg"
   xmlns:inkscape="http://www.inkscape.org/namespaces/inkscape"
   xmlns:sodipodi="http://sodipodi.sourceforge.net/DTD/sodipodi-0.dtd"
   xmlns="http://www.w3.org/2000/svg"
   xmlns:svg="http://www.w3.org/2000/svg">
  <sodipodi:namedview
     id="namedview1"
     pagecolor="#ffffff"
     bordercolor="#000000"
     borderopacity="0.25"
     inkscape:showpageshadow="2"
     inkscape:pageopacity="0.0"
     inkscape:pagecheckerboard="0"
     inkscape:deskcolor="#d1d1d1"
     inkscape:document-units="px"
     inkscape:zoom="4.8625"
     inkscape:cx="59.948586"
     inkscape:cy="59.948586"
     inkscape:window-width="3440"
     inkscape:window-height="1369"
     inkscape:window-x="-8"
     inkscape:window-y="-8"
     inkscape:window-maximized="1"
     inkscape:current-layer="layer1" />
  <defs
     id="defs1">
    <inkscape:path-effect
       effect="copy_rotate"
       starting_point="0,0"
       origin="70.230469,34.753906"
       id="path-effect2"
       is_visible="true"
       lpeversion="1.2"
       lpesatellites=""
       method="normal"
       num_copies="11"
       starting_angle="0"
       rotation_angle="32.727273"
       gap="-0.01"
       copies_to_360="true"
       mirror_copies="false"
       split_items="false"
       link_styles="false" />
  </defs>
  <g
     inkscape:label="Layer 1"
     inkscape:groupmode="layer"
     id="layer1">
    <path
       id="path1"
       style="fill:none;stroke:#0000ff"
       d="m 70.230469,21.611328 v 13.144531 13.140625 c 1.588312,-0.712445 3.034238,-1.707057 4.267578,-2.935546 1.23334,1.228489 2.679266,2.223101 4.267578,2.935546 V 34.755859 21.611328 c -1.58816,0.711859 -3.034077,1.705803 -4.267578,2.933594 -1.233501,-1.227791 -2.679418,-2.221735 -4.267578,-2.933594 z m -7.105414,2.086338 7.10647,11.057883 7.104358,11.054597 c 0.950996,-1.458053 1.629659,-3.076501 2.003039,-4.776765 1.701723,0.366677 3.455841,0.421671 5.177191,0.162311 L 77.411755,30.141095 70.305285,19.083212 c -0.951185,1.457479 -1.630201,3.075358 -2.004094,4.775123 -1.701482,-0.366002 -3.45523,-0.420439 -5.176136,-0.160669 z m -4.849495,5.596616 11.956686,5.460435 11.953132,5.458813 c 0.01175,-1.740739 -0.292325,-3.469177 -0.89745,-5.101395 1.629821,-0.611553 3.135211,-1.513637 4.443082,-2.662456 L 73.777877,26.990866 61.821191,21.530431 c -0.01221,1.740358 0.291252,3.468509 0.895675,5.100584 -1.629253,0.61199 -3.134031,1.514342 -4.441306,2.663267 z m -1.053897,7.330008 13.010739,-1.870662 13.006873,-1.870106 c -0.931234,-1.470753 -2.121499,-2.760414 -3.513007,-3.806368 1.040463,-1.395619 1.819174,-2.968376 2.298327,-4.641912 l -13.006872,1.870106 -13.010739,1.870661 c 0.930632,1.470688 2.120234,2.760434 3.511074,3.806647 -1.039749,1.395679 -1.8178,2.968331 -2.296395,4.641634 z m 3.076308,6.736174 9.933974,-8.607837 9.931022,-8.605279 c -1.578553,-0.733814 -3.277111,-1.17524 -5.013207,-1.302847 0.120764,-1.736585 -0.07444,-3.480675 -0.576132,-5.147594 l -9.931022,8.60528 -9.933973,8.607837 c 1.578011,0.734083 3.276057,1.175939 5.011731,1.304124 -0.120131,1.736251 0.07557,3.479896 0.577607,5.146316 z m 6.229806,4.003653 3.703242,-12.612085 3.702142,-12.608337 c -1.724693,0.236107 -3.392264,0.783065 -4.92175,1.61432 -0.837275,-1.526199 -1.944417,-2.887886 -3.267672,-4.018952 l -3.702142,12.608338 -3.703242,12.612085 c 1.724382,-0.235588 3.391755,-0.781908 4.9212,-1.612447 0.837627,1.525574 1.944947,2.886618 3.268222,4.017078 z m 7.405384,0 -3.703242,-12.612085 -3.702142,-12.608337 c -1.323255,1.131065 -2.430397,2.492753 -3.267672,4.018951 -1.529487,-0.831255 -3.197057,-1.378213 -4.92175,-1.61432 l 3.702142,12.608337 3.703242,12.612086 c 1.323275,-1.130461 2.430595,-2.491504 3.268222,-4.017079 1.529445,0.83054 3.196817,1.37686 4.9212,1.612447 z m 6.229806,-4.003653 -9.933974,-8.607837 -9.931022,-8.605279 c -0.501693,1.666918 -0.696896,3.411009 -0.576131,5.147594 -1.736096,0.127606 -3.434654,0.569033 -5.013207,1.302846 l 9.931021,8.60528 9.933974,8.607837 c 0.502037,-1.66642 0.697738,-3.410066 0.577607,-5.146316 1.735674,-0.128186 3.433721,-0.570042 5.011732,-1.304125 z M 83.239275,36.62429 70.228536,34.753628 57.221663,32.883522 c 0.479154,1.673537 1.257865,3.246294 2.298327,4.641912 -1.391507,1.045954 -2.581772,2.335615 -3.513006,3.806369 l 13.006873,1.870105 13.010738,1.870662 C 81.546,43.399267 80.767949,41.826615 79.728201,40.430936 81.11904,39.384723 82.308642,38.094977 83.239275,36.62429 Z M 82.185378,29.294282 70.228692,34.754717 58.27556,40.21353 c 1.307871,1.148819 2.813261,2.050903 4.443082,2.662456 -0.605125,1.632218 -0.909196,3.360656 -0.897451,5.101395 L 73.774324,42.518568 85.73101,37.058133 c -1.307275,-1.148925 -2.812053,-2.051277 -4.441307,-2.663267 0.604424,-1.632075 0.907891,-3.360226 0.895675,-5.100584 z m -4.849495,-5.596616 -7.10647,11.057883 -7.104358,11.054597 c 1.72135,0.259359 3.475468,0.204366 5.177191,-0.162311 0.37338,1.700264 1.052043,3.318712 2.003039,4.776765 l 7.104358,-11.054597 7.10647,-11.057883 c -1.720905,-0.259771 -3.474654,-0.205334 -5.176135,0.160669 -0.373894,-1.699765 -1.05291,-3.317645 -2.004095,-4.775123 z"
       inkscape:path-effect="#path-effect2"
       inkscape:original-d="m 70.230469,21.611328 v 13.144531 13.140625 a 14.395886,14.395886 0 0 0 4.267578,-2.935546 14.395886,14.395886 0 0 0 4.267578,2.935546 V 34.755859 21.611328 a 14.395886,14.395886 0 0 0 -4.267578,2.933594 14.395886,14.395886 0 0 0 -4.267578,-2.933594 z"
       transform="matrix(3.4760829,0,0,3.4760829,-184.08839,-60.807794)" />
  </g>
</svg>
