<?xml version="1.0" encoding="UTF-8" standalone="no"?>
<!-- Created with Inkscape (http://www.inkscape.org/) -->

<svg
   width="120"
   height="120"
   viewBox="0 0 120 120"
   version="1.1"
   id="svg1"
   inkscape:version="1.4 (86a8ad7, 2024-10-11)"
   sodipodi:docname="mand_38.svg"
   xmlns:inkscape="http://www.inkscape.org/namespaces/inkscape"
   xmlns:sodipodi="http://sodipodi.sourceforge.net/DTD/sodipodi-0.dtd"
   xmlns="http://www.w3.org/2000/svg"
   xmlns:svg="http://www.w3.org/2000/svg">
  <sodipodi:namedview
     id="namedview1"
     pagecolor="#ffffff"
     bordercolor="#000000"
     borderopacity="0.25"
     inkscape:showpageshadow="2"
     inkscape:pageopacity="0.0"
     inkscape:pagecheckerboard="0"
     inkscape:deskcolor="#d1d1d1"
     inkscape:document-units="px"
     inkscape:zoom="9.725"
     inkscape:cx="60"
     inkscape:cy="60"
     inkscape:window-width="3440"
     inkscape:window-height="1369"
     inkscape:window-x="-8"
     inkscape:window-y="-8"
     inkscape:window-maximized="1"
     inkscape:current-layer="layer1" />
  <defs
     id="defs1">
    <inkscape:path-effect
       effect="copy_rotate"
       starting_point="0,0"
       origin="60,60"
       id="path-effect3"
       is_visible="true"
       lpeversion="1.2"
       lpesatellites=""
       method="normal"
       num_copies="27"
       starting_angle="0"
       rotation_angle="13.333333"
       gap="-0.01"
       copies_to_360="true"
       mirror_copies="false"
       split_items="false"
       link_styles="false" />
  </defs>
  <g
     inkscape:label="Layer 1"
     inkscape:groupmode="layer"
     id="layer1">
    <path
       id="rect1"
       style="fill:#0000ff"
       d="m 56.75827,14.264803 -2.896418,2.7729 -4.224003,4.043869 6.816771,7.120422 7.120421,-6.816769 -4.04387,-4.224003 z m 2.411731,3.242187 3.698101,3.862832 -3.501662,3.352333 -2.7729,-2.896418 -2.896418,2.7729 -3.352334,-3.501662 3.862832,-3.698102 2.427133,2.535249 z m -12.871612,-1.261794 -2.17887,3.366116 -3.177564,4.908988 8.275106,5.356434 5.356434,-8.275104 -4.908989,-3.177564 z m 3.094422,2.59861 4.489249,2.905868 -2.634173,4.069509 -3.366116,-2.17887 -2.17887,3.366116 -4.06951,-2.634173 2.905867,-4.489249 2.946378,1.907175 z m -12.815646,1.740615 -1.343858,3.777864 -1.959822,5.509462 9.287329,3.303681 3.30368,-9.287327 -5.509463,-1.959821 z m 3.610293,1.814941 5.038379,1.792248 -1.624675,4.567297 -3.777864,-1.343858 -1.343858,3.777864 -4.567298,-1.624675 1.792247,-5.03838 3.306783,1.176286 z m -12.068785,4.649188 -0.436399,3.985947 -0.636425,5.81292 9.798868,1.072824 1.072824,-9.798867 -5.812921,-0.636424 z m 3.931531,0.933429 5.31589,0.582007 -0.527591,4.818861 -3.985946,-0.436399 -0.436399,3.985946 -4.818862,-0.527589 0.582007,-5.315892 3.488918,0.381983 z m -10.671293,7.307122 0.494586,3.979145 0.721282,5.803002 9.782149,-1.215869 -1.215868,-9.782147 -5.803003,0.721282 z m 4.040819,0.0016 5.30682,-0.659609 0.597937,4.810639 -3.979146,0.494586 0.494587,3.979146 -4.810639,0.597937 -0.65961,-5.306821 3.482965,-0.432914 z m -8.698508,9.571128 1.398909,3.757827 2.040103,5.480242 9.238071,-3.439014 -3.439012,-9.238069 -5.480243,2.040104 z m 3.932266,-0.930326 5.011658,-1.865666 1.691228,4.543073 -3.757827,1.398909 1.398909,3.757828 -4.543074,1.691229 -1.865667,-5.011658 3.289244,-1.224472 z m -6.256785,11.31915 2.227816,3.333924 3.248943,4.862042 8.195966,-5.476761 -5.476758,-8.195965 -4.862042,3.248944 z m 3.611723,-1.812091 4.446316,-2.971145 2.693346,4.03059 -3.333924,2.227816 2.227816,3.333924 -4.030591,2.693347 -2.971145,-4.446315 2.9182,-1.950018 z m -3.477756,12.456955 2.93662,2.730288 4.282631,3.981726 6.712016,-7.219254 -7.219252,-6.712014 -3.981727,4.282632 z m 3.096472,-2.596167 3.641271,-3.916449 3.550265,3.300817 -2.730288,2.936621 2.93662,2.730288 -3.300817,3.550266 -3.916449,-3.641272 2.389835,-2.570438 z m -0.511242,12.923202 3.487111,1.979461 5.085442,2.886756 4.866217,-8.572555 -8.572553,-4.866217 -2.886755,5.085442 z m 2.414288,-3.240283 2.639926,-4.650615 4.215788,2.393096 -1.979462,3.487111 3.487111,1.979461 -2.393095,4.215789 -4.650616,-2.639925 1.732633,-3.052285 z m 2.482835,12.692756 3.84961,1.121922 5.614095,1.636159 2.758081,-9.463708 -9.463706,-2.758081 -1.636159,5.614096 z m 1.60195,-3.709714 1.49626,-5.134065 4.654037,1.356362 -1.121922,3.84961 3.849611,1.121922 -1.356361,4.654037 -5.134066,-1.496259 0.982023,-3.369584 z m 5.34306,11.77804 4.004577,0.203899 5.840091,0.297357 0.501255,-9.844669 -9.844668,-0.501256 -0.297356,5.840091 z m 0.703251,-3.979153 0.271932,-5.340737 4.841385,0.246506 -0.203899,4.004577 4.004577,0.203899 -0.246505,4.841385 -5.340739,-0.27193 0.178474,-3.505226 z m 7.915241,10.228367 3.943655,-0.725116 5.751245,-1.057476 -1.782593,-9.694902 -9.694901,1.782592 1.057477,5.751246 z m -0.233361,-4.034075 -0.967058,-5.259489 4.767733,-0.876639 0.725117,3.943656 3.943655,-0.725117 0.876639,4.767734 -5.259489,0.967058 -0.634698,-3.451901 z m 10.060707,8.127276 3.67013,-1.61504 5.35235,-2.3553 -3.970342,-9.022477 -9.02248,3.97034 2.355301,5.352347 z m -1.157392,-3.87152 -2.153912,-4.894695 4.437051,-1.952524 1.61504,3.67013 3.670131,-1.61504 1.952524,4.437052 -4.8947,2.153917 -1.413653,-3.212488 z m 11.663799,5.58805 3.198748,-2.41789 4.664906,-3.526152 -5.944048,-7.863655 -7.863654,5.944046 3.52615,4.664911 z m -2.019029,-3.50025 -3.224648,-4.266032 3.867167,-2.923147 2.417897,3.198747 3.198748,-2.417897 2.923148,3.867167 -4.266036,3.224652 -2.116397,-2.79988 z m 12.638094,2.74757 2.554919,-3.0904 3.725978,-4.506907 -7.597309,-6.280897 -6.280897,7.597307 4.506904,3.725977 z m -2.771819,-2.94028 -4.121543,-3.407389 3.088803,-3.736184 3.090404,2.554919 2.55492,-3.090404 3.736184,3.088803 -3.407389,4.121545 -2.705046,-2.236334 z m 12.931064,-0.24104 1.773355,-3.596307 2.58618,-5.244688 -8.840997,-4.359535 -4.359535,8.840995 5.244689,2.586175 z m -3.375179,-2.221798 -4.796244,-2.36505 2.14392,-4.347802 3.596307,1.773355 1.773355,-3.596307 4.347803,2.143921 -2.36505,4.796245 -3.147865,-1.552226 z m 12.526918,-3.216652 0.896189,-3.908332 1.30696,-5.699731 -9.608064,-2.203149 -2.20315,9.608063 5.699732,1.30696 z m -3.796582,-1.38354 -5.21238,-1.195209 1.083459,-4.725028 3.908332,0.896188 0.896189,-3.908332 4.725028,1.083459 -1.195208,5.21238 -3.420982,-0.784439 z m 11.447442,-6.018852 -0.02929,-4.009658 -0.04272,-5.8475 -9.857159,0.07201 0.07201,9.857157 5.8475,-0.04272 z m -4.013312,-0.470695 -5.347513,0.03906 -0.03541,-4.847527 4.009657,-0.02929 -0.02929,-4.009658 4.847527,-0.03541 0.03907,5.347514 -3.509673,0.02564 z m 9.750835,-8.496575 -0.9532,-3.894822 -1.390087,-5.680028 -9.574852,2.343286 2.343285,9.57485 5.680029,-1.390093 z m -4.013684,0.467527 -5.194361,1.271233 -1.152375,-4.708695 3.894822,-0.953192 -0.953193,-3.894822 4.708695,-1.152375 1.271234,5.194361 -3.409156,0.834335 z m 7.528554,-10.516246 -1.82571,-3.570015 -2.66253,-5.206345 -8.776357,4.488235 4.488233,8.77636 5.206344,-2.662527 z m -3.79768,1.380543 -4.761176,2.43487 -2.207211,-4.316016 3.570014,-1.825707 -1.825707,-3.570015 4.31602,-2.207213 2.43487,4.761181 -3.124855,1.59805 z m 4.90041,-11.968982 -2.5998,-3.052748 -3.79142,-4.451987 -7.504736,6.391223 6.391221,7.504734 4.451985,-3.791424 z m -3.37693,2.219134 -4.071323,3.467241 -3.143058,-3.690659 3.052747,-2.599797 -2.599797,-3.052747 3.690659,-3.143059 3.467242,4.071322 -2.67209,2.275615 z m 2.00808,-12.776468 -3.23374,-2.370906 -4.715919,-3.457621 -5.828527,7.949657 7.949655,5.828527 3.457621,-4.715925 z m -2.77414,2.938091 -3.161981,4.312692 -3.90946,-2.866337 2.370906,-3.233731 -3.233732,-2.370906 2.866338,-3.909462 4.312689,3.161978 -2.075262,2.830501 z m -0.99251,-12.895172 -3.693333,-1.561248 -5.386188,-2.276853 -3.838101,9.079524 9.079522,3.838101 2.276852,-5.386189 z m -2.02179,3.498655 -2.082171,4.925646 -4.465104,-1.887492 1.561248,-3.693334 -3.693334,-1.561248 1.887491,-4.465104 4.925646,2.082171 -1.366568,3.232793 z m -3.939585,-12.318693 -3.953828,-0.667423 -5.766081,-0.973339 -1.640762,9.719911 9.719909,1.640763 0.973339,-5.766082 z m -1.160447,3.870606 -0.890115,5.273055 -4.780031,-0.806889 0.667423,-3.953829 -3.953828,-0.667423 0.806889,-4.780032 5.273057,0.890114 -0.584199,3.460805 z m -6.674279,-11.07811 -4.001171,0.262383 -5.835123,0.382646 0.645031,9.836296 9.836293,-0.64503 -0.382647,-5.835123 z m -0.236545,4.03389 0.349929,5.336194 -4.837266,0.317211 -0.262383,-4.00117 -4.001171,0.262383 -0.317212,-4.837268 5.336195,-0.34993 0.229665,3.502245 z m -9.049161,-9.240304 -3.832809,1.178044 -5.589592,1.718005 2.89605,9.422402 9.422401,-2.896048 -1.718005,-5.589592 z m 0.700111,3.979707 1.571108,5.111658 -4.633724,1.424211 -1.178044,-3.832809 -3.832809,1.178044 -1.424212,-4.633724 5.111658,-1.571109 1.031148,3.354877 z m -10.9362,-6.904349 -3.45782,2.030196 -5.042725,2.960744 4.990942,8.500545 8.500544,-4.99094 -2.960745,-5.042725 z m 1.599022,3.710977 2.707588,4.611549 -4.180375,2.454432 -2.030197,-3.45782 -3.457819,2.030197 -2.454433,-4.180376 4.61155,-2.707589 1.777041,3.026647 z"
       inkscape:path-effect="#path-effect3"
       inkscape:original-d="m 56.75827,14.264803 -2.896418,2.7729 -4.224003,4.043869 6.816771,7.120422 7.120421,-6.816769 -4.04387,-4.224003 z m 2.411731,3.242187 3.698101,3.862832 -3.501662,3.352333 -2.7729,-2.896418 -2.896418,2.7729 -3.352334,-3.501662 3.862832,-3.698102 2.427133,2.535249 z"
       transform="matrix(1.2325314,0,0,1.2325314,-14.101645,-13.993233)" />
  </g>
</svg>
