<?xml version="1.0" encoding="UTF-8" standalone="no"?>
<!-- Created with Inkscape (http://www.inkscape.org/) -->

<svg
   width="120"
   height="120"
   viewBox="0 0 120 120"
   version="1.1"
   id="svg1"
   inkscape:version="1.4 (86a8ad7, 2024-10-11)"
   sodipodi:docname="mand_50.svg"
   xmlns:inkscape="http://www.inkscape.org/namespaces/inkscape"
   xmlns:sodipodi="http://sodipodi.sourceforge.net/DTD/sodipodi-0.dtd"
   xmlns="http://www.w3.org/2000/svg"
   xmlns:svg="http://www.w3.org/2000/svg">
  <sodipodi:namedview
     id="namedview1"
     pagecolor="#ffffff"
     bordercolor="#000000"
     borderopacity="0.25"
     inkscape:showpageshadow="2"
     inkscape:pageopacity="0.0"
     inkscape:pagecheckerboard="0"
     inkscape:deskcolor="#d1d1d1"
     inkscape:document-units="px"
     inkscape:zoom="4.8625"
     inkscape:cx="59.948586"
     inkscape:cy="59.948586"
     inkscape:window-width="3440"
     inkscape:window-height="1369"
     inkscape:window-x="-8"
     inkscape:window-y="-8"
     inkscape:window-maximized="1"
     inkscape:current-layer="layer1" />
  <defs
     id="defs1">
    <inkscape:path-effect
       effect="copy_rotate"
       starting_point="0,0"
       origin="60,45"
       id="path-effect3"
       is_visible="true"
       lpeversion="1.2"
       lpesatellites=""
       method="normal"
       num_copies="24"
       starting_angle="0"
       rotation_angle="15"
       gap="-0.01"
       copies_to_360="true"
       mirror_copies="false"
       split_items="false"
       link_styles="false" />
  </defs>
  <g
     inkscape:label="Layer 1"
     inkscape:groupmode="layer"
     id="layer1">
    <path
       id="rect2"
       style="fill:#0000ff;stroke-width:0.5"
       d="m 51.72172,67.732485 -5.670685,5.670644 2.509391,2.50941 -1.381072,1.381063 2.107502,2.110279 1.382454,-1.382444 1.053751,1.053758 0.726444,-0.726439 1.053752,1.053759 2.108898,-2.108883 -1.053752,-1.05376 2.835343,-2.835321 z m 0.0013,11.34271 -5.672066,5.672026 5.670645,5.670685 5.672066,-5.672025 z m 6.164376,-9.974724 -4.009791,6.945103 3.073369,1.774425 -0.976568,1.691453 2.581871,1.492911 0.977545,-1.693144 1.290578,0.745121 0.513675,-0.889703 1.290579,0.745122 1.49122,-2.582848 -1.290579,-0.745123 2.004896,-3.47255 z m 2.936965,10.95588 -4.010767,6.946795 6.945104,4.00979 4.010767,-6.946794 z m 3.372681,-11.230301 -2.075636,7.746264 3.427902,0.918517 -0.505512,1.886572 2.88029,0.773804 0.506018,-1.888459 1.439454,0.385706 0.2659,-0.992337 1.439455,0.385706 0.771918,-2.880795 -1.439456,-0.385707 1.037818,-3.873131 z m 5.672481,9.822425 -2.076141,7.748151 7.746265,2.075635 2.076141,-7.748151 z m 0.351143,-11.720553 -2.9e-5,8.019531 3.548829,1.3e-5 -7e-6,1.953125 2.982422,0.002 7e-6,-1.955078 1.490234,5e-6 3e-6,-1.027343 1.490236,5e-6 1e-5,-2.982422 -1.490236,-6e-6 1.6e-5,-4.009764 z m 8.021427,8.019588 -2.9e-5,8.021485 8.019532,2.8e-5 2.9e-5,-8.021484 z m -2.694323,-11.412067 2.075579,7.74628 3.427908,-0.918492 0.5055,1.886575 2.881306,-0.770011 -0.506005,-1.888462 1.439457,-0.385696 -0.265893,-0.992339 1.439458,-0.385696 -0.771897,-2.880801 -1.439459,0.385696 -1.037788,-3.873139 z m 9.823725,5.670229 2.076085,7.748167 7.74628,-2.07558 -2.076085,-7.748166 z m -5.556177,-10.325867 4.00974,6.945131 3.073382,-1.774402 0.976557,1.691458 2.583834,-1.48951 -0.977532,-1.693151 1.290582,-0.745112 -0.513668,-0.889708 1.290584,-0.745113 -1.491202,-2.582858 -1.290585,0.745113 -2.004869,-3.472566 z m 10.956553,2.934453 4.010718,6.946824 6.945131,-4.009742 -4.010716,-6.946823 z m -8.039386,-8.535978 5.670644,5.670685 2.50941,-2.509391 1.381063,1.381072 2.110279,-2.107502 -1.382444,-1.382454 1.053758,-1.053751 -0.726439,-0.726444 1.053759,-1.053752 -2.108883,-2.108898 -1.05376,1.053752 -2.835321,-2.835343 z m 11.34271,-0.0013 5.672026,5.672066 5.670689,-5.670645 -5.672029,-5.672066 z m -9.974724,-6.164376 6.945103,4.009791 1.774425,-3.073369 1.691453,0.976568 1.492911,-2.581871 -1.693144,-0.977545 0.745121,-1.290578 -0.889703,-0.513675 0.745122,-1.290579 -2.582848,-1.49122 -0.745123,1.290579 -3.47255,-2.004896 z m 10.95588,-2.936965 6.946799,4.010767 4.00979,-6.945104 -6.946798,-4.010767 z m -11.230301,-3.372681 7.746264,2.075636 0.918517,-3.427902 1.886572,0.505512 0.773804,-2.88029 -1.888459,-0.506018 0.385706,-1.439454 -0.992337,-0.2659 0.385706,-1.439455 -2.880795,-0.771918 -0.385707,1.439456 -3.873131,-1.037818 z m 9.822425,-5.672481 7.748155,2.076141 2.07563,-7.746265 -7.74815,-2.076141 z m -11.720553,-0.351143 8.019531,2.9e-5 1.3e-5,-3.548829 1.953125,7e-6 0.002,-2.982422 -1.955078,-7e-6 5e-6,-1.490234 -1.027343,-3e-6 5e-6,-1.490236 -2.982422,-10e-6 -6e-6,1.490236 -4.009764,-1.6e-5 z m 8.019588,-8.021427 8.021485,2.9e-5 2.8e-5,-8.019532 -8.021484,-2.9e-5 z m -11.412067,2.694323 7.74628,-2.075579 -0.918492,-3.427908 1.886575,-0.5055 -0.770011,-2.881306 -1.888462,0.506005 -0.385696,-1.439457 -0.992339,0.265893 -0.385696,-1.439458 -2.880801,0.771897 0.385696,1.439459 -3.873139,1.037788 z m 5.670229,-9.823725 7.748167,-2.076085 -2.07558,-7.7462799 -7.748166,2.0760849 z m -10.325867,5.556177 6.945131,-4.00974 -1.774402,-3.073382 1.691458,-0.976557 -1.48951,-2.583834 -1.693151,0.977532 -0.745112,-1.290582 -0.889708,0.513668 -0.745113,-1.290584 -2.582858,1.491202 0.745113,1.290585 -3.472566,2.004869 z M 76.814258,14.228129 83.761082,10.217411 79.75134,3.2722795 72.804517,7.2829962 Z m -8.535978,8.039386 5.670685,-5.670644 -2.509391,-2.50941 1.381072,-1.381063 -2.107502,-2.110279 -1.382454,1.382444 -1.053751,-1.053758 -0.726444,0.726439 -1.053752,-1.053759 -2.108898,2.108883 1.053752,1.05376 -2.835343,2.835321 z m -0.0013,-11.34271 5.672066,-5.672026 -5.670645,-5.670685 -5.672066,5.672025 z m -6.164376,9.974724 4.009791,-6.945103 -3.073369,-1.774425 0.976568,-1.691453 -2.581871,-1.4929109 -0.977545,1.6931439 -1.290578,-0.7451213 -0.513675,0.8897033 -1.290579,-0.745122 -1.49122,2.582848 1.290579,0.745123 -2.004896,3.47255 z M 59.175639,9.9436491 63.186406,2.9968539 56.241302,-1.0129362 52.230535,5.9338579 Z m -3.372681,11.2303009 2.075636,-7.746264 -3.427902,-0.918517 0.505512,-1.886572 -2.88029,-0.7738039 -0.506018,1.8884589 -1.439454,-0.385706 -0.2659,0.992337 -1.439455,-0.385706 -0.771918,2.880795 1.439456,0.385707 -1.037818,3.873131 z M 50.130477,11.351525 52.206618,3.6033739 44.460353,1.5277391 42.384212,9.2758899 Z m -0.351143,11.720553 2.9e-5,-8.019531 -3.548829,-1.3e-5 7e-6,-1.953125 -2.982422,-0.002 -7e-6,1.955078 -1.490234,-5e-6 -3e-6,1.027343 -1.490236,-5e-6 -1e-5,2.982422 1.490236,6e-6 -1.6e-5,4.009764 z m -8.021427,-8.019588 2.9e-5,-8.0214845 -8.019532,-2.83e-5 -2.9e-5,8.0214838 z m 2.694323,11.412067 -2.075579,-7.74628 -3.427908,0.918492 -0.5055,-1.886575 -2.881306,0.770011 0.506005,1.888462 -1.439457,0.385696 0.265893,0.992339 -1.439458,0.385696 0.771897,2.880801 1.439459,-0.385696 1.037788,3.873139 z m -9.823725,-5.670229 -2.076085,-7.748167 -7.74628,2.07558 2.076085,7.748166 z m 5.556177,10.325867 -4.00974,-6.945131 -3.073382,1.774402 -0.976557,-1.691458 -2.583834,1.48951 0.977532,1.693151 -1.290582,0.745112 0.513668,0.889708 -1.290584,0.745113 1.491202,2.582858 1.290585,-0.745113 2.004869,3.472566 z m -10.956553,-2.934453 -4.010718,-6.946824 -6.945132,4.009742 4.010717,6.946823 z m 8.039386,8.535978 -5.670644,-5.670685 -2.50941,2.509391 -1.381063,-1.381072 -2.110279,2.107502 1.382444,1.382454 -1.053758,1.053751 0.726439,0.726444 -1.053759,1.053752 2.108883,2.108898 1.05376,-1.053752 2.835321,2.835343 z m -11.34271,0.0013 -5.672026,-5.672066 -5.670685,5.670645 5.672025,5.672066 z m 9.974724,6.164376 -6.945103,-4.009791 -1.774425,3.073369 -1.691453,-0.976568 -1.492911,2.581871 1.693144,0.977545 -0.745121,1.290578 0.889703,0.513675 -0.745122,1.290579 2.582848,1.49122 0.745123,-1.290579 3.47255,2.004896 z m -10.95588,2.936965 -6.946795,-4.010767 -4.00979,6.945104 6.946794,4.010767 z m 11.230301,3.372681 -7.746264,-2.075636 -0.918517,3.427902 -1.886572,-0.505512 -0.773804,2.88029 1.888459,0.506018 -0.385706,1.439454 0.992337,0.2659 -0.385706,1.439455 2.880795,0.771918 0.385707,-1.439456 3.873131,1.037818 z m -9.822425,5.672481 -7.748151,-2.076141 -2.075635,7.746265 7.748151,2.076141 z m 11.720553,0.351143 -8.019531,-2.9e-5 -1.3e-5,3.548829 -1.953125,-7e-6 -0.002,2.982422 1.955078,7e-6 -5e-6,1.490234 1.027343,3e-6 -5e-6,1.490236 2.982422,1e-5 6e-6,-1.490236 4.009764,1.6e-5 z m -8.019588,8.021427 -8.021485,-2.9e-5 -2.8e-5,8.019532 8.021484,2.9e-5 z m 11.412067,-2.694323 -7.74628,2.075579 0.918492,3.427908 -1.886575,0.5055 0.770011,2.881306 1.888462,-0.506005 0.385696,1.439457 0.992339,-0.265893 0.385696,1.439458 2.880801,-0.771897 -0.385696,-1.439459 3.873139,-1.037788 z m -5.670229,9.823725 -7.748167,2.076085 2.07558,7.74628 7.748166,-2.076085 z m 10.325867,-5.556177 -6.945131,4.00974 1.774402,3.073382 -1.691458,0.976557 1.48951,2.583834 1.693151,-0.977532 0.745112,1.290582 0.889708,-0.513668 0.745113,1.290584 2.582858,-1.491202 -0.745113,-1.290585 3.472566,-2.004869 z m -2.934453,10.956553 -6.946824,4.010718 4.009742,6.945132 6.946823,-4.010717 z"
       inkscape:path-effect="#path-effect3"
       inkscape:original-d="m 51.72172,67.732485 -5.670685,5.670644 2.509391,2.50941 -1.381072,1.381063 2.107502,2.110279 1.382454,-1.382444 1.053751,1.053758 0.726444,-0.726439 1.053752,1.053759 2.108898,-2.108883 -1.053752,-1.05376 2.835343,-2.835321 z m 0.0013,11.34271 -5.672066,5.672026 5.670645,5.670685 5.672066,-5.672025 z"
       transform="matrix(1.23018,0,0,1.2078325,-13.8108,5.6475375)" />
  </g>
</svg>
