<?xml version="1.0" encoding="UTF-8" standalone="no"?>
<!-- Created with Inkscape (http://www.inkscape.org/) -->

<svg
   width="120"
   height="120"
   viewBox="0 0 120 120"
   version="1.1"
   id="svg1"
   inkscape:version="1.4 (86a8ad7, 2024-10-11)"
   sodipodi:docname="mand_8.svg"
   xmlns:inkscape="http://www.inkscape.org/namespaces/inkscape"
   xmlns:sodipodi="http://sodipodi.sourceforge.net/DTD/sodipodi-0.dtd"
   xmlns="http://www.w3.org/2000/svg"
   xmlns:svg="http://www.w3.org/2000/svg">
  <sodipodi:namedview
     id="namedview1"
     pagecolor="#ffffff"
     bordercolor="#000000"
     borderopacity="0.25"
     inkscape:showpageshadow="2"
     inkscape:pageopacity="0.0"
     inkscape:pagecheckerboard="0"
     inkscape:deskcolor="#d1d1d1"
     inkscape:document-units="px"
     inkscape:zoom="6.8766134"
     inkscape:cx="60.058633"
     inkscape:cy="59.985922"
     inkscape:window-width="3440"
     inkscape:window-height="1369"
     inkscape:window-x="-8"
     inkscape:window-y="-8"
     inkscape:window-maximized="1"
     inkscape:current-layer="layer1" />
  <defs
     id="defs1" />
  <g
     inkscape:label="Layer 1"
     inkscape:groupmode="layer"
     id="layer1">
    <path
       id="path1"
       style="fill:#0000ff;stroke-width:0.2"
       d="M 60,3.3183599 57.927734,4.898438 55.34375,5.2460943 54.994141,7.8300786 53.416016,9.9023443 54.994141,11.976562 55.34375,14.558594 57.927734,14.908203 60,16.486328 62.072266,14.908203 64.65625,14.558594 65.005859,11.976562 66.583984,9.9023443 65.005859,7.8300786 64.65625,5.2460943 62.072266,4.898438 Z m -21.121094,4.0820312 -1.333984,2.2382813 -2.267578,1.2851556 0.636718,2.529297 -0.691406,2.509766 2.238282,1.33789 1.285156,2.265625 2.529297,-0.638672 2.509765,0.691407 1.335938,-2.236329 2.267578,-1.287109 L 46.75,13.570312 47.441406,11.056641 45.205078,9.7226567 43.917969,7.4550786 41.390625,8.0937505 Z m 38.402344,0.4355469 -1.337891,2.238281 -2.267578,1.283203 0.634766,2.527344 -0.695313,2.511718 2.236328,1.337891 1.285157,2.267578 2.52539,-0.632812 2.513672,0.695312 1.335938,-2.236328 2.269531,-1.285156 -0.634766,-2.525391 0.697266,-2.513672 -2.240234,-1.33789 -1.28125,-2.267578 -2.529297,0.6367187 z m -52.654297,10.111328 -2.076172,1.580078 -2.582031,0.34375 -0.351562,2.583984 -1.583985,2.070313 1.578125,2.076171 0.345703,2.582032 2.582031,0.353515 2.070313,1.580079 2.076172,-1.576172 2.582031,-0.347657 0.353516,-2.580078 1.582031,-2.072265 -1.576172,-2.074219 -0.347656,-2.583985 -2.580078,-0.351562 z m 70.847656,0.08594 -2.076171,1.578125 -2.582032,0.345703 -0.353515,2.582031 -1.580079,2.070313 1.576172,2.076172 0.347657,2.582031 2.580078,0.353516 2.072265,1.582031 2.074219,-1.576172 2.583987,-0.347656 0.35156,-2.580078 1.58398,-2.072266 -1.58007,-2.076172 -0.34375,-2.582031 -2.583988,-0.351562 z m -83.970703,16.123047 -1.33789,2.240234 -2.267578,1.28125 0.6367187,2.529297 -0.6992187,2.511719 2.238281,1.337891 1.283203,2.267578 2.527344,-0.634766 2.511718,0.695313 1.337891,-2.236328 2.267578,-1.285157 -0.632812,-2.52539 0.695312,-2.513672 -2.236328,-1.335938 -1.285156,-2.269531 -2.525391,0.634766 z m 92.533204,1.066406 -1.33789,2.238282 -2.26563,1.285156 0.63868,2.529297 -0.69141,2.509765 2.23633,1.335938 1.28711,2.267578 2.52539,-0.638672 2.51367,0.691406 1.33398,-2.236328 2.26758,-1.287109 -0.63867,-2.527344 0.69336,-2.511719 -2.23828,-1.333984 -1.28516,-2.267578 -2.52929,0.636718 z M 9.9023443,53.416016 7.8300786,54.994141 5.2460943,55.34375 4.898438,57.927734 3.3183599,60 4.898438,62.072266 5.2460943,64.65625 7.8300786,65.005859 9.9023443,66.583984 11.976562,65.005859 14.558594,64.65625 14.908203,62.072266 16.486328,60 14.908203,57.927734 14.558594,55.34375 11.976562,54.994141 Z m 100.1953157,0 -2.07422,1.578125 -2.58203,0.349609 -0.34961,2.583984 L 103.51367,60 l 1.57813,2.072266 0.34961,2.583984 2.58203,0.349609 2.07422,1.578125 2.07226,-1.578125 2.58399,-0.349609 0.34765,-2.583984 L 116.68164,60 l -1.58008,-2.072266 -0.34765,-2.583984 -2.58399,-0.349609 z m -99.041019,19.142578 -1.3339843,2.236328 -2.2675781,1.287109 0.6386719,2.527344 -0.6933594,2.511719 2.2382813,1.333984 1.2851556,2.267578 2.529297,-0.636718 2.509766,0.691406 1.33789,-2.238282 2.265625,-1.285156 -0.638672,-2.529297 0.691407,-2.509765 L 17.382812,74.878906 16.095703,72.611328 13.570312,73.25 Z m 92.546879,1.05664 -1.3379,2.236328 -2.267573,1.285157 0.632813,2.52539 -0.695313,2.513672 2.236333,1.335938 1.28515,2.269531 2.52539,-0.634766 2.51563,0.695313 1.33593,-2.238281 2.26758,-1.28125 -0.63672,-2.529297 0.69922,-2.511719 -2.23828,-1.337891 -1.2832,-2.267578 -2.52735,0.634766 z m -79.062504,15.181641 -2.074219,1.576172 -2.583985,0.347656 -0.351562,2.580078 -1.583984,2.072266 1.580078,2.076172 0.34375,2.582031 2.583984,0.35156 2.070313,1.58399 2.076171,-1.57813 2.582032,-0.3457 0.353515,-2.582032 1.580079,-2.070313 -1.576172,-2.076172 -0.347657,-2.582031 -2.580078,-0.353516 z m 70.849609,0.08594 -2.076172,1.576172 -2.582031,0.347657 -0.353516,2.580078 -1.582031,2.072265 1.576172,2.074219 0.347656,2.583984 2.580078,0.35156 2.074219,1.58398 2.074219,-1.58007 2.582031,-0.34375 0.35156,-2.583985 1.58399,-2.070313 -1.57813,-2.076171 -0.3457,-2.582032 -2.582032,-0.353515 z m -57.566406,11.052735 -1.335938,2.23633 -2.269531,1.28515 0.634766,2.52539 -0.697266,2.51367 2.240234,1.33789 1.28125,2.26758 2.529297,-0.63672 2.511719,0.69922 1.337891,-2.23828 2.267578,-1.2832 -0.634766,-2.52735 0.695313,-2.51171 -2.236328,-1.3379 -1.285157,-2.26757 -2.52539,0.63281 z m 38.390625,0.44531 -1.335938,2.23633 -2.267578,1.28711 0.638672,2.52539 -0.691406,2.51367 2.236328,1.33398 1.287109,2.26758 2.527344,-0.63867 2.511719,0.69336 1.333984,-2.23828 2.267578,-1.28516 -0.636718,-2.52929 0.691406,-2.50977 -2.238282,-1.33789 -1.285156,-2.26563 -2.529297,0.63868 z M 60,103.51367 l -2.072266,1.57813 -2.583984,0.34961 -0.349609,2.58203 -1.578125,2.07422 1.578125,2.07226 0.349609,2.58399 2.583984,0.34765 2.072266,1.58008 2.072266,-1.58008 2.583984,-0.34765 0.349609,-2.58399 1.578125,-2.07226 -1.578125,-2.07422 -0.349609,-2.58203 -2.583984,-0.34961 z" />
    <path
       id="path2"
       style="fill:#0000ff;stroke-width:0.16126"
       d="m 51.325356,15.12841 -1.398677,1.568001 -1.992385,0.670674 0.118691,2.099098 -0.932168,1.882011 1.566752,1.400521 0.671923,1.990541 2.099097,-0.11869 1.882012,0.932168 1.398975,-1.566453 1.992087,-0.672222 -0.118393,-2.097551 0.93187,-1.883558 -1.566453,-1.398974 -0.672222,-1.992088 -2.098798,0.120238 z m -16.095636,6.463912 -0.71349,1.976071 -1.59843,1.364419 0.89114,1.904855 -0.163249,2.092651 1.976672,0.716581 1.36412,1.596882 1.904556,-0.892686 2.09265,0.16325 0.715333,-1.974827 1.598129,-1.365963 -0.892088,-1.901465 0.162649,-2.095742 -1.974525,-0.713789 -1.365963,-1.59813 -1.903011,0.892388 z m 30.467584,-5.532352 -0.716584,1.976671 -1.598729,1.362871 0.889296,1.903608 -0.166044,2.094794 1.975125,0.716881 1.364419,1.598429 1.902362,-0.887451 2.096339,0.165743 0.715333,-1.974825 1.599976,-1.364717 -0.888998,-1.902061 0.167289,-2.09664 -1.978215,-0.716281 -1.36133,-1.599027 -1.904855,0.89114 z m -40.135928,16.062844 -1.401768,1.568598 -1.991437,0.667284 0.117145,2.099396 -0.937106,1.881363 1.567051,1.402067 0.668831,1.991139 2.098147,-0.1153 1.880765,0.934014 1.402368,-1.565504 1.99084,-0.670379 -0.115001,-2.096602 0.93526,-1.882608 -1.565205,-1.400821 -0.670676,-1.992387 -2.096303,0.116548 z m 56.099162,-10.774593 -1.402062,1.567051 -1.99114,0.668829 0.115296,2.098149 -0.934015,1.880765 1.565505,1.402367 0.670378,1.990839 2.096603,-0.115001 1.88261,0.935261 1.400818,-1.565205 1.992389,-0.670677 -0.11655,-2.096303 0.936802,-1.882907 -1.56859,-1.401769 -0.667283,-1.991438 -2.0994,0.117146 z m -64.007274,25.614681 -0.716282,1.978217 -1.599027,1.361326 0.89114,1.904853 -0.169134,2.095394 1.976671,0.716581 1.36287,1.598728 1.903608,-0.889295 2.094794,0.166042 0.716881,-1.975127 1.598427,-1.364418 -0.88745,-1.902358 0.165744,-2.096342 -1.974828,-0.715333 -1.364716,-1.599976 -1.902061,0.888998 z m 73.416417,-13.317197 -0.716588,1.976672 -1.596883,1.364119 0.892695,1.904554 -0.163251,2.09265 1.974827,0.715335 1.365966,1.598132 1.901463,-0.892091 2.095741,0.16265 0.713785,-1.974527 1.598133,-1.365964 -0.892387,-1.903008 0.16449,-2.094495 -1.976068,-0.71349 -1.364414,-1.59843 -1.904852,0.891139 z m -71.736741,28.809151 -1.398974,1.566453 -1.992087,0.67222 0.120236,2.098799 -0.933714,1.88231 1.567999,1.398679 0.670677,1.992383 2.099096,-0.118689 1.88201,0.932168 1.400522,-1.566751 1.990542,-0.671925 -0.118692,-2.099096 0.932168,-1.882013 -1.566453,-1.398973 -0.672221,-1.992089 -2.097551,0.118393 z m 79.318862,-15.334029 -1.400519,1.56675 -1.990544,0.671923 0.118688,2.099097 -0.932175,1.882013 1.566454,1.398975 0.672224,1.992086 2.097553,-0.118392 1.883567,0.931871 1.39897,-1.566452 1.99209,-0.672223 -0.12023,-2.098799 0.93372,-1.882312 -1.56801,-1.398674 -0.67068,-1.992387 -2.0991,0.118693 z m -75.475467,30.311451 -0.713788,1.974526 -1.598131,1.365965 0.89239,1.903011 -0.164496,2.094494 1.976073,0.71349 1.364417,1.598428 1.904854,-0.891139 2.092652,0.163247 0.716582,-1.97667 1.596882,-1.36412 -0.892686,-1.904554 0.163246,-2.092652 -1.974823,-0.715333 -1.365964,-1.59813 -1.901462,0.892088 z m 73.425745,-13.32702 -0.716882,1.975126 -1.59843,1.364417 0.887451,1.902359 -0.165743,2.096341 1.974829,0.715335 1.364711,1.599976 1.902074,-0.889 2.09789,0.165445 0.71503,-1.976371 1.59903,-1.361324 -0.89115,-1.904853 0.16915,-2.095395 -1.97668,-0.716582 -1.36286,-1.598728 -1.903629,0.889297 z m -60.265814,24.118265 -1.400821,1.565206 -1.992387,0.670676 0.116548,2.096304 -0.936804,1.882908 1.568595,1.401769 0.667285,1.991439 2.099396,-0.11714 1.881363,0.937104 1.402065,-1.567057 1.991141,-0.668824 -0.115302,-2.098151 0.934013,-1.880765 -1.565503,-1.402367 -0.670378,-1.990839 -2.096601,0.114999 z m 56.100715,-10.774891 -1.402367,1.565505 -1.990843,0.670377 0.115003,2.096601 -0.935261,1.88261 1.565208,1.400821 0.670674,1.992388 2.096304,-0.116553 1.884454,0.936507 1.400223,-1.568291 1.99144,-0.667282 -0.11715,-2.099401 0.937112,-1.881364 -1.567056,-1.402067 -0.668828,-1.991138 -2.098149,0.1153 z m -43.880487,17.559859 -0.715334,1.974829 -1.599975,1.364708 0.888996,1.902052 -0.167291,2.09664 1.978217,0.71629 1.361325,1.59902 1.904854,-0.89115 2.095394,0.16915 0.716582,-1.97668 1.59873,-1.36286 -0.889299,-1.903624 0.166046,-2.094773 -1.975126,-0.716891 -1.364417,-1.598423 -1.902358,0.887454 z m 30.459801,-5.522825 -0.715335,1.97482 -1.59813,1.365961 0.892088,1.901455 -0.162652,2.095741 1.974527,0.713786 1.365963,1.598131 1.903012,-0.892376 2.094494,0.16449 0.713491,-1.976067 1.598426,-1.364425 -0.891136,-1.904843 0.163247,-2.09265 -1.976673,-0.716584 -1.36412,-1.596888 -1.904554,0.892693 z m -12.356911,4.9616 -1.398976,1.566449 -1.992084,0.672231 0.118392,2.09755 -0.931871,1.883554 1.566453,1.39898 0.672224,1.99209 2.098793,-0.12025 1.882312,0.93372 1.398675,-1.56801 1.99239,-0.67066 -0.118692,-2.0991 0.932167,-1.882015 -1.56675,-1.400517 -0.671922,-1.990539 -2.099099,0.11868 z" />
    <path
       id="path3"
       style="fill:#0000ff;stroke-width:0.124415"
       d="m 46.463506,27.441411 -0.812984,1.402507 -1.401246,0.816794 0.416286,1.567764 -0.411603,1.567213 1.401851,0.814573 0.81745,1.399657 1.567763,-0.416275 1.567215,0.411603 0.813451,-1.401384 1.400779,-0.817917 -0.41581,-1.566641 0.411138,-1.568337 -1.401384,-0.813452 -0.817917,-1.400778 -1.567297,0.417403 z m -11.157345,7.388827 -0.231718,1.604271 -0.995608,1.279743 0.969776,1.300799 0.202221,1.606757 1.605204,0.233962 1.279277,0.994484 1.300333,-0.970896 1.606757,-0.20222 0.233306,-1.603618 0.995143,-1.280864 -0.969967,-1.29809 -0.203154,-1.609 -1.60315,-0.232185 -1.280864,-0.995142 -1.299211,0.970432 z m 22.162768,-8.920919 -0.233963,1.605205 -0.996074,1.278621 0.968188,1.300144 0.200443,1.608811 1.604082,0.23443 1.279745,0.995606 1.299486,-0.966599 1.609935,-0.20091 0.233307,-1.603616 0.996729,-1.280209 -0.967722,-1.299021 -0.199788,-1.610401 -1.606325,-0.233496 -1.277501,-0.99654 -1.300798,0.969775 z m -27.830492,18.382763 -0.815229,1.403439 -1.401055,0.814084 0.415156,1.568231 -0.415437,1.567492 1.402318,0.815695 0.815206,1.400589 1.567572,-0.413571 1.566561,0.41319 0.816163,-1.401194 1.400124,-0.81633 -0.413105,-1.566451 0.413846,-1.568147 -1.400728,-0.815041 -0.816795,-1.401245 -1.565985,0.414224 z m 40.71624,-16.870204 -0.815694,1.402315 -1.400589,0.815207 0.413571,1.567574 -0.41319,1.56656 1.401194,0.816162 0.816329,1.400122 1.566452,-0.413105 1.568146,0.413847 0.815043,-1.400728 1.401244,-0.816797 -0.414224,-1.565985 0.414967,-1.568612 -1.403434,-0.815233 -0.814087,-1.401055 -1.568231,0.415157 z m -44.383303,29.314828 -0.233496,1.606326 -0.996539,1.277499 0.969775,1.300798 0.1982,1.609747 1.605204,0.233962 1.278623,0.996073 1.300143,-0.968187 1.608812,-0.200443 0.234429,-1.604084 0.995606,-1.279743 -0.966598,-1.299488 -0.20091,-1.609934 -1.603617,-0.233307 -1.280208,-0.99673 -1.299022,0.967721 z m 53.406823,-21.485871 -0.233963,1.605205 -0.994486,1.279278 0.970902,1.300329 0.202218,1.606758 1.603617,0.233309 1.280868,0.99514 1.298084,-0.969965 1.609003,-0.203154 0.23218,-1.603148 0.995144,-1.280867 -0.97043,-1.29921 -0.20157,-1.608343 -1.604266,-0.231721 -1.279742,-0.995607 -1.300798,0.969774 z m -49.727234,32.931382 -0.813451,1.401384 -1.400777,0.817917 0.417403,1.567296 -0.412724,1.56768 1.402506,0.812986 0.816796,1.401244 1.567761,-0.416285 1.567215,0.411603 0.814572,-1.401848 1.399659,-0.817452 -0.416286,-1.567762 0.411603,-1.567215 -1.401384,-0.813451 -0.817915,-1.40078 -1.566643,0.415809 z m 57.55335,-23.928261 -0.81457,1.401849 -1.399656,0.817451 0.416284,1.56776 -0.411607,1.567218 1.401388,0.813451 0.817915,1.400778 1.566644,-0.415809 1.568331,0.411139 0.813448,-1.401383 1.40078,-0.817917 -0.417394,-1.567298 0.412729,-1.567684 -1.402513,-0.812983 -0.8168,-1.401243 -1.567764,0.416285 z m -52.318753,34.648315 -0.232185,1.60315 -0.995141,1.280864 0.970433,1.299212 0.201566,1.608345 1.604271,0.231719 1.279742,0.995605 1.300798,-0.969774 1.60676,-0.202221 0.23396,-1.605204 0.994486,-1.279277 -0.970897,-1.300332 -0.202222,-1.606758 -1.603615,-0.233304 -1.280865,-0.995142 -1.298089,0.969963 z m 53.412348,-21.494744 -0.234438,1.604083 -0.995603,1.279742 0.9666,1.299489 0.200909,1.609933 1.603619,0.233306 1.280207,0.996731 1.299022,-0.967723 1.611057,-0.201376 0.232837,-1.604736 0.996543,-1.277499 -0.969783,-1.300798 -0.198187,-1.60975 -1.605213,-0.23396 -1.278612,-0.996076 -1.300154,0.96819 z m -41.788801,27.601915 -0.81504,1.400729 -1.401247,0.816795 0.414224,1.565985 -0.414967,1.568616 1.403437,0.815229 0.814085,1.401055 1.56823,-0.415156 1.567493,0.415432 0.815694,-1.402319 1.40059,-0.815202 -0.413571,-1.567576 0.413191,-1.56656 -1.401192,-0.816163 -0.816331,-1.400122 -1.566453,0.413095 z m 40.717362,-16.870671 -0.816161,1.401195 -1.400123,0.816328 0.413105,1.566452 -0.413847,1.568149 1.400728,0.815039 0.816796,1.401246 1.565983,-0.414233 1.569734,0.4145 0.81411,-1.402967 1.401058,-0.814083 -0.415166,-1.56823 0.415438,-1.567495 -1.402321,-0.815695 -0.815206,-1.400589 -1.567572,0.413571 z m -30.42724,20.096611 -0.233307,1.603619 -0.99673,1.280203 0.967717,1.29901 0.199787,1.610403 1.606327,0.233499 1.277499,0.99654 1.300796,-0.969785 1.609749,-0.198189 0.233961,-1.605213 0.996077,-1.278612 -0.968192,-1.30015 -0.200437,-1.608797 -1.604085,-0.234437 -1.279741,-0.995602 -1.299486,0.966601 z m 22.158367,-8.912509 -0.233308,1.603612 -0.995139,1.280864 0.969961,1.298083 0.203154,1.608999 1.603149,0.232183 1.280865,0.995139 1.299214,-0.97042 1.608344,-0.201571 0.23172,-1.604266 0.995605,-1.279748 -0.969772,-1.30079 -0.202222,-1.606757 -1.605205,-0.233963 -1.279278,-0.99449 -1.30033,0.970902 z m -8.565831,5.671882 -0.813453,1.401382 -1.400775,0.817924 0.415809,1.566642 -0.411137,1.568335 1.401385,0.813448 0.817917,1.40079 1.56729,-0.417423 1.567683,0.412729 0.812984,-1.402515 1.401251,-0.816778 -0.416287,-1.567772 0.411605,-1.567213 -1.40185,-0.814569 -0.817449,-1.399657 -1.567765,0.416276 z" />
    <path
       id="path4"
       style="fill:#0000ff;stroke-width:0.0897783"
       d="m 55.188945,35.014925 -0.779331,0.872385 -1.109503,0.37257 0.06522,1.168687 -0.519743,1.047395 0.87169,0.78036 0.373264,1.108478 1.168687,-0.06522 1.047395,0.519743 0.7795,-0.871524 1.109338,-0.373431 -0.06505,-1.167824 0.519577,-1.048257 -0.871525,-0.7795 -0.373429,-1.109338 -1.168521,0.06608 z m -8.963632,3.592072 -0.398034,1.099852 -0.89046,0.758962 0.495346,1.060862 -0.09174,1.164981 1.100184,0.399756 0.758797,0.889598 1.060696,-0.496205 1.164981,0.09175 0.39906,-1.099161 0.890296,-0.759821 -0.495877,-1.058976 0.09141,-1.166702 -1.098992,-0.3982 -0.759821,-0.890294 -1.059837,0.496041 z m 16.964597,-3.067542 -0.399757,1.100185 -0.890625,0.7581 0.49432,1.060168 -0.0933,1.166174 1.099323,0.399923 0.758963,0.890458 1.05947,-0.493293 1.167037,0.09314 0.399062,-1.099157 0.891322,-0.759127 -0.494157,-1.059306 0.094,-1.167201 -1.101045,-0.39959 -0.757239,-0.890792 -1.060862,0.495345 z m -22.351611,8.926252 -0.781056,0.872715 -1.108972,0.370682 0.06435,1.168853 -0.522492,1.047032 0.871856,0.781221 0.371543,1.108808 1.168156,-0.06333 1.046702,0.520767 0.781388,-0.870992 1.108644,-0.372405 -0.06317,-1.167296 0.521462,-1.047727 -0.870827,-0.780527 -0.372568,-1.109504 -1.16713,0.06403 z m 31.236711,-5.975553 -0.781219,0.871853 -1.108808,0.371544 0.06333,1.168157 -0.520768,1.046702 0.870992,0.781387 0.372406,1.108642 1.167296,-0.06317 1.047728,0.521464 0.780525,-0.870827 1.109506,-0.372572 -0.06403,-1.16713 0.522323,-1.047892 -0.872712,-0.781057 -0.370684,-1.108974 -1.168853,0.06436 z m -35.645515,14.234283 -0.399592,1.101047 -0.890788,0.757238 0.495346,1.060861 -0.09502,1.166507 1.100184,0.399755 0.758103,0.890626 1.060167,-0.494318 1.166172,0.0933 0.399924,-1.099325 0.890458,-0.758962 -0.493291,-1.05947 0.09313,-1.167036 -1.099159,-0.399061 -0.759124,-0.891321 -1.059309,0.494153 z m 40.878852,-7.383999 -0.399755,1.100185 -0.889601,0.758796 0.49621,1.060695 -0.09175,1.164983 1.099154,0.399061 0.759827,0.890294 1.05897,-0.495876 1.166704,0.09141 0.398198,-1.098992 0.890294,-0.759823 -0.49604,-1.059835 0.09244,-1.166007 -1.09985,-0.398036 -0.75896,-0.890459 -1.060861,0.495345 z m -39.950077,16.009579 -0.779498,0.871522 -1.109337,0.373431 0.06608,1.16852 -0.520601,1.047562 0.872385,0.779335 0.372571,1.109503 1.168684,-0.06522 1.047397,0.519742 0.780359,-0.871687 1.108478,-0.373266 -0.06522,-1.168687 0.519743,-1.047397 -0.871524,-0.779498 -0.37343,-1.109339 -1.167826,0.06505 z m 44.165766,-8.504414 -0.780356,0.871687 -1.108476,0.373267 0.06522,1.168685 -0.519745,1.047397 0.871526,0.7795 0.373431,1.109337 1.167826,-0.06505 1.048255,0.519577 0.779495,-0.871523 1.109341,-0.37343 -0.06607,-1.168521 0.520603,-1.047564 -0.872389,-0.779332 -0.372571,-1.109503 -1.168688,0.06522 z m -42.032167,16.844424 -0.3982,1.098993 -0.890292,0.759822 0.496041,1.059836 -0.09244,1.166008 1.099853,0.398036 0.758961,0.890457 1.06086,-0.495345 1.164985,0.09174 0.399754,-1.100185 0.889599,-0.758796 -0.496207,-1.060696 0.09174,-1.164981 -1.099157,-0.39906 -0.759822,-0.890294 -1.058975,0.495874 z m 40.884052,-7.389462 -0.399929,1.099323 -0.890456,0.75896 0.493293,1.059474 -0.09313,1.167034 1.099161,0.39906 0.759123,0.891322 1.059307,-0.494156 1.167897,0.09297 0.398893,-1.100019 0.890793,-0.757237 -0.495352,-1.060863 0.09503,-1.166508 -1.100192,-0.399755 -0.758093,-0.890626 -1.060175,0.49432 z m -33.561902,13.402713 -0.780527,0.870829 -1.109506,0.372569 0.06403,1.16713 -0.522323,1.047895 0.872712,0.781056 0.370684,1.108973 1.168852,-0.06436 1.047034,0.522489 0.78122,-0.871855 1.108809,-0.37154 -0.06333,-1.168159 0.520769,-1.046701 -0.870992,-0.781389 -0.372406,-1.108641 -1.167296,0.06316 z m 31.23757,-5.975719 -0.781386,0.870993 -1.108643,0.372403 0.06317,1.167298 -0.521464,1.047728 0.870829,0.780526 0.37257,1.109505 1.167129,-0.06403 1.048754,0.522157 0.780198,-0.872545 1.108972,-0.37068 -0.06436,-1.168855 0.522492,-1.047034 -0.871857,-0.781221 -0.371543,-1.108809 -1.168155,0.06333 z m -24.436946,9.758153 -0.399061,1.099161 -0.89132,0.759123 0.494152,1.059296 -0.094,1.167204 1.101048,0.399591 0.757239,0.890792 1.060861,-0.495353 1.166507,0.09503 0.399756,-1.100191 0.890627,-0.758093 -0.494322,-1.060173 0.0933,-1.166163 -1.099323,-0.399929 -0.758962,-0.890454 -1.059471,0.493294 z m 16.96026,-3.06224 -0.399063,1.099154 -0.890292,0.759822 0.495874,1.058971 -0.09141,1.166701 1.098992,0.398199 0.759823,0.890292 1.059836,-0.496032 1.166008,0.09243 0.398035,-1.09985 0.890458,-0.758965 L 74.56782,78.47334 74.65956,77.308358 73.559374,76.908601 72.800578,76.019 71.739883,76.51521 Z m -6.881544,2.757215 -0.779501,0.871522 -1.109336,0.373436 0.06505,1.167827 -0.519576,1.048255 0.871522,0.779496 0.37343,1.109347 1.168519,-0.0661 1.047564,0.520605 0.779334,-0.87239 1.109504,-0.372558 -0.06522,-1.168694 0.519744,-1.047395 -0.871689,-0.780357 -0.373265,-1.108477 -1.168688,0.06522 z" />
    <path
       id="path5"
       style="fill:#0000ff;stroke-width:0.0657416"
       d="m 60.19481,41.369183 -0.686567,0.512238 -0.85053,0.105391 -0.123801,0.848135 -0.525839,0.675711 0.511589,0.687204 0.106039,0.849897 0.848135,0.123792 0.675712,0.525841 0.686563,-0.511596 0.850536,-0.106033 0.123794,-0.847491 0.525847,-0.676356 -0.511594,-0.686561 -0.106034,-0.850538 -0.848141,-0.12315 z m -6.956371,1.269143 -0.446164,0.731119 -0.749752,0.414629 0.200591,0.833549 -0.235884,0.822564 0.731107,0.447447 0.414637,0.749111 0.833554,-0.201233 0.822561,0.235894 0.446798,-0.730476 0.749762,-0.415268 -0.201249,-0.832272 0.2359,-0.823847 -0.730477,-0.446157 -0.41527,-0.749759 -0.832915,0.201239 z m 12.621061,0.275146 -0.447449,0.731107 -0.749745,0.413986 0.199956,0.8329 -0.237176,0.823194 0.730466,0.44744 0.414629,0.749753 0.83225,-0.199322 0.823833,0.237194 0.446797,-0.730472 0.750396,-0.414619 -0.199964,-0.832259 0.237825,-0.823828 -0.731749,-0.447453 -0.413343,-0.749741 -0.833547,0.20059 z m -17.341819,3.142547 -0.687852,0.512222 -0.849874,0.104116 -0.124443,0.848126 -0.527761,0.675052 0.511583,0.687845 0.104757,0.849883 0.847479,0.125066 0.675065,0.526474 0.68784,-0.510938 0.84989,-0.105398 0.125068,-0.846837 0.527124,-0.675699 -0.510947,-0.687198 -0.105389,-0.850531 -0.846846,-0.124417 z m 23.286789,0.271745 -0.687845,0.511581 -0.849881,0.104756 -0.125077,0.847478 -0.526475,0.675067 0.510938,0.687838 0.105399,0.849889 0.846835,0.125068 0.675701,0.527125 0.687197,-0.510946 0.850532,-0.105391 0.124417,-0.846846 0.527765,-0.675692 -0.512221,-0.687854 -0.104116,-0.849875 -0.848129,-0.124434 z m -27.655942,5.010922 -0.447455,0.73175 -0.749737,0.413342 0.200591,0.833548 -0.238458,0.82318 0.731107,0.447447 0.413987,0.749747 0.832899,-0.199955 0.823191,0.237175 0.447443,-0.730465 0.749752,-0.414629 -0.19932,-0.83225 0.237183,-0.823834 -0.730473,-0.446799 -0.414618,-0.750395 -0.83226,0.199962 z m 30.411292,0.668549 -0.447447,0.731107 -0.74911,0.414635 0.201235,0.833554 -0.235885,0.822566 0.730472,0.446799 0.415271,0.749759 0.83227,-0.201247 0.823849,0.235901 0.446154,-0.73048 0.74976,-0.41527 -0.20124,-0.832913 0.236534,-0.823198 -0.73112,-0.446165 -0.414626,-0.749753 -0.833548,0.200591 z m -31.003906,5.656484 -0.686561,0.511595 -0.850537,0.106032 -0.123151,0.848142 -0.52648,0.675708 0.512237,0.686568 0.105391,0.850531 0.848132,0.123801 0.675715,0.52584 0.687202,-0.511588 0.849897,-0.10604 0.123801,-0.848134 0.52584,-0.675714 -0.511597,-0.686561 -0.106031,-0.850538 -0.847491,-0.123794 z m 32.933431,0.344364 -0.687202,0.511587 -0.849894,0.106042 -0.123801,0.848132 -0.525843,0.675713 0.511599,0.686564 0.106032,0.850537 0.847494,0.123784 0.676354,0.525848 0.686559,-0.511596 0.850538,-0.106034 0.12315,-0.848141 0.526484,-0.675709 -0.512241,-0.686568 -0.105394,-0.85053 -0.848134,-0.123802 z m -32.619817,5.95162 -0.446156,0.730479 -0.749759,0.415271 0.201241,0.832912 -0.236534,0.823201 0.73112,0.446164 0.414628,0.749751 0.833547,-0.200591 0.822567,0.235885 0.447447,-0.731108 0.749111,-0.414635 -0.201235,-0.833554 0.235884,-0.822564 -0.730471,-0.446798 -0.41527,-0.74976 -0.832271,0.201246 z m 30.415821,0.665389 -0.447445,0.730464 -0.74975,0.414628 0.199321,0.832252 -0.237184,0.823835 0.730475,0.446798 0.414618,0.750395 0.832258,-0.199964 0.824479,0.237192 0.446803,-0.731114 0.74974,-0.413343 -0.200595,-0.833549 0.238458,-0.823181 -0.731112,-0.447448 -0.41398,-0.749746 -0.832907,0.199955 z m -26.039418,4.718358 -0.687198,0.510946 -0.850532,0.10539 -0.124417,0.846844 -0.527766,0.675697 0.512221,0.687852 0.104115,0.849874 0.848129,0.124433 0.675052,0.527759 0.687847,-0.511582 0.849881,-0.104754 0.125077,-0.847478 0.526474,-0.675067 -0.510938,-0.687839 -0.105399,-0.849889 -0.846836,-0.125078 z m 23.287427,0.27175 -0.687836,0.510939 -0.849891,0.105397 -0.125069,0.846838 -0.527125,0.6757 0.510947,0.687198 0.105392,0.850531 0.846844,0.124417 0.676336,0.527768 0.687209,-0.512224 0.849875,-0.104114 0.124434,-0.848131 0.527762,-0.675052 -0.511584,-0.687846 -0.104755,-0.849882 -0.847478,-0.125077 z m -18.959623,3.435099 -0.446799,0.730474 -0.750394,0.414618 0.199963,0.832252 -0.237825,0.823829 0.731751,0.447456 0.413342,0.749739 0.833549,-0.200597 0.823179,0.238469 0.447449,-0.731111 0.749746,-0.41398 -0.199957,-0.832905 0.237174,-0.823185 -0.730465,-0.447446 -0.414628,-0.749748 -0.832251,0.199321 z m 12.617174,0.278316 -0.446801,0.730468 -0.749757,0.415272 0.201246,0.832268 -0.2359,0.823848 0.730479,0.446154 0.415272,0.749758 0.832911,-0.201232 0.823202,0.236524 0.446163,-0.731118 0.749753,-0.414632 -0.200592,-0.833544 0.235884,-0.822563 -0.731108,-0.447449 -0.414635,-0.749113 -0.833554,0.201238 z m -5.340461,0.973996 -0.686566,0.511596 -0.850537,0.106037 -0.123794,0.847492 -0.525847,0.676354 0.511597,0.686559 0.106029,0.850545 0.848142,0.12314 0.675708,0.526483 0.686572,-0.51224 0.850528,-0.105382 0.123803,-0.848141 0.525841,-0.675711 -0.511588,-0.687202 -0.106042,-0.849895 -0.848134,-0.123802 z" />
    <path
       id="path6"
       style="fill:#0000ff;stroke-width:0.0485515"
       d="m 62.719163,46.511361 -0.568941,0.276603 -0.631593,-0.04123 -0.207163,0.598144 -0.474959,0.417431 0.276044,0.569314 -0.04067,0.631222 0.598146,0.207152 0.417433,0.474962 0.568848,-0.27614 0.631685,0.04077 0.207074,-0.597679 0.475056,-0.417898 -0.276137,-0.568846 0.04077,-0.631687 -0.59824,-0.206682 z m -5.222054,-0.04182 -0.424827,0.468655 -0.601273,0.197051 0.03018,0.632447 -0.284934,0.564084 0.468465,0.425756 0.197146,0.600809 0.632539,-0.03065 0.564082,0.28494 0.425199,-0.468097 0.601367,-0.197514 -0.03084,-0.631611 0.285123,-0.565013 -0.468187,-0.424734 -0.197515,-0.601366 -0.632076,0.03074 z m 9.117788,1.945907 -0.425758,0.468465 -0.601178,0.196585 0.02981,0.631889 -0.285957,0.564363 0.468001,0.425663 0.19705,0.601273 0.631329,-0.02944 0.564825,0.286059 0.425197,-0.468094 0.601738,-0.196956 -0.02991,-0.631422 0.286517,-0.564735 -0.468931,-0.425849 -0.19612,-0.601084 -0.632445,0.03018 z m -13.015314,-0.119749 -0.56987,0.276415 -0.630943,-0.04205 -0.207623,0.59805 -0.476263,0.416688 0.275951,0.569776 -0.04159,0.631038 0.597494,0.207985 0.416874,0.475332 0.569685,-0.275484 0.63113,0.04113 0.207898,-0.597028 0.47589,-0.417246 -0.275579,-0.56922 0.04123,-0.631593 -0.597125,-0.207426 z m 16.855634,3.419193 -0.569776,0.275951 -0.631036,-0.04159 -0.207996,0.59749 -0.475332,0.416877 0.275485,0.569682 -0.04113,0.63113 0.597027,0.207896 0.417247,0.475892 0.569218,-0.275578 0.631595,0.04123 0.207426,-0.597123 0.476355,-0.417152 -0.276413,-0.569873 0.04206,-0.630941 -0.598052,-0.207623 z m -20.756137,-0.191454 -0.425851,0.46893 -0.601083,0.19612 0.03018,0.632447 -0.286886,0.564174 0.468466,0.425756 0.196586,0.60118 0.631887,-0.02981 0.564362,0.285957 0.425664,-0.468 0.601272,-0.197052 -0.02944,-0.631329 0.286052,-0.564828 -0.468094,-0.425198 -0.196955,-0.601737 -0.631425,0.02991 z m 21.969151,4.692827 -0.425757,0.468466 -0.600808,0.197145 0.03065,0.632539 -0.284935,0.564088 0.468094,0.425198 0.197516,0.601366 0.63161,-0.03084 0.565014,0.285124 0.424732,-0.46819 0.601367,-0.197515 -0.03074,-0.632075 0.285493,-0.564456 -0.468653,-0.42483 -0.197048,-0.601273 -0.632446,0.03018 z m -23.274217,-0.186374 -0.568847,0.276137 -0.631685,-0.04077 -0.206692,0.598239 -0.475425,0.417341 0.276602,0.568942 -0.04123,0.631592 0.598141,0.207162 0.417436,0.474963 0.569311,-0.276044 0.631223,0.04067 0.207162,-0.598143 0.474962,-0.417435 -0.276139,-0.568847 0.04077,-0.631687 -0.597677,-0.207073 z m 23.843674,4.806624 -0.569312,0.276043 -0.63122,-0.04067 -0.207162,0.598142 -0.474963,0.417432 0.27614,0.568851 -0.04077,0.631685 0.597681,0.207064 0.417897,0.475055 0.568847,-0.276139 0.631687,0.04076 0.206692,-0.598236 0.475428,-0.417342 -0.276605,-0.568943 0.04123,-0.631592 -0.598143,-0.207162 z m -24.487303,-0.195853 -0.424733,0.468187 -0.601365,0.197516 0.03074,0.632075 -0.285494,0.564459 0.468653,0.424827 0.197049,0.60127 0.632446,-0.03018 0.564087,0.284934 0.425757,-0.468466 0.600809,-0.197145 -0.03065,-0.632539 0.284934,-0.564087 -0.468094,-0.425196 -0.197514,-0.601366 -0.631611,0.03084 z m 21.972873,4.691161 -0.425667,0.468002 -0.601271,0.197051 0.02944,0.63133 -0.286054,0.564828 0.468098,0.425198 0.196954,0.601737 0.631423,-0.02991 0.565294,0.286146 0.425289,-0.468559 0.601086,-0.19612 -0.03019,-0.632447 0.286887,-0.564177 -0.46847,-0.425758 -0.19658,-0.601177 -0.631893,0.02981 z m -19.54296,-0.180025 -0.56922,0.275578 -0.631595,-0.04123 -0.207426,0.597122 -0.476357,0.417157 0.276414,0.569869 -0.04206,0.630943 0.598053,0.207616 0.416689,0.476263 0.569778,-0.27595 0.631034,0.0416 0.207995,-0.597492 0.475332,-0.416878 -0.275485,-0.569682 0.04113,-0.63113 -0.597026,-0.207907 z m 16.856095,3.419286 -0.56968,0.275486 -0.631132,-0.04113 -0.207896,0.597029 -0.475892,0.417248 0.27558,0.569219 -0.04123,0.631593 0.597123,0.207426 0.417618,0.476446 0.569405,-0.276505 0.630942,0.04206 0.207623,-0.598052 0.476264,-0.416688 -0.275951,-0.569778 0.04159,-0.631036 -0.597491,-0.207995 z m -14.229417,-0.131366 -0.425199,0.468097 -0.601736,0.196956 0.02991,0.631417 -0.286517,0.564734 0.468933,0.425855 0.196118,0.601084 0.632447,-0.03019 0.564175,0.286895 0.425757,-0.468468 0.601178,-0.19658 -0.02981,-0.63189 0.285955,-0.564358 -0.467999,-0.425665 -0.197051,-0.601269 -0.63133,0.02944 z m 9.11453,1.947667 -0.4252,0.468092 -0.601364,0.197517 0.03084,0.631608 -0.285123,0.565016 0.46819,0.424729 0.197515,0.601366 0.632073,-0.03074 0.564459,0.285487 0.424827,-0.468653 0.601273,-0.197052 -0.03019,-0.632443 0.284933,-0.564084 -0.468466,-0.425758 -0.197144,-0.600809 -0.632539,0.03065 z m -4.008966,-0.03235 -0.568851,0.276137 -0.631687,-0.04076 -0.207073,0.597676 -0.475056,0.417898 0.276138,0.568844 -0.04077,0.631692 0.598239,0.206693 0.417341,0.475426 0.568944,-0.276606 0.631591,0.04123 0.207164,-0.598146 0.474962,-0.417434 -0.276043,-0.56931 0.04067,-0.631224 -0.598143,-0.207162 z" />
    <path
       id="path7"
       style="fill:#0000ff;stroke-width:0.0357671"
       d="m 63.989001,50.681116 -0.451897,0.11394 -0.449291,-0.124689 -0.239331,0.400221 -0.40529,0.229633 0.113481,0.452078 -0.124233,0.44911 0.400225,0.239325 0.229633,0.405292 0.451757,-0.113619 0.449428,0.124371 0.239198,-0.399898 0.40543,-0.229954 -0.113618,-0.451758 0.124372,-0.44943 -0.400363,-0.238999 z m -3.759742,-0.815291 -0.376836,0.274109 -0.463251,0.05171 -0.07333,0.460642 -0.290297,0.363967 0.273835,0.377479 0.05184,0.462929 0.460782,0.073 0.363963,0.290301 0.377022,-0.273653 0.463387,-0.05203 0.07272,-0.46014 0.290575,-0.364608 -0.273788,-0.3767 -0.05203,-0.463389 -0.46046,-0.07287 z m 6.28298,2.774192 -0.37748,0.273835 -0.463113,0.05139 -0.0735,0.460185 -0.291078,0.364013 0.273514,0.377342 0.05171,0.463251 0.459726,0.07369 0.36433,0.29122 0.377021,-0.273652 0.46357,-0.05157 0.07336,-0.459865 0.291537,-0.364197 -0.274157,-0.377617 -0.05106,-0.462976 -0.460643,-0.07332 z m -9.368348,-2.0432 -0.452536,0.113666 -0.448699,-0.12519 -0.239649,0.400085 -0.406119,0.228901 0.113345,0.452399 -0.124871,0.448838 0.399629,0.239825 0.229176,0.405477 0.452262,-0.113022 0.448975,0.124542 0.239694,-0.399307 0.405934,-0.229359 -0.11316,-0.45194 0.124691,-0.449293 -0.399446,-0.239369 z m 11.641834,5.00007 -0.452399,0.113344 -0.448835,-0.124871 -0.239835,0.399626 -0.405475,0.229176 0.113023,0.452262 -0.124543,0.448974 0.399305,0.239693 0.229359,0.405936 0.45194,-0.11316 0.449296,0.124691 0.239367,-0.399446 0.406254,-0.229221 -0.113663,-0.452537 0.125199,-0.448697 -0.400086,-0.23965 z m -14.940076,-3.258733 -0.377617,0.274155 -0.462973,0.05107 -0.07333,0.460644 -0.29172,0.363737 0.273836,0.377478 0.05139,0.463115 0.460186,0.07351 0.364012,0.291077 0.377342,-0.273513 0.46325,-0.05171 0.07369,-0.459727 0.291215,-0.364334 -0.273651,-0.37702 -0.05157,-0.463572 -0.459867,-0.07336 z m 15.138098,6.687398 -0.377479,0.273835 -0.46293,0.05185 -0.073,0.460782 -0.290296,0.363967 0.273649,0.377021 0.05203,0.463387 0.460141,0.07272 0.364607,0.290574 0.376699,-0.27379 0.463389,-0.05203 0.07287,-0.460459 0.290757,-0.364148 -0.27411,-0.37684 -0.05171,-0.463249 -0.460643,-0.07332 z m -16.756822,-3.63366 -0.451757,0.113618 -0.449428,-0.124371 -0.239005,0.40036 -0.405612,0.229498 0.113938,0.451895 -0.12469,0.449291 0.400217,0.23933 0.229637,0.405294 0.452076,-0.113482 0.44911,0.124234 0.239332,-0.400221 0.405292,-0.229635 -0.113619,-0.451757 0.124371,-0.449429 -0.399899,-0.239197 z m 16.472854,7.051298 -0.452079,0.11348 -0.449108,-0.124233 -0.23933,0.400219 -0.405293,0.229633 0.11362,0.45176 -0.124371,0.449428 0.399903,0.239191 0.229952,0.405429 0.451758,-0.113619 0.44943,0.124371 0.239005,-0.400359 0.405616,-0.229497 -0.113943,-0.451896 0.124691,-0.449291 -0.400222,-0.239332 z m -17.630249,-3.822883 -0.376699,0.273787 -0.463387,0.05203 -0.07287,0.460459 -0.290758,0.364151 0.27411,0.376837 0.05171,0.463249 0.460644,0.07332 0.363966,0.290299 0.377481,-0.273836 0.46293,-0.05185 0.073,-0.460781 0.290298,-0.363967 -0.273651,-0.37702 -0.05203,-0.463388 -0.460141,-0.07272 z m 15.141034,6.686756 -0.377345,0.273512 -0.463251,0.05171 -0.07369,0.459727 -0.291217,0.364333 0.273654,0.377021 0.05157,0.463572 0.459866,0.07336 0.364656,0.291351 0.377156,-0.273972 0.462976,-0.05107 0.07332,-0.460645 0.29172,-0.363738 -0.273838,-0.377482 -0.05138,-0.463111 -0.460189,-0.07351 z m -14.06688,-3.068091 -0.45194,0.113159 -0.449294,-0.12469 -0.239368,0.399445 -0.406256,0.229223 0.113664,0.452537 -0.125199,0.448696 0.400088,0.239642 0.228901,0.406119 0.4524,-0.113344 0.448834,0.124871 0.239833,-0.399627 0.405477,-0.229178 -0.113022,-0.45226 0.124552,-0.448973 -0.399304,-0.2397 z m 11.642153,5.000206 -0.45226,0.113024 -0.448974,-0.124552 -0.239692,0.399306 -0.405936,0.22936 0.113161,0.451941 -0.12469,0.449293 0.399445,0.239367 0.229543,0.406391 0.452216,-0.1138 0.448696,0.125199 0.239649,-0.400085 0.40612,-0.2289 -0.113345,-0.452402 0.12487,-0.448834 -0.399624,-0.239834 z m -10.242186,-2.234109 -0.377023,0.273651 -0.463569,0.05157 -0.07336,0.459864 -0.291536,0.364196 0.274157,0.377618 0.05106,0.462976 0.460646,0.07332 0.363736,0.291724 0.377479,-0.273836 0.463112,-0.05138 0.07351,-0.460189 0.291075,-0.364009 -0.273512,-0.377344 -0.05171,-0.463248 -0.459727,-0.07369 z m 6.280365,2.774973 -0.377021,0.273648 -0.463388,0.05203 -0.07272,0.460139 -0.290573,0.364607 0.273789,0.376697 0.05203,0.463389 0.460458,0.07287 0.364151,0.290753 0.376838,-0.274109 0.463251,-0.05171 0.07332,-0.460644 0.290297,-0.363965 -0.273834,-0.37748 -0.05185,-0.46293 -0.460782,-0.073 z m -2.886313,-0.626072 -0.45176,0.113618 -0.449432,-0.124362 -0.239197,0.399898 -0.405429,0.229955 0.113619,0.451755 -0.124382,0.44943 0.400362,0.239008 0.229497,0.405614 0.451898,-0.113941 0.449289,0.12469 0.239334,-0.400224 0.405292,-0.229633 -0.113481,-0.452077 0.124233,-0.449109 -0.40022,-0.239331 z" />
    <path
       sodipodi:type="star"
       style="fill:#0000ff;stroke-width:0.2"
       id="path8"
       inkscape:flatsided="false"
       sodipodi:sides="8"
       sodipodi:cx="-67.038811"
       sodipodi:cy="58.313587"
       sodipodi:r1="7.8392262"
       sodipodi:r2="6.4499526"
       sodipodi:arg1="0.78539816"
       sodipodi:arg2="1.1780972"
       inkscape:rounded="0"
       inkscape:randomized="0"
       d="m -61.495641,63.856757 -3.074879,0.415809 -2.468291,1.880247 -2.468289,-1.880247 -3.074881,-0.415809 -0.415809,-3.07488 -1.880247,-2.46829 1.880247,-2.46829 0.415809,-3.07488 3.07488,-0.415809 2.46829,-1.880247 2.46829,1.880247 3.07488,0.415809 0.415809,3.07488 1.880248,2.46829 -1.880247,2.46829 z"
       transform="matrix(0.89797306,0,0,0.89797306,120.19905,7.6359697)" />
  </g>
</svg>
