<?xml version="1.0" encoding="UTF-8" standalone="no"?>
<!-- Created with Inkscape (http://www.inkscape.org/) -->

<svg
   width="120"
   height="120"
   viewBox="0 0 120 120"
   version="1.1"
   id="svg1"
   inkscape:version="1.4 (86a8ad7, 2024-10-11)"
   sodipodi:docname="mand_28.svg"
   xmlns:inkscape="http://www.inkscape.org/namespaces/inkscape"
   xmlns:sodipodi="http://sodipodi.sourceforge.net/DTD/sodipodi-0.dtd"
   xmlns="http://www.w3.org/2000/svg"
   xmlns:svg="http://www.w3.org/2000/svg">
  <sodipodi:namedview
     id="namedview1"
     pagecolor="#ffffff"
     bordercolor="#000000"
     borderopacity="0.25"
     inkscape:showpageshadow="2"
     inkscape:pageopacity="0.0"
     inkscape:pagecheckerboard="0"
     inkscape:deskcolor="#d1d1d1"
     inkscape:document-units="px"
     inkscape:zoom="9.725"
     inkscape:cx="60"
     inkscape:cy="60"
     inkscape:window-width="3440"
     inkscape:window-height="1369"
     inkscape:window-x="-8"
     inkscape:window-y="-8"
     inkscape:window-maximized="1"
     inkscape:current-layer="layer1" />
  <defs
     id="defs1">
    <inkscape:path-effect
       effect="copy_rotate"
       starting_point="0,0"
       origin="37.089844,36.9375"
       id="path-effect3"
       is_visible="true"
       lpeversion="1.2"
       lpesatellites=""
       method="normal"
       num_copies="12"
       starting_angle="0"
       rotation_angle="30"
       gap="-0.01"
       copies_to_360="true"
       mirror_copies="false"
       split_items="false"
       link_styles="false" />
  </defs>
  <g
     inkscape:label="Layer 1"
     inkscape:groupmode="layer"
     id="layer1">
    <path
       id="path2"
       style="fill:none;fill-rule:evenodd;stroke:#0000ff"
       d="m 37.304688,32.640625 c 3.313103,1.577261 7.064917,3.398917 10.96875,4.958984 l -11.183594,3.634766 c 4.302719,0 8.882246,-1.182315 13.332031,-2.8125 4.449785,1.630185 9.029312,2.8125 13.332031,2.8125 L 52.570312,37.599609 c 3.903833,-1.560067 7.655647,-3.381723 10.96875,-4.958984 l -13.117187,4.261719 z m -2.177221,0.46825 c 3.657862,-0.290603 7.817856,-0.58891 11.978708,-1.189769 l -7.867894,8.739597 c 3.726264,-2.15136 7.101094,-5.465038 10.139628,-9.101712 4.668719,-0.813111 9.225864,-2.07896 12.952128,-4.230319 l -11.50266,2.443997 c 2.600785,-3.302974 4.939123,-6.756481 7.019724,-9.778981 l -9.228957,10.249351 z m -1.651404,1.494127 c 3.0225,-2.080601 6.476007,-4.418939 9.778981,-7.019724 l -2.443997,11.502659 c 2.151359,-3.726263 3.417208,-8.283408 4.230319,-12.952127 3.636674,-3.038534 6.950352,-6.413364 9.101712,-10.139628 l -8.739597,7.867894 C 46.00434,19.701224 46.302647,15.54123 46.59325,11.883368 l -2.867836,13.490676 z m -0.683094,2.119654 c 1.577261,-3.313103 3.398917,-7.064917 4.958984,-10.96875 L 41.386719,36.9375 c 0,-4.302719 -1.182315,-8.882246 -2.8125,-13.332031 1.630185,-4.449785 2.8125,-9.029312 2.8125,-13.332031 L 37.751953,21.457032 C 36.191886,17.553199 34.37023,13.801385 32.792969,10.488282 l 4.261719,13.117187 z m 0.46825,2.177221 C 32.970616,35.242015 32.672309,31.082021 32.07145,26.921169 l 8.739597,7.867893 c -2.15136,-3.726263 -5.465038,-7.101093 -9.101712,-10.139627 -0.813111,-4.668719 -2.07896,-9.225864 -4.230319,-12.952128 l 2.443997,11.50266 C 26.620039,20.599182 23.166532,18.260844 20.144032,16.180243 L 30.393383,25.4092 Z m 1.494127,1.651404 c -2.080601,-3.0225 -4.418939,-6.476007 -7.019724,-9.778981 l 11.502659,2.443997 C 35.512018,31.064938 30.954873,29.799089 26.286154,28.985978 23.24762,25.349304 19.87279,22.035626 16.146526,19.884266 l 7.867894,8.739597 C 19.853568,28.023004 15.693574,27.724697 12.035712,27.434094 L 25.526388,30.30193 Z M 36.875,41.234375 C 33.561897,39.657114 29.810083,37.835458 25.90625,36.275391 l 11.183594,-3.634766 c -4.302719,0 -8.882246,1.182315 -13.332031,2.8125 -4.449785,-1.630185 -9.029312,-2.8125 -13.332031,-2.8125 l 11.183594,3.634766 c -3.903833,1.560067 -7.655647,3.381723 -10.96875,4.958984 l 13.117187,-4.261719 z m 2.177221,-0.46825 c -3.657862,0.290603 -7.817856,0.58891 -11.978708,1.189769 l 7.867893,-8.739597 c -3.726263,2.15136 -7.101093,5.465038 -10.139627,9.101712 -4.668719,0.813111 -9.225864,2.07896 -12.952128,4.230319 l 11.50266,-2.443997 c -2.600785,3.302974 -4.939123,6.756481 -7.019724,9.778981 l 9.228957,-10.249351 z m 1.651404,-1.494127 c -3.0225,2.080601 -6.476007,4.418939 -9.778981,7.019724 l 2.443997,-11.50266 c -2.151359,3.726264 -3.417208,8.283409 -4.230319,12.952128 -3.636674,3.038534 -6.950352,6.413364 -9.101712,10.139628 l 8.739597,-7.867894 c -0.600859,4.160852 -0.899166,8.320846 -1.189769,11.978708 l 2.867836,-13.490676 z m 0.683094,-2.119654 c -1.577261,3.313103 -3.398917,7.064917 -4.958984,10.96875 L 32.792969,36.9375 c 0,4.302719 1.182315,8.882246 2.8125,13.332031 -1.630185,4.449785 -2.8125,9.029312 -2.8125,13.332031 l 3.634766,-11.183594 c 1.560067,3.903833 3.381723,7.655647 4.958984,10.96875 L 37.125,50.269531 Z m -0.46825,-2.177221 c 0.290603,3.657862 0.58891,7.817856 1.189769,11.978708 l -8.739597,-7.867894 c 2.15136,3.726264 5.465038,7.101094 9.101712,10.139628 0.813111,4.668719 2.07896,9.225864 4.230319,12.952128 l -2.443997,-11.50266 c 3.302974,2.600785 6.756481,4.939123 9.778981,7.019724 L 43.786305,48.4658 Z m -1.494127,-1.651404 c 2.080601,3.0225 4.418939,6.476007 7.019724,9.778981 l -11.50266,-2.443997 c 3.726264,2.151359 8.283409,3.417208 12.952128,4.230319 3.038534,3.636674 6.413364,6.950352 10.139628,9.101712 l -7.867894,-8.739597 c 4.160852,0.600859 8.320846,0.899166 11.978708,1.189769 L 48.6533,43.57307 Z"
       inkscape:path-effect="#path-effect3"
       inkscape:original-d="m 37.304688,32.640625 c 3.313103,1.577261 7.064917,3.398917 10.96875,4.958984 l -11.183594,3.634766 c 4.302719,0 8.882246,-1.182315 13.332031,-2.8125 4.449785,1.630185 9.029312,2.8125 13.332031,2.8125 L 52.570312,37.599609 c 3.903833,-1.560067 7.655647,-3.381723 10.96875,-4.958984 l -13.117187,4.261719 z"
       transform="matrix(2.1195848,0,0,2.1195848,-18.61507,-18.292164)" />
  </g>
</svg>
