<?xml version="1.0" encoding="UTF-8" standalone="no"?>
<!-- Created with Inkscape (http://www.inkscape.org/) -->

<svg
   width="120"
   height="120"
   viewBox="0 0 120 120"
   version="1.1"
   id="svg1"
   inkscape:version="1.4 (86a8ad7, 2024-10-11)"
   sodipodi:docname="mand_17.svg"
   xmlns:inkscape="http://www.inkscape.org/namespaces/inkscape"
   xmlns:sodipodi="http://sodipodi.sourceforge.net/DTD/sodipodi-0.dtd"
   xmlns="http://www.w3.org/2000/svg"
   xmlns:svg="http://www.w3.org/2000/svg">
  <sodipodi:namedview
     id="namedview1"
     pagecolor="#ffffff"
     bordercolor="#000000"
     borderopacity="0.25"
     inkscape:showpageshadow="2"
     inkscape:pageopacity="0.0"
     inkscape:pagecheckerboard="0"
     inkscape:deskcolor="#d1d1d1"
     inkscape:document-units="px"
     inkscape:zoom="4.8625"
     inkscape:cx="54.190231"
     inkscape:cy="59.125964"
     inkscape:window-width="3440"
     inkscape:window-height="1369"
     inkscape:window-x="-8"
     inkscape:window-y="-8"
     inkscape:window-maximized="1"
     inkscape:current-layer="layer1" />
  <defs
     id="defs1">
    <inkscape:path-effect
       effect="copy_rotate"
       starting_point="0,0"
       origin="47.069349,20.289145"
       id="path-effect1"
       is_visible="true"
       lpeversion="1.2"
       lpesatellites=""
       method="normal"
       num_copies="6"
       starting_angle="0"
       rotation_angle="60"
       gap="-0.01"
       copies_to_360="true"
       mirror_copies="false"
       split_items="false"
       link_styles="false" />
  </defs>
  <g
     inkscape:label="Layer 1"
     inkscape:groupmode="layer"
     id="layer1">
    <path
       sodipodi:type="spiral"
       style="fill:none;fill-rule:evenodd;stroke:#0000ff"
       id="path1"
       sodipodi:cx="55.835476"
       sodipodi:cy="20.257069"
       sodipodi:expansion="1"
       sodipodi:revolution="3"
       sodipodi:radius="11.275945"
       sodipodi:argument="-17.802359"
       sodipodi:t0="0"
       d="m 55.835476,20.257069 c 0.282679,0.489614 -0.520526,0.622604 -0.813771,0.469831 -0.794675,-0.414005 -0.640513,-1.532668 -0.125892,-2.097374 0.920537,-1.010126 2.531883,-0.725599 3.380976,0.218049 1.246078,1.384841 0.817132,3.546071 -0.561988,4.664578 -1.83815,1.490794 -4.56576,0.911645 -5.948181,-0.905928 -1.739634,-2.287231 -1.007749,-5.588117 1.249868,-7.231783 2.734277,-1.9907 6.611985,-1.104783 8.515386,1.593808 2.243092,3.180195 1.202401,7.636795 -1.937748,9.798987 -3.625426,2.496337 -8.662237,1.30041 -11.08259,-2.281687 -2.750159,-4.070207 -1.398691,-9.68812 2.625628,-12.366192 4.514677,-3.0043927 10.714324,-1.497171 13.649794,2.969567 3.258927,4.958925 1.595797,11.740772 -3.313507,14.933397 M 51.424634,12.681418 c 0.565357,0 0.278927,0.762091 0,0.939662 -0.755877,0.481207 -1.647586,-0.211633 -1.879325,-0.939661 -0.414526,-1.302272 0.637554,-2.555475 1.879324,-2.818987 1.822346,-0.3867144 3.479553,1.065379 3.758649,2.818985 0.37199,2.337282 -1.493372,4.409887 -3.758647,4.698312 -2.850617,0.362952 -5.343326,-1.921322 -5.637974,-4.698309 -0.356858,-3.3633036 2.349222,-6.2785379 5.637971,-6.5776362 3.875676,-0.352477 7.214859,2.7770878 7.517298,6.5776322 0.349177,4.38788 -3.20493,8.151922 -7.517294,8.456961 -4.899982,0.346604 -9.089504,-3.632758 -9.396623,-8.456956 C 41.683472,7.269399 46.088588,2.6539579 51.424631,2.3451356 57.34865,2.0022842 62.390336,6.8335211 62.700578,12.681415 m -20.042071,0.03208 c 0.282678,-0.489615 0.799454,0.139487 0.813771,0.46983 0.0388,0.895212 -1.007073,1.321035 -1.753433,1.157712 -1.335063,-0.292145 -1.894329,-1.829875 -1.501652,-3.037035 0.576268,-1.7715557 2.662421,-2.4806921 4.320637,-1.8455928 2.21014,0.8464878 3.072388,3.4982418 2.189533,5.6042398 -1.110982,2.650183 -4.335576,3.666794 -6.887841,2.533474 -3.091136,-1.372604 -4.262762,-5.173755 -2.877415,-8.1714442 1.632584,-3.5326725 6.012459,-4.8597076 9.455046,-3.2213549 3.974604,1.8915431 5.457307,6.8515121 3.565296,10.7386481 -2.149824,4.416811 -7.690813,6.055362 -12.022251,3.909236 -4.859219,-2.407629 -6.65375,-8.530293 -4.253176,-13.3058524 2.665091,-5.3017767 9.369909,-7.25238675 14.589454,-4.597117 M 38.303222,20.321221 c -0.282679,-0.489614 0.520526,-0.622604 0.813771,-0.469831 0.794675,0.414005 0.640513,1.532668 0.125892,2.097374 -0.920537,1.010126 -2.531883,0.725599 -3.380976,-0.218049 -1.246078,-1.384841 -0.817132,-3.546071 0.561988,-4.664578 1.83815,-1.490794 4.56576,-0.911645 5.948181,0.905928 1.739634,2.287231 1.007749,5.588117 -1.249868,7.231783 -2.734277,1.9907 -6.611985,1.104783 -8.515386,-1.593808 -2.243092,-3.180195 -1.202401,-7.636795 1.937748,-9.798987 3.625426,-2.496337 8.662237,-1.30041 11.08259,2.281687 2.750159,4.070207 1.398691,9.68812 -2.625628,12.366192 C 38.486857,31.463325 32.28721,29.956103 29.35174,25.489365 26.092813,20.53044 27.755943,13.748593 32.665247,10.555968 m 10.048817,17.340904 c -0.565357,0 -0.278927,-0.762091 0,-0.939662 0.755877,-0.481207 1.647586,0.211633 1.879325,0.939661 0.414526,1.302272 -0.637554,2.555475 -1.879324,2.818987 -1.822346,0.386714 -3.479553,-1.065379 -3.758649,-2.818985 -0.37199,-2.337282 1.493372,-4.409887 3.758647,-4.698312 2.850617,-0.362952 5.343326,1.921322 5.637974,4.698309 0.356858,3.363304 -2.349222,6.278538 -5.637971,6.577636 -3.875676,0.352477 -7.214859,-2.777088 -7.517298,-6.577632 -0.349177,-4.38788 3.20493,-8.151922 7.517294,-8.456961 4.899982,-0.346604 9.089504,3.632758 9.396623,8.456956 0.344541,5.412022 -4.060575,10.027463 -9.396618,10.336285 C 36.790048,38.576006 31.748362,33.744769 31.43812,27.896875 m 20.042071,-0.03208 c -0.282678,0.489615 -0.799454,-0.139487 -0.813771,-0.46983 -0.0388,-0.895212 1.007073,-1.321035 1.753433,-1.157712 1.335063,0.292145 1.894329,1.829875 1.501652,3.037035 -0.576268,1.771556 -2.662421,2.480692 -4.320637,1.845593 -2.21014,-0.846488 -3.072388,-3.498242 -2.189533,-5.60424 1.110982,-2.650183 4.335576,-3.666794 6.887841,-2.533474 3.091136,1.372604 4.262762,5.173755 2.877415,8.171444 -1.632584,3.532673 -6.012459,4.859708 -9.455046,3.221355 -3.974604,-1.891543 -5.457307,-6.851512 -3.565296,-10.738648 2.149824,-4.416811 7.690813,-6.055362 12.022251,-3.909236 4.859219,2.407629 6.65375,8.530293 4.253176,13.305852 -2.665091,5.301777 -9.369909,7.252387 -14.589454,4.597117"
       inkscape:path-effect="#path-effect1"
       transform="matrix(2.9114929,0,0,2.9114929,-77.042075,0.92829839)" />
  </g>
</svg>
