<?xml version="1.0" encoding="UTF-8" standalone="no"?>
<!-- Created with Inkscape (http://www.inkscape.org/) -->

<svg
   width="120"
   height="120"
   viewBox="0 0 120 120"
   version="1.1"
   id="svg1"
   inkscape:version="1.4 (86a8ad7, 2024-10-11)"
   sodipodi:docname="mand_53.svg"
   xmlns:inkscape="http://www.inkscape.org/namespaces/inkscape"
   xmlns:sodipodi="http://sodipodi.sourceforge.net/DTD/sodipodi-0.dtd"
   xmlns="http://www.w3.org/2000/svg"
   xmlns:svg="http://www.w3.org/2000/svg">
  <sodipodi:namedview
     id="namedview1"
     pagecolor="#ffffff"
     bordercolor="#000000"
     borderopacity="0.25"
     inkscape:showpageshadow="2"
     inkscape:pageopacity="0.0"
     inkscape:pagecheckerboard="0"
     inkscape:deskcolor="#d1d1d1"
     inkscape:document-units="px"
     inkscape:zoom="4.8625"
     inkscape:cx="59.948586"
     inkscape:cy="59.948586"
     inkscape:window-width="3440"
     inkscape:window-height="1369"
     inkscape:window-x="-8"
     inkscape:window-y="-8"
     inkscape:window-maximized="1"
     inkscape:current-layer="layer1" />
  <defs
     id="defs1">
    <inkscape:path-effect
       effect="copy_rotate"
       starting_point="0,0"
       origin="2.2547036,40.029369"
       id="path-effect4"
       is_visible="true"
       lpeversion="1.2"
       lpesatellites=""
       method="normal"
       num_copies="6"
       starting_angle="0"
       rotation_angle="60"
       gap="-0.01"
       copies_to_360="true"
       mirror_copies="false"
       split_items="false"
       link_styles="false" />
    <inkscape:path-effect
       effect="powerstroke"
       message=""
       id="path-effect2"
       is_visible="true"
       lpeversion="1.3"
       scale_width="1"
       interpolator_type="CubicBezierSmooth"
       interpolator_beta="0.16245487"
       start_linecap_type="zerowidth"
       end_linecap_type="zerowidth"
       offset_points="7.9242303,0.88006179 | 23.422842,-1.2007543"
       linejoin_type="round"
       miter_limit="4"
       not_jump="false"
       sort_points="true" />
    <inkscape:path-effect
       effect="fill_between_many"
       method="bsplinespiro"
       autoreverse="false"
       close="false"
       join="false"
       linkedpaths="#path1,0,1"
       id="path-effect3" />
  </defs>
  <g
     inkscape:label="Layer 1"
     inkscape:groupmode="layer"
     id="layer1">
    <path
       id="path3"
       style="fill:#0000ff;stroke-width:0.837243"
       d="M 67.333986,5.6593353 C 67.0447,5.6216683 66.74762,5.7574053 66.595704,6.0284763 L 60.869142,16.247226 59.683595,16.548007 58.937501,16.358554 53.210939,6.1398043 c -0.202552,-0.361418 -0.6634,-0.485163 -1.019531,-0.273438 L 42.123048,11.852694 30.849611,8.6769133 c -0.398751,-0.112287 -0.81193,0.125872 -0.914062,0.527344 L 27.04883,20.55582 16.832033,26.282382 c -0.361422,0.202553 -0.485162,0.663403 -0.273438,1.019531 l 5.986328,10.06836 -0.330078,1.171874 -0.541015,0.554688 -11.712891,-0.148437 c -0.414273,-0.0053 -0.7513879,0.331812 -0.746094,0.746094 l 0.150391,11.71289 -8.38671901,8.175781 c -0.2966193,0.289186 -0.2966193,0.765503 0,1.054688 L 9.365236,68.813632 9.214845,80.524569 c -0.00529,0.414277 0.331816,0.751388 0.746094,0.746094 l 11.712891,-0.148437 0.853515,0.875 0.208984,0.742187 -5.986328,10.068359 c -0.211721,0.356125 -0.08799,0.816976 0.273438,1.019532 l 10.216797,5.726558 2.888671,11.351558 c 0.102133,0.40148 0.515312,0.63964 0.914063,0.52735 l 11.273438,-3.17578 10.066406,5.98633 c 0.356127,0.21172 0.816977,0.088 1.019531,-0.27344 l 5.726563,-10.21875 1.18164,-0.30078 0.75,0.1914 5.726563,10.21681 c 0.202551,0.36141 0.6634,0.48515 1.019531,0.27343 l 10.068359,-5.98633 11.275391,3.17578 c 0.398751,0.11229 0.809977,-0.12587 0.912109,-0.52734 l 2.888673,-11.351558 10.216796,-5.726566 c 0.36142,-0.202554 0.48516,-0.661451 0.27344,-1.017579 l -5.986331,-10.070312 0.330079,-1.173828 0.539062,-0.552734 11.71289,0.148437 c 0.41427,0.0053 0.75139,-0.331813 0.74609,-0.746094 l -0.14843,-11.71289 8.38672,-8.175781 c 0.29661,-0.289186 0.29661,-0.765503 0,-1.054688 l -8.38672,-8.175781 0.14843,-11.710937 c 0.005,-0.414278 -0.33181,-0.751388 -0.74609,-0.746094 l -11.710936,0.148437 -0.853516,-0.875 L 97.263673,37.258944 103.25,27.190585 c 0.21172,-0.356124 0.088,-0.816975 -0.27344,-1.019531 L 92.757814,20.444491 89.871095,9.0929293 C 89.768963,8.6914573 89.355784,8.4532983 88.957032,8.5655853 L 77.683596,11.741366 67.615236,5.7550383 c -0.08903,-0.05293 -0.184821,-0.08315 -0.28125,-0.0957 z m 0.191406,0.314453 c 0.131545,0.01712 0.261352,0.06063 0.382813,0.132813 l 9.753906,5.7968747 10.923828,-3.0742187 c 0.544018,-0.153121 1.106746,0.171042 1.246094,0.71875 l 2.798828,10.9960937 9.896479,5.548828 c 0.49299,0.276379 0.6618,0.904782 0.37305,1.390625 l -5.798826,9.755859 0.150391,0.535157 -1.248047,-1.279297 -0.08008,0.132812 1.414062,1.451172 0.333985,1.183594 -1.916016,-1.964844 c -0.03539,-0.177838 -0.01327,-0.362514 0.08008,-0.519531 l 0.08789,-0.150391 -0.496094,-0.507813 -0.27539,0.462891 c -0.01295,0.02179 -0.01224,0.04777 -0.02344,0.07031 l -4.994141,-5.123046 0.01367,-0.01367 h -0.02734 l -0.5,-0.513672 -0.5,0.513672 h -0.02734 l 0.01367,0.01367 -7.882812,8.08789 -8.783204,-0.113281 -0.351562,-0.589844 8.890625,0.111329 7.921875,-8.125 h 1.439453 l 5.085938,5.218749 0.08008,-0.134765 -5.359375,-5.496094 h -1.05469 l -8.175781,8.386721 -8.91797,-0.113282 -4.357421,-7.330077 2.927734,-10.396485 0.246094,-0.876953 c 0.112286,-0.398751 -0.125872,-0.81193 -0.527344,-0.914062 l -7.546875,-1.919923 -0.07617,0.134766 0.582031,0.148438 6.589844,1.675781 c 0.547834,0.139323 0.872009,0.701995 0.71875,1.246094 l -3.076172,10.923828 4.341797,7.306641 -1.548828,-0.01953 0.08984,0.152343 1.548828,0.01953 0.351562,0.589844 -1.548828,-0.01953 -0.351562,-0.589844 -0.730469,-0.0098 c -0.02361,-2.98e-4 -0.04319,0.01237 -0.06641,0.01367 l 0.341797,0.576173 -0.710938,-0.0098 0.03711,2.888671 -0.583985,0.326173 0.0098,0.78125 0.583984,-0.326173 0.01953,1.507813 -0.583985,0.326172 -0.01953,-1.507812 -0.148437,0.08398 0.01953,1.507813 -5.523438,3.095703 -2.052734,8.06836 0.07813,0.300781 2.103515,-8.269531 5.396484,-3.025391 0.07617,5.962891 -6.195313,6.039063 0.302734,-0.08398 6.042969,-5.892578 -0.07813,-6.109375 0.583985,-0.326172 0.08398,6.679687 -5.453125,5.314453 -1.179688,0.333985 -1.027343,1.001953 1.179687,-0.332032 -1.986328,1.935548 -0.03711,0.0098 c -0.166862,0.047 -0.33057,0.03563 -0.488282,0 0.0292,-0.213949 0.110398,-0.423166 0.277344,-0.585937 l 1.054688,-1.027344 -0.302735,0.08398 -1.048828,1.023438 0.339844,-1.335938 -0.07813,-0.300781 -0.388672,1.53125 c -0.0427,0.16791 -0.13452,0.305098 -0.244141,0.423828 -0.170691,-0.132265 -0.309695,-0.307231 -0.367187,-0.533203 l -0.363281,-1.427734 -0.07813,0.30664 0.361328,1.417969 -0.988282,-0.96289 -0.300781,-0.08398 1.134766,1.105469 c 0.123926,0.120803 0.196097,0.267766 0.24414,0.421875 -0.199909,0.08172 -0.422011,0.115939 -0.646484,0.05273 l -1.417969,-0.398438 0.226563,0.220704 1.40625,0.394531 -1.324219,0.373047 -0.222656,0.21875 1.523437,-0.429688 c 0.16605,-0.04677 0.329278,-0.03509 0.486328,0 -0.02924,0.213862 -0.108507,0.423228 -0.27539,0.585938 l -1.054688,1.027344 0.304688,-0.08594 1.044922,-1.019531 -0.339844,1.333985 0.07813,0.304687 0.390625,-1.535157 c 0.04273,-0.168026 0.134406,-0.305054 0.244141,-0.423828 0.17049,0.132249 0.30974,0.307411 0.367187,0.533203 l 0.363281,1.427735 0.07813,-0.30664 -0.361328,-1.417969 0.988281,0.96289 0.296875,0.08398 -1.130859,-1.103516 c -0.12431,-0.121176 -0.196184,-0.269185 -0.244141,-0.423828 0.184414,-0.07513 0.386489,-0.103577 0.59375,-0.05664 l 1.96875,1.917969 -1.1875,-0.333984 1.033204,1.005859 1.185546,0.333984 5.365235,5.230469 -0.08789,6.904297 -0.582031,-0.328125 0.08008,-6.330078 -5.960937,-5.810547 -0.298829,-0.08398 6.109376,5.955078 -0.07813,6.1875 -5.201172,-2.916016 -2.134766,-8.386719 -0.07813,0.306641 2.082031,8.179688 5.330078,2.986327 -0.01953,1.507813 0.148438,0.08203 0.01953,-1.505859 0.582031,0.326171 -0.01953,1.505861 -0.582031,-0.326173 -0.0098,0.78125 0.582031,0.328126 -0.0332,2.666015 1.101563,-0.01367 -0.34961,0.589844 0.804687,-0.0098 0.351563,-0.591796 1.550781,-0.01953 -0.351562,0.591797 -1.550782,0.01953 -0.08984,0.152344 1.548828,-0.02148 -4.541016,7.644531 3.076172,10.921868 -0.720703,1.248058 -7.060547,1.79687 0.07617,0.13477 7.439453,-1.89258 0.527344,-0.914058 -3.175781,-11.273443 4.55664,-7.667969 8.527345,-0.107422 7.539062,7.732422 0.636719,0.654297 c 0.289184,0.296618 0.765502,0.296618 1.054687,0 l 5.435565,-5.576107 -0.07813,-0.132813 -0.419921,0.429687 -4.744141,4.867188 c -0.394574,0.404776 -1.044878,0.404776 -1.439453,0 l -7.921875,-8.125 -8.5,0.107422 0.351562,-0.591797 8.392579,-0.107422 8.396484,8.613281 5.621094,-5.765625 c 0.02293,0.102854 0.04666,0.206453 0.101563,0.298828 l 0.162108,0.273438 0.503907,-0.517578 c -0.08211,-0.163656 -0.108581,-0.349897 -0.05859,-0.527344 l 0.101563,-0.359375 1.931641,-1.982422 -0.333985,1.185547 -1.640625,1.683594 c 0.0078,0.01562 0.0086,0.0337 0.01758,0.04883 l 0.05469,0.0918 1.484374,-1.523438 -0.273436,0.970704 5.798831,9.755859 c 0.28874,0.485843 0.11993,1.114246 -0.37305,1.390625 l -9.898438,5.548833 -2.798828,10.996078 c -0.139402,0.54771 -0.702091,0.87194 -1.246094,0.71875 l -10.921875,-3.0742 -9.753906,5.79687 c -0.485844,0.28874 -1.114245,0.11994 -1.390625,-0.37306 l -5.548828,-9.89843 -0.542969,-0.13868 1.736328,-0.4414 -0.07617,-0.13477 -1.96289,0.5 -2.283204,-0.58008 c -0.0095,0.0144 -0.0247,0.0239 -0.0332,0.0391 l -0.05273,0.0937 2.0625,0.52539 -0.976563,0.24804 -5.550781,9.89844 c -0.27638,0.49299 -0.902829,0.66179 -1.388672,0.37305 l -9.755859,-5.79883 -10.921875,3.07617 c -0.544018,0.15312 -1.106746,-0.17299 -1.246094,-0.7207 L 27.369159,99.454252 17.472675,93.905414 c -0.492984,-0.276379 -0.661792,-0.904782 -0.373047,-1.390625 l 5.796875,-9.755859 -0.152344,-0.53711 1.251953,1.28125 0.07813,-0.132812 -1.414062,-1.451173 -0.638672,-2.265624 c -0.01735,-10e-4 -0.03328,-0.01 -0.05078,-0.0098 l -0.105468,0.002 0.578124,2.050782 -0.70703,-0.72461 -11.345704,0.142579 C 9.825525,81.121512 9.365932,80.661959 9.373072,80.096833 L 9.515626,68.751132 1.3906264,60.829257 c -0.40461611,-0.394573 -0.40465461,-1.04492 0,-1.439453 L 9.515626,51.467929 9.373048,40.122226 c -0.0071,-0.565126 0.452453,-1.024718 1.017578,-1.017579 l 11.345704,0.142579 0.392578,-0.404297 -0.486329,1.728515 0.156251,0.002 0.550781,-1.955078 1.640624,-1.681641 c -0.0078,-0.01562 -0.0086,-0.0337 -0.01758,-0.04883 l -0.05469,-0.0918 -1.484376,1.521485 0.273438,-0.968751 -5.798829,-9.755859 c -0.288746,-0.485844 -0.119936,-1.112293 0.373047,-1.388672 L 27.17773,20.65547 29.976558,9.6574233 c 0.139402,-0.547694 0.704044,-0.871925 1.248047,-0.71875 L 42.14648,12.012892 51.900386,6.2160173 c 0.485844,-0.288747 1.114246,-0.119936 1.390625,0.373047 l 5.548834,9.8983957 0.542969,0.138672 -1.738281,0.441406 0.07617,0.134766 1.964843,-0.5 2.28125,0.580078 c 0.0095,-0.0145 0.02466,-0.02382 0.0332,-0.03906 l 0.05273,-0.0918 -2.064443,-0.52539 0.980468,-0.25 5.548829,-9.8984377 c 0.207284,-0.369737 0.613179,-0.555263 1.007812,-0.503906 z m -5.472656,11.1777347 0.689453,0.173827 5.025391,-8.9648427 9.238281,5.4902337 c 0.236764,0.140714 0.521992,0.178137 0.787109,0.103516 l 10.345704,-2.912109 2.648437,10.416015 c 0.06792,0.266954 0.242151,0.494205 0.482422,0.628906 l 9.374997,5.25586 -5.136716,8.642578 0.496094,0.509766 5.593752,-9.408204 -9.83594,-5.511718 c -0.17615,-0.09872 -0.303731,-0.26524 -0.353516,-0.460938 l -2.779296,-10.925781 -10.851563,3.05664 c -0.19437,0.05473 -0.4026,0.02702 -0.576171,-0.07617 L 67.51172,7.4093353 Z m -0.08594,0.130859 c -0.10067,0.153107 -0.248938,0.268986 -0.427734,0.314453 l -1.855469,0.472656 -1.416015,-0.361328 c -0.195696,-0.04978 -0.362216,-0.177364 -0.460938,-0.353516 l -0.08594,-0.152343 -0.6875,0.173828 0.263671,0.470703 c 0.134719,0.240299 0.361919,0.414523 0.628907,0.482422 l 0.367187,0.09375 -7.011718,1.783203 -0.09375,-0.330078 -0.240234,0.414062 -0.333984,0.08594 0.09375,0.332031 -0.240235,0.414063 0.332032,-0.08398 2.871093,10.189453 c 0.05476,0.194389 0.02703,0.40258 -0.07617,0.576172 l -4.257812,7.16211 0.806641,-0.0098 4.134765,-6.957031 c 0.140746,-0.236819 0.178207,-0.519989 0.103516,-0.785156 l -2.914063,-10.345703 8.220703,-2.089844 3.064454,0.779297 5.589843,1.421875 -2.914062,10.34375 c -0.07469,0.265165 -0.03723,0.550288 0.103515,0.787109 l 3.935547,6.621093 0.806641,0.0098 L 66.21289,31.9152 c -0.103191,-0.173571 -0.128953,-0.383754 -0.07422,-0.578124 l 3.011719,-10.699219 0.04297,-0.150391 -8.113281,-2.064453 0.802734,-0.203125 c 0.266988,-0.0679 0.494188,-0.242123 0.628906,-0.482422 l 0.154297,-0.277344 z m 7.5,21.449218 -0.259766,-0.0039 c -0.414238,-0.0053 -0.751331,0.331854 -0.746093,0.746094 l 0.04102,3.289062 0.148437,-0.08398 -0.03516,-2.777344 c -0.0069,-0.541567 0.418633,-0.973948 0.951172,-1.003907 z m -0.964843,4.031251 -6.853516,3.841797 c -0.24036,0.134707 -0.41451,0.36187 -0.482422,0.628906 L 59.91797,52.137851 58.64258,47.122226 C 58.57465,46.855231 58.400488,46.628011 58.160158,46.49332 l -6.660157,-3.732423 -0.0098,0.781251 6.175781,3.46289 c 0.176112,0.09873 0.30374,0.265275 0.353516,0.460938 l 1.542968,6.068359 -0.68164,2.677734 0.355469,1.394532 0.68164,-2.679688 0.681641,2.685547 0.355469,-1.396484 -0.681641,-2.685547 1.513672,-5.953125 c 0.04978,-0.195667 0.177408,-0.362209 0.353515,-0.460937 L 68.511686,43.5441 Z m -9.621094,13.449218 -2.080078,-8.175781 -5.330078,-2.986327 0.01953,-1.507813 -0.148438,-0.08203 -0.01953,1.505859 -1.314453,-0.736329 -0.002,0.171876 1.314453,0.736328 -0.08203,6.330078 5.960937,5.810547 0.300781,0.08594 -6.109375,-5.957032 0.07813,-6.1875 5.201172,2.916015 2.132813,8.382813 z m -0.07813,0.306641 -0.28711,1.130859 -1.015625,-0.285155 1.03125,1.003906 0.476563,0.134765 0.150391,-0.589844 z m -1.603516,0.759766 -2.667969,-0.751953 -4.396484,-4.285156 c -0.144564,-0.140942 -0.223255,-0.335232 -0.220703,-0.53711 l 0.0918,-7.302734 -0.683594,-0.384766 -0.09961,7.857422 c -0.0035,0.275511 0.107383,0.54009 0.304687,0.732422 l 3.623047,3.53125 -4.980469,-1.402344 c -0.265188,-0.07467 -0.550297,-0.03727 -0.787109,0.103516 l -6.5625,3.902344 0.673828,0.398437 6.085937,-3.617188 c 0.173559,-0.103151 0.381836,-0.130896 0.576173,-0.07617 l 6.02539,1.697265 1.982422,1.93164 1.380859,0.390625 -1.982422,-1.933593 2.667969,0.751953 z m -1.035156,1.796874 -8.125,-2.287109 -5.25,3.123047 -1.294922,-0.771484 -0.148437,0.08789 1.294922,0.769532 -1.292969,0.769531 0.146484,0.08789 1.294922,-0.76953 5.441406,3.236328 8.011719,-2.257813 0.224609,-0.21875 -8.21289,2.314453 -5.318359,-3.162109 5.124999,-3.044922 8.330078,2.34375 z m 0.226562,0.220704 0.832032,0.8125 -0.75586,0.736328 1.386719,-0.390625 0.353516,-0.34375 -0.435547,-0.423828 z m -0.148437,1.767578 -1.984375,1.935547 -5.908203,1.664062 c -0.194341,0.05473 -0.402617,0.02698 -0.576172,-0.07617 l -6.279297,-3.732423 -0.673828,0.400391 6.753906,4.013672 c 0.236841,0.140804 0.521893,0.178221 0.787109,0.103516 l 4.867188,-1.369141 -3.703125,3.609376 c -0.197259,0.192325 -0.306253,0.456942 -0.302734,0.732421 l 0.09766,7.634766 0.683594,-0.382813 -0.08984,-7.080078 c -0.0026,-0.201882 0.07614,-0.396171 0.220703,-0.537109 l 4.480469,-4.367188 2.664062,-0.75 1.03125,-1.005859 -2.666015,0.751953 1.986328,-1.935547 z m 1.037109,1.798828 -6.041015,5.888672 0.07813,6.109375 -1.3125,0.736328 0.002,0.169922 1.314453,-0.734375 0.01758,1.505859 0.150391,-0.08398 -0.01953,-1.50586 5.523438,-3.095703 2.052734,-8.068359 -0.07813,-0.304687 -2.103515,8.271484 -5.396485,3.02539 -0.07617,-5.96289 6.19336,-6.037109 z m 0.304688,-0.08594 1.123047,-0.316407 0.259765,1.019532 0.353516,-1.394531 -0.121094,-0.478517 -0.583984,0.164063 z m 1.460937,1.007812 0.681641,2.683593 -1.513672,5.953126 c -0.04978,0.195667 -0.177408,0.362209 -0.353516,0.460937 l -6.371093,3.572266 0.0098,0.783203 6.853516,-3.841797 c 0.24036,-0.134708 0.41451,-0.363823 0.482422,-0.630859 l 1.248047,-4.904297 1.27539,5.015625 c 0.06793,0.266995 0.242092,0.494215 0.482422,0.628906 l 6.660157,3.732422 0.0098,-0.78125 -6.177734,-3.46289 c -0.176112,-0.09873 -0.30374,-0.265275 -0.353516,-0.460938 l -1.542969,-6.066406 0.681641,-2.683594 -0.353516,-1.390625 -0.68164,2.683594 -0.683594,-2.685547 z m 9.455079,13.453125 -0.03906,3.066406 c -0.0052,0.41424 0.331856,0.751388 0.746093,0.746094 l 0.650392,-0.0078 0.0918,-0.152344 -0.316406,0.0039 c -0.565177,0.0071 -1.024798,-0.452397 -1.017578,-1.017581 l 0.0332,-2.556641 z m 1.357422,3.804688 -4.134766,6.957031 c -0.140746,0.236819 -0.178207,0.519988 -0.103516,0.785156 l 2.914062,10.34571 -8.220703,2.089838 -3.066406,-0.7793 -5.58789,-1.419918 2.914062,-10.345705 c 0.07469,-0.265165 0.03723,-0.550288 -0.103516,-0.787109 l -3.935546,-6.621094 -0.806641,-0.0098 4.058594,6.828126 c 0.103191,0.173571 0.130905,0.381801 0.07617,0.576171 l -3.013672,10.701171 -0.04102,0.14844 8.111328,2.064448 -0.800781,0.20312 c -0.266988,0.0679 -0.494188,0.24408 -0.628906,0.48438 l -0.154297,0.27539 0.697265,0.17773 c 0.100668,-0.1532 0.248865,-0.26896 0.427735,-0.31445 l 1.855469,-0.47266 1.416015,0.36133 c 0.195696,0.0498 0.362216,0.17737 0.460938,0.35352 l 0.08594,0.15234 0.689453,-0.17383 -0.263672,-0.4707 c -0.134718,-0.2403 -0.361918,-0.41452 -0.628906,-0.48242 l -0.367187,-0.0937 7.011719,-1.783198 0.09375,0.330068 0.240234,-0.414058 0.333984,-0.0859 -0.09375,-0.33203 0.240235,-0.41406 -0.332032,0.084 -2.871093,-10.189446 c -0.05476,-0.194388 -0.02898,-0.402579 0.07422,-0.576171 l 4.259766,-7.16211 z m -0.470704,18.580077 0.205078,0.728518 0.527344,-0.914058 z m -12.052734,2.916018 -0.583985,-0.14844 -6.58789,-1.67578 c -0.547833,-0.13932 -0.87201,-0.70199 -0.71875,-1.246088 l 3.076172,-10.923834 -4.34375,-7.306641 1.550781,0.01953 -0.08984,-0.152344 -1.550781,-0.01953 -0.792969,-1.332031 -0.175781,-0.002 0.792968,1.332032 -8.890625,-0.111329 -7.921874,8.125 h -1.439454 l -5.08789,-5.216797 -0.07813,0.132813 5.357422,5.496094 h 1.05664 l 8.175782,-8.386719 8.917968,0.113281 4.357422,7.330078 -2.927734,10.396487 -0.246093,0.87695 c -0.112288,0.398748 0.125871,0.811928 0.527343,0.914058 l 7.546875,1.91992 z m -0.07617,0.13476 -5.025391,8.96485 -9.238281,-5.49024 c -0.236764,-0.14071 -0.521992,-0.17813 -0.787109,-0.10351 l -10.345703,2.91211 -2.650391,-10.416018 c -0.06792,-0.26695 -0.242151,-0.4942 -0.482422,-0.6289 l -9.373047,-5.255866 5.136719,-8.642578 -0.496094,-0.509766 -5.59375,9.408203 9.835938,5.511727 c 0.17615,0.0987 0.303731,0.26523 0.353515,0.46093 l 2.779297,10.925778 10.84961,-3.05664 c 0.19437,-0.0547 0.4026,-0.027 0.576171,0.0762 l 9.689454,5.75976 5.458984,-9.74023 z m -32.6875,-18.792965 0.27539,-0.462891 c 0.140747,-0.236819 0.178208,-0.521941 0.103516,-0.787108 l -0.103516,-0.365235 5.052735,5.183594 -0.240235,0.246093 h 0.480469 l 0.238282,0.246094 0.240234,-0.246094 h 0.480469 l -0.240235,-0.246093 7.390625,-7.582031 c 0.140966,-0.144617 0.335173,-0.225238 0.53711,-0.222657 l 8.332031,0.107422 -0.41211,-0.69336 -8.091796,-0.101562 c -0.275465,-0.0035 -0.540126,0.105466 -0.732422,0.302734 l -7.503906,7.697266 -5.919922,-6.074218 -0.857422,-3.046876 -1.564453,-5.550781 10.416015,-2.648437 c 0.266985,-0.0679 0.494187,-0.242121 0.628907,-0.482422 l 3.767578,-6.71875 -0.394531,-0.703125 -3.882813,6.927734 c -0.09872,0.176152 -0.265241,0.305685 -0.460938,0.355469 l -10.773437,2.740234 -0.152344,0.03906 2.269532,8.058593 -0.578126,-0.59375 C 22.6827,79.06167 22.418039,78.952724 22.142574,78.956204 l -0.316406,0.0039 0.195313,0.69336 c 0.182894,0.01065 0.357578,0.0808 0.486328,0.212891 l 1.335937,1.371093 0.396485,1.40625 c 0.05473,0.19437 0.02702,0.402601 -0.07617,0.576172 l -0.08984,0.150391 z m -2.744141,-4.919922 -0.162109,-0.578125 -1.84375,-6.544922 c -0.153259,-0.544099 0.172869,-1.10677 0.720703,-1.246093 l 10.998047,-2.796876 4.15625,-7.414062 0.757813,1.351563 0.08594,-0.154297 -0.757812,-1.351563 0.759765,-1.353515 -0.08789,-0.154297 -0.757813,1.353515 -4.347656,-7.755859 -10.998047,-2.796875 -0.720703,-1.248047 1.976562,-7.011718 -0.154297,-0.0039 -2.082031,7.388672 0.527344,0.914063 11.351562,2.886718 4.361329,7.779297 -4.169922,7.439453 -10.466797,2.664063 -0.884766,0.224609 c -0.401472,0.102132 -0.639631,0.515312 -0.527344,0.914063 l 2.111328,7.496094 z m -0.154297,0.002 -10.27539,0.128906 0.134766,-10.746094 c 0.0035,-0.2754 -0.105553,-0.540134 -0.302735,-0.732421 l -7.6953073,-7.50395 7.6953123,-7.501953 c 0.19723,-0.192296 0.306214,-0.456991 0.302735,-0.732422 l -0.134766,-10.746094 10.054687,0.126953 0.191406,-0.683594 -10.943359,-0.140625 0.142578,11.273438 c 0.0026,0.201911 -0.07612,0.396146 -0.220703,0.53711 l -8.0722652,7.86914 8.0722652,7.869141 c 0.144586,0.140962 0.223283,0.335196 0.220703,0.537109 L 10.69922,79.788242 21.865236,79.645663 Z m -0.06641,-37.703125 0.537109,0.0059 c 0.275465,0.0035 0.540126,-0.107419 0.732422,-0.304687 l 0.265625,-0.273438 -1.96289,6.966796 -0.332032,-0.08398 0.240235,0.416015 -0.09375,0.330078 0.332031,0.08594 0.240235,0.416015 0.09375,-0.332031 10.259765,2.609375 c 0.195725,0.04977 0.362204,0.177342 0.460937,0.353516 l 4.07422,7.269531 0.394531,-0.703125 -3.958984,-7.058594 C 32.753946,50.716 32.526745,50.541776 32.259758,50.473878 l -10.416016,-2.650392 2.300782,-8.166015 2.207031,-2.263672 4.027343,-4.128906 7.501954,7.695313 c 0.192295,0.197266 0.456955,0.308167 0.732422,0.304687 l 7.701171,-0.09766 0.41211,-0.69336 -7.941406,0.101563 c -0.201914,0.0026 -0.396147,-0.07807 -0.53711,-0.222657 l -7.761718,-7.960937 -0.107423,-0.111328 -5.845703,5.994141 0.22461,-0.794922 c 0.07469,-0.265168 0.03723,-0.550291 -0.103516,-0.78711 l -0.162109,-0.271485 -0.501954,0.515626 c 0.08211,0.163655 0.108582,0.349896 0.0586,0.527344 l -0.517579,1.839844 -1.023437,1.048827 c -0.140962,0.144586 -0.335197,0.225237 -0.53711,0.222657 l -0.171874,-0.002 z m 2.886719,-4.837892 0.419922,-0.429687 4.746093,-4.86914 c 0.394575,-0.404776 1.04488,-0.404776 1.439454,0 l 7.921874,8.125 8.500001,-0.107422 -0.792969,1.333984 0.175782,-0.002 0.792968,-1.333984 1.550781,-0.01953 0.08984,-0.152344 -1.550781,0.02148 4.542968,-7.644531 -3.076171,-10.921875 0.71875,-1.248047 7.0625,-1.796875 -0.07617,-0.134765 -7.439454,1.892577 -0.527343,0.914063 3.175781,11.275391 -4.556641,7.666015 -8.527343,0.107422 -7.541016,-7.732422 -0.634766,-0.652343 c -0.289185,-0.296619 -0.767455,-0.296619 -1.05664,0 l -5.435547,5.574218 z m -0.07813,-0.134765 -5.25,-8.833984 9.373047,-5.253906 c 0.240244,-0.134687 0.414486,-0.361998 0.482422,-0.628907 l 2.652344,-10.416015 10.343749,2.912109 c 0.265149,0.07466 0.550319,0.03721 0.78711,-0.103516 l 9.238281,-5.4902337 4.916016,8.7695317 0.6875,-0.173829 -5.34961,-9.5488267 -9.689453,5.7617177 c -0.17357,0.10319 -0.3818,0.130906 -0.576171,0.07617 l -10.851563,-3.05664 -2.779297,10.925781 c -0.04978,0.195697 -0.177364,0.362216 -0.353515,0.460938 l -9.833985,5.511719 5.707032,9.597656 z m 24.832031,2.832032 -0.792969,1.333984 -1.55078,0.01953 -0.373047,0.626953 c -0.01255,0.02111 -0.01261,0.0448 -0.02344,0.06641 l 1.535156,-0.01953 -0.207031,0.347657 1.509766,0.845702 -0.01953,1.507813 0.683593,0.382812 0.01953,-1.505859 1.314453,0.736329 0.0098,-0.783204 -1.314453,-0.736328 0.01953,-1.509766 -0.796875,0.0098 0.791016,-1.332031 z m 0.804688,-0.0098 0.314453,-0.0039 c 0.565176,-0.0071 1.026751,0.452395 1.019531,1.017579 l -0.0332,2.554687 0.148437,0.08398 0.03906,-3.066405 c 0.0052,-0.41424 -0.331856,-0.751388 -0.746094,-0.746094 l -0.65039,0.0078 z m -0.726562,4.738281 -2.421875,-1.357422 c -0.471648,-0.264331 -0.63495,-0.848488 -0.396485,-1.324219 l -0.191407,0.002 -0.132812,0.222656 c -0.211704,0.356094 -0.08988,0.816947 0.271484,1.019531 l 2.869141,1.607422 z m -12.476563,14.167969 0.08594,0.154297 0.154297,-0.273438 c 0.276404,-0.493027 0.904772,-0.661891 1.390625,-0.373047 l 2.195313,1.304688 0.146484,-0.08594 -2.636718,-1.56836 c -0.356124,-0.211655 -0.815045,-0.08795 -1.017579,0.273438 z m 3.826172,0.8125 -1.294922,0.771484 -1.296875,-0.771484 -0.388672,0.695313 -0.759766,-1.353516 -0.392578,0.703125 0.757813,1.353515 -0.759766,1.351563 0.357422,0.636719 c 0.0118,0.02105 0.03188,0.03288 0.04492,0.05273 l 0.751953,-1.337891 0.197266,0.353516 1.488281,-0.884765 1.294922,0.769531 0.673828,-0.400391 -1.296875,-0.769531 1.294922,-0.769532 z m 0,2.339844 -2.386719,1.419922 c -0.465111,0.276512 -1.05319,0.124903 -1.345703,-0.320313 l -0.09375,0.167969 0.126953,0.226562 c 0.202534,0.361388 0.663408,0.485093 1.019531,0.273438 L 40.8203,61.255047 Z M 20.992175,48.315594 20.259753,48.130047 20.787097,49.04411 Z m 25.71289,30.742187 0.175782,0.002 -0.160156,-0.269531 c -0.288772,-0.485888 -0.120026,-1.114286 0.373047,-1.390626 l 2.228515,-1.248046 -0.002,-0.171875 -2.675782,1.499999 c -0.361359,0.202585 -0.483188,0.663438 -0.271484,1.019532 z m 2.617188,-2.906249 0.01953,1.505859 -1.316406,0.738281 0.40625,0.683594 -1.550781,-0.01953 0.412109,0.693359 1.550781,0.01953 0.792969,1.332031 0.728516,0.0098 c 0.02428,3.06e-4 0.0445,-0.01228 0.06836,-0.01367 l -0.783203,-1.318359 0.40625,0.0059 -0.02148,-1.732422 1.314453,-0.736329 -0.01172,-0.78125 -1.3125,0.736329 -0.01953,-1.507813 z m 2.027344,1.167968 0.03516,2.777344 c 0.0069,0.540899 -0.419563,0.972962 -0.951172,1.003906 l 0.09961,0.166016 0.259765,0.0039 c 0.414239,0.0053 0.751332,-0.331854 0.746094,-0.746094 l -0.04102,-3.287109 z M 30.376941,87.940594 29.849597,88.48161 h 1.05664 z m 20.236342,-67.564462 -0.205078,-0.728516 -0.527344,0.914063 z m 11.740234,82.554688 5.349609,9.54882 9.691406,-5.76171 c 0.173571,-0.10319 0.381802,-0.13091 0.576173,-0.0762 l 10.851562,3.05665 2.779297,-10.925788 c 0.04978,-0.19569 0.177363,-0.36221 0.353516,-0.46093 l 9.83203,-5.511722 -5.705077,-9.597656 -0.498047,0.509766 5.251954,8.833984 -9.375001,5.255858 c -0.240244,0.13469 -0.414486,0.362 -0.482422,0.62891 l -2.65039,10.414058 -10.34375,-2.91211 c -0.265148,-0.0747 -0.55032,-0.0372 -0.78711,0.10352 l -9.238281,5.49023 -4.916016,-8.76953 z m -1.158203,-39.455079 0.287109,-1.126952 1.017578,0.287109 -1.03125,-1.00586 -0.476562,-0.134766 -0.150391,0.589845 z m -0.517578,-5.5625 0.121094,0.478516 0.58789,-0.166016 1.027344,-1.001952 -1.121094,0.316405 -0.259765,-1.023437 z m 29.166015,-26.083984 0.462891,0.476562 h -0.443359 l -0.242188,-0.248046 -0.242188,0.248046 h -0.443359 l 0.462891,-0.474609 0.222656,0.226563 z m -0.923828,0.494141 0.220703,0.226562 -7.388671,7.582031 c -0.140966,0.144617 -0.335173,0.225237 -0.53711,0.222657 l -8.332031,-0.107422 0.410157,0.693359 8.093749,0.101562 c 0.275464,0.0035 0.540126,-0.105466 0.732422,-0.302733 l 7.501953,-7.695313 5.919922,6.072265 0.859375,3.046875 1.5625,5.550781 -10.416015,2.648438 c -0.266985,0.0679 -0.494187,0.24212 -0.628907,0.482422 l -3.765625,6.716797 0.394532,0.705078 3.882812,-6.927735 c 0.09872,-0.176152 0.265241,-0.305684 0.460937,-0.355468 l 10.773438,-2.740234 0.150391,-0.03906 -2.267578,-8.05664 0.576171,0.591797 c 0.192297,0.197267 0.456958,0.306214 0.732423,0.302733 l 0.316405,-0.0039 -0.195312,-0.693359 C 97.793793,40.334161 97.618908,40.264001 97.490236,40.132 l -1.333984,-1.369141 -0.179688,-0.640624 1.867188,1.916015 h 0.04687 l 0.08594,0.306641 c 0.01746,0.001 0.03317,0.01 0.05078,0.0098 l 0.107422,-0.002 -0.08984,-0.316405 11.576166,-0.146485 -0.14843,11.77539 8.43359,8.22461 -8.43359,8.222656 0.14843,11.775391 -11.35351,-0.142578 0.08984,-0.31836 -0.156251,-0.002 -0.08984,0.31836 -0.267578,-0.0039 -1.554688,1.59375 0.18164,-0.640625 1.019532,-1.046875 c 0.140962,-0.144585 0.335197,-0.225236 0.537109,-0.222656 l 0.173828,0.002 0.191407,-0.683593 -0.537109,-0.0059 c -0.275465,-0.0035 -0.540126,0.105466 -0.732423,0.302734 l -0.263671,0.269531 1.96289,-6.96289 0.332031,0.08398 -0.240234,-0.414062 0.09375,-0.332032 -0.333984,-0.08594 -0.240235,-0.414062 -0.09375,0.330078 -10.257813,-2.609375 c -0.195724,-0.04977 -0.362204,-0.177343 -0.460937,-0.353516 l -4.074218,-7.269531 -0.394532,0.703125 3.957031,7.058593 c 0.134718,0.2403 0.361919,0.416476 0.628907,0.484376 l 10.416016,2.648437 -2.300782,8.166015 -2.207031,2.263672 -4.025391,4.128907 -7.501953,-7.695313 C 81.926847,78.840975 81.662187,78.732027 81.38672,78.735507 l -7.701171,0.0957 -0.41211,0.69336 7.941406,-0.101563 c 0.201913,-0.0026 0.396148,0.07807 0.53711,0.222656 l 7.761718,7.960938 0.107422,0.111328 5.843751,-5.994141 -0.181641,0.642578 -5.66211,5.808594 -8.220703,-8.435547 -8.316407,0.105469 0.189454,-0.320312 -0.177735,0.002 -0.189453,0.320312 -1.548828,0.01953 0.189453,-0.320313 1.548828,-0.01953 0.373047,-0.626953 c 0.01222,-0.02056 0.01285,-0.04342 0.02344,-0.06445 l -1.533203,0.01953 0.207031,-0.349609 -1.511719,-0.847656 0.01953,-1.505859 -0.68164,-0.382813 -0.01953,1.50586 -0.316406,-0.177735 0.01953,-1.50586 0.316406,0.177735 0.002,-0.169921 -0.316407,-0.177735 0.09375,-7.308594 -4.947266,-4.822265 0.644531,0.18164 4.394532,4.285156 c 0.144564,0.140942 0.225208,0.335231 0.222656,0.53711 l -0.0918,7.304688 0.681641,0.382811 0.101562,-7.857421 c 0.0035,-0.275511 -0.107383,-0.54009 -0.304688,-0.732422 l -3.623046,-3.53125 4.980468,1.402343 c 0.26519,0.07467 0.548345,0.03727 0.785157,-0.103515 l 6.5625,-3.900391 -0.671875,-0.40039 -6.085937,3.617188 c -0.17356,0.103151 -0.381836,0.130896 -0.576172,0.07617 l -6.025391,-1.697266 -1.980469,-1.93164 -1.382812,-0.388672 1.980468,1.931641 -0.642578,-0.181641 -1.982422,-1.931641 0.644532,0.181641 -0.226563,-0.220703 -0.644531,-0.181641 -0.248047,-0.242187 0.171875,-0.166016 0.638672,-0.18164 0.222656,-0.216798 -0.638672,0.179689 1.984375,-1.935548 0.638672,-0.179687 -1.984375,1.935546 1.388672,-0.390625 1.984375,-1.935546 5.908203,-1.664062 c 0.194342,-0.05473 0.402617,-0.02698 0.576172,0.07617 l 6.279297,3.732422 0.671875,-0.400391 -6.753907,-4.013671 c -0.236884,-0.140848 -0.519983,-0.178265 -0.7852,-0.10356 l -4.871094,1.371094 3.705078,-3.611329 c 0.19726,-0.192325 0.308207,-0.456943 0.304688,-0.732421 l -0.09766,-7.634766 -0.683594,0.382813 0.08984,7.080078 c 0.0026,0.201882 -0.0781,0.396171 -0.222656,0.537109 l -4.482422,4.369141 -0.638672,0.179687 5.029297,-4.902344 -0.08984,-7.08789 0.314453,-0.175781 -0.002,-0.169922 -0.314453,0.175781 -0.01953,-1.507812 0.314453,-0.175782 0.01953,1.507813 0.681641,-0.382813 -0.01953,-1.507812 1.31836,-0.738281 -0.40625,-0.683594 1.548828,0.01953 -0.41211,-0.693359 -1.548828,-0.01953 -0.189453,-0.31836 1.548828,0.01953 0.189453,0.31836 0.177735,0.002 -0.189453,-0.31836 8.707031,0.109375 z m -15.802734,8.615234 0.160156,0.269531 c 0.288772,0.485888 0.12198,1.114286 -0.371094,1.390626 l -2.230468,1.249999 0.0039,0.169922 2.673828,-1.5 c 0.36136,-0.202584 0.485142,-0.661485 0.273437,-1.017578 l -0.333983,-0.560547 z m 6.060547,17.804687 0.146484,0.08789 2.388672,-1.419922 c 0.464727,-0.276284 1.050979,-0.124038 1.34375,0.320313 l 0.0957,-0.169922 -0.126953,-0.22461 c -0.202532,-0.361386 -0.663405,-0.485092 -1.019528,-0.273436 z m 3.878906,-1.011718 -0.75,1.33789 -0.197266,-0.353515 -1.488281,0.884765 -1.296875,-0.769531 -0.671875,0.398438 1.296875,0.771484 -1.296875,0.769532 0.673828,0.40039 1.294922,-0.771484 1.296875,0.771484 0.388672,-0.695313 0.759766,1.353516 0.392578,-0.703125 -0.757813,-1.353516 0.759766,-1.351563 -0.357422,-0.636718 c -0.01202,-0.02144 -0.03357,-0.03254 -0.04687,-0.05273 z m 0.404297,0.689452 0.757812,1.351563 -0.759765,1.353516 0.08789,0.154297 0.757812,-1.353515 4.347656,7.755859 10.998046,2.796875 0.71875,1.248047 -1.976561,7.013672 0.15625,0.002 2.082031,-7.388672 -0.52734,-0.914063 -11.351566,-2.886719 -4.361328,-7.779296 4.169921,-7.439454 10.466797,-2.664062 0.882816,-0.224609 c 0.40147,-0.102133 0.64158,-0.515312 0.52929,-0.914063 l -2.111325,-7.496094 -0.15625,0.002 0.164063,0.580078 1.841802,6.542969 c 0.15326,0.544099 -0.17092,1.10677 -0.71875,1.246094 l -10.998052,2.796875 -4.15625,7.414062 -0.757812,-1.351562 z m 14.867187,-17.384765 10.275394,-0.128906 -0.13477,10.746094 c -0.003,0.2754 0.10555,0.540133 0.30274,0.732421 l 7.69531,7.503907 -7.69531,7.501953 c -0.19723,0.192296 -0.30622,0.456991 -0.30274,0.732422 l 0.13477,10.746094 -10.05469,-0.126953 -0.191406,0.683593 10.943356,0.140625 -0.14453,-11.273437 c -0.003,-0.201911 0.0781,-0.396147 0.22266,-0.53711 l 8.07226,-7.869141 -8.07226,-7.86914 c -0.14459,-0.140962 -0.22524,-0.335197 -0.22266,-0.537109 l 0.14453,-11.271485 -11.166013,0.142578 z m -15.261718,20.792969 -0.154297,0.273437 c -0.276405,0.493028 -0.904772,0.661891 -1.390625,0.373047 l -2.195313,-1.304687 -0.148437,0.08789 2.636718,1.566407 c 0.356124,0.211655 0.816998,0.08795 1.019532,-0.273438 l 0.318359,-0.568359 z m -4.414063,-1.058593 -1.294922,-0.769532 1.294922,-0.771484 -0.146484,-0.08594 -1.294922,0.769531 -5.44336,-3.236328 -8.009765,2.257812 -0.224609,0.218751 8.212891,-2.3125 5.316405,3.160156 -5.124999,3.046875 -8.326172,-2.345703 0.226562,0.220703 8.121094,2.28711 5.25,-3.121095 1.296875,0.769532 z m -15.041015,-0.06836 -0.833985,-0.8125 0.75586,-0.736328 -1.386719,0.388672 -0.353516,0.345702 0.435547,0.425782 z m 7.064453,15.279296 -0.002,0.169923 2.421875,1.357421 c 0.472209,0.264646 0.636218,0.850141 0.396485,1.326172 l 0.19336,-0.0039 0.132812,-0.222656 c 0.211704,-0.356095 0.08792,-0.816947 -0.273437,-1.019532 z m 28.332031,-4.298828 0.732426,0.185548 -0.527348,-0.914063 z m -8.683594,-39.359374 4.710937,4.832031 c 0.0043,0.07122 -0.006,0.143092 0.01367,0.21289 l 0.103516,0.363282 -5.050782,-5.179688 z m 7.234375,5.982422 0.703125,0.720703 11.34766,-0.142579 c 0.56512,-0.0071 1.02472,0.452453 1.01757,1.017579 l -0.14257,11.345703 8.12304,7.921875 c 0.40462,0.394572 0.40466,1.04492 0,1.439453 l -8.12304,7.921875 0.14257,11.345703 c 0.007,0.565126 -0.45245,1.024718 -1.01757,1.017578 l -11.34766,-0.142578 -0.390625,0.400391 0.279297,-0.990235 11.896488,0.152344 -0.1543,-12.029297 8.61328,-8.396485 -8.61328,-8.396484 0.1543,-12.027343 -12.029301,0.154296 -0.124999,-0.128906 z m -27.9375,1.583984 0.539062,0.0059 0.189454,0.320312 -0.40625,-0.0059 0.02148,1.732422 -0.314453,0.175781 z m 1.017578,1.017578 0.123048,0.002 0.261718,0.439453 -0.376953,0.210938 z m -21.279297,0.220703 -0.0059,0.429688 -0.568359,-0.31836 0.0625,-0.105469 z m 32.494141,18.539062 0.05859,0.105469 -0.25,0.447266 -0.369137,-0.21875 z m -43.515625,0.111328 0.36914,0.218751 -0.560546,0.333984 -0.05859,-0.105469 z m 21.658203,0.197267 c 0.0071,0.0029 0.01432,0.0051 0.02148,0.0078 0.0011,0.008 0.0045,0.01546 0.0059,0.02344 -0.007,0.0054 -0.01271,0.01195 -0.01953,0.01758 -0.0076,-0.0032 -0.01571,-0.0049 -0.02344,-0.0078 -10e-4,-0.0079 -0.0026,-0.0156 -0.0039,-0.02344 0.007,-0.0053 0.01273,-0.01198 0.01953,-0.01758 z m 9.650391,17.904296 0.316406,0.177735 -0.01953,1.509765 0.796875,-0.0098 -0.189453,0.31836 -0.929688,0.01172 z m 0.998047,0.558594 0.570312,0.320313 -0.0625,0.105468 -0.513672,0.0059 z m -21.292969,0.002 0.0078,0.650391 -0.121093,-0.002 -0.261719,-0.439453 z" />
  </g>
</svg>
