<?xml version="1.0" encoding="UTF-8" standalone="no"?>
<!-- Created with Inkscape (http://www.inkscape.org/) -->

<svg
   width="120"
   height="120"
   viewBox="0 0 120 120"
   version="1.1"
   id="svg1"
   inkscape:version="1.4 (86a8ad7, 2024-10-11)"
   sodipodi:docname="mand_15.svg"
   xmlns:inkscape="http://www.inkscape.org/namespaces/inkscape"
   xmlns:sodipodi="http://sodipodi.sourceforge.net/DTD/sodipodi-0.dtd"
   xmlns="http://www.w3.org/2000/svg"
   xmlns:svg="http://www.w3.org/2000/svg">
  <sodipodi:namedview
     id="namedview1"
     pagecolor="#ffffff"
     bordercolor="#000000"
     borderopacity="0.25"
     inkscape:showpageshadow="2"
     inkscape:pageopacity="0.0"
     inkscape:pagecheckerboard="0"
     inkscape:deskcolor="#d1d1d1"
     inkscape:document-units="px"
     inkscape:zoom="9.725"
     inkscape:cx="60"
     inkscape:cy="60"
     inkscape:window-width="3440"
     inkscape:window-height="1369"
     inkscape:window-x="-8"
     inkscape:window-y="-8"
     inkscape:window-maximized="1"
     inkscape:current-layer="layer1" />
  <defs
     id="defs1">
    <inkscape:path-effect
       effect="copy_rotate"
       starting_point="0,0"
       origin="60,60"
       id="path-effect1"
       is_visible="true"
       lpeversion="1.2"
       lpesatellites=""
       method="normal"
       num_copies="24"
       starting_angle="0"
       rotation_angle="40"
       gap="-0.01"
       copies_to_360="true"
       mirror_copies="false"
       split_items="false"
       link_styles="false" />
  </defs>
  <g
     inkscape:label="Layer 1"
     inkscape:groupmode="layer"
     id="layer1">
    <path
       sodipodi:type="star"
       style="fill:none;stroke:#0000ff"
       id="path1"
       inkscape:flatsided="false"
       sodipodi:sides="10"
       sodipodi:cx="60.359898"
       sodipodi:cy="18.40617"
       sodipodi:r1="14.408368"
       sodipodi:r2="11.060628"
       sodipodi:arg1="0.78539816"
       sodipodi:arg2="1.0995574"
       inkscape:rounded="0"
       inkscape:randomized="0"
       d="m 70.548152,28.594425 -5.166834,-0.333164 -2.767455,4.375886 -3.984228,-3.306524 -4.811,1.913497 -1.279782,-5.016905 -5.016905,-1.279783 1.913496,-4.810998 -3.306524,-3.984229 4.375886,-2.767455 -0.333163,-5.1668349 5.166834,0.3331633 2.767455,-4.3758857 3.984229,3.3065239 4.810999,-1.9134967 1.279782,5.0169051 5.016906,1.279783 -1.913497,4.810998 3.306524,3.984229 -4.375886,2.767455 z m -8.48778,-1.659944 -5.077008,1.015464 -1.540594,4.943051 -4.70426,-2.162662 -4.151819,3.093474 -2.534646,-4.514726 -5.17719,0.06229 0.603118,-5.142317 -4.225052,-2.992678 3.510511,-3.805719 -1.659086,-4.90455 5.077008,-1.015464 1.540594,-4.9430513 4.70426,2.1626626 4.151819,-3.0934741 2.534646,4.5147258 5.17719,-0.0623 -0.603118,5.142317 4.225052,2.992678 -3.510511,3.805718 z m -8.628192,0.593417 -4.641191,2.294889 -0.208744,5.173356 -5.103705,-0.87142 -3.209699,4.062637 -3.616776,-3.704876 -4.984659,1.400128 -0.748363,-5.123195 -4.855648,-1.797182 2.405901,-4.584628 -2.871945,-4.308029 4.641191,-2.29489 0.208744,-5.173355 5.103705,0.871419 3.209699,-4.0626363 3.616776,3.7048753 4.984659,-1.400128 0.748363,5.123196 4.855648,1.797181 -2.405901,4.584629 z m -8.180605,2.806337 -3.889086,3.417921 1.137332,5.051105 -5.15534,0.479209 -2.048844,4.754937 -4.45243,-2.642544 -4.452431,2.642544 -2.048843,-4.754936 -5.155341,-0.47921 1.137333,-5.051104 -3.889086,-3.417922 3.889085,-3.417922 -1.137332,-5.051105 5.15534,-0.479209 2.048844,-4.754937 4.45243,2.642545 4.452431,-2.642545 2.048843,4.754936 5.155341,0.47921 -1.137332,5.051104 z m -7.175525,4.828009 -2.871945,4.308029 2.405901,4.584629 -4.855648,1.797181 -0.748363,5.123196 -4.984658,-1.400128 -3.616777,3.704875 -3.209699,-4.062636 -5.103706,0.87142 -0.208743,-5.173356 -4.641192,-2.294889 2.871946,-4.308029 -2.405901,-4.584629 4.855648,-1.797181 0.748363,-5.123196 4.984658,1.400128 3.616777,-3.704875 3.209699,4.062636 5.103705,-0.87142 0.208743,5.173355 z m -5.681444,6.520662 -1.659086,4.90455 3.510511,3.805719 -4.225051,2.992678 0.603118,5.142317 -5.17719,-0.0623 -2.534646,4.514726 -4.151818,-3.093474 -4.704262,2.162662 -1.540593,-4.94305 -5.0770081,-1.015465 1.6590861,-4.90455 -3.5105109,-3.805718 4.225051,-2.992678 -0.6031177,-5.142318 5.1771896,0.0623 2.534646,-4.514726 4.151819,3.093474 4.704261,-2.162663 1.540593,4.943051 z m -3.800181,7.768942 -0.333164,5.166834 4.375886,2.767455 -3.306524,3.984228 1.913497,4.811 -5.016905,1.279782 -1.279783,5.016905 -4.810998,-1.913496 -3.984229,3.306524 -2.767455,-4.375886 -5.1668349,0.333163 0.3331633,-5.166834 -4.3758857,-2.767455 3.3065239,-3.984229 -1.9134967,-4.810999 5.0169051,-1.279782 1.279783,-5.016906 4.810998,1.913497 3.984229,-3.306524 2.767455,4.375886 z m -1.659944,8.48778 1.015464,5.077008 4.943051,1.540594 -2.162662,4.70426 3.093474,4.151819 -4.514726,2.534646 0.06229,5.17719 -5.142317,-0.603118 -2.992678,4.225052 -3.805719,-3.510511 -4.90455,1.659086 -1.015464,-5.077008 -4.9430513,-1.540594 2.1626626,-4.70426 -3.0934741,-4.151819 4.5147258,-2.534646 -0.0623,-5.17719 5.142317,0.603118 2.992678,-4.225052 3.805718,3.510511 z m 0.593417,8.628192 2.294889,4.641191 5.173356,0.208744 -0.87142,5.103705 4.062637,3.209699 -3.704876,3.616776 1.400128,4.984659 -5.123195,0.748363 -1.797182,4.855648 -4.584628,-2.405901 -4.308029,2.871945 -2.29489,-4.641191 -5.173355,-0.208744 0.871419,-5.103705 -4.0626363,-3.209699 3.7048753,-3.616776 -1.400128,-4.984659 5.123196,-0.748363 1.797181,-4.855648 4.584629,2.405901 z m 2.806337,8.180605 3.417921,3.889086 5.051105,-1.137332 0.479209,5.15534 4.754937,2.048844 -2.642544,4.45243 2.642544,4.452431 -4.754936,2.048843 -0.47921,5.155343 -5.051104,-1.137335 -3.417922,3.889085 -3.417922,-3.889084 -5.051105,1.137334 -0.479209,-5.155342 -4.754937,-2.048844 2.642545,-4.45243 -2.642545,-4.452431 4.754936,-2.048843 0.47921,-5.155341 5.051104,1.137332 z m 4.828009,7.175525 4.308029,2.871945 4.584629,-2.405901 1.797181,4.855648 5.123196,0.748363 -1.400128,4.984658 3.704875,3.616777 -4.062636,3.209699 0.87142,5.103701 -5.173356,0.20875 -2.294889,4.64119 -4.308029,-2.87195 -4.584629,2.40591 -1.797181,-4.85565 -5.123196,-0.74837 1.400128,-4.984654 -3.704875,-3.616777 4.062636,-3.209699 -0.87142,-5.103705 5.173355,-0.208743 z m 6.520662,5.681444 4.90455,1.659086 3.805719,-3.510511 2.992678,4.225051 5.142317,-0.603118 -0.0623,5.17719 4.514726,2.534646 -3.093474,4.151822 2.162662,4.70426 -4.94305,1.54059 -1.015465,5.07701 -4.90455,-1.65909 -3.805718,3.51051 -2.992678,-4.22505 -5.142318,0.60312 0.0623,-5.17719 -4.514726,-2.53465 3.093474,-4.151814 -2.162663,-4.704261 4.943051,-1.540593 z m 7.768942,3.800181 5.166834,0.333164 2.767455,-4.375886 3.984228,3.306524 4.811,-1.913497 1.279782,5.016905 5.016905,1.279783 -1.913496,4.810998 3.306524,3.984234 -4.375886,2.76745 0.333163,5.16683 -5.166834,-0.33316 -2.767455,4.37589 -3.984229,-3.30653 -4.810999,1.9135 -1.279782,-5.0169 -5.016906,-1.27979 1.913497,-4.811 -3.306524,-3.984225 4.375886,-2.767455 z m 8.48778,1.659944 5.077008,-1.015464 1.540594,-4.943051 4.70426,2.162662 4.151819,-3.093474 2.534646,4.514726 5.17719,-0.06229 -0.603118,5.142317 4.225052,2.992678 -3.510511,3.805722 1.659086,4.90455 -5.077008,1.01546 -1.540594,4.94305 -4.70426,-2.16266 -4.151819,3.09347 -2.534646,-4.51472 -5.17719,0.0623 0.603118,-5.14231 -4.225052,-2.99268 3.510511,-3.80572 z m 8.628192,-0.593417 4.641191,-2.294889 0.208744,-5.173356 5.103705,0.87142 3.209699,-4.062637 3.616776,3.704876 4.984659,-1.400128 0.748363,5.123195 4.855648,1.797182 -2.405901,4.584628 2.871945,4.308029 -4.641191,2.294888 -0.208744,5.17336 -5.103705,-0.87142 -3.209699,4.06263 -3.616776,-3.70487 -4.984659,1.40013 -0.748363,-5.1232 -4.855648,-1.79718 2.405901,-4.584629 z m 8.180605,-2.806337 3.889086,-3.417921 -1.137332,-5.051105 5.15534,-0.479209 2.048844,-4.754937 4.45243,2.642544 4.452431,-2.642544 2.048843,4.754936 5.155343,0.47921 -1.137335,5.051104 3.889085,3.417922 -3.889084,3.417922 1.137334,5.051105 -5.155342,0.479209 -2.048844,4.754939 -4.45243,-2.64255 -4.452431,2.64255 -2.048843,-4.754938 -5.155341,-0.47921 1.137332,-5.051104 z m 7.175525,-4.828009 2.871945,-4.308029 -2.405901,-4.584629 4.855648,-1.797181 0.748363,-5.123196 4.984658,1.400128 3.616777,-3.704875 3.209699,4.062636 5.103701,-0.87142 0.20875,5.173356 4.64119,2.294889 -2.87195,4.308029 2.40591,4.584629 -4.85565,1.797181 -0.74837,5.123196 -4.984654,-1.400128 -3.616777,3.704875 -3.209699,-4.062636 -5.103705,0.87142 -0.208743,-5.173355 z m 5.681444,-6.520662 1.659086,-4.90455 -3.510511,-3.805719 4.225051,-2.992678 -0.603118,-5.142317 5.17719,0.0623 2.534646,-4.514726 4.151822,3.093474 4.70426,-2.162662 1.54059,4.94305 5.07701,1.015465 -1.65909,4.90455 3.51051,3.805718 -4.22505,2.992678 0.60312,5.142318 -5.17719,-0.0623 -2.53465,4.514726 -4.151814,-3.093474 -4.704261,2.162663 -1.540593,-4.943051 z m 3.800181,-7.768942 0.333164,-5.166834 -4.375886,-2.767455 3.306524,-3.984228 -1.913497,-4.811 5.016905,-1.279782 1.279783,-5.016905 4.810998,1.913496 3.984234,-3.306524 2.76745,4.375886 5.16683,-0.333163 -0.33316,5.166834 4.37589,2.767455 -3.30653,3.984229 1.9135,4.810999 -5.0169,1.279782 -1.27979,5.016906 -4.811,-1.913497 -3.984225,3.306524 -2.767455,-4.375886 z m 1.659944,-8.48778 -1.015464,-5.077008 -4.943051,-1.540594 2.162662,-4.70426 -3.093474,-4.151819 4.514726,-2.534646 -0.06229,-5.17719 5.142317,0.603118 2.992678,-4.225052 3.805722,3.510511 4.90455,-1.659086 1.01546,5.077008 4.94305,1.540594 -2.16266,4.70426 3.09347,4.151819 -4.51472,2.534646 0.0623,5.17719 -5.14231,-0.603118 -2.99268,4.225052 -3.80572,-3.510511 z m -0.593417,-8.628192 -2.294889,-4.641191 -5.173356,-0.208744 0.87142,-5.103705 -4.062637,-3.209699 3.704876,-3.616776 -1.400128,-4.984659 5.123195,-0.748363 1.797182,-4.855648 4.584628,2.405901 4.308029,-2.871945 2.294888,4.641191 5.17336,0.208744 -0.87142,5.103705 4.06263,3.209699 -3.70487,3.616776 1.40013,4.984659 -5.1232,0.748363 -1.79718,4.855648 -4.584629,-2.405901 z m -2.806337,-8.180605 -3.417921,-3.889086 -5.051105,1.137332 -0.479209,-5.15534 -4.754937,-2.048844 2.642544,-4.45243 -2.642544,-4.452431 4.754936,-2.048843 0.47921,-5.155341 5.051104,1.137333 3.417922,-3.889086 3.417922,3.889085 5.051105,-1.137332 0.479209,5.15534 4.754939,2.048844 -2.64255,4.45243 2.64255,4.452431 -4.754938,2.048843 -0.47921,5.155341 -5.051104,-1.137332 z m -4.828009,-7.175525 -4.308029,-2.871945 -4.584629,2.405901 -1.797181,-4.855648 -5.123196,-0.748363 1.400128,-4.984658 -3.704875,-3.616777 4.062636,-3.209699 -0.87142,-5.103706 5.173356,-0.208743 2.294889,-4.641192 4.308029,2.871946 4.584629,-2.405901 1.797181,4.855648 5.123196,0.748363 -1.400128,4.984658 3.704875,3.616777 -4.062636,3.209699 0.87142,5.103705 -5.173355,0.208743 z m -6.520662,-5.681444 -4.90455,-1.659086 -3.805719,3.510511 -2.992678,-4.225051 -5.142317,0.603118 0.0623,-5.17719 -4.514726,-2.534646 3.093474,-4.151818 -2.162662,-4.704262 4.94305,-1.540593 1.015465,-5.0770081 4.90455,1.6590861 3.805718,-3.5105109 2.992678,4.225051 5.142318,-0.6031177 -0.0623,5.1771896 4.514726,2.534646 -3.093474,4.151819 2.162663,4.704261 -4.943051,1.540593 z"
       inkscape:path-effect="#path-effect1" />
  </g>
</svg>
