<?xml version="1.0" encoding="UTF-8" standalone="no"?>
<!-- Created with Inkscape (http://www.inkscape.org/) -->

<svg
   width="120"
   height="120"
   viewBox="0 0 120 120"
   version="1.1"
   id="svg1"
   inkscape:version="1.4 (86a8ad7, 2024-10-11)"
   sodipodi:docname="mand_39.svg"
   xmlns:inkscape="http://www.inkscape.org/namespaces/inkscape"
   xmlns:sodipodi="http://sodipodi.sourceforge.net/DTD/sodipodi-0.dtd"
   xmlns="http://www.w3.org/2000/svg"
   xmlns:svg="http://www.w3.org/2000/svg">
  <sodipodi:namedview
     id="namedview1"
     pagecolor="#ffffff"
     bordercolor="#000000"
     borderopacity="0.25"
     inkscape:showpageshadow="2"
     inkscape:pageopacity="0.0"
     inkscape:pagecheckerboard="0"
     inkscape:deskcolor="#d1d1d1"
     inkscape:document-units="px"
     inkscape:zoom="9.725"
     inkscape:cx="60"
     inkscape:cy="49.305913"
     inkscape:window-width="3440"
     inkscape:window-height="1369"
     inkscape:window-x="-8"
     inkscape:window-y="-8"
     inkscape:window-maximized="1"
     inkscape:current-layer="layer1" />
  <defs
     id="defs1">
    <inkscape:path-effect
       effect="copy_rotate"
       starting_point="0,0"
       origin="50.443359,24.678711"
       id="path-effect3"
       is_visible="true"
       lpeversion="1.2"
       lpesatellites=""
       method="normal"
       num_copies="14"
       starting_angle="0"
       rotation_angle="60"
       gap="-0.01"
       copies_to_360="true"
       mirror_copies="false"
       split_items="false"
       link_styles="false" />
  </defs>
  <g
     inkscape:label="Layer 1"
     inkscape:groupmode="layer"
     id="layer1">
    <path
       id="path1"
       style="fill:#0000ff"
       d="m 62.519531,12.603516 c -6.665983,0 -12.076172,5.408235 -12.076172,12.074218 0,6.665984 5.410189,12.076172 12.076172,12.076172 6.665984,0 12.074219,-5.410188 12.074219,-12.076172 0,-6.665983 -5.408235,-12.074218 -12.074219,-12.074218 z m 0,0.5 c 6.395764,0 11.574219,5.178455 11.574219,11.574218 0,6.395764 -5.178455,11.576172 -11.574219,11.576172 -6.395763,0 -11.576172,-5.180408 -11.576172,-11.576172 0,-6.395763 5.180409,-11.574218 11.576172,-11.574218 z m 0,23.15039 c 2.4701,-1.94e-4 4.472463,-2.002556 4.472657,-4.472656 -1.94e-4,-2.4701 -2.002557,-4.472462 -4.472657,-4.472656 -2.470099,1.94e-4 -4.472462,2.002557 -4.472656,4.472656 1.94e-4,2.470099 2.002557,4.472462 4.472656,4.472656 z m 0,-8.945312 c 1.618578,-4.99e-4 2.930268,-1.313063 2.929688,-2.931641 -4.99e-4,-1.617815 -1.311873,-2.929188 -2.929688,-2.929687 -1.617815,4.99e-4 -2.929188,1.311872 -2.929687,2.929687 -5.8e-4,1.618578 1.311109,2.931142 2.929687,2.931641 z m 0,-5.861328 c 1.135871,4.7e-5 2.056688,-0.92077 2.056641,-2.056641 4.7e-5,-1.135871 -0.92077,-2.056688 -2.056641,-2.056641 -1.135871,-4.7e-5 -2.056687,0.92077 -2.05664,2.056641 -4.7e-5,1.135871 0.920769,2.056688 2.05664,2.056641 z M 56.084383,8.5596816 c -6.005843,2.8922614 -8.53371,10.1123064 -5.641448,16.1181494 2.892262,6.005844 10.114067,8.532862 16.11991,5.6406 6.005844,-2.892262 8.531103,-10.113218 5.638841,-16.119062 C 69.309424,8.1935256 62.090227,5.6674195 56.084383,8.5596816 Z m 0.216942,0.4504844 c 5.762384,-2.775018 12.674859,-0.3562387 15.449876,5.406145 2.775018,5.762384 0.357086,12.676618 -5.405298,15.451636 C 60.58352,32.642964 53.668438,30.223273 50.89342,24.460889 48.118402,18.698506 50.538942,11.785184 56.301325,9.010166 Z m 10.044578,20.857781 c 2.225399,-1.071911 3.160673,-3.74477 2.089112,-5.970337 -1.071911,-2.225399 -3.744771,-3.160673 -5.970338,-2.089111 -2.225398,1.071911 -3.160672,3.74477 -2.089111,5.970337 1.071911,2.225398 3.74477,3.160672 5.970337,2.089111 z m -3.881226,-8.059448 c 1.458073,-0.702724 2.070364,-2.454424 1.367567,-3.912461 -0.702394,-1.457385 -2.452884,-2.069907 -3.910701,-1.368413 -1.457384,0.702393 -2.069907,2.452883 -1.368414,3.9107 0.701752,1.45854 2.453044,2.071999 3.911548,1.370174 z m -2.543134,-5.280874 c 1.023405,-0.492793 1.453505,-1.721949 0.960626,-2.745313 -0.492793,-1.023405 -1.721949,-1.453505 -2.745313,-0.960626 -1.023404,0.492794 -1.453504,1.721949 -0.960625,2.745312 0.492793,1.023405 1.721948,1.453505 2.745312,0.960627 z M 48.531961,7.7084186 C 44.375789,12.920094 45.23092,20.521929 50.442595,24.678102 55.654271,28.834275 63.257324,27.977616 67.413497,22.76594 71.56967,17.554264 70.711794,9.9527389 65.500118,5.7965659 60.288442,1.6403934 52.688135,2.4967425 48.531961,7.7084186 Z m 0.390916,0.3117449 C 52.910571,3.0197539 60.187964,2.1997886 65.188373,6.1874816 70.188782,10.175175 71.010275,17.453786 67.022581,22.454196 63.034888,27.454604 55.75475,28.27488 50.75434,24.287186 45.753931,20.299493 44.935184,13.020572 48.922877,8.0201635 Z M 67.022581,22.454196 c 1.53993,-1.931323 1.222873,-4.745286 -0.708207,-6.28552 -1.931323,-1.53993 -4.745286,-1.222872 -6.28552,0.708209 -1.539929,1.931322 -1.222872,4.745285 0.708208,6.285518 1.931323,1.53993 4.745285,1.222873 6.285519,-0.708207 z m -6.993727,-5.577311 c 1.008777,-1.265767 0.800399,-3.109657 -0.465418,-4.118371 -1.26517,-1.008301 -3.108071,-0.800655 -4.117152,0.463893 -1.008301,1.265169 -0.800656,3.10807 0.463891,4.117151 1.265094,1.00962 3.109122,0.80247 4.118679,-0.462673 z m -4.58257,-3.654478 c 0.708241,-0.888031 0.562437,-2.182075 -0.325652,-2.890242 -0.888031,-0.7082409 -2.182075,-0.5624371 -2.890242,0.325652 -0.70824,0.88803 -0.562436,2.182074 0.325653,2.890241 0.88803,0.708241 2.182073,0.562437 2.890241,-0.325651 z M 41.358115,10.21833 c -1.48332,6.498853 2.585439,12.976843 9.084291,14.460164 C 56.94126,26.161815 63.419684,22.09115 64.903005,15.592298 66.386326,9.0934437 62.315228,2.6169243 55.816374,1.1336033 49.317521,-0.34971744 42.841436,3.7194763 41.358115,10.21833 Z m 0.487464,0.111261 C 43.268771,4.0941818 49.469706,0.19787612 55.705114,1.6210673 61.940522,3.0442587 65.838732,9.2456282 64.415541,15.481037 62.99235,21.716445 56.789076,25.614221 50.553667,24.19103 44.318259,22.767838 40.422388,16.564999 41.845579,10.329591 Z m 22.569962,5.151446 c 0.54946,-2.408212 -0.957132,-4.805939 -3.365258,-5.355778 -2.408212,-0.5494592 -4.805939,0.957133 -5.355777,3.365259 -0.549459,2.408212 0.957133,4.805939 3.365258,5.355777 2.408212,0.549459 4.805939,-0.957132 5.355777,-3.365258 z M 55.694506,13.490518 C 56.054188,11.91241 55.066411,10.341534 53.488285,9.9819318 51.910921,9.6224207 50.340618,10.609108 49.980134,12.18625 c -0.359511,1.577363 0.627175,3.147666 2.204317,3.50815 1.577868,0.360733 3.149401,-0.625997 3.510055,-2.203882 z M 49.980134,12.18625 C 50.232935,11.078868 49.540106,9.9762362 48.432703,9.7235273 47.325321,9.4707261 46.22269,10.163555 45.969981,11.270958 c -0.252801,1.107382 0.440028,2.210013 1.547431,2.462722 1.107381,0.252801 2.210013,-0.440028 2.462722,-1.54743 z m -13.996421,3.406048 c 1.483321,6.498852 7.959841,10.569951 14.458693,9.08663 C 56.94126,23.195607 61.011923,16.717183 59.528603,10.21833 58.045282,3.7194763 51.567293,-0.34928286 45.068439,1.1340381 38.569586,2.6173589 34.500392,9.0934437 35.983713,15.592298 Z m 0.487464,-0.111261 C 35.047986,9.2456282 38.944292,3.0446932 45.179699,1.6215021 51.415108,0.1983107 57.617947,4.0941818 59.041139,10.329591 60.46433,16.564999 56.566555,22.768273 50.331146,24.191464 44.095738,25.614656 37.894368,21.716445 36.471177,15.481037 Z M 59.041139,10.329591 C 58.491301,7.9214646 56.093574,6.4148725 53.685362,6.9643321 51.277236,7.5141703 49.770644,9.9118976 50.320104,12.32011 c 0.549838,2.408125 2.947565,3.914717 5.355777,3.365257 2.408126,-0.549838 3.914717,-2.947564 3.365258,-5.355776 z m -8.721035,1.990519 c -0.360654,-1.577886 -1.932187,-2.5646161 -3.510055,-2.203883 -1.577142,0.360484 -2.563829,1.930787 -2.204317,3.508151 0.360484,1.577142 1.930787,2.563828 3.50815,2.204317 1.578126,-0.359602 2.565903,-1.930477 2.206222,-3.508585 z m -5.714372,1.304268 c -0.252709,-1.107403 -1.355341,-1.800232 -2.462722,-1.547431 -1.107403,0.252709 -1.800233,1.35534 -1.547431,2.462722 0.252709,1.107403 1.35534,1.800232 2.462722,1.54743 1.107402,-0.252708 1.800232,-1.355339 1.547431,-2.462721 z M 33.473221,22.76594 c 4.156173,5.211676 11.757699,6.069553 16.969374,1.91338 C 55.654271,20.523147 56.510929,12.920094 52.354757,7.7084186 48.198583,2.4967425 40.596749,1.6416111 35.385073,5.7977842 30.173397,9.9539566 29.317048,17.554264 33.473221,22.76594 Z m 0.390916,-0.311744 C 29.876443,17.453786 30.696409,10.176393 35.696818,6.1886999 40.697227,2.2010063 47.976147,3.0197539 51.963841,8.0201635 55.951534,13.020572 55.13126,20.300711 50.13085,24.288404 45.130441,28.276097 37.85183,27.454604 33.864137,22.454196 Z M 51.963841,8.0201635 c -1.540234,-1.9310809 -4.354197,-2.2481387 -6.28552,-0.7082086 -1.93108,1.5402337 -2.248137,4.3541971 -0.708207,6.2855191 1.540234,1.931081 4.354196,2.248138 6.285519,0.708208 1.93108,-1.540233 2.248138,-4.354196 0.708208,-6.2855185 z M 44.970114,13.597474 C 43.960557,12.33233 42.116528,12.12518 40.851434,13.1348 c -1.264547,1.009082 -1.472192,2.851983 -0.463891,4.117153 1.009082,1.264547 2.851982,1.472192 4.117152,0.463891 1.265816,-1.008713 1.474196,-2.852603 0.465419,-4.11837 z m -4.582571,3.654479 c -0.708167,-0.88809 -2.002211,-1.033893 -2.890241,-0.325652 -0.888089,0.708167 -1.033893,2.002211 -0.325652,2.890241 0.708167,0.888089 2.002211,1.033892 2.890241,0.325651 0.888089,-0.708167 1.033893,-2.00221 0.325652,-2.89024 z m -6.06367,13.066478 c 6.005843,2.892262 13.2268,0.367003 16.119062,-5.63884 2.892262,-6.005844 0.365243,-13.227648 -5.6406,-16.1199094 -6.005844,-2.8922621 -13.225888,-0.3643964 -16.11815,5.6414474 -2.892262,6.005843 -0.366156,13.22504 5.639688,16.117302 z m 0.216942,-0.450484 c -5.762384,-2.775018 -8.181163,-9.687492 -5.406146,-15.449876 2.775018,-5.7623841 9.68834,-8.182923 15.450724,-5.407905 5.762383,2.775018 8.182076,9.690099 5.407058,15.452483 -2.775018,5.762384 -9.689253,8.180315 -15.451636,5.405298 z M 44.585393,9.010166 c -2.225567,-1.0715616 -4.898427,-0.1362879 -5.970338,2.089111 -1.071561,2.225567 -0.136286,4.898426 2.089112,5.970337 2.225567,1.071561 4.898426,0.136287 5.970337,-2.089111 1.071561,-2.225567 0.136287,-4.898426 -2.089111,-5.970337 z m -3.881226,8.059448 c -1.458504,-0.701826 -3.209796,-0.08837 -3.911549,1.370173 -0.701494,1.457817 -0.08897,3.208308 1.368415,3.910701 1.457817,0.701493 3.208307,0.08897 3.9107,-1.368414 0.702797,-1.458036 0.09051,-3.209736 -1.367566,-3.91246 z m -2.543134,5.280874 c -1.023364,-0.492879 -2.25252,-0.06278 -2.745313,0.960626 -0.492879,1.023364 -0.06278,2.252519 0.960626,2.745313 1.023364,0.492878 2.252519,0.06278 2.745312,-0.960627 0.492879,-1.023364 0.06278,-2.252519 -0.960625,-2.745312 z m 0.206154,14.403418 c 6.665983,0 12.076172,-5.408235 12.076172,-12.074218 0,-6.665984 -5.410189,-12.076172 -12.076172,-12.076172 -6.665984,0 -12.074219,5.410188 -12.074219,12.076172 0,6.665983 5.408235,12.074218 12.074219,12.074218 z m 0,-0.5 c -6.395764,0 -11.574219,-5.178455 -11.574219,-11.574218 0,-6.395764 5.178455,-11.576172 11.574219,-11.576172 6.395763,0 11.576172,5.180408 11.576172,11.576172 0,6.395763 -5.180409,11.574218 -11.576172,11.574218 z m 0,-23.15039 c -2.4701,1.94e-4 -4.472463,2.002556 -4.472657,4.472656 1.94e-4,2.4701 2.002557,4.472462 4.472657,4.472656 2.470099,-1.94e-4 4.472462,-2.002557 4.472656,-4.472656 -1.94e-4,-2.470099 -2.002557,-4.472462 -4.472656,-4.472656 z m 0,8.945312 c -1.618578,4.99e-4 -2.930268,1.313063 -2.929688,2.931641 4.99e-4,1.617815 1.311873,2.929188 2.929688,2.929687 1.617815,-4.99e-4 2.929188,-1.311872 2.929687,-2.929687 5.8e-4,-1.618578 -1.311109,-2.931142 -2.929687,-2.931641 z m 0,5.861328 c -1.135871,-4.7e-5 -2.056688,0.92077 -2.056641,2.056641 -4.7e-5,1.135871 0.92077,2.056688 2.056641,2.056641 1.135871,4.7e-5 2.056687,-0.92077 2.05664,-2.056641 4.7e-5,-1.135871 -0.920769,-2.056688 -2.05664,-2.056641 z m 6.435148,12.887584 c 6.005843,-2.892261 8.53371,-10.112306 5.641448,-16.118149 -2.892262,-6.005844 -10.114067,-8.532862 -16.11991,-5.6406 -6.005844,2.892262 -8.531103,10.113218 -5.638841,16.119062 2.892262,6.005843 10.111459,8.531949 16.117303,5.639687 z m -0.216942,-0.450484 c -5.762384,2.775018 -12.674859,0.356239 -15.449876,-5.406145 -2.775018,-5.762384 -0.357086,-12.676618 5.405298,-15.451636 5.762383,-2.775017 12.677465,-0.355326 15.452483,5.407058 2.775018,5.762383 0.354478,12.675705 -5.407905,15.450723 z M 34.540815,19.489475 c -2.225399,1.071911 -3.160673,3.74477 -2.089112,5.970337 1.071911,2.225399 3.744771,3.160673 5.970338,2.089111 2.225398,-1.071911 3.160672,-3.74477 2.089111,-5.970337 -1.071911,-2.225398 -3.74477,-3.160672 -5.970337,-2.089111 z m 3.881226,8.059448 c -1.458073,0.702724 -2.070364,2.454424 -1.367567,3.912461 0.702394,1.457385 2.452884,2.069907 3.910701,1.368413 1.457384,-0.702393 2.069907,-2.452883 1.368414,-3.9107 -0.701752,-1.45854 -2.453044,-2.071999 -3.911548,-1.370174 z m 2.543134,5.280874 c -1.023405,0.492793 -1.453505,1.721949 -0.960626,2.745313 0.492793,1.023405 1.721949,1.453505 2.745313,0.960626 1.023404,-0.492794 1.453504,-1.721949 0.960625,-2.745312 -0.492793,-1.023405 -1.721948,-1.453505 -2.745312,-0.960627 z m 11.389582,8.819206 c 4.156172,-5.211675 3.301041,-12.81351 -1.910634,-16.969683 -5.211676,-4.156173 -12.814729,-3.299514 -16.970902,1.912162 -4.156173,5.211676 -3.298297,12.813201 1.913379,16.969374 5.211676,4.156173 12.811983,3.299824 16.968157,-1.911853 z m -0.390916,-0.311745 c -3.987694,5.00041 -11.265087,5.820375 -16.265496,1.832682 -5.000409,-3.987693 -5.821902,-11.266304 -1.834208,-16.266714 3.987693,-5.000408 11.267831,-5.820684 16.268241,-1.83299 5.000409,3.987693 5.819156,11.266614 1.831463,16.267022 z M 33.864137,26.903226 c -1.53993,1.931323 -1.222873,4.745286 0.708207,6.28552 1.931323,1.53993 4.745286,1.222872 6.28552,-0.708209 1.539929,-1.931322 1.222872,-4.745285 -0.708208,-6.285518 -1.931323,-1.53993 -4.745285,-1.222873 -6.285519,0.708207 z m 6.993727,5.577311 c -1.008777,1.265767 -0.800399,3.109657 0.465418,4.118371 1.26517,1.008301 3.108071,0.800655 4.117152,-0.463893 1.008301,-1.265169 0.800656,-3.10807 -0.463891,-4.117151 -1.265094,-1.00962 -3.109122,-0.80247 -4.118679,0.462673 z m 4.58257,3.654478 c -0.708241,0.888031 -0.562437,2.182075 0.325652,2.890242 0.888031,0.708241 2.182075,0.562437 2.890242,-0.325652 0.70824,-0.88803 0.562436,-2.182074 -0.325653,-2.890241 -0.88803,-0.708241 -2.182073,-0.562437 -2.890241,0.325651 z m 14.088169,3.004077 c 1.48332,-6.498853 -2.585439,-12.976843 -9.084291,-14.460164 -6.498854,-1.483321 -12.977278,2.587344 -14.460599,9.086196 -1.483321,6.498854 2.587777,12.975374 9.086631,14.458695 6.498853,1.48332 12.974938,-2.585873 14.458259,-9.084727 z m -0.487464,-0.111261 c -1.423192,6.235409 -7.624127,10.131715 -13.859535,8.708524 -6.235408,-1.423192 -10.133618,-7.624561 -8.710427,-13.85997 1.423191,-6.235408 7.626465,-10.133184 13.861874,-8.709993 6.235408,1.423192 10.131279,7.626031 8.708088,13.861439 z M 36.471177,33.876385 c -0.54946,2.408212 0.957132,4.805939 3.365258,5.355778 2.408212,0.549459 4.805939,-0.957133 5.355777,-3.365259 0.549459,-2.408212 -0.957133,-4.805939 -3.365258,-5.355777 -2.408212,-0.549459 -4.805939,0.957132 -5.355777,3.365258 z m 8.721035,1.990519 c -0.359682,1.578108 0.628095,3.148984 2.206221,3.508586 1.577364,0.359511 3.147667,-0.627176 3.508151,-2.204318 0.359511,-1.577363 -0.627175,-3.147666 -2.204317,-3.50815 -1.577868,-0.360733 -3.149401,0.625997 -3.510055,2.203882 z m 5.714372,1.304268 c -0.252801,1.107382 0.440028,2.210014 1.547431,2.462723 1.107382,0.252801 2.210013,-0.440028 2.462722,-1.547431 0.252801,-1.107382 -0.440028,-2.210013 -1.547431,-2.462722 -1.107381,-0.252801 -2.210013,0.440028 -2.462722,1.54743 z m 13.996421,-3.406048 c -1.483321,-6.498852 -7.959841,-10.569951 -14.458693,-9.08663 -6.498854,1.483321 -10.569517,7.961745 -9.086197,14.460598 1.483321,6.498854 7.96131,10.567613 14.460164,9.084292 6.498853,-1.483321 10.568047,-7.959406 9.084726,-14.45826 z m -0.487464,0.111261 c 1.423191,6.235409 -2.473115,12.436344 -8.708522,13.859535 -6.235409,1.423191 -12.438248,-2.47268 -13.86144,-8.708089 -1.423191,-6.235408 2.474584,-12.438682 8.709993,-13.861873 6.235408,-1.423192 12.436778,2.475019 13.859969,8.710427 z m -22.569962,5.151446 c 0.549838,2.408126 2.947565,3.914718 5.355777,3.365259 2.408126,-0.549838 3.914718,-2.947566 3.365258,-5.355778 -0.549838,-2.408125 -2.947565,-3.914717 -5.355777,-3.365257 -2.408126,0.549838 -3.914717,2.947564 -3.365258,5.355776 z m 8.721035,-1.990519 c 0.360654,1.577886 1.932187,2.564616 3.510055,2.203883 1.577142,-0.360484 2.563829,-1.930787 2.204317,-3.508151 -0.360484,-1.577142 -1.930787,-2.563828 -3.50815,-2.204317 -1.578126,0.359602 -2.565903,1.930477 -2.206222,3.508585 z m 5.714372,-1.304268 c 0.252709,1.107403 1.355341,1.800232 2.462722,1.547431 1.107403,-0.252709 1.800233,-1.35534 1.547431,-2.462722 -0.252709,-1.107403 -1.35534,-1.800232 -2.462722,-1.54743 -1.107402,0.252708 -1.800232,1.355339 -1.547431,2.462721 z m 11.132511,-9.141562 c -4.156173,-5.211676 -11.757699,-6.069553 -16.969374,-1.91338 -5.211676,4.156173 -6.068334,11.759226 -1.912162,16.970901 4.156174,5.211677 11.758008,6.066808 16.969684,1.910635 5.211676,-4.156173 6.068025,-11.75648 1.911852,-16.968156 z m -0.390916,0.311744 c 3.987694,5.00041 3.167728,12.277803 -1.832681,16.265496 -5.000409,3.987694 -12.279329,3.168946 -16.267023,-1.831464 -3.987693,-5.000408 -3.167419,-12.280547 1.832991,-16.26824 5.000409,-3.987693 12.27902,-3.1662 16.266713,1.834208 z M 48.922877,41.337258 c 1.540234,1.931081 4.354197,2.248139 6.28552,0.708209 1.93108,-1.540234 2.248137,-4.354197 0.708207,-6.285519 -1.540234,-1.931081 -4.354196,-2.248138 -6.285519,-0.708208 -1.93108,1.540233 -2.248138,4.354196 -0.708208,6.285518 z m 6.993727,-5.57731 c 1.009557,1.265144 2.853586,1.472294 4.11868,0.462674 1.264547,-1.009082 1.472192,-2.851983 0.463891,-4.117153 -1.009082,-1.264547 -2.851982,-1.472192 -4.117152,-0.463891 -1.265816,1.008713 -1.474196,2.852603 -0.465419,4.11837 z m 4.582571,-3.654479 c 0.708167,0.88809 2.002211,1.033893 2.890241,0.325652 0.888089,-0.708167 1.033893,-2.002211 0.325652,-2.890241 -0.708167,-0.888089 -2.002211,-1.033892 -2.890241,-0.325651 -0.888089,0.708167 -1.033893,2.00221 -0.325652,2.89024 z m 6.06367,-13.066478 c -6.005843,-2.892262 -13.2268,-0.367003 -16.119062,5.63884 -2.892262,6.005844 -0.365243,13.227648 5.6406,16.119909 6.005844,2.892262 13.225888,0.364397 16.11815,-5.641447 2.892262,-6.005843 0.366156,-13.22504 -5.639688,-16.117302 z m -0.216942,0.450484 c 5.762384,2.775018 8.181163,9.687492 5.406146,15.449876 -2.775018,5.762384 -9.68834,8.182923 -15.450724,5.407905 -5.762383,-2.775018 -8.182076,-9.690099 -5.407058,-15.452483 2.775018,-5.762384 9.689253,-8.180315 15.451636,-5.405298 z M 56.301325,40.347256 c 2.225567,1.071562 4.898427,0.136288 5.970338,-2.089111 1.071561,-2.225567 0.136286,-4.898426 -2.089112,-5.970337 -2.225567,-1.071561 -4.898426,-0.136287 -5.970337,2.089111 -1.071561,2.225567 -0.136287,4.898426 2.089111,5.970337 z m 3.881226,-8.059448 c 1.458504,0.701826 3.209796,0.08837 3.911549,-1.370173 0.701494,-1.457817 0.08897,-3.208308 -1.368415,-3.910701 -1.457817,-0.701493 -3.208307,-0.08897 -3.9107,1.368414 -0.702797,1.458036 -0.09051,3.209736 1.367566,3.91246 z m 2.543134,-5.280874 c 1.023364,0.492879 2.25252,0.06278 2.745313,-0.960626 0.492879,-1.023364 0.06278,-2.252519 -0.960626,-2.745313 -1.023364,-0.492878 -2.252519,-0.06278 -2.745312,0.960627 -0.492879,1.023364 -0.06278,2.252519 0.960625,2.745312 z"
       inkscape:path-effect="#path-effect3"
       inkscape:original-d="m 62.519531,12.603516 c -6.665983,0 -12.076172,5.408235 -12.076172,12.074218 0,6.665984 5.410189,12.076172 12.076172,12.076172 6.665984,0 12.074219,-5.410188 12.074219,-12.076172 0,-6.665983 -5.408235,-12.074218 -12.074219,-12.074218 z m 0,0.5 c 6.395764,0 11.574219,5.178455 11.574219,11.574218 0,6.395764 -5.178455,11.576172 -11.574219,11.576172 -6.395763,0 -11.576172,-5.180408 -11.576172,-11.576172 0,-6.395763 5.180409,-11.574218 11.576172,-11.574218 z m 0,23.15039 a 4.4730077,4.4730077 0 0 0 4.472657,-4.472656 4.4730077,4.4730077 0 0 0 -4.472657,-4.472656 4.4730077,4.4730077 0 0 0 -4.472656,4.472656 4.4730077,4.4730077 0 0 0 4.472656,4.472656 z m 0,-8.945312 a 2.9305913,2.9305913 0 0 0 2.929688,-2.931641 2.9305913,2.9305913 0 0 0 -2.929688,-2.929687 2.9305913,2.9305913 0 0 0 -2.929687,2.929687 2.9305913,2.9305913 0 0 0 2.929687,2.931641 z m 0,-5.861328 a 2.0565553,2.0565553 0 0 0 2.056641,-2.056641 2.0565553,2.0565553 0 0 0 -2.056641,-2.056641 2.0565553,2.0565553 0 0 0 -2.05664,2.056641 2.0565553,2.0565553 0 0 0 2.05664,2.056641 z"
       transform="matrix(2.4844318,0,0,2.4844318,-65.323087,-0.56676796)" />
  </g>
</svg>
