<?xml version="1.0" encoding="UTF-8" standalone="no"?>
<!-- Created with Inkscape (http://www.inkscape.org/) -->

<svg
   width="120"
   height="120"
   viewBox="0 0 120 120"
   version="1.1"
   id="svg1"
   inkscape:version="1.4 (86a8ad7, 2024-10-11)"
   sodipodi:docname="mand_54.svg"
   xmlns:inkscape="http://www.inkscape.org/namespaces/inkscape"
   xmlns:sodipodi="http://sodipodi.sourceforge.net/DTD/sodipodi-0.dtd"
   xmlns="http://www.w3.org/2000/svg"
   xmlns:svg="http://www.w3.org/2000/svg">
  <sodipodi:namedview
     id="namedview1"
     pagecolor="#ffffff"
     bordercolor="#000000"
     borderopacity="0.25"
     inkscape:showpageshadow="2"
     inkscape:pageopacity="0.0"
     inkscape:pagecheckerboard="0"
     inkscape:deskcolor="#d1d1d1"
     inkscape:document-units="px"
     inkscape:zoom="9.725"
     inkscape:cx="60"
     inkscape:cy="60"
     inkscape:window-width="3440"
     inkscape:window-height="1369"
     inkscape:window-x="-8"
     inkscape:window-y="-8"
     inkscape:window-maximized="1"
     inkscape:current-layer="layer1" />
  <defs
     id="defs1">
    <inkscape:path-effect
       effect="copy_rotate"
       starting_point="0,0"
       origin="41.568359,30.562052"
       id="path-effect5"
       is_visible="true"
       lpeversion="1.2"
       lpesatellites=""
       method="normal"
       num_copies="19"
       starting_angle="0"
       rotation_angle="18.947368"
       gap="-0.01"
       copies_to_360="true"
       mirror_copies="false"
       split_items="false"
       link_styles="false" />
    <inkscape:path-effect
       effect="roughen"
       id="path-effect4"
       is_visible="true"
       lpeversion="1.2"
       global_randomize="2.3;1"
       displace_x="0;1"
       displace_y="0.155937;1"
       method="size"
       max_segment_size="2"
       segments="2"
       handles="along"
       shift_nodes="true"
       fixed_displacement="false"
       spray_tool_friendly="false" />
    <inkscape:path-effect
       effect="knot"
       id="path-effect2"
       is_visible="true"
       lpeversion="1"
       switcher_size="15.1"
       interruption_width="3.3"
       prop_to_stroke_width="true"
       add_stroke_width="inkscape_1.0_and_up"
       both="true"
       inverse_width="false"
       add_other_stroke_width="inkscape_1.0_and_up"
       crossing_points_vector="" />
  </defs>
  <g
     inkscape:label="Layer 1"
     inkscape:groupmode="layer"
     id="layer1">
    <path
       style="fill:#0000ff"
       d="m 53.265625,18.812048 -1.133464,1.199728 -1.15781,1.277143 -1.109117,1.068058 -1.623698,-0.04747 -1.624214,0.02756 -1.623181,0.06714 0.02083,1.506291 0.0215,1.76098 0.02017,1.57126 -1.162761,1.164538 -1.154952,1.112932 -1.170569,1.123458 1.162761,0.922593 1.215282,1.168976 1.110239,1.312669 -0.02083,1.626992 -0.0208,1.621668 -0.02087,1.627277 1.623698,-0.0077 1.62386,-0.275409 1.623535,0.223199 1.133464,1.167845 1.131001,1.224883 1.135926,1.055397 1.132812,-1.168283 1.129115,-1.193183 1.13651,-1.151367 1.623698,-0.08825 1.627582,0.07718 1.619814,0.116657 -0.02083,-1.79748 -0.01963,-1.381882 -0.02204,-1.643638 1.16276,-1.083794 1.178411,-1.173444 1.14711,-1.296009 -1.16276,-1.062581 -1.17097,-1.374178 -1.154551,-0.830543 0.02083,-1.625126 0.02086,-1.693436 0.02081,-1.504608 -1.623698,-0.04138 -1.623925,0.0047 -1.623471,-0.185356 -1.132812,-1.18244 -1.10968,-1.201212 z m 0,0.93047 1.063802,0.750414 1.128744,1.175452 0.99886,1.275486 1.523438,0.03612 1.524394,-0.02906 1.522481,-0.387698 -0.01888,1.617934 -0.01895,1.690773 -0.01881,1.568287 1.091146,1.110939 1.080284,1.036534 1.102008,1.090527 -1.091146,1.044015 -1.093122,0.972415 -1.08917,1.179179 0.01888,1.533213 0.01874,1.531267 0.01902,1.532331 -1.523438,0.0214 -1.524912,-0.243998 -1.521963,0.116744 -1.063802,0.997139 -1.085999,1.183846 -1.041605,1.154261 -1.064453,-1.227805 -1.036865,-1.060366 -1.092041,-1.053696 -1.523438,-0.0086 -1.523667,-0.216366 -1.523208,0.282036 0.01888,-1.491912 0.0191,-1.640709 0.01866,-1.511528 -1.091146,-0.963981 -1.110855,-1.148721 -1.071437,-1.058664 1.091146,-1.051864 1.090555,-1.047313 1.091737,-1.039768 -0.01888,-1.690906 -0.01781,-1.458961 -0.01995,-1.361094 1.523438,-0.232847 1.531675,0.07682 1.5152,0.142872 1.064453,-1.009598 1.084728,-1.189476 z m -4.44901,-4.091918 -0.682499,1.502758 -0.680389,1.583884 -0.702224,1.370318 -1.551134,0.482319 -1.52726,0.553451 -1.513433,0.590545 0.508797,1.417912 0.592122,1.658585 0.529263,1.479576 -0.721634,1.478988 -0.731005,1.427643 -0.742359,1.442668 1.399325,0.495057 1.529001,0.711036 1.476306,0.881051 0.508579,1.545602 0.506884,1.540555 0.508637,1.545882 1.533211,-0.534528 1.44645,-0.787752 1.60804,-0.316056 1.451248,0.736533 1.467439,0.791279 1.417065,0.629379 0.692093,-1.472806 0.68051,-1.495155 0.701083,-1.458008 1.507065,-0.610687 1.564457,-0.455475 1.569926,-0.415616 -0.603346,-1.693323 -0.467263,-1.300634 -0.554531,-1.547426 0.747852,-1.402619 0.733544,-1.492493 0.664143,-1.598254 -1.444778,-0.627459 -1.553718,-0.919508 -1.361671,-0.41066 -0.507973,-1.543837 -0.530128,-1.608454 -0.468866,-1.42984 -1.549159,0.488072 -1.534398,0.531768 -1.595692,0.351828 -1.455371,-0.750549 -1.439588,-0.775814 z m 0.302123,0.880054 1.249821,0.364338 1.449254,0.745261 1.358889,0.882047 1.45262,-0.4605 1.432363,-0.522458 1.314103,-0.86104 0.507485,1.5364 0.531074,1.605315 0.491427,1.489421 1.392746,0.696452 1.358314,0.629603 1.396391,0.673618 -0.693033,1.341742 -0.718151,1.274663 -0.647277,1.468941 0.51569,1.444009 0.514925,1.442214 0.515538,1.443128 -1.433947,0.514897 -1.521514,0.26436 -1.401592,0.6046 -0.682392,1.288527 -0.642762,1.472325 -0.61038,1.429928 -1.405446,-0.815651 -1.324985,-0.666243 -1.375006,-0.642019 -1.443699,0.486488 -1.511364,0.290091 -1.3491,0.761339 -0.466566,-1.417206 -0.514677,-1.558011 -0.473139,-1.43569 -1.345028,-0.557455 -1.423655,-0.725786 -1.357131,-0.653407 0.690485,-1.349166 0.691404,-1.34467 0.694971,-1.337917 -0.566893,-1.593157 -0.490571,-1.374128 -0.460814,-1.280869 1.365289,-0.714889 1.473627,-0.424679 1.479493,-0.356853 0.678962,-1.300523 0.639732,-1.477238 z m -5.536594,-2.425616 -0.157574,1.642942 -0.129238,1.718987 -0.219234,1.524082 -1.31048,0.959838 -1.264804,1.019364 -1.239681,1.049959 0.941623,1.17588 1.098582,1.376456 0.981003,1.227557 -0.202308,1.633166 -0.227841,1.587647 -0.233702,1.605544 1.48425,0.01387 1.677028,0.176044 1.682393,0.353958 0.982879,1.296722 0.979637,1.292498 0.983025,1.296968 1.276576,-1.003399 1.112294,-1.214731 1.418289,-0.821061 1.611767,0.225406 1.644858,0.271929 1.544643,0.135157 0.176374,-1.617727 0.158162,-1.635106 0.189682,-1.606649 1.227118,-1.066942 1.331798,-0.938774 1.349913,-0.902851 -1.120476,-1.405668 -0.864261,-1.078442 -1.026932,-1.283527 0.251901,-1.569448 0.209187,-1.649807 0.109206,-1.727303 -1.570232,-0.124343 -1.768097,-0.365195 -1.421234,0.05372 -0.981732,-1.295249 -1.023668,-1.349171 -0.90773,-1.200127 -1.306745,0.964639 -1.278595,1.001173 -1.394995,0.850885 -1.620218,-0.237324 -1.613493,-0.266345 z m 0.571506,0.734272 1.300403,-0.06122 1.612715,0.234308 1.571661,0.393025 1.224389,-0.907214 1.185112,-0.959237 0.963322,-1.241075 0.978856,1.288374 1.023544,1.345894 0.948414,1.249155 1.543421,0.206492 1.489148,0.154446 1.539455,0.183712 -0.219821,1.49407 -0.265356,1.438782 -0.135242,1.599519 0.956618,1.198325 0.955311,1.196875 0.956187,1.197541 -1.189064,0.952599 -1.353237,0.744072 -1.129337,1.026937 -0.227034,1.440283 -0.129872,1.601255 -0.113011,1.550641 -1.594137,-0.31511 -1.469522,-0.199921 -1.508968,-0.16077 -1.207512,0.928897 -1.335283,0.765113 -1.028795,1.15814 -0.901452,-1.188924 -0.992676,-1.306479 -0.91367,-1.204273 -1.453157,-0.09052 -1.58218,-0.224201 -1.495759,-0.177344 0.214999,-1.500265 0.217329,-1.49631 0.222895,-1.491081 -1.053475,-1.322766 -0.910169,-1.140386 -0.851743,-1.061842 1.059189,-1.119463 1.255889,-0.880154 1.28346,-0.817909 0.219895,-1.450516 0.125412,-1.604917 z m -6.024202,-0.49646 0.384426,1.605087 0.435919,1.667811 0.287513,1.512688 -0.927816,1.333343 -0.865286,1.374813 -0.831591,1.395594 1.272411,0.806422 1.485992,0.945167 1.326438,0.842514 0.338941,1.610366 0.300012,1.575603 0.300279,1.594435 1.408335,-0.468814 1.643323,-0.378025 1.706166,-0.211492 1.350669,0.907321 1.346231,0.904379 1.350887,0.907507 0.881604,-1.363535 0.657605,-1.510075 1.074844,-1.237091 1.597627,-0.310147 1.644029,-0.276889 1.504836,-0.373712 -0.358457,-1.587343 -0.381326,-1.597865 -0.342274,-1.581187 0.814194,-1.407577 0.954818,-1.320342 0.983615,-1.292248 -1.516184,-0.965688 -1.167602,-0.739383 -1.388052,-0.880538 -0.271346,-1.566203 -0.337839,-1.628339 -0.457566,-1.669172 -1.525526,0.392248 -1.790875,0.228692 -1.326783,0.512288 -1.349106,-0.906301 -1.406278,-0.943685 -1.248228,-0.8403611 -0.922724,1.3366711 -0.884237,1.362086 -1.043128,1.257736 -1.609489,0.301619 -1.612551,0.271986 z m 0.778958,0.508919 1.210066,-0.480142 1.601413,-0.302035 1.614119,-0.138588 0.863477,-1.255617 0.809435,-1.292068 0.50815,-1.48662 1.344153,0.900731 1.405097,0.940627 1.302627,0.873522 1.526841,-0.305845 1.458611,-0.337448 1.515694,-0.326102 0.277213,1.484493 0.216193,1.446986 0.391449,1.556766 1.293882,0.822783 1.292174,0.821836 1.293219,0.822181 -0.815329,1.287074 -1.038315,1.143151 -0.7347,1.33799 0.252926,1.435962 0.397092,1.556665 0.396604,1.503317 -1.610078,0.219579 -1.454814,0.288064 -1.479409,0.337902 -0.840474,1.270646 -1.014501,1.157222 -0.597005,1.429438 -1.238652,-0.831804 -1.363104,-0.913369 -1.255191,-0.842353 -1.403813,0.386223 -1.569251,0.30168 -1.472298,0.317937 -0.283785,-1.488786 -0.280298,-1.485802 -0.273336,-1.482665 -1.425896,-0.909032 -1.231136,-0.783065 -1.150373,-0.727748 0.638311,-1.402726 0.902055,-1.240251 0.948345,-1.190331 -0.263001,-1.443323 -0.4025,-1.55868 z m -5.858995,1.486495 0.884768,1.393296 0.953837,1.435901 0.763104,1.337371 -0.444609,1.562361 -0.372001,1.58128 -0.333385,1.589993 1.465314,0.349577 1.712372,0.411455 1.528131,0.36617 0.843462,1.413058 0.795353,1.392819 0.801722,1.410543 1.179803,-0.900697 1.43154,-0.891129 1.545049,-0.754024 1.572093,0.419598 1.56694,0.418257 1.572359,0.419704 0.391098,-1.575912 0.131653,-1.641779 0.614923,-1.519063 1.410358,-0.812091 1.465046,-0.795702 1.301956,-0.842082 -0.854445,-1.384946 -0.87949,-1.387472 -0.83714,-1.384378 0.31304,-1.595678 0.474369,-1.558832 0.510728,-1.54161 -1.747592,-0.42106 -1.344416,-0.320201 -1.598753,-0.382128 -0.765189,-1.393236 -0.848254,-1.4304153 -0.974753,-1.4301601 -1.315507,0.8663322 -1.619584,0.7977972 -1.088555,0.915336 -1.570283,-0.419141 -1.636496,-0.4359358 -1.45346,-0.3895289 -0.438712,1.5638537 -0.394058,1.575396 -0.578222,1.528292 -1.424347,0.807876 -1.436866,0.780845 z m 0.901998,0.228417 0.988599,-0.847035 1.416574,-0.805648 1.481662,-0.655182 0.408993,-1.467955 0.346044,-1.484883 -0.0021,-1.5710669 1.563791,0.4154819 1.634385,0.433426 1.515679,0.40323 1.344806,-0.785038 1.27001,-0.7927737 1.327684,-0.8005778 0.744207,1.3140476 0.674315,1.2983869 0.87572,1.345313 1.490933,0.358079 1.48901,0.357738 1.490111,0.357726 -0.35324,1.482074 -0.610876,1.418352 -0.260447,1.50405 0.705478,1.276033 0.881024,1.343385 0.863242,1.293087 -1.451543,0.730472 -1.282454,0.744834 -1.289534,0.799957 -0.382357,1.4747 -0.583783,1.423929 -0.10052,1.545834 -1.441624,-0.384545 -1.585817,-0.421281 -1.460694,-0.389153 -1.202344,0.821114 -1.386269,0.794869 -1.289291,0.778765 -0.751817,-1.315975 -0.74755,-1.314284 -0.739946,-1.313578 -1.643799,-0.396791 -1.41869,-0.340887 -1.324342,-0.314791 0.14826,-1.533981 0.450471,-1.465949 0.510461,-1.433762 -0.717397,-1.279723 -0.886794,-1.343535 z m -5.058874,3.308365 1.289231,1.030519 1.368392,1.04839 1.156,1.01713 0.08678,1.622071 0.161595,1.616391 0.200949,1.612093 1.499426,-0.145151 1.75319,-0.166845 1.564228,-0.149853 1.25658,1.062622 1.204507,1.059102 1.216285,1.073797 0.823422,-1.234976 1.064626,-1.307666 1.216503,-1.214845 1.623156,-0.113594 1.617846,-0.11319 1.623442,-0.113582 -0.14179,-1.617513 -0.408566,-1.595571 0.08837,-1.636421 1.070255,-1.226033 1.127302,-1.228288 0.957988,-1.2192 -1.257839,-1.032467 -1.282349,-1.026726 -1.241288,-1.037549 -0.222037,-1.610864 -0.05749,-1.628398 -0.0175,-1.6239141 -1.78962,0.1691971 -1.375541,0.133679 -1.636204,0.157691 -1.176113,-1.0692903 -1.266748,-1.0774837 -1.386311,-1.0361683 -0.962931,1.2465361 -1.272786,1.2804485 -0.732365,1.2191937 -1.621296,0.11344 -1.689374,0.119053 -1.501187,0.103515 0.09284,1.621569 0.138823,1.617988 -0.05066,1.633232 -1.084855,1.226589 -1.105472,1.205085 z m 0.927291,-0.07684 0.660003,-1.122137 1.078226,-1.221957 1.188645,-1.100777 -0.08981,-1.521217 -0.154846,-1.516788 -0.512099,-1.485265 1.613966,-0.114792 1.686564,-0.120742 1.564483,-0.110758 1.01704,-1.17916 0.943783,-1.1621911 0.9958,-1.1882987 1.130555,1.0012052 1.059363,1.0090869 1.265094,0.9880737 1.526418,-0.145427 1.524489,-0.145126 1.525527,-0.145495 0.147127,1.516468 -0.117238,1.539853 0.242028,1.507124 1.081581,0.977826 1.269484,0.984528 1.236333,0.942729 -1.135709,1.162209 -0.97112,1.120888 -0.959918,1.175325 0.117194,1.518947 -0.0898,1.536331 0.406858,1.494715 -1.488375,0.104386 -1.636683,0.116459 -1.507907,0.106219 -0.870582,1.167025 -1.053064,1.201921 -0.966569,1.155201 -1.138377,-1.000557 -1.133793,-1.000344 -1.126372,-1.002144 -1.683571,0.158449 -1.452508,0.138231 -1.354798,0.132279 -0.357856,-1.499007 -0.04993,-1.532786 0.01726,-1.521824 -1.094052,-0.977446 -1.274989,-0.982797 z m -3.710546,4.771723 1.553987,0.55607 1.63466,0.547269 1.423626,0.586666 0.608764,1.506006 0.677681,1.47634 0.713507,1.459498 1.371052,-0.624149 1.604023,-0.727065 1.430817,-0.649638 1.533528,0.597036 1.483133,0.610614 1.499044,0.620689 0.377811,-1.435427 0.582343,-1.582496 0.75613,-1.54402 1.498325,-0.634477 1.493434,-0.632371 1.4986,-0.634558 -0.659314,-1.483832 -0.904509,-1.376458 -0.447767,-1.576448 0.614174,-1.507114 0.667397,-1.52777 0.510208,-1.464199 L 46.105006,14.561991 44.558762,14.007274 43.047839,13.428988 42.314785,11.9775 41.731674,10.456 41.187834,8.925757 39.550119,9.666875 38.292514,10.239948 36.796165,10.92037 35.33658,10.2909 33.788609,9.68311 32.140969,9.1532184 31.634962,10.644877 30.8469,12.26922 l -0.296812,1.390933 -1.496616,0.633727 -1.559182,0.661142 -1.386238,0.585341 0.614334,1.503563 0.656661,1.485244 0.482397,1.561188 -0.627802,1.51238 -0.654284,1.498737 z m 0.8521,-0.373766 0.259884,-1.275639 0.623037,-1.505847 0.766819,-1.427087 -0.578884,-1.409631 -0.638957,-1.384326 -0.966617,-1.238511 1.489245,-0.632626 1.555976,-0.661826 1.443752,-0.612744 0.579061,-1.445502 0.515284,-1.405666 0.556004,-1.4472493 1.394389,0.5798663 1.329615,0.610437 1.517375,0.523762 1.396492,-0.633174 1.394766,-0.632264 1.395626,-0.6329489 0.631552,1.3865289 0.389104,1.494487 0.718277,1.346877 1.340477,0.573656 1.520376,0.518983 1.475449,0.490213 -0.696805,1.468001 -0.554551,1.375478 -0.526279,1.423327 0.604046,1.398594 0.413908,1.482247 0.870146,1.281621 -1.373836,0.582004 -1.510189,0.641579 -1.391715,0.590081 -0.444479,1.386469 -0.605743,1.478727 -0.539104,1.406454 -1.401578,-0.576714 -1.397172,-0.578 -1.390738,-0.582114 -1.540902,0.696519 -1.328923,0.60237 -1.238441,0.565013 -0.825192,-1.30159 -0.54492,-1.433524 -0.47781,-1.444971 -1.352149,-0.569247 -1.525021,-0.515558 z m -1.960123,5.71799 1.650343,0.02136 1.723788,-0.01316 1.536981,0.09263 1.064778,1.226741 1.120329,1.176305 1.148745,1.148743 1.094105,-1.035511 1.281034,-1.208496 1.142354,-1.079024 1.644295,0.06675 1.601039,0.09596 1.619359,0.100319 -0.108742,-1.480327 0.03695,-1.685838 0.213818,-1.705875 1.211128,-1.086605 1.207185,-1.083025 1.211361,-1.08677 -1.10539,-1.189356 -1.302435,-1.008183 -0.935378,-1.345643 0.09154,-1.624876 0.135169,-1.661695 0.0071,-1.550529 -1.626767,-0.04218 -1.642581,-0.0226 -1.616826,-0.05636 -1.164633,-1.13482 -1.045546,-1.249725 -1.011243,-1.270746 -1.308338,1.232728 -1.003388,0.950366 -1.19434,1.129418 -1.584889,-0.121437 -1.661447,-0.07223 -1.730421,0.03381 0.0058,1.575137 -0.21794,1.792216 0.170906,1.411942 -1.209754,1.085341 -1.26003,1.131585 -1.121068,1.003736 1.069254,1.222622 1.103339,1.191552 0.963177,1.319964 -0.102717,1.634282 -0.132194,1.629977 z m 0.684569,-0.63019 -0.168396,-1.290906 0.100331,-1.626556 0.261896,-1.598749 -1.005225,-1.14529 -1.053826,-1.10185 -1.316386,-0.857545 1.203139,-1.081906 1.256774,-1.131191 1.166569,-1.04833 0.07833,-1.555201 0.03095,-1.496816 0.05596,-1.549367 1.507119,0.09569 1.455781,0.145637 1.605225,0.0027 1.115234,-1.052307 1.113898,-1.050886 1.11449,-1.051813 1.047538,1.106338 0.85328,1.28717 1.116689,1.040675 1.454112,0.107322 1.606511,-0.0028 1.554677,-0.01543 -0.182391,1.614713 -0.07789,1.481013 -0.03561,1.51709 1.02544,1.126681 0.872766,1.267539 1.239141,0.929643 -1.110422,0.996553 -1.220042,1.097174 -1.124709,1.009998 0.02979,1.455669 -0.09278,1.59529 -0.05322,1.505295 -1.512895,-0.09037 -1.509147,-0.09302 -1.504395,-0.099 -1.231253,1.15911 -1.061329,1.001232 -0.987879,0.93652 -1.203107,-0.963127 -0.980858,-1.178916 -0.921103,-1.211535 -1.46372,-0.09936 -1.609793,0.0075 z m 0.0027,6.044624 1.567859,-0.515661 1.626116,-0.572156 1.483779,-0.411448 1.405408,0.81454 1.441572,0.7488 1.459499,0.713503 0.698593,-1.334659 0.819227,-1.558968 0.7301,-1.391481 1.576876,-0.470767 1.545447,-0.429099 1.564192,-0.430921 -0.583512,-1.36481 -0.512438,-1.606494 -0.351664,-1.682873 0.792685,-1.420982 0.790119,-1.416316 0.792852,-1.421214 -1.43168,-0.765994 -1.559222,-0.530657 -1.321626,-0.969015 -0.441019,-1.566559 -0.411706,-1.615549 -0.496704,-1.468835 -1.552319,0.488315 -1.560919,0.511974 -1.547521,0.471679 -1.470005,-0.695177 -1.394681,-0.842524 -1.369061,-0.873543 -0.837184,1.590752 -0.640438,1.224672 -0.762905,1.456025 -1.538446,0.399756 -1.59488,0.471152 -1.625685,0.593842 0.516885,1.487924 0.3758,1.765873 0.620103,1.279947 -0.791797,1.41934 -0.824332,1.479404 -0.734413,1.313361 1.408303,0.809191 1.430454,0.768737 1.339581,0.935702 0.433499,1.579084 0.404221,1.584583 z m 0.442854,-0.818324 -0.578428,-1.166283 -0.433247,-1.571002 -0.271407,-1.597162 -1.322634,-0.756839 -1.354498,-0.699972 -1.523505,-0.383651 0.786656,-1.413944 0.821381,-1.477974 0.762969,-1.370312 -0.430885,-1.49637 -0.456747,-1.425763 -0.450153,-1.483587 1.45653,-0.398856 1.424191,-0.334945 1.519123,-0.518669 0.713125,-1.357407 0.712322,-1.355628 0.71258,-1.356697 1.350007,0.706258 1.22499,0.940369 1.394091,0.6217 1.410171,-0.370644 1.518556,-0.524283 1.465432,-0.519393 0.351788,1.586446 0.407218,1.426057 0.458917,1.446453 1.335711,0.732674 1.237047,0.915474 1.473855,0.476924 -0.726676,1.303111 -0.797684,1.433873 -0.735824,1.320465 0.50083,1.367124 0.430237,1.538979 0.438433,1.441014 -1.460266,0.405759 -1.457581,0.402037 -1.455029,0.39484 -0.788177,1.496093 -0.678725,1.291596 -0.630265,1.206541 -1.450646,-0.520294 -1.310506,-0.796556 -1.26458,-0.846808 -1.416674,0.381291 -1.520118,0.52984 z m 1.96525,5.71623 1.315474,-0.996804 1.35223,-1.069155 1.269787,-0.870936 1.593739,0.31407 1.606599,0.24015 1.612094,0.200946 0.227378,-1.489177 0.268643,-1.740501 0.238727,-1.55315 1.338579,-0.95727 1.322382,-0.907655 1.33952,-0.915465 -0.995048,-1.101395 -1.006301,-1.353061 -0.879038,-1.477506 0.288343,-1.601373 0.287431,-1.596127 0.288426,-1.601648 -1.602825,-0.259624 -1.647044,0.0044 -1.564655,-0.487381 -0.925784,-1.338479 -0.913966,-1.394333 -0.946721,-1.22797 -1.309656,0.965894 -1.310106,0.991063 -1.310518,0.948601 -1.61608,-0.1802 -1.59268,-0.344021 -1.57852,-0.381679 -0.275307,1.776394 -0.208087,1.366266 -0.248798,1.624848 -1.325289,0.877628 -1.355481,0.96348 -1.344781,1.089525 0.972007,1.239472 0.928816,1.548172 1.002102,1.009249 -0.288036,1.599532 -0.299307,1.666906 -0.268172,1.480663 1.594741,0.308071 1.602556,0.262617 1.570821,0.450042 0.922739,1.352768 0.896833,1.367476 z m 0.153151,-0.91778 -0.925779,-0.915275 -0.919877,-1.345206 -0.775298,-1.422497 -1.496716,-0.286373 -1.508387,-0.222241 -1.565529,0.131818 0.284925,-1.59276 0.29698,-1.664595 0.276689,-1.543801 -0.89341,-1.275384 -0.894943,-1.200205 -0.907482,-1.257039 1.248103,-0.850179 1.238268,-0.779231 1.268401,-0.983825 0.233736,-1.515409 0.233555,-1.513467 0.233452,-1.514562 1.506182,0.229645 1.463953,0.491663 1.520421,0.135354 1.213417,-0.808443 1.266042,-0.988951 1.217384,-0.967075 0.847845,1.386263 0.848194,1.216566 0.903713,1.219069 1.501238,0.259271 1.467274,0.464203 1.548855,-0.02748 -0.264183,1.468457 -0.288886,1.615189 -0.2672,1.487841 0.917598,1.13043 0.906631,1.315895 0.882574,1.220577 -1.249395,0.857921 -1.248064,0.85353 -1.247987,0.845893 -0.259691,1.670951 -0.222569,1.441996 -0.204352,1.345813 -1.540986,-0.02108 -1.498141,-0.327875 -1.471019,-0.390318 -1.216109,0.820626 -1.265716,0.994713 z m 3.714824,4.768393 0.920535,-1.369928 0.931809,-1.450293 0.918194,-1.236046 1.609365,-0.220433 1.597525,-0.294523 1.589993,-0.333389 -0.268477,-1.482318 -0.311053,-1.733424 -0.278514,-1.546511 0.955226,-1.340039 0.956017,-1.287852 0.969689,-1.300804 -1.298756,-0.718627 -1.391115,-0.953003 -1.311154,-1.112027 -0.247245,-1.608231 -0.246404,-1.602974 -0.247257,-1.608518 -1.600279,0.27488 -1.556383,0.538931 -1.638129,0.04707 -1.310226,-0.965355 -1.317185,-1.02202 -1.294146,-0.854036 -0.925069,1.338804 -0.917323,1.362755 -0.931501,1.322728 -1.587027,0.354304 -1.618088,0.191761 -1.616923,0.151547 0.316405,1.769535 0.246814,1.359804 0.292269,1.617594 -0.968515,1.260397 -0.969197,1.3514 -0.918148,1.467141 1.321796,0.856704 1.381182,1.162701 1.275507,0.629183 0.246938,1.606391 0.258154,1.673772 0.227128,1.487512 1.608365,-0.226432 1.600997,-0.271962 1.631837,-0.08439 1.311986,0.979859 1.292258,1.002181 z m -0.153151,-0.917779 -1.172807,-0.565084 -1.306822,-0.973635 -1.195175,-1.093683 -1.508605,0.215126 -1.49882,0.279573 -1.437903,0.633002 -0.247681,-1.598975 -0.259605,-1.670832 -0.239574,-1.549993 -1.259118,-0.916192 -1.236159,-0.844587 -1.266472,-0.894269 0.904425,-1.209373 0.918158,-1.139075 0.880229,-1.342367 -0.270981,-1.509195 -0.270522,-1.507298 -0.270975,-1.508301 1.499139,-0.271854 1.544275,-0.01032 1.48199,-0.365659 0.885169,-1.158635 0.876333,-1.34645 0.837414,-1.309961 1.252025,1.035857 1.197255,0.875241 1.250579,0.859581 1.504082,-0.242228 1.538499,-0.03737 1.456012,-0.528901 0.226938,1.474671 0.251218,1.621476 0.230378,1.493985 1.234931,0.771237 1.284777,0.950213 1.231074,0.867871 -0.903133,1.217115 -0.903299,1.212529 -0.905707,1.205281 0.296937,1.664736 0.257705,1.436132 0.243706,1.339247 -1.464335,0.48042 -1.523429,0.176336 -1.518051,0.10847 -0.883761,1.171031 -0.874152,1.351794 z m 5.061839,3.303826 0.425844,-1.594598 0.410411,-1.674271 0.4671,-1.46721 1.450591,-0.731049 1.415335,-0.797281 1.395592,-0.831595 -0.735238,-1.314828 -0.857041,-1.538504 -0.765575,-1.372282 0.468359,-1.577593 0.486053,-1.528492 0.494778,-1.54518 -1.461723,-0.257984 -1.62518,-0.449673 -1.601187,-0.626043 -0.756041,-1.440813 -0.753538,-1.436113 -0.756144,-1.441079 -1.424319,0.779595 -1.297062,1.015087 -1.534088,0.57642 -1.552684,-0.48762 -1.577666,-0.538955 -1.50133,-0.387553 -0.440238,1.566633 -0.425134,1.586772 -0.451541,1.553517 -1.385995,0.850413 -1.46815,0.706763 -1.480107,0.668349 0.873829,1.570921 0.674968,1.205986 0.801665,1.435049 -0.506788,1.506581 -0.477884,1.592875 -0.392021,1.68577 1.52835,0.381098 1.683873,0.651234 1.410692,0.180936 0.755153,1.439171 0.78764,1.499261 0.697815,1.333166 1.447697,-0.736399 1.425945,-0.777069 1.516019,-0.609672 1.559058,0.500767 1.547649,0.528284 z m -0.442854,-0.818323 -1.292744,-0.153656 -1.552154,-0.496556 -1.485535,-0.646352 -1.357013,0.693313 -1.326833,0.751091 -1.154458,1.065591 -0.753447,-1.431916 -0.788057,-1.496009 -0.729875,-1.388221 -1.488383,-0.457714 -1.443417,-0.397445 -1.488221,-0.434593 0.462738,-1.437511 0.498554,-1.375483 0.396669,-1.555444 -0.746333,-1.339435 -0.745283,-1.337791 -0.746037,-1.338591 1.32964,-0.743894 1.457251,-0.511188 1.282962,-0.827048 0.461,-1.383271 0.391659,-1.55804 0.366697,-1.510891 1.520529,0.573199 1.416574,0.43907 1.461925,0.406945 1.343936,-0.717478 1.443004,-0.534898 1.205387,-0.97301 0.693467,1.321083 0.764098,1.45205 0.702993,1.338232 1.418438,0.328468 1.523699,0.481561 1.446168,0.421119 -0.459002,1.444416 -0.460649,1.440131 -0.465279,1.434058 0.821387,1.478121 0.710054,1.274641 0.665353,1.187552 -1.229001,0.929859 -1.383628,0.661437 -1.400579,0.595503 -0.455643,1.394539 -0.387862,1.562387 z m 5.860325,1.481239 -0.114994,-1.64647 -0.155462,-1.716814 -0.03461,-1.53938 1.134623,-1.162445 1.079772,-1.213641 1.049956,-1.239684 -1.122325,-1.004856 -1.310155,-1.176862 -1.169674,-1.049347 -0.06926,-1.644191 -0.03658,-1.603494 -0.03375,-1.622113 -1.466291,0.230615 -1.683131,0.102387 -1.717707,-0.07222 -1.182907,-1.11726 -1.179014,-1.113627 -1.183092,-1.117478 -1.094011,1.19983 -0.897186,1.381242 -1.263803,1.043305 -1.626886,0.04296 -1.667181,0.0025 -1.545823,0.120927 0.0923,1.624693 0.113124,1.638838 0.07735,1.615957 -1.034769,1.254367 -1.159116,1.145177 -1.182898,1.112726 1.336559,1.202073 1.029979,0.92148 1.224189,1.096994 0.0099,1.589504 0.06521,1.661737 0.176589,1.721719 1.569281,-0.135804 1.804092,0.0692 1.393007,-0.286919 1.181534,1.115996 1.231773,1.16228 1.092884,1.034351 1.130148,-1.166565 1.09637,-1.197968 1.235917,-1.068889 1.637182,-0.03259 1.635327,-0.0029 z m -0.684569,-0.63019 -1.272591,0.274424 -1.629285,0.03433 -1.614916,-0.128978 -1.058367,1.096369 -1.011063,1.141217 -0.745909,1.382706 -1.177566,-1.109687 -1.231111,-1.159069 -1.141083,-1.076013 -1.556358,0.05036 -1.494259,0.09277 -1.548696,0.07218 -0.02909,-1.509874 0.02492,-1.462835 -0.129875,-1.599964 -1.140809,-1.024527 -1.139281,-1.023312 -1.140255,-1.023825 1.016055,-1.135321 1.21231,-0.956659 0.944905,-1.198814 -0.01313,-1.458008 -0.135457,-1.600792 -0.143757,-1.548093 1.62426,0.04843 1.482386,-0.04468 1.514849,-0.08979 1.038153,-1.114978 1.191137,-0.974458 0.82414,-1.311678 1.084848,1.024334 1.194177,1.125272 1.099426,1.037462 1.448237,-0.149896 1.597503,-0.03927 1.504548,-0.07127 0.03487,1.51519 0.03192,1.511674 0.02557,1.507432 1.256827,1.131329 1.085456,0.975023 1.0149,0.907168 -0.860485,1.278532 -1.093892,1.074862 -1.131332,1.018005 0.02185,1.466925 0.14046,1.603671 z m 6.023755,-0.501862 -0.643372,-1.519921 -0.704486,-1.573314 -0.532572,-1.444734 0.6957,-1.467872 0.627198,-1.498484 0.590543,-1.513435 -1.387791,-0.585991 -1.621294,-0.68769 -1.44702,-0.612699 -0.599376,-1.532614 -0.555256,-1.504735 -0.558619,-1.523263 -1.311962,0.694223 -1.55869,0.643352 -1.648086,0.489433 -1.481587,-0.672634 -1.476726,-0.670462 -1.481834,-0.672781 -0.64515,1.490045 -0.400085,1.597719 -0.856567,1.397132 -1.524788,0.568877 -1.576033,0.543712 -1.422801,0.616302 0.614837,1.506693 0.639125,1.513309 0.59786,1.503285 -0.57141,1.522391 -0.724474,1.459493 -0.757503,1.436521 1.654453,0.702961 1.273376,0.537118 1.514052,0.640062 0.525434,1.50018 0.601247,1.550525 0.726061,1.571093 1.440159,-0.637991 1.728808,-0.520341 1.224368,-0.723682 1.479878,0.671884 1.542424,0.699349 1.369522,0.623448 0.69013,-1.470316 0.647986,-1.489049 0.821884,-1.412276 1.537893,-0.562418 1.545791,-0.533694 z m -0.852099,-0.373765 -1.114534,0.672763 -1.529859,0.5615 -1.569294,0.402372 -0.645032,1.380616 -0.585728,1.407675 -0.25653,1.549983 -1.474076,-0.667206 -1.540755,-0.696526 -1.428638,-0.647203 -1.455677,0.552983 -1.383175,0.572925 -1.441347,0.571129 -0.517772,-1.418618 -0.45141,-1.391667 -0.642346,-1.471104 -1.41166,-0.598595 -1.409821,-0.597942 -1.410908,-0.598111 0.592364,-1.403718 0.835997,-1.298462 0.504454,-1.440668 -0.485828,-1.374748 -0.647894,-1.470074 -0.638633,-1.417536 1.551977,-0.481594 1.387558,-0.523589 1.403615,-0.576797 0.61987,-1.391653 0.810192,-1.308421 0.353585,-1.508205 1.358669,0.616583 1.494848,0.676552 1.376719,0.624267 1.321097,-0.612015 1.498193,-0.555856 1.399887,-0.555933 0.524961,1.421772 0.52103,1.419402 0.513646,1.417453 1.55607,0.66194 1.343234,0.569746 1.254466,0.528477 -0.398723,1.488657 -0.685614,1.37181 -0.739488,1.330189 0.496977,1.380349 0.65356,1.471172 z m 5.534416,-2.43058 -1.10203,-1.228666 -1.177169,-1.259321 -0.97282,-1.193528 0.181388,-1.614232 0.106658,-1.620943 0.06713,-1.623182 -1.502867,-0.103626 -1.75674,-0.123996 -1.567559,-0.109654 -1.06454,-1.254956 -1.013757,-1.242912 -1.022955,-1.259346 -1.015462,1.082602 -1.26534,1.114599 -1.399869,0.998047 -1.619715,-0.155118 -1.614412,-0.154643 -1.619995,-0.155177 -0.126377,1.61879 0.140371,1.641057 -0.356508,1.599559 -1.257457,1.033152 -1.314096,1.025988 -1.145596,1.044893 1.070745,1.225419 1.095866,1.22379 1.053583,1.227708 -0.04613,1.62544 -0.211324,1.61565 -0.250022,1.604647 1.793061,0.127673 1.378784,0.09455 1.639844,0.11377 0.984072,1.248288 1.072124,1.271288 1.196855,1.250216 1.154971,-1.071042 1.466182,-1.053491 0.923049,-1.082022 1.617856,0.154964 1.685928,0.160632 1.497751,0.144984 0.175327,-1.614735 0.129382,-1.618769 0.318787,-1.60262 1.271949,-1.031298 1.288746,-1.006694 z m -0.927292,-0.07684 -0.835698,0.9982 -1.264649,1.02782 -1.353615,0.89012 -0.161797,1.515252 -0.09692,1.521588 0.260648,1.549297 -1.610849,-0.152424 -1.683434,-0.158504 -1.561376,-0.148258 -1.197252,0.995679 -1.122202,0.990998 -1.177805,1.008189 -0.950343,-1.173634 -0.878825,-1.169689 -1.085208,-1.182826 -1.529536,-0.107796 -1.527584,-0.107776 -1.528668,-0.107583 0.104481,-1.520002 0.369091,-1.499554 0.0093,-1.526406 -0.905885,-1.142511 -1.090121,-1.180051 -1.064303,-1.133366 1.311513,-0.959426 1.142367,-0.94576 1.140278,-1.001297 0.134415,-1.517521 0.34145,-1.500595 -0.155287,-1.541296 1.485257,0.142016 1.633529,0.154519 1.504824,0.143422 1.050794,-1.007814 1.236532,-1.012201 1.143525,-0.980353 0.958166,1.174281 0.953678,1.173317 0.946062,1.173871 1.68669,0.120819 1.455449,0.102729 1.358093,0.09252 0.106246,1.537463 -0.203039,1.5201 -0.267509,1.498227 0.918248,1.144189 1.095837,1.179249 z m 4.445339,-4.095907 -1.441266,-0.804264 -1.522288,-0.808861 -1.307648,-0.812986 -0.35258,-1.585665 -0.425441,-1.567748 -0.46355,-1.557031 -1.455085,0.389969 -1.701817,0.453135 -1.518229,0.405273 -1.414343,-0.841303 -1.362402,-0.846402 -1.376437,-0.858958 -0.608922,1.353664 -0.83487,1.465062 -0.999955,1.398507 -1.582321,0.379207 -1.577151,0.377935 -1.582605,0.379242 0.40609,1.572114 0.665616,1.506562 0.182185,1.628648 -0.853861,1.385469 -0.909757,1.397083 -0.744249,1.360252 1.410623,0.811352 1.433853,0.801655 1.395133,0.819089 0.484149,1.552348 0.324727,1.596726 0.284553,1.598886 1.737363,-0.461452 1.334778,-0.358262 1.587934,-0.424851 1.336071,0.861125 1.42682,0.854288 1.53795,0.793857 0.744625,-1.388028 1.044672,-1.472479 0.521704,-1.323108 1.580512,-0.378749 1.646738,-0.395492 1.463675,-0.34919 -0.358477,-1.584172 -0.403242,-1.573071 -0.218855,-1.619295 0.868169,-1.388421 0.892045,-1.370604 z m -0.901998,0.228417 -0.466303,1.215466 -0.862393,1.382761 -0.991252,1.281409 0.338972,1.485686 0.402389,1.470615 0.749581,1.380719 -1.57306,0.378876 -1.643687,0.396695 -1.524916,0.366753 -0.809085,1.330477 -0.739621,1.301682 -0.786631,1.335995 -1.279928,-0.801467 -1.211006,-0.820959 -1.410471,-0.76637 -1.481663,0.394683 -1.47981,0.39407 -1.480773,0.394604 -0.394723,-1.471569 -0.137812,-1.538148 -0.486792,-1.446732 -1.227774,-0.786467 -1.414218,-0.762151 -1.37464,-0.726378 0.928927,-1.333289 0.773383,-1.265442 0.753374,-1.317292 -0.365607,-1.478942 -0.164293,-1.530158 -0.647331,-1.407362 1.450894,-0.347941 1.595192,-0.38426 1.469858,-0.352964 0.666623,-1.2944 0.840872,-1.358858 0.763246,-1.298538 1.287538,0.79954 1.282981,0.800085 1.275957,0.803082 1.634529,-0.433395 1.409946,-0.375421 1.314548,-0.353467 0.599703,1.419661 0.301537,1.503663 0.233459,1.503909 1.240012,0.78404 1.419364,0.759536 z m 2.87454,-5.317378 -1.624319,-0.292709 -1.702443,-0.270749 -1.500772,-0.344343 -0.848341,-1.385267 -0.911436,-1.344662 -0.944001,-1.322152 -1.249622,0.841304 -1.462474,0.981162 -1.304376,0.876282 -1.610881,-0.336482 -1.563409,-0.358171 -1.580761,-0.365488 -0.136395,1.478035 -0.31393,1.656763 -0.49168,1.647416 -1.373458,0.87244 -1.368982,0.869557 -1.373715,0.872565 0.894552,1.355076 1.11873,1.208807 0.701135,1.481247 -0.357735,1.587649 -0.406831,1.616783 -0.262251,1.528207 1.597637,0.309362 1.616459,0.292648 1.585499,0.32171 0.961963,1.311035 0.825589,1.404772 0.788292,1.419859 1.493395,-1.000569 1.146128,-0.772253 1.363947,-0.917432 1.543286,0.380645 1.626897,0.344713 1.712385,0.251472 0.253587,-1.554601 0.509957,-1.7319 0.06382,-1.420816 1.371896,-0.871419 1.429097,-0.908757 1.270987,-0.805525 -0.853433,-1.38194 -0.892168,-1.356905 -0.732781,-1.460495 0.370309,-1.595086 0.398677,-1.585988 z m -0.778959,0.508919 -0.04638,1.301017 -0.366685,1.587857 -0.52147,1.533838 0.803007,1.295124 0.858095,1.260277 1.157285,1.062519 -1.364806,0.86912 -1.425822,0.908905 -1.323207,0.84202 -0.333241,1.521098 -0.276891,1.471308 -0.310212,1.519025 -1.470815,-0.342449 -1.411954,-0.383264 -1.582889,-0.266867 -1.273228,0.854394 -1.271676,0.853211 -1.272412,0.854029 -0.851154,-1.263668 -0.629781,-1.41006 -0.93017,-1.210283 -1.416615,-0.345196 -1.585062,-0.26166 -1.536012,-0.240676 0.445677,-1.56267 0.320591,-1.447994 0.28483,-1.490537 -0.826009,-1.280096 -0.652233,-1.393904 -1.069227,-1.12092 1.259305,-0.800193 1.383991,-0.881397 1.27561,-0.811102 0.210212,-1.440718 0.35409,-1.558262 0.300257,-1.476005 1.477386,0.338156 1.473253,0.34015 1.467582,0.345266 1.405243,-0.940643 1.211652,-0.812888 1.128551,-0.761148 1.028173,1.148016 0.773438,1.324282 0.709128,1.346619 1.427402,0.338927 1.58908,0.257516 z m 0.992239,-5.96263 -1.63135,0.250567 -1.698113,0.296703 -1.531263,0.161614 -1.252172,-1.034753 -1.298662,-0.975862 -1.322155,-0.943998 -0.908743,1.201472 -1.064651,1.402865 -0.949172,1.252332 -1.632855,0.204802 -1.594997,0.168874 -1.613786,0.167587 0.350913,1.442238 0.24103,1.668928 0.06988,1.717803 -1.01576,1.27113 -1.012461,1.26695 -1.015963,1.271331 1.286075,0.991194 1.450614,0.780059 1.144105,1.173331 0.177157,1.617782 0.140181,1.66128 0.248167,1.530557 1.611522,-0.226152 1.623898,-0.248072 1.604051,-0.210532 1.335533,0.92765 1.236985,1.06059 1.206608,1.086969 1.087594,-1.431261 0.833278,-1.102556 0.992155,-1.310596 1.583261,-0.141084 1.650676,-0.202217 1.701256,-0.318164 -0.264931,-1.552708 -0.08002,-1.803643 -0.400972,-1.364556 1.014613,-1.269657 1.056592,-1.323546 0.940568,-1.174567 -1.255907,-1.029954 -1.284414,-0.993697 -1.1673,-1.143428 -0.167678,-1.6289 -0.137894,-1.629504 z m -0.571506,0.734272 0.378575,1.245582 0.16876,1.620886 0.0048,1.620051 1.180024,0.964215 1.220812,0.913368 1.43958,0.629179 -1.008654,1.265181 -1.053446,1.322621 -0.978109,1.226043 0.178715,1.546883 0.215844,1.481495 0.199823,1.537446 -1.502314,0.153679 -1.459897,0.09596 -1.583775,0.261555 -0.92682,1.221517 -0.925736,1.219895 -0.926167,1.220907 -1.215348,-0.91883 -1.053503,-1.12917 -1.272749,-0.842681 -1.451944,0.133482 -1.58414,0.267187 -1.530934,0.271106 -0.08587,-1.622711 -0.166943,-1.473633 -0.214579,-1.50226 -1.1969,-0.942533 -1.069493,-1.106599 -1.375255,-0.713008 0.93125,-1.165731 1.022813,-1.283022 0.943129,-1.181344 -0.268978,-1.430912 -0.171062,-1.588804 -0.19527,-1.493524 1.507136,-0.159873 1.503875,-0.156644 1.500172,-0.149964 1.023677,-1.345959 0.882057,-1.162266 0.820259,-1.086347 1.345223,0.751966 1.161525,1.001394 1.107952,1.043402 1.460111,-0.142914 1.586594,-0.27241 z m -0.997586,-5.961737 -1.461601,0.766688 -1.509764,0.832004 -1.39582,0.650058 -1.520309,-0.572109 -1.545159,-0.501312 -1.557033,-0.463546 -0.469387,1.431441 -0.551456,1.672545 -0.491112,1.492674 -1.477883,0.723892 -1.453742,0.677618 -1.471931,0.682502 0.800193,1.250153 0.76987,1.500239 0.62386,1.602039 -0.547988,1.532073 -0.546226,1.527048 -0.548114,1.53233 1.538232,0.5199 1.6253,0.26678 1.463095,0.738267 0.692851,1.472603 0.672002,1.52575 0.731691,1.367048 1.450775,-0.737159 1.455361,-0.76191 1.44878,-0.719959 1.564378,0.443741 1.514334,0.601476 1.494169,0.636289 0.563936,-1.706852 0.430129,-1.313382 0.512847,-1.561737 1.451666,-0.647523 1.495578,-0.727235 1.50577,-0.853321 -0.75474,-1.382555 -0.661328,-1.679934 -0.822317,-1.160425 0.547382,-1.530308 0.569588,-1.594907 0.508224,-1.416328 -1.522284,-0.566356 -1.537474,-0.522807 -1.475323,-0.702453 -0.687495,-1.486196 -0.659522,-1.496439 z m -0.302123,0.880054 0.762503,1.05517 0.685917,1.478266 0.530589,1.530706 1.429167,0.528819 1.451236,0.467482 1.565873,0.127658 -0.543199,1.524139 -0.566913,1.593011 -0.527016,1.477203 0.671303,1.405041 0.68519,1.331139 0.688204,1.38926 -1.371016,0.633153 -1.349636,0.564791 -1.413035,0.761635 -0.479976,1.45627 -0.479478,1.454383 -0.479557,1.455481 -1.447841,-0.474423 -1.363062,-0.725916 -1.477406,-0.383761 -1.329932,0.597695 -1.411551,0.767079 -1.359956,0.753511 -0.60811,-1.506907 -0.636385,-1.339582 -0.690736,-1.351189 -1.438089,-0.502831 -1.370857,-0.699376 -1.532253,-0.227831 0.50228,-1.404945 0.550798,-1.545612 0.508446,-1.423568 -0.719021,-1.266045 -0.677677,-1.447174 -0.669636,-1.349197 1.373565,-0.640577 1.371528,-0.636464 1.370195,-0.628944 0.531179,-1.605418 0.456878,-1.385695 0.423079,-1.293823 1.516499,0.274429 1.423742,0.56999 1.386712,0.627116 1.334594,-0.609268 1.412177,-0.772817 z"
       id="path1"
       inkscape:original-d="m 53.265625,18.947266 -3.400391,3.486328 -4.871093,-0.06055 0.0625,4.86914 -3.488282,3.400391 3.488282,3.400391 -0.0625,4.86914 4.871093,-0.06055 3.400391,3.486329 3.398437,-3.486329 4.871094,0.06055 -0.0625,-4.86914 3.488281,-3.400391 -3.488281,-3.400391 0.0625,-4.86914 -4.871094,0.06055 z m 0,0.716796 3.191406,3.273438 4.570313,-0.05859 -0.05664,4.572266 3.273438,3.191406 -3.273438,3.191406 0.05664,4.572266 -4.570313,-0.05859 -3.191406,3.275391 -3.193359,-3.275391 -4.570313,0.05859 0.05664,-4.572266 -3.273438,-3.191406 3.273438,-3.191406 -0.05664,-4.572266 4.570313,0.05859 z"
       inkscape:path-effect="#path-effect4;#path-effect5"
       transform="matrix(2.3761722,0,0,2.3761722,-39.146076,-12.627276)" />
  </g>
</svg>
