<?xml version="1.0" encoding="UTF-8" standalone="no"?>
<!-- Created with Inkscape (http://www.inkscape.org/) -->

<svg
   width="120"
   height="120"
   viewBox="0 0 120 120"
   version="1.1"
   id="svg1"
   inkscape:version="1.4 (86a8ad7, 2024-10-11)"
   sodipodi:docname="mand_33.svg"
   xmlns:inkscape="http://www.inkscape.org/namespaces/inkscape"
   xmlns:sodipodi="http://sodipodi.sourceforge.net/DTD/sodipodi-0.dtd"
   xmlns="http://www.w3.org/2000/svg"
   xmlns:svg="http://www.w3.org/2000/svg">
  <sodipodi:namedview
     id="namedview1"
     pagecolor="#ffffff"
     bordercolor="#000000"
     borderopacity="0.25"
     inkscape:showpageshadow="2"
     inkscape:pageopacity="0.0"
     inkscape:pagecheckerboard="0"
     inkscape:deskcolor="#d1d1d1"
     inkscape:document-units="px"
     inkscape:zoom="4.8625"
     inkscape:cx="59.948586"
     inkscape:cy="59.948586"
     inkscape:window-width="3440"
     inkscape:window-height="1369"
     inkscape:window-x="-8"
     inkscape:window-y="-8"
     inkscape:window-maximized="1"
     inkscape:current-layer="layer1" />
  <defs
     id="defs1">
    <inkscape:path-effect
       effect="copy_rotate"
       starting_point="0,0"
       origin="40.118127,32.22481"
       id="path-effect2"
       is_visible="true"
       lpeversion="1.2"
       lpesatellites=""
       method="normal"
       num_copies="6"
       starting_angle="0"
       rotation_angle="60"
       gap="-0.01"
       copies_to_360="true"
       mirror_copies="false"
       split_items="false"
       link_styles="false" />
  </defs>
  <g
     inkscape:label="Layer 1"
     inkscape:groupmode="layer"
     id="layer1">
    <path
       id="path1"
       d="m 47.740714,17.36814 -0.448356,1.725921 -1.72583,-0.456408 0.971336,3.35797 -1.956756,7.519103 -0.180582,0.04958 0.135425,0.130395 -0.173418,0.669308 -1.861902,6.718151 -2.382504,2.34157 1.616343,0.419634 -0.477192,1.720383 3.4411,-0.949547 7.56683,1.967248 0.04958,0.180582 0.1299,-0.133537 0.669307,0.173419 6.776225,1.879143 2.417637,2.400423 0.400246,-1.619405 1.60563,0.445093 -0.904953,-3.279996 1.68693,-6.828627 0.177197,-0.668317 0.180087,-0.04769 -0.134931,-0.132284 1.997972,-7.560797 2.51543,-2.532868 -1.733259,-0.428069 0.426696,-1.612472 -3.20492,0.926651 -6.771452,-1.673962 -0.668317,-0.177197 -0.04769,-0.180087 -0.13179,0.133041 -7.511674,-1.985096 z m 0.260813,0.976961 1.243377,1.264796 -1.470775,-0.389555 z m 19.81498,5.193858 -0.203938,0.770339 -1.325078,-0.329154 z m 1.038312,1.592655 -1.283834,1.292903 0.400449,-1.512339 z m -1.369027,-0.338655 -0.617355,2.339853 -4.690609,4.722832 -2.313339,-2.282225 -0.897986,-3.476043 6.359453,-1.838243 z m -3.126846,-0.773162 -5.518172,1.594362 -0.819053,-3.16864 0.402421,0.105482 z m -18.069504,-4.673746 0.87614,0.231671 -0.382492,1.474645 z m 1.357911,0.357952 2.282679,0.604388 4.637264,4.716639 -2.390573,2.426276 -3.286967,0.893031 -1.83595,-6.352795 z m 3.226834,0.853887 6.424428,1.696071 -2.381934,2.416426 z m 6.693265,2.134015 0.792802,3.060804 -1.000494,0.288969 -0.847756,0.230068 -0.625898,-0.616339 -0.618653,-0.628573 z m 9.046039,5.405844 -1.703004,6.450878 -2.376127,-2.343103 z m -19.805405,-5.161062 1.601241,5.538148 -3.271761,0.88894 z m 11.677897,3.299239 0.687032,2.655507 -2.246369,-2.214193 0.569775,-0.155537 z m -3.567915,-0.85445 0.61537,0.625694 0.421613,0.417416 -2.819361,0.76523 z m 1.445957,1.447118 3.052174,3.006912 0.844092,3.257987 0.14875,0.541747 -0.395369,0.399124 -2.478505,2.576872 -3.465606,0.896683 -0.541747,0.14875 -0.399125,-0.395369 -2.425028,-2.333711 -1.122695,-4.12856 2.861219,-2.904606 z m -4.880807,1.32732 -2.054102,2.082383 -0.155537,-0.569775 -0.244283,-0.847444 z m 8.626345,2.362073 1.716991,1.691804 -1.012111,1.018859 -0.07233,-0.26327 z m -11.56308,-1.565017 0.245678,0.849829 0.230068,0.847756 -0.616339,0.625898 -0.742094,0.728215 -2.280248,-2.192787 z m 13.636603,3.606701 2.289952,2.255904 -3.004254,0.777339 -0.50051,-1.811089 z m 2.534449,2.709678 -0.105482,0.402421 -1.477215,5.966922 -1.534163,-5.562966 z m -19.770133,-5.180083 2.359452,2.268064 -4.096209,4.026572 1.63366,-5.893609 z m 15.614975,4.101038 0.421301,1.527843 -2.525807,0.654398 1.912333,-1.988301 z m -11.387803,-2.980907 0.827085,3.045561 -1.976562,-1.903198 0.73395,-0.720255 z m 11.942885,4.992058 1.773989,6.427414 -0.547692,2.212737 -2.195,-0.607655 -4.730793,-4.698753 2.379291,-2.475673 z m -13.449304,-3.497034 2.590005,2.490024 0.851225,3.130634 -6.420756,1.771697 -2.33855,-0.606919 0.594283,-2.143989 z m 9.2059,4.595684 -1.811634,1.881435 -1.128018,-1.119469 0.262776,-0.07044 z m -5.915782,-1.433524 1.820537,1.751251 0.195829,0.192668 -1.384331,0.382192 z m 2.42435,2.351705 1.332707,1.324555 -2.151077,2.236664 -0.842548,-3.102111 z m -2.141842,0.591495 0.87487,3.217596 -6.457316,-1.678443 z m 3.830585,1.084829 4.095137,4.065723 -5.924333,-1.639695 -0.402421,-0.105481 z M 42.23246,38.043634 41.868308,39.363577 41.095089,39.162921 Z m 20.931045,5.57322 0.434068,1.571571 -0.769752,-0.21388 z M 43.726782,40.36155 41.974628,40.845201 42.21813,39.970143 Z m 17.14808,4.591732 1.347786,0.37347 -0.191209,0.775695 z m -29.811695,-26.758161 1.270513,1.251248 -1.258176,1.266409 3.393756,0.837783 5.533356,5.454152 -0.04735,0.181179 0.180638,-0.05208 0.492929,0.484838 4.887138,4.97153 0.836608,3.234094 1.171585,-1.189977 1.251299,1.273452 0.898218,-3.454854 5.487102,-5.569443 0.181179,0.04735 -0.0507,-0.179265 0.484839,-0.492928 5.015498,-4.928811 3.287646,-0.893524 -1.202323,-1.156326 1.188277,-1.167969 -3.293036,-0.856286 -5.0703,-4.875238 -0.490181,-0.487616 0.04874,-0.179804 -0.182027,0.05071 L 49.529541,6.2530532 48.593728,2.808193 47.35638,4.0952048 46.173286,2.9194392 45.373329,6.1583068 40.53791,11.185575 l -0.487616,0.490181 -0.179805,-0.04874 0.04932,0.180654 -5.474981,5.512752 z m 0.976479,0.26261 1.717034,-0.444398 -1.072752,1.078951 z M 46.445149,3.8943838 47.010314,4.4561688 46.062719,5.439143 Z m 1.898436,-0.1028771 0.47777,1.7582844 -1.1095,-1.1029685 z m -0.977797,1.0162847 1.717694,1.7045716 1.744788,6.423603 -3.133134,0.862297 -3.459335,-0.960342 1.587762,-6.4265698 z m -2.233001,2.321347 -1.378328,5.5760586 -3.153649,-0.875 0.29256,-0.295766 z m -13.082335,13.3117766 0.638703,-0.642924 1.085834,1.06857 z m 0.988951,-0.997009 1.664755,-1.674664 6.403361,-1.657669 0.90593,3.283435 -0.870096,3.293112 -6.419657,-1.586418 z m 2.352905,-2.367577 4.681054,-4.715683 0.90172,3.271029 z m 5.194744,-4.72953 3.047135,0.843815 -0.249993,1.010938 -0.224633,0.849212 -0.846714,0.233874 -0.853687,0.221483 z m 9.204617,-5.1311778 4.735123,4.7002838 -3.217251,0.886235 z m -14.372313,14.5714528 5.596797,1.382359 -0.866035,3.277898 z m 8.696173,-8.463736 2.643253,0.732766 -3.040732,0.838317 0.150188,-0.571209 z m -2.523933,2.66268 0.849552,-0.220079 0.5723,-0.15642 -0.746972,2.824254 z m 1.97622,-0.528676 4.130149,-1.139805 3.243546,0.897989 0.543541,0.142052 0.147967,0.541962 0.992384,3.434884 -0.956252,3.449644 -0.142053,0.543542 -0.541962,0.147968 -3.233567,0.93328 -4.136785,-1.091997 -1.084853,-3.930192 z m -1.290911,4.890562 0.776346,2.820096 -0.571208,-0.150188 -0.85605,-0.212167 z m 6.358788,-6.289597 2.323641,-0.641056 0.376302,1.385944 -0.264164,-0.069 z m -7.136885,9.231413 0.858813,0.212151 0.849212,0.224633 0.233874,0.846714 0.259606,1.00678 -3.039133,0.878359 z m 9.941797,-10.006295 3.098646,-0.855204 -0.828932,2.99043 -1.818704,-0.47209 z m 3.613874,-0.840058 0.295766,0.292561 4.428898,4.262767 -5.584751,-1.452859 z m -14.37115,14.531396 3.143927,-0.909313 1.439009,5.560707 -4.287185,-4.361596 z m 11.359091,-11.472446 1.533801,0.399064 -0.696178,2.514612 -0.765753,-2.650279 z m -8.275443,8.371673 3.051076,0.806504 -2.636499,0.760154 -0.256784,-0.995747 z m 10.294692,-7.846812 6.453298,1.677387 1.64244,1.580684 -1.623744,1.597098 -6.434636,1.74761 -0.95435,-3.298363 z m -9.753173,9.898921 3.451427,-0.997998 3.136821,0.828135 -1.676043,6.446386 -1.694883,1.721784 -1.559607,-1.586658 z m 8.582929,-5.674701 0.723554,2.509639 -1.533498,0.417157 0.07039,-0.26279 z m -4.199359,4.406456 2.426897,-0.701006 0.264769,-0.07326 -0.361177,1.389962 z m 3.248811,-0.923697 1.813452,-0.49188 0.86147,2.981219 -3.107781,-0.821387 z m -0.558671,2.150638 3.223955,0.851138 -4.682232,4.752978 z m 2.854782,-2.77497 5.568588,-1.513631 -4.382184,4.310775 -0.29256,0.295767 z m -8.022445,10.193331 0.961028,0.975336 -0.560383,0.5693 z m 15.292073,-15.340207 1.578054,0.409872 -0.570102,0.559685 z m -12.537538,15.205044 -0.457223,1.759235 -0.636071,-0.648407 z m 12.550597,-12.554807 0.997327,-0.980482 0.576167,0.55344 z m -38.079095,12.438605 1.718869,-0.474673 0.467654,1.722817 2.42242,-2.520187 7.490112,-2.064951 0.133228,0.131599 0.04521,-0.182479 0.666347,-0.18447 6.74904,-1.746621 3.219112,0.892524 -0.444758,-1.609611 1.728491,-0.446931 -2.542882,-2.505307 -2.079728,-7.536691 0.131599,-0.133228 -0.180597,-0.04573 -0.184468,-0.666347 -1.760727,-6.8079543 0.870009,-3.2939466 -1.602569,0.4630793 -0.417353,-1.6130629 -2.388083,2.4237103 -6.75723,1.9533893 -0.667378,0.1807014 -0.131344,-0.1321149 -0.0471,0.1829957 -7.546828,2.0501037 -3.451243,-0.911992 0.495911,1.715081 -1.60979,0.436706 2.404963,2.312217 1.936033,6.70123 0.180701,0.667378 -0.132115,0.131345 0.181112,0.04761 2.036693,7.497848 z m 0.715666,-0.714351 0.473657,-1.709194 0.398023,1.468506 z m -5.409477,-19.757205 0.769103,-0.208554 0.377483,1.312128 z m 0.860124,-1.695532 1.761604,0.465381 -1.509949,0.409371 z m 0.39123,1.354939 2.335049,-0.635281 6.435397,1.700771 -0.819795,3.144522 -2.561349,2.515701 -4.771691,-4.588327 z m 0.893845,3.094509 4.139844,3.981697 -2.334596,2.29364 -0.109861,-0.401248 z m 4.987169,17.985523 -0.237437,-0.874595 1.468326,-0.406075 z m -0.36896,-1.354961 -0.617924,-2.279052 1.766097,-6.374308 3.296503,0.857159 2.416871,2.400081 -4.583707,4.766377 z m -0.873929,-3.221464 -1.743374,-6.411754 3.283654,0.854603 z m -1.498521,-6.863545 2.254333,-2.216989 0.750501,0.721969 0.623123,0.619144 -0.220816,0.850213 -0.235034,0.850056 z m 0.158578,-10.537022 6.438127,-1.7505941 -0.841124,3.2293381 z m 5.433092,19.732515 3.995556,-4.155789 2.405726,2.388958 z m -2.981724,-11.762975 1.956221,-1.922741 -0.794363,3.05251 -0.419587,-0.415672 z m 1.043982,3.51713 0.234182,-0.845773 0.150687,-0.573836 2.072389,2.059024 z m 0.530263,-1.975794 1.077975,-4.146717 2.399454,-2.359998 0.394791,-0.399695 0.543336,0.142838 3.470889,0.858012 2.509354,2.552961 0.399694,0.394792 -0.142837,0.543337 -0.808539,3.266991 -3.01409,3.036563 -3.946072,-1.025586 z m 3.589896,3.563242 2.830448,0.737713 -0.415671,0.419587 -0.611767,0.635277 z m -2.267557,-8.65167 0.60665,-2.33286 1.388413,0.367085 -0.191834,0.194274 z m 4.426195,10.79643 0.613135,-0.637678 0.619144,-0.623123 0.850213,0.220816 1.0017,0.278565 -0.758885,3.071146 z M 29.375646,12.948564 30.18434,9.8374559 32.359662,12.050547 31.041468,13.389546 Z M 30.455071,9.3988283 30.856319,9.2889678 36.762432,7.5848126 32.711844,11.69492 Z m 5.398983,19.7114787 0.784475,-3.177377 5.535218,1.534135 -5.920845,1.532013 z m -4.255884,-15.573484 1.1125,-1.128779 1.829629,1.860214 -2.678086,-0.661978 z m 3.11236,11.35258 2.223991,-2.239057 -0.659937,2.663352 -0.990734,-0.275492 z m -1.648193,-12.83887 4.679309,-4.750027 2.190132,-0.6320533 0.571256,2.2047532 -1.703843,6.4463631 -3.333641,-0.82269 z m 3.696131,13.395955 0.861422,-3.488022 2.285596,-2.302499 4.744713,4.674689 0.643667,2.328703 -2.15389,0.557331 z m -0.622971,-10.270385 2.535188,0.628204 -0.40548,1.536626 -0.192391,-0.19235 z m 1.716423,5.83998 0.60636,-2.452257 0.06894,-0.265927 1.023154,1.00777 z m 0.824461,-3.275402 0.480745,-1.816435 3.012547,0.744555 -2.265233,2.280724 z m 1.583171,1.559143 2.349085,-2.366458 1.775084,6.431421 z m -0.975803,-3.859799 1.473451,-5.579354 1.542149,5.95047 0.109861,0.401248 z m 4.816461,12.044307 1.32518,-0.344607 0.212836,0.769956 z m -5.638972,-20.9134268 1.143986,-1.1616994 0.19965,0.7735648 z m 6.899185,18.4603478 1.294931,1.275584 -0.879573,0.226651 z M 40.76294,7.8847142 40.412481,6.5307623 41.179857,6.3085066 Z m -8.2674,39.1967658 0.448356,-1.725921 1.72583,0.456408 -0.971336,-3.35797 1.956756,-7.519103 0.180582,-0.04958 -0.135425,-0.130395 0.173418,-0.669308 1.861902,-6.718151 2.382504,-2.34157 -1.616343,-0.419634 0.477192,-1.720383 -3.4411,0.949547 -7.56683,-1.967248 -0.04958,-0.180582 -0.1299,0.133537 -0.669307,-0.173419 -6.776225,-1.879143 -2.417637,-2.400423 -0.400246,1.619405 -1.60563,-0.445093 0.904953,3.279996 -1.68693,6.828627 -0.177197,0.668317 -0.180087,0.04769 0.134931,0.132284 -1.997972,7.560797 -2.51543,2.532868 1.733259,0.428069 -0.426696,1.612472 3.20492,-0.926651 6.771452,1.673962 0.668317,0.177197 0.04769,0.180087 0.13179,-0.133041 7.511674,1.985096 z m -0.260813,-0.976961 -1.243377,-1.264796 1.470775,0.389555 z m -19.81498,-5.193858 0.203938,-0.770339 1.325078,0.329154 z m -1.038312,-1.592655 1.283834,-1.292903 -0.400449,1.512339 z m 1.369027,0.338655 0.617355,-2.339853 4.690609,-4.722832 2.313339,2.282225 0.897986,3.476043 -6.359453,1.838243 z m 3.126846,0.773162 5.518172,-1.594362 0.819053,3.16864 -0.402421,-0.105482 z m 18.069504,4.673746 -0.87614,-0.231671 0.382492,-1.474645 z m -1.357911,-0.357952 -2.282679,-0.604388 -4.637264,-4.716639 2.390573,-2.426276 3.286967,-0.893031 1.83595,6.352795 z M 29.362067,43.89173 22.937639,42.195659 25.319573,39.779233 Z M 22.668802,41.757715 21.876,38.696911 l 1.000494,-0.288969 0.847756,-0.230068 0.625898,0.616339 0.618653,0.628573 z m -9.046039,-5.405844 1.703004,-6.450878 2.376127,2.343103 z m 19.805405,5.161062 -1.601241,-5.538148 3.271761,-0.88894 z m -11.677897,-3.299239 -0.687032,-2.655507 2.246369,2.214193 -0.569775,0.155537 z m 3.567915,0.85445 -0.61537,-0.625694 -0.421613,-0.417416 2.819361,-0.76523 z m -1.445957,-1.447118 -3.052174,-3.006912 -0.844092,-3.257987 -0.14875,-0.541747 0.395369,-0.399124 2.478505,-2.576872 3.465606,-0.896683 0.541747,-0.14875 0.399125,0.395369 2.425028,2.333711 1.122695,4.12856 -2.861219,2.904606 z m 4.880807,-1.32732 2.054102,-2.082383 0.155537,0.569775 0.244283,0.847444 z m -8.626345,-2.362073 -1.716991,-1.691804 1.012111,-1.018859 0.07233,0.26327 z m 11.56308,1.565017 -0.245678,-0.849829 -0.230068,-0.847756 0.616339,-0.625898 0.742094,-0.728215 2.280248,2.192787 z m -13.636603,-3.606701 -2.289952,-2.255904 3.004254,-0.777339 0.50051,1.811089 z m -2.534449,-2.709678 0.105482,-0.402421 1.477215,-5.966922 1.534163,5.562966 z m 19.770133,5.180083 -2.359452,-2.268064 4.096209,-4.026572 -1.63366,5.893609 z m -15.614975,-4.101038 -0.421301,-1.527843 2.525807,-0.654398 -1.912333,1.988301 z m 11.387803,2.980907 -0.827085,-3.045561 1.976562,1.903198 -0.73395,0.720255 z m -11.942885,-4.992058 -1.773989,-6.427414 0.547692,-2.212737 2.195,0.607655 4.730793,4.698753 -2.379291,2.475673 z m 13.449304,3.497034 -2.590005,-2.490024 -0.851225,-3.130634 6.420756,-1.771697 2.33855,0.606919 -0.594283,2.143989 z m -9.2059,-4.595684 1.811634,-1.881435 1.128018,1.119469 -0.262776,0.07044 z m 5.915782,1.433524 -1.820537,-1.751251 -0.195829,-0.192668 1.384331,-0.382192 z m -2.42435,-2.351705 -1.332707,-1.324555 2.151077,-2.236664 0.842548,3.102111 z m 2.141842,-0.591495 -0.87487,-3.217596 6.457316,1.678443 z m -3.830585,-1.084829 -4.095137,-4.065723 5.924333,1.639695 0.402421,0.105481 z m 12.838906,1.850976 0.364152,-1.319943 0.773219,0.200656 z m -20.931045,-5.57322 -0.434068,-1.571571 0.769752,0.21388 z m 19.436723,3.255304 1.752154,-0.483651 -0.243502,0.875058 z m -17.14808,-4.591732 -1.347786,-0.37347 0.191209,-0.775695 z m 29.811695,26.758161 -1.270513,-1.251248 1.258176,-1.266409 -3.393756,-0.837783 -5.533356,-5.454152 0.04735,-0.181179 -0.180638,0.05208 -0.492929,-0.484838 -4.887138,-4.97153 -0.836608,-3.234094 -1.171585,1.189977 -1.251299,-1.273452 -0.898218,3.454854 -5.487102,5.569443 -0.181179,-0.04735 0.0507,0.179265 -0.484839,0.492928 -5.015498,4.928811 -3.287646,0.893524 1.202323,1.156326 -1.188277,1.167969 3.293036,0.856286 5.0703,4.875238 0.490181,0.487616 -0.04874,0.179804 0.182027,-0.05071 5.548856,5.510693 0.935813,3.44486 1.237348,-1.287012 1.183094,1.175766 0.799957,-3.238868 4.835419,-5.027268 0.487616,-0.490181 0.179805,0.04874 -0.04932,-0.180654 5.474981,-5.512752 z m -0.976479,-0.26261 -1.717034,0.444398 1.072752,-1.078951 z M 33.791105,60.555236 33.22594,59.993451 34.173535,59.010477 Z m -1.898436,0.102877 -0.47777,-1.758284 1.1095,1.102968 z m 0.977797,-1.016284 -1.717694,-1.704572 -1.744788,-6.423603 3.133134,-0.862297 3.459335,0.960342 -1.587762,6.42657 z m 2.233001,-2.321347 1.378328,-5.576059 3.153649,0.875 -0.29256,0.295766 z m 13.082335,-13.311777 -0.638703,0.642924 -1.085834,-1.06857 z m -0.988951,0.997009 -1.664755,1.674664 -6.403361,1.657669 -0.90593,-3.283435 0.870096,-3.293112 6.419657,1.586418 z m -2.352905,2.367577 -4.681054,4.715683 -0.90172,-3.271029 z m -5.194744,4.72953 -3.047135,-0.843815 0.249993,-1.010938 0.224633,-0.849212 0.846714,-0.233874 0.853687,-0.221483 z m -9.204617,5.131178 -4.735123,-4.700284 3.217251,-0.886235 z m 14.372313,-14.571453 -5.596797,-1.382359 0.866035,-3.277898 z m -8.696173,8.463736 -2.643253,-0.732766 3.040732,-0.838317 -0.150188,0.571209 z m 2.523933,-2.66268 -0.849552,0.220079 -0.5723,0.15642 0.746972,-2.824254 z m -1.97622,0.528676 -4.130149,1.139805 -3.243546,-0.897989 -0.543541,-0.142052 -0.147967,-0.541962 -0.992384,-3.434884 0.956252,-3.449644 0.142053,-0.543542 0.541962,-0.147968 3.233567,-0.93328 4.136785,1.091997 1.084853,3.930192 z m 1.290911,-4.890562 -0.776346,-2.820096 0.571208,0.150188 0.85605,0.212167 z m -6.358788,6.289597 -2.323641,0.641056 -0.376302,-1.385944 0.264164,0.069 z m 7.136885,-9.231413 -0.858813,-0.212151 -0.849212,-0.224633 -0.233874,-0.846714 -0.259606,-1.00678 3.039133,-0.878359 z m -9.941797,10.006295 -3.098646,0.855204 0.828932,-2.99043 1.818704,0.47209 z m -3.613874,0.840058 -0.295766,-0.292561 -4.428898,-4.262767 5.584751,1.452859 z m 14.37115,-14.531396 -3.143927,0.909313 -1.439009,-5.560707 4.287185,4.361596 z m -11.359091,11.472446 -1.533801,-0.399064 0.696178,-2.514612 0.765753,2.650279 z m 8.275443,-8.371673 -3.051076,-0.806504 2.636499,-0.760154 0.256784,0.995747 z m -10.294692,7.846812 -6.453298,-1.677387 -1.64244,-1.580684 1.623744,-1.597098 6.434636,-1.74761 0.95435,3.298363 z m 9.753173,-9.898921 -3.451427,0.997998 -3.136821,-0.828135 1.676043,-6.446386 1.694883,-1.721784 1.559607,1.586658 z m -8.582929,5.674701 -0.723554,-2.509639 1.533498,-0.417157 -0.07038,0.26279 z m 4.199359,-4.406456 -2.426897,0.701006 -0.264769,0.07326 0.361177,-1.389962 z m -3.248811,0.923697 -1.813452,0.49188 -0.86147,-2.981219 3.107781,0.821387 z m 0.558671,-2.150638 -3.223955,-0.851138 4.682232,-4.752978 z m -2.854782,2.77497 -5.568588,1.513631 4.382184,-4.310775 0.29256,-0.295767 z m 8.022445,-10.193331 -0.961028,-0.975336 0.560383,-0.5693 z m -15.292073,15.340207 -1.578054,-0.409872 0.570102,-0.559685 z m 12.537538,-15.205044 0.457223,-1.759235 0.636071,0.648407 z m -12.550597,12.554807 -0.997327,0.980482 -0.576167,-0.55344 z m 38.079095,-12.438605 -1.718869,0.474673 -0.467654,-1.722817 -2.42242,2.520187 -7.490112,2.064951 -0.133228,-0.131599 -0.04521,0.182479 -0.666347,0.18447 -6.74904,1.746621 -3.219112,-0.892524 0.444758,1.609611 -1.728491,0.446931 2.542882,2.505307 2.079728,7.536691 -0.131599,0.133228 0.180597,0.04573 0.184468,0.666347 1.760727,6.807954 -0.870009,3.293947 1.602569,-0.463079 0.417353,1.613062 2.388083,-2.42371 6.75723,-1.953389 0.667378,-0.180701 0.131344,0.132114 0.0471,-0.182995 7.546828,-2.050104 3.451243,0.911992 -0.495911,-1.715081 1.60979,-0.436706 -2.404963,-2.312217 -1.936033,-6.70123 -0.180701,-0.667378 0.132115,-0.131345 -0.181112,-0.04761 -2.036693,-7.497848 z m -0.715666,0.714351 -0.473657,1.709194 -0.398023,-1.468506 z m 5.409477,19.757205 -0.769103,0.208554 -0.377483,-1.312128 z m -0.860124,1.695532 -1.761604,-0.465381 1.509949,-0.409371 z m -0.39123,-1.354939 -2.335049,0.635281 -6.435397,-1.700771 0.819795,-3.144522 2.561349,-2.515701 4.771691,4.588327 z m -0.893845,-3.094509 -4.139844,-3.981697 2.334596,-2.29364 0.109861,0.401248 z m -4.987169,-17.985523 0.237437,0.874595 -1.468326,0.406075 z m 0.36896,1.354961 0.617924,2.279052 -1.766097,6.374308 -3.296503,-0.857159 -2.416871,-2.400081 4.583707,-4.766377 z m 0.873929,3.221464 1.743374,6.411754 -3.283654,-0.854603 z m 1.498521,6.863545 -2.254333,2.216989 -0.750501,-0.721969 -0.623123,-0.619144 0.220816,-0.850213 0.235034,-0.850056 z m -0.158578,10.537022 -6.438127,1.750594 0.841124,-3.229338 z m -5.433092,-19.732515 -3.995556,4.155789 -2.405726,-2.388958 z m 2.981724,11.762975 -1.956221,1.922741 0.794363,-3.05251 0.419587,0.415672 z m -1.043982,-3.51713 -0.234182,0.845773 -0.150687,0.573836 -2.072389,-2.059024 z m -0.530263,1.975794 -1.077975,4.146717 -2.399454,2.359998 -0.394791,0.399695 -0.543336,-0.142838 -3.470889,-0.858012 -2.509354,-2.552961 -0.399694,-0.394792 0.142837,-0.543337 0.808539,-3.266991 3.01409,-3.036563 3.946072,1.025586 z M 49.32444,40.03282 46.493992,39.295107 46.909663,38.87552 47.52143,38.240243 Z m 2.267557,8.65167 -0.60665,2.33286 -1.388413,-0.367085 0.191834,-0.194274 z m -4.426195,-10.79643 -0.613135,0.637678 -0.619144,0.623123 -0.850213,-0.220816 -1.0017,-0.278565 0.758885,-3.071146 z m 3.694806,13.612996 -0.808694,3.111108 -2.175322,-2.213091 1.318194,-1.338999 z m -1.079425,3.549736 -0.401248,0.10986 -5.906113,1.704155 L 47.52441,52.7547 Z M 44.3822,35.339313 43.597725,38.51669 38.062507,36.982555 43.983352,35.450542 Z m 4.255884,15.573484 -1.1125,1.128779 -1.829629,-1.860214 2.678086,0.661978 z m -3.11236,-11.35258 -2.223991,2.239057 0.659937,-2.663352 0.990734,0.275492 z m 1.648193,12.83887 -4.679309,4.750027 -2.190132,0.632053 -0.571256,-2.204753 1.703843,-6.446363 3.333641,0.82269 z m -3.696131,-13.395955 -0.861422,3.488022 -2.285596,2.302499 -4.744713,-4.674689 -0.643667,-2.328703 2.15389,-0.557331 z m 0.622971,10.270385 -2.535188,-0.628204 0.40548,-1.536626 0.192391,0.19235 z m -1.716423,-5.83998 -0.60636,2.452257 -0.06894,0.265927 -1.023154,-1.00777 z m -0.824461,3.275402 -0.480745,1.816435 -3.012547,-0.744555 2.265233,-2.280724 z m -1.583171,-1.559143 -2.349085,2.366458 -1.775084,-6.431421 z m 0.975803,3.859799 -1.473451,5.579354 -1.542149,-5.95047 -0.109861,-0.401248 z m -4.816461,-12.044307 -1.32518,0.344607 -0.212836,-0.769956 z m 5.638972,20.913427 -1.143986,1.161699 -0.19965,-0.773565 z M 34.875831,39.418367 33.5809,38.142783 34.460473,37.916132 Z m 4.597483,17.146539 0.350459,1.353952 -0.767376,0.222255 z"
       transform="matrix(1.8221011,-0.47760503,0.47760503,1.8221011,-28.490015,20.443758)"
       inkscape:path-effect="#path-effect2"
       inkscape:original-d="m 47.740714,17.36814 -0.448356,1.725921 -1.72583,-0.456408 0.971336,3.35797 -1.956756,7.519103 -0.180582,0.04958 0.135425,0.130395 -0.173418,0.669308 -1.861902,6.718151 -2.382504,2.34157 1.616343,0.419634 -0.477192,1.720383 3.4411,-0.949547 7.56683,1.967248 0.04958,0.180582 0.1299,-0.133537 0.669307,0.173419 6.776225,1.879143 2.417637,2.400423 0.400246,-1.619405 1.60563,0.445093 -0.904953,-3.279996 1.68693,-6.828627 0.177197,-0.668317 0.180087,-0.04769 -0.134931,-0.132284 1.997972,-7.560797 2.51543,-2.532868 -1.733259,-0.428069 0.426696,-1.612472 -3.20492,0.926651 -6.771452,-1.673962 -0.668317,-0.177197 -0.04769,-0.180087 -0.13179,0.133041 -7.511674,-1.985096 z m 0.260813,0.976961 1.243377,1.264796 -1.470775,-0.389555 z m 19.81498,5.193858 -0.203938,0.770339 -1.325078,-0.329154 z m 1.038312,1.592655 -1.283834,1.292903 0.400449,-1.512339 z m -1.369027,-0.338655 -0.617355,2.339853 -4.690609,4.722832 -2.313339,-2.282225 -0.897986,-3.476043 6.359453,-1.838243 z m -3.126846,-0.773162 -5.518172,1.594362 -0.819053,-3.16864 0.402421,0.105482 z m -18.069504,-4.673746 0.87614,0.231671 -0.382492,1.474645 z m 1.357911,0.357952 2.282679,0.604388 4.637264,4.716639 -2.390573,2.426276 -3.286967,0.893031 -1.83595,-6.352795 z m 3.226834,0.853887 6.424428,1.696071 -2.381934,2.416426 z m 6.693265,2.134015 0.792802,3.060804 -1.000494,0.288969 -0.847756,0.230068 -0.625898,-0.616339 -0.618653,-0.628573 z m 9.046039,5.405844 -1.703004,6.450878 -2.376127,-2.343103 z m -19.805405,-5.161062 1.601241,5.538148 -3.271761,0.88894 z m 11.677897,3.299239 0.687032,2.655507 -2.246369,-2.214193 0.569775,-0.155537 z m -3.567915,-0.85445 0.61537,0.625694 0.421613,0.417416 -2.819361,0.76523 z m 1.445957,1.447118 3.052174,3.006912 0.844092,3.257987 0.14875,0.541747 -0.395369,0.399124 -2.478505,2.576872 -3.465606,0.896683 -0.541747,0.14875 -0.399125,-0.395369 -2.425028,-2.333711 -1.122695,-4.12856 2.861219,-2.904606 z m -4.880807,1.32732 -2.054102,2.082383 -0.155537,-0.569775 -0.244283,-0.847444 z m 8.626345,2.362073 1.716991,1.691804 -1.012111,1.018859 -0.07233,-0.26327 z m -11.56308,-1.565017 0.245678,0.849829 0.230068,0.847756 -0.616339,0.625898 -0.742094,0.728215 -2.280248,-2.192787 z m 13.636603,3.606701 2.289952,2.255904 -3.004254,0.777339 -0.50051,-1.811089 z m 2.534449,2.709678 -0.105482,0.402421 -1.477215,5.966922 -1.534163,-5.562966 z m -19.770133,-5.180083 2.359452,2.268064 -4.096209,4.026572 1.63366,-5.893609 z m 15.614975,4.101038 0.421301,1.527843 -2.525807,0.654398 1.912333,-1.988301 z m -11.387803,-2.980907 0.827085,3.045561 -1.976562,-1.903198 0.73395,-0.720255 z m 11.942885,4.992058 1.773989,6.427414 -0.547692,2.212737 -2.195,-0.607655 -4.730793,-4.698753 2.379291,-2.475673 z m -13.449304,-3.497034 2.590005,2.490024 0.851225,3.130634 -6.420756,1.771697 -2.33855,-0.606919 0.594283,-2.143989 z m 9.2059,4.595684 -1.811634,1.881435 -1.128018,-1.119469 0.262776,-0.07044 z m -5.915782,-1.433524 1.820537,1.751251 0.195829,0.192668 -1.384331,0.382192 z m 2.42435,2.351705 1.332707,1.324555 -2.151077,2.236664 -0.842548,-3.102111 z m -2.141842,0.591495 0.87487,3.217596 -6.457316,-1.678443 z m 3.830585,1.084829 4.095137,4.065723 -5.924333,-1.639695 -0.402421,-0.105481 z M 42.23246,38.043634 41.868308,39.363577 41.095089,39.162921 Z m 20.931045,5.57322 0.434068,1.571571 -0.769752,-0.21388 z M 43.726782,40.36155 41.974628,40.845201 42.21813,39.970143 Z m 17.14808,4.591732 1.347786,0.37347 -0.191209,0.775695 z"
       style="fill:#0000ff" />
  </g>
</svg>
