<?xml version="1.0" encoding="UTF-8" standalone="no"?>
<!-- Created with Inkscape (http://www.inkscape.org/) -->

<svg
   width="120"
   height="120"
   viewBox="0 0 120 120"
   version="1.1"
   id="svg1"
   inkscape:version="1.4 (86a8ad7, 2024-10-11)"
   sodipodi:docname="mand_18.svg"
   xmlns:inkscape="http://www.inkscape.org/namespaces/inkscape"
   xmlns:sodipodi="http://sodipodi.sourceforge.net/DTD/sodipodi-0.dtd"
   xmlns="http://www.w3.org/2000/svg"
   xmlns:svg="http://www.w3.org/2000/svg">
  <sodipodi:namedview
     id="namedview1"
     pagecolor="#ffffff"
     bordercolor="#000000"
     borderopacity="0.25"
     inkscape:showpageshadow="2"
     inkscape:pageopacity="0.0"
     inkscape:pagecheckerboard="0"
     inkscape:deskcolor="#d1d1d1"
     inkscape:document-units="px"
     inkscape:zoom="4.8625"
     inkscape:cx="59.948586"
     inkscape:cy="59.948586"
     inkscape:window-width="3440"
     inkscape:window-height="1369"
     inkscape:window-x="-8"
     inkscape:window-y="-8"
     inkscape:window-maximized="1"
     inkscape:current-layer="layer1" />
  <defs
     id="defs1">
    <inkscape:path-effect
       effect="copy_rotate"
       starting_point="0,0"
       origin="39.935162,23.620908"
       id="path-effect1"
       is_visible="true"
       lpeversion="1.2"
       lpesatellites=""
       method="normal"
       num_copies="6"
       starting_angle="0"
       rotation_angle="60"
       gap="-0.01"
       copies_to_360="true"
       mirror_copies="false"
       split_items="false"
       link_styles="false" />
  </defs>
  <g
     inkscape:label="Layer 1"
     inkscape:groupmode="layer"
     id="layer1">
    <path
       sodipodi:type="spiral"
       style="fill:none;fill-rule:evenodd;stroke:#0000ff"
       id="path1"
       sodipodi:cx="57.583546"
       sodipodi:cy="24.884319"
       sodipodi:expansion="2.4000001"
       sodipodi:revolution="9.3999996"
       sodipodi:radius="21.039274"
       sodipodi:argument="-18.064157"
       sodipodi:t0="0"
       d="m 57.583546,24.884319 c 9.9e-4,9.91e-4 -0.0021,0.0024 -0.0025,0.0025 -0.0081,0.0017 -0.01133,-0.0097 -0.01055,-0.01548 0.0029,-0.0216 0.03016,-0.02706 0.04746,-0.02143 0.04217,0.01371 0.05034,0.06721 0.03426,0.103156 -0.03159,0.07063 -0.123534,0.08194 -0.186088,0.04867 -0.10777,-0.05732 -0.12256,-0.201352 -0.06444,-0.299194 0.09163,-0.154238 0.302579,-0.172797 0.445023,-0.08139 0.210631,0.135156 0.233213,0.428913 0.09944,0.625853 -0.188491,0.277485 -0.581899,0.304321 -0.843757,0.118468 -0.355302,-0.252173 -0.386602,-0.76295 -0.138421,-1.100647 0.326705,-0.444542 0.973385,-0.480504 1.398301,-0.159232 0.545647,0.412554 0.586454,1.214434 0.180854,1.738388 -0.510163,0.659029 -1.487261,0.704855 -2.122486,0.203242 -0.785082,-0.619949 -0.836092,-1.792965 -0.226359,-2.552088 0.74231,-0.924182 2.132597,-0.980533 3.02862,-0.250172 1.07669,0.877625 1.138534,2.507155 0.274651,3.553445 -1.026258,1.242951 -2.9176,1.310432 -4.127868,0.299771 -1.4233,-1.188558 -1.496557,-3.364856 -0.325508,-4.753149 1.364862,-1.61806 3.849812,-1.697227 5.430499,-0.35184 1.82754,1.555494 1.912748,4.373325 0.378747,6.161089 -1.760768,2.052045 -4.936226,2.143418 -6.946052,0.406213 -2.291866,-1.98099 -2.389527,-5.539324 -0.43422,-7.786489 2.216452,-2.54729 6.183396,-2.651357 8.683467,-0.462754 2.818593,2.467444 2.929182,6.869205 0.491799,9.638024 -2.734243,3.106046 -7.59749,3.223268 -10.651171,0.521343 -3.409911,-3.017123 -3.533877,-8.368972 -0.551373,-11.723892 3.316347,-3.730449 9.184354,-3.861264 12.85715,-0.581879 4.067909,3.632175 4.205678,10.044322 0.612848,14.051884 -3.96486,4.422536 -10.949549,4.567363 -15.30901,0.644271 -4.794575,-4.31465 -4.946557,-11.90069 -0.676139,-16.629429 4.681787,-5.184258 12.898389,-5.343495 18.014019,-0.708442 5.591818,5.066508 5.758405,13.943276 0.74117,19.463641 -5.469045,6.017483 -15.035966,6.191514 -20.97914,0.774318 -6.461474,-5.889626 -6.643042,-16.177067 -0.807876,-22.561346 6.328476,-6.9240113 17.367173,-7.113206 24.211072,-0.841837 7.405309,6.785815 7.60222,18.606868 0.876194,25.929117 -7.261857,7.905579 -19.896724,8.110294 -27.716267,0.910941 -4.827765,-4.444862 -7.227738,-11.09939 -6.466641,-17.604827 M 49.8535,8.968665 c 0.0014,-3.624e-4 0.001,0.00298 9.03e-4,0.00337 -0.0026,0.00783 -0.01404,0.00498 -0.01868,0.0014 -0.01726,-0.013304 -0.0084,-0.039645 0.0052,-0.051821 0.03296,-0.029663 0.08337,-0.00999 0.106465,0.021907 0.04538,0.062674 0.0092,0.1479549 -0.05089,0.1854926 -0.103527,0.064671 -0.235656,0.00546 -0.291327,-0.093795 -0.08776,-0.156472 0.0016,-0.3484394 0.152022,-0.4260983 0.222364,-0.1148334 0.488057,0.012489 0.591723,0.2268128 0.146064,0.3019807 -0.0274,0.6560995 -0.319283,0.7899493 -0.396039,0.1816134 -0.854034,-0.046668 -1.022398,-0.4304475 -0.221633,-0.5052064 0.07056,-1.0832278 0.561251,-1.29058 0.630106,-0.2662673 1.344958,0.099333 1.595915,0.7125697 0.315655,0.7713289 -0.133208,1.6404334 -0.885229,1.9397474 -0.929433,0.369926 -1.9708,-0.172406 -2.323353,-1.0800113 -0.42921,-1.1049501 0.217131,-2.3371494 1.297655,-2.7479478 1.29839,-0.4936278 2.740526,0.2675784 3.214699,1.5388676 0.563298,1.5102409 -0.323933,3.1819315 -1.804325,3.7247245 -1.740972,0.638335 -3.66233,-0.386372 -4.279102,-2.094677 -0.718849,-1.9910349 0.455064,-4.1826478 2.410548,-4.8788695 2.260867,-0.8049493 4.743784,0.5301741 5.525032,2.7525395 0.896739,2.550893 -0.611859,5.346607 -3.121235,6.218564 -2.86152,0.99432 -5.991958,-0.70027 -6.960407,-3.517199 C 43.140858,7.2800092 45.034205,3.7925014 48.179627,2.7216786 51.725792,1.5144273 55.593124,3.6195355 56.7723,7.1147803 58.095093,11.035727 55.764986,15.306033 51.89821,16.599636 47.58035,18.044145 42.88353,15.475577 41.469335,11.215193 39.896845,6.4779281 42.717559,1.3306774 47.393989,-0.21036515 52.573499,-1.9171897 58.195466,1.169572 59.869701,6.2848349 61.7173,11.929773 58.350379,18.051104 52.773151,19.864963 46.639267,21.859861 39.993573,18.198461 38.033574,12.135801 35.884768,5.4891262 39.855166,-1.7062788 46.427055,-3.8190172 53.610688,-6.1284201 61.381488,-1.8343044 63.653647,5.2709308 66.130418,13.016004 61.497672,21.388217 53.834656,23.826558 45.503353,26.477546 36.503384,21.491067 33.89202,13.245526 31.059888,4.302899 36.415389,-5.3514902 45.268503,-8.1427956 54.847846,-11.163074 65.183633,-5.4230775 68.161874,4.0629563 71.377378,14.304699 65.237233,25.349172 55.092639,28.521418 48.829393,30.479955 41.866416,29.231128 36.613091,25.31928 M 32.205116,7.7052537 c 3.63e-4,-0.00135 0.0031,5.95e-4 0.0034,9.028e-4 0.0055,0.00614 -0.0027,0.014647 -0.0081,0.01688 -0.02015,0.0083 -0.03851,-0.012589 -0.04229,-0.030391 -0.0092,-0.043373 0.03304,-0.077197 0.07221,-0.081249 0.07697,-0.00796 0.132732,0.066012 0.135195,0.1368212 0.0042,0.1219927 -0.113097,0.2068159 -0.226892,0.2053989 -0.179389,-0.00223 -0.300936,-0.1756426 -0.293001,-0.344704 0.01173,-0.2499894 0.254844,-0.416425 0.492287,-0.3990402 0.334555,0.024495 0.554499,0.3517783 0.524475,0.671481 -0.04074,0.4337869 -0.467434,0.7162819 -0.883978,0.670199 -0.548338,-0.060664 -0.902821,-0.6027235 -0.83705,-1.1313473 0.08446,-0.6788219 0.758504,-1.1151012 1.415062,-1.0258184 0.825817,0.1122997 1.354052,0.9355781 1.237255,1.7365053 -0.144351,0.9898754 -1.134707,1.6205597 -2.096993,1.4720766 -1.17152,-0.1807684 -1.915466,-1.3566158 -1.730965,-2.4977762 0.221701,-1.3712528 1.601992,-2.2395763 2.940047,-2.0145771 1.589557,0.2672901 2.593668,1.8715001 2.323544,3.4249537 -0.317672,1.826893 -2.165772,2.978485 -3.953594,2.658472 C 29.191945,10.801066 27.880909,8.6886203 28.255705,6.6470111 28.689033,4.2865678 31.086742,2.8038607 33.401991,3.2384623 36.059498,3.73731 37.726359,6.441651 37.226808,9.0508133 36.657154,12.026123 33.624377,13.889866 30.70062,13.320103 27.386376,12.674244 25.31278,9.2908038 25.958131,6.0313772 26.685703,2.3566823 30.442446,0.06002911 34.059005,0.78645534 38.116041,1.6013563 40.649182,5.7544406 39.836086,9.7499681 38.928137,14.211599 34.355283,16.994881 29.958584,16.089417 25.069748,15.082601 22.022455,10.066166 23.026088,5.2457377 c 1.111601,-5.33899932 6.595799,-8.664385 11.862864,-7.5566837 5.812459,1.2224014 9.430226,7.1989062 8.212461,12.935857 C 41.762103,16.934459 35.268391,20.8591 29.037974,19.525179 22.207381,18.062761 17.961177,11.026593 19.417436,4.2788014 21.009251,-3.097109 28.613465,-7.6797616 35.902858,-6.0948915 43.848674,-4.3673013 48.78285,3.8308806 47.063007,11.686418 45.193178,20.227032 36.374777,25.527995 27.928247,23.666732 18.767638,21.648116 13.084443,12.182922 15.093658,3.1202474 17.267692,-6.6858461 27.406568,-12.766902 37.110835,-10.603118 47.588196,-8.2669544 54.082918,2.572804 51.757867,12.944403 50.322386,19.347801 45.759382,24.753503 39.74496,27.347092 M 22.286778,22.357497 c -9.9e-4,-9.91e-4 0.0021,-0.0024 0.0025,-0.0025 0.0081,-0.0017 0.01133,0.0097 0.01055,0.01548 -0.0029,0.0216 -0.03016,0.02706 -0.04746,0.02143 -0.04217,-0.01371 -0.05034,-0.06721 -0.03426,-0.103156 0.03159,-0.07063 0.123534,-0.08194 0.186088,-0.04867 0.10777,0.05732 0.12256,0.201352 0.06443,0.299194 -0.09163,0.154238 -0.302579,0.172797 -0.445023,0.08139 -0.210631,-0.135156 -0.233213,-0.428913 -0.09944,-0.625853 0.188491,-0.277485 0.581899,-0.304321 0.843757,-0.118468 0.355302,0.252173 0.386602,0.76295 0.138421,1.100647 -0.326705,0.444542 -0.973385,0.480504 -1.398301,0.159232 -0.545647,-0.412554 -0.586454,-1.214434 -0.180854,-1.738388 0.510163,-0.659029 1.487261,-0.704855 2.122486,-0.203242 0.785082,0.619949 0.836092,1.792965 0.226359,2.552088 -0.74231,0.924182 -2.132597,0.980533 -3.02862,0.250172 -1.07669,-0.877625 -1.138534,-2.507155 -0.274651,-3.553445 1.026258,-1.242951 2.9176,-1.310432 4.127868,-0.299771 1.4233,1.188558 1.496557,3.364856 0.325508,4.753149 -1.364862,1.61806 -3.849812,1.697227 -5.430499,0.35184 -1.82754,-1.555494 -1.912748,-4.373325 -0.378747,-6.161089 1.760768,-2.052045 4.936226,-2.143418 6.946052,-0.406213 2.291866,1.98099 2.389527,5.539324 0.43422,7.786489 -2.216452,2.54729 -6.183396,2.651357 -8.683467,0.462754 -2.818593,-2.467444 -2.929182,-6.869205 -0.491799,-9.638024 2.734243,-3.106046 7.59749,-3.223268 10.651171,-0.521343 3.409911,3.017123 3.533877,8.368972 0.551373,11.723892 -3.316347,3.730449 -9.184354,3.861264 -12.85715,0.581879 -4.067909,-3.632175 -4.205678,-10.044322 -0.612848,-14.051884 3.96486,-4.422536 10.949549,-4.567363 15.30901,-0.644271 4.794575,4.31465 4.946557,11.90069 0.676139,16.629429 -4.681787,5.184258 -12.898389,5.343495 -18.014019,0.708442 -5.5918179,-5.066508 -5.7584047,-13.943276 -0.74117,-19.463641 5.469045,-6.0174831 15.035966,-6.1915141 20.97914,-0.774318 6.461474,5.889626 6.643042,16.177067 0.807876,22.561346 C 27.642913,40.966125 16.604216,41.15532 9.7603173,34.883951 2.3550079,28.098136 2.1580971,16.277083 8.8841229,8.954834 16.14598,1.0492548 28.780847,0.84454019 36.60039,8.043893 c 4.827765,4.444862 7.227738,11.09939 6.466641,17.604827 M 30.016824,38.273151 c -0.0014,3.62e-4 -0.001,-0.003 -9.03e-4,-0.0034 0.0026,-0.0078 0.01404,-0.005 0.01869,-0.0014 0.01726,0.0133 0.0084,0.03965 -0.0052,0.05182 -0.03296,0.02966 -0.08337,0.01 -0.106465,-0.02191 -0.04538,-0.06267 -0.0092,-0.147955 0.05089,-0.185493 0.103527,-0.06467 0.235656,-0.0055 0.291327,0.0938 0.08776,0.156472 -0.0016,0.34844 -0.152022,0.426099 -0.222364,0.114833 -0.488057,-0.01249 -0.591723,-0.226813 -0.146064,-0.301981 0.0274,-0.6561 0.319283,-0.789949 0.396039,-0.181614 0.854034,0.04667 1.022398,0.430447 0.221633,0.505207 -0.07056,1.083228 -0.561251,1.29058 -0.630106,0.266267 -1.344958,-0.09933 -1.595915,-0.71257 -0.315655,-0.771329 0.133208,-1.640433 0.885229,-1.939747 0.929433,-0.369926 1.9708,0.172406 2.323353,1.080011 0.42921,1.10495 -0.217131,2.33715 -1.297655,2.747948 -1.29839,0.493628 -2.740526,-0.267578 -3.214699,-1.538867 -0.563298,-1.510241 0.323933,-3.181932 1.804325,-3.724725 1.740972,-0.638335 3.66233,0.386372 4.279102,2.094677 0.718849,1.991035 -0.455064,4.182648 -2.410548,4.87887 -2.260867,0.804949 -4.743784,-0.530175 -5.525032,-2.75254 -0.896739,-2.550893 0.611859,-5.346607 3.121235,-6.218564 2.86152,-0.99432 5.991958,0.70027 6.960407,3.517199 1.097792,3.193149 -0.795555,6.680657 -3.940977,7.751479 -3.546165,1.207252 -7.413497,-0.897857 -8.592673,-4.393101 -1.322793,-3.920947 1.007314,-8.191253 4.87409,-9.484856 4.31786,-1.444509 9.01468,1.124059 10.428875,5.384443 1.57249,4.737265 -1.248224,9.884516 -5.924654,11.425558 -5.17951,1.706825 -10.801477,-1.379937 -12.475712,-6.4952 -1.847599,-5.644938 1.519322,-11.766269 7.09655,-13.580128 6.133884,-1.994898 12.779578,1.666502 14.739577,7.729162 2.148806,6.646675 -1.821592,13.84208 -8.393481,15.954818 C 26.259636,53.370236 18.488836,49.07612 16.216677,41.970885 13.739906,34.225812 18.372652,25.853599 26.035668,23.415258 34.366971,20.76427 43.36694,25.750749 45.978304,33.99629 48.810436,42.938917 43.454935,52.593306 34.601821,55.384612 25.022478,58.40489 14.686691,52.664894 11.70845,43.17886 8.492946,32.937117 14.633091,21.892644 24.777685,18.720398 c 6.263246,-1.958537 13.226223,-0.70971 18.479548,3.202138 m 4.407975,17.614026 c -3.63e-4,0.0014 -0.0031,-5.95e-4 -0.0034,-9.03e-4 -0.0055,-0.0061 0.0027,-0.01465 0.0081,-0.01688 0.02015,-0.0083 0.03851,0.01259 0.04229,0.03039 0.0092,0.04337 -0.03304,0.0772 -0.0722,0.08125 -0.07697,0.008 -0.132732,-0.06601 -0.135195,-0.136821 -0.0042,-0.121992 0.113097,-0.206816 0.226892,-0.205399 0.179389,0.0022 0.300936,0.175643 0.293001,0.344704 -0.01173,0.24999 -0.254844,0.416425 -0.492287,0.399041 -0.334555,-0.0245 -0.554499,-0.351779 -0.524475,-0.671481 0.04074,-0.433787 0.467434,-0.716282 0.883978,-0.670199 0.548338,0.06066 0.902821,0.602723 0.83705,1.131347 -0.08446,0.678822 -0.758504,1.115101 -1.415062,1.025818 -0.825817,-0.112299 -1.354052,-0.935578 -1.237255,-1.736505 0.144351,-0.989875 1.134707,-1.62056 2.096993,-1.472077 1.17152,0.180769 1.915466,1.356616 1.730965,2.497777 -0.221701,1.371252 -1.601992,2.239576 -2.940047,2.014577 -1.589557,-0.26729 -2.593668,-1.8715 -2.323544,-3.424954 0.317672,-1.826893 2.165772,-2.978485 3.953594,-2.658472 2.083712,0.372975 3.394748,2.485421 3.019952,4.52703 -0.433328,2.360443 -2.831037,3.84315 -5.146286,3.408549 -2.657507,-0.498848 -4.324368,-3.203189 -3.824817,-5.812351 0.569654,-2.97531 3.602431,-4.839053 6.526188,-4.26929 3.314244,0.645859 5.38784,4.029299 4.742489,7.288726 -0.727572,3.674695 -4.484315,5.971348 -8.100874,5.244922 -4.057036,-0.814901 -6.590177,-4.967986 -5.777081,-8.963513 0.907949,-4.461631 5.480803,-7.244913 9.877502,-6.339449 4.888836,1.006816 7.936129,6.023251 6.932496,10.843679 -1.111601,5.339 -6.595799,8.664385 -11.862864,7.556684 -5.812459,-1.222401 -9.430226,-7.198906 -8.212461,-12.935857 1.33931,-6.309548 7.833022,-10.234189 14.063439,-8.900268 6.830593,1.462418 11.076797,8.498586 9.620538,15.246378 -1.591815,7.37591 -9.196029,11.958563 -16.485422,10.373692 C 36.02165,51.609117 31.087474,43.410935 32.807317,35.555398 34.677146,27.014784 43.495547,21.713821 51.942077,23.575084 61.102686,25.5937 66.785881,35.058894 64.776666,44.121569 62.602632,53.927662 52.463756,60.008718 42.759489,57.844934 32.282128,55.50877 25.787406,44.669012 28.112457,34.297413 c 1.435481,-6.403398 5.998485,-11.8091 12.012907,-14.402689"
       inkscape:path-effect="#path-effect1"
       transform="matrix(1.497162,0,0,1.497162,0.21059299,24.635674)" />
  </g>
</svg>
