<?xml version="1.0" encoding="UTF-8" standalone="no"?>
<!-- Created with Inkscape (http://www.inkscape.org/) -->

<svg
   width="120"
   height="120"
   viewBox="0 0 120 120"
   version="1.1"
   id="svg1"
   inkscape:version="1.4 (86a8ad7, 2024-10-11)"
   sodipodi:docname="mand_30.svg"
   xmlns:inkscape="http://www.inkscape.org/namespaces/inkscape"
   xmlns:sodipodi="http://sodipodi.sourceforge.net/DTD/sodipodi-0.dtd"
   xmlns="http://www.w3.org/2000/svg"
   xmlns:svg="http://www.w3.org/2000/svg">
  <sodipodi:namedview
     id="namedview1"
     pagecolor="#ffffff"
     bordercolor="#000000"
     borderopacity="0.25"
     inkscape:showpageshadow="2"
     inkscape:pageopacity="0.0"
     inkscape:pagecheckerboard="0"
     inkscape:deskcolor="#d1d1d1"
     inkscape:document-units="px"
     inkscape:zoom="9.725"
     inkscape:cx="60"
     inkscape:cy="60"
     inkscape:window-width="3440"
     inkscape:window-height="1369"
     inkscape:window-x="-8"
     inkscape:window-y="-8"
     inkscape:window-maximized="1"
     inkscape:current-layer="layer1" />
  <defs
     id="defs1">
    <inkscape:path-effect
       effect="copy_rotate"
       starting_point="0,0"
       origin="48.541016,47.249023"
       id="path-effect2"
       is_visible="true"
       lpeversion="1.2"
       lpesatellites=""
       method="normal"
       num_copies="10"
       starting_angle="0"
       rotation_angle="36"
       gap="-0.01"
       copies_to_360="true"
       mirror_copies="false"
       split_items="false"
       link_styles="false" />
  </defs>
  <g
     inkscape:label="Layer 1"
     inkscape:groupmode="layer"
     id="layer1">
    <path
       id="path1"
       style="fill:#0000ff"
       d="m 60,35.789062 c -6.326616,0 -11.458984,5.134323 -11.458984,11.460938 0,6.326615 5.132368,11.458984 11.458984,11.458984 6.326616,0 11.458984,-5.132369 11.458984,-11.458984 0,-6.326615 -5.132368,-11.460937 -11.458984,-11.460938 z m 0,0.400391 c 0.0026,0 0.0052,-2e-6 0.0078,0 6.106818,0.0042 11.050782,4.952731 11.050782,11.060547 0,2.015953 -0.541193,3.904272 -1.482422,5.53125 L 64.847644,44.539062 60.0078,36.189453 55.160144,44.533203 50.41991,52.777344 C 49.479925,51.151324 48.939453,49.264202 48.939453,47.25 48.939453,41.139561 53.889561,36.189453 60,36.189453 Z M 50.490234,52.898438 60,52.925781 69.503906,52.908203 C 67.574954,56.143011 64.04222,58.308594 60,58.308594 c -4.046228,0 -7.581508,-2.17002 -9.509766,-5.410156 z m 0.585299,-21.65614 c -5.11834,3.718692 -6.252634,10.889176 -2.533943,16.007515 3.718691,5.118339 10.887595,6.253783 16.005935,2.535091 5.11834,-3.718691 6.253782,-10.887595 2.535091,-16.005934 -3.718691,-5.118339 -10.888743,-6.255363 -16.007083,-2.536672 z m 0.235344,0.323923 c 0.0021,-0.0015 0.0042,-0.0031 0.0063,-0.0046 4.942988,-3.586099 11.851413,-2.488643 15.441497,2.452684 1.184947,1.63094 1.857039,3.476728 2.051882,5.346221 l -8.670086,-3.888718 -8.823293,-3.910187 0.982497,9.599617 1.010855,9.455889 c -1.716215,-0.762968 -3.262688,-1.972 -4.446606,-3.601524 -3.591626,-4.943449 -2.496505,-11.857771 2.446944,-15.449397 z m 2.127732,19.107553 7.709634,-5.567579 7.67849,-5.600477 c 0.340817,3.750824 -1.244327,7.579307 -4.514551,9.955264 -3.273468,2.378313 -7.409075,2.700716 -10.873573,1.212792 z M 41.182966,32.809559 c -1.955032,6.016969 1.342011,12.484734 7.358979,14.439766 6.016969,1.955031 12.484131,-1.340151 14.439162,-7.357121 1.955032,-6.016969 -1.340152,-12.48413 -7.35712,-14.439162 -6.016969,-1.955031 -12.485988,1.339548 -14.441021,7.356517 z m 0.380795,0.123728 c 8.03e-4,-0.0025 0.0016,-0.0049 0.0024,-0.0074 1.891105,-5.806631 8.125207,-8.97944 13.934085,-7.092021 1.917285,0.622964 3.545945,1.721192 4.802438,3.119117 l -9.299979,1.95011 -9.436544,2.022794 6.43737,7.188756 6.375831,7.05581 c -1.836908,0.391511 -3.798683,0.322377 -5.714303,-0.300045 -5.811373,-1.88823 -8.989538,-8.12573 -7.101308,-13.937102 z m 12.952509,14.207685 2.964684,-9.035876 2.920151,-9.044183 c 2.480407,2.834153 3.448324,6.863184 2.199209,10.707564 -1.250353,3.848191 -4.406627,6.53987 -8.084044,7.372495 z M 34.100925,39.892204 c 1.955031,6.01697 8.424052,9.311549 14.44102,7.356517 6.016969,-1.955031 9.312153,-8.422193 7.357121,-14.439162 -1.955032,-6.016969 -8.422194,-9.312152 -14.439162,-7.357121 -6.016969,1.955032 -9.31401,8.422797 -7.358979,14.439766 z m 0.380794,-0.123727 c -8.03e-4,-0.0025 -0.0016,-0.0049 -0.0024,-0.0074 -1.883116,-5.809226 1.295447,-12.040396 7.104326,-13.927815 1.917285,-0.622964 3.880421,-0.691781 5.718625,-0.299383 l -6.377595,7.044062 -6.445356,7.183136 9.433386,2.032035 9.305457,1.96065 c -1.255966,1.396447 -2.883711,2.493619 -4.799331,3.116042 -5.811372,1.888229 -12.048872,-1.289935 -13.937102,-7.101308 z m 18.829868,3.880964 -2.912674,-9.052774 -2.953586,-9.03332 c 3.672564,0.834932 6.823831,3.52556 8.072945,7.369939 1.250353,3.848192 0.279003,7.881016 -2.206685,10.716155 z m -20.77708,6.135463 c 5.11834,3.718692 12.288392,2.581668 16.007083,-2.536671 3.718691,-5.118339 2.583249,-12.287243 -2.535091,-16.005935 -5.11834,-3.718692 -12.287243,-2.583248 -16.005934,2.535091 -3.718691,5.118339 -2.584397,12.288823 2.533942,16.007515 z m 0.235344,-0.323923 c -0.0021,-0.0015 -0.0042,-0.0031 -0.0063,-0.0046 -4.938051,-3.592896 -6.029128,-10.502331 -2.439044,-15.443658 1.184947,-1.63094 2.732708,-2.840517 4.450491,-3.603529 l -1.019186,9.447422 -0.992261,9.599765 8.826169,-3.900855 8.680714,-3.883411 c -0.195286,1.867987 -0.867258,3.712383 -2.051176,5.341906 -3.591626,4.943449 -10.505948,6.03857 -15.449397,2.446944 z m 17.514857,-7.928152 -7.67749,-5.611821 -7.699154,-5.572035 c 3.461928,-1.483205 7.592867,-1.15871 10.863092,1.217247 3.273467,2.378313 4.858063,6.211882 4.513552,9.966609 z M 37.082032,58.708984 c 6.326616,0 11.458984,-5.134323 11.458984,-11.460938 0,-6.326615 -5.132368,-11.458984 -11.458984,-11.458984 -6.326616,0 -11.458984,5.132369 -11.458984,11.458984 0,6.326615 5.132368,11.460937 11.458984,11.460938 z m 0,-0.400391 c -0.0026,0 -0.0052,2e-6 -0.0078,0 -6.106818,-0.0042 -11.050782,-4.952731 -11.050782,-11.060547 0,-2.015953 0.541193,-3.904272 1.482422,-5.53125 l 4.728516,8.242188 4.839844,8.349609 4.847656,-8.34375 4.740234,-8.244141 c 0.939985,1.62602 1.480457,3.513142 1.480457,5.527344 0,6.110439 -4.950108,11.060547 -11.060547,11.060547 z m 9.509766,-16.708985 -9.509766,-0.02734 -9.503906,0.01758 c 1.928952,-3.234808 5.461686,-5.400391 9.503906,-5.400391 4.046228,0 7.581508,2.17002 9.509766,5.410156 z m -0.585299,21.65614 c 5.11834,-3.718692 6.252634,-10.889176 2.533943,-16.007515 -3.718691,-5.118339 -10.887595,-6.253783 -16.005935,-2.535091 -5.11834,3.718691 -6.253782,10.887595 -2.535091,16.005934 3.718691,5.118339 10.888743,6.255363 16.007083,2.536672 z m -0.235344,-0.323923 c -0.0021,0.0015 -0.0042,0.0031 -0.0063,0.0046 -4.942988,3.586099 -11.851413,2.488643 -15.441497,-2.452684 -1.184947,-1.63094 -1.857039,-3.476728 -2.051882,-5.346221 l 8.670086,3.888718 8.823293,3.910187 -0.982497,-9.599617 -1.010855,-9.455889 c 1.716215,0.762968 3.262688,1.972 4.446606,3.601524 3.591626,4.943449 2.496505,11.857771 -2.446944,15.449397 z m -2.127732,-19.107553 -7.709634,5.567579 -7.67849,5.600477 c -0.340817,-3.750824 1.244327,-7.579307 4.514551,-9.955264 3.273468,-2.378313 7.409075,-2.700716 10.873573,-1.212792 z m 12.255643,17.864215 c 1.955032,-6.016969 -1.342011,-12.484734 -7.358979,-14.439766 -6.016969,-1.955031 -12.484131,1.340151 -14.439162,7.357121 -1.955032,6.016969 1.340152,12.48413 7.35712,14.439162 6.016969,1.955031 12.485988,-1.339548 14.441021,-7.356517 z m -0.380795,-0.123728 c -8.03e-4,0.0025 -0.0016,0.0049 -0.0024,0.0074 -1.891105,5.806631 -8.125207,8.97944 -13.934085,7.092021 -1.917285,-0.622964 -3.545945,-1.721192 -4.802438,-3.119117 l 9.299979,-1.95011 9.436544,-2.022794 -6.43737,-7.188756 -6.375831,-7.05581 c 1.836908,-0.391511 3.798683,-0.322377 5.714303,0.300045 5.811373,1.88823 8.989538,8.12573 7.101308,13.937102 z M 42.565762,47.357074 39.601078,56.39295 36.680927,65.437133 C 34.20052,62.60298 33.232603,58.573949 34.481718,54.729569 c 1.250353,-3.848191 4.406627,-6.53987 8.084044,-7.372495 z m 20.415345,7.248768 c -1.955031,-6.01697 -8.424052,-9.311549 -14.44102,-7.356517 -6.016969,1.955031 -9.312153,8.422193 -7.357121,14.439162 1.955032,6.016969 8.422194,9.312152 14.439162,7.357121 6.016969,-1.955032 9.31401,-8.422797 7.358979,-14.439766 z m -0.380794,0.123727 c 8.03e-4,0.0025 0.0016,0.0049 0.0024,0.0074 1.883116,5.809226 -1.295447,12.040396 -7.104326,13.927815 -1.917285,0.622964 -3.880421,0.691781 -5.718625,0.299383 l 6.377595,-7.044062 6.445356,-7.183136 -9.433386,-2.032035 -9.305457,-1.96065 c 1.255966,-1.396447 2.883711,-2.493619 4.799331,-3.116042 5.811372,-1.888229 12.048872,1.289935 13.937102,7.101308 z m -18.829868,-3.880964 2.912674,9.052774 2.953586,9.03332 C 45.964141,68.099767 42.812874,65.409139 41.56376,61.56476 40.313407,57.716568 41.284757,53.683744 43.770445,50.848605 Z m 20.77708,-6.135463 c -5.11834,-3.718692 -12.288392,-2.581668 -16.007083,2.536671 -3.718691,5.118339 -2.583249,12.287243 2.535091,16.005935 5.11834,3.718692 12.287243,2.583248 16.005934,-2.535091 3.718691,-5.118339 2.584397,-12.288823 -2.533942,-16.007515 z m -0.235344,0.323923 c 0.0021,0.0015 0.0042,0.0031 0.0063,0.0046 4.938051,3.592896 6.029128,10.502331 2.439044,15.443658 -1.184947,1.63094 -2.732708,2.840517 -4.450491,3.603529 l 1.019186,-9.447422 0.992261,-9.599765 -8.826169,3.900855 -8.680714,3.883411 c 0.195286,-1.867987 0.867258,-3.712383 2.051176,-5.341906 3.591626,-4.943449 10.505948,-6.03857 15.449397,-2.446944 z m -17.514857,7.928152 7.67749,5.611821 7.699154,5.572035 c -3.461928,1.483205 -7.592867,1.15871 -10.863092,-1.217247 -3.273467,-2.378313 -4.858063,-6.211882 -4.513552,-9.966609 z"
       inkscape:path-effect="#path-effect2"
       inkscape:original-d="m 60,35.789062 c -6.326616,0 -11.458984,5.134323 -11.458984,11.460938 0,6.326615 5.132368,11.458984 11.458984,11.458984 6.326616,0 11.458984,-5.132369 11.458984,-11.458984 0,-6.326615 -5.132368,-11.460937 -11.458984,-11.460938 z m 0,0.400391 c 0.0026,0 0.0052,-2e-6 0.0078,0 6.106818,0.0042 11.050782,4.952731 11.050782,11.060547 0,2.015953 -0.541193,3.904272 -1.482422,5.53125 L 64.847644,44.539062 60.0078,36.189453 55.160144,44.533203 50.41991,52.777344 C 49.479925,51.151324 48.939453,49.264202 48.939453,47.25 48.939453,41.139561 53.889561,36.189453 60,36.189453 Z M 50.490234,52.898438 60,52.925781 69.503906,52.908203 C 67.574954,56.143011 64.04222,58.308594 60,58.308594 c -4.046228,0 -7.581508,-2.17002 -9.509766,-5.410156 z"
       transform="matrix(2.4918527,0,0,2.4918527,-60.957062,-57.737606)" />
  </g>
</svg>
