<?xml version="1.0" encoding="UTF-8" standalone="no"?>
<!-- Created with Inkscape (http://www.inkscape.org/) -->

<svg
   width="120"
   height="120"
   viewBox="0 0 120 120"
   version="1.1"
   id="svg1"
   inkscape:version="1.4 (86a8ad7, 2024-10-11)"
   sodipodi:docname="mand_29.svg"
   xmlns:inkscape="http://www.inkscape.org/namespaces/inkscape"
   xmlns:sodipodi="http://sodipodi.sourceforge.net/DTD/sodipodi-0.dtd"
   xmlns="http://www.w3.org/2000/svg"
   xmlns:svg="http://www.w3.org/2000/svg">
  <sodipodi:namedview
     id="namedview1"
     pagecolor="#ffffff"
     bordercolor="#000000"
     borderopacity="0.25"
     inkscape:showpageshadow="2"
     inkscape:pageopacity="0.0"
     inkscape:pagecheckerboard="0"
     inkscape:deskcolor="#d1d1d1"
     inkscape:document-units="px"
     inkscape:zoom="9.725"
     inkscape:cx="60"
     inkscape:cy="44.575835"
     inkscape:window-width="3440"
     inkscape:window-height="1369"
     inkscape:window-x="-8"
     inkscape:window-y="-8"
     inkscape:window-maximized="1"
     inkscape:current-layer="layer1" />
  <defs
     id="defs1">
    <inkscape:path-effect
       effect="copy_rotate"
       starting_point="0,0"
       origin="44.515567,63.859043"
       id="path-effect64"
       is_visible="true"
       lpeversion="1.2"
       lpesatellites=""
       method="normal"
       num_copies="4"
       starting_angle="0"
       rotation_angle="90"
       gap="-0.01"
       copies_to_360="true"
       mirror_copies="false"
       split_items="false"
       link_styles="false" />
  </defs>
  <g
     inkscape:label="Layer 1"
     inkscape:groupmode="layer"
     id="layer1">
    <g
       id="g64"
       inkscape:path-effect="#path-effect64"
       transform="matrix(1.840051,0,0,1.840051,-21.910914,-57.503896)">
      <g
         id="g15"
         transform="rotate(45.499136,60,60)">
        <path
           style="fill:#0000ff"
           d="m 51.779297,51.779296 v 16.441407 l 16.441406,0 V 51.779296 Z m 0.400391,0.400391 H 67.820313 V 67.820312 H 52.179688 Z M 29.929375,73.868773 H 46.370782 V 57.427367 l -16.441407,0 z m 0.400391,-0.400391 0,-15.640625 15.640625,0 v 15.640625 z m 21.689086,22.250313 0,-16.441407 -16.441406,0 V 95.718695 Z M 51.618461,95.318304 H 35.977836 l 0,-15.640625 H 51.618461 Z M 73.868774,73.629218 H 57.427367 v 16.441406 l 16.441407,0 z m -0.400391,0.400391 0,15.640625 H 57.827758 l 0,-15.640625 z"
           id="rect1"
           inkscape:original-d="M 51.779297,51.779296 V 68.220703 H 68.220703 V 51.779296 Z m 0.400391,0.400391 H 67.820313 V 67.820312 H 52.179688 Z" />
        <path
           style="fill:#0000ff;stroke-width:0.88117"
           d="m 52.75616,52.75616 0,14.48768 h 14.48768 l 0,-14.48768 z m 0.352813,0.352812 13.782055,0 v 13.782055 l -13.782055,0 z m -22.202734,19.782938 14.48768,0 0,-14.48768 h -14.48768 z m 0.352812,-0.352813 V 58.757042 l 13.782055,0 v 13.782055 z m 19.782938,22.202734 v -14.48768 l -14.48768,0 0,14.48768 z M 50.689176,94.389019 H 36.907121 V 80.606964 l 13.782055,0 z M 72.89191,74.606081 H 58.40423 v 14.48768 h 14.48768 z m -0.352812,0.352813 v 13.782055 l -13.782055,0 V 74.958894 Z"
           id="path1"
           inkscape:original-d="M 52.75616,52.75616 V 67.24384 H 67.24384 V 52.75616 Z m 0.352813,0.352812 H 66.891028 V 66.891027 H 53.108973 Z" />
        <path
           style="fill:#0000ff;stroke-width:0.774849"
           d="M 53.630196,53.630196 V 66.369804 H 66.369804 V 53.630196 Z m 0.310243,0.310243 12.119122,0 v 12.119122 l -12.119122,0 z m -22.160164,18.077435 12.739608,0 0,-12.739608 -12.739608,0 z m 0.310243,-0.310243 V 59.588509 l 12.119122,0 V 71.707631 Z M 50.167953,93.867795 V 81.128187 H 37.428345 V 93.867795 Z M 49.85771,93.557552 H 37.738588 V 81.43843 H 49.85771 Z m 22.160164,-18.077435 -12.739608,0 0,12.739608 h 12.739608 z m -0.310243,0.310243 0,12.119122 -12.119122,0 V 75.79036 Z"
           id="path2"
           inkscape:original-d="M 53.630196,53.630196 V 66.369804 H 66.369804 V 53.630196 Z m 0.310243,0.310243 H 66.059561 V 66.059561 H 53.940439 Z" />
        <path
           style="fill:#0000ff;stroke-width:0.682774"
           d="m 54.387118,54.387118 0,11.225763 11.225763,0 0,-11.225763 z m 0.273377,0.273376 h 10.679011 l 0,10.679012 H 54.660495 Z M 32.537197,71.260952 H 43.76296 V 60.035189 l -11.225763,0 z m 0.273376,-0.273377 0,-10.679011 h 10.679012 v 10.679011 z m 16.600458,22.123298 0,-11.225763 -11.225763,0 0,11.225763 z M 49.137654,92.837497 H 38.458643 l 0,-10.679012 H 49.137654 Z M 71.260952,76.237039 H 60.035189 v 11.225763 l 11.225763,0 z m -0.273376,0.273377 0,10.679011 -10.679012,0 V 76.510416 Z"
           id="path3"
           inkscape:original-d="M 54.387118,54.387118 V 65.612881 H 65.612881 V 54.387118 Z m 0.273377,0.273376 H 65.339506 V 65.339506 H 54.660495 Z" />
        <path
           style="fill:#0000ff;stroke-width:0.682774"
           d="m 54.387118,54.387118 0,11.225764 h 11.225763 l 0,-11.225764 z m 0.273377,0.273377 10.679011,0 v 10.67901 l -10.679011,0 z M 32.537197,71.260952 H 43.762961 V 60.035189 H 32.537197 Z m 0.273377,-0.273377 0,-10.679011 10.67901,0 0,10.679011 z M 49.411031,93.110873 V 81.885109 l -11.225763,0 v 11.225764 z m -0.273377,-0.273377 -10.679011,0 v -10.67901 l 10.679011,0 z M 71.260952,76.237039 H 60.035188 l 0,11.225763 h 11.225764 z m -0.273377,0.273377 0,10.679011 -10.67901,0 V 76.510416 Z"
           id="path4"
           inkscape:original-d="M 54.387118,54.387118 V 65.612882 H 65.612881 V 54.387118 Z m 0.273377,0.273377 h 10.679011 v 10.67901 H 54.660495 Z" />
        <path
           style="fill:#0000ff;stroke-width:0.60164"
           d="m 55.054096,55.054095 0,9.891809 h 9.891808 v -9.891809 z m 0.240892,0.240891 h 9.410026 v 9.410026 l -9.410026,0 z M 33.204174,70.593974 h 9.891809 v -9.891808 l -9.891809,0 z m 0.240891,-0.240892 0,-9.410026 h 9.410026 v 9.410026 z m 15.298988,22.090814 0,-9.891809 h -9.891808 v 9.891809 z m -0.240892,-0.240891 h -9.410026 l 0,-9.410026 9.410026,0 z m 22.090814,-15.298988 -9.891809,0 0,9.891808 9.891809,0 z m -0.240891,0.240892 0,9.410026 -9.410026,0 v -9.410026 z"
           id="path5"
           inkscape:original-d="m 55.054096,55.054095 v 9.891809 h 9.891808 v -9.891809 z m 0.240892,0.240891 h 9.410026 v 9.410026 h -9.410026 z" />
        <path
           style="fill:#0000ff;stroke-width:0.529047"
           d="m 55.650864,55.650864 v 8.698272 l 8.698272,0 0,-8.698272 z m 0.211826,0.211826 8.27462,0 v 8.27462 H 55.86269 Z M 33.800943,69.997206 h 8.698272 v -8.698272 l -8.698272,0 z m 0.211826,-0.211826 v -8.27462 l 8.27462,0 v 8.27462 z m 14.134516,22.061747 v -8.698272 l -8.698272,0 0,8.698272 z m -0.211826,-0.211826 h -8.27462 l 0,-8.27462 h 8.27462 z M 69.997206,77.500785 h -8.698272 v 8.698272 l 8.698272,0 z m -0.211826,0.211826 v 8.27462 l -8.27462,0 v -8.27462 z"
           id="path6"
           inkscape:original-d="m 55.650864,55.650864 v 8.698272 h 8.698272 v -8.698272 z m 0.211826,0.211826 h 8.27462 v 8.27462 h -8.27462 z" />
        <path
           style="fill:#0000ff;stroke-width:0.46618"
           d="m 56.167671,56.167671 v 7.664658 l 7.664658,0 v -7.664658 z m 0.186655,0.186654 7.291349,0 v 7.291349 h -7.291349 z m -22.036576,13.126074 7.664658,0 V 61.815741 H 34.31775 Z m 0.186654,-0.186655 0,-7.291349 7.291349,0 v 7.291349 z M 47.630478,91.33032 v -7.664658 l -7.664658,0 v 7.664658 z m -0.186655,-0.186654 h -7.291349 l 0,-7.291349 h 7.291349 z M 69.480399,78.017592 h -7.664658 v 7.664658 l 7.664658,0 z m -0.186654,0.186655 v 7.291349 h -7.291349 v -7.291349 z"
           id="path7"
           inkscape:original-d="m 56.167671,56.167671 v 7.664658 h 7.664658 v -7.664658 z m 0.186655,0.186654 h 7.291349 v 7.291349 h -7.291349 z" />
        <path
           style="fill:#0000ff;stroke-width:0.5"
           d="m 55.889648,55.889648 0,8.220703 h 8.220704 l 0,-8.220703 z m 0.200195,0.200195 h 7.820313 l 0,7.820313 H 56.089843 Z M 34.039727,69.758422 h 8.220703 l 0,-8.220704 -8.220703,0 z m 0.200195,-0.200195 0,-7.820313 7.820313,0 v 7.820313 z M 47.908501,91.608343 V 83.38764 h -8.220704 v 8.220703 z m -0.200195,-0.200195 -7.820313,0 0,-7.820313 h 7.820313 z M 69.758422,77.739569 h -8.220703 v 8.220704 l 8.220703,0 z m -0.200195,0.200195 v 7.820313 h -7.820313 v -7.820313 z"
           id="path8"
           inkscape:original-d="m 55.889648,55.889648 v 8.220703 h 8.220704 v -8.220703 z m 0.200195,0.200195 h 7.820313 v 7.820313 h -7.820313 z" />
        <path
           style="fill:#0000ff;stroke-width:0.440585"
           d="m 56.37808,56.378081 0,7.243839 7.243839,0 v -7.243839 z m 0.176406,0.176405 6.891028,0 v 6.891028 l -6.891028,0 z M 34.52816,69.26999 h 7.243839 l 0,-7.243839 -7.243839,0 z m 0.176405,-0.176406 v -6.891028 l 6.891028,0 0,6.891028 z M 47.420069,91.11991 V 83.876071 H 40.17623 l 0,7.243839 z m -0.176406,-0.176405 h -6.891028 l 0,-6.891028 6.891028,0 z m 22.026326,-12.715504 -7.243839,0 0,7.243839 h 7.243839 z m -0.176405,0.176406 v 6.891028 h -6.891028 l 0,-6.891028 z"
           id="path9"
           inkscape:original-d="m 56.37808,56.378081 v 7.243839 h 7.243839 v -7.243839 z m 0.176406,0.176405 h 6.891028 v 6.891028 h -6.891028 z" />
        <path
           style="fill:#0000ff;stroke-width:0.387425"
           d="m 56.815098,56.815097 v 6.369805 l 6.369804,0 v -6.369805 z m 0.155122,0.155123 6.05956,0 v 6.05956 l -6.05956,0 z M 34.965176,68.832972 h 6.369805 v -6.369804 l -6.369805,0 z m 0.155123,-0.155122 0,-6.05956 6.05956,0 v 6.05956 z m 11.862752,22.005044 0,-6.369805 h -6.369804 v 6.369805 z m -0.155122,-0.155123 -6.05956,0 0,-6.05956 6.05956,0 z M 68.832973,78.665019 h -6.369805 l 0,6.369804 6.369805,0 z m -0.155123,0.155122 v 6.05956 h -6.05956 l 0,-6.05956 z"
           id="path10"
           inkscape:original-d="m 56.815098,56.815097 v 6.369805 h 6.369804 v -6.369805 z m 0.155122,0.155123 h 6.05956 v 6.05956 h -6.05956 z" />
        <path
           style="fill:#0000ff;stroke-width:0.341387"
           d="m 57.193559,57.193559 0,5.612881 h 5.612881 v -5.612881 z m 0.136688,0.136687 5.339506,0 0,5.339506 -5.339506,0 z M 35.343638,68.454511 h 5.612881 V 62.84163 h -5.612881 z m 0.136687,-0.136688 0,-5.339506 h 5.339506 l 0,5.339506 z M 46.60459,90.304432 v -5.612881 l -5.612881,0 v 5.612881 z m -0.136688,-0.136687 -5.339506,0 v -5.339506 l 5.339506,0 z M 68.454511,79.04348 H 62.84163 v 5.612881 l 5.612881,0 z m -0.136687,0.136688 0,5.339506 h -5.339506 v -5.339506 z"
           id="path11"
           inkscape:original-d="m 57.193559,57.193559 v 5.612881 h 5.612881 v -5.612881 z m 0.136688,0.136687 h 5.339506 v 5.339506 h -5.339506 z" />
        <path
           style="fill:#0000ff;stroke-width:0.341387"
           d="m 57.193559,57.193559 0,5.612881 h 5.612881 v -5.612881 z m 0.136688,0.136688 5.339506,0 v 5.339505 l -5.339506,0 z M 35.343638,68.454511 h 5.612881 V 62.84163 h -5.612881 z m 0.136688,-0.136688 v -5.339506 l 5.339505,0 0,5.339506 z M 46.60459,90.304432 v -5.612881 l -5.612881,0 v 5.612881 z m -0.136688,-0.136688 h -5.339506 v -5.339505 l 5.339506,0 z M 68.454511,79.04348 H 62.84163 v 5.612881 l 5.612881,0 z m -0.136688,0.136688 v 5.339506 h -5.339505 v -5.339506 z"
           id="path12"
           inkscape:original-d="m 57.193559,57.193559 v 5.612881 h 5.612881 v -5.612881 z m 0.136688,0.136688 h 5.339506 v 5.339505 h -5.339506 z" />
        <path
           style="fill:#0000ff;stroke-width:0.30082"
           d="m 57.527048,57.527048 v 4.945904 h 4.945904 l 0,-4.945904 z m 0.120445,0.120446 h 4.705013 v 4.705013 h -4.705013 z m -21.970366,10.473528 4.945904,0 v -4.945904 l -4.945904,0 z m 0.120446,-0.120445 0,-4.705013 h 4.705013 v 4.705013 z m 10.473528,21.970366 v -4.945904 h -4.945904 v 4.945904 z m -0.120445,-0.120446 h -4.705013 v -4.705013 h 4.705013 z m 21.970366,-10.473528 -4.945904,0 v 4.945904 l 4.945904,0 z m -0.120446,0.120445 0,4.705013 -4.705013,0 v -4.705013 z"
           id="path13"
           inkscape:original-d="m 57.527048,57.527048 v 4.945904 h 4.945904 v -4.945904 z m 0.120445,0.120446 h 4.705013 v 4.705013 h -4.705013 z" />
        <path
           style="fill:#0000ff;stroke-width:0.264523"
           d="m 57.825432,57.825431 v 4.349137 l 4.349136,0 0,-4.349137 z m 0.105913,0.105913 4.137311,0 v 4.137311 l -4.137311,0 z M 35.97551,67.822638 h 4.349137 l 0,-4.349136 H 35.97551 Z m 0.105913,-0.105913 0,-4.137311 h 4.137311 l 0,4.137311 z m 9.891294,21.955835 0,-4.349137 h -4.349136 v 4.349137 z m -0.105913,-0.105913 h -4.137311 v -4.137311 l 4.137311,0 z m 21.955835,-9.891294 -4.349137,0 0,4.349136 h 4.349137 z m -0.105913,0.105913 0,4.137311 h -4.137311 v -4.137311 z"
           id="path14"
           inkscape:original-d="m 57.825432,57.825431 v 4.349137 h 4.349136 v -4.349137 z m 0.105913,0.105913 h 4.137311 v 4.137311 h -4.137311 z" />
        <path
           style="fill:#0000ff;stroke-width:0.23309"
           d="m 58.083835,58.083835 0,3.832329 3.832329,0 v -3.832329 z m 0.09333,0.09333 3.645674,0 v 3.645674 l -3.645674,0 z m -21.943251,9.38707 3.832329,0 v -3.832329 h -3.832329 z m 0.09333,-0.09333 v -3.645674 h 3.645674 v 3.645674 z m 9.38707,21.943251 v -3.832329 l -3.832329,0 v 3.832329 z m -0.09333,-0.09333 H 41.97531 v -3.645674 l 3.645674,0 z m 21.943251,-9.38707 -3.832329,0 0,3.832329 3.832329,0 z m -0.09333,0.09333 0,3.645674 h -3.645674 v -3.645674 z"
           id="path15"
           inkscape:original-d="m 58.083835,58.083835 v 3.832329 h 3.832329 v -3.832329 z m 0.09333,0.09333 h 3.645674 v 3.645674 h -3.645674 z" />
      </g>
      <g
         id="g31"
         transform="matrix(0.70092002,-0.71323988,-0.71323988,-0.70092002,60.739188,152.56768)">
        <path
           style="fill:#0000ff"
           d="m 51.779297,51.779296 0,16.441407 16.441406,0 V 51.779296 Z m 0.400391,0.400391 15.640625,0 V 67.820312 H 52.179688 Z m 21.689086,21.449526 -16.441407,0 0,16.441406 h 16.441407 z m -0.400391,0.400391 0,15.640625 -15.640625,0 0,-15.640625 z m -21.449526,21.689086 0,-16.441407 -16.441406,0 V 95.71869 Z M 51.618466,95.318299 H 35.977841 l 0,-15.640625 H 51.618466 Z M 29.92938,73.868773 l 16.441407,0 0,-16.441406 -16.441407,0 z m 0.400391,-0.400391 0,-15.640625 h 15.640625 v 15.640625 z"
           id="path16"
           inkscape:original-d="M 51.779297,51.779296 V 68.220703 H 68.220703 V 51.779296 Z m 0.400391,0.400391 H 67.820313 V 67.820312 H 52.179688 Z" />
        <path
           style="fill:#0000ff;stroke-width:0.88117"
           d="m 52.75616,52.75616 0,14.48768 h 14.48768 l 0,-14.48768 z m 0.352813,0.352812 H 66.891028 V 66.891027 H 53.108973 Z M 72.89191,74.606076 H 58.40423 l 0,14.48768 14.48768,0 z m -0.352812,0.352813 V 88.740944 H 58.757043 V 74.958889 Z m -21.497104,19.782937 0,-14.48768 h -14.48768 l 0,14.48768 z m -0.352813,-0.352812 -13.782055,0 0,-13.782055 H 50.689181 Z M 30.906244,72.89191 h 14.48768 l 0,-14.48768 h -14.48768 z m 0.352812,-0.352813 0,-13.782055 h 13.782055 l 0,13.782055 z"
           id="path17"
           inkscape:original-d="M 52.75616,52.75616 V 67.24384 H 67.24384 V 52.75616 Z m 0.352813,0.352812 H 66.891028 V 66.891027 H 53.108973 Z" />
        <path
           style="fill:#0000ff;stroke-width:0.774849"
           d="m 53.630196,53.630196 v 12.739608 l 12.739608,0 0,-12.739608 z m 0.310243,0.310243 H 66.059561 V 66.059561 H 53.940439 Z M 72.017874,75.480112 H 59.278266 l 0,12.739608 12.739608,0 z m -0.310243,0.310243 V 87.909477 H 59.588509 l 0,-12.119122 z M 50.167958,93.86779 V 81.128182 H 37.42835 V 93.86779 Z M 49.857715,93.557547 H 37.738593 l 0,-12.119122 H 49.857715 Z M 31.78028,72.017874 h 12.739608 l 0,-12.739608 -12.739608,0 z m 0.310243,-0.310243 0,-12.119122 h 12.119122 l 0,12.119122 z"
           id="path18"
           inkscape:original-d="M 53.630196,53.630196 V 66.369804 H 66.369804 V 53.630196 Z m 0.310243,0.310243 H 66.059561 V 66.059561 H 53.940439 Z" />
        <path
           style="fill:#0000ff;stroke-width:0.682774"
           d="m 54.387118,54.387118 0,11.225763 11.225763,0 0,-11.225763 z m 0.273377,0.273376 H 65.339506 V 65.339506 H 54.660495 Z m 16.600457,21.57654 H 60.035189 l 0,11.225763 11.225763,0 z m -0.273376,0.273377 v 10.679011 l -10.679012,0 0,-10.679011 z m -21.57654,16.600457 0,-11.225763 -11.225763,0 0,11.225763 z M 49.137659,92.837492 H 38.458648 l 0,-10.679012 H 49.137659 Z M 32.537202,71.260952 h 11.225763 l 0,-11.225763 -11.225763,0 z m 0.273376,-0.273377 0,-10.679011 10.679012,0 0,10.679011 z"
           id="path19"
           inkscape:original-d="M 54.387118,54.387118 V 65.612881 H 65.612881 V 54.387118 Z m 0.273377,0.273376 H 65.339506 V 65.339506 H 54.660495 Z" />
        <path
           style="fill:#0000ff;stroke-width:0.682774"
           d="m 54.387118,54.387118 0,11.225764 h 11.225763 l 0,-11.225764 z m 0.273377,0.273377 h 10.679011 v 10.67901 H 54.660495 Z M 71.260952,76.237034 H 60.035188 v 11.225763 h 11.225764 z m -0.273377,0.273377 v 10.679011 h -10.67901 l 0,-10.679011 z m -21.576539,16.600457 0,-11.225764 H 38.185273 V 93.110868 Z M 49.137659,92.837491 H 38.458648 l 0,-10.67901 10.679011,0 z M 32.537202,71.260952 h 11.225764 l 0,-11.225763 H 32.537202 Z m 0.273377,-0.273377 0,-10.679011 10.67901,0 v 10.679011 z"
           id="path20"
           inkscape:original-d="M 54.387118,54.387118 V 65.612882 H 65.612881 V 54.387118 Z m 0.273377,0.273377 h 10.679011 v 10.67901 H 54.660495 Z" />
        <path
           style="fill:#0000ff;stroke-width:0.60164"
           d="m 55.054096,55.054095 0,9.891809 9.891808,0 0,-9.891809 z m 0.240892,0.240891 h 9.410026 l 0,9.410026 -9.410026,0 z m 15.298987,21.609026 -9.891809,0 0,9.891808 9.891809,0 z m -0.240891,0.240892 v 9.410026 l -9.410026,0 0,-9.410026 z m -21.609026,15.298987 0,-9.891809 -9.891808,0 0,9.891809 z M 48.503166,92.203 H 39.09314 l 0,-9.410026 9.410026,0 z m -15.298987,-21.609026 9.891809,0 0,-9.891808 -9.891809,0 z m 0.240891,-0.240892 v -9.410026 l 9.410026,0 0,9.410026 z"
           id="path21"
           inkscape:original-d="m 55.054096,55.054095 v 9.891809 h 9.891808 v -9.891809 z m 0.240892,0.240891 h 9.410026 v 9.410026 h -9.410026 z" />
        <path
           style="fill:#0000ff;stroke-width:0.529047"
           d="m 55.650864,55.650864 0,8.698272 8.698272,0 0,-8.698272 z m 0.211826,0.211826 8.27462,0 v 8.27462 l -8.27462,0 z m 14.134516,21.63809 h -8.698272 l 0,8.698272 h 8.698272 z m -0.211826,0.211826 0,8.27462 h -8.27462 l 0,-8.27462 z m -21.63809,14.134516 0,-8.698272 -8.698272,0 0,8.698272 z m -0.211826,-0.211826 -8.27462,0 v -8.27462 l 8.27462,0 z m -14.134516,-21.63809 8.698272,0 0,-8.698272 h -8.698272 z m 0.211826,-0.211826 v -8.27462 h 8.27462 l 0,8.27462 z"
           id="path22"
           inkscape:original-d="m 55.650864,55.650864 v 8.698272 h 8.698272 v -8.698272 z m 0.211826,0.211826 h 8.27462 v 8.27462 h -8.27462 z" />
        <path
           style="fill:#0000ff;stroke-width:0.46618"
           d="m 56.167671,56.167671 0,7.664658 7.664658,0 0,-7.664658 z m 0.186655,0.186654 h 7.291349 v 7.291349 h -7.291349 z m 13.126073,21.663262 -7.664658,0 v 7.664658 h 7.664658 z m -0.186654,0.186655 v 7.291349 l -7.291349,0 v -7.291349 z m -21.663262,13.126073 0,-7.664658 -7.664658,0 v 7.664658 z m -0.186655,-0.186654 h -7.291349 l 0,-7.291349 h 7.291349 z M 34.317755,69.480399 h 7.664658 v -7.664658 l -7.664658,0 z m 0.186654,-0.186655 0,-7.291349 h 7.291349 l 0,7.291349 z"
           id="path23"
           inkscape:original-d="m 56.167671,56.167671 v 7.664658 h 7.664658 v -7.664658 z m 0.186655,0.186654 h 7.291349 v 7.291349 h -7.291349 z" />
        <path
           style="fill:#0000ff;stroke-width:0.5"
           d="m 55.889648,55.889648 0,8.220703 h 8.220704 v -8.220703 z m 0.200195,0.200195 h 7.820313 l 0,7.820313 h -7.820313 z m 13.668579,21.649721 -8.220703,0 0,8.220704 h 8.220703 z m -0.200195,0.200195 v 7.820313 l -7.820313,0 0,-7.820313 z m -21.649721,13.668579 0,-8.220703 h -8.220704 v 8.220703 z M 47.708311,91.408143 H 39.887998 V 83.58783 h 7.820313 z M 34.039732,69.758422 h 8.220703 l 0,-8.220704 h -8.220703 z m 0.200195,-0.200195 v -7.820313 l 7.820313,0 0,7.820313 z"
           id="path24"
           inkscape:original-d="m 55.889648,55.889648 v 8.220703 h 8.220704 v -8.220703 z m 0.200195,0.200195 h 7.820313 v 7.820313 h -7.820313 z" />
        <path
           style="fill:#0000ff;stroke-width:0.440585"
           d="m 56.37808,56.378081 0,7.243839 h 7.243839 l 0,-7.243839 z m 0.176406,0.176405 6.891028,0 0,6.891028 h -6.891028 z m 12.715503,21.67351 H 62.02615 l 0,7.243839 h 7.243839 z m -0.176405,0.176406 0,6.891028 -6.891028,0 v -6.891028 z m -21.67351,12.715503 0,-7.243839 -7.243839,0 v 7.243839 z m -0.176406,-0.176405 -6.891028,0 0,-6.891028 h 6.891028 z M 34.528165,69.26999 h 7.243839 l 0,-7.243839 -7.243839,0 z m 0.176405,-0.176406 0,-6.891028 6.891028,0 0,6.891028 z"
           id="path25"
           inkscape:original-d="m 56.37808,56.378081 v 7.243839 h 7.243839 v -7.243839 z m 0.176406,0.176405 h 6.891028 v 6.891028 h -6.891028 z" />
        <path
           style="fill:#0000ff;stroke-width:0.387425"
           d="m 56.815098,56.815097 v 6.369805 h 6.369804 l 0,-6.369805 z m 0.155122,0.155123 h 6.05956 l 0,6.05956 h -6.05956 z m 11.862753,21.694794 h -6.369805 l 0,6.369804 6.369805,0 z m -0.155123,0.155122 v 6.05956 l -6.05956,0 0,-6.05956 z m -21.694794,11.862753 0,-6.369805 h -6.369804 l 0,6.369805 z m -0.155122,-0.155123 -6.05956,0 0,-6.05956 6.05956,0 z M 34.965181,68.832972 h 6.369805 l 0,-6.369804 h -6.369805 z m 0.155123,-0.155122 0,-6.05956 h 6.05956 l 0,6.05956 z"
           id="path26"
           inkscape:original-d="m 56.815098,56.815097 v 6.369805 h 6.369804 v -6.369805 z m 0.155122,0.155123 h 6.05956 v 6.05956 h -6.05956 z" />
        <path
           style="fill:#0000ff;stroke-width:0.341387"
           d="m 57.193559,57.193559 v 5.612881 h 5.612881 l 0,-5.612881 z m 0.136688,0.136687 h 5.339506 l 0,5.339506 -5.339506,0 z m 11.124264,21.713229 -5.612881,0 v 5.612881 l 5.612881,0 z m -0.136687,0.136688 0,5.339506 H 62.978318 V 79.180163 Z M 46.604595,90.304427 v -5.612881 h -5.612881 l 0,5.612881 z m -0.136688,-0.136687 -5.339506,0 0,-5.339506 h 5.339506 z M 35.343643,68.454511 h 5.612881 V 62.84163 l -5.612881,0 z m 0.136687,-0.136688 v -5.339506 l 5.339506,0 v 5.339506 z"
           id="path27"
           inkscape:original-d="m 57.193559,57.193559 v 5.612881 h 5.612881 v -5.612881 z m 0.136688,0.136687 h 5.339506 v 5.339506 h -5.339506 z" />
        <path
           style="fill:#0000ff;stroke-width:0.341387"
           d="m 57.193559,57.193559 v 5.612881 h 5.612881 l 0,-5.612881 z m 0.136688,0.136688 h 5.339506 l 0,5.339505 -5.339506,0 z m 11.124264,21.713228 -5.612881,0 v 5.612881 l 5.612881,0 z m -0.136688,0.136688 v 5.339506 H 62.978318 V 79.180163 Z M 46.604595,90.304427 v -5.612881 h -5.612881 l 0,5.612881 z m -0.136688,-0.136688 -5.339506,0 v -5.339505 h 5.339506 z M 35.343643,68.454511 h 5.612881 V 62.84163 l -5.612881,0 z m 0.136688,-0.136688 0,-5.339506 5.339505,0 v 5.339506 z"
           id="path28"
           inkscape:original-d="m 57.193559,57.193559 v 5.612881 h 5.612881 v -5.612881 z m 0.136688,0.136688 h 5.339506 v 5.339505 h -5.339506 z" />
        <path
           style="fill:#0000ff;stroke-width:0.30082"
           d="m 57.527048,57.527048 0,4.945904 4.945904,0 v -4.945904 z m 0.120445,0.120446 h 4.705013 l 0,4.705013 h -4.705013 z m 10.473529,21.72947 h -4.945904 l 0,4.945904 4.945904,0 z m -0.120446,0.120445 v 4.705013 h -4.705013 l 0,-4.705013 z m -21.72947,10.473529 v -4.945904 h -4.945904 v 4.945904 z m -0.120445,-0.120446 h -4.705013 l 0,-4.705013 h 4.705013 z m -10.473529,-21.72947 4.945904,0 0,-4.945904 h -4.945904 z m 0.120446,-0.120445 0,-4.705013 4.705013,0 v 4.705013 z"
           id="path29"
           inkscape:original-d="m 57.527048,57.527048 v 4.945904 h 4.945904 v -4.945904 z m 0.120445,0.120446 h 4.705013 v 4.705013 h -4.705013 z" />
        <path
           style="fill:#0000ff;stroke-width:0.264523"
           d="m 57.825432,57.825431 0,4.349137 4.349136,0 0,-4.349137 z m 0.105913,0.105913 h 4.137311 l 0,4.137311 h -4.137311 z m 9.891294,21.744004 h -4.349137 l 0,4.349136 4.349137,0 z m -0.105913,0.105913 v 4.137311 h -4.137311 l 0,-4.137311 z m -21.744004,9.891294 0,-4.349137 -4.349136,0 0,4.349137 z m -0.105913,-0.105913 -4.137311,0 0,-4.137311 4.137311,0 z m -9.891294,-21.744004 4.349137,0 0,-4.349136 -4.349137,0 z m 0.105913,-0.105913 0,-4.137311 h 4.137311 l 0,4.137311 z"
           id="path30"
           inkscape:original-d="m 57.825432,57.825431 v 4.349137 h 4.349136 v -4.349137 z m 0.105913,0.105913 h 4.137311 v 4.137311 h -4.137311 z" />
        <path
           style="fill:#0000ff;stroke-width:0.23309"
           d="m 58.083835,58.083835 0,3.832329 h 3.832329 v -3.832329 z m 0.09333,0.09333 h 3.645674 v 3.645674 h -3.645674 z m 9.38707,21.756586 -3.832329,0 0,3.832329 h 3.832329 z m -0.09333,0.09333 v 3.645674 l -3.645674,0 0,-3.645674 z m -21.756586,9.38707 0,-3.832329 -3.832329,0 v 3.832329 z m -0.09333,-0.09333 h -3.645674 l 0,-3.645674 3.645674,0 z m -9.38707,-21.756586 3.832329,0 0,-3.832329 -3.832329,0 z m 0.09333,-0.09333 v -3.645674 l 3.645674,0 0,3.645674 z"
           id="path31"
           inkscape:original-d="m 58.083835,58.083835 v 3.832329 h 3.832329 v -3.832329 z m 0.09333,0.09333 h 3.645674 v 3.645674 h -3.645674 z" />
      </g>
      <g
         id="g47"
         transform="rotate(135.49914,61.140115,62.718927)">
        <path
           style="fill:#0000ff"
           d="m 51.779297,51.779296 v 16.441407 l 16.441406,0 V 51.779296 Z m 0.400391,0.400391 H 67.820313 V 67.820312 H 52.179688 Z m -0.162084,43.395781 16.441407,0 V 79.134062 H 52.017604 Z m 0.400391,-0.400391 V 79.534452 l 15.640625,0 v 15.640625 z m 43.395781,0.162084 V 78.895754 l -16.441406,0 V 95.337161 Z M 95.413385,94.93677 H 79.77276 V 79.296145 H 95.413385 Z M 95.575469,51.540989 H 79.134062 V 67.982395 H 95.575469 Z M 95.175078,51.94138 V 67.582005 H 79.534453 l 0,-15.640625 z"
           id="path32"
           inkscape:original-d="M 51.779297,51.779296 V 68.220703 H 68.220703 V 51.779296 Z m 0.400391,0.400391 H 67.820313 V 67.820312 H 52.179688 Z" />
        <path
           style="fill:#0000ff;stroke-width:0.88117"
           d="m 52.75616,52.75616 0,14.48768 H 67.24384 V 52.75616 Z m 0.352813,0.352812 13.782055,0 v 13.782055 l -13.782055,0 z m -0.114505,41.489633 h 14.48768 v -14.48768 h -14.48768 z m 0.352812,-0.352813 0,-13.782055 13.782055,0 v 13.782055 z m 41.489633,0.114505 v -14.48768 h -14.48768 v 14.48768 z m -0.352813,-0.352812 -13.782055,0 V 80.22543 H 94.4841 Z m 0.114505,-41.489633 -14.48768,0 v 14.48768 h 14.48768 z m -0.352812,0.352813 0,13.782055 -13.782055,0 0,-13.782055 z"
           id="path33"
           inkscape:original-d="M 52.75616,52.75616 V 67.24384 H 67.24384 V 52.75616 Z m 0.352813,0.352812 H 66.891028 V 66.891027 H 53.108973 Z" />
        <path
           style="fill:#0000ff;stroke-width:0.774849"
           d="m 53.630196,53.630196 0,12.739608 H 66.369804 V 53.630196 Z m 0.310243,0.310243 h 12.119122 l 0,12.119122 H 53.940439 Z m -0.07193,39.78413 12.739608,0 0,-12.739608 -12.739608,0 z m 0.310243,-0.310243 0,-12.119122 h 12.119122 v 12.119122 z m 39.78413,0.07193 V 80.746653 l -12.739608,0 v 12.739608 z m -0.310243,-0.310243 -12.119122,0 0,-12.119122 12.119122,0 z m 0.07193,-39.78413 H 80.984961 v 12.739608 l 12.739608,0 z m -0.310243,0.310243 0,12.119122 -12.119122,0 0,-12.119122 z"
           id="path34"
           inkscape:original-d="M 53.630196,53.630196 V 66.369804 H 66.369804 V 53.630196 Z m 0.310243,0.310243 H 66.059561 V 66.059561 H 53.940439 Z" />
        <path
           style="fill:#0000ff;stroke-width:0.682774"
           d="m 54.387118,54.387118 0,11.225763 h 11.225763 l 0,-11.225763 z m 0.273377,0.273376 H 65.339506 V 65.339506 H 54.660495 Z m -0.03507,38.307153 11.225763,0 V 81.741884 H 54.625426 Z M 54.898802,92.69427 V 82.015259 H 65.577814 V 92.69427 Z m 38.307153,0.03507 0,-11.225763 H 81.980192 l 0,11.225763 z M 92.932578,92.455963 H 82.253567 V 81.776951 l 10.679011,0 z m 0.03507,-38.307153 -11.225763,0 0,11.225763 h 11.225763 z m -0.273376,0.273377 v 10.679011 l -10.679012,0 V 54.422187 Z"
           id="path35"
           inkscape:original-d="M 54.387118,54.387118 V 65.612881 H 65.612881 V 54.387118 Z m 0.273377,0.273376 H 65.339506 V 65.339506 H 54.660495 Z" />
        <path
           style="fill:#0000ff;stroke-width:0.682774"
           d="m 54.387118,54.387118 0,11.225764 11.225763,0 0,-11.225764 z m 0.273377,0.273377 h 10.679011 v 10.67901 H 54.660495 Z m -0.03507,38.307152 11.225764,0 V 81.741884 H 54.625426 Z M 54.898803,92.69427 V 82.015259 h 10.67901 V 92.69427 Z m 38.307152,0.03507 0,-11.225764 H 81.980192 l 0,11.225764 z M 92.932578,92.455962 H 82.253567 V 81.776952 H 92.932578 Z M 92.967647,54.14881 H 81.741883 V 65.374573 H 92.967647 Z M 92.69427,54.422187 V 65.101198 H 82.01526 V 54.422187 Z"
           id="path36"
           inkscape:original-d="M 54.387118,54.387118 V 65.612882 H 65.612881 V 54.387118 Z m 0.273377,0.273377 h 10.679011 v 10.67901 H 54.660495 Z" />
        <path
           style="fill:#0000ff;stroke-width:0.60164"
           d="m 55.054096,55.054095 0,9.891809 9.891808,0 0,-9.891809 z m 0.240892,0.240891 h 9.410026 l 0,9.410026 h -9.410026 z m -0.0026,37.005683 9.891809,0 v -9.891808 l -9.891809,0 z m 0.240891,-0.240892 0,-9.410026 h 9.410026 v 9.410026 z m 37.005683,0.0026 v -9.891809 l -9.891808,0 v 9.891809 z m -0.240892,-0.240891 h -9.410026 v -9.410026 h 9.410026 z m 0.0026,-37.005683 h -9.891809 v 9.891808 h 9.891809 z m -0.240891,0.240892 0,9.410026 -9.410026,0 0,-9.410026 z"
           id="path37"
           inkscape:original-d="m 55.054096,55.054095 v 9.891809 h 9.891808 v -9.891809 z m 0.240892,0.240891 h 9.410026 v 9.410026 h -9.410026 z" />
        <path
           style="fill:#0000ff;stroke-width:0.529047"
           d="m 55.650864,55.650864 0,8.698272 8.698272,0 v -8.698272 z m 0.211826,0.211826 8.27462,0 0,8.27462 h -8.27462 z m 0.02648,35.841211 8.698272,0 v -8.698272 h -8.698272 z m 0.211826,-0.211826 v -8.27462 l 8.27462,0 v 8.27462 z m 35.841211,-0.02648 0,-8.698272 h -8.698272 l 0,8.698272 z m -0.211826,-0.211826 h -8.27462 v -8.27462 l 8.27462,0 z m -0.02648,-35.841211 h -8.698272 v 8.698272 h 8.698272 z m -0.211826,0.211826 0,8.27462 h -8.27462 v -8.27462 z"
           id="path38"
           inkscape:original-d="m 55.650864,55.650864 v 8.698272 h 8.698272 v -8.698272 z m 0.211826,0.211826 h 8.27462 v 8.27462 h -8.27462 z" />
        <path
           style="fill:#0000ff;stroke-width:0.46618"
           d="m 56.167671,56.167671 0,7.664658 h 7.664658 l 0,-7.664658 z m 0.186655,0.186654 7.291349,0 v 7.291349 l -7.291349,0 z m 0.05165,34.832769 7.664658,0 v -7.664658 l -7.664658,0 z m 0.186654,-0.186655 0,-7.291349 h 7.291349 l 0,7.291349 z m 34.832769,-0.05165 0,-7.664658 h -7.664658 l 0,7.664658 z m -0.186655,-0.186654 h -7.291349 v -7.291349 l 7.291349,0 z m -0.05165,-34.832769 -7.664658,0 v 7.664658 l 7.664658,0 z m -0.186654,0.186655 0,7.291349 h -7.291349 l 0,-7.291349 z"
           id="path39"
           inkscape:original-d="m 56.167671,56.167671 v 7.664658 h 7.664658 v -7.664658 z m 0.186655,0.186654 h 7.291349 v 7.291349 h -7.291349 z" />
        <path
           style="fill:#0000ff;stroke-width:0.5"
           d="m 55.889648,55.889648 0,8.220703 h 8.220704 v -8.220703 z m 0.200195,0.200195 7.820313,0 0,7.820313 h -7.820313 z m 0.03811,35.375274 8.220703,0 v -8.220704 l -8.220703,0 z m 0.200195,-0.200195 0,-7.820313 7.820313,0 0,7.820313 z m 35.375274,-0.03811 0,-8.220703 h -8.220704 v 8.220703 z M 91.50323,91.026614 h -7.820313 v -7.820313 h 7.820313 z m -0.03811,-35.375274 -8.220703,0 0,8.220704 8.220703,0 z m -0.200195,0.200195 0,7.820313 -7.820313,0 v -7.820313 z"
           id="path40"
           inkscape:original-d="m 55.889648,55.889648 v 8.220703 h 8.220704 v -8.220703 z m 0.200195,0.200195 h 7.820313 v 7.820313 h -7.820313 z" />
        <path
           style="fill:#0000ff;stroke-width:0.440585"
           d="m 56.37808,56.378081 0,7.243839 7.243839,0 0,-7.243839 z m 0.176406,0.176405 h 6.891028 l 0,6.891028 h -6.891028 z m 0.0619,34.422199 h 7.243839 v -7.243839 l -7.243839,0 z m 0.176405,-0.176406 0,-6.891028 6.891028,0 v 6.891028 z m 34.422199,-0.0619 v -7.243839 l -7.243839,0 0,7.243839 z m -0.176406,-0.176405 -6.891028,0 0,-6.891028 6.891028,0 z m -0.0619,-34.422199 h -7.243839 v 7.243839 l 7.243839,0 z m -0.176405,0.176406 v 6.891028 h -6.891028 v -6.891028 z"
           id="path41"
           inkscape:original-d="m 56.37808,56.378081 v 7.243839 h 7.243839 v -7.243839 z m 0.176406,0.176405 h 6.891028 v 6.891028 h -6.891028 z" />
        <path
           style="fill:#0000ff;stroke-width:0.387425"
           d="m 56.815098,56.815097 0,6.369805 h 6.369804 l 0,-6.369805 z m 0.155122,0.155123 h 6.05956 v 6.05956 h -6.05956 z m 0.08319,33.569447 6.369805,0 0,-6.369804 h -6.369805 z m 0.155123,-0.155122 v -6.05956 h 6.05956 l 0,6.05956 z m 33.569447,-0.08319 0,-6.369805 -6.369804,0 0,6.369805 z m -0.155122,-0.155123 h -6.05956 v -6.05956 l 6.05956,0 z M 90.539668,56.57679 h -6.369805 v 6.369804 h 6.369805 z m -0.155123,0.155122 v 6.05956 l -6.05956,0 0,-6.05956 z"
           id="path42"
           inkscape:original-d="m 56.815098,56.815097 v 6.369805 h 6.369804 v -6.369805 z m 0.155122,0.155123 h 6.05956 v 6.05956 h -6.05956 z" />
        <path
           style="fill:#0000ff;stroke-width:0.341387"
           d="m 57.193559,57.193559 0,5.612881 h 5.612881 l 0,-5.612881 z m 0.136688,0.136687 h 5.339506 v 5.339506 l -5.339506,0 z m 0.10162,32.83096 h 5.612881 v -5.612881 h -5.612881 z m 0.136687,-0.136688 0,-5.339506 h 5.339506 l 0,5.339506 z m 32.83096,-0.10162 0,-5.612881 -5.612881,0 v 5.612881 z M 90.262826,89.786211 H 84.92332 v -5.339506 l 5.339506,0 z m -0.10162,-32.83096 h -5.612881 l 0,5.612881 5.612881,0 z m -0.136687,0.136688 v 5.339506 h -5.339506 v -5.339506 z"
           id="path43"
           inkscape:original-d="m 57.193559,57.193559 v 5.612881 h 5.612881 v -5.612881 z m 0.136688,0.136687 h 5.339506 v 5.339506 h -5.339506 z" />
        <path
           style="fill:#0000ff;stroke-width:0.341387"
           d="m 57.193559,57.193559 0,5.612881 h 5.612881 l 0,-5.612881 z m 0.136688,0.136688 h 5.339506 l 0,5.339505 -5.339506,0 z m 0.10162,32.830959 h 5.612881 v -5.612881 h -5.612881 z m 0.136688,-0.136688 v -5.339506 l 5.339505,0 0,5.339506 z m 32.830959,-0.10162 0,-5.612881 -5.612881,0 v 5.612881 z m -0.136688,-0.136688 -5.339506,0 v -5.339505 l 5.339506,0 z m -0.10162,-32.830959 h -5.612881 l 0,5.612881 5.612881,0 z m -0.136688,0.136688 v 5.339506 h -5.339505 v -5.339506 z"
           id="path44"
           inkscape:original-d="m 57.193559,57.193559 v 5.612881 h 5.612881 v -5.612881 z m 0.136688,0.136688 h 5.339506 v 5.339505 h -5.339506 z" />
        <path
           style="fill:#0000ff;stroke-width:0.30082"
           d="m 57.527048,57.527048 0,4.945904 4.945904,0 0,-4.945904 z m 0.120445,0.120446 h 4.705013 l 0,4.705013 h -4.705013 z m 0.117863,32.180223 4.945904,0 v -4.945904 h -4.945904 z m 0.120446,-0.120445 v -4.705013 l 4.705013,0 0,4.705013 z m 32.180223,-0.117863 v -4.945904 l -4.945904,0 0,4.945904 z M 89.94558,89.468963 H 85.240567 V 84.76395 l 4.705013,0 z M 89.827717,57.28874 h -4.945904 v 4.945904 h 4.945904 z m -0.120446,0.120445 0,4.705013 h -4.705013 l 0,-4.705013 z"
           id="path45"
           inkscape:original-d="m 57.527048,57.527048 v 4.945904 h 4.945904 v -4.945904 z m 0.120445,0.120446 h 4.705013 v 4.705013 h -4.705013 z" />
        <path
           style="fill:#0000ff;stroke-width:0.264523"
           d="m 57.825432,57.825431 0,4.349137 h 4.349136 v -4.349137 z m 0.105913,0.105913 4.137311,0 0,4.137311 h -4.137311 z m 0.132394,31.597989 h 4.349137 v -4.349136 h -4.349137 z m 0.105913,-0.105913 0,-4.137311 4.137311,0 v 4.137311 z m 31.597989,-0.132394 v -4.349137 h -4.349136 l 0,4.349137 z m -0.105913,-0.105913 h -4.137311 v -4.137311 h 4.137311 z M 89.529334,57.587124 h -4.349137 v 4.349136 l 4.349137,0 z m -0.105913,0.105913 0,4.137311 -4.137311,0 v -4.137311 z"
           id="path46"
           inkscape:original-d="m 57.825432,57.825431 v 4.349137 h 4.349136 v -4.349137 z m 0.105913,0.105913 h 4.137311 v 4.137311 h -4.137311 z" />
        <path
           style="fill:#0000ff;stroke-width:0.23309"
           d="m 58.083835,58.083835 0,3.832329 h 3.832329 l 0,-3.832329 z m 0.09333,0.09333 h 3.645674 l 0,3.645674 h -3.645674 z m 0.144978,31.093765 h 3.832329 l 0,-3.832329 h -3.832329 z m 0.09333,-0.09333 v -3.645674 l 3.645674,0 0,3.645674 z m 31.093765,-0.144978 v -3.832329 h -3.832329 v 3.832329 z m -0.09333,-0.09333 h -3.645674 l 0,-3.645674 3.645674,0 z M 89.27093,57.845527 h -3.832329 v 3.832329 h 3.832329 z m -0.09333,0.09333 0,3.645674 -3.645674,0 v -3.645674 z"
           id="path47"
           inkscape:original-d="m 58.083835,58.083835 v 3.832329 h 3.832329 v -3.832329 z m 0.09333,0.09333 h 3.645674 v 3.645674 h -3.645674 z" />
      </g>
      <g
         id="g63"
         transform="matrix(0.71323988,0.70092002,0.70092002,-0.71323988,-28.708638,64.598232)">
        <path
           style="fill:#0000ff"
           d="m 51.779297,51.779296 0,16.441407 16.441406,0 V 51.779296 Z m 0.400391,0.400391 H 67.820313 V 67.820312 H 52.179688 Z m -0.399143,-0.257171 -16.441407,0 0,16.441406 h 16.441407 z m -0.400391,0.400391 V 67.963532 H 35.739529 l 0,-15.640625 z m 0.257171,-0.399142 0,-16.441407 -16.441406,0 0,16.441407 z M 51.236934,51.523374 H 35.596309 l 0,-15.640625 15.640625,0 z m 0.399143,0.25717 16.441407,0 0,-16.441406 -16.441407,0 z m 0.400391,-0.400391 V 35.739528 l 15.640625,0 v 15.640625 z"
           id="path48"
           inkscape:original-d="M 51.779297,51.779296 V 68.220703 H 68.220703 V 51.779296 Z m 0.400391,0.400391 H 67.820313 V 67.820312 H 52.179688 Z" />
        <path
           style="fill:#0000ff;stroke-width:0.88117"
           d="m 52.75616,52.75616 v 14.48768 h 14.48768 l 0,-14.48768 z m 0.352813,0.352812 h 13.782055 v 13.782055 l -13.782055,0 z m -2.305292,-0.209593 -14.48768,0 v 14.48768 l 14.48768,0 z m -0.352812,0.352813 0,13.782055 H 36.668814 V 53.252192 Z m 0.209593,-2.305291 v -14.48768 l -14.48768,0 0,14.48768 z M 50.307649,50.594089 H 36.525594 V 36.812034 l 13.782055,0 z m 2.305292,0.209592 14.48768,0 v -14.48768 l -14.48768,0 z m 0.352812,-0.352813 0,-13.782055 13.782055,0 v 13.782055 z"
           id="path49"
           inkscape:original-d="M 52.75616,52.75616 V 67.24384 H 67.24384 V 52.75616 Z m 0.352813,0.352812 H 66.891028 V 66.891027 H 53.108973 Z" />
        <path
           style="fill:#0000ff;stroke-width:0.774849"
           d="m 53.630196,53.630196 v 12.739608 l 12.739608,0 V 53.630196 Z m 0.310243,0.310243 12.119122,0 V 66.059561 H 53.940439 Z m -4.010794,-0.167024 -12.739608,0 0,12.739608 h 12.739608 z m -0.310243,0.310243 V 66.20278 H 37.50028 V 54.083658 Z m 0.167024,-4.010793 V 37.333257 l -12.739608,0 V 50.072865 Z M 49.476183,49.762622 H 37.357061 l 0,-12.119122 h 12.119122 z m 4.010794,0.167023 12.739608,0 0,-12.739608 -12.739608,0 z M 53.79722,49.619402 V 37.50028 l 12.119122,0 v 12.119122 z"
           id="path50"
           inkscape:original-d="M 53.630196,53.630196 V 66.369804 H 66.369804 V 53.630196 Z m 0.310243,0.310243 H 66.059561 V 66.059561 H 53.940439 Z" />
        <path
           style="fill:#0000ff;stroke-width:0.682774"
           d="m 54.387118,54.387118 v 11.225763 l 11.225763,0 V 54.387118 Z m 0.273377,0.273376 H 65.339506 V 65.339506 H 54.660495 Z m -5.487772,-0.130157 -11.225763,0 0,11.225763 h 11.225763 z m -0.273376,0.273377 0,10.679011 H 38.220335 V 54.803714 Z m 0.130157,-5.487771 0,-11.225763 -11.225763,0 0,11.225763 z M 48.756127,49.042567 H 38.077116 V 38.363555 h 10.679011 z m 5.487772,0.130156 11.225763,0 0,-11.225763 -11.225763,0 z m 0.273376,-0.273377 V 38.220335 h 10.679012 l 0,10.679011 z"
           id="path51"
           inkscape:original-d="M 54.387118,54.387118 V 65.612881 H 65.612881 V 54.387118 Z m 0.273377,0.273376 H 65.339506 V 65.339506 H 54.660495 Z" />
        <path
           style="fill:#0000ff;stroke-width:0.682774"
           d="M 54.387118,54.387118 V 65.612882 H 65.612881 V 54.387118 Z m 0.273377,0.273377 h 10.679011 v 10.67901 l -10.679011,0 z m -5.487772,-0.130158 -11.225764,0 V 65.7561 h 11.225764 z m -0.273377,0.273377 v 10.679011 l -10.67901,0 V 54.803714 Z m 0.130158,-5.487771 0,-11.225764 H 37.803741 V 49.315943 Z M 48.756127,49.042566 H 38.077116 l 0,-10.67901 10.679011,0 z m 5.487772,0.130157 11.225764,0 V 37.94696 l -11.225764,0 z m 0.273377,-0.273377 0,-10.679011 h 10.67901 l 0,10.679011 z"
           id="path52"
           inkscape:original-d="M 54.387118,54.387118 V 65.612882 H 65.612881 V 54.387118 Z m 0.273377,0.273377 h 10.679011 v 10.67901 H 54.660495 Z" />
        <path
           style="fill:#0000ff;stroke-width:0.60164"
           d="m 55.054096,55.054095 0,9.891809 9.891808,0 v -9.891809 z m 0.240892,0.240891 9.410026,0 v 9.410026 h -9.410026 z m -6.789242,-0.09767 -9.891809,0 0,9.891808 h 9.891809 z m -0.240891,0.240892 v 9.410026 h -9.410026 v -9.410026 z m 0.09767,-6.789241 0,-9.891809 -9.891808,0 v 9.891809 z m -0.240892,-0.240891 -9.410026,0 0,-9.410026 h 9.410026 z m 6.789242,0.09767 9.891809,0 0,-9.891808 h -9.891809 z m 0.240891,-0.240892 v -9.410026 l 9.410026,0 v 9.410026 z"
           id="path53"
           inkscape:original-d="m 55.054096,55.054095 v 9.891809 h 9.891808 v -9.891809 z m 0.240892,0.240891 h 9.410026 v 9.410026 h -9.410026 z" />
        <path
           style="fill:#0000ff;stroke-width:0.529047"
           d="m 55.650864,55.650864 v 8.698272 l 8.698272,0 v -8.698272 z m 0.211826,0.211826 h 8.27462 v 8.27462 l -8.27462,0 z m -7.953713,-0.06861 -8.698272,0 0,8.698272 h 8.698272 z m -0.211826,0.211826 v 8.27462 l -8.27462,0 0,-8.27462 z m 0.06861,-7.953712 0,-8.698272 -8.698272,0 v 8.698272 z m -0.211826,-0.211826 h -8.27462 v -8.27462 l 8.27462,0 z m 7.953713,0.06861 h 8.698272 l 0,-8.698272 h -8.698272 z m 0.211826,-0.211826 v -8.27462 h 8.27462 v 8.27462 z"
           id="path54"
           inkscape:original-d="m 55.650864,55.650864 v 8.698272 h 8.698272 v -8.698272 z m 0.211826,0.211826 h 8.27462 v 8.27462 h -8.27462 z" />
        <path
           style="fill:#0000ff;stroke-width:0.46618"
           d="m 56.167671,56.167671 0,7.664658 h 7.664658 v -7.664658 z m 0.186655,0.186654 7.291349,0 0,7.291349 h -7.291349 z m -8.962156,-0.04344 -7.664658,0 v 7.664658 h 7.664658 z m -0.186654,0.186655 v 7.291349 l -7.291349,0 v -7.291349 z m 0.04343,-8.962155 0,-7.664658 -7.664658,0 v 7.664658 z m -0.186655,-0.186654 -7.291349,0 0,-7.291349 7.291349,0 z m 8.962156,0.04343 h 7.664658 v -7.664658 l -7.664658,0 z m 0.186654,-0.186655 v -7.291349 h 7.291349 v 7.291349 z"
           id="path55"
           inkscape:original-d="m 56.167671,56.167671 v 7.664658 h 7.664658 v -7.664658 z m 0.186655,0.186654 h 7.291349 v 7.291349 h -7.291349 z" />
        <path
           style="fill:#0000ff;stroke-width:0.5"
           d="m 55.889648,55.889648 0,8.220703 h 8.220704 v -8.220703 z m 0.200195,0.200195 7.820313,0 v 7.820313 l -7.820313,0 z m -8.41965,-0.05698 H 39.44949 v 8.220704 h 8.220703 z m -0.200195,0.200195 0,7.820313 -7.820313,0 v -7.820313 z m 0.05698,-8.419649 V 39.59271 l -8.220704,0 0,8.220703 z m -0.200195,-0.200195 -7.820313,0 v -7.820313 l 7.820313,0 z m 8.41965,0.05697 h 8.220703 v -8.220704 h -8.220703 z m 0.200195,-0.200195 v -7.820313 l 7.820313,0 v 7.820313 z"
           id="path56"
           inkscape:original-d="m 55.889648,55.889648 v 8.220703 h 8.220704 v -8.220703 z m 0.200195,0.200195 h 7.820313 v 7.820313 h -7.820313 z" />
        <path
           style="fill:#0000ff;stroke-width:0.440585"
           d="m 56.37808,56.378081 v 7.243839 l 7.243839,0 0,-7.243839 z m 0.176406,0.176405 6.891028,0 v 6.891028 h -6.891028 z m -9.372726,-0.03319 -7.243839,0 v 7.243839 h 7.243839 z m -0.176405,0.176406 0,6.891028 h -6.891028 v -6.891028 z m 0.03319,-9.372725 0,-7.243839 -7.243839,0 v 7.243839 z m -0.176406,-0.176405 -6.891028,0 v -6.891028 h 6.891028 z m 9.372726,0.03319 7.243839,0 v -7.243839 h -7.243839 z m 0.176405,-0.176406 v -6.891028 l 6.891028,0 v 6.891028 z"
           id="path57"
           inkscape:original-d="m 56.37808,56.378081 v 7.243839 h 7.243839 v -7.243839 z m 0.176406,0.176405 h 6.891028 v 6.891028 h -6.891028 z" />
        <path
           style="fill:#0000ff;stroke-width:0.387425"
           d="m 56.815098,56.815097 v 6.369805 h 6.369804 l 0,-6.369805 z m 0.155122,0.155123 6.05956,0 v 6.05956 l -6.05956,0 z m -10.225476,-0.0119 h -6.369805 v 6.369804 h 6.369805 z m -0.155123,0.155122 v 6.05956 l -6.05956,0 v -6.05956 z m 0.0119,-10.225475 V 40.518159 H 40.23172 v 6.369805 z m -0.155122,-0.155123 -6.05956,0 0,-6.05956 h 6.05956 z m 10.225476,0.0119 6.369805,0 v -6.369804 l -6.369805,0 z m 0.155123,-0.155122 0,-6.05956 h 6.05956 v 6.05956 z"
           id="path58"
           inkscape:original-d="m 56.815098,56.815097 v 6.369805 h 6.369804 v -6.369805 z m 0.155122,0.155123 h 6.05956 v 6.05956 h -6.05956 z" />
        <path
           style="fill:#0000ff;stroke-width:0.341387"
           d="m 57.193559,57.193559 0,5.612881 h 5.612881 v -5.612881 z m 0.136688,0.136687 5.339506,0 0,5.339506 h -5.339506 z m -10.963965,0.0065 -5.612881,0 v 5.612881 l 5.612881,0 z m -0.136687,0.136688 0,5.339506 -5.339506,0 v -5.339506 z m -0.0065,-10.963964 v -5.612881 h -5.612881 l 0,5.612881 z m -0.136688,-0.136687 -5.339506,0 0,-5.339506 5.339506,0 z m 10.963965,-0.0065 h 5.612881 l 0,-5.612881 -5.612881,0 z m 0.136687,-0.136688 0,-5.339506 5.339506,0 0,5.339506 z"
           id="path59"
           inkscape:original-d="m 57.193559,57.193559 v 5.612881 h 5.612881 v -5.612881 z m 0.136688,0.136687 h 5.339506 v 5.339506 h -5.339506 z" />
        <path
           style="fill:#0000ff;stroke-width:0.341387"
           d="m 57.193559,57.193559 0,5.612881 h 5.612881 v -5.612881 z m 0.136688,0.136688 5.339506,0 v 5.339505 h -5.339506 z m -10.963965,0.0065 -5.612881,0 v 5.612881 l 5.612881,0 z m -0.136688,0.136688 0,5.339506 -5.339505,0 v -5.339506 z m -0.0065,-10.963964 v -5.612881 h -5.612881 l 0,5.612881 z m -0.136688,-0.136688 -5.339506,0 v -5.339505 l 5.339506,0 z m 10.963965,-0.0065 h 5.612881 l 0,-5.612881 -5.612881,0 z m 0.136688,-0.136688 v -5.339506 l 5.339505,0 0,5.339506 z"
           id="path60"
           inkscape:original-d="m 57.193559,57.193559 v 5.612881 h 5.612881 v -5.612881 z m 0.136688,0.136688 h 5.339506 v 5.339505 h -5.339506 z" />
        <path
           style="fill:#0000ff;stroke-width:0.30082"
           d="m 57.527048,57.527048 v 4.945904 l 4.945904,0 0,-4.945904 z m 0.120445,0.120446 4.705013,0 v 4.705013 h -4.705013 z m -11.6147,0.02277 -4.945904,0 0,4.945904 4.945904,0 z m -0.120446,0.120445 v 4.705013 l -4.705013,0 v -4.705013 z m -0.02277,-11.614699 0,-4.945904 -4.945904,0 v 4.945904 z m -0.120445,-0.120446 h -4.705013 l 0,-4.705013 4.705013,0 z m 11.6147,-0.02277 4.945904,0 v -4.945904 l -4.945904,0 z m 0.120446,-0.120445 0,-4.705013 4.705013,0 v 4.705013 z"
           id="path61"
           inkscape:original-d="m 57.527048,57.527048 v 4.945904 h 4.945904 v -4.945904 z m 0.120445,0.120446 h 4.705013 v 4.705013 h -4.705013 z" />
        <path
           style="fill:#0000ff;stroke-width:0.264523"
           d="m 57.825432,57.825431 v 4.349137 l 4.349136,0 v -4.349137 z m 0.105913,0.105913 4.137311,0 v 4.137311 l -4.137311,0 z m -12.196935,0.03731 -4.349137,0 0,4.349136 h 4.349137 z m -0.105913,0.105913 v 4.137311 h -4.137311 l 0,-4.137311 z m -0.03731,-12.196934 0,-4.349137 -4.349136,0 v 4.349137 z m -0.105913,-0.105913 h -4.137311 l 0,-4.137311 4.137311,0 z m 12.196935,-0.03731 4.349137,0 v -4.349136 h -4.349137 z m 0.105913,-0.105913 v -4.137311 h 4.137311 l 0,4.137311 z"
           id="path62"
           inkscape:original-d="m 57.825432,57.825431 v 4.349137 h 4.349136 v -4.349137 z m 0.105913,0.105913 h 4.137311 v 4.137311 h -4.137311 z" />
        <path
           style="fill:#0000ff;stroke-width:0.23309"
           d="m 58.083835,58.083835 0,3.832329 3.832329,0 v -3.832329 z m 0.09333,0.09333 3.645674,0 0,3.645674 h -3.645674 z m -12.701159,0.04989 -3.832329,0 v 3.832329 h 3.832329 z m -0.09333,0.09333 v 3.645674 l -3.645674,0 v -3.645674 z m -0.04989,-12.701158 0,-3.832329 -3.832329,0 v 3.832329 z m -0.09333,-0.09333 -3.645674,0 0,-3.645674 h 3.645674 z m 12.701159,-0.04989 3.832329,0 0,-3.832329 h -3.832329 z m 0.09333,-0.09333 v -3.645674 l 3.645674,0 0,3.645674 z"
           id="path63"
           inkscape:original-d="m 58.083835,58.083835 v 3.832329 h 3.832329 v -3.832329 z m 0.09333,0.09333 h 3.645674 v 3.645674 h -3.645674 z" />
      </g>
    </g>
  </g>
</svg>
