<?xml version="1.0" encoding="UTF-8" standalone="no"?>
<!-- Created with Inkscape (http://www.inkscape.org/) -->

<svg
   width="120"
   height="120"
   viewBox="0 0 120 120"
   version="1.1"
   id="svg1"
   inkscape:version="1.4 (86a8ad7, 2024-10-11)"
   sodipodi:docname="mand_49.svg"
   xmlns:inkscape="http://www.inkscape.org/namespaces/inkscape"
   xmlns:sodipodi="http://sodipodi.sourceforge.net/DTD/sodipodi-0.dtd"
   xmlns="http://www.w3.org/2000/svg"
   xmlns:svg="http://www.w3.org/2000/svg">
  <sodipodi:namedview
     id="namedview1"
     pagecolor="#ffffff"
     bordercolor="#000000"
     borderopacity="0.25"
     inkscape:showpageshadow="2"
     inkscape:pageopacity="0.0"
     inkscape:pagecheckerboard="0"
     inkscape:deskcolor="#d1d1d1"
     inkscape:document-units="px"
     inkscape:zoom="4.8625"
     inkscape:cx="59.948586"
     inkscape:cy="59.948586"
     inkscape:window-width="3440"
     inkscape:window-height="1369"
     inkscape:window-x="-8"
     inkscape:window-y="-8"
     inkscape:window-maximized="1"
     inkscape:current-layer="layer1" />
  <defs
     id="defs1">
    <inkscape:path-effect
       effect="copy_rotate"
       starting_point="0,0"
       origin="4.2572506,60"
       id="path-effect3"
       is_visible="true"
       lpeversion="1.2"
       lpesatellites=""
       method="normal"
       num_copies="12"
       starting_angle="0"
       rotation_angle="30"
       gap="-0.01"
       copies_to_360="true"
       mirror_copies="false"
       split_items="false"
       link_styles="false" />
  </defs>
  <g
     inkscape:label="Layer 1"
     inkscape:groupmode="layer"
     id="layer1">
    <path
       id="path1"
       style="color:#000000;font-style:normal;font-variant:normal;font-weight:normal;font-stretch:normal;font-size:medium;line-height:normal;font-family:sans-serif;font-variant-ligatures:normal;font-variant-position:normal;font-variant-caps:normal;font-variant-numeric:normal;font-variant-alternates:normal;font-variant-east-asian:normal;font-feature-settings:normal;font-variation-settings:normal;text-indent:0;text-align:start;text-decoration-line:none;text-decoration-style:solid;text-decoration-color:#000000;letter-spacing:normal;word-spacing:normal;text-transform:none;writing-mode:lr-tb;direction:ltr;text-orientation:mixed;dominant-baseline:auto;baseline-shift:baseline;text-anchor:start;white-space:normal;shape-padding:0;shape-margin:0;inline-size:0;clip-rule:nonzero;display:inline;overflow:visible;visibility:visible;isolation:auto;mix-blend-mode:normal;color-interpolation:sRGB;color-interpolation-filters:linearRGB;solid-color:#000000;solid-opacity:1;vector-effect:none;fill:#0000ff;fill-opacity:1;fill-rule:nonzero;stroke:none;stroke-linecap:butt;stroke-linejoin:miter;stroke-miterlimit:4;stroke-dasharray:none;stroke-dashoffset:0;stroke-opacity:1;-inkscape-stroke:none;color-rendering:auto;image-rendering:auto;shape-rendering:auto;text-rendering:auto;enable-background:accumulate;stop-color:#000000;stop-opacity:1"
       d="M 59.998966,4.2572504 43.794187,20.87886 20.58584,20.583777 20.878859,43.798314 4.2572506,59.998967 20.878859,76.203746 20.58584,99.41622 43.794187,99.121137 59.998966,115.74275 76.203745,99.121137 99.416219,99.41622 99.121139,76.203746 115.74275,59.998967 99.121139,43.798314 99.416219,20.583777 76.203745,20.87886 Z m 0,0.7552464 L 75.985012,21.409183 98.879709,21.120291 98.588749,44.014984 114.9875,59.998967 98.588749,75.985012 98.879709,98.879705 75.985012,98.590814 59.998966,114.98544 44.014983,98.590814 21.118227,98.879705 21.411245,75.985012 5.0124969,59.998967 21.411245,44.014984 21.118227,21.120291 44.014983,21.409183 Z M 75.114209,22.506973 59.70801,29.291808 44.178001,22.799991 38.080315,38.490955 22.506972,44.883723 29.291808,60.289922 22.79999,75.824058 38.490955,81.917617 44.883722,97.49096 60.289922,90.706125 75.824057,97.197941 81.917616,81.506978 97.490959,75.11421 90.706124,59.708011 97.197939,44.178002 81.506977,38.080316 Z m -0.206352,0.509688 6.306101,15.360801 15.478422,6.015144 -6.403086,15.319531 6.691977,15.195721 -15.360801,6.3061 -6.011017,15.478423 -15.323659,-6.403086 -15.197783,6.691977 -6.304037,-15.360801 -15.480486,-6.011017 6.405149,-15.323659 -6.69404,-15.19572 15.362864,-6.3061 6.015144,-15.480486 15.319532,6.405149 z m -14.906828,7.573097 -8.54914,8.769937 -12.246959,-0.154764 0.154765,12.246958 -8.769937,8.549141 8.769937,8.54914 -0.154765,12.246959 12.246959,-0.154765 8.54914,8.769938 8.549141,-8.769938 12.246958,0.154765 L 80.642364,68.55017 89.412301,60.00103 80.642364,51.451889 80.797128,39.204931 68.55017,39.359695 Z M 24.659617,-16.145495 18.936672,6.3516307 -1.3098877,17.700255 10.551143,37.658124 4.2567341,59.999105 26.753859,65.722051 38.106334,85.971153 58.05781,74.11143 80.402367,80.40378 86.125311,57.906651 106.37544,46.555964 94.513661,26.600911 100.80601,4.2563557 78.310945,-1.4630159 66.959223,-21.714935 47.004172,-9.8531483 Z m 0.377624,0.654063 22.042665,6.2069234 L 66.762849,-20.982045 77.958217,-1.0091791 100.15194,4.6339807 93.943231,26.677677 105.64256,46.359583 85.670721,57.556745 80.023712,79.74793 57.983864,73.541759 38.299137,85.240324 27.105552,65.266429 4.9107966,59.621482 11.120538,37.579573 -0.58057,17.898696 19.393048,6.7005059 Z M 46.874663,-7.898393 36.924921,5.6805459 20.22963,7.823472 22.794361,24.461088 12.503834,37.784059 26.082774,47.733801 28.227763,64.432667 44.863317,61.864361 58.186287,72.154888 68.13603,58.575949 84.834894,56.430959 82.266589,39.795407 92.557116,26.472436 78.978177,16.522693 76.835249,-0.17259641 60.197634,2.3921336 Z m 0.07614,0.5445787 L 60.092445,2.7959791 76.504724,0.26603561 78.619254,16.734682 92.012537,26.548574 81.862743,39.690217 84.396261,56.100433 67.92404,58.217027 58.108362,71.611341 44.968506,61.460515 28.556503,63.995065 26.441695,47.521813 13.046627,37.708953 23.198207,24.566278 20.667232,8.152212 37.13691,6.0394678 Z m -9.123143,14.0119084 -3.018804,11.8695579 -10.68356,5.98945 6.25751,10.528795 -3.320418,11.788741 11.869558,3.018804 5.989449,10.68356 10.528795,-6.25751 11.788742,3.32042 3.018804,-11.86956 L 80.941293,39.740903 74.683784,29.212108 78.004203,17.423367 66.134644,14.404562 60.145194,3.7210033 49.6164,9.9785118 Z M -16.146529,-16.145116 -9.8541823,6.1994387 -21.713905,26.150915 -1.4630169,37.504422 4.256356,59.999483 26.60091,53.707138 46.556993,65.567137 57.905617,45.320577 80.402746,39.597633 74.110396,17.253077 85.972183,-2.701974 65.72205,-14.052664 59.999106,-36.549791 37.658123,-30.25538 17.701284,-42.118196 6.3505967,-21.868062 Z m 0.654063,0.377623 22.1929694,-5.645979 11.1971606,-19.971835 19.681906,11.699325 22.041911,-6.209743 5.644945,22.194757 L 85.239292,-2.5056002 73.541757,17.177343 79.746896,39.218978 57.556742,44.864201 46.358551,64.837819 26.677674,53.136711 4.6339791,59.345421 -1.0091821,37.151697 -20.983077,25.958112 -9.2845111,6.2733852 Z M 7.215816,-20.11044 5.3885559,-3.3758623 -7.998527,6.8276115 2.5414034,19.953844 0.29103141,36.637139 17.025609,38.464398 27.232657,51.853546 40.355316,41.311551 57.03861,43.561924 58.865871,26.827346 72.255016,16.620298 61.713023,3.4976397 63.963395,-13.185655 47.228817,-15.012915 37.025343,-28.399996 23.899111,-17.860067 Z m 0.3382267,0.433551 16.4558943,2.219156 12.948479,-10.397134 10.06556,13.205 16.505869,1.802439 L 61.310687,3.6084657 71.709886,16.553371 58.502821,26.622506 56.699352,43.13016 40.244489,40.909216 27.298553,51.310202 17.23045,38.10135 0.72354998,36.300699 2.9437392,19.843019 -7.455183,6.893508 5.7516048,-3.1710214 Z M 6.6591231,-2.9806492 9.9795413,8.8080917 3.7220323,19.336887 l 10.6835597,5.989449 3.018804,11.869559 11.788741,-3.320419 10.528795,6.25751 5.989449,-10.68356 11.86956,-3.018803 -3.320419,-11.788742 6.257509,-10.5287947 -10.683559,-5.98945 -3.018804,-11.8695583 -11.788742,3.320418 -10.528795,-6.257509 -5.989449,10.683559 z M -51.485499,4.2582846 -34.863889,20.463064 -35.158972,43.671411 -11.944435,43.378392 4.2562176,60 20.460997,43.378392 43.673471,43.671411 43.378388,20.463064 60.000001,4.2582846 43.378388,-11.946494 l 0.295083,-23.212474 -23.212474,0.29508 -16.2047794,-16.621611 -16.2006526,16.621611 -23.214537,-0.29508 0.295083,23.212474 z m 0.755246,0 16.396687,-15.9860456 -0.288892,-22.894697 22.894693,0.29096 15.9839826,-16.398751 15.9860454,16.398751 22.894693,-0.29096 -0.288891,22.894697 L 59.242691,4.2582846 42.848065,20.242268 43.136956,43.139024 20.242263,42.846006 4.2562176,59.244754 -11.727765,42.846006 l -22.894693,0.293018 0.288892,-22.896756 z m 17.494477,-15.1152426 6.784835,15.4061986 -6.491817,15.5300094 15.690964,6.097686 6.392768,15.573343 15.4061986,-6.784836 15.5341364,6.491818 6.093559,-15.690965 15.573343,-6.392767 -6.784835,-15.4062004 6.491816,-15.5341346 -15.690963,-6.093559 -6.392768,-15.573343 -15.4061994,6.784835 -15.5300086,-6.491815 -6.097686,15.690962 z m 0.509688,0.206352 15.360801,-6.306101 6.015144,-15.478422 15.3195306,6.403086 15.1957214,-6.691977 6.3061,15.360801 15.478423,6.011017 L 34.546546,3.9714566 41.238523,19.16924 25.877722,25.473277 19.866705,40.953763 4.5430456,34.548614 -10.652674,41.242654 -16.958774,25.87979 -32.43926,19.864646 -26.034111,4.5451136 Z m 7.573097,14.9068276 8.769937,8.5491404 -0.154764,12.246959 12.2469576,-0.154765 8.549141,8.769937 8.5491404,-8.769937 12.246959,0.154765 -0.154765,-12.246959 8.769938,-8.5491404 -8.769938,-8.549141 0.154765,-12.2469576 -12.246959,0.154764 -8.5491404,-8.769937 -8.549141,8.769937 -12.2469576,-0.154764 0.154764,12.2469576 z m -46.735253,35.3414114 22.497125,5.722946 11.348624,20.246559 19.95787,-11.86103 L 4.256356,60.000516 9.9793021,37.503392 30.228404,26.150917 18.368681,6.1994402 24.66103,-16.145117 2.1639019,-21.86806 -9.1867858,-42.118194 -29.141838,-30.25641 l -22.344556,-6.292348 -5.719371,22.495064 -20.251919,11.3517215 11.861786,19.9550505 z m 0.654062,-0.377623 6.206924,-22.042665 -11.697536,-19.6829432 19.972865,-11.1953678 5.64316,-22.193726 22.043697,6.208712 19.6819056,-11.699325 11.1971616,19.971834 22.1911858,5.647009 L 17.79901,6.2733867 29.497575,25.958114 9.5236799,37.151699 3.8787328,59.346454 -18.163177,53.136713 -37.844053,64.837821 -49.042243,44.864202 Z m 7.59304,-21.837423 13.578939,9.949743 2.142926,16.695291 16.637616,-2.564732 13.322971,10.290527 9.9497417,-13.57894 L 8.6899171,36.029488 6.1216115,19.393934 16.412139,6.0709637 2.8331992,-3.8787794 0.68820927,-20.577643 l -16.63555227,2.568305 -13.322971,-10.290527 -9.949742,13.578939 -16.69529,2.142928 2.56473,16.6376145 z m 0.544578,-0.07614 10.149794,-13.1416446 -2.529944,-16.4122784 16.468646,-2.114531 9.813892,-13.393282 13.141643,10.149794 L 0.35768347,-20.13901 2.4742778,-3.6667894 15.868591,6.1488882 5.717766,19.288745 8.2523156,35.700748 -8.2209369,37.815555 -18.033796,51.210624 -31.176471,41.059044 -47.590537,43.590019 -49.703282,27.120341 Z m 14.011909,9.123143 11.869558,3.018804 5.98945,10.683559 10.528794,-6.257509 11.7887419,3.320418 L -5.8893072,25.325306 4.7942529,19.335857 -1.463257,8.8070622 1.8571621,-2.9816792 -10.012397,-6.0004835 l -5.989449,-10.6835595 -10.528796,6.257509 -11.788741,-3.320418 -3.018804,11.8695588 -10.683559,5.9894495 6.257508,10.5287947 z M -71.887866,80.40378 -49.543311,74.111433 -29.591834,85.971156 -18.238328,65.720267 4.2567341,60.000895 -2.0356115,37.65634 9.8243874,17.700257 -10.422172,6.3516333 l -5.722944,-22.4971283 -22.344557,6.2923493 -19.95505,-11.8617863 -11.350691,20.2501321 -22.497127,5.7229448 6.294411,22.3409821 -11.862815,19.956839 20.250134,11.350688 z m 0.377623,-0.654063 -5.645978,-22.19297 -19.971836,-11.197161 11.699326,-19.681905 -6.209744,-22.0419111 22.194758,-5.6449456 11.195367,-19.9728653 19.682944,11.697535 22.041635,-6.20514 5.645222,22.1901545 L 9.0950692,17.8987 -2.6060383,37.579576 3.6026716,59.623271 -18.591052,65.266433 -29.784638,85.240327 -49.469364,73.541762 Z m -4.342946,-22.708282 16.734577,1.82726 10.203474,13.387083 13.126233,-10.539931 16.683295,2.250372 1.827259,-16.734578 L -3.8892038,37.024594 -14.431199,23.901935 -12.180826,7.2186405 -28.915404,5.39138 -39.122451,-7.9977651 -52.24511,2.544228 -68.928404,0.29385598 -70.755664,17.028433 -84.142746,27.231908 -73.602817,40.35814 Z m 0.43355,-0.338227 2.219157,-16.455894 -10.397135,-12.948479 13.205001,-10.06556 1.802438,-16.50586894 16.455894,2.21915774 12.944905,-10.3991991 10.069135,13.2070647 16.507655,1.8034694 -2.220944,16.4548622 10.4009852,12.945937 -13.2088512,10.068103 -1.800651,16.5069 -16.457681,-2.22019 -12.94951,10.398923 -10.06453,-13.206788 z m 16.69624,0.89492 11.788741,-3.320419 10.528796,6.257509 5.989449,-10.683559 11.869558,-3.018805 -3.320418,-11.788741 6.25751,-10.528795 -10.68356,-5.989449 -3.018804,-11.8695589 -11.788742,3.3204186 -10.528794,-6.2575094 -5.98945,10.6835597 -11.869558,3.018804 3.320417,11.788742 -6.257508,10.528794 10.683559,5.98945 z m 7.238934,58.144622 16.204779,-16.62161 23.208347,0.295083 L -12.364358,76.201686 4.2572506,60.001033 -12.364358,43.796254 -12.071339,20.58378 -35.279686,20.878863 -51.484465,4.25725 -67.689244,20.878863 -90.901718,20.58378 l 0.29508,23.212474 -16.621612,16.204779 16.621612,16.200653 -0.29508,23.214537 23.212474,-0.295083 z m 0,-0.75525 -15.986046,-16.396683 -22.894697,0.288892 0.29096,-22.894693 -16.398752,-15.983983 16.398752,-15.986045 -0.29096,-22.894693 22.894697,0.288891 15.986046,-16.394626 15.983983,16.394626 22.896756,-0.288891 -0.293018,22.894693 16.3987483,15.986045 -16.3987483,15.983983 0.293018,22.894693 -22.896756,-0.288892 z m -15.115243,-17.494473 15.406199,-6.784835 15.530009,6.491817 6.097686,-15.690964 15.573343,-6.392768 -6.784836,-15.406199 6.491818,-15.534136 -15.690965,-6.093559 -6.392767,-15.573343 -15.4062,6.784835 -15.534135,-6.491816 -6.093559,15.690963 -15.573343,6.392768 6.784835,15.406199 -6.491815,15.530009 15.690962,6.097686 z m 0.206352,-0.509688 -6.306101,-15.360801 -15.478422,-6.015144 6.403086,-15.319531 -6.691977,-15.195721 15.360801,-6.3061 6.011017,-15.478423 15.323659,6.403086 15.197783,-6.691977 6.304037,15.360801 15.480486,6.011017 -6.405149,15.323659 6.69404,15.19572 -15.362864,6.3061 -6.015144,15.480486 -15.319532,-6.405149 z m 14.906828,-7.573097 8.54914,-8.769937 12.246959,0.154764 -0.154765,-12.246958 8.769937,-8.549141 -8.769937,-8.54914 0.154765,-12.246959 -12.246959,0.154765 -8.54914,-8.769938 -8.549141,8.769938 -12.246958,-0.154765 0.154764,12.246959 -8.769937,8.54914 8.769937,8.549141 -0.154764,12.246958 12.246958,-0.154764 z m 35.341412,46.735248 5.722945,-22.49712 L 9.8243889,102.29975 -2.0366415,82.341876 4.2577671,60.000895 -18.239358,54.277949 -29.591833,34.028847 -49.543309,45.88857 l -22.344557,-6.29235 -5.722944,22.497129 -20.250133,11.350687 11.861783,19.955053 -6.292348,22.344551 22.495064,5.71938 11.351722,20.25191 19.955051,-11.86178 z m -0.377623,-0.65406 -22.042665,-6.20692 -19.682944,11.69753 -11.195367,-19.97286 -22.193727,-5.64316 6.208713,-22.043697 -11.699326,-19.681906 19.971835,-11.197162 5.647009,-22.191185 22.039848,6.206171 19.684727,-11.698565 11.193586,19.973895 22.1947546,5.644947 -6.2097409,22.041909 11.7011075,19.680873 -19.9736182,11.19819 z m -21.837423,-7.59304 9.949742,-13.57894 16.695291,-2.14292 -2.564731,-16.637618 10.2905268,-13.322971 -13.5789398,-9.949742 -2.144989,-16.698866 -16.635554,2.568306 -13.32297,-10.290527 -9.949743,13.578939 -16.698863,2.14499 2.568304,16.635552 -10.290526,13.322971 13.578939,9.949746 2.142927,16.69529 16.637615,-2.56473 z m -0.07614,-0.54458 -13.141644,-10.14979 -16.412279,2.52994 -2.11453,-16.46864 -13.393283,-9.813894 10.149794,-13.141643 -2.533518,-16.410216 16.472221,-2.116594 9.815678,-13.394314 13.139857,10.150826 16.412002,-2.53455 2.114808,16.473252 13.3950686,9.81286 -10.1515806,13.142675 2.530976,16.414068 -16.469679,2.11274 z m 9.123143,-14.0119 3.018804,-11.86956 10.68356,-5.989452 -6.257509,-10.528795 3.320417,-11.788741 -11.869558,-3.018804 -5.989449,-10.68356 -10.528795,6.25751 -11.788742,-3.32042 -3.018804,11.86956 -10.683559,5.989449 6.257509,10.528795 -3.320418,11.788738 11.869558,3.01881 5.98945,10.68356 10.528795,-6.25751 z M 24.66103,136.14512 18.368683,113.80056 30.228406,93.849085 9.9775181,82.495578 4.2581452,60.000517 -18.086409,66.292862 -38.042492,54.432863 l -11.348624,20.24656 -22.497129,5.722944 6.29235,22.344553 -11.861786,19.95505 20.250132,11.35069 5.722945,22.49713 22.340982,-6.29441 19.9568388,11.86282 11.3506877,-20.25014 z m -0.654062,-0.37763 -22.1929702,5.64598 -11.1971607,19.97184 -19.6819061,-11.69933 -22.04191,6.20975 -5.644946,-22.19476 -19.972866,-11.19537 11.697536,-19.68294 -6.20514,-22.041638 22.190154,-5.645223 L -37.84405,55.162181 -18.163173,66.863289 3.8805221,60.654579 9.5236833,82.848303 29.497578,94.041888 17.799012,113.72661 Z M 1.2986852,140.11044 3.1259453,123.37586 16.513028,113.17239 5.9730978,100.04616 8.2234698,83.362861 -8.5111079,81.535602 -18.718155,68.146454 l -13.12266,10.541995 -16.683294,-2.250373 -1.82726,16.734578 -13.389145,10.207046 10.541993,13.12266 -2.250372,16.68329 16.734577,1.82726 10.203475,13.38709 13.126232,-10.53993 z m -0.33822671,-0.43355 -16.45589449,-2.21916 -12.948478,10.39714 -10.06556,-13.205 -16.505869,-1.80244 2.219157,-16.4559 -10.399199,-12.9449 13.207065,-10.069136 1.803469,-16.507654 16.454863,2.220944 L -18.784052,68.689798 -8.7159483,81.89865 7.7909512,83.699301 5.570762,100.15698 15.969684,113.10649 2.7628964,123.17102 Z m 0.89491961,-16.69624 -3.3204182,-11.78874 6.257509,-10.5288 -10.6835592,-5.989446 -3.0188048,-11.869559 -11.7887409,3.320419 -10.528795,-6.25751 -5.989449,10.68356 -11.869559,3.018803 3.320418,11.788743 -6.257509,10.52879 10.683559,5.98945 3.018804,11.86956 11.788742,-3.32042 10.528795,6.25751 5.989449,-10.68356 z M 60,115.74172 43.378391,99.536936 43.673474,76.328589 20.458937,76.621608 4.2582836,60 -11.946495,76.621608 l -23.212474,-0.293019 0.295083,23.208347 -16.621613,16.204784 16.621613,16.20477 -0.295083,23.21248 23.212474,-0.29508 16.2047786,16.62161 16.2006534,-16.62161 23.214537,0.29508 -0.295083,-23.21248 z m -0.755246,0 -16.396686,15.98604 0.288892,22.8947 -22.894693,-0.29096 -15.9839834,16.39875 -15.9860446,-16.39875 -22.894693,0.29096 0.288891,-22.8947 -16.394626,-15.98604 16.394626,-15.983988 -0.288891,-22.896756 22.894693,0.293018 L 4.2582836,60.755246 20.242267,77.153994 43.13696,76.860976 42.848068,99.757732 Z M 41.750278,130.85696 34.965443,115.45076 41.45726,99.92075 25.766296,93.823064 19.373528,78.249721 3.9673286,85.034557 -11.566807,78.542739 l -6.093559,15.690965 -15.573343,6.392766 6.784835,15.4062 -6.491816,15.53414 15.690963,6.09356 6.392768,15.57334 15.4061986,-6.78484 15.5300094,6.49182 6.097686,-15.69096 z m -0.509688,-0.20635 -15.360801,6.3061 -6.015144,15.47842 -15.3195314,-6.40309 -15.1957206,6.69198 -6.3061,-15.3608 -15.478423,-6.01102 6.403086,-15.32366 -6.691977,-15.19778 15.360801,-6.304037 6.011017,-15.480486 15.3236586,6.405149 15.1957204,-6.69404 6.3061,15.362864 15.480486,6.01514 -6.405149,15.31954 z m -7.573097,-14.90683 -8.769937,-8.54914 0.154764,-12.246961 -12.246958,0.154765 -8.5491414,-8.769937 -8.54914,8.769937 -12.2469586,-0.154765 0.154765,12.246961 -8.769938,8.54914 8.769938,8.54914 -0.154765,12.24696 12.2469586,-0.15477 8.54914,8.76994 8.5491414,-8.76994 12.246958,0.15477 -0.154764,-12.24696 z M 80.402746,80.402367 57.90562,74.679421 46.556996,54.432862 26.599126,66.293892 4.2581452,59.999484 -1.4648009,82.496608 -21.713903,93.849083 l 11.8597233,19.951477 -6.2923493,22.34456 22.4971283,5.72294 11.3506877,20.25013 19.955052,-11.86178 22.344556,6.29235 5.719371,-22.49507 20.251919,-11.35172 -11.861786,-19.95505 z M 79.748683,80.77999 73.541759,102.82266 85.239295,122.5056 65.26643,133.70097 59.62327,155.89469 37.579573,149.68598 17.897668,161.38531 6.700506,141.41347 -15.49068,135.76646 -9.2845085,113.72661 -20.983073,94.041886 -1.0091787,82.848301 4.6357684,60.653546 26.677678,66.863287 46.358554,55.162179 57.556745,75.135798 Z M 72.155644,102.61741 58.576705,92.66767 56.433779,75.972379 39.796162,78.537111 26.473191,68.246584 l -9.949742,13.57894 -16.69886492,2.144988 2.56830562,16.635558 -10.2905272,13.32297 13.5789395,9.94974 2.1449899,16.69886 16.6355521,-2.5683 13.322971,10.29052 9.949742,-13.57893 16.69529,-2.14293 -2.56473,-16.63762 z m -0.544579,0.0761 -10.149793,13.14164 2.529943,16.41228 L 47.522569,134.362 37.708677,147.75529 24.567034,137.60549 8.1568177,140.13901 6.0402234,123.66679 -7.3540902,113.85111 2.7967352,100.71126 0.2621856,84.299252 16.735438,82.184445 l 9.81286,-13.395069 13.142674,10.15158 16.414067,-2.530975 2.112744,16.469678 z M 57.599157,93.570407 45.729598,90.551603 39.740148,79.868044 29.211354,86.125553 17.422612,82.805135 14.403808,94.674694 3.7202483,100.66414 l 6.2575099,10.5288 -3.3204191,11.78874 11.8695599,3.0188 5.989448,10.68356 10.528796,-6.25751 11.788741,3.32042 3.018805,-11.86956 10.683558,-5.98945 -6.257508,-10.52879 z M 80.402367,39.59622 58.057812,45.888567 38.106335,34.028844 26.752829,54.279733 4.2577671,59.999105 10.550113,82.34366 -1.3098862,102.29974 18.936673,113.64837 24.659617,136.1455 47.004174,129.85315 66.959225,141.71493 78.309915,121.4648 100.80704,115.74186 94.512631,93.400873 106.37545,73.444034 86.125312,62.093346 Z m -0.377623,0.654063 5.645979,22.19297 19.971837,11.197161 -11.699327,19.681905 6.209747,22.041911 -22.194761,5.64495 L 66.762851,140.98204 47.079907,129.28451 25.038272,135.48965 19.39305,113.29949 -0.580568,102.1013 11.12054,82.420424 4.9118296,60.376729 27.105554,54.733567 38.299139,34.759673 57.983865,46.458238 Z M 84.36769,62.958565 67.633113,61.131305 57.429639,47.744222 44.303406,58.284153 27.620111,56.033781 25.792852,72.768359 12.403705,82.975406 22.9457,96.098065 l -2.250373,16.683295 16.734578,1.82726 10.207048,13.38915 13.122658,-10.542 16.683295,2.25037 1.82726,-16.73457 L 92.657247,92.768092 82.117318,79.64186 Z M 83.93414,63.296792 81.714983,79.752686 92.112118,92.701165 78.907117,102.76673 77.104679,119.27259 60.648785,117.05344 47.70388,127.45264 37.634745,114.24557 21.12709,112.4421 23.348035,95.987239 12.947049,83.041302 26.1559,72.973199 l 1.800652,-16.5069 16.45768,2.22019 12.949511,-10.398923 10.064529,13.206788 z m -16.69624,-0.89492 -11.788741,3.320419 -10.528796,-6.257509 -5.989448,10.683559 -11.869559,3.018805 3.320418,11.788741 -6.25751,10.528795 10.68356,5.989448 3.018804,11.86956 11.788742,-3.32042 10.528794,6.25751 5.98945,-10.68356 11.869559,-3.0188 -3.320418,-11.788745 6.257508,-10.528794 -10.683558,-5.98945 z"
       inkscape:path-effect="#path-effect3"
       inkscape:original-d="M 59.998966,4.2572504 43.794187,20.87886 20.58584,20.583777 20.878859,43.798314 4.2572506,59.998967 20.878859,76.203746 20.58584,99.41622 43.794187,99.121137 59.998966,115.74275 76.203745,99.121137 99.416219,99.41622 99.121139,76.203746 115.74275,59.998967 99.121139,43.798314 99.416219,20.583777 76.203745,20.87886 Z m 0,0.7552464 L 75.985012,21.409183 98.879709,21.120291 98.588749,44.014984 114.9875,59.998967 98.588749,75.985012 98.879709,98.879705 75.985012,98.590814 59.998966,114.98544 44.014983,98.590814 21.118227,98.879705 21.411245,75.985012 5.0124969,59.998967 21.411245,44.014984 21.118227,21.120291 44.014983,21.409183 Z M 75.114209,22.506973 59.70801,29.291808 44.178001,22.799991 38.080315,38.490955 22.506972,44.883723 29.291808,60.289922 22.79999,75.824058 38.490955,81.917617 44.883722,97.49096 60.289922,90.706125 75.824057,97.197941 81.917616,81.506978 97.490959,75.11421 90.706124,59.708011 97.197939,44.178002 81.506977,38.080316 Z m -0.206352,0.509688 6.306101,15.360801 15.478422,6.015144 -6.403086,15.319531 6.691977,15.195721 -15.360801,6.3061 -6.011017,15.478423 -15.323659,-6.403086 -15.197783,6.691977 -6.304037,-15.360801 -15.480486,-6.011017 6.405149,-15.323659 -6.69404,-15.19572 15.362864,-6.3061 6.015144,-15.480486 15.319532,6.405149 z m -14.906828,7.573097 -8.54914,8.769937 -12.246959,-0.154764 0.154765,12.246958 -8.769937,8.549141 8.769937,8.54914 -0.154765,12.246959 12.246959,-0.154765 8.54914,8.769938 8.549141,-8.769938 12.246958,0.154765 -0.154764,-12.246959 8.769937,-8.54914 -8.769937,-8.549141 0.154764,-12.246958 -12.246958,0.154764 z"
       transform="matrix(0.49732359,0,0,0.49732359,57.882769,30.160585)" />
  </g>
</svg>
